<svg width="243.765869" height="174.385742" viewBox="0 0 243.766 174.386" fill="none" xmlns="http://www.w3.org/2000/svg" xmlns:xlink="http://www.w3.org/1999/xlink">
	<desc>
			Created with Pixso.
	</desc>
	<defs/>
	<path id="Vector" d="M170.688 53.6602C188.115 77.8105 181.629 112.262 156.202 130.608C130.775 148.956 96.0356 144.251 78.6095 120.1C61.1836 95.9492 67.6694 61.498 93.0963 43.1514C118.523 24.8047 153.262 29.5098 170.688 53.6602Z" fill="#20C7ED" fill-opacity="1.000000" fill-rule="evenodd"/>
	<g opacity="0.200000">
		<path id="Vector" d="M83.4757 58.9473C88.2911 60.3008 93.3322 60.6572 98.2903 59.9961C99.4935 59.8604 99.4247 58.1953 98.4774 57.8486C94.4128 56.3486 90.5814 54.7988 86.368 53.6738C85.2321 53.3486 84.0408 52.957 82.8024 52.5713C81.4597 54.1357 80.2008 55.7695 79.0309 57.4668C80.4873 58.0908 82.0876 58.5068 83.4757 58.9473Z" fill="#000000" fill-opacity="1.000000" fill-rule="nonzero"/>
		<path id="Vector" d="M86.0406 68.7422C97.3478 71.9355 109.201 72.7119 120.828 71.0205C132.823 69.3525 144.402 65.458 154.967 59.5371C159.689 56.9668 164.149 53.9414 168.283 50.5039C167.068 49.0791 165.781 47.7168 164.428 46.4229C161.122 49.4746 157.479 52.1396 153.57 54.3662C144.846 59.4102 135.374 63.0312 125.51 65.0908C116.082 67.1738 106.371 67.6582 96.7819 66.5234C90.6733 65.7568 82.5764 64.5215 76.7745 60.9717C76.1552 62.0459 75.5385 63.1436 74.9717 64.2588C78.4684 66.1914 82.1847 67.6963 86.0406 68.7422Z" fill="#FFFFFF" fill-opacity="1.000000" fill-rule="nonzero"/>
		<path id="Vector" d="M118.703 42.5156C124.44 42.1055 135.043 39.0908 139.156 33.2012C137.292 32.791 135.407 32.4863 133.509 32.2861L132.621 33.1035C129.263 35.6064 125.354 37.2695 121.222 37.9531C115.199 39.3125 108.931 39.125 103 37.4092C101.91 37.915 100.846 38.4414 99.788 39.0156C104.777 42.5615 113.114 42.9561 118.703 42.5156Z" fill="#FFFFFF" fill-opacity="1.000000" fill-rule="nonzero"/>
		<path id="Vector" d="M88.623 88.6191C102.385 91.5557 116.6 90.4736 130.623 87.9082C143.548 85.7666 155.929 81.1191 167.071 74.2275C170.736 71.9414 174.208 69.3584 177.452 66.5059C176.049 62.5176 174.159 58.7188 171.824 55.1943C167.418 58.9922 162.618 62.3066 157.505 65.082C147.722 70.0693 137.213 73.4834 126.366 75.1982C115.162 77.4639 103.661 77.8604 92.3278 76.3721C86.8438 75.4746 81.4661 74.0166 76.2795 72.0215C74.9308 71.5049 73.7654 70.9199 72.3641 70.3613C70.9911 74.0459 70.0132 77.8652 69.447 81.7559C75.4816 84.9404 81.9382 87.251 88.623 88.6191Z" fill="#000000" fill-opacity="1.000000" fill-rule="nonzero"/>
		<path id="Vector" d="M104.54 123.712C96.511 123.819 88.4829 123.411 80.506 122.487C81.3944 123.582 82.3536 124.668 83.2604 125.713C101.301 128.451 120.87 126.955 138.497 123.719C149.711 121.656 160.712 118.572 171.364 114.506C171.994 113.526 172.576 112.553 173.157 111.555C162.074 115.731 150.609 118.812 138.927 120.755C127.565 122.683 116.064 123.672 104.54 123.712Z" fill="#000000" fill-opacity="1.000000" fill-rule="nonzero"/>
		<path id="Vector" d="M120.33 50.9805C128.491 50.4453 136.404 47.96 143.406 43.7344C146.242 41.9365 148.857 39.8125 151.197 37.4053C149.68 36.6689 148.124 36.0088 146.526 35.4004C144.588 37.46 142.378 39.2461 139.957 40.708C134.011 44.251 127.356 46.4395 120.466 47.1182C110.666 48.5225 100.672 47.5977 91.2949 44.4189C90.2399 45.2314 89.093 46.0781 88.2346 46.9395C97.8354 51.541 111.049 51.7432 120.33 50.9805Z" fill="#FFFFFF" fill-opacity="1.000000" fill-rule="nonzero"/>
		<path id="Vector" d="M178.572 98.374C174.203 101.032 169.689 103.441 165.05 105.591C155.869 109.846 146.233 113.043 136.33 115.124C125.839 117.119 115.145 117.839 104.48 117.268C94.6361 116.852 83.6223 116.449 74.2782 113.061C74.8625 114.214 75.4652 115.316 76.1177 116.438C83.3439 118.846 91.9921 119.039 99.157 119.639C110.786 120.714 122.503 120.376 134.051 118.631C148.991 116.161 163.42 111.234 176.753 104.053C176.736 103.911 176.886 103.751 176.938 103.577C177.576 101.874 178.122 100.137 178.572 98.374Z" fill="#FFFFFF" fill-opacity="1.000000" fill-rule="nonzero"/>
		<path id="Vector" d="M134.2 110.873C148.666 108.189 162.621 103.257 175.56 96.2549C176.953 95.4756 178.32 94.6758 179.708 93.8496C180.965 86.9697 180.865 79.9111 179.413 73.0693C175.11 76.4512 170.503 79.4277 165.651 81.9619C154.52 87.6865 142.598 91.7246 130.279 93.9443C117.646 96.5381 104.655 96.8916 91.9003 94.9863C85.1243 93.8633 78.4976 91.9756 72.1471 89.3594C71.0449 88.9102 69.9583 88.3877 68.8717 87.8652C68.6434 94.7021 69.7551 101.517 72.144 107.927C76.8865 109.646 81.7675 110.957 86.7335 111.844C102.479 114.472 118.576 114.142 134.2 110.873Z" fill="#FFFFFF" fill-opacity="1.000000" fill-rule="nonzero"/>
		<path id="Vector" d="M140.204 50.0693C135.736 51.5547 131.91 54.0664 127.163 54.9854C122.417 55.9053 117.125 55.5957 112.484 57.458C112.036 57.6592 111.667 58.0039 111.437 58.4385C111.206 58.8721 111.127 59.3711 111.212 59.8555C111.297 60.3389 111.541 60.7812 111.905 61.1113C112.27 61.4404 112.734 61.6396 113.224 61.6758C118.446 62.208 124.896 60.499 130.117 59.335C134.36 58.4014 139.474 56.2939 141.703 52.3379C142.26 51.3428 141.632 49.5977 140.204 50.0693Z" fill="#000000" fill-opacity="1.000000" fill-rule="nonzero"/>
		<path id="Vector" d="M127.301 133.11C126.271 133.411 125.276 133.82 124.332 134.33C123.342 134.872 123.747 136.547 124.929 136.222C125.791 135.97 126.681 135.821 127.579 135.778C128.479 135.686 129.363 135.473 130.208 135.146C130.394 135.118 130.566 135.028 130.696 134.892C130.827 134.755 130.908 134.579 130.928 134.392C130.948 134.203 130.904 134.015 130.805 133.854C130.706 133.692 130.557 133.569 130.38 133.503C129.436 132.999 128.341 132.859 127.301 133.11Z" fill="#FFFFFF" fill-opacity="1.000000" fill-rule="nonzero"/>
		<path id="Vector" d="M157.738 122.069C151.692 123.756 144.72 124.02 139.159 126.822C137.891 127.444 137.777 129.607 139.272 129.94C145.747 131.406 153.37 128.871 159.709 127.031L161.302 126.541C164.015 124.106 166.495 121.426 168.713 118.534C165.013 119.836 161.443 121.028 157.738 122.069Z" fill="#000000" fill-opacity="1.000000" fill-rule="nonzero"/>
		<path id="Vector" d="M115.303 133.941C117.064 133.24 116.197 131.068 114.76 130.825C109.747 130.029 104.251 131.297 99.0984 131.162C95.6973 131.093 92.2882 130.953 88.9156 130.713C91.0441 132.351 93.2955 133.821 95.65 135.112C102.19 136.456 108.969 136.052 115.303 133.941Z" fill="#FFFFFF" fill-opacity="1.000000" fill-rule="nonzero"/>
	</g>
	<path id="Vector" d="M130.356 137.737C129.794 137.949 129.209 138.096 128.613 138.173C127.053 138.452 125.477 138.631 123.894 138.707C118.549 139.108 113.174 138.626 107.986 137.28C105.133 136.541 102.35 135.552 99.6703 134.325C97.4479 133.349 95.3048 132.201 93.2603 130.893C92.386 130.347 91.6742 129.758 91.0204 129.258C90.4622 128.845 89.9257 128.403 89.413 127.935C88.9453 127.57 88.5212 127.153 88.1493 126.691C88.1493 126.691 90.1399 128.234 93.587 130.401C95.5945 131.66 97.6852 132.781 99.8448 133.756C102.507 134.906 105.25 135.858 108.052 136.604C113.178 137.901 118.464 138.455 123.747 138.246C127.837 138.07 130.314 137.574 130.356 137.737Z" fill="#FFFFFF" fill-opacity="1.000000" fill-rule="nonzero"/>
	<path id="Vector" d="M172.933 62.0469C173.101 62.2666 172.078 63.3623 170.036 65.1699L168.319 66.6787C167.662 67.207 166.929 67.6963 166.112 68.29C164.361 69.5918 162.543 70.8027 160.668 71.917L157.352 73.8691C156.184 74.5273 154.908 75.0771 153.619 75.7256C151.047 77.0674 148.156 78.1348 145.138 79.3369C138.485 81.6797 131.612 83.3457 124.624 84.3096C117.62 85.1523 110.549 85.2793 103.519 84.6885C100.46 84.3926 97.4175 83.9395 94.4047 83.3301C92.9855 83.0361 91.6215 82.8086 90.3149 82.4541L86.613 81.415C84.4552 80.8408 82.3331 80.1396 80.2581 79.3145C79.358 78.9619 78.5105 78.6514 77.7573 78.3311C77.0042 78.0098 76.3373 77.6074 75.7074 77.3203C73.1772 76.0771 72.0194 75.3477 72.1237 75.001C72.2278 74.6553 73.7311 75.0586 76.3024 75.8193L78.4092 76.4883L80.8754 77.166C82.7169 77.6025 84.774 78.2539 87.1138 78.6582L90.76 79.417C92.0322 79.6797 93.3856 79.8135 94.7705 80.0146C97.5011 80.4951 100.485 80.6826 103.599 80.9521C110.367 81.292 117.151 81.0684 123.882 80.2832C130.597 79.3447 137.222 77.8438 143.686 75.7969C146.626 74.748 149.462 73.8301 152.005 72.6582C153.281 72.1074 154.542 71.6299 155.721 71.0664L159.047 69.4238C161.324 68.4258 163.034 67.2764 164.703 66.3945C165.536 65.9424 166.324 65.5186 166.947 65.1133L168.846 63.9424C171.384 62.5088 172.741 61.8301 172.933 62.0469Z" fill="#20C7ED" fill-opacity="1.000000" fill-rule="nonzero"/>
	<path id="Vector" d="M171.577 113.863C171.577 113.863 171.561 113.722 171.723 113.464C171.885 113.207 172.031 112.808 172.266 112.352C172.773 111.338 173.462 109.826 174.389 108.097C174.389 108.097 174.287 108.252 174.411 108.285L174.395 108.144L174.695 107.417C177.011 101.785 178.378 95.8086 178.74 89.7305L178.881 89.499C178.881 89.499 178.675 89.7852 178.78 89.8691L178.761 89.7041C179.229 80.9111 177.51 72.1387 173.756 64.1729C170.003 56.2061 164.333 49.2959 157.254 44.0576L157.679 44.0098L157.522 44.0996L157.312 43.9316C155.275 42.3672 153.119 40.9648 150.863 39.7383C140.954 34.5352 129.631 32.665 118.574 34.4053C109.529 35.7559 100.919 39.1826 93.4213 44.4189C88.3164 47.9365 83.833 52.2793 80.1547 57.2695C79.1549 58.6143 78.228 60.0117 77.3782 61.4551L76.6908 62.5605C76.5287 62.8174 76.4449 62.9229 76.4214 62.9258C77.4205 60.8887 78.582 58.9346 79.8948 57.084C83.481 52.0098 87.9113 47.5889 92.993 44.0137C100.507 38.6475 109.18 35.1289 118.308 33.7432C123.694 32.8994 129.175 32.8682 134.57 33.6475C140.367 34.4678 145.972 36.3096 151.124 39.0879C153.414 40.335 155.604 41.7568 157.675 43.3418L157.227 43.3916L157.486 43.3623L157.696 43.5303C164.868 48.8047 170.609 55.7852 174.399 63.8398C178.189 71.8945 179.908 80.7686 179.401 89.6553L179.374 89.4199C179.374 89.4199 179.417 89.7969 179.275 89.8135L179.417 89.582C178.999 95.7148 177.538 101.73 175.096 107.371L174.772 108.102L174.756 107.96L174.78 108.172L172.418 112.43L171.823 113.501L171.577 113.863Z" fill="#FFFFFF" fill-opacity="1.000000" fill-rule="nonzero"/>
	<path id="Vector" d="M68.9354 93.7129C68.8634 93.0762 68.7887 92.416 68.7167 91.7783C42.2351 98.2861 29.623 103.822 27.0994 107.286C26.8928 107.572 26.7778 107.824 26.8176 107.963L26.8335 108.104C26.8577 108.317 27.1465 108.548 27.2778 108.652C29.6753 110.412 43.6106 115.097 122.733 101.394C170.356 93.1396 205.004 81.7178 215.421 75.7842C215.71 75.6494 215.947 75.4248 216.097 75.1426C216.247 74.8613 216.302 74.5391 216.253 74.2236C216.204 73.9082 216.054 73.6182 215.825 73.3955C215.596 73.1729 215.302 73.0303 214.985 72.9902C209.202 72.1387 197.189 71.9922 179.197 73.4775C179.25 73.9492 179.303 74.4209 179.359 74.916C194.143 73.7939 203.432 74.1533 203.722 76.2949C204.21 80.6133 168.374 90.4004 123.495 98.2002C78.6169 106 41.8049 108.85 41.2458 104.539C41.1677 102.158 51.8477 98.1309 68.9354 93.7129Z" fill="#20C7ED" fill-opacity="1.000000" fill-rule="nonzero"/>
	<path id="Vector" d="M178.076 67.7969C178.121 68.1982 178.285 68.5859 178.377 68.9814C201.312 67.0332 217.646 67.3604 221.708 70.3184C222.339 70.7412 222.818 71.3555 223.075 72.0703C223.332 72.7842 223.354 73.5625 223.137 74.291C222.715 75.8438 221.458 80.5742 191.204 89.8496C168.942 96.5459 146.287 101.854 123.368 105.742C113.127 107.521 102.262 109.276 91.561 110.797C60.7515 115.166 31.6555 117.572 24.4524 112.197C23.8708 111.798 23.3784 111.282 23.0063 110.683C22.634 110.083 22.3904 109.413 22.2903 108.715C22.1116 107.275 22.5051 105.823 23.3862 104.672C27.8948 98.4746 47.3599 92.2588 68.5472 87.1143L68.4564 86.3125C32.7944 95.3154 9.81445 104.893 9.74341 111.447C9.5686 125.327 61.9375 122.271 124.166 111.315C186.394 100.358 236.314 81.3555 235.119 72.2666C234.494 66.3154 211.584 64.8916 178.076 67.7969Z" fill="#20C7ED" fill-opacity="1.000000" fill-rule="nonzero"/>
	<path id="Vector" d="M189.724 77.3984C190.149 77.3506 186.915 79.3896 186.802 79.4502C185.484 80.0098 184.134 80.4893 182.759 80.8867C179.145 82.1084 175.442 83.1719 171.726 84.1182C166.386 85.1035 161.117 86.4414 155.954 88.124C155.846 88.1611 155.755 88.2334 155.694 88.3291C155.634 88.4248 155.608 88.5391 155.62 88.6514C155.633 88.7646 155.684 88.8691 155.765 88.9492C155.845 89.0293 155.95 89.0791 156.063 89.0918C167.262 88.3867 178.229 85.582 188.391 80.8232C189.732 80.2178 191.91 79.3975 191.731 77.6016C191.595 76.3984 190.802 75.9385 189.651 76.1172C189.503 76.1455 189.369 76.2227 189.272 76.3379C189.174 76.4521 189.118 76.5957 189.112 76.7471C189.107 76.8975 189.153 77.0449 189.243 77.166C189.333 77.2871 189.461 77.373 189.606 77.4121L189.724 77.3984Z" fill="#20C7ED" fill-opacity="1.000000" fill-rule="nonzero"/>
	<g opacity="0.300000">
		<path id="Vector" d="M68.9352 93.7129C68.8632 93.0762 68.7885 92.416 68.7164 91.7783C42.2349 98.2861 29.6228 103.822 27.0991 107.286C26.8926 107.572 26.7776 107.824 26.8174 107.963L26.8333 108.104C26.8574 108.317 27.1462 108.548 27.2776 108.652C29.675 110.412 43.6104 115.097 122.733 101.394C170.356 93.1396 205.004 81.7178 215.421 75.7842C215.71 75.6494 215.947 75.4248 216.097 75.1426C216.247 74.8613 216.302 74.5391 216.253 74.2236C216.204 73.9082 216.053 73.6182 215.825 73.3955C215.596 73.1729 215.301 73.0303 214.985 72.9902C209.202 72.1387 197.189 71.9922 179.196 73.4775C179.25 73.9492 179.303 74.4209 179.359 74.916C194.143 73.7939 203.432 74.1533 203.721 76.2949C204.21 80.6133 168.374 90.4004 123.495 98.2002C78.6167 106 41.8047 108.85 41.2456 104.539C41.1675 102.158 51.8474 98.1309 68.9352 93.7129Z" fill="#000000" fill-opacity="1.000000" fill-rule="nonzero"/>
		<path id="Vector" d="M189.724 77.3994C190.149 77.3516 186.914 79.3906 186.802 79.4512C185.484 80.0107 184.134 80.4902 182.759 80.8877C179.145 82.1094 175.442 83.1729 171.726 84.1191C166.386 85.1045 161.117 86.4424 155.953 88.125C155.846 88.1621 155.755 88.2344 155.694 88.3301C155.634 88.4258 155.607 88.54 155.62 88.6523C155.633 88.7656 155.684 88.8701 155.764 88.9502C155.845 89.0303 155.95 89.0801 156.063 89.0928C167.262 88.3877 178.229 85.583 188.391 80.8242C189.732 80.2188 191.91 79.3984 191.73 77.6025C191.594 76.3994 190.802 75.9395 189.651 76.1182C189.503 76.1465 189.369 76.2236 189.271 76.3389C189.173 76.4531 189.117 76.5967 189.112 76.748C189.107 76.8984 189.153 77.0459 189.243 77.167C189.333 77.2881 189.461 77.374 189.606 77.4131L189.724 77.3994Z" fill="#000000" fill-opacity="1.000000" fill-rule="nonzero"/>
	</g>
	<g opacity="0.300000">
		<path id="Vector" d="M178.076 67.7969C178.121 68.1982 178.285 68.5859 178.377 68.9814C201.312 67.0332 217.646 67.3604 221.708 70.3184C222.339 70.7412 222.818 71.3555 223.075 72.0703C223.332 72.7842 223.354 73.5625 223.137 74.291C222.715 75.8438 221.458 80.5742 191.204 89.8496C168.942 96.5459 146.287 101.854 123.368 105.742C113.127 107.521 102.262 109.276 91.561 110.797C60.7515 115.166 31.6555 117.572 24.4524 112.197C23.8708 111.798 23.3784 111.282 23.0063 110.683C22.634 110.083 22.3904 109.413 22.2903 108.715C22.1116 107.275 22.5051 105.823 23.3862 104.672C27.8948 98.4746 47.3599 92.2588 68.5472 87.1143L68.4564 86.3125C32.7944 95.3154 9.81445 104.893 9.74341 111.447C9.5686 125.327 61.9375 122.271 124.166 111.315C186.394 100.358 236.314 81.3555 235.119 72.2666C234.494 66.3154 211.584 64.8916 178.076 67.7969Z" fill="#000000" fill-opacity="1.000000" fill-rule="nonzero"/>
	</g>
</svg>
