<svg width="564.411133" height="861.672852" viewBox="0 0 564.411 861.673" fill="none" xmlns="http://www.w3.org/2000/svg" xmlns:xlink="http://www.w3.org/1999/xlink">
	<defs/>
	<g opacity="0.300000">
		<path id="Vector" d="M413.288 141.739C415.04 141.431 416.844 141.605 418.504 142.244C418.652 142.236 419.772 142.756 419.052 142.439C419.508 142.639 419.952 142.865 420.383 143.115C420.818 143.363 421.239 143.634 421.646 143.925C422.624 144.582 421.291 143.479 422.129 144.31C423.31 145.358 424.258 146.646 424.91 148.085C425.514 149.513 425.786 151.059 425.707 152.607C425.727 153.032 425.747 153.439 425.639 153.871C425.709 153.033 425.472 154.621 425.443 154.789C425.414 154.958 425.223 155.598 425.094 155.993C424.965 156.389 424.615 157.185 424.934 156.502C424.542 157.384 424.047 158.218 423.461 158.984C423.95 158.367 423.215 159.256 423.091 159.373C422.967 159.491 422.311 160.116 421.922 160.487C421.532 160.859 422.267 160.341 421.493 160.824L420.469 161.486C419.994 161.759 419.505 162.005 419.003 162.226C419.712 161.932 418.53 162.397 418.493 162.399C418.036 162.551 417.579 162.666 417.121 162.781C416.954 162.79 415.63 163.003 416.405 162.928C415.455 163.015 414.5 163.019 413.55 162.938C412.426 162.953 411.353 163.412 410.566 164.215C409.778 165.018 409.34 166.1 409.347 167.224C409.376 168.341 409.837 169.402 410.633 170.187C411.429 170.971 412.497 171.415 413.614 171.427C417.753 171.745 421.882 170.708 425.38 168.473C428.877 166.237 431.552 162.926 433.003 159.036C434.453 155.147 434.599 150.893 433.418 146.913C432.238 142.934 429.796 139.446 426.46 136.977C422.684 134.148 417.995 132.82 413.297 133.247C412.18 133.29 411.121 133.757 410.337 134.554C409.553 135.35 409.102 136.416 409.076 137.533C409.096 138.656 409.557 139.727 410.358 140.513C411.16 141.299 412.239 141.738 413.362 141.736L413.288 141.739Z" fill="#263238" fill-opacity="1.000000" fill-rule="nonzero"/>
		<path id="Vector" d="M210.044 97.582L371.821 87.6572C391.605 86.4434 408.628 101.498 409.841 121.282L424.347 357.718C425.561 377.502 410.506 394.524 390.722 395.738L228.946 405.664C209.161 406.878 192.139 391.823 190.925 372.039L176.419 135.604C175.205 115.818 190.26 98.7959 210.044 97.582Z" fill="#20C7ED" fill-opacity="1.000000" fill-rule="evenodd"/>
		<path id="Vector" d="M201.891 222.855C201.859 222.542 201.844 222.227 201.845 221.912L201.708 219.118C201.585 216.621 201.408 213.015 201.089 208.395C200.629 199.035 199.967 185.551 199.003 168.93C198.594 160.605 198.145 151.469 197.665 141.684C197.425 139.114 197.888 136.528 199.004 134.201C200.161 131.79 201.994 129.768 204.28 128.38C205.458 127.694 206.734 127.194 208.064 126.896C209.394 126.628 210.747 126.487 212.104 126.476L220.261 126.074L291.937 122.556L363.631 119.035L371.788 118.635C373.146 118.514 374.512 118.521 375.869 118.657C377.215 118.824 378.528 119.197 379.761 119.764C382.176 120.915 384.2 122.75 385.583 125.041C386.926 127.245 387.64 129.774 387.648 132.356C388.128 142.141 388.577 151.278 388.985 159.603C389.803 176.249 390.334 189.722 390.757 199.083C390.984 203.707 391.161 207.314 391.191 209.815L391.328 212.608C391.359 213.237 391.374 213.552 391.374 213.552C391.343 213.238 391.327 212.924 391.328 212.608C391.295 211.942 391.25 211.018 391.191 209.815C391.068 207.318 390.891 203.712 390.572 199.092C390.112 189.732 389.359 176.271 388.486 159.627C388.077 151.303 387.629 142.165 387.148 132.381C387.13 129.94 386.448 127.552 385.177 125.469C383.832 123.35 381.901 121.667 379.618 120.624C378.462 120.096 377.232 119.749 375.97 119.598C374.664 119.453 373.346 119.449 372.039 119.587L363.882 119.987L292.188 123.508L220.512 127.026L212.355 127.427C211.047 127.421 209.743 127.547 208.461 127.804C207.183 128.082 205.956 128.556 204.821 129.206C202.658 130.47 200.908 132.333 199.782 134.571C198.721 136.769 198.277 139.213 198.497 141.643C198.978 151.428 199.426 160.565 199.835 168.889C200.652 185.536 201.184 199.008 201.607 208.369C201.834 212.994 202.011 216.601 202.133 219.098L202.27 221.891C201.913 222.539 201.891 222.855 201.891 222.855Z" fill="#263238" fill-opacity="1.000000" fill-rule="nonzero"/>
		<g opacity="0.300000">
			<path id="Vector" d="M415.796 385.809C416.304 385.19 401.018 273.635 401.018 273.635L376.815 268.593L389.792 375.052L403.826 393.517C408.418 392.03 412.543 389.374 415.796 385.809Z" fill="#000000" fill-opacity="1.000000" fill-rule="nonzero"/>
		</g>
		<path id="Vector" d="M372.055 139.557C372.172 141.937 370.337 143.961 367.957 144.078C365.577 144.194 363.553 142.36 363.436 139.979C363.319 137.6 365.154 135.575 367.534 135.458C369.914 135.342 371.938 137.177 372.055 139.557Z" fill="#263238" fill-opacity="1.000000" fill-rule="evenodd"/>
		<path id="Vector" d="M372.785 154.41C372.901 156.79 371.067 158.814 368.686 158.932C366.306 159.048 364.282 157.214 364.165 154.833C364.048 152.453 365.883 150.429 368.263 150.312C370.643 150.195 372.668 152.03 372.785 154.41Z" fill="#263238" fill-opacity="1.000000" fill-rule="evenodd"/>
		<path id="Vector" d="M226.414 173.979C226.414 173.979 202.705 182.022 197.317 185.569C191.928 189.115 143.208 242.126 141.467 243.677C140.222 244.757 120.489 225.016 108.973 211.768L94.6052 204.63L63.7123 231.011L65.2252 247.476C78.046 265.776 103.769 301.022 115.363 309.445C130.75 320.705 150.799 320.444 166.253 313.084C175.404 308.741 212.96 276.081 212.96 276.081L233.265 267.445L226.414 173.979Z" fill="#E0E0E0" fill-opacity="1.000000" fill-rule="nonzero"/>
		<path id="Vector" d="M184.065 243.829C185.044 245.58 185.902 247.396 186.631 249.266L192.403 262.61L198.302 275.874C199.205 277.638 199.994 279.457 200.664 281.321C199.505 279.677 198.507 277.925 197.682 276.091C195.98 272.763 193.786 268.104 191.472 262.897C189.158 257.689 187.274 252.924 185.935 249.448C185.151 247.632 184.525 245.752 184.065 243.829Z" fill="#263238" fill-opacity="1.000000" fill-rule="nonzero"/>
		<path id="Vector" d="M194.486 291.822C193.693 291.261 192.96 290.619 192.297 289.909C190.918 288.642 189.025 286.714 186.771 284.229C175.02 271.237 166.066 255.968 160.464 239.37C159.4 236.196 158.641 233.582 158.237 231.767C157.951 230.839 157.756 229.886 157.652 228.921C158.044 229.812 158.362 230.731 158.603 231.674C159.157 233.501 160.003 236.019 161.139 239.133C164.103 247.3 167.791 255.186 172.16 262.696C176.557 270.177 181.62 277.244 187.288 283.813C189.452 286.341 191.219 288.349 192.565 289.692C193.256 290.354 193.898 291.066 194.486 291.822Z" fill="#263238" fill-opacity="1.000000" fill-rule="nonzero"/>
		<path id="Vector" d="M140.329 259.401C139.944 256.758 139.881 254.077 140.141 251.419C140.09 248.738 140.357 246.062 140.936 243.444C141.309 246.095 141.366 248.781 141.107 251.445C141.167 254.119 140.906 256.79 140.329 259.401Z" fill="#263238" fill-opacity="1.000000" fill-rule="nonzero"/>
		<path id="Vector" d="M144.029 241.085C142.859 242.199 150.286 279.399 179.52 303.83L185.873 298.79C185.873 298.79 152.827 270.745 149.381 235.297L144.029 241.085Z" fill="#20C7ED" fill-opacity="1.000000" fill-rule="nonzero"/>
		<path id="Vector" d="M109.047 211.765C109.224 211.979 99.5565 220.13 87.4502 229.977C75.3439 239.823 65.3867 247.747 65.2242 247.458C65.0618 247.17 74.7333 239.093 86.8386 229.228C98.944 219.362 108.889 211.568 109.047 211.765Z" fill="#263238" fill-opacity="1.000000" fill-rule="nonzero"/>
		<path id="Vector" d="M76.8654 263.259C77.1989 262.7 77.5966 262.184 78.0504 261.718L81.561 257.688C84.6021 254.294 88.8409 249.618 93.6824 244.374L93.7142 245.021L91.5939 242.622L88.632 239.319L89.2793 239.287C83.921 243.444 79.1309 247.091 75.679 249.671L71.5979 252.652C71.1228 253.044 70.6042 253.381 70.0526 253.655C70.441 253.172 70.8942 252.744 71.3993 252.384L75.3021 249.17C78.6366 246.466 83.3297 242.731 88.6863 238.537L89.0435 238.261L89.3373 238.58L92.2993 241.883L94.3975 244.209L94.6913 244.528L94.3922 244.858C89.5498 250.084 85.1909 254.581 82.0564 257.961L78.3167 261.853C77.8973 262.384 77.4093 262.856 76.8654 263.259Z" fill="#263238" fill-opacity="1.000000" fill-rule="nonzero"/>
		<path id="Vector" d="M64.8807 243.858L105.55 210.025L94.6792 204.626L63.7122 231.011L64.8807 243.858Z" fill="#20C7ED" fill-opacity="1.000000" fill-rule="nonzero"/>
		<path id="Vector" d="M90.1945 166.911C89.2919 165.898 88.3717 164.905 87.4163 163.951C86.3101 165.213 85.3693 166.611 84.6168 168.111C82.2111 172.403 80.337 176.973 79.0363 181.717C79.0363 181.717 66.9237 164.623 64.5986 160.695C62.234 156.614 59.6136 152.687 56.7529 148.936C51.3873 148.626 46.0206 149.523 41.0474 151.561C46.2399 159.131 56.0624 172.258 54.2675 174.219C52.7891 175.83 43.1705 163.082 34.786 155.076L33.8375 155.771C30.9071 158.14 28.3954 160.983 26.4073 164.184C32.2644 170.182 39.1322 177.131 39.0023 178.64C38.8723 180.147 31.3591 174.027 23.6997 169.082C22.5247 171.628 21.5627 174.268 20.8239 176.974C20.3674 178.627 20.0052 180.313 19.6809 182.017C27.1687 187.62 38.0502 192.481 32.8962 192.493C29.7454 192.518 23.9305 190.022 18.7413 188.182C18.321 191.707 18.0691 195.261 17.8726 198.812C24.3135 202.353 31.4995 204.076 34.073 207.398C36.8998 210.968 43.899 222.861 52.2556 226.901C60.6123 230.941 63.715 231.066 63.715 231.066L94.3435 207.61C94.3435 207.61 96.0115 193.622 96.2771 186.192C96.6079 181.924 97.4727 177.714 98.8511 173.661C95.2894 172.872 92.6492 169.701 90.1945 166.911Z" fill="#263238" fill-opacity="1.000000" fill-rule="nonzero"/>
		<path id="Vector" d="M23.6951 168.989C16.912 164.52 10.1661 160.809 8.92053 163.763C6.29578 169.973 9.28369 171.161 15.4681 178.163C16.7531 179.556 18.1753 180.815 19.7133 181.923C20.0376 180.22 20.3998 178.533 20.8562 176.879C21.5831 174.175 22.5327 171.536 23.6951 168.989Z" fill="#455A64" fill-opacity="1.000000" fill-rule="nonzero"/>
		<path id="Vector" d="M56.7529 148.937C51.2106 141.792 43.8735 135.106 38.0822 139.507C38.0822 139.507 35.0851 142.286 39.4026 149.027C39.8634 149.729 40.424 150.572 41.0428 151.469C46.0247 149.462 51.3928 148.597 56.7529 148.937Z" fill="#455A64" fill-opacity="1.000000" fill-rule="nonzero"/>
		<path id="Vector" d="M8.44238 187.63C7.13464 192.719 9.24817 193.468 16.0952 197.729C16.6696 198.098 17.2611 198.439 17.87 198.755C18.0664 195.204 18.3185 191.65 18.7386 188.125C13.6058 186.301 9.09656 185.095 8.44238 187.63Z" fill="#455A64" fill-opacity="1.000000" fill-rule="nonzero"/>
		<path id="Vector" d="M98.8512 173.661C100.039 169.523 100.869 166.034 99.2509 163.295C96.7834 159.114 91.634 159.219 87.4182 163.987C88.3735 164.941 89.3678 165.932 90.1964 166.947C92.6493 169.701 95.2896 172.872 98.8512 173.661Z" fill="#455A64" fill-opacity="1.000000" fill-rule="nonzero"/>
		<path id="Vector" d="M33.7775 155.682L34.726 154.986C32.3811 152.491 29.5745 150.476 26.4617 149.051C17.7932 146.213 15.907 151.979 18.3434 155.531C20.8613 158.521 23.5328 161.38 26.3473 164.094C28.3353 160.893 30.847 158.05 33.7775 155.682Z" fill="#455A64" fill-opacity="1.000000" fill-rule="nonzero"/>
		<path id="Vector" d="M68.7325 211.277C68.7325 211.277 68.3629 210.925 67.9326 210.094C67.3359 208.943 66.9012 207.717 66.6412 206.448C66.2681 204.535 66.2469 202.569 66.579 200.647C66.9979 198.274 67.9746 196.034 69.4286 194.111C71.6183 191.203 74.7471 189.144 78.2833 188.281L77.9862 188.647C78.0099 186.152 78.2224 183.663 78.6217 181.2C78.8757 183.661 78.923 186.14 78.7631 188.609L78.7776 188.905L78.4816 188.92C75.1841 189.866 72.2825 191.856 70.2124 194.592C68.9806 196.241 68.0913 198.121 67.5972 200.119C67.103 202.118 67.0138 204.195 67.335 206.229C67.6659 207.946 68.1332 209.635 68.7325 211.277Z" fill="#455A64" fill-opacity="1.000000" fill-rule="nonzero"/>
		<path id="Vector" d="M60.4973 176.101C60.5055 176.267 58.5861 176.824 55.668 178.191C51.8816 180.054 48.4369 182.543 45.4792 185.552C42.5425 188.586 40.1498 192.104 38.4061 195.949C37.068 198.907 36.5909 200.896 36.4218 200.849C36.2526 200.802 36.3962 200.331 36.6117 199.431C36.8903 198.144 37.2812 196.883 37.7803 195.664C39.3883 191.634 41.775 187.96 44.804 184.853C47.8329 181.745 51.4446 179.265 55.4327 177.554C56.6116 177.032 57.8308 176.606 59.0785 176.281C59.5391 176.147 60.0178 176.086 60.4973 176.101Z" fill="#455A64" fill-opacity="1.000000" fill-rule="nonzero"/>
		<path id="Vector" d="M352.034 109.427C351.757 109.44 351.117 100.553 350.577 89.5654C350.038 78.5791 349.803 69.6533 350.081 69.6396C350.358 69.626 351 78.5312 351.539 89.5186C352.078 100.506 352.293 109.414 352.034 109.427Z" fill="#263238" fill-opacity="1.000000" fill-rule="nonzero"/>
		<path id="Vector" d="M213.781 97.9502C213.781 97.9502 204.845 15.6377 279.554 11.9697C357.334 8.15137 357.77 94.4404 358.098 101.118C358.098 101.118 366.827 163.731 291.887 168.745C213.235 174.071 213.781 97.9502 213.781 97.9502Z" fill="#E0E0E0" fill-opacity="1.000000" fill-rule="nonzero"/>
		<path id="Vector" d="M218.963 95.0996C218.963 95.0996 209.339 33.9033 281.125 30.3604C355.742 26.6973 352.295 91.3164 352.55 96.5146C352.55 96.5146 357.759 144.077 288.371 148.874C218.983 153.672 218.963 95.0996 218.963 95.0996Z" fill="#263238" fill-opacity="1.000000" fill-rule="nonzero"/>
		<path id="Vector" d="M355.765 161.622L344.826 145.38L235.674 151.48L229.96 171.804L218.26 179.721L294.228 188.099L370.206 172.502L355.765 161.622Z" fill="#E0E0E0" fill-opacity="1.000000" fill-rule="nonzero"/>
		<path id="Vector" d="M363.886 49.8262L364.681 49.7871C370.841 49.4854 376.08 54.2334 376.383 60.3936L378.38 101.068C378.682 107.229 373.934 112.467 367.774 112.77L366.978 112.809C360.818 113.111 355.579 108.362 355.277 102.202L353.28 61.5273C352.977 55.3682 357.726 50.1289 363.886 49.8262Z" fill="#E0E0E0" fill-opacity="1.000000" fill-rule="evenodd"/>
		<path id="Vector" d="M351.865 84.4395C351.797 84.2627 351.757 84.0771 351.745 83.8887C351.724 83.4639 351.697 82.9082 351.534 82.2305C351.296 80.7773 351.186 78.5391 350.648 75.8955C350.413 74.5166 350.135 73.0098 349.849 71.3369C349.563 69.6631 349.014 67.9102 348.549 66.0049C348.085 64.0996 347.357 62.1143 346.696 59.9775L345.463 56.7744C345.251 56.2285 345.019 55.665 344.806 55.1006C344.593 54.5361 344.289 54.0137 344.021 53.4521C339.269 42.8096 331.496 33.7969 321.666 27.5342C309.479 20.1055 295.378 16.4199 281.115 16.9355C280.282 16.9766 279.432 17.0186 278.673 17.0557C275.039 17.1641 271.431 17.7021 267.924 18.6592C264.481 19.5215 261.109 20.6416 257.835 22.0098C251.635 24.5449 245.849 27.9912 240.667 32.2344C235.997 36.1172 231.95 40.6924 228.669 45.8027C225.822 50.2559 223.565 55.0596 221.954 60.0938C219.751 67.4092 218.607 75.002 218.555 82.6406C218.446 85.335 218.605 87.4404 218.638 88.8662C218.671 89.5322 218.697 90.0693 218.717 90.4756C218.743 90.6592 218.752 90.8457 218.745 91.0303C218.712 90.8477 218.702 90.6611 218.717 90.4756C218.697 90.0693 218.671 89.5322 218.638 88.8662C218.568 87.4424 218.335 85.3398 218.332 82.6328C218.236 74.9346 219.29 67.2646 221.461 59.877C223.045 54.7705 225.3 49.8965 228.166 45.3828C231.462 40.1963 235.544 35.5547 240.266 31.624C245.434 27.3447 251.204 23.8506 257.39 21.2529C260.706 19.8633 264.12 18.7227 267.605 17.8398C271.21 16.8623 274.917 16.3135 278.65 16.2041C279.464 16.1641 280.296 16.123 281.166 16.0801C295.619 15.5674 309.903 19.3291 322.228 26.8955C327.536 30.2598 332.258 34.4688 336.208 39.3545C339.655 43.5908 342.517 48.2705 344.716 53.2695L345.504 54.9551L346.142 56.6299C346.567 57.7402 346.973 58.833 347.359 59.8887C348.02 62.0264 348.657 64.0527 349.178 65.9736C349.699 67.8955 350.007 69.6416 350.388 71.3662C350.77 73.0898 350.898 74.5674 351.114 75.9473C351.601 78.6855 351.652 80.8711 351.816 82.3096C351.85 83.0127 351.877 83.5488 351.897 83.9746C351.9 84.1299 351.889 84.2852 351.865 84.4395Z" fill="#263238" fill-opacity="1.000000" fill-rule="nonzero"/>
		<path id="Vector" d="M230.077 61.6426C222.63 75.748 222.171 92.8467 226.336 108.181C243.074 109.213 259.65 100.148 269.781 86.6904C279.911 73.2324 283.665 52.6338 282.708 35.7891C254.017 37.1611 237.469 47.541 230.077 61.6426Z" fill="#455A64" fill-opacity="1.000000" fill-rule="nonzero"/>
		<path id="Vector" d="M296.668 36.5127C311.571 55.6758 308.134 92.9277 308.134 92.9277L321.082 92.292C325.081 60.4453 313.354 38.7344 313.354 38.7344L296.668 36.5127Z" fill="#455A64" fill-opacity="1.000000" fill-rule="nonzero"/>
		<path id="Vector" d="M325.609 83.2822C326.626 83.2324 327.355 96.5645 324.588 105.174L332.986 104.762C334.151 104.705 336.641 91.6035 334.857 82.8281L325.609 83.2822Z" fill="#455A64" fill-opacity="1.000000" fill-rule="nonzero"/>
		<path id="Vector" d="M376.001 67.3457C372.347 68.0098 368.641 68.3535 364.927 68.3721C361.228 68.7168 357.507 68.7383 353.805 68.4355C357.461 67.7832 361.166 67.4404 364.879 67.4102C368.578 67.0762 372.299 67.0547 376.001 67.3457Z" fill="#263238" fill-opacity="1.000000" fill-rule="nonzero"/>
		<path id="Vector" d="M370.223 81.0918C370.266 81.9629 370.049 82.8262 369.601 83.5742C369.153 84.3223 368.493 84.9199 367.705 85.293C366.917 85.665 366.036 85.7959 365.174 85.668C364.312 85.54 363.507 85.1592 362.861 84.5742C362.215 83.9883 361.757 83.2246 361.545 82.3789C361.333 81.5332 361.377 80.6436 361.671 79.8232C361.965 79.0029 362.495 78.2871 363.195 77.7676C363.896 77.249 364.734 76.9482 365.605 76.9062C366.772 76.8486 367.915 77.2578 368.781 78.043C369.647 78.8271 370.166 79.9248 370.223 81.0918Z" fill="#263238" fill-opacity="1.000000" fill-rule="nonzero"/>
		<path id="Vector" d="M370.99 96.7021C371.033 97.5732 370.816 98.4365 370.368 99.1846C369.92 99.9326 369.26 100.53 368.472 100.903C367.684 101.275 366.803 101.406 365.941 101.278C365.078 101.15 364.273 100.77 363.628 100.185C362.982 99.5986 362.524 98.835 362.312 97.9893C362.1 97.1436 362.144 96.2539 362.438 95.4336C362.731 94.6133 363.262 93.8975 363.962 93.3779C364.662 92.8594 365.501 92.5586 366.371 92.5166C366.95 92.4854 367.529 92.5693 368.075 92.7637C368.621 92.958 369.123 93.2578 369.553 93.6475C369.982 94.0361 370.33 94.5068 370.577 95.0312C370.823 95.5557 370.964 96.124 370.99 96.7021Z" fill="#263238" fill-opacity="1.000000" fill-rule="nonzero"/>
		<path id="Vector" d="M202.74 57.7373L203.536 57.6982C209.696 57.3965 214.934 62.1445 215.237 68.3047L217.234 108.979C217.536 115.14 212.788 120.378 206.628 120.681L205.832 120.72C199.672 121.022 194.434 116.273 194.131 110.113L192.134 69.4385C191.832 63.2793 196.58 58.04 202.74 57.7373Z" fill="#E0E0E0" fill-opacity="1.000000" fill-rule="evenodd"/>
		<path id="Vector" d="M214.856 75.2559C211.201 75.9189 207.495 76.2617 203.781 76.2822C200.083 76.627 196.361 76.6484 192.659 76.3457C196.315 75.6934 200.02 75.3496 203.734 75.3203C207.433 74.9873 211.153 74.9658 214.856 75.2559Z" fill="#263238" fill-opacity="1.000000" fill-rule="nonzero"/>
		<path id="Vector" d="M209.059 89.0039C209.102 89.876 208.885 90.7402 208.436 91.4883C207.987 92.2363 207.326 92.835 206.537 93.207C205.748 93.5791 204.866 93.709 204.003 93.5791C203.14 93.4502 202.335 93.0674 201.69 92.4795C201.044 91.8926 200.588 91.127 200.378 90.2803C200.169 89.4326 200.215 88.543 200.511 87.7227C200.808 86.9014 201.341 86.1875 202.044 85.6699C202.747 85.1533 203.587 84.8564 204.459 84.8174C205.624 84.7646 206.761 85.1758 207.624 85.9609C208.486 86.7451 209.002 87.8398 209.059 89.0039Z" fill="#263238" fill-opacity="1.000000" fill-rule="nonzero"/>
		<path id="Vector" d="M209.826 104.615C209.868 105.487 209.651 106.352 209.203 107.1C208.754 107.848 208.093 108.446 207.303 108.818C206.514 109.19 205.632 109.32 204.77 109.19C203.907 109.062 203.102 108.679 202.456 108.091C201.811 107.504 201.355 106.738 201.145 105.892C200.935 105.044 200.981 104.154 201.278 103.334C201.575 102.513 202.108 101.799 202.811 101.281C203.514 100.765 204.354 100.468 205.226 100.429C205.803 100.4 206.38 100.486 206.924 100.682C207.468 100.877 207.968 101.178 208.395 101.566C208.823 101.955 209.169 102.425 209.415 102.948C209.66 103.472 209.8 104.038 209.826 104.615Z" fill="#263238" fill-opacity="1.000000" fill-rule="nonzero"/>
		<path id="Vector" d="M345.306 146.099C345.026 146.377 344.714 146.623 344.378 146.83C343.733 147.288 342.802 147.964 341.564 148.822C339.105 150.464 335.47 152.719 330.753 155.212C325.276 158.141 319.551 160.581 313.645 162.505C306.396 164.866 298.859 166.228 291.242 166.553C277.391 167.008 263.589 164.704 250.637 159.776C246.733 158.292 242.931 156.553 239.256 154.568C237.925 153.893 236.967 153.271 236.298 152.859C235.939 152.685 235.604 152.465 235.302 152.204C235.675 152.334 236.037 152.496 236.383 152.688C237.085 153.024 238.077 153.588 239.425 154.227C243.154 156.06 246.978 157.692 250.882 159.115C263.79 163.82 277.48 166.006 291.211 165.553C298.794 165.243 306.301 163.908 313.526 161.583C319.396 159.717 325.098 157.359 330.572 154.535C335.276 152.153 338.952 149.989 341.397 148.441L344.295 146.667C344.613 146.445 344.952 146.255 345.306 146.099Z" fill="#263238" fill-opacity="1.000000" fill-rule="nonzero"/>
		<path id="Vector" d="M355.865 161.766C355.574 162.132 355.249 162.471 354.895 162.777C354.24 163.402 353.265 164.322 351.969 165.479C348.341 168.773 344.509 171.835 340.496 174.646C334.484 178.798 327.838 181.948 320.818 183.975C312.227 186.439 303.367 187.846 294.435 188.162C289.822 188.385 285.199 188.321 280.594 187.971C276.302 187.619 272.042 186.948 267.85 185.963C260.757 184.319 253.85 181.956 247.238 178.909C242.787 176.875 238.464 174.573 234.291 172.018C232.782 171.127 231.685 170.291 230.922 169.865C230.514 169.638 230.133 169.364 229.788 169.05C230.217 169.238 230.63 169.46 231.026 169.712C231.808 170.155 232.936 170.86 234.479 171.693C238.712 174.117 243.065 176.323 247.523 178.303C254.129 181.228 261.003 183.505 268.049 185.101C272.209 186.036 276.429 186.684 280.678 187.039C285.24 187.37 289.819 187.425 294.388 187.2C303.235 186.893 312.013 185.528 320.536 183.136C327.498 181.176 334.102 178.116 340.097 174.072C344.136 171.329 348.02 168.365 351.732 165.194L354.777 162.635C355.117 162.317 355.481 162.027 355.865 161.766Z" fill="#263238" fill-opacity="1.000000" fill-rule="nonzero"/>
		<g opacity="0.300000">
			<path id="Vector" d="M237.133 154.003C243.893 161.478 252.239 167.347 261.559 171.182C270.88 175.016 280.939 176.718 291.002 176.163C301.065 175.608 310.877 172.812 319.719 167.977C328.562 163.142 336.212 156.391 342.11 148.219C327.06 158.585 309.468 164.651 291.228 165.766C272.987 166.881 254.788 163.001 238.588 154.543L237.133 154.003Z" fill="#000000" fill-opacity="1.000000" fill-rule="nonzero"/>
		</g>
		<path id="Vector" d="M522.77 415.805C519.08 414.924 515.464 413.757 511.956 412.312C509.389 411.382 506.824 410.507 504.225 409.688C502.611 414.57 500.605 420.546 505.479 422.772C512.099 425.804 516.382 426.929 525.123 421.438C527.742 419.779 530.137 417.792 532.25 415.525C529.156 416.363 525.908 416.459 522.77 415.805Z" fill="#455A64" fill-opacity="1.000000" fill-rule="nonzero"/>
		<path id="Vector" d="M496.871 407.564C491.762 406.221 486.609 405.12 481.412 404.263C481.821 406.931 482.121 408.882 482.267 409.598C483.072 413.526 485.435 419.362 490.608 419.349C495.78 419.336 497.558 415.133 496.871 407.564Z" fill="#455A64" fill-opacity="1.000000" fill-rule="nonzero"/>
		<path id="Vector" d="M221.466 385.523L200.121 276.305L214.666 180.917L228.132 180.257L352.171 162.819L393.277 176.765L395.861 273.592L402.002 357.877L314.765 394.163L221.466 385.523Z" fill="#E0E0E0" fill-opacity="1.000000" fill-rule="nonzero"/>
		<path id="Vector" d="M216.566 360.491C216.566 360.491 216.56 360.362 216.434 360.071C216.309 359.781 216.249 359.32 216.132 358.825C215.87 357.633 215.512 356.019 215.078 353.982C214.163 349.688 212.901 343.632 211.329 336.162C208.251 321.035 204.004 300.255 199.336 277.307C196.919 265.837 194.528 254.903 192.866 244.843C191.37 235.946 190.483 226.957 190.21 217.939C189.997 211.862 190.232 205.777 190.911 199.734C191.102 197.593 191.45 196 191.615 194.823L191.831 193.553C191.849 193.404 191.886 193.26 191.939 193.12C191.967 193.267 191.974 193.416 191.961 193.564C191.978 193.916 191.887 194.328 191.839 194.85C191.745 195.967 191.455 197.612 191.32 199.771C190.786 205.806 190.656 211.87 190.932 217.923C191.34 226.902 192.324 235.847 193.879 244.7C195.52 254.726 197.909 265.621 200.401 277.106C205.09 300.09 209.173 320.935 212.139 336.03C213.563 343.507 214.66 349.608 215.575 353.902C215.936 355.961 216.238 357.578 216.463 358.772C216.489 359.29 216.509 359.716 216.656 360.061C216.656 360.209 216.625 360.355 216.566 360.491Z" fill="#263238" fill-opacity="1.000000" fill-rule="nonzero"/>
		<g opacity="0.300000">
			<path id="Vector" d="M376.702 345.992C374.23 352.097 369.75 357.176 364.002 360.391C358.254 363.606 351.581 364.765 345.086 363.676C336.634 362.236 329.302 357.163 322.274 352.225L328.639 345.162L355.579 348.16L370.449 340.606L376.702 345.992Z" fill="#000000" fill-opacity="1.000000" fill-rule="nonzero"/>
		</g>
		<path id="Vector" d="M403.339 366.971C403.2 367.037 403.052 367.082 402.9 367.104L401.58 367.409L396.517 368.511C392.131 369.449 385.742 370.727 377.841 372.19C362.021 375.137 340.095 378.716 315.73 381.711C291.365 384.705 269.221 386.479 253.155 387.435C245.132 387.921 238.635 388.147 234.14 388.368L228.98 388.621L227.629 388.688C227.478 388.72 227.321 388.728 227.167 388.71C227.319 388.676 227.475 388.668 227.629 388.688L228.98 388.621L234.14 388.368C238.635 388.147 245.121 387.699 253.14 387.12C269.16 386 291.298 384.097 315.627 381.122C339.956 378.147 361.905 374.66 377.733 371.88C385.657 370.509 392.051 369.323 396.461 368.514L401.552 367.596L402.895 367.382C403.009 367.212 403.16 367.07 403.339 366.971Z" fill="#263238" fill-opacity="1.000000" fill-rule="nonzero"/>
		<path id="Vector" d="M397.151 290.79C335.72 292.249 261.949 297.65 206.174 302.521L209.453 317.583L398.003 303.245L397.151 290.79Z" fill="#20C7ED" fill-opacity="1.000000" fill-rule="nonzero"/>
		<path id="Vector" d="M352.628 286.171C353.865 286.023 355.061 285.638 356.151 285.034C357.206 284.404 358.1 283.536 358.761 282.499C359.421 281.462 359.83 280.285 359.955 279.062C359.969 277.969 359.915 276.876 359.795 275.788C359.334 266.41 358.578 252.894 357.703 236.212C357.498 232.032 357.283 227.648 357.059 223.098C356.955 221.404 356.282 219.796 355.15 218.533C354.018 217.27 352.493 216.425 350.821 216.136C349.639 215.999 348.444 215.995 347.261 216.125L315.816 217.669L243.9 221.2C242.397 221.269 240.951 221.792 239.754 222.702C238.557 223.612 237.665 224.865 237.197 226.294C236.793 227.753 236.691 229.278 236.898 230.777L238.036 253.973C238.332 259.984 238.621 265.885 238.906 271.674L239.327 280.257C239.396 281.662 239.468 283.124 239.533 284.456C239.781 286.417 240.793 288.2 242.35 289.419C243.906 290.638 245.881 291.193 247.844 290.964L271.039 289.825L298.378 288.482L337.987 286.687L348.752 286.157L337.992 286.778L298.397 288.871L271.058 290.213L247.974 291.347C246.54 291.496 245.09 291.276 243.765 290.709C242.439 290.142 241.28 289.244 240.398 288.103C239.502 286.928 238.934 285.534 238.754 284.067C238.682 282.606 238.616 281.256 238.545 279.813L238.124 271.23C237.839 265.435 237.549 259.534 237.254 253.529C236.96 247.523 236.659 241.407 236.354 235.18L236.143 230.889C235.932 229.269 236.053 227.622 236.499 226.051C237.035 224.443 238.043 223.035 239.392 222.01C240.741 220.984 242.367 220.389 244.059 220.302L315.976 216.771L347.421 215.228C348.655 215.098 349.9 215.111 351.131 215.268C352.964 215.597 354.634 216.532 355.873 217.924C357.111 219.315 357.846 221.083 357.96 222.942C358.184 227.511 358.4 231.895 358.605 236.075C359.422 252.723 359.977 266.286 360.4 275.666C360.488 276.775 360.499 277.891 360.434 279.002C360.325 279.988 360.032 280.946 359.572 281.825C358.863 283.202 357.764 284.339 356.413 285.096C355.59 285.562 354.688 285.871 353.751 286.005C353.384 286.1 353.007 286.156 352.628 286.171Z" fill="#263238" fill-opacity="1.000000" fill-rule="nonzero"/>
		<path id="Vector" d="M237.513 221.031C237.71 208.043 222.719 200.676 213.782 194.254C208.592 190.522 204.151 186.921 201.445 181.288C199.71 177.664 198.068 172.924 199.538 168.865C200.167 167.323 201.13 165.938 202.357 164.811C203.583 163.684 205.044 162.841 206.634 162.343C210.095 161.295 213.769 161.165 217.296 161.968C221.333 162.516 225.259 163.699 228.927 165.476C234.234 168.219 238.503 160 233.214 157.256C229.459 155.405 225.47 154.073 221.357 153.295C217.277 152.319 213.067 152.006 208.889 152.368C198.901 153.638 190.471 160.93 189.868 171.306C189.37 180.045 194.157 189.191 200.309 195.157C205.39 200.08 211.714 203.868 217.323 207.838C220.361 209.854 223.163 212.203 225.677 214.845C225.146 214.24 226.112 215.398 226.092 215.381L226.889 216.491C227.09 216.815 227.909 218.388 227.597 217.698C227.884 218.338 228.109 219.004 228.269 219.687C228.039 218.771 228.269 219.687 228.28 219.908C228.332 220.406 228.357 220.906 228.354 221.407C228.275 227.362 237.523 226.89 237.602 220.953L237.513 221.031Z" fill="#263238" fill-opacity="1.000000" fill-rule="nonzero"/>
		<path id="Vector" d="M221.097 216.369L244.163 215.236L244.957 236.316L223.167 237.387L221.097 216.369Z" fill="#455A64" fill-opacity="1.000000" fill-rule="nonzero"/>
		<path id="Vector" d="M289.412 334.973C292.652 341.858 289.697 350.066 282.811 353.307C275.926 356.547 267.718 353.592 264.478 346.706C261.238 339.821 264.193 331.612 271.078 328.372C277.963 325.133 286.172 328.088 289.412 334.973Z" fill="#263238" fill-opacity="1.000000" fill-rule="evenodd"/>
		<path id="Vector" d="M335.32 332.729C338.56 339.614 335.605 347.822 328.72 351.062C321.834 354.303 313.626 351.348 310.386 344.462C307.146 337.577 310.101 329.368 316.986 326.128C323.871 322.889 332.08 325.844 335.32 332.729Z" fill="#263238" fill-opacity="1.000000" fill-rule="evenodd"/>
		<path id="Vector" d="M383.755 329.786C387.303 336.519 384.722 344.852 377.99 348.399C371.258 351.947 362.925 349.366 359.377 342.635C355.829 335.902 358.41 327.569 365.142 324.021C371.873 320.474 380.207 323.055 383.755 329.786Z" fill="#263238" fill-opacity="1.000000" fill-rule="evenodd"/>
		<path id="Vector" d="M315.914 343.915C332.1 363.924 362.717 365.536 378.306 343.541C385.066 333.938 371.519 321.624 364.723 331.229C356.712 342.543 340.804 345.586 331.349 333.905C323.986 324.792 308.51 334.729 315.952 343.932L315.914 343.915Z" fill="#E0E0E0" fill-opacity="1.000000" fill-rule="nonzero"/>
		<path id="Vector" d="M315.914 343.914C315.803 343.817 315.71 343.703 315.638 343.575L314.881 342.519C314.536 341.906 314.25 341.262 314.026 340.596C313.793 339.658 313.745 338.684 313.886 337.729C314.119 336.416 314.649 335.175 315.435 334.099C316.221 333.021 317.242 332.139 318.42 331.517C319.847 330.66 321.452 330.144 323.111 330.007C324.989 329.86 326.871 330.243 328.542 331.112C330.242 332.223 331.75 333.602 333.007 335.195C333.75 335.923 334.532 336.609 335.352 337.249C336.229 337.894 337.157 338.469 338.125 338.967C342.356 341.051 347.223 341.442 351.732 340.061C356.726 338.562 361.08 335.445 364.11 331.202C364.529 330.681 365.039 330.118 365.495 329.576C366.057 329.085 366.655 328.634 367.282 328.228C368.611 327.502 370.13 327.201 371.635 327.365C373.118 327.615 374.532 328.175 375.786 329.007C377.039 329.839 378.104 330.925 378.911 332.194C379.718 333.464 380.249 334.889 380.47 336.377C380.691 337.865 380.597 339.383 380.194 340.832C379.063 343.455 377.459 345.848 375.46 347.889C371.816 351.821 367.373 354.929 362.428 357.002C357.951 358.875 353.143 359.83 348.289 359.81C344.085 359.849 339.903 359.208 335.903 357.914C330.096 356.098 324.781 352.979 320.362 348.795C319.141 347.707 318.01 346.522 316.981 345.253L316.172 344.272C316.072 344.171 315.986 344.057 315.915 343.933C315.915 343.933 316.03 344.02 316.244 344.213L317.142 345.134C318.222 346.355 319.387 347.501 320.629 348.56C325.08 352.581 330.369 355.563 336.113 357.292C340.051 358.528 344.162 359.121 348.289 359.049C353.017 359.012 357.69 358.032 362.035 356.168C366.843 354.123 371.162 351.079 374.705 347.239C376.344 345.119 378.452 343.106 379.215 340.528C379.571 339.215 379.65 337.842 379.447 336.496C379.244 335.15 378.763 333.861 378.036 332.712C377.308 331.562 376.349 330.576 375.22 329.816C374.091 329.057 372.816 328.54 371.476 328.3C370.208 328.174 368.931 328.424 367.803 329.018C367.26 329.379 366.747 329.782 366.268 330.225C365.83 330.746 365.389 331.194 364.97 331.734C361.811 336.141 357.271 339.365 352.07 340.896C347.356 342.343 342.266 341.93 337.848 339.741C336.854 339.236 335.897 338.663 334.982 338.027C334.166 337.271 333.283 336.646 332.576 335.847C331.37 334.304 329.934 332.954 328.319 331.847C326.764 331.026 325.014 330.651 323.259 330.76C321.684 330.877 320.155 331.345 318.784 332.129C317.659 332.7 316.676 333.517 315.907 334.517C315.138 335.517 314.603 336.676 314.34 337.91C314.21 338.822 314.256 339.752 314.474 340.647C314.663 341.306 314.912 341.945 315.217 342.558L315.863 343.639C315.851 343.77 315.931 343.895 315.914 343.914Z" fill="#263238" fill-opacity="1.000000" fill-rule="nonzero"/>
		<path id="Vector" d="M260.698 269.917C260.732 270.591 260.564 271.26 260.217 271.838C259.869 272.416 259.358 272.879 258.748 273.166C258.137 273.454 257.455 273.554 256.788 273.453C256.121 273.354 255.498 273.057 255 272.603C254.501 272.148 254.148 271.556 253.987 270.9C253.825 270.245 253.862 269.558 254.091 268.923C254.321 268.288 254.734 267.736 255.278 267.337C255.822 266.938 256.472 266.709 257.146 266.68C258.046 266.641 258.925 266.959 259.59 267.565C260.256 268.172 260.654 269.018 260.698 269.917Z" fill="#263238" fill-opacity="1.000000" fill-rule="nonzero"/>
		<path id="Vector" d="M272.351 269.347C272.384 270.02 272.217 270.688 271.871 271.266C271.524 271.844 271.014 272.306 270.405 272.594C269.795 272.882 269.114 272.983 268.448 272.885C267.781 272.785 267.159 272.491 266.659 272.038C266.16 271.586 265.806 270.995 265.642 270.342C265.479 269.688 265.512 269 265.74 268.365C265.967 267.731 266.377 267.178 266.918 266.776C267.459 266.375 268.108 266.144 268.781 266.11C269.682 266.071 270.563 266.389 271.231 266.994C271.9 267.601 272.302 268.445 272.351 269.347Z" fill="#263238" fill-opacity="1.000000" fill-rule="nonzero"/>
		<path id="Vector" d="M283.561 268.796C283.594 269.469 283.426 270.137 283.08 270.715C282.733 271.293 282.223 271.755 281.614 272.043C281.005 272.331 280.324 272.433 279.657 272.334C278.99 272.234 278.368 271.94 277.869 271.487C277.369 271.035 277.016 270.444 276.852 269.791C276.688 269.137 276.722 268.449 276.949 267.814C277.176 267.181 277.586 266.627 278.127 266.226C278.669 265.824 279.317 265.593 279.99 265.56C280.891 265.521 281.772 265.838 282.441 266.443C283.109 267.05 283.512 267.895 283.561 268.796Z" fill="#263238" fill-opacity="1.000000" fill-rule="nonzero"/>
		<path id="Vector" d="M294.844 268.243C294.877 268.916 294.709 269.584 294.363 270.162C294.016 270.74 293.506 271.202 292.897 271.49C292.288 271.778 291.607 271.88 290.94 271.781C290.273 271.682 289.651 271.388 289.152 270.935C288.652 270.482 288.298 269.892 288.135 269.238C287.971 268.584 288.005 267.896 288.232 267.262C288.459 266.628 288.869 266.074 289.41 265.673C289.952 265.271 290.6 265.04 291.273 265.007C292.174 264.968 293.055 265.285 293.724 265.891C294.392 266.497 294.795 267.342 294.844 268.243Z" fill="#263238" fill-opacity="1.000000" fill-rule="nonzero"/>
		<path id="Vector" d="M288.77 246.885L257.843 248.402C257.306 248.429 256.77 248.35 256.264 248.168C255.758 247.987 255.292 247.708 254.894 247.348C254.496 246.986 254.172 246.551 253.943 246.064C253.713 245.579 253.581 245.053 253.555 244.516C253.501 243.432 253.881 242.37 254.61 241.566C255.339 240.762 256.358 240.28 257.442 240.227L288.369 238.709C289.453 238.655 290.514 239.035 291.318 239.764C292.122 240.493 292.604 241.512 292.657 242.596C292.684 243.133 292.604 243.669 292.423 244.176C292.242 244.682 291.963 245.146 291.602 245.545C291.241 245.943 290.805 246.267 290.319 246.496C289.833 246.727 289.307 246.858 288.77 246.885Z" fill="#FFFFFF" fill-opacity="1.000000" fill-rule="nonzero"/>
		<path id="Vector" d="M260.727 256.9C260.76 257.573 260.593 258.241 260.246 258.819C259.9 259.397 259.389 259.859 258.78 260.147C258.171 260.436 257.49 260.537 256.823 260.438C256.157 260.339 255.534 260.045 255.035 259.592C254.536 259.14 254.182 258.549 254.018 257.896C253.854 257.241 253.888 256.554 254.115 255.919C254.342 255.285 254.752 254.731 255.294 254.33C255.835 253.929 256.483 253.697 257.156 253.664C258.059 253.62 258.942 253.936 259.612 254.543C260.281 255.149 260.682 255.998 260.727 256.9Z" fill="#20C7ED" fill-opacity="1.000000" fill-rule="nonzero"/>
		<path id="Vector" d="M272.306 256.333C272.339 257.006 272.172 257.674 271.825 258.252C271.479 258.83 270.968 259.292 270.359 259.58C269.75 259.868 269.069 259.97 268.402 259.871C267.736 259.771 267.113 259.478 266.614 259.024C266.115 258.572 265.761 257.981 265.597 257.328C265.433 256.674 265.467 255.986 265.694 255.352C265.921 254.718 266.331 254.164 266.873 253.763C267.414 253.361 268.062 253.13 268.735 253.097C269.638 253.053 270.521 253.368 271.191 253.976C271.86 254.582 272.261 255.431 272.306 256.333Z" fill="#FFFFFF" fill-opacity="1.000000" fill-rule="nonzero"/>
		<path id="Vector" d="M283.552 255.78C283.585 256.453 283.418 257.121 283.071 257.699C282.725 258.277 282.214 258.739 281.605 259.027C280.996 259.315 280.315 259.417 279.648 259.318C278.982 259.219 278.359 258.925 277.86 258.472C277.361 258.02 277.007 257.429 276.843 256.775C276.679 256.121 276.713 255.434 276.94 254.799C277.167 254.165 277.577 253.611 278.119 253.21C278.66 252.809 279.308 252.577 279.981 252.544C280.884 252.5 281.767 252.815 282.437 253.423C283.106 254.029 283.508 254.878 283.552 255.78Z" fill="#20C7ED" fill-opacity="1.000000" fill-rule="nonzero"/>
		<path id="Vector" d="M294.798 255.229C294.831 255.902 294.664 256.57 294.317 257.148C293.971 257.727 293.461 258.188 292.851 258.477C292.242 258.765 291.561 258.866 290.895 258.768C290.228 258.668 289.606 258.374 289.106 257.921C288.607 257.469 288.253 256.878 288.089 256.225C287.925 255.57 287.959 254.883 288.186 254.248C288.413 253.614 288.823 253.061 289.365 252.659C289.906 252.258 290.554 252.026 291.228 251.993C292.13 251.949 293.013 252.265 293.683 252.872C294.353 253.479 294.754 254.327 294.798 255.229Z" fill="#FFFFFF" fill-opacity="1.000000" fill-rule="nonzero"/>
		<path id="Vector" d="M318.926 234.557L337.756 233.632C339.451 233.549 340.894 234.855 340.977 236.552L341.901 255.382C341.985 257.077 340.677 258.52 338.982 258.603L320.152 259.527C318.456 259.61 317.014 258.304 316.93 256.607L316.006 237.777C315.923 236.082 317.23 234.64 318.926 234.557Z" fill="#455A64" fill-opacity="1.000000" fill-rule="evenodd"/>
		<path id="Vector" d="M341.208 270.342L319.012 271.432C318.089 271.477 317.187 271.154 316.503 270.534C315.819 269.914 315.409 269.047 315.364 268.125C315.318 267.202 315.641 266.3 316.261 265.616C316.881 264.932 317.748 264.522 318.67 264.477L340.867 263.387C341.791 263.342 342.695 263.664 343.382 264.283C344.069 264.902 344.483 265.769 344.533 266.692C344.574 267.617 344.247 268.52 343.624 269.203C343 269.887 342.132 270.297 341.208 270.342Z" fill="#263238" fill-opacity="1.000000" fill-rule="nonzero"/>
		<g opacity="0.300000">
			<path id="Vector" d="M245.731 291.364C245.731 291.364 246.429 293.48 253.29 294.257C260.151 295.032 344.248 290.718 349.178 289.549C352.041 288.921 354.641 287.427 356.626 285.271L245.731 291.364Z" fill="#000000" fill-opacity="1.000000" fill-rule="nonzero"/>
		</g>
		<path id="Vector" d="M511.17 323.036C506.219 312.821 477.679 270.057 469.017 257.54C460.355 245.023 435.714 221.239 435.714 221.239L411.88 192.742C406.602 186.439 400.352 181.02 393.366 176.686L380.186 228.879L388.083 272.268L415.893 285.438L433.836 311.017L469.253 360.526C471.263 361.751 473.401 362.753 475.629 363.514L514.443 336.818C514.443 336.818 515.914 332.797 511.17 323.036Z" fill="#E0E0E0" fill-opacity="1.000000" fill-rule="nonzero"/>
		<path id="Vector" d="M445.772 247.482C445.732 248.119 445.614 248.747 445.419 249.354C445.258 250.102 445.047 250.837 444.786 251.555C444.479 252.517 444.123 253.463 443.72 254.389C442.694 256.815 441.476 259.157 440.077 261.391C438.353 264.116 436.449 266.725 434.379 269.198C430.589 273.645 426.366 277.703 421.772 281.312C419.987 282.717 418.536 283.752 417.476 284.453C416.963 284.851 416.399 285.178 415.799 285.426C415.793 285.296 417.938 283.67 421.339 280.796C425.796 277.068 429.937 272.977 433.717 268.563C435.762 266.112 437.66 263.542 439.402 260.867C440.806 258.686 442.063 256.412 443.166 254.063C444.96 250.192 445.68 247.487 445.772 247.482Z" fill="#263238" fill-opacity="1.000000" fill-rule="nonzero"/>
		<path id="Vector" d="M407.438 238.24C407.586 238.233 406.799 240.33 405.853 243.714C404.906 247.098 403.82 251.786 402.669 257.035C401.753 261.524 400.603 265.962 399.224 270.331C398.657 272.01 398.13 273.352 397.729 274.243C397.327 275.134 397.055 275.63 396.998 275.595C396.94 275.561 397.618 273.507 398.584 270.141C399.55 266.773 400.616 262.049 401.75 256.82C402.676 252.325 403.832 247.881 405.212 243.504C405.637 242.174 406.136 240.868 406.707 239.593C406.887 239.11 407.133 238.655 407.438 238.24Z" fill="#263238" fill-opacity="1.000000" fill-rule="nonzero"/>
		<path id="Vector" d="M395.576 185.829C395.608 185.976 395.615 186.125 395.598 186.273C395.615 186.625 395.636 187.05 395.551 187.573C395.499 188.8 395.433 190.472 395.333 192.591C395.233 194.709 395.257 197.452 395.204 200.532C395.151 203.613 395.232 207.15 395.256 211.043C395.446 226.608 396.185 248.081 397.316 271.869C398.447 295.658 399.686 317.124 400.617 332.69C400.996 340.404 401.452 346.667 401.71 351.179C401.814 353.287 401.896 354.971 401.956 356.191C401.982 356.709 402.004 357.153 402.021 357.505C402.054 357.65 402.062 357.801 402.043 357.948C402.012 357.803 402.004 357.652 402.021 357.505C402.004 357.153 401.983 356.728 401.956 356.191C401.896 354.971 401.685 353.312 401.508 351.207C401.16 346.774 400.685 340.493 400.1 332.734C399.003 317.195 397.673 295.771 396.521 271.927C395.369 248.084 394.762 226.643 394.738 211.05C394.769 207.155 394.8 203.631 394.833 200.532C394.867 197.435 395.052 194.792 395.129 192.582C395.206 190.372 395.447 188.858 395.532 187.574C395.507 187.057 395.634 186.624 395.672 186.27C395.613 186.13 395.58 185.98 395.576 185.829Z" fill="#263238" fill-opacity="1.000000" fill-rule="nonzero"/>
		<path id="Vector" d="M491.474 332.013C490.328 332.458 471.158 341.558 469.219 360.603C471.505 362.007 473.95 363.132 476.504 363.953L514.442 336.818C514.802 334.58 514.626 332.288 513.929 330.132C513.929 330.132 511.009 324.675 491.474 332.013Z" fill="#20C7ED" fill-opacity="1.000000" fill-rule="nonzero"/>
		<path id="Vector" d="M475.917 365.985C475.917 365.985 481.463 405.67 482.267 409.599C483.072 413.526 485.435 419.362 490.608 419.35C496.448 419.341 497.882 414.19 496.562 405.04C495.241 395.89 494.898 390.047 496.694 391.127C498.49 392.207 505.807 400.358 505.406 405.032C505.005 409.706 498.841 419.742 505.479 422.772C512.118 425.803 516.382 426.929 525.123 421.438C530.17 418.383 534.325 414.054 537.171 408.887C537.171 408.887 543.812 393.078 542.214 386.964C541.6 384.658 525.185 355.464 525.185 355.464L513.884 338.293C513.884 338.293 508.836 329.511 491.351 340.085C472.876 351.245 475.219 361.198 475.917 365.985Z" fill="#263238" fill-opacity="1.000000" fill-rule="nonzero"/>
		<path id="Vector" d="M405.098 280.443C417.427 262.283 428.36 243.213 437.804 223.398L443.963 229.512C435.425 248.807 424.38 266.892 411.116 283.3L405.098 280.443Z" fill="#20C7ED" fill-opacity="1.000000" fill-rule="nonzero"/>
		<path id="Vector" d="M503.881 310.525C503.881 310.525 503.196 310.56 502.037 310.746C500.309 311.002 498.604 311.402 496.942 311.941C491.353 313.842 485.925 316.186 480.71 318.95L480.348 319.135L480.11 318.831L477.781 315.941L475.944 313.658L475.687 313.338L475.969 313.027C478.374 310.538 481.28 308.588 484.495 307.306C487.032 306.252 489.661 305.434 492.348 304.862C494.139 304.464 495.95 304.165 497.774 303.965C498.432 303.846 499.104 303.812 499.771 303.867C499.136 304.061 498.485 304.197 497.826 304.277C496.559 304.525 494.74 304.874 492.507 305.447C489.878 306.101 487.309 306.978 484.829 308.067C481.759 309.343 478.986 311.24 476.685 313.641L476.654 313.012L478.49 315.295C479.281 316.295 480.07 317.257 480.82 318.185L480.221 318.065C485.489 315.279 491.016 313.015 496.725 311.304C498.43 310.793 500.187 310.477 501.963 310.36C502.446 310.324 502.931 310.338 503.411 310.4C503.711 310.46 503.879 310.488 503.881 310.525Z" fill="#263238" fill-opacity="1.000000" fill-rule="nonzero"/>
		<path id="Vector" d="M512.436 325.792C509.399 325.54 506.349 325.461 503.302 325.554C500.026 325.77 496.792 326.408 493.68 327.454C489.877 328.775 486.279 330.625 482.991 332.948C477.01 337.197 472.189 342.878 468.969 349.471C467.71 352.24 466.611 355.08 465.679 357.977C465.728 357.151 465.875 356.335 466.115 355.544C466.677 353.357 467.428 351.224 468.361 349.167C470.77 343.889 474.239 339.163 478.553 335.283C482.866 331.403 487.932 328.452 493.435 326.613C498.793 324.871 504.485 324.408 510.055 325.26C510.868 325.34 511.667 325.519 512.436 325.792Z" fill="#263238" fill-opacity="1.000000" fill-rule="nonzero"/>
		<path id="Vector" d="M517.466 385.936C517.869 386.329 518.21 386.781 518.477 387.277C519.291 388.559 520.007 389.899 520.621 391.288C521.552 393.353 522.225 395.524 522.626 397.753C523.116 400.521 523.028 403.359 522.368 406.091C521.617 408.779 520.461 411.337 518.939 413.676C517.732 415.57 516.417 417.394 514.998 419.136C514.048 420.316 513.039 421.449 511.976 422.528C511.234 423.288 510.771 423.682 510.732 423.628C510.692 423.574 512.195 421.702 514.458 418.717C515.589 417.196 516.888 415.334 518.175 413.213C519.647 410.938 520.775 408.459 521.522 405.854C522.528 401.055 522.03 396.062 520.096 391.555C518.607 388.03 517.378 386.033 517.466 385.936Z" fill="#455A64" fill-opacity="1.000000" fill-rule="nonzero"/>
		<path id="Vector" d="M533.893 387.057C534.187 387.431 534.415 387.852 534.566 388.303C535.095 389.476 535.509 390.697 535.802 391.95C536.281 393.799 536.561 395.693 536.636 397.602C536.731 399.944 536.566 402.291 536.145 404.598C535.688 406.893 534.99 409.133 534.063 411.282C533.284 413.024 532.334 414.686 531.229 416.242C530.499 417.302 529.665 418.287 528.74 419.183C528.085 419.808 527.712 420.142 527.654 420.089C527.595 420.036 528.931 418.542 530.654 415.862C531.663 414.299 532.531 412.649 533.249 410.933C534.099 408.821 534.749 406.636 535.19 404.403C535.597 402.168 535.783 399.898 535.747 397.627C535.709 395.769 535.507 393.917 535.142 392.094C534.507 388.973 533.73 387.139 533.893 387.057Z" fill="#455A64" fill-opacity="1.000000" fill-rule="nonzero"/>
		<path id="Vector" d="M518.164 378.242C518.379 378.102 519.156 379.195 519.01 380.76C518.865 382.324 517.87 383.226 517.695 383.049C517.519 382.872 517.936 381.925 518.041 380.659C518.146 379.393 517.91 378.366 518.164 378.242Z" fill="#455A64" fill-opacity="1.000000" fill-rule="nonzero"/>
		<path id="Vector" d="M533.344 379.649C533.539 379.473 534.35 380.138 534.637 381.439C534.923 382.742 534.483 383.599 534.239 383.536C533.995 383.474 533.935 382.624 533.704 381.708C533.474 380.792 533.129 379.808 533.344 379.649Z" fill="#455A64" fill-opacity="1.000000" fill-rule="nonzero"/>
		<path id="Vector" d="M260.566 704.929L293.328 772.518L282.111 825.764C281.623 831.226 283.272 836.664 286.712 840.935C290.151 845.206 295.113 847.978 300.553 848.666C301.473 848.827 302.41 848.868 303.34 848.788C306.084 848.412 313.119 843.265 314.491 841.01C329.942 815.813 351.576 782.878 347.663 771.927C345.502 765.673 326.754 690.852 326.754 690.852L260.566 704.929Z" fill="#E0E0E0" fill-opacity="1.000000" fill-rule="nonzero"/>
		<path id="Vector" d="M313.141 739.486C313.391 739.783 313.606 740.109 313.782 740.456C314.167 741.123 314.697 742.098 315.371 743.363C317.288 746.896 319.025 750.523 320.577 754.232C322.941 759.753 324.363 765.631 324.787 771.621C324.973 775.183 324.617 778.751 323.73 782.205C322.726 785.892 321.466 789.503 319.96 793.015C316.824 800.158 315.213 807.376 312.444 813.668C310.172 819.536 305.956 824.448 300.501 827.586C296.582 829.628 292.037 830.116 287.774 828.952C286.652 828.626 285.584 828.135 284.606 827.494C284.262 827.29 283.95 827.037 283.679 826.743C285.024 827.482 286.446 828.071 287.919 828.5C292.031 829.444 296.347 828.857 300.057 826.847C305.23 823.727 309.207 818.961 311.352 813.313C313.98 807.177 315.604 799.848 318.755 792.647C320.244 789.182 321.5 785.62 322.515 781.986C323.384 778.643 323.751 775.188 323.606 771.735C323.23 765.85 321.919 760.062 319.723 754.589C317.915 749.857 316.1 746.127 314.916 743.533C314.228 742.229 313.635 740.876 313.141 739.486Z" fill="#263238" fill-opacity="1.000000" fill-rule="nonzero"/>
		<path id="Vector" d="M316.224 773.191C316.11 773.53 311.009 772.354 304.582 772.112C298.155 771.872 292.924 772.574 292.869 772.225C292.815 771.875 298.019 770.618 304.634 770.905C311.249 771.192 316.344 773 316.224 773.191Z" fill="#263238" fill-opacity="1.000000" fill-rule="nonzero"/>
		<path id="Vector" d="M309.009 789.397C308.84 789.722 304.694 787.978 299.251 787.021C293.808 786.064 289.254 786.195 289.236 785.845C289.219 785.493 293.859 784.82 299.49 785.842C305.121 786.863 309.108 789.134 309.009 789.397Z" fill="#263238" fill-opacity="1.000000" fill-rule="nonzero"/>
		<path id="Vector" d="M307.38 806.816C307.153 807.106 303.384 804.732 298.196 802.929C293.009 801.126 288.474 800.532 288.531 800.178C288.587 799.822 293.266 799.944 298.66 801.794C304.053 803.643 307.59 806.565 307.38 806.816Z" fill="#263238" fill-opacity="1.000000" fill-rule="nonzero"/>
		<path id="Vector" d="M285.588 838.794C286.799 839.377 288.064 839.843 289.364 840.185C292.985 840.938 296.75 840.547 300.137 839.062C304.964 836.747 309.104 833.215 312.15 828.812C315.753 824.037 319.471 818.57 323.116 812.736C329.269 802.762 334.64 792.325 339.179 781.521C340.831 777.397 342.201 773.956 343.108 771.668C343.495 770.423 343.988 769.214 344.581 768.054C344.341 769.329 344.005 770.585 343.579 771.812C342.824 774.185 341.677 777.634 340.028 781.812C335.747 792.791 330.489 803.362 324.316 813.4C320.638 819.292 316.9 824.741 313.187 829.54C309.98 834.061 305.624 837.642 300.568 839.912C296.999 841.4 293.04 841.679 289.297 840.707C288.312 840.438 287.369 840.035 286.494 839.51C285.916 839.056 285.589 838.831 285.588 838.794Z" fill="#263238" fill-opacity="1.000000" fill-rule="nonzero"/>
		<path id="Vector" d="M341.155 774.935C340.476 773.113 339.968 771.232 339.636 769.317C338.798 765.835 337.562 761.057 335.898 755.854C334.233 750.651 332.485 746.009 331.172 742.681C330.34 740.923 329.667 739.094 329.161 737.217C330.317 738.809 331.273 740.536 332.009 742.361C335.987 750.893 338.853 759.9 340.537 769.161C340.997 771.051 341.205 772.991 341.155 774.935Z" fill="#263238" fill-opacity="1.000000" fill-rule="nonzero"/>
		<path id="Vector" d="M475.696 659.824L463.527 733.735L489.697 782.234C491.767 787.3 491.747 792.978 489.643 798.028C487.539 803.079 483.521 807.092 478.468 809.189C477.628 809.592 476.738 809.879 475.821 810.042C473.058 810.4 464.782 807.266 462.802 805.452C440.65 785.162 410.243 759.12 410.892 747.426C411.253 740.808 407.741 663.605 407.741 663.605L475.696 659.824Z" fill="#E0E0E0" fill-opacity="1.000000" fill-rule="nonzero"/>
		<path id="Vector" d="M434.868 707.032C434.868 707.032 434.887 707.42 434.794 708.167C434.7 708.913 434.501 710.128 434.323 711.416C433.923 714.235 433.252 718.311 432.869 723.354C432.308 729.244 432.707 735.186 434.048 740.947C434.91 744.33 436.262 747.568 438.062 750.559C440.088 753.804 442.322 756.915 444.749 759.872C449.87 765.999 453.553 772.642 457.871 777.899C461.565 782.822 466.777 786.392 472.703 788.056C476.827 789.027 481.165 788.458 484.899 786.455C486.205 785.678 487.405 784.733 488.469 783.646C488.469 783.646 488.301 784.008 487.812 784.625C487.039 785.489 486.145 786.239 485.159 786.851C481.344 789.11 476.813 789.837 472.484 788.882C466.285 787.262 460.806 783.615 456.919 778.521C452.429 773.179 448.789 766.627 443.706 760.535C441.252 757.54 438.998 754.387 436.957 751.096C435.115 748.001 433.745 744.65 432.89 741.152C431.589 735.271 431.291 729.211 432.01 723.229C432.424 719.22 433.045 715.234 433.872 711.29C434.173 709.885 434.398 708.798 434.585 708.065C434.635 707.71 434.73 707.363 434.868 707.032Z" fill="#263238" fill-opacity="1.000000" fill-rule="nonzero"/>
		<path id="Vector" d="M441.604 740.373C441.407 740.142 445.82 737.126 452.138 735.146C458.456 733.168 463.881 733.013 463.878 733.31C463.874 733.606 458.662 734.325 452.546 736.276C446.43 738.227 441.805 740.697 441.604 740.373Z" fill="#263238" fill-opacity="1.000000" fill-rule="nonzero"/>
		<path id="Vector" d="M453.238 754.152C452.987 753.942 456.239 750.687 461.4 748.189C466.562 745.692 471.284 745.183 471.318 745.496C471.352 745.81 466.954 746.879 461.99 749.255C457.026 751.631 453.492 754.418 453.238 754.152Z" fill="#263238" fill-opacity="1.000000" fill-rule="nonzero"/>
		<path id="Vector" d="M459.827 770.517C459.541 770.363 462.142 766.694 466.892 763.365C471.642 760.035 476.127 758.851 476.218 759.198C476.309 759.547 472.147 761.253 467.665 764.384C463.184 767.515 460.116 770.743 459.827 770.517Z" fill="#263238" fill-opacity="1.000000" fill-rule="nonzero"/>
		<path id="Vector" d="M490.027 795.753C490.027 795.753 489.838 796.059 489.4 796.581C488.704 797.343 487.907 798.006 487.031 798.552C483.693 800.457 479.826 801.227 476.014 800.743C470.467 799.872 465.242 797.572 460.853 794.07C455.49 790.112 450.332 785.886 445.398 781.405C436.524 773.374 428.379 764.572 421.059 755.103C418.251 751.532 416.154 748.483 414.735 746.384C413.969 745.319 413.293 744.192 412.715 743.016C413.616 743.986 414.442 745.024 415.185 746.12C416.731 748.14 418.933 751.072 421.813 754.603C429.308 763.862 437.501 772.535 446.32 780.544C451.519 785.239 456.68 789.528 461.533 793.203C465.741 796.638 470.755 798.944 476.102 799.904C479.772 800.448 483.52 799.836 486.826 798.153C487.956 797.441 489.027 796.639 490.027 795.753Z" fill="#263238" fill-opacity="1.000000" fill-rule="nonzero"/>
		<path id="Vector" d="M418.015 748.614C417.407 746.753 417.05 744.818 416.954 742.862C415.901 733.51 416.06 724.061 417.428 714.749C417.606 712.792 418.028 710.865 418.685 709.014C418.748 710.961 418.626 712.91 418.322 714.835C418.016 718.41 417.646 723.342 417.544 728.816C417.442 734.291 417.628 739.214 417.822 742.802C418.065 744.729 418.13 746.675 418.015 748.614Z" fill="#263238" fill-opacity="1.000000" fill-rule="nonzero"/>
		<path id="Vector" d="M426.751 414.066C426.751 414.066 440.818 412.059 446.242 417.911C451.665 423.764 472.913 453.593 470.17 456.619C467.426 459.646 462.086 466.825 462.086 466.825L426.751 414.066Z" fill="#455A64" fill-opacity="1.000000" fill-rule="nonzero"/>
		<path id="Vector" d="M328.931 658.518C329.022 657.346 315.223 614.209 315.223 614.209L311.54 561.102L312.712 526.056C312.712 526.056 321.983 521.521 313.853 511.537L317.05 493.191L218.519 383.275C218.519 383.275 215.275 414.25 214.673 449.954C214.545 458.304 206.779 501.034 210.91 528.143C215.041 555.252 230.469 604.39 231.455 613.13C232.44 621.87 250.528 674.567 259.24 692.273C269.542 713.276 286.221 756.53 286.221 756.53L344.14 739.817C344.14 739.817 328.84 659.69 328.931 658.518Z" fill="#E0E0E0" fill-opacity="1.000000" fill-rule="nonzero"/>
		<path id="Vector" d="M429.882 416.657C432.339 417.611 481.567 487.488 487.689 506.434C493.811 525.38 490.213 573.69 489.041 582.685C487.87 591.68 469.958 704.958 469.239 708.071C468.52 711.184 433.552 726.307 408.061 712.039L402.828 669.65C402.828 669.65 396.345 623.707 396.555 610.625L396.789 597.635L394.983 552.537L383.317 526.41C380.081 523.565 378.668 520.464 379.151 517.084L371.737 500.52L348.028 485.163C348.028 485.163 343.818 464.362 361.835 435.554C379.852 406.746 415.992 393.958 415.992 393.958L429.882 416.657Z" fill="#E0E0E0" fill-opacity="1.000000" fill-rule="nonzero"/>
		<path id="Vector" d="M221.091 573.497C222.06 572.755 223.129 572.153 224.266 571.71C227.318 570.356 230.468 569.235 233.688 568.354C244.412 565.542 255.45 564.104 266.537 564.071C269.783 564.098 272.931 564.018 276.001 564.237C278.943 564.406 281.873 564.727 284.782 565.197C289.664 566.012 294.485 567.163 299.209 568.642C302.383 569.614 305.502 570.755 308.555 572.059C309.693 572.459 310.778 572.997 311.786 573.661C310.616 573.344 309.469 572.947 308.353 572.477C306.145 571.694 302.958 570.59 298.934 569.453C294.215 568.111 289.42 567.053 284.575 566.282C278.601 565.466 272.57 565.143 266.542 565.313C255.567 565.338 244.63 566.628 233.95 569.157C230.738 569.949 227.579 570.939 224.491 572.125C222.289 572.975 221.131 573.569 221.091 573.497Z" fill="#263238" fill-opacity="1.000000" fill-rule="nonzero"/>
		<path id="Vector" d="M224.134 584.491C238.929 578.524 254.749 575.512 270.701 575.623C284.972 575.874 299.16 577.861 312.951 581.54L313.44 588.469C313.44 588.469 284.704 584.021 272.149 583.97C256.535 583.92 226.062 591.665 226.062 591.665L224.134 584.491Z" fill="#20C7ED" fill-opacity="1.000000" fill-rule="nonzero"/>
		<path id="Vector" d="M378.672 517.146C379.208 515.933 379.845 514.767 380.577 513.66C381.349 512.33 382.203 511.05 383.133 509.826C384.286 508.1 385.528 506.436 386.856 504.841C388.434 502.858 390.11 500.957 391.879 499.143C393.726 497.105 395.933 495.235 398.219 493.065C403.36 488.659 408.889 484.727 414.737 481.314C420.717 477.96 426.982 475.14 433.458 472.887C436.49 471.94 439.353 470.965 442.123 470.365C444.893 469.767 447.46 469.177 449.832 468.764C452.203 468.351 454.382 468.15 456.262 467.929C457.886 467.716 459.521 467.598 461.158 467.577C462.547 467.465 463.942 467.465 465.33 467.576C463.965 467.825 462.585 467.98 461.199 468.038C459.849 468.104 458.226 468.277 456.35 468.592C454.474 468.906 452.313 469.068 450.003 469.608C447.693 470.147 445.099 470.554 442.393 471.335C439.688 472.117 436.91 472.958 433.861 473.924C427.489 476.207 421.319 479.022 415.418 482.338C409.63 485.706 404.143 489.567 399.019 493.879C396.747 495.938 394.521 497.809 392.669 499.753C390.818 501.698 389.147 503.542 387.583 505.306C386.02 507.07 384.839 508.704 383.723 510.131C382.606 511.558 381.706 512.862 381 513.973C380.31 515.092 379.532 516.152 378.672 517.146Z" fill="#263238" fill-opacity="1.000000" fill-rule="nonzero"/>
		<path id="Vector" d="M384.063 526.875C384.599 525.661 385.236 524.495 385.968 523.389C386.74 522.059 387.594 520.778 388.524 519.555C389.683 517.829 390.932 516.164 392.266 514.568C393.838 512.582 395.515 510.68 397.289 508.871C399.048 506.931 401.324 504.965 403.61 502.794C408.75 498.378 414.285 494.444 420.147 491.043C426.119 487.686 432.378 484.865 438.849 482.615C441.88 481.65 444.744 480.694 447.514 480.095C450.285 479.495 452.851 478.887 455.223 478.492C457.596 478.098 459.772 477.861 461.671 477.638C463.29 477.439 464.918 477.329 466.549 477.306C467.944 477.195 469.345 477.195 470.74 477.304C469.369 477.552 467.982 477.707 466.591 477.768C465.259 477.833 463.617 478.006 461.741 478.32C459.865 478.636 457.723 478.796 455.394 479.337C453.066 479.878 450.49 480.282 447.784 481.064C445.079 481.846 442.301 482.668 439.253 483.652C432.881 485.906 426.711 488.69 420.804 491.975C415.042 495.351 409.58 499.217 404.48 503.53C402.208 505.589 399.982 507.459 398.131 509.404C396.28 511.35 394.613 513.285 393.045 514.957C391.477 516.629 390.301 518.355 389.184 519.782C388.218 521.016 387.315 522.298 386.48 523.623C385.762 524.77 384.954 525.857 384.063 526.875Z" fill="#263238" fill-opacity="1.000000" fill-rule="nonzero"/>
		<path id="Vector" d="M407.042 370.645L335.631 365.214L218.575 383.272L222.162 429.524L219.642 432.207L317.867 495.487L327.269 486.83L348.083 485.141L417.585 397.327L407.042 370.645Z" fill="#E0E0E0" fill-opacity="1.000000" fill-rule="nonzero"/>
		<path id="Vector" d="M421.195 404.012C419.77 404.514 418.318 404.932 416.844 405.264C412.906 406.364 409.04 407.705 405.267 409.281C393.001 414.343 381.988 422.021 372.997 431.78C361.695 444.244 354.461 459.857 352.259 476.538C352.144 477.95 351.94 479.354 351.649 480.739C351.583 480.38 351.565 480.013 351.595 479.648C351.56 478.927 351.616 477.793 351.756 476.507C352.074 472.64 352.717 468.806 353.678 465.047C356.889 452.364 363.158 440.661 371.937 430.961C381.069 421.041 392.348 413.341 404.911 408.445C408.754 406.926 412.703 405.691 416.726 404.75C418.137 404.403 419.278 404.235 420.031 404.088C420.414 404.01 420.806 403.983 421.195 404.012Z" fill="#263238" fill-opacity="1.000000" fill-rule="nonzero"/>
		<path id="Vector" d="M323.079 490.616C322.786 490.369 322.529 490.082 322.314 489.764L320.334 487.191C319.518 486.063 318.468 484.687 317.151 483.176C315.835 481.664 314.448 479.859 312.654 478.057C310.86 476.253 309.034 474.192 306.803 472.188C304.573 470.184 302.189 468.076 299.616 465.903C293.839 461.335 287.704 457.24 281.271 453.657C274.713 450.125 267.888 447.112 260.859 444.647C257.581 443.603 254.469 442.532 251.45 441.827C248.43 441.123 245.669 440.405 243.086 439.901C240.502 439.398 238.149 439.05 236.093 438.725C234.038 438.399 232.229 438.191 230.759 438.078L227.384 437.706C226.6 437.597 226.19 437.542 226.205 437.485C226.597 437.422 226.994 437.402 227.389 437.428L230.808 437.575C232.608 437.622 234.404 437.77 236.188 438.016C238.279 438.302 240.68 438.5 243.266 439.04C245.851 439.581 248.728 440.015 251.734 440.831C254.741 441.647 257.918 442.529 261.251 443.571C268.382 445.992 275.297 449.008 281.923 452.587C288.415 456.202 294.587 460.365 300.37 465.031C302.964 467.24 305.456 469.287 307.564 471.446C309.673 473.604 311.642 475.566 313.33 477.467C315.018 479.368 316.441 481.171 317.708 482.814C318.799 484.137 319.808 485.523 320.731 486.968C321.451 488.045 322.033 488.943 322.514 489.68C322.75 489.961 322.941 490.276 323.079 490.616Z" fill="#263238" fill-opacity="1.000000" fill-rule="nonzero"/>
		<path id="Vector" d="M210.417 506.401C211.602 505.627 212.846 504.946 214.136 504.364C215.605 503.583 217.119 502.89 218.67 502.288C220.488 501.55 222.5 500.616 224.875 499.888L228.523 498.67C229.801 498.255 231.176 497.947 232.585 497.562C235.401 496.757 238.472 496.235 241.761 495.629C255.871 493.289 270.306 493.79 284.219 497.104C287.375 497.932 290.396 498.655 293.116 499.671C294.475 500.16 295.828 500.539 297.077 501.053L300.617 502.529C302.65 503.368 304.64 504.311 306.578 505.352C308.069 506.067 309.514 506.876 310.905 507.771C312.123 508.458 313.294 509.225 314.411 510.065C313.093 509.544 311.822 508.911 310.61 508.176C309.184 507.357 307.718 506.613 306.217 505.943C304.454 505.159 302.531 504.122 300.229 503.309L296.674 501.906C295.445 501.43 294.093 501.069 292.736 500.616C290.037 499.655 287.096 499.039 283.901 498.177C277.032 496.679 270.046 495.781 263.021 495.493C255.967 495.305 248.909 495.727 241.927 496.751C238.748 497.334 235.675 497.8 232.894 498.567C231.503 498.932 230.125 499.203 228.846 499.582L225.194 500.725C222.835 501.397 220.802 502.275 218.977 502.885C217.413 503.441 215.878 504.08 214.38 504.798C213.1 505.427 211.775 505.963 210.417 506.401Z" fill="#263238" fill-opacity="1.000000" fill-rule="nonzero"/>
		<path id="Vector" d="M210.208 524.044C211.366 523.329 212.574 522.7 213.823 522.16L215.835 521.209L218.31 520.253C220.131 519.589 222.093 518.751 224.415 518.099L228.07 517.011C229.351 516.67 230.691 516.382 232.065 516.055C234.812 515.345 237.832 514.938 240.975 514.375C247.849 513.488 254.783 513.147 261.711 513.357C268.626 513.618 275.513 514.396 282.313 515.683C285.425 516.364 288.402 516.96 291.092 517.755C293.783 518.55 296.321 519.26 298.621 520.037C300.921 520.813 302.892 521.682 304.647 522.3C306.157 522.868 307.637 523.514 309.081 524.233C310.347 524.76 311.568 525.388 312.733 526.111C311.438 525.72 310.174 525.229 308.953 524.647C307.722 524.133 306.227 523.521 304.436 522.903C302.644 522.287 300.658 521.494 298.383 520.846C296.107 520.197 293.637 519.354 290.861 518.712C288.086 518.069 285.235 517.412 282.125 516.768C275.381 515.557 268.56 514.813 261.713 514.544C254.86 514.379 248.004 514.715 241.2 515.551C238.073 516.057 235.087 516.426 232.358 517.098C231 517.405 229.659 517.656 228.396 517.978L224.736 518.974C222.411 519.569 220.409 520.335 218.603 520.943L216.123 521.788L214.07 522.649C212.821 523.214 211.53 523.681 210.208 524.044Z" fill="#263238" fill-opacity="1.000000" fill-rule="nonzero"/>
		<path id="Vector" d="M217.434 549.238C219.352 547.464 221.412 545.85 223.594 544.412C227.495 541.531 232.94 537.648 238.999 533.402L251.195 524.997L250.995 525.452C250.678 522.019 250.464 519.174 250.348 517.195C250.204 516.15 250.196 515.092 250.323 514.045C250.666 515.041 250.879 516.077 250.957 517.129C251.257 519.098 251.638 521.935 252.065 525.344L252.078 525.621L251.827 525.801L239.751 534.366C233.692 538.613 228.147 542.353 224.109 545.091C221.996 546.646 219.764 548.033 217.434 549.238Z" fill="#263238" fill-opacity="1.000000" fill-rule="nonzero"/>
		<path id="Vector" d="M245.584 660.738C246.174 659.835 246.86 659 247.631 658.246C248.47 657.295 249.36 656.391 250.298 655.538C251.399 654.538 252.599 653.311 254.101 652.181C255.683 650.854 257.337 649.614 259.055 648.47C260.845 647.158 262.956 645.979 265.119 644.705C269.958 642.062 275.034 639.875 280.281 638.176C285.585 636.551 291.029 635.421 296.543 634.8C299.114 634.674 301.527 634.352 303.812 634.443C306.097 634.534 308.208 634.468 310.142 634.596C312.077 634.723 313.868 634.95 315.323 635.139C316.625 635.275 317.917 635.49 319.193 635.783C320.292 635.959 321.374 636.234 322.423 636.607C322.434 636.848 317.728 635.78 310.091 635.451C308.234 635.375 306.08 635.314 303.842 635.442C301.605 635.571 299.2 635.671 296.693 635.979C291.271 636.651 285.917 637.795 280.693 639.397C275.527 641.052 270.518 643.159 265.724 645.695C263.559 646.933 261.482 648.054 259.671 649.311C257.86 650.568 256.174 651.727 254.691 652.855C248.87 657.406 245.797 660.913 245.584 660.738Z" fill="#263238" fill-opacity="1.000000" fill-rule="nonzero"/>
		<path id="Vector" d="M251.033 673.153C251.632 672.317 252.308 671.539 253.052 670.829C253.739 670.109 254.586 669.233 255.653 668.291C256.719 667.349 257.868 666.217 259.318 665.145C262.619 662.486 266.121 660.089 269.794 657.974C274.345 655.381 279.105 653.175 284.025 651.378C289.01 649.625 294.127 648.276 299.328 647.345C303.599 646.625 307.917 646.221 312.248 646.136C314.097 646.045 315.753 646.149 317.219 646.188C318.464 646.205 319.706 646.293 320.941 646.451C321.999 646.502 323.049 646.655 324.078 646.909C324.09 647.149 319.541 646.649 312.252 646.971C307.99 647.186 303.747 647.679 299.549 648.447C289.32 650.298 279.468 653.833 270.396 658.908C266.746 660.957 263.241 663.254 259.905 665.782C254.24 670.103 251.227 673.329 251.033 673.153Z" fill="#263238" fill-opacity="1.000000" fill-rule="nonzero"/>
		<path id="Vector" d="M487.357 589.164C486.168 588.999 484.995 588.734 483.851 588.372C482.742 588.074 481.39 587.733 479.798 587.403C478.206 587.073 476.402 586.587 474.366 586.279C469.632 585.394 464.854 584.768 460.052 584.404C448.262 583.53 436.407 584.281 424.822 586.635C420.109 587.596 415.452 588.815 410.872 590.286C408.898 590.865 407.225 591.541 405.639 592.082C404.052 592.624 402.798 593.131 401.744 593.571C400.658 594.071 399.53 594.474 398.373 594.775C399.378 594.138 400.437 593.59 401.537 593.137C402.57 592.641 403.838 592.041 405.368 591.466C406.897 590.89 408.602 590.12 410.573 589.485C415.157 587.885 419.836 586.571 424.583 585.553C430.419 584.332 436.333 583.516 442.281 583.107C448.24 582.767 454.215 582.833 460.165 583.306C465.005 583.712 469.815 584.424 474.565 585.436C476.605 585.817 478.318 586.345 479.988 586.745C481.658 587.145 482.921 587.565 483.996 587.938C485.149 588.25 486.274 588.66 487.357 589.164Z" fill="#263238" fill-opacity="1.000000" fill-rule="nonzero"/>
		<path id="Vector" d="M485.498 601.529C484.302 601.475 483.113 601.303 481.95 601.018C479.704 600.591 476.341 600.069 472.352 599.635C468.362 599.2 463.388 598.722 457.963 598.487C452.07 598.338 446.173 598.503 440.298 598.983C434.433 599.51 428.6 600.353 422.826 601.51C417.523 602.623 412.799 603.856 408.872 605.069C404.946 606.282 401.823 607.27 399.752 608.132C398.66 608.613 397.523 608.985 396.358 609.243C397.382 608.646 398.455 608.134 399.565 607.714C402.539 606.413 405.577 605.261 408.666 604.264C413.252 602.729 417.918 601.448 422.643 600.425C428.463 599.182 434.349 598.273 440.273 597.705C446.199 597.221 452.149 597.089 458.09 597.312C462.93 597.512 467.755 597.968 472.546 598.68C476.637 599.295 479.913 599.949 482.13 600.527C483.279 600.766 484.406 601.101 485.498 601.529Z" fill="#263238" fill-opacity="1.000000" fill-rule="nonzero"/>
		<path id="Vector" d="M490.28 520.677C474.937 510.306 453.236 509.387 435.756 516.29C418.277 523.192 404.431 536.518 394.282 551.479L390.414 542.175C400.563 527.214 416.032 512.975 433.513 506.091C450.993 499.206 473.468 500.013 488.735 510.351C489.59 513.733 490.108 517.192 490.28 520.677Z" fill="#20C7ED" fill-opacity="1.000000" fill-rule="nonzero"/>
		<g opacity="0.300000">
			<path id="Vector" d="M214.089 522.275C215.464 524.971 221.186 526.34 224.958 525.357C229.735 524.104 236.046 519.696 239.844 518.879C261.865 514.22 277.081 526.173 303.821 525.491C304.339 525.466 304.908 525.716 305.357 525.415C305.492 525.317 305.606 525.193 305.693 525.05C305.779 524.906 305.835 524.747 305.858 524.581C305.881 524.416 305.87 524.247 305.827 524.086C305.783 523.924 305.707 523.773 305.603 523.642C305.157 523.108 304.573 522.707 303.915 522.482C276.254 510.083 243.122 511.265 214.087 522.239L214.089 522.275Z" fill="#000000" fill-opacity="1.000000" fill-rule="nonzero"/>
		</g>
		<g opacity="0.300000">
			<path id="Vector" d="M385.785 526.066C398.806 515.971 406.779 500.486 421.605 492.787C434.259 486.177 450.396 486.293 462.029 478.139C430.512 480.854 400.81 498.629 384.953 524.234L385.785 526.066Z" fill="#000000" fill-opacity="1.000000" fill-rule="nonzero"/>
		</g>
		<path id="Vector" d="M405.175 718.578C427.472 728.608 454.675 726.012 475.063 713.015C475.687 712.563 476.21 711.988 476.6 711.324C476.99 710.661 477.237 709.923 477.327 709.159C477.417 708.395 477.347 707.619 477.121 706.884C476.896 706.147 476.52 705.467 476.017 704.884C474.915 703.713 473.424 702.983 471.824 702.83C470.224 702.677 468.622 703.11 467.317 704.05C450.382 714.856 427.832 715.927 409.613 707.772C408.099 707.233 406.438 707.278 404.956 707.899C403.474 708.521 402.277 709.675 401.601 711.133C400.309 714.274 402.16 717.225 405.175 718.578Z" fill="#263238" fill-opacity="1.000000" fill-rule="nonzero"/>
		<path id="Vector" d="M287.427 762.962C306.489 756.687 325.831 751.219 345.454 746.56C347.006 746.332 348.407 745.509 349.361 744.264C350.315 743.019 350.745 741.45 350.559 739.893C350.21 738.343 349.275 736.987 347.95 736.109C346.626 735.23 345.013 734.898 343.449 735.181C322.824 740.087 302.464 745.839 282.368 752.438C281.657 752.719 281.01 753.141 280.466 753.677C279.922 754.213 279.49 754.854 279.198 755.56C278.906 756.266 278.759 757.023 278.765 757.787C278.771 758.552 278.931 759.307 279.235 760.008C280.005 761.413 281.267 762.483 282.778 763.015C284.289 763.547 285.943 763.501 287.423 762.888L287.427 762.962Z" fill="#263238" fill-opacity="1.000000" fill-rule="nonzero"/>
		<path id="Vector" d="M481.787 613.189C481.787 613.189 495.353 627.783 494.408 634.598C493.463 641.412 480.55 690.347 480.55 690.347L471.195 696.554L481.787 613.189Z" fill="#E0E0E0" fill-opacity="1.000000" fill-rule="nonzero"/>
		<path id="Vector" d="M471.078 695.668C470.726 695.686 473.586 675.761 477.503 651.316C481.421 626.871 484.846 607.123 485.197 607.106C485.548 607.089 482.669 626.995 478.771 651.458C474.873 675.92 471.395 695.708 471.078 695.668Z" fill="#263238" fill-opacity="1.000000" fill-rule="nonzero"/>
		<path id="Vector" d="M251.188 697.084C250.589 695.682 250.466 694.121 250.839 692.643C251.211 691.164 252.06 689.849 253.252 688.898C260.073 683.187 273.471 673.202 277.276 676.297C281.08 679.393 291.299 712.303 295.214 725.571C295.656 727.187 295.512 728.906 294.805 730.425C294.099 731.942 292.877 733.161 291.357 733.863L277.837 740.608C277.061 741.009 276.213 741.25 275.342 741.317C274.471 741.385 273.596 741.278 272.767 741.003C271.938 740.728 271.173 740.289 270.516 739.714C269.858 739.139 269.323 738.438 268.94 737.652L251.188 697.084Z" fill="#E0E0E0" fill-opacity="1.000000" fill-rule="nonzero"/>
		<path id="Vector" d="M251.188 697.083C251.505 697.554 251.772 698.057 251.985 698.582C252.522 699.706 253.206 701.174 254.056 703.005C255.846 706.978 258.362 712.528 261.422 719.331C262.964 722.797 264.652 726.589 266.445 730.636C267.361 732.667 268.28 734.772 269.239 736.933C269.636 738.021 270.35 738.968 271.288 739.648C272.227 740.329 273.348 740.714 274.507 740.753C275.745 740.805 276.972 740.5 278.042 739.875L281.661 738.047L289.188 734.266C290.482 733.764 291.697 733.079 292.797 732.234C293.759 731.353 294.433 730.202 294.73 728.932C295.01 727.643 294.905 726.301 294.429 725.071C294.029 723.719 293.61 722.349 293.209 720.978C289.889 710.016 286.594 699.554 283.242 690.188C281.792 685.738 279.885 681.451 277.552 677.396C276.499 675.593 273.793 676.355 271.972 677.039C270.092 677.814 268.277 678.74 266.546 679.809C263.177 681.828 260.314 683.934 257.81 685.8L254.399 688.451C253.427 689.13 252.588 689.981 251.926 690.965C251.089 692.32 250.736 693.919 250.925 695.501C251.089 696.568 251.338 697.112 251.284 697.134C250.985 696.641 250.777 696.099 250.667 695.532C250.351 693.884 250.643 692.177 251.488 690.727C252.141 689.675 252.99 688.759 253.989 688.026C255.003 687.161 256.126 686.253 257.358 685.284C260.135 683.062 263.036 681 266.048 679.109C267.828 677.974 269.703 676.994 271.652 676.183C272.73 675.719 273.871 675.419 275.038 675.293C275.672 675.249 276.308 675.338 276.905 675.554C277.5 675.827 278.008 676.258 278.376 676.798C280.815 680.917 282.813 685.281 284.336 689.818C287.782 699.198 291.094 709.642 294.416 720.641C294.818 722.03 295.236 723.381 295.637 724.752C296.134 726.174 296.21 727.709 295.854 729.173C295.499 730.652 294.697 731.986 293.557 732.994C292.993 733.529 292.353 733.979 291.658 734.33L289.78 735.367L282.251 739.111L278.631 740.921C277.36 741.639 275.912 741.986 274.453 741.924C273.084 741.865 271.762 741.403 270.654 740.597C269.546 739.791 268.7 738.675 268.223 737.39L265.462 730.999C263.704 726.92 262.078 723.131 260.583 719.632C257.67 712.784 255.299 707.172 253.582 703.158L251.748 698.668C251.514 698.158 251.327 697.627 251.188 697.083Z" fill="#263238" fill-opacity="1.000000" fill-rule="nonzero"/>
		<path id="Vector" d="M486.656 521.634C485.313 521.529 483.979 521.341 482.66 521.069C479.042 520.503 475.397 520.132 471.74 519.955C459.687 519.369 447.631 521.049 436.198 524.908C421.555 529.987 408.435 538.688 398.057 550.199C397.235 551.215 396.34 552.17 395.379 553.056C395.379 553.056 395.53 552.733 395.912 552.195C396.293 551.657 396.848 550.87 397.653 549.903C399.917 547.141 402.373 544.542 405.003 542.126C413.9 534.016 424.369 527.822 435.76 523.929C447.351 519.998 459.608 518.413 471.817 519.266C475.492 519.515 479.147 520.011 482.755 520.75C484.047 521.001 485.007 521.288 485.663 521.441C486.001 521.462 486.335 521.526 486.656 521.634Z" fill="#263238" fill-opacity="1.000000" fill-rule="nonzero"/>
		<path id="Vector" d="M490.164 534.552C488.869 534.559 487.575 534.467 486.294 534.278C485.063 534.135 483.535 533.987 481.769 533.889C480.003 533.789 478.045 533.57 475.8 533.551C470.6 533.346 465.392 533.41 460.198 533.742C447.496 534.546 434.948 536.962 422.856 540.934C417.962 542.56 413.153 544.43 408.446 546.536C406.411 547.378 404.658 548.317 403.008 549.065C401.357 549.814 400.093 550.507 399.011 551.116C397.91 551.768 396.76 552.333 395.571 552.805C396.574 552.047 397.639 551.375 398.754 550.795C399.798 550.15 401.095 549.382 402.669 548.581C404.243 547.781 405.954 546.77 407.969 545.874C412.666 543.632 417.492 541.667 422.42 539.991C434.575 535.841 447.247 533.396 460.074 532.729C465.313 532.44 470.564 532.461 475.8 532.791C478.029 532.866 480.045 533.139 481.796 533.312C483.548 533.485 485.078 533.688 486.312 533.906C487.612 534.01 488.901 534.226 490.164 534.552Z" fill="#263238" fill-opacity="1.000000" fill-rule="nonzero"/>
		<path id="Vector" d="M228.069 601.189C228.982 600.486 229.957 599.867 230.982 599.34C232.144 598.618 233.351 597.971 234.595 597.401C236.025 596.701 237.615 595.844 239.488 595.103C243.828 593.239 248.302 591.705 252.872 590.515C264.161 587.583 275.878 586.663 287.486 587.796C292.196 588.262 296.865 589.073 301.456 590.225C303.332 590.671 305.215 591.264 306.666 591.73C307.948 592.109 309.209 592.562 310.44 593.084C311.539 593.451 312.604 593.914 313.623 594.467C313.523 594.694 308.945 592.843 301.163 591.055C296.595 590.025 291.963 589.305 287.299 588.899C275.838 587.907 264.292 588.818 253.129 591.597C248.595 592.745 244.144 594.203 239.808 595.959C232.425 598.898 228.212 601.46 228.069 601.189Z" fill="#263238" fill-opacity="1.000000" fill-rule="nonzero"/>
		<path id="Vector" d="M314.544 597.74C313.448 597.938 312.334 598.03 311.22 598.015L302.157 598.46C294.517 598.835 283.975 599.742 272.407 601.293C260.839 602.843 250.461 604.836 242.993 606.445L234.152 608.399C233.081 608.693 231.987 608.896 230.881 609.005C231.892 608.538 232.95 608.182 234.037 607.941C236.083 607.322 239.066 606.526 242.788 605.657C262.246 600.978 282.133 598.306 302.137 597.682C305.966 597.494 309.065 597.546 311.218 597.589C312.329 597.54 313.442 597.591 314.544 597.74Z" fill="#263238" fill-opacity="1.000000" fill-rule="nonzero"/>
		<path id="Vector" d="M217.924 366.988C217.924 366.988 269.891 377.842 326.01 372.807C382.129 367.771 403.622 355.757 403.622 355.757L407.88 374.498C407.88 374.498 340.854 404.377 216.489 385.341C216.524 385.302 214.795 371.239 217.924 366.988Z" fill="#20C7ED" fill-opacity="1.000000" fill-rule="nonzero"/>
		<path id="Vector" d="M239.789 370.105L239.428 390.333L252.537 391.47L253.57 369.076L239.789 370.105Z" fill="#E0E0E0" fill-opacity="1.000000" fill-rule="nonzero"/>
		<path id="Vector" d="M370.925 364.65L376.939 384.046L389.869 381.539L383.8 359.884L370.925 364.65Z" fill="#E0E0E0" fill-opacity="1.000000" fill-rule="nonzero"/>
		<path id="Vector" d="M289.391 393.202L271.744 392.177L273.139 373.382L290.785 374.406L289.391 393.202Z" fill="#263238" fill-opacity="1.000000" fill-rule="nonzero"/>
		<g opacity="0.300000">
			<path id="Vector" d="M278.813 345.069C261.25 355.926 236.733 367.531 219.266 378.476L218.002 390.497C232.957 384.664 251.237 377.072 263.998 367.342C267.572 364.608 274.474 359.411 276.993 355.579C279.512 351.747 280.466 349.271 278.813 345.069Z" fill="#000000" fill-opacity="1.000000" fill-rule="nonzero"/>
		</g>
		<path id="Vector" d="M178.756 328.306C165.758 335.47 151.669 346.471 154.235 363.236C156.561 378.512 171.951 384.19 185.661 384.722C220.548 386.068 254.119 367.028 281.904 347.976C290.873 341.824 281.664 327.592 272.641 333.782C251.977 347.962 229.705 361.107 204.804 366.02C196.283 367.698 181.904 370.519 174.03 364.972C162.621 356.929 183.369 345.972 189.141 342.703L188.03 324.587C184.844 325.577 181.743 326.821 178.756 328.306Z" fill="#E0E0E0" fill-opacity="1.000000" fill-rule="nonzero"/>
		<path id="Vector" d="M178.756 328.307C179.48 327.858 180.235 327.462 181.015 327.12C183.286 326.097 185.613 325.202 187.985 324.442L188.17 324.433L188.18 324.637C188.402 329.168 188.906 335.263 189.403 342.747L189.41 342.896L189.262 342.902C185.231 345.04 181.371 347.485 177.718 350.219C175.674 351.742 173.886 353.582 172.423 355.67C171.661 356.747 171.193 358.003 171.063 359.315C171.017 360.659 171.501 361.967 172.41 362.957C174.437 365.062 177.065 366.487 179.934 367.038C182.99 367.694 186.12 367.946 189.242 367.786C195.967 367.296 202.639 366.236 209.185 364.619C223.885 360.808 237.958 354.896 250.969 347.067C257.946 343.016 264.9 338.503 271.879 333.747C272.322 333.426 272.792 333.142 273.284 332.899C273.751 332.589 274.266 332.357 274.807 332.213C275.875 331.83 277.017 331.698 278.144 331.826C279.279 331.989 280.37 332.376 281.354 332.965C282.338 333.553 283.195 334.331 283.875 335.254C285.308 337.041 286.073 339.271 286.039 341.562C286.012 342.722 285.74 343.862 285.242 344.908C284.744 345.955 284.03 346.886 283.148 347.638C272.568 355.217 261.48 362.062 249.963 368.124C244.356 370.995 238.778 373.698 233.139 375.903C230.342 377.098 227.495 378.034 224.708 379.043C221.921 380.051 219.087 380.876 216.284 381.552C205.67 384.449 194.657 385.616 183.672 385.007C178.678 384.681 173.772 383.53 169.153 381.604C164.833 379.868 161.039 377.038 158.145 373.393C155.647 369.974 154.163 365.921 153.862 361.698C153.513 357.953 154.032 354.179 155.379 350.666C157.706 345.139 161.414 340.303 166.148 336.621C169.043 334.224 172.138 332.081 175.401 330.215C176.517 329.548 177.385 329.098 177.963 328.772L178.849 328.321C178.849 328.321 178.581 328.52 178.004 328.863C177.428 329.206 176.598 329.674 175.501 330.376C172.294 332.308 169.245 334.491 166.384 336.905C161.782 340.602 158.191 345.402 155.944 350.861C154.693 354.309 154.24 357.995 154.62 361.643C154.95 365.743 156.428 369.667 158.884 372.967C161.725 376.497 165.429 379.233 169.639 380.912C174.19 382.782 179.017 383.893 183.929 384.196C194.826 384.752 205.741 383.553 216.258 380.645C238.531 374.711 261.09 362.107 282.702 346.862C283.486 346.203 284.122 345.385 284.565 344.462C285.009 343.539 285.251 342.531 285.276 341.508C285.307 339.431 284.604 337.41 283.29 335.802C282.053 334.182 280.229 333.113 278.212 332.824C277.216 332.712 276.208 332.825 275.261 333.154C274.779 333.293 274.321 333.503 273.901 333.777C273.443 334.012 273.004 334.281 272.588 334.584C265.59 339.341 258.618 343.873 251.604 347.907C238.511 355.775 224.342 361.693 209.542 365.473C202.935 367.097 196.199 368.141 189.411 368.594C186.231 368.749 183.044 368.481 179.934 367.798C176.924 367.201 174.174 365.684 172.063 363.456C171.063 362.315 170.533 360.837 170.581 359.32C170.733 357.896 171.24 356.532 172.055 355.354C173.594 353.212 175.459 351.324 177.584 349.762C181.281 347.038 185.185 344.608 189.261 342.494L189.142 342.723C188.774 335.231 188.382 329.132 188.123 324.603L188.315 324.741C185.193 325.729 182.845 326.623 181.319 327.272C180.538 327.607 179.977 327.876 179.504 328.066C179.27 328.188 179.017 328.27 178.756 328.307Z" fill="#263238" fill-opacity="1.000000" fill-rule="nonzero"/>
	</g>
</svg>
