<svg width="86" height="142" viewBox="0 0 86 142" fill="none" xmlns="http://www.w3.org/2000/svg">
<path d="M54.1741 53.2144C54.4465 53.6161 76.2761 54.011 77.5662 53.7693C77.6282 53.7578 77.6887 53.7395 77.7466 53.7148C79.3703 53.1497 85.2149 48.8676 85.8072 48.3876C87.2743 47.1996 79.9933 15.3963 76.6165 11.6009C75.7655 10.6478 59.6341 10.2121 56.5876 11.2401C55.2702 11.686 51.9888 15.6959 51.8492 16.2167C51.6926 16.986 53.9018 52.8162 54.1741 53.2144Z" fill="#BD60FB"/>
<path opacity="0.1" d="M54.1741 53.2144C54.4465 53.6161 76.2761 54.011 77.5662 53.7693C77.6282 53.7578 77.6887 53.7395 77.7466 53.7148C79.3703 53.1497 85.2149 48.8676 85.8072 48.3876C87.2743 47.1996 79.9933 15.3963 76.6165 11.6009C75.7655 10.6478 59.6341 10.2121 56.5876 11.2401C55.2702 11.686 51.9888 15.6959 51.8492 16.2167C51.6926 16.986 53.9018 52.8162 54.1741 53.2144Z" fill="black"/>
<path opacity="0.1" d="M54.1742 53.2147C54.4465 53.6164 76.2761 54.0112 77.5662 53.7696C77.6282 53.7581 77.6887 53.7398 77.7466 53.7151C78.3491 48.1939 71.7761 16.5574 71.4595 16.3361C71.1429 16.1148 55.6106 16.2544 51.8526 16.2136C51.6927 16.9863 53.9018 52.8164 54.1742 53.2147Z" fill="black"/>
<path d="M73.0934 23.634C73.1138 23.7463 73.1376 23.8518 73.158 23.9744C75.6123 23.2085 78.121 22.514 80.5106 21.5609L80.4698 21.418C78.053 22.2383 75.5613 22.8987 73.0934 23.634Z" fill="#BD60FB"/>
<path d="M73.3317 24.7574C73.3555 24.8663 73.3793 24.9786 73.3998 25.0978C75.8847 24.3251 78.424 23.6205 80.8442 22.6571L80.8034 22.5176C78.3423 23.3413 75.8166 24.0153 73.3317 24.7574Z" fill="#BD60FB"/>
<path d="M73.5597 25.8838C73.5802 25.9928 73.604 26.1017 73.6278 26.2242H73.6959C76.1842 25.4481 78.7304 24.7435 81.154 23.7836C81.154 23.7359 81.1302 23.6883 81.1166 23.6406C78.6419 24.478 76.1025 25.152 73.604 25.9043C73.5901 25.8957 73.5752 25.8889 73.5597 25.8838Z" fill="#BD60FB"/>
<path d="M77.0012 45.165C77.0182 45.2773 77.0318 45.3862 77.0488 45.5054C77.4096 45.359 77.7637 45.2058 78.1211 45.0527C80.5039 43.8681 82.9581 42.7482 85.2388 41.3798C85.2388 41.3321 85.2218 41.2811 85.2115 41.2334C82.8458 42.4895 80.3881 43.5855 77.9849 44.7463C77.6649 44.879 77.3348 45.0254 77.0012 45.165Z" fill="#BD60FB"/>
<path d="M77.1782 46.3349C77.1782 46.4438 77.2088 46.5528 77.2224 46.6549C77.6956 46.4711 78.1585 46.277 78.6248 46.0728C80.9089 44.9393 83.2577 43.8636 85.46 42.5633C85.46 42.5088 85.46 42.4544 85.4328 42.4033C83.1555 43.5981 80.7898 44.6499 78.4819 45.7664C78.0462 45.9639 77.6105 46.1545 77.1782 46.3349Z" fill="#BD60FB"/>
<path d="M77.3245 47.5064L77.3654 47.8468C77.9441 47.6154 78.5227 47.3805 79.0946 47.1286C81.2799 46.0461 83.5198 45.0113 85.637 43.7893C85.637 43.7314 85.637 43.6702 85.6098 43.6123C83.4244 44.7424 81.1642 45.7534 78.9516 46.8223C78.4274 47.0469 77.8828 47.2784 77.3245 47.5064Z" fill="#BD60FB"/>
<path d="M71.6705 34.1526C71.7692 34.404 71.9393 34.6209 72.1599 34.7767C72.3806 34.9324 72.6419 35.0201 72.9118 35.0289C73.1817 35.0377 73.4483 34.9673 73.6786 34.8263C73.9089 34.6853 74.0928 34.4799 74.2077 34.2355C74.3226 33.9911 74.3633 33.7185 74.325 33.4512C74.2866 33.1839 74.1707 32.9337 73.9917 32.7315C73.8127 32.5293 73.5784 32.384 73.3177 32.3135C73.057 32.243 72.7814 32.2505 72.5249 32.3349C72.3494 32.3981 72.1881 32.4952 72.0501 32.6208C71.9122 32.7463 71.8003 32.8979 71.721 33.0667C71.6416 33.2355 71.5963 33.4183 71.5877 33.6046C71.579 33.791 71.6072 33.9772 71.6705 34.1526Z" fill="#BD60FB"/>
<path opacity="0.1" d="M72.0722 34.003C72.14 34.1749 72.2566 34.3233 72.4076 34.4298C72.5587 34.5363 72.7376 34.5962 72.9224 34.6021C73.1071 34.608 73.2895 34.5597 73.4471 34.4632C73.6047 34.3666 73.7306 34.226 73.8092 34.0588C73.8878 33.8915 73.9157 33.7048 73.8895 33.5219C73.8632 33.3389 73.784 33.1677 73.6615 33.0293C73.5391 32.8908 73.3787 32.7913 73.2004 32.7429C73.022 32.6946 72.8333 32.6995 72.6577 32.7571C72.4149 32.8447 72.2168 33.0252 72.107 33.2588C71.9972 33.4925 71.9847 33.7601 72.0722 34.003Z" fill="black"/>
<path d="M72.5658 39.3127C72.664 39.5645 72.8338 39.7819 73.0542 39.9382C73.2747 40.0945 73.5361 40.1827 73.8062 40.1919C74.0763 40.2012 74.3431 40.131 74.5737 39.9902C74.8044 39.8494 74.9886 39.644 75.1038 39.3995C75.2189 39.155 75.2598 38.8822 75.2215 38.6147C75.1832 38.3472 75.0673 38.0968 74.8881 37.8945C74.709 37.6922 74.4744 37.5468 74.2135 37.4764C73.9526 37.406 73.6768 37.4137 73.4202 37.4984C73.0666 37.626 72.778 37.8887 72.6178 38.2288C72.4576 38.569 72.4389 38.9588 72.5658 39.3127Z" fill="#BD60FB"/>
<path opacity="0.1" d="M72.9776 39.1768C73.0454 39.3488 73.1619 39.4972 73.313 39.6036C73.4641 39.7101 73.643 39.77 73.8278 39.7759C74.0125 39.7818 74.1949 39.7335 74.3525 39.637C74.5101 39.5404 74.636 39.3998 74.7146 39.2326C74.7932 39.0653 74.8211 38.8787 74.7949 38.6957C74.7686 38.5128 74.6894 38.3415 74.5669 38.2031C74.4444 38.0647 74.2841 37.9651 74.1058 37.9168C73.9274 37.8684 73.7387 37.8733 73.5631 37.931C73.3203 38.0186 73.1222 38.199 73.0124 38.4326C72.9026 38.6663 72.8901 38.934 72.9776 39.1768Z" fill="black"/>
<path d="M55.0728 24.179C51.2501 32.0728 48.0163 40.1776 43.4686 41.5392C39.1456 42.8157 28.4197 32.2838 26.5441 28.7335C25.8973 27.5115 34.7851 21.8234 35.9765 22.7017C38.2231 24.356 42.3487 29.6424 43.0261 29.4824C43.7035 29.3224 47.7338 24.3764 52.8432 19.8525C55.9408 17.1021 57.7245 18.7122 55.0728 24.179Z" fill="#D3766A"/>
<path d="M28.4401 31.3513C27.5551 30.5037 22.7589 24.7714 21.9726 23.3622C21.1863 21.9529 19.2767 17.7422 20.2978 17.0444C21.319 16.3466 21.976 17.5312 21.976 17.5312C21.976 17.5312 21.445 15.625 22.5343 15.0123C23.6235 14.3995 24.5937 16.2853 24.5937 16.2853C24.5937 16.2853 24.1886 14.2872 25.3187 13.7528C26.4488 13.2184 27.1058 15.2778 27.1058 15.2778C27.1058 15.2778 26.6531 13.4668 27.7696 13.4226C29.1107 13.3647 29.5703 16.7959 30.537 18.2869C30.7583 18.6273 35.4796 24.8293 35.4796 24.8293L28.4401 31.3513Z" fill="#37474F"/>
<path d="M27.0615 15.09C27.4019 17.6123 27.9908 18.6539 29.6009 20.5738C29.6349 20.6112 29.5839 20.6691 29.5498 20.6316C27.8002 18.8956 26.8743 17.6906 26.939 15.1002C26.9424 14.9844 27.0445 14.981 27.0615 15.09Z" fill="#263238"/>
<path d="M24.5834 16.0846C25.1689 18.6717 25.7952 19.829 27.3338 21.9463C27.3543 21.9769 27.3066 22.0144 27.2828 21.9871C25.5978 20.0196 24.7026 18.7976 24.4575 16.1323C24.4439 16.0132 24.5562 15.9655 24.5834 16.0846Z" fill="#263238"/>
<path d="M22.0713 17.6363C22.8201 20.1042 23.4533 21.3807 25.2131 23.2596C25.2198 23.2687 25.2231 23.2797 25.2224 23.2909C25.2218 23.3021 25.2172 23.3128 25.2094 23.3209C25.2017 23.329 25.1913 23.3342 25.1802 23.3354C25.169 23.3367 25.1578 23.3339 25.1485 23.3277C23.1673 21.5883 22.364 19.9986 21.9998 17.6669C21.976 17.5103 22.0338 17.4729 22.0713 17.6363Z" fill="#263238"/>
<path d="M37.1066 25.4959C37.1066 25.4959 36.9569 22.3097 36.5824 20.9243C36.208 19.5389 32.9266 14.8857 31.8713 15.5427C30.5097 16.3868 31.8951 19.447 32.7632 20.8562C32.7632 20.8562 29.6417 22.8067 30.1489 25.2167C30.6561 27.6267 37.1066 25.4959 37.1066 25.4959Z" fill="#37474F"/>
<path d="M31.565 15.8969C30.8842 17.5546 32.1505 19.3315 32.8891 20.7612C32.9009 20.7819 32.9076 20.8051 32.9086 20.8289C32.9096 20.8527 32.905 20.8764 32.895 20.8981C32.885 20.9197 32.87 20.9386 32.8512 20.9533C32.8324 20.968 32.8104 20.978 32.787 20.9824C31.5343 21.8879 30.0264 23.5286 30.0638 25.1625C30.0638 25.1724 30.0599 25.182 30.0529 25.189C30.0458 25.196 30.0363 25.2 30.0264 25.2C30.0165 25.2 30.0069 25.196 29.9999 25.189C29.9929 25.182 29.9889 25.1724 29.9889 25.1625C29.72 23.4163 31.068 21.6802 32.5045 20.7782C31.7216 19.3213 30.5404 17.4832 31.5582 15.8799C31.565 15.8799 31.565 15.8833 31.565 15.8969Z" fill="#263238"/>
<path d="M36.9501 23.3421L27.8819 31.0623C28.1528 32.2518 28.7519 33.3415 29.6111 34.2075C33.1308 37.6728 40.3098 42.8366 43.3087 41.9822C47.5194 40.784 53.5444 29.4726 55.8829 22.0962C57.4998 16.9903 54.7188 17.8957 51.8492 20.4623C48.9797 23.0289 43.0976 28.9927 42.7572 28.911C42.553 28.8633 39.5507 25.3606 38.8971 24.6628C38.3785 24.0557 37.7059 23.5995 36.9501 23.3421Z" fill="#BD60FB"/>
<g opacity="0.4">
<path d="M36.9501 23.3411L27.8819 31.0613C28.1528 32.2508 28.7519 33.3405 29.6111 34.2066C33.1308 37.6718 40.3098 42.8356 43.3087 41.9812C47.5194 40.783 53.5444 29.4716 55.8829 22.0952C57.4998 16.9893 54.7188 17.8947 51.8492 20.4613C48.9797 23.0279 43.0976 28.9917 42.7572 28.91C42.553 28.8623 39.5507 25.3596 38.8971 24.6618C38.3785 24.0547 37.7059 23.5985 36.9501 23.3411Z" fill="white"/>
</g>
<path opacity="0.1" d="M30.4519 33.0737C31.7896 31.9266 37.0896 27.0351 38.1653 25.9016C38.2368 25.8199 38.2061 25.7552 38.1176 25.8267C34.0329 29.166 31.6501 31.8279 30.4076 33.0193C30.377 33.0499 30.4178 33.1044 30.4519 33.0737Z" fill="black"/>
<path opacity="0.1" d="M40.7319 41.7264C41.7531 42.0668 42.6347 42.1724 43.3121 41.9817C47.5194 40.7869 53.5478 29.4721 55.883 22.0957C55.9374 21.9324 55.9851 21.7553 56.0259 21.6192C56.0668 21.483 56.1212 21.2788 56.1587 21.1086L56.1893 20.9724C56.4718 19.7096 56.3799 18.9675 56.0429 18.6271C55.952 18.5378 55.8412 18.4713 55.7196 18.4331C55.5586 18.3907 55.3907 18.3815 55.226 18.4058C55.0766 18.4622 54.9329 18.5329 54.7971 18.6169C50.9915 24.3015 44.1018 36.0656 40.7319 41.7264Z" fill="#000102"/>
<path d="M42.3725 28.4814L43.1657 28.4951L43.4958 41.3927L41.2492 41.3587L42.3725 28.4814Z" fill="#BD60FB"/>
<path d="M44.8813 36.9775C46.5458 37.3996 46.9951 40.5993 45.7459 41.2835C44.0847 42.1924 39.5472 42.4511 38.3797 41.4878C37.5866 40.8342 37.4232 37.9306 38.5056 37.403C39.1524 37.083 40.0374 37.1681 41.9096 37.1103C42.6585 37.0864 43.7716 36.6984 44.8813 36.9775Z" fill="#BD60FB"/>
<path opacity="0.7" d="M44.8813 36.9775C46.5458 37.3996 46.9951 40.5993 45.7459 41.2835C44.0847 42.1924 39.5472 42.4511 38.3797 41.4878C37.5866 40.8342 37.4232 37.9306 38.5056 37.403C39.1524 37.083 40.0374 37.1681 41.9096 37.1103C42.6585 37.0864 43.7716 36.6984 44.8813 36.9775Z" fill="white"/>
<g opacity="0.7">
<path d="M38.4036 37.8672C38.1522 38.4405 38.0515 39.0685 38.1111 39.6917C38.1706 40.3149 38.3885 40.9124 38.744 41.4277C38.4773 40.2606 38.3629 39.0638 38.4036 37.8672Z" fill="#BD60FB"/>
<path d="M39.115 37.5771C38.8877 38.2363 38.8032 38.9362 38.8672 39.6305C38.9312 40.3248 39.1421 40.9975 39.486 41.604C39.2481 40.2747 39.124 38.9276 39.115 37.5771Z" fill="#BD60FB"/>
<path d="M39.9217 37.5166C39.6891 38.2122 39.6041 38.9486 39.6721 39.6789C39.7401 40.4092 39.9596 41.1173 40.3166 41.7579C40.0504 40.3599 39.9182 38.9397 39.9217 37.5166Z" fill="#BD60FB"/>
<path d="M40.8987 37.4414C40.4494 38.8506 40.4834 40.505 41.2561 41.8121C40.9905 40.3709 40.8708 38.9066 40.8987 37.4414Z" fill="#BD60FB"/>
<path d="M45.7663 40.9616C46.0221 40.4177 46.1279 39.8154 46.0728 39.217C46.0178 38.6185 45.8039 38.0457 45.4532 37.5576C45.7128 38.6726 45.8182 39.8179 45.7663 40.9616Z" fill="#BD60FB"/>
<path d="M45.0685 41.3941C45.2965 40.7351 45.3813 40.035 45.3173 39.3406C45.2533 38.6462 45.042 37.9735 44.6975 37.3672C44.9371 38.6963 45.0613 40.0436 45.0685 41.3941Z" fill="#BD60FB"/>
<path d="M44.2618 41.4547C44.4946 40.7599 44.58 40.0242 44.5126 39.2945C44.4452 38.5648 44.2265 37.8572 43.8703 37.2168C44.1337 38.6151 44.2648 40.0352 44.2618 41.4581V41.4547Z" fill="#BD60FB"/>
<path d="M43.4006 41.6826C43.8193 40.2529 43.7648 38.5816 42.9921 37.2812C43.2612 38.733 43.3979 40.2061 43.4006 41.6826Z" fill="#BD60FB"/>
<path d="M42.6585 41.7407C43.0772 40.311 43.0228 38.6397 42.2501 37.3359C42.5191 38.7888 42.6558 40.2631 42.6585 41.7407Z" fill="#BD60FB"/>
<path d="M41.702 37.3799C41.3674 38.8677 41.4678 40.4204 41.9913 41.8527C41.9028 40.372 41.8654 38.8606 41.702 37.3799Z" fill="#BD60FB"/>
</g>
<path d="M28.8418 141.837H30.1489C30.1511 141.697 30.1787 141.559 30.2306 141.429C30.3668 141.126 30.617 140.89 30.9268 140.77C31.2366 140.651 31.581 140.659 31.8849 140.792C32.0982 140.877 32.2858 141.015 32.4291 141.194C32.5724 141.374 32.6664 141.587 32.7019 141.814H33.8899C33.8809 141.666 33.9006 141.518 33.9477 141.378C34.0145 141.227 34.1103 141.092 34.2296 140.978C34.3488 140.865 34.4893 140.776 34.643 140.717C34.7966 140.658 34.9604 140.629 35.125 140.634C35.2895 140.638 35.4517 140.674 35.6021 140.741C35.8184 140.827 36.0078 140.969 36.1503 141.153C36.2929 141.337 36.3833 141.556 36.4122 141.786H37.6036C37.6021 141.637 37.6311 141.489 37.6887 141.351C37.7551 141.2 37.8505 141.065 37.9695 140.951C38.0885 140.838 38.2287 140.749 38.3821 140.69C38.5354 140.631 38.699 140.602 38.8633 140.607C39.0276 140.611 39.1895 140.647 39.3396 140.714C39.5589 140.8 39.7506 140.943 39.894 141.13C40.0374 141.317 40.127 141.539 40.1532 141.773H41.3412C41.3405 141.619 41.3706 141.466 41.4297 141.323C41.4964 141.173 41.5922 141.037 41.7115 140.924C41.8308 140.81 41.9713 140.721 42.1249 140.662C42.2785 140.603 42.4423 140.575 42.6069 140.579C42.7715 140.583 42.9336 140.62 43.084 140.687C43.3049 140.774 43.4977 140.92 43.6412 141.109C43.7847 141.298 43.8734 141.523 43.8976 141.759H45.0855C45.0789 141.601 45.1067 141.443 45.1672 141.296C45.3028 140.993 45.5529 140.756 45.863 140.636C46.173 140.517 46.5177 140.525 46.8216 140.66C47.0455 140.747 47.2406 140.896 47.385 141.088C47.5293 141.281 47.6171 141.509 47.6385 141.749H48.8231C48.8145 141.585 48.8424 141.421 48.9048 141.269C49.0403 140.966 49.2905 140.728 49.6005 140.609C49.9106 140.49 50.2552 140.498 50.5591 140.632C50.7847 140.721 50.9811 140.871 51.1261 141.065C51.271 141.259 51.3588 141.49 51.3795 141.732H52.5675C52.5557 141.563 52.5836 141.394 52.6492 141.238C52.784 140.935 53.0335 140.698 53.343 140.579C53.6525 140.459 53.9967 140.468 54.3001 140.602C54.5284 140.691 54.7266 140.844 54.8718 141.041C55.017 141.239 55.1032 141.474 55.1204 141.718H56.2369L56.3118 139.233L28.7056 139.509L28.8418 141.837Z" fill="#BD60FB"/>
<path d="M29.2196 139.968C30.1149 140.257 55.5834 139.927 56.5433 139.287C56.9143 139.056 57.0811 135.342 57.156 130.849V130.706C57.156 129.78 57.1866 128.827 57.1866 127.86C57.1866 127.727 57.1866 127.595 57.1866 127.462L56.625 114.251L39.5847 114.421L40.6059 127.509L40.6229 128.027L40.7285 130.75V131.029C40.7285 131.029 31.0373 135.516 30.0536 136.319C29.0699 137.122 28.3278 139.675 29.2196 139.968Z" fill="#BD60FB"/>
<path opacity="0.7" d="M29.2196 139.968C30.1149 140.257 55.5834 139.927 56.5433 139.287C56.9143 139.056 57.0811 135.342 57.156 130.849V130.706C57.156 129.78 57.1866 128.827 57.1866 127.86C57.1866 127.727 57.1866 127.595 57.1866 127.462L56.625 114.251L39.5847 114.421L40.6059 127.509L40.6229 128.027L40.7285 130.75V131.029C40.7285 131.029 31.0373 135.516 30.0536 136.319C29.0699 137.122 28.3278 139.675 29.2196 139.968Z" fill="white"/>
<path d="M29.4954 138.995C33.7878 138.835 51.114 138.59 55.3655 138.757C55.3996 138.757 55.3996 138.781 55.3655 138.784C51.114 139.036 33.7878 139.142 29.4954 139.067C29.4069 139.046 29.4069 138.995 29.4954 138.995Z" fill="#BD60FB"/>
<path d="M39.6051 130.904C41.2901 130.563 43.3495 130.802 44.6668 131.986C44.7179 132.034 44.6498 132.105 44.5954 132.088C42.9735 131.588 41.3029 131.263 39.612 131.118C39.5866 131.114 39.5633 131.102 39.5463 131.083C39.5292 131.064 39.5194 131.039 39.5185 131.014C39.5177 130.988 39.526 130.963 39.5418 130.943C39.5576 130.923 39.5801 130.909 39.6051 130.904Z" fill="#BD60FB"/>
<path d="M38.3933 131.656C40.0783 131.316 42.1377 131.551 43.455 132.739C43.5061 132.783 43.455 132.854 43.387 132.841C41.7655 132.339 40.0947 132.014 38.4035 131.871C38.378 131.867 38.3545 131.855 38.337 131.837C38.3196 131.818 38.3093 131.793 38.3081 131.768C38.3069 131.742 38.3148 131.717 38.3304 131.696C38.3459 131.676 38.3682 131.662 38.3933 131.656Z" fill="#BD60FB"/>
<path d="M37.1849 132.408C38.8699 132.068 40.9293 132.303 42.2466 133.491C42.2977 133.535 42.2296 133.606 42.1751 133.589C40.5544 133.09 38.8849 132.764 37.1951 132.619C37.1671 132.621 37.1398 132.611 37.119 132.592C37.0983 132.573 37.0858 132.547 37.0845 132.519C37.0831 132.491 37.093 132.463 37.1118 132.443C37.1306 132.422 37.1569 132.409 37.1849 132.408Z" fill="#BD60FB"/>
<g opacity="0.5">
<path d="M39.6051 130.904C41.2901 130.563 43.3495 130.802 44.6668 131.986C44.7179 132.034 44.6498 132.105 44.5954 132.088C42.9735 131.588 41.3029 131.263 39.612 131.118C39.5866 131.114 39.5633 131.102 39.5463 131.083C39.5292 131.064 39.5194 131.039 39.5185 131.014C39.5177 130.988 39.526 130.963 39.5418 130.943C39.5576 130.923 39.5801 130.909 39.6051 130.904Z" fill="white"/>
<path d="M38.3933 131.656C40.0783 131.316 42.1377 131.551 43.455 132.739C43.5061 132.783 43.455 132.854 43.387 132.841C41.7655 132.339 40.0947 132.014 38.4035 131.871C38.378 131.867 38.3545 131.855 38.337 131.837C38.3196 131.818 38.3093 131.793 38.3081 131.768C38.3069 131.742 38.3148 131.717 38.3304 131.696C38.3459 131.676 38.3682 131.662 38.3933 131.656Z" fill="white"/>
<path d="M37.1849 132.408C38.8699 132.068 40.9293 132.303 42.2466 133.491C42.2977 133.535 42.2296 133.606 42.1751 133.589C40.5544 133.09 38.8849 132.764 37.1951 132.619C37.1671 132.621 37.1398 132.611 37.119 132.592C37.0983 132.573 37.0858 132.547 37.0845 132.519C37.0831 132.491 37.093 132.463 37.1118 132.443C37.1306 132.422 37.1569 132.409 37.1849 132.408Z" fill="white"/>
</g>
<path d="M43.3631 139.965C44.7247 139.938 46.0863 139.904 47.3628 139.87C52.1862 139.737 56.1723 139.529 56.5535 139.298C56.9348 139.066 57.0845 135.455 57.1594 131.046C57.1594 130.982 57.1594 130.921 57.1594 130.859C57.1594 130.798 57.1594 130.761 57.1594 130.713H57.1424C54.889 132.292 46.9645 137.568 43.3631 139.965Z" fill="#BD60FB"/>
<path d="M40.1804 138.515C39.6056 137.571 38.8461 136.753 37.9474 136.109C35.9051 134.747 33.0389 134.689 32.5011 134.764C31.9633 134.839 29.4205 136.034 28.9542 137.375C28.4878 138.716 28.4708 139.887 28.675 140.03C28.8793 140.173 56.1621 140.006 56.5467 139.727C56.9314 139.448 56.928 138.366 56.928 138.366L40.1804 138.515Z" fill="#BD60FB"/>
<path opacity="0.5" d="M40.1804 138.515C39.6056 137.571 38.8461 136.753 37.9474 136.109C35.9051 134.747 33.0389 134.689 32.5011 134.764C31.9633 134.839 29.4205 136.034 28.9542 137.375C28.4878 138.716 28.4708 139.887 28.675 140.03C28.8793 140.173 56.1621 140.006 56.5467 139.727C56.9314 139.448 56.928 138.366 56.928 138.366L40.1804 138.515Z" fill="white"/>
<path d="M55.8931 135.969C54.4174 135.969 53.221 134.396 53.221 132.456C53.221 130.516 54.4174 128.943 55.8931 128.943C57.3689 128.943 58.5652 130.516 58.5652 132.456C58.5652 134.396 57.3689 135.969 55.8931 135.969Z" fill="#BD60FB"/>
<path opacity="0.5" d="M55.8931 135.969C54.4174 135.969 53.221 134.396 53.221 132.456C53.221 130.516 54.4174 128.943 55.8931 128.943C57.3689 128.943 58.5652 130.516 58.5652 132.456C58.5652 134.396 57.3689 135.969 55.8931 135.969Z" fill="white"/>
<path opacity="0.5" d="M56.3254 135.339C55.1147 135.339 54.1333 134.048 54.1333 132.455C54.1333 130.863 55.1147 129.572 56.3254 129.572C57.5361 129.572 58.5176 130.863 58.5176 132.455C58.5176 134.048 57.5361 135.339 56.3254 135.339Z" fill="white"/>
<path d="M39.6051 125.42H57.9491C57.9491 125.42 58.5516 124.446 58.2895 121.199C57.3058 109.697 55.7536 87.8708 55.8659 87.2887C56.0497 86.3322 66.2684 40.8926 66.2684 40.8926H49.1669C49.1669 40.8926 47.9006 46.6351 45.6165 54.1102C41.896 66.2522 37.9372 82.969 37.447 87.03C36.7935 92.4389 38.1278 112.72 38.829 121.781C38.9311 123.022 39.1919 124.245 39.6051 125.42Z" fill="#BD60FB"/>
<path opacity="0.4" d="M39.6051 125.42H57.9491C57.9491 125.42 58.5516 124.446 58.2895 121.199C57.3058 109.697 55.7536 87.8708 55.8659 87.2887C56.0497 86.3322 66.2684 40.8926 66.2684 40.8926H49.1669C49.1669 40.8926 47.9006 46.6351 45.6165 54.1102C41.896 66.2522 37.9372 82.969 37.447 87.03C36.7935 92.4389 38.1278 112.72 38.829 121.781C38.9311 123.022 39.1919 124.245 39.6051 125.42Z" fill="white"/>
<path opacity="0.1" d="M40.4153 122.288C43.2168 122.23 42.41 122.206 45.2115 122.179C46.5731 122.179 55.5936 122.087 56.8735 122.301C56.9041 122.301 56.9041 122.352 56.8735 122.359C55.5936 122.57 46.5833 122.492 45.2115 122.478C42.41 122.451 43.2168 122.427 40.4153 122.369C40.4045 122.369 40.3941 122.365 40.3864 122.357C40.3788 122.35 40.3745 122.339 40.3745 122.329C40.3745 122.318 40.3788 122.307 40.3864 122.3C40.3941 122.292 40.4045 122.288 40.4153 122.288Z" fill="black"/>
<path opacity="0.1" d="M53.2381 84.5959C53.7248 81.9442 54.4533 79.347 55.0898 76.743C56.3765 71.4532 57.6734 66.168 58.9806 60.8873C59.6341 58.2458 60.2888 55.6043 60.9446 52.9628C61.285 51.6319 61.6084 50.2975 61.9488 48.97C62.2892 47.6424 62.6568 46.3761 62.97 45.0622C63.0891 44.5278 63.1572 44.8205 63.0006 45.5013C62.6875 46.8629 62.3777 48.2245 62.0543 49.5861C61.4099 52.2888 60.7642 54.9905 60.1175 57.6909C58.8285 63.0624 57.5271 68.4316 56.2131 73.7985C55.5596 76.4922 54.9037 79.1825 54.2456 81.8693C53.9108 83.1574 53.6416 84.4617 53.4389 85.7771C53.2647 87.1622 53.2214 88.5606 53.3095 89.9538C53.4525 92.7586 53.7146 95.5601 53.9257 98.3616C54.1367 101.163 54.3478 98.5862 54.5588 101.395C54.9786 106.977 55.3939 112.561 55.8047 118.145C55.8557 118.853 55.9068 119.561 55.951 120.27C55.951 120.508 55.8285 120.535 55.8081 120.307C55.3179 114.786 54.7869 109.2 54.3682 103.672C53.9495 98.1437 53.5308 98.0518 53.1121 92.5476C53.0066 91.1656 52.8874 89.7836 52.8874 88.3948C52.8889 87.1205 53.0062 85.8489 53.2381 84.5959Z" fill="black"/>
<path d="M56.5603 88.2581V86.0932L38.7269 85.0107V88.6666L56.5603 88.2581Z" fill="#BD60FB"/>
<path d="M48.207 81.7131C47.0905 78.687 39.6358 78.0369 38.1619 80.3516C36.2012 83.4492 35.9902 91.7855 38.3219 93.8687C39.9081 95.2882 46.6412 95.4277 47.7849 93.416C48.4657 92.2076 48.9082 90.8188 48.8776 87.3671C48.8674 86.026 48.9525 83.7351 48.207 81.7131Z" fill="#BD60FB"/>
<path opacity="0.7" d="M48.207 81.7131C47.0905 78.687 39.6358 78.0369 38.1619 80.3516C36.2012 83.4492 35.9902 91.7855 38.3219 93.8687C39.9081 95.2882 46.6412 95.4277 47.7849 93.416C48.4657 92.2076 48.9082 90.8188 48.8776 87.3671C48.8674 86.026 48.9525 83.7351 48.207 81.7131Z" fill="white"/>
<g opacity="0.7">
<path d="M46.7126 93.6468C43.9514 93.99 41.1516 93.8518 38.4376 93.2383C41.0688 94.3137 43.9884 94.4578 46.7126 93.6468Z" fill="#BD60FB"/>
<path d="M47.322 92.3262C44.1971 92.51 41.0382 92.4964 37.9644 91.8633C40.9327 92.956 44.2482 92.9764 47.322 92.3262Z" fill="#BD60FB"/>
<path d="M47.3934 90.8383C44.5171 91.0119 41.6067 91.0426 38.761 90.5728C38.3491 90.5286 37.9508 90.4162 37.5389 90.3516C40.6672 91.4919 44.1563 91.5089 47.3934 90.8383Z" fill="#BD60FB"/>
<path d="M47.482 89.0447C44.0984 89.2796 40.6741 89.3306 37.3314 88.6328C40.5617 89.7936 44.1393 89.7425 47.482 89.0447Z" fill="#BD60FB"/>
<path d="M38.9516 80.3098C41.5869 79.9615 44.2636 80.0929 46.8522 80.6978C44.3489 79.6314 41.5472 79.4938 38.9516 80.3098Z" fill="#BD60FB"/>
<path d="M37.9679 81.6136C41.0927 81.4298 44.2516 81.4434 47.3254 82.0766C44.3571 80.9805 41.0417 80.9634 37.9679 81.6136Z" fill="#BD60FB"/>
<path d="M37.8964 83.0973C40.7727 82.9271 43.6831 82.8965 46.5288 83.3628C46.9407 83.4105 47.339 83.5194 47.7509 83.5841C44.6226 82.4472 41.1335 82.4268 37.8964 83.0973Z" fill="#BD60FB"/>
<path d="M37.4402 84.6942C40.8442 84.5138 44.3128 84.4934 47.6725 85.198C44.4184 84.0339 40.8067 84.0509 37.4402 84.6942Z" fill="#BD60FB"/>
<path d="M37.3756 86.0553C40.7795 85.8783 44.2482 85.8545 47.6045 86.5625C44.3503 85.3949 40.7387 85.412 37.3756 86.0553Z" fill="#BD60FB"/>
<path d="M47.5637 87.5701C44.1937 87.5463 40.5209 87.5701 37.1747 87.2842C40.5787 88.0296 44.1222 88.0058 47.5637 87.5701Z" fill="#BD60FB"/>
</g>
<path d="M43.7001 60.6217C46.4967 61.4357 49.3381 62.0869 52.2101 62.5722C55.1953 62.8853 58.2113 63.3245 61.2102 63.3006C61.2142 63.2742 61.2199 63.2481 61.2272 63.2223C58.2317 63.0487 55.2362 62.5858 52.2543 62.2386C49.8715 61.9152 47.2369 61.2548 44.8575 60.7715L43.7206 60.5332C43.7171 60.5604 43.7069 60.5911 43.7001 60.6217Z" fill="#BD60FB"/>
<path d="M43.3972 61.7248C46.2452 62.5612 49.1403 63.2284 52.0671 63.7229C55.0149 64.0361 57.9968 64.465 60.9583 64.4548C60.9583 64.4242 60.9583 64.4003 60.9753 64.3731C58.0172 64.1859 55.0558 63.7366 52.125 63.3893C49.7422 63.0694 47.1075 62.4056 44.7247 61.9222L43.4312 61.6533C43.4108 61.6601 43.404 61.6806 43.3972 61.7248Z" fill="#BD60FB"/>
<path d="M43.0976 62.8035C45.9958 63.6578 48.942 64.3398 51.9207 64.8458C54.8345 65.159 57.7756 65.5777 60.703 65.5811L60.7234 65.4892C57.7994 65.2986 54.8754 64.8526 51.965 64.5123C49.5822 64.1923 46.9475 63.5319 44.5647 63.0451L43.1146 62.7422C43.1077 62.7622 43.102 62.7827 43.0976 62.8035Z" fill="#BD60FB"/>
<path opacity="0.1" d="M52.4688 40.8926C53.3981 48.0409 56.2131 65.8641 57.9151 77.9516C60.8834 64.6761 66.0098 41.9104 66.231 40.9266C66.2318 40.9198 66.2318 40.913 66.231 40.9062L52.4688 40.8926Z" fill="black"/>
<path d="M48.5304 141.837H49.8409C49.8414 141.697 49.8691 141.559 49.9226 141.429C50.0581 141.126 50.3083 140.888 50.6183 140.769C50.9284 140.65 51.2731 140.658 51.5769 140.792C51.7898 140.877 51.9768 141.016 52.1195 141.195C52.2622 141.374 52.3556 141.587 52.3905 141.814H53.5785C53.5801 141.669 53.609 141.526 53.6636 141.392C53.7303 141.241 53.8261 141.105 53.9454 140.992C54.0647 140.878 54.2051 140.79 54.3588 140.73C54.5124 140.671 54.6762 140.643 54.8408 140.647C55.0054 140.651 55.1675 140.688 55.3179 140.755C55.5335 140.842 55.7221 140.984 55.8644 141.168C56.0068 141.352 56.0978 141.57 56.128 141.8H57.3194C57.3168 141.651 57.3446 141.503 57.4011 141.364C57.4679 141.214 57.5636 141.078 57.6829 140.965C57.8022 140.851 57.9427 140.762 58.0963 140.703C58.25 140.644 58.4138 140.616 58.5784 140.62C58.7429 140.624 58.9051 140.661 59.0555 140.728C59.2743 140.813 59.4655 140.957 59.6083 141.144C59.7511 141.331 59.8401 141.553 59.8656 141.786H61.0536C61.0547 141.632 61.0847 141.48 61.1421 141.337C61.2088 141.187 61.3046 141.051 61.4239 140.937C61.5432 140.824 61.6837 140.735 61.8373 140.676C61.991 140.617 62.1548 140.589 62.3193 140.593C62.4839 140.597 62.646 140.634 62.7964 140.701C63.0174 140.787 63.2101 140.933 63.3536 141.123C63.4971 141.312 63.5858 141.537 63.61 141.773H64.798C64.7929 141.615 64.8208 141.457 64.8796 141.31C65.0159 141.007 65.2661 140.771 65.5759 140.651C65.8857 140.532 66.23 140.54 66.534 140.673C66.758 140.761 66.9531 140.909 67.0974 141.102C67.2417 141.294 67.3295 141.523 67.3509 141.763H68.5389C68.5285 141.598 68.5565 141.434 68.6206 141.283C68.687 141.132 68.7824 140.997 68.9014 140.883C69.0204 140.77 69.1606 140.681 69.314 140.622C69.4673 140.563 69.6309 140.534 69.7952 140.538C69.9595 140.543 70.1214 140.579 70.2715 140.646C70.4976 140.734 70.6944 140.884 70.8395 141.078C70.9845 141.273 71.072 141.504 71.0919 141.746H72.2833C72.2703 141.577 72.2971 141.408 72.3616 141.252C72.4971 140.949 72.7473 140.711 73.0573 140.592C73.3673 140.473 73.712 140.481 74.0159 140.615C74.2438 140.705 74.4416 140.858 74.5862 141.055C74.7308 141.253 74.8164 141.488 74.8329 141.732H75.9528L76.0276 139.247L48.4181 139.523L48.5304 141.837Z" fill="#BD60FB"/>
<path d="M48.6529 140.213C49.5447 140.506 75.0132 140.268 75.9765 139.645C76.3476 139.413 76.5314 135.699 76.6199 131.206V131.063C76.6403 130.137 76.6539 129.184 76.6607 128.217C76.6607 128.085 76.6607 127.952 76.6607 127.819C76.7186 121.335 76.2523 114.608 76.2523 114.608L59.6034 114.714L60.0664 127.806L60.0868 128.323L60.1787 131.046V131.325C60.1787 131.325 50.4706 135.778 49.4834 136.578C48.4963 137.378 47.761 139.927 48.6529 140.213Z" fill="#BD60FB"/>
<path opacity="0.7" d="M48.6529 140.213C49.5447 140.506 75.0132 140.268 75.9765 139.645C76.3476 139.413 76.5314 135.699 76.6199 131.206V131.063C76.6403 130.137 76.6539 129.184 76.6607 128.217C76.6607 128.085 76.6607 127.952 76.6607 127.819C76.7186 121.335 76.2523 114.608 76.2523 114.608L59.6034 114.714L60.0664 127.806L60.0868 128.323L60.1787 131.046V131.325C60.1787 131.325 50.4706 135.778 49.4834 136.578C48.4963 137.378 47.761 139.927 48.6529 140.213Z" fill="white"/>
<path d="M48.9252 139.223C53.2176 139.08 70.5438 138.883 74.7954 139.08C74.8294 139.08 74.8294 139.104 74.7954 139.108C70.5438 139.346 53.2142 139.387 48.9252 139.295C48.8401 139.295 48.8401 139.227 48.9252 139.223Z" fill="#BD60FB"/>
<path d="M59.2563 131.165C60.9583 130.825 63.0006 131.073 64.3146 132.265C64.3622 132.313 64.2976 132.384 64.2431 132.367C62.6231 131.86 60.9536 131.528 59.2631 131.376C59.2351 131.377 59.2079 131.367 59.1875 131.348C59.167 131.329 59.1551 131.302 59.1542 131.274C59.1533 131.246 59.1635 131.219 59.1827 131.199C59.2018 131.178 59.2283 131.166 59.2563 131.165Z" fill="#BD60FB"/>
<path d="M58.041 131.921C59.743 131.581 61.7854 131.829 63.0993 133.021C63.1504 133.068 63.0993 133.14 63.0278 133.123C61.4093 132.616 59.7408 132.285 58.0512 132.136C58.0258 132.133 58.0022 132.12 57.9847 132.102C57.9673 132.083 57.957 132.058 57.9558 132.033C57.9546 132.007 57.9625 131.982 57.9781 131.961C57.9937 131.941 58.016 131.927 58.041 131.921Z" fill="#BD60FB"/>
<path d="M56.8292 132.667C58.5312 132.326 60.5736 132.578 61.8875 133.77C61.9386 133.814 61.8705 133.885 61.8161 133.868C60.1976 133.361 58.529 133.03 56.8395 132.881C56.814 132.878 56.7904 132.866 56.773 132.847C56.7555 132.828 56.7452 132.804 56.744 132.778C56.7428 132.753 56.7507 132.727 56.7663 132.707C56.7819 132.687 56.8042 132.672 56.8292 132.667Z" fill="#BD60FB"/>
<g opacity="0.5">
<path d="M59.2563 131.165C60.9583 130.825 63.0006 131.073 64.3146 132.265C64.3622 132.313 64.2976 132.384 64.2431 132.367C62.6231 131.86 60.9536 131.528 59.2631 131.376C59.2351 131.377 59.2079 131.367 59.1875 131.348C59.167 131.329 59.1551 131.302 59.1542 131.274C59.1533 131.246 59.1635 131.219 59.1827 131.199C59.2018 131.178 59.2283 131.166 59.2563 131.165Z" fill="white"/>
<path d="M58.041 131.921C59.743 131.581 61.7854 131.829 63.0993 133.021C63.1504 133.068 63.0993 133.14 63.0278 133.123C61.4093 132.616 59.7408 132.285 58.0512 132.136C58.0258 132.133 58.0022 132.12 57.9847 132.102C57.9673 132.083 57.957 132.058 57.9558 132.033C57.9546 132.007 57.9625 131.982 57.9781 131.961C57.9937 131.941 58.016 131.927 58.041 131.921Z" fill="white"/>
<path d="M56.8292 132.667C58.5312 132.326 60.5736 132.578 61.8875 133.77C61.9386 133.814 61.8705 133.885 61.8161 133.868C60.1976 133.361 58.529 133.03 56.8395 132.881C56.814 132.878 56.7904 132.866 56.773 132.847C56.7555 132.828 56.7452 132.804 56.744 132.778C56.7428 132.753 56.7507 132.727 56.7663 132.707C56.7819 132.687 56.8042 132.672 56.8292 132.667Z" fill="white"/>
</g>
<path d="M59.6648 138.77C59.0889 137.827 58.3296 137.008 57.4318 136.364C55.3894 135.002 52.5232 134.944 51.9854 135.019C51.4476 135.094 48.9218 136.289 48.4419 137.63C47.9619 138.971 47.9585 140.142 48.1628 140.285C48.367 140.428 75.6498 140.261 76.0311 139.982C76.4123 139.703 76.4157 138.62 76.4157 138.62L59.6648 138.77Z" fill="#BD60FB"/>
<path opacity="0.5" d="M59.6648 138.77C59.0889 137.827 58.3296 137.008 57.4318 136.364C55.3894 135.002 52.5232 134.944 51.9854 135.019C51.4476 135.094 48.9218 136.289 48.4419 137.63C47.9619 138.971 47.9585 140.142 48.1628 140.285C48.367 140.428 75.6498 140.261 76.0311 139.982C76.4123 139.703 76.4157 138.62 76.4157 138.62L59.6648 138.77Z" fill="white"/>
<path d="M74.8294 135.969C73.3536 135.969 72.1573 134.396 72.1573 132.456C72.1573 130.516 73.3536 128.943 74.8294 128.943C76.3052 128.943 77.5015 130.516 77.5015 132.456C77.5015 134.396 76.3052 135.969 74.8294 135.969Z" fill="#BD60FB"/>
<path opacity="0.5" d="M74.8294 135.969C73.3536 135.969 72.1573 134.396 72.1573 132.456C72.1573 130.516 73.3536 128.943 74.8294 128.943C76.3052 128.943 77.5015 130.516 77.5015 132.456C77.5015 134.396 76.3052 135.969 74.8294 135.969Z" fill="white"/>
<path opacity="0.5" d="M73.0696 132.455C73.0696 134.048 74.0533 135.339 75.2651 135.339C76.4769 135.339 77.4573 134.048 77.4573 132.455C77.4573 130.862 76.4769 129.572 75.2651 129.572C74.0533 129.572 73.0696 130.862 73.0696 132.455Z" fill="white"/>
<path d="M51.2093 40.8926C51.2093 40.8926 51.5497 48.3303 53.2516 54.2225C53.3878 54.7093 53.5376 55.1892 53.6976 55.6488C55.2572 56.279 56.7565 57.0492 58.1772 57.9499C58.1772 57.9499 57.4964 86.3934 57.4624 88.1567C57.3398 93.3954 58.3916 111.607 58.6401 121.277C58.647 122.709 59.0196 124.115 59.7226 125.362L76.8344 125.43C77.98 123.969 78.5177 122.121 78.3355 120.273C77.4369 109.21 74.7681 90.0561 74.7886 88.1839C74.8226 84.2966 74.1656 60.8535 73.5155 54.9374C73.4236 54.0932 74.0227 50.2943 73.7776 48.3132C73.468 45.7963 72.9221 43.314 72.1471 40.8994L51.2093 40.8926Z" fill="#BD60FB"/>
<path opacity="0.4" d="M51.2093 40.8926C51.2093 40.8926 51.5497 48.3303 53.2516 54.2225C53.3878 54.7093 53.5376 55.1892 53.6976 55.6488C55.2572 56.279 56.7565 57.0492 58.1772 57.9499C58.1772 57.9499 57.4964 86.3934 57.4624 88.1567C57.3398 93.3954 58.3916 111.607 58.6401 121.277C58.647 122.709 59.0196 124.115 59.7226 125.362L76.8344 125.43C77.98 123.969 78.5177 122.121 78.3355 120.273C77.4369 109.21 74.7681 90.0561 74.7886 88.1839C74.8226 84.2966 74.1656 60.8535 73.5155 54.9374C73.4236 54.0932 74.0227 50.2943 73.7776 48.3132C73.468 45.7963 72.9221 43.314 72.1471 40.8994L51.2093 40.8926Z" fill="white"/>
<path opacity="0.1" d="M60.3694 122.088C63.1708 122.043 62.3675 122.016 65.169 122.002C66.5305 122.002 75.5511 121.955 76.831 122.173C76.8582 122.173 76.8582 122.224 76.831 122.227C75.5511 122.435 66.5408 122.319 65.169 122.299C62.3675 122.261 63.1742 122.241 60.3728 122.169C60.3619 122.17 60.3514 122.166 60.3434 122.159C60.3354 122.151 60.3307 122.141 60.3302 122.13C60.3298 122.119 60.3336 122.109 60.341 122.101C60.3483 122.093 60.3585 122.088 60.3694 122.088Z" fill="black"/>
<path d="M54.0312 55.8362C55.8253 56.4879 57.5588 57.2955 59.212 58.2496C59.226 58.2559 59.2369 58.2676 59.2424 58.2819C59.2478 58.2963 59.2473 58.3122 59.241 58.3262C59.2346 58.3402 59.223 58.3511 59.2087 58.3565C59.1943 58.362 59.1784 58.3615 59.1644 58.3551C57.4181 57.6063 55.6379 56.888 53.9359 56.0438C53.9131 56.0285 53.8965 56.0056 53.889 55.9791C53.8816 55.9527 53.8838 55.9245 53.8952 55.8995C53.9067 55.8745 53.9267 55.8544 53.9516 55.8428C53.9765 55.8312 54.0047 55.8289 54.0312 55.8362Z" fill="#263238"/>
<path d="M53.4627 43.8578C53.4627 43.7966 53.5716 43.7829 53.5716 43.8578C53.5716 45.9308 53.6908 47.7554 53.8644 49.6922C53.9461 50.5909 54.6711 55.5607 56.2472 55.1999C56.5059 55.1386 56.6386 54.8799 56.6829 54.4884C56.676 53.9735 56.6062 53.4614 56.4752 52.9634C56.3016 51.9218 56.1621 50.8802 56.0736 49.8284C55.8914 47.872 55.9119 45.9019 56.1348 43.9497C56.1348 43.9362 56.1402 43.9232 56.1498 43.9136C56.1594 43.9041 56.1724 43.8987 56.1859 43.8987C56.1994 43.8987 56.2124 43.9041 56.222 43.9136C56.2316 43.9232 56.237 43.9362 56.237 43.9497C56.1902 46.6628 56.3484 49.3755 56.7101 52.0648C56.9075 53.3549 57.5577 55.302 56.2063 55.5028C54.8549 55.7036 53.9393 52.4392 53.7691 51.5542C53.3351 49.0127 53.2322 46.4258 53.4627 43.8578Z" fill="#263238"/>
<path d="M56.1859 55.3221C56.3208 55.655 56.4345 55.9961 56.5263 56.3433C56.6257 56.6146 56.6742 56.902 56.6693 57.1909C56.6693 57.2454 56.591 57.2522 56.5638 57.2147C56.4007 56.9605 56.2779 56.6826 56.1995 56.391C56.0804 56.071 55.9544 55.7544 55.8591 55.4345C55.8492 55.3925 55.8552 55.3484 55.8759 55.3106C55.8967 55.2728 55.9308 55.2441 55.9716 55.2301C56.0124 55.2161 56.0569 55.2178 56.0965 55.2348C56.1361 55.2518 56.168 55.2829 56.1859 55.3221Z" fill="#263238"/>
<path opacity="0.1" d="M70.2035 41.7676C70.7004 43.8576 71.1838 45.9511 71.565 48.0615C71.6876 48.8512 71.9054 49.6376 71.7727 50.4443L71.6842 51.2442C71.5753 52.3199 71.4902 53.3921 71.4119 54.4678L71.7523 72.4203C72.0722 88.7832 73.4542 99.6691 75.0133 115.971C75.1958 117.458 75.2596 118.957 75.2039 120.454C75.2822 118.957 75.2413 117.457 75.0813 115.967C74.8703 113.207 74.2065 105.415 73.9614 102.539C72.5522 90.5567 72.0756 66.9059 71.5787 54.461C71.5787 54.4984 71.8237 51.2578 71.8237 51.2613L71.8986 50.4579C72.0178 49.658 71.7863 48.8342 71.6536 48.0479C71.2281 45.9408 70.7106 43.8542 70.183 41.7744L70.2035 41.7676Z" fill="black"/>
<path d="M75.1085 88.2581V86.0932L57.2717 85.0107V88.6666L75.1085 88.2581Z" fill="#BD60FB"/>
<path d="M66.602 81.7508C66.105 78.5715 58.7218 78.1937 57.5032 80.5969C55.8863 83.7864 56.0633 92.1261 58.2419 94.0902C59.726 95.428 65.9893 95.3463 66.6939 93.1678C67.1943 91.6189 67.2147 90.5433 67.0343 87.0951C66.994 85.3068 66.8496 83.5224 66.602 81.7508Z" fill="#BD60FB"/>
<path opacity="0.7" d="M66.602 81.7508C66.105 78.5715 58.7218 78.1937 57.5032 80.5969C55.8863 83.7864 56.0633 92.1261 58.2419 94.0902C59.726 95.428 65.9893 95.3463 66.6939 93.1678C67.1943 91.6189 67.2147 90.5433 67.0343 87.0951C66.994 85.3068 66.8496 83.5224 66.602 81.7508Z" fill="white"/>
<g opacity="0.7">
<path d="M65.7443 93.4365C63.2928 93.9164 60.7716 93.9164 58.3202 93.4365C60.7048 94.3811 63.3597 94.3811 65.7443 93.4365Z" fill="#BD60FB"/>
<path d="M66.231 92.0879C63.4398 92.4283 60.6179 92.5644 57.8334 92.0879C60.5158 93.0342 63.5317 92.8878 66.231 92.0879Z" fill="#BD60FB"/>
<path d="M66.231 90.6006C63.6644 90.9138 61.0604 91.0874 58.4904 90.7606C58.1159 90.7333 57.7585 90.6448 57.3875 90.6006C60.2162 91.5809 63.3819 91.4278 66.2378 90.6006H66.231Z" fill="#BD60FB"/>
<path d="M66.231 88.8037C63.5929 89.1441 60.9106 89.3756 58.2589 89.0556C57.8777 89.0284 57.5066 88.9399 57.1254 88.8922C60.0426 89.8896 63.3036 89.6649 66.231 88.8037Z" fill="#BD60FB"/>
<path d="M58.2079 80.4979C60.5473 80.0214 62.9589 80.0214 65.2983 80.4979C64.1745 80.0319 62.9698 79.792 61.7531 79.792C60.5364 79.792 59.3317 80.0319 58.2079 80.4979Z" fill="#BD60FB"/>
<path d="M57.3875 81.8493C60.1787 81.5089 62.9972 81.3728 65.7817 81.8493C63.1028 80.903 60.0834 81.0494 57.3875 81.8493Z" fill="#BD60FB"/>
<path d="M57.3875 83.3363C59.9507 83.0231 62.5547 82.8495 65.1247 83.1763C65.4992 83.2035 65.8566 83.292 66.231 83.3363C63.3989 82.3559 60.2332 82.5091 57.3807 83.3363H57.3875Z" fill="#BD60FB"/>
<path d="M57.0505 84.9503C60.0936 84.6099 63.1981 84.4124 66.2412 84.9503C63.2968 83.9495 60.0256 84.1435 57.0505 84.9503Z" fill="#BD60FB"/>
<path d="M57.0505 86.3155C60.0936 85.9751 63.1981 85.7777 66.2412 86.3155C63.2968 85.3147 60.0256 85.5088 57.0505 86.3155Z" fill="#BD60FB"/>
<path d="M66.231 87.3291C63.2117 87.4687 59.9269 87.6695 56.9178 87.5538C59.9813 88.129 63.1811 87.9316 66.231 87.3291Z" fill="#BD60FB"/>
</g>
<path d="M58.0751 62.9131V62.9914C60.6741 63.4551 63.3009 63.7462 65.9383 63.8628C68.6411 63.7913 71.3847 63.8424 74.0568 63.4135C74.0585 63.3908 74.0585 63.368 74.0568 63.3454C71.3676 63.5632 68.6445 63.4884 65.9451 63.5258C63.8108 63.5258 61.428 63.1854 59.2835 63.0186L58.0751 62.9131Z" fill="#BD60FB"/>
<path d="M58.0444 64.1315C60.6556 64.5983 63.295 64.8906 65.945 65.0063C68.6682 64.9383 71.4254 64.9859 74.1146 64.5502C74.1163 64.5298 74.1163 64.5093 74.1146 64.4889C71.3914 64.7102 68.6682 64.6353 65.945 64.6728C63.8107 64.6728 61.428 64.3324 59.2835 64.1622L58.0512 64.0566C58.0505 64.0817 58.0482 64.1067 58.0444 64.1315Z" fill="#BD60FB"/>
<path d="M58.0172 65.2712C60.6377 65.7372 63.2861 66.0306 65.9451 66.1494C68.6682 66.0779 71.4595 66.129 74.1622 65.6831C74.1639 65.6627 74.1639 65.6422 74.1622 65.6218C71.4391 65.8533 68.6853 65.775 65.9519 65.8124C63.8176 65.8124 61.4348 65.472 59.2903 65.3018L58.0308 65.1963C58.0282 65.2216 58.0236 65.2466 58.0172 65.2712Z" fill="#BD60FB"/>
<path d="M47.9245 45.0217H73.3692C73.8352 44.0984 73.9466 43.0363 73.6823 42.0364C72.3514 36.1748 70.326 23.5835 65.54 18.7396C62.9428 16.1084 56.0089 17.1942 54.7869 18.4367C50.9472 22.3614 47.7509 40.0587 47.2539 42.2645C47.0531 43.1291 47.9245 45.0217 47.9245 45.0217Z" fill="#BD60FB"/>
<g opacity="0.4">
<path d="M47.9245 45.0217H73.3692C73.8352 44.0984 73.9466 43.0363 73.6823 42.0364C72.3514 36.1748 70.326 23.5835 65.54 18.7396C62.9428 16.1084 56.0089 17.1942 54.7869 18.4367C50.9472 22.3614 47.7509 40.0587 47.2539 42.2645C47.0531 43.1291 47.9245 45.0217 47.9245 45.0217Z" fill="white"/>
</g>
<path d="M60.7574 29.7613L52.1998 29.7715L53.3163 23.6171L61.8739 23.6035L60.7574 29.7613Z" fill="#BD60FB"/>
<path opacity="0.2" d="M60.7574 29.7613L52.1998 29.7715L53.3163 23.6171L61.8739 23.6035L60.7574 29.7613Z" fill="white"/>
<path opacity="0.4" d="M60.7574 29.7613L59.8451 29.7647L60.9582 23.6069L61.8739 23.6035L60.7574 29.7613Z" fill="white"/>
<path opacity="0.1" d="M58.9499 29.0571H59.1712L60.0358 24.3086H59.8111L58.9499 29.0571Z" fill="black"/>
<path opacity="0.1" d="M58.4087 29.0571H58.6299L59.4911 24.3086H59.2699L58.4087 29.0571Z" fill="black"/>
<path opacity="0.1" d="M57.864 29.0571H58.0887L58.9499 24.3086H58.7252L57.864 29.0571Z" fill="black"/>
<path opacity="0.1" d="M54.2898 25.347C54.2724 25.4532 54.2195 25.5504 54.1397 25.6227C54.06 25.695 53.9581 25.7382 53.8507 25.7453C53.8029 25.745 53.7558 25.7337 53.7131 25.7122C53.6704 25.6907 53.6333 25.6596 53.6046 25.6214C53.5759 25.5831 53.5565 25.5388 53.5478 25.4918C53.5391 25.4448 53.5414 25.3964 53.5546 25.3504C53.572 25.2442 53.6249 25.147 53.7047 25.0747C53.7844 25.0024 53.8863 24.9592 53.9937 24.9521C54.0415 24.9524 54.0886 24.9637 54.1313 24.9852C54.174 25.0067 54.2111 25.0378 54.2398 25.076C54.2685 25.1143 54.2879 25.1587 54.2966 25.2057C54.3053 25.2527 54.303 25.301 54.2898 25.347Z" fill="black"/>
<path opacity="0.1" d="M54.0551 26.6644C54.0359 26.7699 53.9825 26.8661 53.9031 26.9381C53.8237 27.0101 53.7228 27.0539 53.6159 27.0627C53.5681 27.0622 53.521 27.0509 53.4782 27.0294C53.4354 27.0079 53.3981 26.9769 53.3692 26.9388C53.3403 26.9007 53.3205 26.8564 53.3113 26.8094C53.3022 26.7625 53.3039 26.714 53.3164 26.6678C53.3351 26.5616 53.3889 26.4646 53.4691 26.3925C53.5492 26.3203 53.6513 26.277 53.7589 26.2695C53.8069 26.2691 53.8544 26.28 53.8975 26.3012C53.9406 26.3225 53.978 26.3536 54.0068 26.3921C54.0357 26.4305 54.0551 26.4752 54.0634 26.5225C54.0718 26.5698 54.0689 26.6184 54.0551 26.6644Z" fill="black"/>
<path opacity="0.1" d="M53.8201 27.9539C53.8003 28.0597 53.7462 28.156 53.6662 28.2279C53.5863 28.2999 53.4848 28.3436 53.3776 28.3522C53.3294 28.3521 53.2819 28.3407 53.2389 28.319C53.1959 28.2974 53.1585 28.2659 53.1297 28.2273C53.101 28.1886 53.0816 28.1438 53.0733 28.0963C53.0649 28.0489 53.0677 28.0001 53.0815 27.9539C53.1007 27.8479 53.1546 27.7513 53.2347 27.6793C53.3148 27.6072 53.4165 27.5637 53.524 27.5557C53.5719 27.5565 53.619 27.5683 53.6617 27.5902C53.7044 27.612 53.7414 27.6434 53.77 27.6819C53.7987 27.7204 53.8181 27.7649 53.8267 27.8121C53.8354 27.8593 53.8332 27.9078 53.8201 27.9539Z" fill="black"/>
<path opacity="0.1" d="M55.4404 25.3431C55.4217 25.4494 55.3679 25.5463 55.2877 25.6184C55.2076 25.6906 55.1055 25.7339 54.9979 25.7414C54.9501 25.7411 54.903 25.7298 54.8603 25.7083C54.8176 25.6868 54.7805 25.6557 54.7518 25.6175C54.7231 25.5792 54.7037 25.5349 54.695 25.4879C54.6863 25.4408 54.6886 25.3925 54.7017 25.3465C54.7205 25.2403 54.7742 25.1433 54.8544 25.0712C54.9346 24.999 55.0366 24.9557 55.1443 24.9482C55.1921 24.9485 55.2392 24.9598 55.2819 24.9813C55.3246 25.0028 55.3617 25.0339 55.3904 25.0721C55.4191 25.1104 55.4385 25.1547 55.4472 25.2018C55.4559 25.2488 55.4535 25.2971 55.4404 25.3431Z" fill="black"/>
<path opacity="0.1" d="M55.2056 26.6639C55.1863 26.7699 55.1324 26.8665 55.0523 26.9386C54.9722 27.0106 54.8705 27.0541 54.763 27.0622C54.7149 27.062 54.6674 27.0507 54.6243 27.029C54.5813 27.0073 54.5439 26.9759 54.5152 26.9372C54.4864 26.8986 54.4671 26.8537 54.4587 26.8063C54.4503 26.7588 54.4531 26.7101 54.4669 26.6639C54.4855 26.5582 54.5387 26.4616 54.6182 26.3895C54.6977 26.3174 54.799 26.2738 54.906 26.2656C54.9543 26.2659 55.0018 26.2773 55.0449 26.299C55.088 26.3207 55.1255 26.352 55.1545 26.3905C55.1835 26.4291 55.2031 26.4738 55.212 26.5212C55.2209 26.5686 55.2187 26.6175 55.2056 26.6639Z" fill="black"/>
<path opacity="0.1" d="M54.9673 27.9466C54.9494 28.053 54.8964 28.1503 54.8169 28.223C54.7373 28.2958 54.6357 28.3399 54.5282 28.3483C54.4799 28.348 54.4324 28.3366 54.3893 28.3149C54.3462 28.2932 54.3087 28.2619 54.2797 28.2234C54.2507 28.1848 54.231 28.1401 54.2222 28.0927C54.2133 28.0453 54.2155 27.9964 54.2286 27.95C54.2479 27.844 54.3018 27.7474 54.3819 27.6754C54.462 27.6033 54.5637 27.5598 54.6711 27.5518C54.7189 27.552 54.766 27.5633 54.8087 27.5848C54.8514 27.6063 54.8885 27.6374 54.9172 27.6757C54.9459 27.7139 54.9654 27.7583 54.974 27.8053C54.9827 27.8523 54.9804 27.9007 54.9673 27.9466Z" fill="black"/>
<path opacity="0.1" d="M56.5876 25.3431C56.5701 25.4493 56.5172 25.5465 56.4375 25.6188C56.3577 25.6911 56.2559 25.7343 56.1485 25.7414C56.1007 25.7411 56.0536 25.7298 56.0109 25.7083C55.9682 25.6868 55.931 25.6557 55.9023 25.6175C55.8737 25.5792 55.8542 25.5349 55.8455 25.4879C55.8369 25.4408 55.8392 25.3925 55.8523 25.3465C55.8698 25.2403 55.9227 25.1431 56.0024 25.0708C56.0821 24.9985 56.184 24.9553 56.2914 24.9482C56.3392 24.9485 56.3863 24.9598 56.429 24.9813C56.4717 25.0028 56.5089 25.0339 56.5375 25.0721C56.5662 25.1104 56.5857 25.1547 56.5943 25.2018C56.603 25.2488 56.6007 25.2971 56.5876 25.3431Z" fill="black"/>
<path opacity="0.1" d="M56.3527 26.6639C56.3336 26.7694 56.2802 26.8656 56.2008 26.9376C56.1214 27.0096 56.0204 27.0534 55.9136 27.0622C55.8653 27.0619 55.8178 27.0505 55.7747 27.0288C55.7316 27.0071 55.6941 26.9758 55.6651 26.9372C55.6361 26.8987 55.6164 26.854 55.6076 26.8065C55.5987 26.7591 55.6009 26.7103 55.614 26.6639C55.6338 26.5581 55.6879 26.4619 55.7679 26.3899C55.8479 26.3179 55.9493 26.2742 56.0565 26.2656C56.1047 26.2657 56.1522 26.2771 56.1953 26.2988C56.2383 26.3205 56.2757 26.3519 56.3044 26.3905C56.3332 26.4292 56.3525 26.4741 56.3609 26.5215C56.3693 26.569 56.3665 26.6177 56.3527 26.6639Z" fill="black"/>
<path opacity="0.1" d="M56.1178 27.9466C56.0987 28.053 56.0449 28.1501 55.9649 28.2227C55.8848 28.2953 55.783 28.3395 55.6753 28.3483C55.6271 28.3482 55.5796 28.3368 55.5366 28.3151C55.4936 28.2935 55.4562 28.262 55.4274 28.2234C55.3987 28.1847 55.3793 28.1399 55.371 28.0924C55.3626 28.0449 55.3654 27.9962 55.3792 27.95C55.3983 27.8446 55.4517 27.7483 55.5311 27.6763C55.6105 27.6043 55.7114 27.5605 55.8183 27.5518C55.8661 27.5522 55.9132 27.5636 55.956 27.585C55.9988 27.6065 56.0361 27.6375 56.065 27.6756C56.0939 27.7138 56.1137 27.758 56.1229 27.805C56.132 27.852 56.1303 27.9004 56.1178 27.9466Z" fill="black"/>
<path opacity="0.1" d="M57.7381 25.3432C57.7194 25.4494 57.6656 25.5463 57.5854 25.6185C57.5052 25.6907 57.4032 25.7339 57.2956 25.7414C57.2478 25.7412 57.2007 25.7298 57.158 25.7083C57.1153 25.6869 57.0782 25.6558 57.0495 25.6175C57.0208 25.5793 57.0013 25.5349 56.9927 25.4879C56.984 25.4409 56.9863 25.3925 56.9994 25.3466C57.0205 25.2439 57.0744 25.1508 57.153 25.0814C57.2316 25.0121 57.3306 24.9701 57.4351 24.9619C57.482 24.9617 57.5284 24.9721 57.5706 24.9924C57.6129 25.0126 57.65 25.0423 57.6792 25.079C57.7084 25.1157 57.7288 25.1585 57.739 25.2043C57.7492 25.2501 57.7489 25.2975 57.7381 25.3432Z" fill="black"/>
<path opacity="0.1" d="M57.5032 26.664C57.4839 26.77 57.43 26.8666 57.3499 26.9387C57.2698 27.0107 57.1681 27.0542 57.0607 27.0623C57.0116 27.0638 56.9629 27.0536 56.9186 27.0326C56.8742 27.0116 56.8355 26.9804 56.8056 26.9415C56.7757 26.9026 56.7554 26.8572 56.7465 26.8089C56.7376 26.7607 56.7403 26.711 56.7543 26.664C56.7729 26.5583 56.8262 26.4618 56.9057 26.3896C56.9852 26.3175 57.0864 26.2739 57.1934 26.2657C57.2425 26.2644 57.2912 26.2747 57.3356 26.2956C57.3801 26.3166 57.4189 26.3478 57.449 26.3865C57.4792 26.4253 57.4998 26.4706 57.5092 26.5188C57.5186 26.567 57.5166 26.6167 57.5032 26.664Z" fill="black"/>
<path opacity="0.1" d="M57.2649 27.9466C57.247 28.053 57.1941 28.1503 57.1145 28.223C57.035 28.2958 56.9333 28.3399 56.8258 28.3483C56.7776 28.348 56.7301 28.3366 56.687 28.3149C56.6439 28.2932 56.6064 28.2619 56.5774 28.2234C56.5484 28.1848 56.5287 28.1401 56.5198 28.0927C56.511 28.0453 56.5132 27.9964 56.5263 27.95C56.5456 27.844 56.5995 27.7474 56.6795 27.6754C56.7596 27.6033 56.8614 27.5598 56.9688 27.5518C57.0166 27.552 57.0637 27.5633 57.1064 27.5848C57.1491 27.6063 57.1862 27.6374 57.2149 27.6757C57.2436 27.7139 57.263 27.7583 57.2717 27.8053C57.2804 27.8523 57.2781 27.9007 57.2649 27.9466Z" fill="black"/>
<path d="M60.6992 36.563C59.9362 36.5445 59.3334 35.8774 59.3529 35.073C59.3725 34.2686 60.0068 33.6316 60.7699 33.6501C61.5329 33.6686 62.1357 34.3357 62.1161 35.1401C62.0966 35.9445 61.4622 36.5815 60.6992 36.563Z" fill="#BD60FB"/>
<path opacity="0.1" d="M59.7907 35.0853C59.796 35.271 59.8558 35.4511 59.9624 35.6032C60.0691 35.7553 60.2181 35.8728 60.3908 35.9411C60.5636 36.0094 60.7526 36.0255 60.9344 35.9875C61.1163 35.9494 61.283 35.8589 61.4139 35.7271C61.5448 35.5952 61.6342 35.4279 61.6709 35.2458C61.7077 35.0637 61.6902 34.8748 61.6207 34.7025C61.5512 34.5303 61.4327 34.3821 61.2798 34.2765C61.127 34.1709 60.9465 34.1125 60.7608 34.1084C60.633 34.1088 60.5065 34.1345 60.3885 34.1838C60.2706 34.2331 60.1635 34.3052 60.0734 34.3959C59.9833 34.4867 59.912 34.5942 59.8635 34.7125C59.815 34.8308 59.7902 34.9575 59.7907 35.0853Z" fill="black"/>
<path d="M59.3685 39.7793C59.3766 40.0493 59.4636 40.311 59.6188 40.5321C59.774 40.7531 59.9906 40.9239 60.2417 41.0232C60.4929 41.1225 60.7677 41.1461 61.0321 41.0909C61.2965 41.0358 61.539 40.9044 61.7295 40.7129C61.92 40.5215 62.0503 40.2784 62.1042 40.0137C62.1581 39.749 62.1332 39.4744 62.0327 39.2237C61.9321 38.973 61.7604 38.7572 61.5385 38.6031C61.3167 38.449 61.0546 38.3632 60.7846 38.3564C60.5982 38.3569 60.4137 38.394 60.2417 38.4658C60.0696 38.5375 59.9134 38.6425 59.7819 38.7746C59.6504 38.9067 59.5462 39.0635 59.4753 39.2358C59.4044 39.4082 59.3681 39.5929 59.3685 39.7793Z" fill="#BD60FB"/>
<path opacity="0.1" d="M59.8009 39.7894C59.8063 39.9751 59.866 40.1552 59.9727 40.3073C60.0794 40.4594 60.2283 40.5769 60.4011 40.6452C60.5738 40.7135 60.7628 40.7296 60.9447 40.6916C61.1265 40.6535 61.2932 40.563 61.4241 40.4312C61.555 40.2993 61.6444 40.132 61.6812 39.9499C61.7179 39.7678 61.7005 39.5789 61.631 39.4066C61.5615 39.2344 61.4429 39.0862 61.2901 38.9806C61.1373 38.875 60.9568 38.8166 60.7711 38.8125C60.6432 38.8129 60.5167 38.8386 60.3988 38.8879C60.2808 38.9372 60.1737 39.0093 60.0837 39.1C59.9936 39.1908 59.9222 39.2983 59.8737 39.4166C59.8252 39.5349 59.8005 39.6616 59.8009 39.7894Z" fill="black"/>
<path d="M51.2333 36.2818C50.5488 36.1961 50.0748 35.4793 50.1749 34.6809C50.2749 33.8826 50.9109 33.3049 51.5955 33.3906C52.2801 33.4764 52.754 34.1931 52.654 34.9915C52.554 35.7899 51.9179 36.3676 51.2333 36.2818Z" fill="#BD60FB"/>
<path opacity="0.1" d="M50.5693 34.7345C50.5738 34.9006 50.6259 35.0619 50.7193 35.1993C50.8128 35.3366 50.9437 35.4443 51.0966 35.5095C51.2495 35.5746 51.4178 35.5945 51.5816 35.5668C51.7455 35.5392 51.8979 35.465 52.0209 35.3532C52.1438 35.2415 52.2321 35.0968 52.2752 34.9363C52.3184 34.7758 52.3145 34.6064 52.2642 34.448C52.2139 34.2897 52.1191 34.1491 51.9913 34.043C51.8634 33.9369 51.7077 33.8697 51.5428 33.8494C51.2968 33.8392 51.0566 33.9264 50.8743 34.0921C50.6921 34.2577 50.5825 34.4885 50.5693 34.7345Z" fill="black"/>
<path d="M49.7081 39.3677C49.606 40.1676 50.0826 40.8825 50.7668 40.9676C51.451 41.0527 52.0841 40.4774 52.1862 39.6775C52.2883 38.8775 51.8118 38.1627 51.1276 38.0742C50.4434 37.9857 49.8069 38.578 49.7081 39.3677Z" fill="#BD60FB"/>
<path opacity="0.1" d="M50.0962 39.4151C50.1007 39.5812 50.1528 39.7426 50.2462 39.8799C50.3397 40.0173 50.4707 40.125 50.6235 40.1901C50.7764 40.2553 50.9447 40.2752 51.1085 40.2475C51.2724 40.2198 51.4248 40.1457 51.5478 40.0339C51.6707 39.9221 51.759 39.7774 51.8022 39.617C51.8453 39.4565 51.8415 39.287 51.7911 39.1287C51.7408 38.9703 51.646 38.8297 51.5182 38.7236C51.3903 38.6175 51.2347 38.5504 51.0697 38.5301C50.8237 38.5199 50.5835 38.6071 50.4013 38.7727C50.219 38.9384 50.1094 39.1692 50.0962 39.4151Z" fill="black"/>
<path d="M68.8486 38.7176C69.9525 38.7549 71.0388 38.435 71.9463 37.8054C73.8116 36.4438 73.6687 33.8431 73.6482 33.7206C73.6144 33.5606 73.5242 33.4182 73.394 33.3193C73.2638 33.2204 73.1023 33.1717 72.9392 33.182C72.776 33.1924 72.622 33.2611 72.5053 33.3756C72.3886 33.4901 72.3171 33.6428 72.3037 33.8057C72.3037 33.8057 72.4024 35.7766 71.1361 36.7059C68.9371 38.316 64.4984 36.6344 61.0774 34.5239C60.9278 34.4609 60.7607 34.4534 60.6061 34.5027C60.4515 34.5521 60.3196 34.655 60.2342 34.793C60.1488 34.931 60.1154 35.0949 60.1402 35.2553C60.165 35.4157 60.2463 35.5619 60.3694 35.6677C62.1122 36.7501 65.7238 38.7176 68.8486 38.7176Z" fill="#DBDBDB"/>
<path d="M47.938 36.9782C48.0566 37.0433 48.1838 37.0915 48.3159 37.1212C48.4703 37.1615 48.6294 37.181 48.789 37.179C49.8987 37.179 51.2875 36.3655 51.9615 35.1775C52.0198 35.1007 52.0611 35.0125 52.0827 34.9186C52.1044 34.8247 52.1058 34.7272 52.087 34.6327C52.0681 34.5382 52.0294 34.4488 51.9735 34.3703C51.9175 34.2919 51.8455 34.2262 51.7622 34.1777C51.679 34.1292 51.5864 34.0988 51.4905 34.0888C51.3947 34.0787 51.2978 34.089 51.2063 34.1192C51.1147 34.1494 51.0307 34.1986 50.9596 34.2637C50.8885 34.3288 50.832 34.4082 50.794 34.4967C50.597 34.8271 50.3344 35.1136 50.0223 35.3384C49.7103 35.5632 49.3554 35.7216 48.9796 35.8038C48.8571 35.8373 48.7278 35.8373 48.6052 35.8038H48.5848C48.5575 35.7596 48.5201 35.4634 48.8299 34.8303C48.8843 34.5852 49.0818 33.758 49.1396 33.5096C49.092 33.3428 48.3431 33.6185 48.0401 34.1325C46.9747 35.923 47.5159 36.7399 47.938 36.9782Z" fill="#DBDBDB"/>
<path d="M47.2232 41.5429C47.275 41.5701 47.3284 41.594 47.3832 41.6143C47.6429 41.7133 47.919 41.7618 48.1968 41.7573C48.8673 41.7307 49.5214 41.5414 50.1025 41.2057C50.6837 40.8701 51.1745 40.3982 51.5327 39.8307C51.6021 39.6771 51.612 39.5032 51.5607 39.3427C51.5093 39.1822 51.4002 39.0464 51.2545 38.9617C51.1088 38.877 50.9368 38.8494 50.7719 38.8841C50.607 38.9189 50.4608 39.0136 50.3617 39.1499C49.8103 40.1166 48.3602 40.6034 47.8359 40.331C47.7948 40.3079 47.7599 40.275 47.7344 40.2352C47.7089 40.1955 47.6935 40.1501 47.6896 40.103C47.6781 39.8011 47.74 39.5009 47.87 39.2282L48.1015 38.1287C48.0606 37.9278 47.3628 38.3057 47.0803 38.881C46.2939 40.4638 46.7603 41.3012 47.2232 41.5429Z" fill="#DBDBDB"/>
<path d="M68.8725 43.5135C70.1616 43.5401 71.4317 43.2002 72.5351 42.5331C74.5026 41.3111 74.5197 39.0202 74.5197 38.9249C74.5197 38.7444 74.4479 38.5712 74.3203 38.4435C74.1926 38.3159 74.0194 38.2441 73.8389 38.2441C73.6583 38.2441 73.4851 38.3159 73.3575 38.4435C73.2298 38.5712 73.1581 38.7444 73.1581 38.9249C73.1581 38.9896 73.1308 40.5691 71.7965 41.3928C68.2598 43.5952 63.1334 40.5452 61.091 39.1326C60.9448 39.0616 60.7781 39.0453 60.6209 39.0866C60.4637 39.1278 60.3265 39.2239 60.234 39.3575C60.1415 39.4911 60.0998 39.6534 60.1166 39.815C60.1333 39.9767 60.2072 40.127 60.3251 40.2389C63.9742 42.7476 66.7892 43.5135 68.8725 43.5135Z" fill="#DBDBDB"/>
<path d="M47.3356 46.9078H73.8457L73.5632 45.0186H47.7032L47.3356 46.9078Z" fill="#263238"/>
<path d="M52.3326 44.4463H57.8436V47.4792H52.3326V44.4463Z" fill="#A6A6A6"/>
<path d="M54.5656 44.4424L57.6019 47.4787H57.8436V46.1818L56.1042 44.4424H54.5656Z" fill="#DBDBDB"/>
<path d="M52.3326 46.8906V47.4795H52.9249L52.3326 46.8906Z" fill="#DBDBDB"/>
<path d="M53.4457 44.4424L56.4786 47.4787H57.2479L54.215 44.4424H53.4457Z" fill="#DBDBDB"/>
<path d="M52.3326 45.0762V45.2702L54.5418 47.4794H54.7392L52.3326 45.0762Z" fill="#DBDBDB"/>
<path d="M56.9756 44.4424L57.8436 45.3104V45.1198L57.1662 44.4424H56.9756Z" fill="#DBDBDB"/>
<path d="M67.9194 21.5578C70.0741 26.2825 72.6611 30.5783 75.1222 37.1582C77.8692 44.5006 78.3219 52.248 78.5772 53.0513C79.2342 55.1175 68.6887 55.6281 68.4062 54.1678C68.2258 53.2318 67.8003 45.8826 66.9833 39.6976C66.1153 33.1109 63.947 26.8169 63.3887 21.7893C62.81 16.5778 66.3297 18.0619 67.9194 21.5578Z" fill="#D3766A"/>
<path d="M70.9932 59.1481C70.6528 58.5966 70.3736 58.7669 70.2273 59.897C70.0809 61.0271 70.4587 65.6258 68.8453 65.6224C67.2318 65.619 66.7859 59.1243 67.1739 57.2589C67.562 55.3935 68.8453 52.5342 68.8453 52.5342C69.1857 53.763 70.2954 56.7108 70.9932 59.1481Z" fill="#37474F"/>
<path d="M78.247 51.04C79.0742 54.587 80.32 58.9509 79.0946 62.8756C78.9682 63.3141 78.6985 63.6976 78.3287 63.9649C77.8113 65.735 76.8207 66.0073 76.8207 66.0073C75.8336 67.505 74.7784 67.6582 74.7784 67.6582C74.7784 67.6582 74.1486 69.7278 72.8347 69.5542C71.3608 69.3636 72.5352 66.4907 72.2152 64.5232C71.4833 60.0061 69.1822 53.7836 68.8418 52.5037L78.247 51.04Z" fill="#37474F"/>
<path d="M74.7954 59.2637C75.024 60.5837 75.1627 61.9177 75.2107 63.2566C75.1712 64.7237 75.0222 66.1858 74.7647 67.6307C74.7644 67.6393 74.7671 67.6479 74.7723 67.6548C74.7776 67.6617 74.785 67.6666 74.7935 67.6686C74.8019 67.6706 74.8108 67.6696 74.8186 67.6658C74.8264 67.662 74.8326 67.6556 74.8362 67.6477C75.6088 64.9039 75.6159 62.001 74.8567 59.2535C74.8226 59.1922 74.7716 59.1956 74.7954 59.2637Z" fill="#263238"/>
<path d="M77.4437 58.4266C77.556 59.7338 77.7364 62.0348 76.7799 66.0107H76.8037C77.7419 63.5958 77.9895 60.9674 77.5186 58.4198C77.4913 58.3381 77.4369 58.3381 77.4437 58.4266Z" fill="#263238"/>
<path d="M78.8801 58.0004C78.9857 60.2334 78.7678 61.6529 78.3185 63.954C78.3185 63.954 78.3389 63.9744 78.3423 63.954C79.1286 61.3942 79.1252 60.3764 78.9584 57.98C78.955 57.9051 78.8801 57.9153 78.8801 58.0004Z" fill="#263238"/>
<path d="M78.972 51.7201L68.2597 53.7625C68.2597 53.7625 66.8028 51.9584 66.7211 50.6989C66.4658 46.7469 66.1152 39.071 65.8974 37.4813C65.3391 33.3966 63.0312 24.1752 63.1742 20.6113C63.3172 17.0473 65.7714 17.66 67.7968 20.9516C70.4145 25.2304 74.1622 32.2699 75.6021 36.2695C76.1944 37.9204 78.4682 44.2995 79.4282 48.0575C79.8094 49.5042 78.972 51.7201 78.972 51.7201Z" fill="#BD60FB"/>
<path opacity="0.4" d="M78.972 51.7201L68.2597 53.7625C68.2597 53.7625 66.8028 51.9584 66.7211 50.6989C66.4658 46.7469 66.1152 39.071 65.8974 37.4813C65.3391 33.3966 63.0312 24.1752 63.1742 20.6113C63.3172 17.0473 65.7714 17.66 67.7968 20.9516C70.4145 25.2304 74.1622 32.2699 75.6021 36.2695C76.1944 37.9204 78.4682 44.2995 79.4282 48.0575C79.8094 49.5042 78.972 51.7201 78.972 51.7201Z" fill="white"/>
<path opacity="0.1" d="M73.124 50.3286C73.9478 50.1788 74.7648 50.012 75.5851 49.8418C75.98 49.7635 76.3748 49.6852 76.7629 49.5899C77.1509 49.4946 77.6241 49.4197 78.036 49.2903C78.0404 49.2886 78.0442 49.2855 78.0469 49.2816C78.0495 49.2776 78.051 49.273 78.051 49.2682C78.051 49.2635 78.0495 49.2588 78.0469 49.2549C78.0442 49.2509 78.0404 49.2479 78.036 49.2461C77.6037 49.2699 77.168 49.3618 76.7391 49.4163C76.3102 49.4708 75.9459 49.5354 75.5511 49.6001C74.7239 49.7329 73.9002 49.8656 73.0764 50.0188C71.4289 50.3252 69.795 50.6758 68.1645 51.04C68.1563 51.04 68.1485 51.0432 68.1428 51.049C68.1371 51.0547 68.1338 51.0625 68.1338 51.0706C68.1338 51.0787 68.1371 51.0865 68.1428 51.0923C68.1485 51.098 68.1563 51.1013 68.1645 51.1013C69.8256 50.88 71.4765 50.6281 73.124 50.3286Z" fill="black"/>
<path d="M65.4821 37.6079L65.7987 38.898L75.4489 37.5364L74.9145 35.3545L65.4821 37.6079Z" fill="#BD60FB"/>
<path d="M70.2783 40.8886C71.3846 42.5293 75.9255 41.8281 76.4633 40.2078C77.1816 38.0769 76.0889 33.0595 74.3937 32.171C73.2398 31.5549 69.2027 32.457 68.818 33.8254C68.5832 34.6423 68.5253 35.5274 69.0461 37.5902C69.2537 38.4139 69.5363 39.7925 70.2783 40.8886Z" fill="#BD60FB"/>
<path opacity="0.7" d="M70.2783 40.8886C71.3846 42.5293 75.9255 41.8281 76.4633 40.2078C77.1816 38.0769 76.0889 33.0595 74.3937 32.171C73.2398 31.5549 69.2027 32.457 68.818 33.8254C68.5832 34.6423 68.5253 35.5274 69.0461 37.5902C69.2537 38.4139 69.5363 39.7925 70.2783 40.8886Z" fill="white"/>
<g opacity="0.7">
<path d="M69.4239 33.5529C71.0431 33.0297 72.7199 32.7051 74.4175 32.5862C72.6906 32.2394 70.8966 32.5867 69.4239 33.5529Z" fill="#BD60FB"/>
<path d="M69.2537 34.4308C71.1031 33.908 72.9933 33.5425 74.9043 33.3382C72.952 33.0759 70.9675 33.4596 69.2537 34.4308Z" fill="#BD60FB"/>
<path d="M69.4273 35.3269C71.3723 34.7665 73.3637 34.3814 75.3774 34.1764C73.3221 33.9146 71.2369 34.3178 69.4273 35.3269Z" fill="#BD60FB"/>
<path d="M69.6384 36.4086C71.6807 35.8606 73.6584 35.3363 75.7655 35.1695C73.6755 34.8564 71.4935 35.4214 69.6384 36.4086Z" fill="#BD60FB"/>
<path d="M76.0004 40.3711C74.4569 40.8773 72.8557 41.1873 71.2348 41.2936C72.0501 41.4725 72.8934 41.483 73.7128 41.3244C74.5323 41.1657 75.3107 40.8414 76.0004 40.3711Z" fill="#BD60FB"/>
<path d="M76.3986 39.4521C74.5487 39.972 72.6586 40.3363 70.748 40.5414C72.6999 40.803 74.6838 40.4205 76.3986 39.4521Z" fill="#BD60FB"/>
<path d="M76.225 38.5537C74.2804 39.1157 72.2889 39.5008 70.2749 39.7043C72.3302 39.9657 74.4153 39.5626 76.225 38.5537Z" fill="#BD60FB"/>
<path d="M76.2625 37.5352C74.2201 38.056 72.1981 38.5563 70.0876 38.7299C72.1913 39.0431 74.3869 38.4951 76.2625 37.5352Z" fill="#BD60FB"/>
<path d="M76.1025 36.7158C74.0601 37.2366 72.0381 37.737 69.9277 37.9072C72.0313 38.2204 74.2269 37.6757 76.1025 36.7158Z" fill="#BD60FB"/>
<path d="M69.8085 37.2971C71.9156 36.8955 73.9477 36.3815 76.048 35.9355C73.895 35.9402 71.7677 36.4044 69.8085 37.2971Z" fill="#BD60FB"/>
</g>
<path d="M68.2598 53.7562C67.5211 52.8371 66.8199 51.7479 66.7961 50.5395L66.619 46.9108C66.4965 44.4906 66.3433 42.0738 66.1867 39.657C66.1425 39.0613 66.0234 37.5159 65.9621 36.9338C65.5706 34.4761 64.8796 31.3683 64.3997 28.9004C64.1478 27.7158 63.9095 26.5176 63.6474 25.3467C63.8312 26.5415 64.0388 27.7295 64.2363 28.9311C64.6447 31.4126 65.2575 34.5136 65.6455 36.9678C65.7 37.5329 65.8089 39.0885 65.8498 39.691L66.3603 46.9381L66.6259 50.5497C66.7076 51.7887 67.4496 52.8678 68.2564 53.7562H68.2598Z" fill="#263238"/>
<path d="M63.1844 26.4736C63.3738 27.4667 63.7819 28.405 64.3792 29.2206C64.1 28.2577 63.6985 27.3345 63.1844 26.4736Z" fill="#263238"/>
<path d="M67.0309 26.2418L70.132 25.367L69.3184 23.5322L66.2174 24.407L67.0309 26.2418Z" fill="#BD60FB"/>
<path opacity="0.1" d="M67.0309 26.2418L70.132 25.367L69.3184 23.5322L66.2174 24.407L67.0309 26.2418Z" fill="black"/>
<path d="M67.3713 26.1432L70.4724 25.2683L69.6588 23.4336L66.5578 24.3084L67.3713 26.1432Z" fill="#BD60FB"/>
<path d="M57.1151 19.7843C58.4767 20.0259 60.6825 18.6507 61.4995 16.9419C61.5539 16.8262 61.3156 15.6382 61.091 14.1779C60.9582 13.2929 60.8323 12.3057 60.7812 11.3935C60.7812 11.2097 55.1476 13.0955 55.1476 13.0955C55.5366 14.217 55.787 15.3818 55.8931 16.5641C55.8969 16.6893 55.8901 16.8145 55.8727 16.9385C55.8727 16.9385 55.8727 16.976 55.8727 16.9998C55.791 17.7181 55.8046 19.546 57.1151 19.7843Z" fill="#D3766A"/>
<path d="M55.1477 13.0959C55.5208 14.1736 55.7686 15.2906 55.8864 16.425C57.4794 16.1935 60.1039 15.3834 60.9208 12.9223C60.8596 12.4117 60.8085 11.9011 60.7847 11.3939C60.7745 11.2067 55.1477 13.0959 55.1477 13.0959Z" fill="#263238"/>
<path d="M62.0952 4.90186C62.7011 6.94424 61.5948 12.7854 60.1413 14.0926C58.0411 15.975 54.6167 16.135 53.0202 13.6092C51.4782 11.1618 53.0543 3.56069 54.6746 2.37611C57.0573 0.640086 61.2 1.89955 62.0952 4.90186Z" fill="#D3766A"/>
<path d="M56.87 8.71484C56.87 8.71484 56.8973 8.73867 56.8939 8.75569C56.8258 9.15055 56.8088 9.61349 57.1492 9.79731C57.1492 9.79731 57.1492 9.82454 57.1492 9.82113C56.7135 9.69519 56.7543 9.07907 56.87 8.71484Z" fill="#263238"/>
<path d="M57.2854 8.35349C57.9321 8.39774 57.7926 9.68444 57.1935 9.64359C56.5944 9.60275 56.7544 8.31264 57.2854 8.35349Z" fill="#263238"/>
<path d="M54.5384 8.38086C54.5384 8.38086 54.5078 8.38086 54.5044 8.4149C54.4737 8.81316 54.375 9.26589 53.9972 9.3612C53.9972 9.3612 53.9972 9.38503 53.9972 9.38163C54.4465 9.36801 54.5758 8.76551 54.5384 8.38086Z" fill="#263238"/>
<path d="M54.2286 7.94239C53.5921 7.82325 53.4048 9.10315 53.9937 9.21207C54.5826 9.321 54.763 8.02409 54.2286 7.94239Z" fill="#263238"/>
<path d="M57.8198 7.88076C57.645 7.85039 57.4722 7.80947 57.3024 7.75822C57.1135 7.74118 56.936 7.66081 56.7986 7.53015C56.7605 7.4816 56.7398 7.42167 56.7398 7.35996C56.7398 7.29824 56.7605 7.23831 56.7986 7.18976C56.8891 7.1075 57.0001 7.05112 57.1198 7.02657C57.2396 7.00201 57.3638 7.01017 57.4794 7.05019C57.7238 7.09294 57.9434 7.22523 58.0955 7.42123C58.13 7.46724 58.15 7.52249 58.153 7.57992C58.156 7.63736 58.1417 7.69438 58.1122 7.74369C58.0826 7.79301 58.0389 7.83239 57.9869 7.8568C57.9348 7.88122 57.8766 7.88956 57.8198 7.88076Z" fill="#263238"/>
<path d="M53.7418 7.2609C53.9182 7.28016 54.0955 7.28925 54.2728 7.28813C54.4576 7.32572 54.6497 7.29931 54.8175 7.21324C54.8701 7.17609 54.9076 7.1213 54.9232 7.05884C54.9388 6.99637 54.9315 6.93038 54.9026 6.87285C54.8415 6.76692 54.7529 6.67941 54.6463 6.61951C54.5397 6.55961 54.4189 6.52954 54.2967 6.53245C54.0557 6.50553 53.8132 6.56856 53.6159 6.70946C53.5588 6.73955 53.5134 6.78763 53.4865 6.84623C53.4596 6.90483 53.4528 6.97068 53.4671 7.03354C53.4815 7.0964 53.5162 7.15276 53.5658 7.19387C53.6155 7.23498 53.6774 7.25855 53.7418 7.2609Z" fill="#263238"/>
<path d="M56.6454 11.0665C56.5276 11.2136 56.3806 11.3346 56.2136 11.4219C56.0466 11.5092 55.8633 11.5609 55.6753 11.5737C55.5101 11.5873 55.3439 11.577 55.1817 11.5431C55.1504 11.5395 55.1196 11.5327 55.0898 11.5227L55.0047 11.4988C54.9835 11.4927 54.9649 11.4797 54.9519 11.4618C54.9389 11.4439 54.9324 11.4222 54.9332 11.4001C54.9313 11.3866 54.9313 11.3728 54.9332 11.3593V11.3252C54.9604 11.0155 55.0387 10.5525 55.0387 10.5525C54.9196 10.5968 54.3205 10.7908 54.3579 10.6342C54.5422 9.25329 54.8673 7.89484 55.3281 6.58009C55.3314 6.57444 55.3361 6.56975 55.3418 6.5665C55.3474 6.56324 55.3539 6.56152 55.3604 6.56152C55.367 6.56152 55.3734 6.56324 55.3791 6.5665C55.3847 6.56975 55.3895 6.57444 55.3928 6.58009C55.2294 7.85658 54.8447 9.09563 54.6609 10.3755C54.8743 10.3037 55.0964 10.2613 55.3213 10.2496C55.3655 10.2666 55.1511 11.1448 55.1511 11.2708C55.4001 11.3235 55.6572 11.3253 55.907 11.2762C56.1568 11.2271 56.3941 11.128 56.6046 10.9848C56.6454 11.0053 56.6726 11.0359 56.6454 11.0665Z" fill="#263238"/>
<path d="M55.3927 11.4072C55.5373 11.6439 55.74 11.8396 55.9816 11.9757C56.1168 12.0453 56.2701 12.0714 56.4207 12.0506C56.7611 11.9995 56.7884 11.7102 56.7611 11.4549C56.7439 11.3184 56.7096 11.1846 56.659 11.0566C56.2855 11.3064 55.8415 11.4293 55.3927 11.4072Z" fill="#263238"/>
<path d="M55.9714 11.9756C56.1066 12.0451 56.26 12.0713 56.4105 12.0505C56.7509 11.9994 56.7782 11.7101 56.7509 11.4548C56.5812 11.4405 56.4117 11.4843 56.2701 11.5789C56.1285 11.6735 56.0232 11.8134 55.9714 11.9756Z" fill="#FF9ABB"/>
<path d="M61.8603 9.89569C60.9787 10.0693 60.3728 8.99364 60.1924 8.43879C60.0119 7.88395 60.6281 5.29693 60.2706 4.45955C59.9132 3.62218 59.0452 3.09797 58.3202 3.26136C57.5951 3.42475 56.6182 3.90471 56.0872 3.8162C55.5561 3.7277 55.5017 2.85969 55.1375 2.83246C54.3341 2.77118 53.3844 4.37786 53.1734 5.24927C53.1734 5.24927 53.4116 1.50491 57.282 1.45385C61.0604 1.40279 62.0748 4.0715 62.3164 5.22885C62.793 7.44143 61.8603 9.89569 61.8603 9.89569Z" fill="#263238"/>
<path d="M60.3796 10.2976C60.3796 10.2976 61.7412 8.4356 62.6024 8.93598C63.4636 9.43637 62.3811 12.1493 61.3633 12.4999C61.2357 12.5546 61.0983 12.5827 60.9594 12.5825C60.8206 12.5822 60.6832 12.5537 60.5558 12.4986C60.4284 12.4434 60.3135 12.3629 60.2182 12.2619C60.123 12.1609 60.0493 12.0415 60.0017 11.9111L60.3796 10.2976Z" fill="#D3766A"/>
<path d="M62.2755 9.70508C62.2926 9.70508 62.296 9.7255 62.2755 9.73231C61.5607 9.99782 61.1692 10.6446 60.8901 11.3186C60.9333 11.2491 60.991 11.1899 61.0591 11.1447C61.1273 11.0996 61.2044 11.0698 61.2852 11.0572C61.366 11.0446 61.4485 11.0495 61.5272 11.0717C61.6059 11.0939 61.6788 11.1328 61.7411 11.1858C61.7615 11.1858 61.7411 11.2267 61.7207 11.2232C61.5979 11.1806 61.4649 11.177 61.3399 11.213C61.215 11.2489 61.1042 11.3227 61.0229 11.4241C60.8891 11.5958 60.7749 11.7819 60.6825 11.9789C60.645 12.0402 60.5327 12.0028 60.5599 11.9313C60.5701 11.0054 61.3054 9.76975 62.2755 9.70508Z" fill="#263238"/>
<path d="M61.782 16.9384C61.782 16.9384 61.782 14.6645 61.7037 14.525C61.6255 14.3854 58.453 16.5674 58.1568 16.6831C57.8607 16.7988 57.2616 19.1476 57.2616 19.1476C57.2616 19.1476 56.8701 16.9486 56.7578 16.8703C56.388 16.5672 56.0004 16.2864 55.597 16.0295C55.4847 16.0295 55.757 18.3612 55.7808 18.7016C55.8047 19.042 55.9238 19.7739 57.0369 19.8964C58.0393 19.9699 59.039 19.723 59.8919 19.1913C60.7448 18.6596 61.4067 17.8707 61.782 16.9384Z" fill="#BD60FB"/>
<path opacity="0.2" d="M61.782 16.9384C61.782 16.9384 61.782 14.6645 61.7037 14.525C61.6255 14.3854 58.453 16.5674 58.1568 16.6831C57.8607 16.7988 57.2616 19.1476 57.2616 19.1476C57.2616 19.1476 56.8701 16.9486 56.7578 16.8703C56.388 16.5672 56.0004 16.2864 55.597 16.0295C55.4847 16.0295 55.757 18.3612 55.7808 18.7016C55.8047 19.042 55.9238 19.7739 57.0369 19.8964C58.0393 19.9699 59.039 19.723 59.8919 19.1913C60.7448 18.6596 61.4067 17.8707 61.782 16.9384Z" fill="black"/>
<path d="M54.5214 17.6736L54.6609 19.1067C54.7528 20.0292 58.0411 20.3253 59.7669 20.1551C61.4927 19.9849 64.6482 19.0522 64.5563 18.1332L64.4133 16.7001C64.3793 16.3597 63.947 15.5189 59.355 15.9716C54.763 16.4244 54.4873 17.3264 54.5214 17.6736Z" fill="#BD60FB"/>
<path opacity="0.2" d="M54.5214 17.6736L54.6609 19.1067C54.7528 20.0292 58.0411 20.3253 59.7669 20.1551C61.4927 19.9849 64.6482 19.0522 64.5563 18.1332L64.4133 16.7001C64.3793 16.3597 63.947 15.5189 59.355 15.9716C54.763 16.4244 54.4873 17.3264 54.5214 17.6736Z" fill="white"/>
<path opacity="0.2" d="M54.5656 17.6636C54.6779 18.392 56.4991 18.6065 56.996 18.6848C58.7371 18.9118 60.507 18.7372 62.1701 18.1742C62.8152 17.9903 63.4266 17.7042 63.981 17.3266C64.0876 17.2613 64.1774 17.1718 64.2431 17.0653C64.3087 16.9589 64.3484 16.8385 64.3588 16.7139C64.3588 17.17 63.678 17.4934 63.3853 17.6329C62.5829 17.981 61.7452 18.2412 60.8868 18.409C59.6089 18.6755 58.297 18.7387 56.9994 18.5963C56.5025 18.5418 54.6882 18.3784 54.5656 17.6772V17.6636Z" fill="black"/>
<path opacity="0.2" d="M55.5732 19.0864C55.5732 19.2328 55.6787 19.3451 55.774 19.3349C55.8694 19.3247 55.9408 19.1988 55.9238 19.0524C55.9068 18.906 55.8217 18.7971 55.723 18.8073C55.6243 18.8175 55.5596 18.9435 55.5732 19.0864Z" fill="black"/>
<path d="M55.6481 19.0798C55.6481 19.2126 55.7332 19.3147 55.8081 19.3079C55.883 19.3011 55.9374 19.1854 55.9238 19.0526C55.9102 18.9199 55.8387 18.8177 55.7604 18.8245C55.6821 18.8313 55.6345 18.9471 55.6481 19.0798Z" fill="#263238"/>
<path opacity="0.2" d="M63.2832 18.5688C63.2832 18.5059 63.2587 18.4454 63.2148 18.4003C63.171 18.3552 63.1112 18.3289 63.0483 18.3271C63.0177 18.334 62.9886 18.3468 62.9629 18.3649C62.9372 18.383 62.9154 18.406 62.8986 18.4326C62.8819 18.4592 62.8705 18.4888 62.8652 18.5198C62.86 18.5507 62.8609 18.5825 62.8679 18.6131C62.8679 18.676 62.8924 18.7365 62.9363 18.7816C62.9801 18.8267 63.0399 18.853 63.1028 18.8548C63.1335 18.8479 63.1625 18.8351 63.1882 18.817C63.2139 18.7989 63.2357 18.7759 63.2525 18.7493C63.2693 18.7228 63.2806 18.6931 63.2859 18.6622C63.2911 18.6312 63.2902 18.5995 63.2832 18.5688Z" fill="black"/>
<path d="M63.198 18.5799C63.198 18.4471 63.0993 18.345 63.0074 18.3552C62.9155 18.3654 62.8542 18.4777 62.8679 18.6139C62.8815 18.7501 62.9632 18.8454 63.0551 18.8386C63.147 18.8318 63.2219 18.7126 63.198 18.5799Z" fill="#263238"/>
<path opacity="0.2" d="M54.9435 18.8823C54.9435 19.0287 55.0456 19.141 55.1443 19.1308C55.243 19.1206 55.3077 18.9947 55.2941 18.8483C55.2805 18.7019 55.1886 18.593 55.0933 18.6032C54.9979 18.6134 54.9299 18.7394 54.9435 18.8823Z" fill="black"/>
<path d="M55.0149 18.8757C55.0149 19.0119 55.1 19.1106 55.1783 19.1038C55.2566 19.097 55.3077 18.9813 55.2941 18.8485C55.2805 18.7157 55.209 18.6136 55.1307 18.6204C55.0524 18.6272 55.0013 18.743 55.0149 18.8757Z" fill="#263238"/>
<path opacity="0.2" d="M63.4499 18.1742L63.4942 18.6371C63.8789 18.4709 64.2262 18.229 64.5154 17.9257L64.4677 17.4287C64.1977 17.7601 63.8473 18.0167 63.4499 18.1742Z" fill="black"/>
<path d="M63.45 18.1739L63.484 18.5415C63.8659 18.401 64.2065 18.1669 64.4745 17.8607L64.4371 17.4795C64.1693 17.7876 63.8305 18.026 63.45 18.1739Z" fill="#263238"/>
<path opacity="0.2" d="M63.1844 18.9571C62.8747 19.0388 62.7181 18.729 62.7998 18.375C62.7585 18.4477 62.7363 18.5297 62.7351 18.6133C62.7317 18.6472 62.7317 18.6814 62.7351 18.7154C62.7828 18.9809 63.0108 19.0932 63.181 18.9571H63.1844Z" fill="black"/>
<path d="M63.9027 16.2617C64.019 16.3449 64.1041 16.4648 64.1443 16.6021C64.1852 16.9663 63.5248 17.2522 63.307 17.3611C62.8372 17.5824 62.3471 17.7492 61.8705 17.9398C62.456 17.8173 63.7427 17.4565 64.1205 16.8982C64.3009 16.6123 64.1205 16.3842 63.9027 16.248V16.2617Z" fill="white"/>
<path d="M48.6052 9.85869C48.6149 10.0711 48.6633 10.2799 48.7482 10.4748C48.7652 10.5123 48.7856 10.5463 48.8026 10.5837C48.814 10.5988 48.8243 10.6148 48.8333 10.6314L48.8503 10.6518C48.9387 10.7998 49.069 10.9183 49.2247 10.9922C49.2657 11.012 49.3092 11.0257 49.3541 11.0331H49.3847H49.4834C49.5255 11.031 49.567 11.0218 49.606 11.0058C49.606 10.9752 49.606 10.9412 49.606 10.9105C49.5577 10.6088 49.5338 10.3038 49.5345 9.99826C49.5286 9.59537 49.5525 9.19261 49.606 8.79325C49.6092 8.74403 49.6161 8.69511 49.6264 8.64688C49.5489 8.61468 49.4651 8.6007 49.3813 8.60603C49.3496 8.60268 49.3177 8.60268 49.286 8.60603H49.2588C49.2072 8.62083 49.1571 8.6402 49.109 8.6639C48.9808 8.7417 48.8742 8.85058 48.7992 8.98047C48.7903 8.98985 48.7843 9.00171 48.7822 9.01451C48.766 9.04095 48.7513 9.06822 48.738 9.0962C48.7172 9.14166 48.699 9.18826 48.6835 9.23577C48.6172 9.43636 48.5906 9.64794 48.6052 9.85869Z" fill="#37474F"/>
<path d="M48.6291 9.85489C48.6337 10.0371 48.667 10.2175 48.7278 10.3893C48.7472 10.4462 48.7699 10.5019 48.7959 10.5561C48.7959 10.5561 48.8197 10.6038 48.8299 10.6276L48.8469 10.648C48.9253 10.8039 49.0587 10.9252 49.2214 10.9884C49.262 11.0021 49.3045 11.009 49.3473 11.0088H49.3746C49.452 11.0011 49.526 10.9729 49.589 10.9271C49.5408 10.6255 49.5168 10.3204 49.5175 10.0149C49.5164 9.6059 49.546 9.19741 49.606 8.79286C49.5153 8.70259 49.3936 8.65026 49.2656 8.64648C49.2174 8.64888 49.17 8.66044 49.1261 8.68052C48.9904 8.74857 48.8814 8.85999 48.8163 8.99709C48.8073 9.00648 48.8014 9.01834 48.7993 9.03113C48.7813 9.06366 48.7664 9.09786 48.755 9.13325C48.7289 9.19631 48.7073 9.26115 48.6903 9.32728C48.6465 9.49962 48.6259 9.67708 48.6291 9.85489Z" fill="#455A64"/>
<path d="M48.7278 10.3896C48.733 10.4172 48.7398 10.4445 48.7482 10.4713C48.8068 10.6991 48.8986 10.917 49.0206 11.1181C49.1746 11.3968 49.4129 11.6196 49.7014 11.7546H49.7354H49.7558H49.8001C49.7162 11.5104 49.6513 11.26 49.606 11.0057C49.606 10.9751 49.606 10.9411 49.606 10.9104C49.5578 10.6087 49.5339 10.3037 49.5346 9.99816C49.5286 9.59527 49.5525 9.19251 49.606 8.79315C49.6093 8.74393 49.6161 8.69501 49.6265 8.64678C49.6689 8.37001 49.728 8.09606 49.8035 7.82642C49.8035 7.8026 49.8035 7.78557 49.8035 7.76855C49.725 7.77914 49.649 7.80333 49.5788 7.84004C49.5722 7.8377 49.565 7.8377 49.5584 7.84004C49.5505 7.83838 49.5424 7.83838 49.5346 7.84004H49.5107C49.24 7.99688 49.0256 8.23511 48.898 8.52083C48.8858 8.54137 48.8755 8.56303 48.8674 8.58551C48.7685 8.79251 48.6997 9.01259 48.6631 9.23907V9.31396C48.6395 9.48763 48.6316 9.66307 48.6393 9.83817C48.6498 10.0245 48.6795 10.2093 48.7278 10.3896Z" fill="#BD60FB"/>
<path opacity="0.1" d="M48.7278 10.3896C48.733 10.4172 48.7398 10.4445 48.7482 10.4713C48.8068 10.6991 48.8986 10.917 49.0206 11.1181C49.1746 11.3968 49.4129 11.6196 49.7014 11.7546H49.7354H49.7558H49.8001C49.7162 11.5104 49.6513 11.26 49.606 11.0057C49.606 10.9751 49.606 10.9411 49.606 10.9104C49.5578 10.6087 49.5339 10.3037 49.5346 9.99816C49.5286 9.59527 49.5525 9.19251 49.606 8.79315C49.6093 8.74393 49.6161 8.69501 49.6265 8.64678C49.6689 8.37001 49.728 8.09606 49.8035 7.82642C49.8035 7.8026 49.8035 7.78557 49.8035 7.76855C49.725 7.77914 49.649 7.80333 49.5788 7.84004C49.5722 7.8377 49.565 7.8377 49.5584 7.84004C49.5505 7.83838 49.5424 7.83838 49.5346 7.84004H49.5107C49.24 7.99688 49.0256 8.23511 48.898 8.52083C48.8858 8.54137 48.8755 8.56303 48.8674 8.58551C48.7685 8.79251 48.6997 9.01259 48.6631 9.23907V9.31396C48.6395 9.48763 48.6316 9.66307 48.6393 9.83817C48.6498 10.0245 48.6795 10.2093 48.7278 10.3896Z" fill="black"/>
<path d="M48.6904 9.85494C48.6982 10.0931 48.7336 10.3296 48.7959 10.5596C48.794 10.5674 48.794 10.5756 48.7959 10.5834C48.848 10.7703 48.9211 10.9507 49.0138 11.1212C49.0794 11.2671 49.1734 11.3985 49.2903 11.5078C49.4072 11.617 49.5446 11.702 49.6945 11.7578C49.7045 11.7611 49.7152 11.7611 49.7252 11.7578H49.7422H49.7865C49.707 11.512 49.6467 11.2605 49.606 11.0055C49.606 10.9748 49.606 10.9408 49.606 10.9102C49.5578 10.6085 49.5339 10.3034 49.5346 9.9979C49.5286 9.59502 49.5525 9.19225 49.606 8.7929C49.6093 8.74368 49.6161 8.69476 49.6265 8.64653C49.6689 8.36976 49.728 8.09581 49.8035 7.82617H49.749C49.6948 7.8286 49.641 7.83775 49.589 7.8534H49.5652H49.5414C49.3991 7.92037 49.2715 8.01509 49.1663 8.13199C49.0611 8.2489 48.9803 8.38564 48.9287 8.5342C48.9164 8.55474 48.9062 8.57639 48.898 8.59887C48.8295 8.76424 48.7793 8.9366 48.7482 9.11287C48.7482 9.11287 48.7482 9.11287 48.7482 9.1333C48.7005 9.37071 48.6811 9.61295 48.6904 9.85494Z" fill="#BD60FB"/>
<path d="M49.3575 11.0053C49.3575 11.0053 49.3575 11.0053 49.3575 11.0257C49.4318 11.2173 49.5229 11.4018 49.6298 11.5772C49.6701 11.6456 49.7145 11.7115 49.7626 11.7746C49.7626 11.7746 49.8069 11.8325 49.8307 11.8631C49.8192 11.8382 49.8112 11.8119 49.8069 11.7848C49.7191 11.5308 49.652 11.2701 49.606 11.0053C49.606 10.9747 49.606 10.9406 49.606 10.91C49.5578 10.6083 49.5339 10.3032 49.5345 9.99773C49.5286 9.59485 49.5525 9.19208 49.606 8.79273C49.6093 8.74351 49.6161 8.69459 49.6264 8.64636C49.6689 8.36959 49.728 8.09564 49.8034 7.826C49.8034 7.80217 49.8034 7.78515 49.8034 7.76813C49.8375 7.64559 49.8783 7.52985 49.9192 7.42773C49.7861 7.55272 49.6715 7.69599 49.5788 7.85323C49.5788 7.85323 49.5311 7.93493 49.5073 7.97237C49.4921 7.99706 49.4795 8.02331 49.4699 8.05066C49.3815 8.23343 49.3131 8.42515 49.2656 8.62253V8.64636C49.1621 9.03339 49.1196 9.4342 49.1397 9.83434C49.1485 10.2339 49.222 10.6293 49.3575 11.0053Z" fill="#37474F"/>
<path d="M49.3848 11.0056C49.3848 11.0056 49.3848 11.026 49.3848 11.0362C49.4496 11.2243 49.5304 11.4066 49.6265 11.5808C49.6615 11.6465 49.7001 11.7101 49.7422 11.7715C49.7422 11.7715 49.8103 11.8668 49.8443 11.9076C49.8443 11.9076 49.8443 11.8804 49.8443 11.8668C49.8328 11.8419 49.8248 11.8155 49.8205 11.7885C49.728 11.5337 49.6562 11.2719 49.606 11.0056C49.606 10.9749 49.606 10.9409 49.606 10.9102C49.5578 10.6086 49.5339 10.3035 49.5346 9.99798C49.5286 9.5951 49.5525 9.19233 49.606 8.79298C49.6093 8.74376 49.6161 8.69484 49.6265 8.64661C49.6689 8.36984 49.728 8.09589 49.8035 7.82625C49.8035 7.80242 49.8035 7.7854 49.8035 7.76838C49.8375 7.64584 49.8784 7.5301 49.9192 7.42798C49.9245 7.40819 49.9313 7.38884 49.9396 7.37012C49.7872 7.51344 49.6586 7.68004 49.5584 7.86369C49.5371 7.90006 49.5178 7.93756 49.5005 7.97602C49.4853 8.00072 49.4727 8.02696 49.4631 8.05432C49.3816 8.23766 49.3167 8.4279 49.2691 8.62278V8.65341C49.1796 9.04157 49.143 9.44003 49.1601 9.838C49.1811 10.2356 49.2567 10.6285 49.3848 11.0056Z" fill="#455A64"/>
<path d="M64.5086 10.0457C64.5086 12.3297 62.7317 15.5669 56.339 15.5499C54.0005 15.5499 52.4143 14.9372 51.3658 14.0623C51.674 14.6372 52.0451 15.176 52.4721 15.669C53.5716 16.9319 56.1246 17.9224 58.4121 17.8271C60.7948 17.7284 62.6534 17.3302 63.8278 16.6596C67.9125 14.3347 68.2529 10.5699 67.9874 7.92498C67.3951 2.90072 63.3751 -0.207101 58.0853 0.0107532C56.255 0.0781081 54.5001 0.75675 53.1007 1.93832C51.7014 3.1199 50.7382 4.73627 50.3651 6.52935C50.644 6.0496 51.0238 5.63614 51.4782 5.31754C52.9208 4.34839 54.6328 3.85992 56.3697 3.92191C58.3099 3.92191 61.0569 4.15679 62.5921 5.34477C63.7154 6.21279 64.5154 7.76159 64.5086 10.0457Z" fill="#BD60FB"/>
<path opacity="0.4" d="M64.5086 10.0457C64.5086 12.3297 62.7317 15.5669 56.339 15.5499C54.0005 15.5499 52.4143 14.9372 51.3658 14.0623C51.674 14.6372 52.0451 15.176 52.4721 15.669C53.5716 16.9319 56.1246 17.9224 58.4121 17.8271C60.7948 17.7284 62.6534 17.3302 63.8278 16.6596C67.9125 14.3347 68.2529 10.5699 67.9874 7.92498C67.3951 2.90072 63.3751 -0.207101 58.0853 0.0107532C56.255 0.0781081 54.5001 0.75675 53.1007 1.93832C51.7014 3.1199 50.7382 4.73627 50.3651 6.52935C50.644 6.0496 51.0238 5.63614 51.4782 5.31754C52.9208 4.34839 54.6328 3.85992 56.3697 3.92191C58.3099 3.92191 61.0569 4.15679 62.5921 5.34477C63.7154 6.21279 64.5154 7.76159 64.5086 10.0457Z" fill="white"/>
<g opacity="0.5">
<path d="M63.1334 3.35335C61.7593 2.32577 60.109 1.73301 58.3951 1.65137C60.06 1.94457 61.6625 2.52018 63.1334 3.35335Z" fill="white"/>
<path d="M64.9885 5.26368C64.6829 4.55658 64.1497 3.97191 63.4738 3.60254C63.5384 3.67402 63.6065 3.7387 63.6712 3.81018C64.1367 4.2701 64.5765 4.75533 64.9885 5.26368Z" fill="white"/>
</g>
<g opacity="0.5">
<path d="M62.8169 1.95501C62.8169 2.04351 62.9428 2.10819 63.0858 2.10138C63.2288 2.09457 63.3445 2.01968 63.3411 1.93459C63.3377 1.84949 63.2186 1.78481 63.0722 1.78821C62.9258 1.79162 62.8135 1.86991 62.8169 1.95501Z" fill="white"/>
<path d="M61.2409 1.51941C61.2409 1.74067 61.5302 1.92789 61.9012 1.94151C62.2723 1.95512 62.582 1.78492 62.582 1.56366C62.582 1.34241 62.2927 1.15519 61.9217 1.14498C61.5506 1.13476 61.2477 1.30156 61.2409 1.51941Z" fill="white"/>
</g>
<path d="M56.3323 15.5497C62.7318 15.5667 64.5018 12.3296 64.5018 10.0455C64.5018 7.76144 63.7087 6.21264 62.5786 5.34462C61.0434 4.15664 58.2964 3.92517 56.3561 3.92176C54.6193 3.85977 52.9073 4.34824 51.4646 5.31739C50.6477 5.87564 50.0316 6.82195 49.7252 8.11546C49.7729 7.15561 50.021 6.21638 50.4536 5.35824C51.754 3.01631 55.3111 2.5806 57.0301 2.584C58.7491 2.58741 63.1573 3.03333 64.4338 5.38547C65.7102 7.73762 65.3869 12.4385 63.9334 13.9396C62.6262 15.3012 60.2809 16.0365 57.0063 16.0059C54.7665 15.982 53.0883 15.6995 51.5089 14.28C51.365 14.1479 51.2318 14.0044 51.1106 13.8511C52.159 14.8349 53.8134 15.5429 56.3323 15.5497Z" fill="#BD60FB"/>
<g opacity="0.5">
<path d="M62.6636 4.83844C62.6636 4.90652 62.7351 4.9746 62.8474 4.99502C62.9598 5.01545 63.0653 4.978 63.0755 4.90992C63.0857 4.84184 63.004 4.77376 62.8917 4.75334C62.7793 4.73292 62.6772 4.77376 62.6636 4.83844Z" fill="white"/>
<path d="M61.5199 4.2425C61.4756 4.4093 61.6731 4.60332 61.9624 4.67481C62.2517 4.74629 62.5138 4.67481 62.5581 4.4978C62.6023 4.32079 62.4015 4.13698 62.1156 4.0655C61.8296 3.99401 61.5505 4.0723 61.5199 4.2425Z" fill="white"/>
</g>
<path opacity="0.8" d="M49.5277 10.0116C49.5277 12.2957 50.9233 15.5363 56.3357 15.5499C62.7351 15.5499 64.5052 12.3297 64.5052 10.0457C64.5052 7.76159 63.7121 6.21278 62.5853 5.34477C61.0468 4.15678 58.2997 3.92531 56.3561 3.92191C54.6206 3.86204 52.9103 4.35035 51.468 5.31754C50.2868 6.12428 49.5311 7.72755 49.5277 10.0116Z" fill="#263238"/>
<g opacity="0.5">
<path d="M58.4156 15.4304C59.5605 15.3047 60.6727 14.9701 61.697 14.4432C62.2099 13.6594 62.5574 12.779 62.7182 11.8562C63.1609 9.5477 62.9147 7.15995 62.0102 4.99039C61.2772 4.60471 60.488 4.33705 59.6717 4.19727C60.9992 7.02256 61.3838 12.3225 58.4156 15.4304Z" fill="white"/>
<path d="M59.641 11.2199C59.5693 11.5869 59.4726 11.9485 59.3516 12.3023C59.5359 11.9711 59.6865 11.6221 59.8009 11.2607C60.4817 8.87793 59.9473 6.30113 58.9227 4.08174C58.8922 4.07822 58.8614 4.07822 58.8308 4.08174C59.5286 6.37942 60.0903 8.82687 59.641 11.2199Z" fill="white"/>
<path d="M52.1829 14.624C52.4231 14.7549 52.6722 14.8686 52.9283 14.9644C50.886 13.5348 49.9499 10.8797 50.3686 8.4254C50.3958 8.03394 50.5081 7.6561 50.566 7.26465C50.4208 7.63409 50.3002 8.01276 50.2052 8.39817C49.6061 10.6346 50.3652 13.2352 52.1829 14.624Z" fill="white"/>
<path d="M50.9676 10.6041C50.9302 8.97364 51.0834 7.26145 51.7948 5.77051C50.7021 6.86999 50.4332 9.17448 50.9676 10.6041Z" fill="white"/>
</g>
<path d="M65.2881 9.73196C65.2166 11.274 66.0131 12.5641 67.0684 12.6117C68.1236 12.6594 69.0359 11.451 69.1107 9.91237C69.1856 8.37378 68.3857 7.08027 67.3305 7.03261C66.2752 6.98496 65.3596 8.19337 65.2881 9.73196Z" fill="#37474F"/>
<path d="M67.3638 12.5378C66.498 12.4975 65.8525 11.2546 65.9218 9.76169C65.9912 8.26873 66.7492 7.09105 67.615 7.13128C68.4807 7.1715 69.1263 8.41438 69.0569 9.90734C68.9875 11.4003 68.2295 12.578 67.3638 12.5378Z" fill="#455A64"/>
<path d="M68.0864 11.9176C67.3127 11.8816 66.7281 10.936 66.7806 9.80548C66.8331 8.67497 67.5029 7.78764 68.2766 7.82359C69.0503 7.85953 69.635 8.80514 69.5825 9.93566C69.5299 11.0662 68.8601 11.9535 68.0864 11.9176Z" fill="#BD60FB"/>
<path opacity="0.1" d="M68.0864 11.9176C67.3127 11.8816 66.7281 10.936 66.7806 9.80548C66.8331 8.67497 67.5029 7.78764 68.2766 7.82359C69.0503 7.85953 69.635 8.80514 69.5825 9.93566C69.5299 11.0662 68.8601 11.9535 68.0864 11.9176Z" fill="black"/>
<path d="M67.2454 9.82477C67.1943 10.9208 67.6675 11.8331 68.3006 11.8672C68.9337 11.9012 69.492 11.0332 69.543 9.9371C69.5941 8.84102 69.1209 7.93216 68.4844 7.89472C67.8479 7.85727 67.3066 8.72869 67.2454 9.82477Z" fill="#BD60FB"/>
<path d="M67.9602 9.8587C67.9295 10.5395 68.2767 11.0943 68.7363 11.1148C69.1958 11.1352 69.5975 10.6076 69.6281 9.937C69.6588 9.26642 69.3115 8.70136 68.852 8.67753C68.3925 8.6537 67.9874 9.18472 67.9602 9.8587Z" fill="#37474F"/>
<path d="M68.2359 9.87165C68.2053 10.5218 68.4878 11.0665 68.8656 11.0835C69.2435 11.1005 69.5771 10.5865 69.6077 9.93293C69.6383 9.27936 69.3558 8.73813 68.978 8.72111C68.6001 8.70409 68.2665 9.21809 68.2359 9.87165Z" fill="#455A64"/>
<path d="M31.6672 141.735L32.3309 0.4702L31.3676 0.466797L30.7038 141.732L31.6672 141.735Z" fill="#263238"/>
<path d="M15.8591 32.3214L15.9885 12.0508C15.9862 12.3983 15.9276 12.7432 15.8149 13.072C15.6874 13.4392 15.5024 13.7839 15.2668 14.0932C13.4797 16.4759 8.40102 18.0724 0.125973 18.8587L1.71661e-05 39.1294C8.27507 38.3464 13.3504 36.7466 15.1409 34.3638C15.3754 34.0545 15.5593 33.7097 15.6855 33.3426C15.7982 33.0138 15.8569 32.669 15.8591 32.3214Z" fill="#BD60FB"/>
<g opacity="0.1">
<path d="M15.8591 32.3214L15.9885 12.0508C15.9862 12.3983 15.9276 12.7432 15.8149 13.072C15.6874 13.4392 15.5024 13.7839 15.2668 14.0932C13.4797 16.4759 8.40102 18.0724 0.125973 18.8587L1.71661e-05 39.1294C8.27507 38.3464 13.3504 36.7466 15.1409 34.3638C15.3754 34.0545 15.5593 33.7097 15.6855 33.3426C15.7982 33.0138 15.8569 32.669 15.8591 32.3214Z" fill="black"/>
</g>
<path d="M15.454 29.4376C15.4674 29.9339 15.5358 30.4271 15.6583 30.9081C15.7793 31.3697 15.8467 31.8438 15.8591 32.3208L15.9885 12.0502C15.9727 11.5734 15.9054 11.0998 15.7876 10.6375C15.6578 10.1574 15.5836 9.66402 15.5664 9.16699C15.5425 15.2499 15.4915 23.3581 15.454 29.4376Z" fill="#BD60FB"/>
<g opacity="0.4">
<path d="M15.454 29.4386C15.4674 29.9348 15.5358 30.4281 15.6583 30.9091C15.7793 31.3707 15.8467 31.8447 15.8591 32.3218L15.9885 12.0511C15.9727 11.5744 15.9054 11.1007 15.7876 10.6385C15.6578 10.1584 15.5836 9.66499 15.5664 9.16797C15.5425 15.2509 15.4915 23.3591 15.454 29.4386Z" fill="black"/>
</g>
<path d="M15.5664 9.16746L15.4404 29.4381C15.4394 29.0412 15.5121 28.6476 15.6549 28.2773C15.7878 27.9237 15.9712 27.5912 16.1995 27.2902C18.0581 24.8155 23.2185 23.3348 31.8986 22.7833L32.028 2.5127C23.3478 3.06414 18.1874 4.55508 16.3288 7.01955C16.0995 7.32047 15.915 7.65296 15.7808 8.0067C15.641 8.37784 15.5684 8.77088 15.5664 9.16746Z" fill="#BD60FB"/>
</svg>
