<svg width="456.301636" height="358.756836" viewBox="0 0 456.302 358.757" fill="none" xmlns="http://www.w3.org/2000/svg" xmlns:xlink="http://www.w3.org/1999/xlink">
	<desc>
			Created with Pixso.
	</desc>
	<defs/>
	<g opacity="0.500000">
		<path id="Vector" d="M422.064 235.032C421.501 231.25 420.809 227.503 420.023 223.804L384.73 240.994L422.064 235.032Z" fill="#C35CFC" fill-opacity="1.000000" fill-rule="nonzero"/>
		<path id="Vector" d="M247.601 103.466C247.601 103.466 143.245 145.22 86.8344 165.473C77.4327 180.609 70.2941 197.051 65.6466 214.272L155.252 174.933L84.3486 221.542L135.94 212.481L134.651 218.95L273.831 181.413L72.7522 273.381L103.684 244.881L59.2562 261.964L59.2562 262.318C59.2285 284.919 63.3712 307.329 71.4741 328.413L268.66 252.657L160.364 309.657L353.74 239.697L302.148 251.361L374.353 215.085L334.451 215.085L408.673 188.553C406.226 182.976 403.522 177.553 400.559 172.282L251.94 222.861L390.44 156.259C374.36 133.481 353.311 114.697 328.901 101.341C304.492 87.9863 277.367 80.4136 249.599 79.2017C221.832 77.9902 194.156 83.1714 168.686 94.3496C143.216 105.528 120.625 122.408 102.64 143.7L247.601 103.466Z" fill="#C35CFC" fill-opacity="1.000000" fill-rule="nonzero"/>
		<path id="Vector" d="M374.423 312.26C371.14 312.26 400.7 296.543 422.661 285.104C424.514 270.065 424.514 254.854 422.661 239.815L237.764 317.421L286.729 279.861L117.297 342.033L405.953 342.033C411.755 329.966 416.207 317.29 419.226 304.237C403.713 307.289 377.988 312.26 374.423 312.26Z" fill="#C35CFC" fill-opacity="1.000000" fill-rule="nonzero"/>
		<g opacity="0.300000">
			<path id="Vector" d="M422.064 235.032C421.501 231.25 420.809 227.503 420.023 223.804L384.73 240.994L422.064 235.032Z" fill="#FFFFFF" fill-opacity="1.000000" fill-rule="nonzero"/>
			<path id="Vector" d="M247.601 103.466C247.601 103.466 143.245 145.22 86.8344 165.473C77.4327 180.609 70.2941 197.051 65.6466 214.272L155.252 174.933L84.3486 221.542L135.94 212.481L134.651 218.95L273.831 181.413L72.7522 273.381L103.684 244.881L59.2562 261.964L59.2562 262.318C59.2285 284.919 63.3712 307.329 71.4741 328.413L268.66 252.657L160.364 309.657L353.74 239.697L302.148 251.361L374.353 215.085L334.451 215.085L408.673 188.553C406.226 182.976 403.522 177.553 400.559 172.282L251.94 222.861L390.44 156.259C374.36 133.481 353.311 114.697 328.901 101.341C304.492 87.9863 277.367 80.4136 249.599 79.2017C221.832 77.9902 194.156 83.1714 168.686 94.3496C143.216 105.528 120.625 122.408 102.64 143.7L247.601 103.466Z" fill="#FFFFFF" fill-opacity="1.000000" fill-rule="nonzero"/>
			<path id="Vector" d="M374.423 312.261C371.14 312.261 400.7 296.544 422.661 285.104C424.514 270.065 424.514 254.854 422.661 239.815L237.764 317.421L286.729 279.861L117.297 342.033L405.953 342.033C411.755 329.967 416.207 317.291 419.226 304.238C403.713 307.289 377.988 312.261 374.423 312.261Z" fill="#FFFFFF" fill-opacity="1.000000" fill-rule="nonzero"/>
		</g>
		<path id="Vector" d="" fill="#FFFFFF" fill-opacity="1.000000" fill-rule="nonzero"/>
		<path id="Vector" d="M444.576 342.033L456.302 342.033" stroke="#2E353A" stroke-opacity="1.000000" stroke-width="1.000000"/>
		<path id="Vector" d="" fill="#FFFFFF" fill-opacity="1.000000" fill-rule="nonzero"/>
		<path id="Vector" d="M58.8107 342.033L435.196 342.033" stroke="#2E353A" stroke-opacity="1.000000" stroke-width="1.000000"/>
		<path id="Vector" d="M64.9664 342.032L127.451 290.488C127.817 290.228 128.231 290.046 128.669 289.953C129.107 289.86 129.559 289.857 129.998 289.946C130.437 290.034 130.853 290.211 131.222 290.466C131.59 290.722 131.903 291.049 132.141 291.43C134.006 294.234 130.277 313.921 130.277 313.921L140.537 314.864L142.401 321.415L148.932 327.977L149.858 342.032L64.9664 342.032Z" fill="#2E353A" fill-opacity="1.000000" fill-rule="nonzero"/>
		<path id="Vector" d="M127.451 290.488C127.817 290.228 128.231 290.046 128.669 289.953C129.107 289.86 129.559 289.857 129.998 289.946C130.437 290.034 130.853 290.211 131.222 290.466C131.59 290.722 131.903 291.049 132.141 291.43C134.006 294.234 130.277 313.921 130.277 313.921L140.537 314.864L142.401 321.415L148.932 327.977L149.858 342.032L64.9664 342.032L127.451 290.488Z" stroke="#2E353A" stroke-opacity="1.000000" stroke-width="1.000000"/>
		<path id="Vector" d="M13.6561 339.853L53.7688 310.799C53.7688 310.799 60.2998 309.868 59.3618 316.419C58.4237 322.97 49.1021 330.487 49.1021 330.487L50.04 337.98L51.494 342.033L4.33447 342.033L13.6561 339.853Z" fill="#2E353A" fill-opacity="1.000000" fill-rule="nonzero"/>
		<path id="Vector" d="M53.7688 310.799C53.7688 310.799 60.2998 309.868 59.3618 316.419C58.4237 322.97 49.1021 330.487 49.1021 330.487L50.04 337.98L51.494 342.033L4.33447 342.033L13.6561 339.853L53.7688 310.799Z" stroke="#2E353A" stroke-opacity="1.000000" stroke-width="1.000000"/>
		<path id="Vector" d="M345.985 49.2812L258.991 43.9658C253.386 43.6235 248.567 47.9106 248.226 53.5415L242.391 149.961C242.05 155.592 246.317 160.435 251.921 160.777L338.915 166.093C344.519 166.436 349.339 162.148 349.679 156.517L355.515 60.0972C355.856 54.4663 351.589 49.624 345.985 49.2812Z" fill="#C35CFC" fill-opacity="1.000000" fill-rule="nonzero"/>
		<path id="Vector" d="M345.985 49.2812C351.589 49.624 355.856 54.4663 355.515 60.0972L349.679 156.517C349.339 162.148 344.519 166.436 338.915 166.093L251.921 160.777C246.317 160.435 242.05 155.592 242.391 149.961L248.226 53.5415C248.567 47.9106 253.386 43.6235 258.991 43.9658L345.985 49.2812Z" stroke="#2E353A" stroke-opacity="1.000000" stroke-width="1.000000"/>
		<path id="Vector" d="M238.561 94.8198C238.561 94.8198 231.912 103.067 212.378 108.958C192.843 114.849 188.141 117.994 188.141 117.994C188.141 117.994 176.803 121.917 172.898 131.732C168.994 141.546 171.339 146.659 194.004 145.092C216.669 143.525 263.571 125.063 263.571 125.063C263.571 125.063 272.177 109.347 270.219 95.998C268.261 82.6494 242.465 89.3179 238.561 94.8198Z" fill="#FFFFFF" fill-opacity="1.000000" fill-rule="nonzero"/>
		<mask id="mask296_2835" mask-type="alpha" maskUnits="userSpaceOnUse" x="171.360962" y="88.197266" width="99.148193" height="57.173828">
			<path id="Vector" d="M238.561 94.8198C238.561 94.8198 231.912 103.067 212.378 108.958C192.843 114.849 188.141 117.994 188.141 117.994C188.141 117.994 176.803 121.917 172.898 131.732C168.994 141.546 171.339 146.659 194.004 145.092C216.669 143.525 263.571 125.063 263.571 125.063C263.571 125.063 272.177 109.347 270.219 95.998C268.261 82.6494 242.465 89.3179 238.561 94.8198Z" fill="#000000" fill-opacity="1.000000" fill-rule="nonzero"/>
		</mask>
		<g mask="url(#mask296_2835)">
			<g opacity="0.490000">
				<path id="Vector" d="M186.277 136.328C186.277 136.328 186.734 140.816 187.145 145.364C189.197 145.364 191.46 145.27 194.004 145.093C216.669 143.514 263.571 125.064 263.571 125.064C266.906 118.667 269.153 111.753 270.219 104.611L267.581 97.0474C267.581 97.0474 254.284 111.975 241.785 120.611C229.286 129.247 186.277 136.328 186.277 136.328Z" fill="#C35CFC" fill-opacity="1.000000" fill-rule="nonzero"/>
			</g>
		</g>
		<path id="Vector" d="M212.378 108.958C192.843 114.849 188.141 117.994 188.141 117.994C188.141 117.994 176.803 121.917 172.898 131.732C168.994 141.546 171.339 146.659 194.004 145.092C216.669 143.525 263.571 125.063 263.571 125.063C263.571 125.063 272.177 109.347 270.219 95.998C268.261 82.6494 242.465 89.3179 238.561 94.8198C238.561 94.8198 231.912 103.067 212.378 108.958Z" stroke="#2E353A" stroke-opacity="1.000000" stroke-width="1.000000"/>
		<path id="Vector" d="M188.951 138.778C188.951 138.778 235.629 131.497 258.74 118.289" stroke="#2E353A" stroke-opacity="1.000000" stroke-width="0.500000"/>
		<path id="Vector" d="M228.231 137.376C229.614 132.828 231.092 124.828 228.008 116.816C226.388 112.479 223.288 108.858 219.261 106.602C217.162 107.415 214.875 108.204 212.378 108.958L210.56 109.512C214.664 112.045 221.219 117.5 221.758 126.631C222.094 130.874 222.019 135.139 221.535 139.367C223.775 138.719 226.015 138.059 228.231 137.376Z" fill="#2E353A" fill-opacity="1.000000" fill-rule="nonzero"/>
		<path id="Vector" d="M228.008 116.816C226.388 112.479 223.288 108.858 219.261 106.602C217.162 107.415 214.875 108.204 212.378 108.958L210.56 109.512C214.664 112.045 221.219 117.5 221.758 126.631C222.094 130.874 222.019 135.139 221.535 139.367C223.775 138.719 226.015 138.059 228.231 137.376C229.614 132.828 231.092 124.828 228.008 116.816Z" stroke="#2E353A" stroke-opacity="1.000000" stroke-width="1.000000"/>
		<path id="Vector" d="M270.313 75.5449C268.397 73.6499 266.125 72.1558 263.63 71.1504C246.85 64.7407 237.834 84.0044 234.715 97.1768C234.715 97.1768 238.619 100.322 248.386 98.7437C258.154 97.1646 272.224 90.4961 273.796 84.9941C274.71 81.5654 272.904 78.1841 270.313 75.5449Z" fill="#2E353A" fill-opacity="1.000000" fill-rule="nonzero"/>
		<path id="Vector" d="M263.63 71.1504C246.85 64.7407 237.834 84.0044 234.715 97.1768C234.715 97.1768 238.619 100.322 248.386 98.7437C258.154 97.1646 272.224 90.4961 273.796 84.9941C274.71 81.5654 272.904 78.1841 270.313 75.5449C268.397 73.6499 266.125 72.1558 263.63 71.1504Z" stroke="#2E353A" stroke-opacity="1.000000" stroke-width="1.000000"/>
		<path id="Vector" d="M191.272 122.307C191.272 122.307 191.272 131.344 185.011 133.7C178.749 136.056 172.898 131.732 172.898 131.732C172.898 131.732 171.726 114.46 173.285 111.314C174.845 108.168 188.528 114.849 191.272 122.307Z" fill="#FFFFFF" fill-opacity="1.000000" fill-rule="nonzero"/>
		<path id="Vector" d="M185.011 133.7C178.749 136.056 172.898 131.732 172.898 131.732C172.898 131.732 171.726 114.46 173.285 111.314C174.845 108.168 188.528 114.849 191.272 122.307C191.272 122.307 191.272 131.344 185.011 133.7Z" stroke="#2E353A" stroke-opacity="1.000000" stroke-width="1.000000"/>
		<path id="Vector" d="M280.655 72.187C280.655 72.187 270.102 73.6479 267.522 76.8999C264.943 80.1514 250.743 157.534 250.016 159.737C249.289 161.94 252.197 168.903 261.32 178.799C270.442 188.696 281.745 191.63 292.685 192.36C303.625 193.091 329.526 187.647 335.729 181.757C341.932 175.866 341.205 160.491 341.205 152.067C341.205 143.643 344.488 85.7241 342.295 80.5991C340.103 75.4741 325.88 71.0679 323.699 71.0679C321.518 71.0679 283.211 71.8218 280.655 72.187Z" fill="#FFFFFF" fill-opacity="1.000000" fill-rule="nonzero"/>
		<mask id="mask296_2846" mask-type="alpha" maskUnits="userSpaceOnUse" x="249.909790" y="71.067871" width="93.140137" height="121.358398">
			<path id="Vector" d="M280.655 72.187C280.655 72.187 270.102 73.6479 267.522 76.8999C264.943 80.1514 250.743 157.534 250.016 159.737C249.289 161.94 252.197 168.903 261.32 178.799C270.442 188.696 281.745 191.63 292.685 192.36C303.625 193.091 329.526 187.647 335.729 181.757C341.932 175.866 341.205 160.491 341.205 152.067C341.205 143.643 344.488 85.7241 342.295 80.5991C340.103 75.4741 325.88 71.0679 323.699 71.0679C321.518 71.0679 283.211 71.8218 280.655 72.187Z" fill="#000000" fill-opacity="1.000000" fill-rule="nonzero"/>
		</mask>
		<g mask="url(#mask296_2846)">
			<g opacity="0.490000">
				<path id="Vector" d="M341.205 152.09C341.205 143.655 344.488 85.7476 342.295 80.6108C340.103 75.4741 325.88 71.0913 323.699 71.0913C321.518 71.0913 283.199 71.8218 280.655 72.187C278.732 72.479 276.826 72.8721 274.944 73.3652C279.635 81.6123 289.906 93.6768 309.792 94.7017C317.557 95.1938 325.347 94.3574 332.833 92.2275L328.553 140.25L295.394 137.116L319.947 150.464L321.518 170.882L339.223 175.771C341.603 168.526 341.205 158.382 341.205 152.09Z" fill="#C35CFC" fill-opacity="1.000000" fill-rule="nonzero"/>
			</g>
		</g>
		<path id="Vector" d="M267.522 76.8999C264.943 80.1514 250.743 157.534 250.016 159.737C249.289 161.94 252.197 168.903 261.32 178.799C270.442 188.696 281.745 191.63 292.685 192.36C303.625 193.091 329.526 187.647 335.729 181.757C341.932 175.866 341.205 160.491 341.205 152.067C341.205 143.643 344.488 85.7241 342.295 80.5991C340.103 75.4741 325.88 71.0679 323.699 71.0679C321.518 71.0679 283.211 71.8218 280.655 72.187C280.655 72.187 270.102 73.6479 267.522 76.8999Z" stroke="#2E353A" stroke-opacity="1.000000" stroke-width="1.000000"/>
		<path id="Vector" d="M297.575 153.528C280.889 153.528 260.323 127.608 259.455 126.548L262.211 124.356C262.422 124.616 282.59 149.994 297.575 149.994C301.925 149.994 304.833 148.945 306.216 146.872C308.327 143.714 306.439 138.848 306.416 138.801L309.675 137.458C309.781 137.729 312.313 144.091 309.136 148.851C307.06 151.95 303.144 153.528 297.575 153.528Z" fill="#2E353A" fill-opacity="1.000000" fill-rule="nonzero"/>
		<path id="Vector" d="M259.455 126.548L262.211 124.356C262.422 124.616 282.59 149.994 297.575 149.994C301.925 149.994 304.833 148.945 306.216 146.872C308.327 143.714 306.439 138.848 306.416 138.801L309.675 137.458C309.781 137.729 312.313 144.091 309.136 148.851C307.06 151.95 303.144 153.528 297.575 153.528C280.889 153.528 260.323 127.608 259.455 126.548Z" stroke="#2E353A" stroke-opacity="1.000000" stroke-width="1.000000"/>
		<path id="Vector" d="M244.294 161.999C245.314 161.092 246.639 159.925 247.812 159.018C246.874 158.9 241.832 158.146 240.425 154.6C239.018 151.054 241.222 145.846 246.628 139.072C263.125 118.43 289.414 114.083 289.683 114.047L289.156 110.383C287.983 110.56 261.308 114.955 243.931 136.704C237.517 144.727 235.254 151.23 237.189 156.037C237.862 157.496 238.848 158.787 240.077 159.818C241.305 160.849 242.746 161.593 244.294 161.999Z" fill="#2E353A" fill-opacity="1.000000" fill-rule="nonzero"/>
		<path id="Vector" d="M247.812 159.018C246.874 158.9 241.832 158.146 240.425 154.6C239.018 151.054 241.222 145.846 246.628 139.072C263.125 118.43 289.414 114.083 289.683 114.047L289.156 110.383C287.983 110.56 261.308 114.955 243.931 136.704C237.517 144.727 235.254 151.23 237.189 156.037C237.862 157.496 238.848 158.787 240.077 159.818C241.305 160.849 242.746 161.593 244.294 161.999C245.314 161.092 246.639 159.925 247.812 159.018Z" stroke="#2E353A" stroke-opacity="1.000000" stroke-width="1.000000"/>
		<path id="Vector" d="M293.626 108.288L288.158 107.993L287.707 116.417L293.175 116.712L293.626 108.288Z" fill="#FFFFFF" fill-opacity="1.000000" fill-rule="nonzero"/>
		<path id="Vector" d="M293.626 108.288L293.175 116.712L287.707 116.417L288.158 107.993L293.626 108.288Z" stroke="#2E353A" stroke-opacity="1.000000" stroke-width="1.000000"/>
		<path id="Vector" d="M304.003 135.114L303.673 140.606L312.053 141.115L312.383 135.623L304.003 135.114Z" fill="#FFFFFF" fill-opacity="1.000000" fill-rule="nonzero"/>
		<path id="Vector" d="M304.003 135.114L312.383 135.623L312.053 141.115L303.673 140.606L304.003 135.114Z" stroke="#2E353A" stroke-opacity="1.000000" stroke-width="1.000000"/>
		<path id="Vector" d="M292.697 100.062L290.504 131.415C290.41 132.82 290.87 134.206 291.785 135.273C292.7 136.34 293.996 137.002 295.394 137.117L326.126 139.556C326.846 139.612 327.57 139.52 328.254 139.286C328.938 139.052 329.567 138.681 330.103 138.195C330.64 137.709 331.072 137.118 331.374 136.459C331.676 135.799 331.841 135.085 331.859 134.36L332.68 101.653C332.715 100.248 332.197 98.8848 331.237 97.8613C330.278 96.8374 328.955 96.2358 327.556 96.1865L298.243 95.1025C296.857 95.0376 295.5 95.52 294.464 96.4473C293.427 97.374 292.793 98.6719 292.697 100.062Z" fill="#FFFFFF" fill-opacity="1.000000" fill-rule="nonzero"/>
		<path id="Vector" d="M290.504 131.415C290.41 132.82 290.87 134.206 291.785 135.273C292.7 136.34 293.996 137.002 295.394 137.117L326.126 139.556C326.846 139.612 327.57 139.52 328.254 139.286C328.938 139.052 329.567 138.681 330.103 138.195C330.64 137.709 331.072 137.118 331.374 136.459C331.676 135.799 331.841 135.085 331.859 134.36L332.68 101.653C332.715 100.248 332.197 98.8848 331.237 97.8613C330.278 96.8374 328.955 96.2358 327.556 96.1865L298.243 95.1025C296.857 95.0376 295.5 95.52 294.464 96.4473C293.427 97.374 292.793 98.6719 292.697 100.062L290.504 131.415Z" stroke="#2E353A" stroke-opacity="1.000000" stroke-width="1.000000"/>
		<path id="Vector" d="M306.732 95.4092L305.818 115.438L315.667 116.169L316.933 95.7861L306.732 95.4092Z" fill="#C35CFC" fill-opacity="1.000000" fill-rule="nonzero"/>
		<path id="Vector" d="M305.818 115.438L315.667 116.169L316.933 95.7861L306.732 95.4092L305.818 115.438Z" stroke="#2E353A" stroke-opacity="1.000000" stroke-width="1.000000"/>
		<path id="Vector" d="M329.89 125.334C329.89 126.568 329.526 127.773 328.844 128.798C328.161 129.824 327.192 130.623 326.058 131.094C324.924 131.565 323.676 131.688 322.473 131.447C321.269 131.205 320.164 130.61 319.297 129.738C318.43 128.865 317.84 127.753 317.602 126.543C317.364 125.333 317.489 124.08 317.96 122.941C318.431 121.803 319.228 120.83 320.25 120.146C321.271 119.463 322.471 119.1 323.699 119.102C324.513 119.102 325.319 119.263 326.071 119.577C326.823 119.89 327.505 120.349 328.081 120.928C328.656 121.507 329.111 122.194 329.422 122.951C329.732 123.707 329.891 124.517 329.89 125.334Z" fill="#C35CFC" fill-opacity="1.000000" fill-rule="nonzero"/>
		<path id="Vector" d="M328.844 128.798C328.161 129.824 327.192 130.623 326.058 131.094C324.924 131.565 323.676 131.688 322.473 131.447C321.269 131.205 320.164 130.61 319.297 129.738C318.43 128.865 317.84 127.753 317.602 126.543C317.364 125.333 317.489 124.08 317.96 122.941C318.431 121.803 319.228 120.83 320.25 120.146C321.271 119.463 322.471 119.1 323.699 119.102C324.513 119.102 325.319 119.263 326.071 119.577C326.823 119.89 327.505 120.349 328.081 120.928C328.656 121.507 329.111 122.194 329.422 122.951C329.732 123.707 329.891 124.517 329.89 125.334C329.89 126.568 329.526 127.773 328.844 128.798Z" stroke="#2E353A" stroke-opacity="1.000000" stroke-width="1.000000"/>
		<path id="Vector" d="M171.14 149.605C171.14 149.605 179.934 151.172 185.996 146.66C192.058 142.147 188.728 134.089 183.252 129.576C177.776 125.064 166.649 123.685 162.146 125.841C157.644 127.998 160 136.445 161.372 140.969C162.744 145.494 165.078 148.816 171.14 149.605Z" fill="#FFFFFF" fill-opacity="1.000000" fill-rule="nonzero"/>
		<path id="Vector" d="M185.996 146.66C192.058 142.147 188.728 134.089 183.252 129.576C177.776 125.064 166.649 123.685 162.146 125.841C157.644 127.998 160 136.445 161.372 140.969C162.744 145.494 165.078 148.816 171.14 149.605C171.14 149.605 179.934 151.172 185.996 146.66Z" stroke="#2E353A" stroke-opacity="1.000000" stroke-width="1.000000"/>
		<path id="Vector" d="M126.724 4.31152C126.724 4.31152 132.246 21.772 112.712 31.9868C93.1775 42.2012 83.7854 41.4121 61.1202 56.3276C38.455 71.2432 32.9792 104.244 32.9792 104.244C32.9792 104.244 38.4432 90.1055 64.2391 88.5386C90.035 86.9717 115.831 85.9351 125.997 85.3931C140.853 84.6035 148.662 75.9678 148.662 75.9678L126.724 4.31152Z" fill="#C35CFC" fill-opacity="1.000000" fill-rule="nonzero"/>
		<path id="Vector" d="M112.712 31.9868C93.1775 42.2012 83.7854 41.4121 61.1202 56.3276C38.455 71.2432 32.9792 104.244 32.9792 104.244C32.9792 104.244 38.4432 90.1055 64.2391 88.5386C90.035 86.9717 115.831 85.9351 125.997 85.3931C140.853 84.6035 148.662 75.9678 148.662 75.9678L126.724 4.31152C126.724 4.31152 132.246 21.772 112.712 31.9868Z" stroke="#2E353A" stroke-opacity="1.000000" stroke-width="1.000000"/>
		<path id="Vector" d="M215.427 294.388L126.724 4.31152C126.61 3.94189 126.57 3.55273 126.606 3.16748C126.643 2.78223 126.755 2.4082 126.936 2.06641C127.116 1.72461 127.363 1.42236 127.661 1.17676C127.958 0.931152 128.302 0.74707 128.67 0.635742C129.412 0.410645 130.212 0.488281 130.897 0.852539C131.582 1.21631 132.096 1.83691 132.329 2.57959L221.066 292.679L215.427 294.388Z" fill="#2E353A" fill-opacity="1.000000" fill-rule="nonzero"/>
		<path id="Vector" d="M126.724 4.31152C126.61 3.94189 126.57 3.55273 126.606 3.16748C126.643 2.78223 126.755 2.4082 126.936 2.06641C127.116 1.72461 127.363 1.42236 127.661 1.17676C127.958 0.931152 128.302 0.74707 128.67 0.635742C129.412 0.410645 130.212 0.488281 130.897 0.852539C131.582 1.21631 132.096 1.83691 132.329 2.57959L221.066 292.679L215.427 294.388L126.724 4.31152Z" stroke="#2E353A" stroke-opacity="1.000000" stroke-width="1.000000"/>
		<path id="Vector" d="M161.372 149.604C161.372 149.604 160.387 153.139 164.691 154.117C168.994 155.095 176.416 152.938 176.029 149.215C175.642 145.493 172.699 144.691 169.58 145.092C166.461 145.493 161.372 147.837 161.372 149.604Z" fill="#FFFFFF" fill-opacity="1.000000" fill-rule="nonzero"/>
		<path id="Vector" d="M164.691 154.117C168.994 155.095 176.416 152.938 176.029 149.215C175.642 145.493 172.699 144.691 169.58 145.092C166.461 145.493 161.372 147.837 161.372 149.604C161.372 149.604 160.387 153.139 164.691 154.117Z" stroke="#2E353A" stroke-opacity="1.000000" stroke-width="1.000000"/>
		<path id="Vector" d="M165.078 137.434C165.078 137.434 154.185 139.154 153.727 141.51C153.27 143.867 154.126 149.357 157.034 150.182C159.942 151.007 169.568 150.041 171.304 146.918C173.039 143.796 170.647 137.834 168.408 137.187C167.871 136.967 167.291 136.875 166.714 136.917C166.136 136.96 165.576 137.137 165.078 137.434Z" fill="#FFFFFF" fill-opacity="1.000000" fill-rule="nonzero"/>
		<path id="Vector" d="M153.727 141.51C153.27 143.867 154.126 149.357 157.034 150.182C159.942 151.007 169.568 150.041 171.304 146.918C173.039 143.796 170.647 137.834 168.408 137.187C167.871 136.967 167.291 136.875 166.714 136.917C166.136 136.96 165.576 137.137 165.078 137.434C165.078 137.434 154.185 139.154 153.727 141.51Z" stroke="#2E353A" stroke-opacity="1.000000" stroke-width="1.000000"/>
		<path id="Vector" d="M162.017 129.894C162.017 129.894 151.113 131.614 150.655 133.982C150.198 136.35 151.054 141.817 153.974 142.642C156.893 143.466 166.496 142.512 168.244 139.39C169.991 136.268 167.575 130.306 165.347 129.658C164.812 129.437 164.232 129.343 163.655 129.384C163.077 129.425 162.517 129.6 162.017 129.894Z" fill="#FFFFFF" fill-opacity="1.000000" fill-rule="nonzero"/>
		<path id="Vector" d="M150.655 133.982C150.198 136.35 151.054 141.817 153.974 142.642C156.893 143.466 166.496 142.512 168.244 139.39C169.991 136.268 167.575 130.306 165.347 129.658C164.812 129.437 164.232 129.343 163.655 129.384C163.077 129.425 162.517 129.6 162.017 129.894C162.017 129.894 151.113 131.614 150.655 133.982Z" stroke="#2E353A" stroke-opacity="1.000000" stroke-width="1.000000"/>
		<path id="Vector" d="M159.731 118.56C159.731 118.56 147.806 117.876 146.833 120.28C145.86 122.684 145.461 128.657 148.357 130.2C151.253 131.744 161.642 132.945 164.198 130.035C166.754 127.125 165.57 120.28 163.354 119.078C162.832 118.713 162.233 118.477 161.604 118.387C160.974 118.296 160.333 118.356 159.731 118.56Z" fill="#FFFFFF" fill-opacity="1.000000" fill-rule="nonzero"/>
		<path id="Vector" d="M146.833 120.28C145.86 122.684 145.461 128.657 148.357 130.2C151.253 131.744 161.642 132.945 164.198 130.035C166.754 127.125 165.57 120.28 163.354 119.078C162.832 118.713 162.233 118.477 161.604 118.387C160.974 118.296 160.333 118.356 159.731 118.56C159.731 118.56 147.806 117.876 146.833 120.28Z" stroke="#2E353A" stroke-opacity="1.000000" stroke-width="1.000000"/>
		<path id="Vector" d="M176.264 123.461C176.264 123.461 179.195 117.441 177.096 112.952C174.997 108.463 170.401 109.417 168.454 110.843C167.198 111.803 166.179 113.041 165.476 114.46C165.476 114.46 170.401 114.354 172.511 116.451C174.622 118.548 176.264 123.461 176.264 123.461Z" fill="#2E353A" fill-opacity="1.000000" fill-rule="nonzero"/>
		<path id="Vector" d="M177.096 112.952C174.997 108.463 170.401 109.417 168.454 110.843C167.198 111.803 166.179 113.041 165.476 114.46C165.476 114.46 170.401 114.354 172.511 116.451C174.622 118.548 176.264 123.461 176.264 123.461C176.264 123.461 179.195 117.441 177.096 112.952Z" stroke="#2E353A" stroke-opacity="1.000000" stroke-width="1.000000"/>
		<path id="Vector" d="M175.337 115.862C175.193 115.275 174.902 114.736 174.492 114.294C174.081 113.853 173.565 113.524 172.992 113.341C170.647 112.575 166.778 111.774 165.453 114.519C163.495 118.442 163.495 128.657 169.357 130.613C175.22 132.569 176.78 127.868 176.393 122.766C176.224 120.44 175.871 118.132 175.337 115.862Z" fill="#FFFFFF" fill-opacity="1.000000" fill-rule="nonzero"/>
		<path id="Vector" d="M174.492 114.294C174.081 113.853 173.565 113.524 172.992 113.341C170.647 112.575 166.778 111.774 165.453 114.519C163.495 118.442 163.495 128.657 169.357 130.613C175.22 132.569 176.78 127.868 176.393 122.766C176.224 120.44 175.871 118.132 175.337 115.862C175.193 115.275 174.902 114.736 174.492 114.294Z" stroke="#2E353A" stroke-opacity="1.000000" stroke-width="1.000000"/>
		<path id="Vector" d="M341.099 163.743C334.064 158.724 320.99 153.917 308.913 161.586C296.836 169.257 296.648 186.388 297 192.42C309.323 191.866 330.241 186.965 335.694 181.816C339.587 178.128 340.759 170.788 341.099 163.743Z" fill="#2E353A" fill-opacity="1.000000" fill-rule="nonzero"/>
		<path id="Vector" d="M308.913 161.586C296.836 169.257 296.648 186.388 297 192.42C309.323 191.866 330.241 186.965 335.694 181.816C339.587 178.128 340.759 170.788 341.099 163.743C334.064 158.724 320.99 153.917 308.913 161.586Z" stroke="#2E353A" stroke-opacity="1.000000" stroke-width="1.000000"/>
		<path id="Vector" d="M307.283 244.447C306.306 245.52 305.597 246.812 305.216 248.216C304.834 249.619 304.792 251.094 305.091 252.517C306.181 257.23 305.091 298.689 305.091 298.689C305.091 298.689 305.454 308.586 322.597 311.155C339.739 313.723 345.578 308.951 345.578 308.951C345.578 308.951 345.215 256.912 344.851 251.044C344.676 247.62 343.537 244.314 341.568 241.513L307.283 244.447Z" fill="#FFFFFF" fill-opacity="1.000000" fill-rule="nonzero"/>
		<mask id="mask296_2870" mask-type="alpha" maskUnits="userSpaceOnUse" x="304.894165" y="241.513184" width="40.684204" height="70.400391">
			<path id="Vector" d="M307.283 244.447C306.306 245.52 305.597 246.812 305.216 248.216C304.834 249.619 304.792 251.094 305.091 252.517C306.181 257.23 305.091 298.689 305.091 298.689C305.091 298.689 305.454 308.586 322.597 311.155C339.739 313.723 345.578 308.951 345.578 308.951C345.578 308.951 345.215 256.912 344.851 251.044C344.676 247.62 343.537 244.314 341.568 241.513L307.283 244.447Z" fill="#000000" fill-opacity="1.000000" fill-rule="nonzero"/>
		</mask>
		<g mask="url(#mask296_2870)">
			<g opacity="0.490000">
				<path id="Vector" d="M341.568 241.572L307.283 244.506C306.306 245.579 305.597 246.871 305.216 248.275C304.834 249.678 304.792 251.153 305.091 252.576C305.489 254.285 305.595 260.729 305.571 268.281L338.508 311.473C343.573 310.636 345.543 309.01 345.543 309.01C345.543 309.01 345.18 256.971 344.816 251.104C344.651 247.682 343.525 244.377 341.568 241.572Z" fill="#C35CFC" fill-opacity="1.000000" fill-rule="nonzero"/>
			</g>
		</g>
		<path id="Vector" d="M305.216 248.216C304.834 249.619 304.792 251.094 305.091 252.517C306.181 257.23 305.091 298.689 305.091 298.689C305.091 298.689 305.454 308.586 322.597 311.155C339.739 313.723 345.578 308.951 345.578 308.951C345.578 308.951 345.215 256.912 344.851 251.044C344.676 247.62 343.537 244.314 341.568 241.513L307.283 244.447C306.306 245.52 305.597 246.812 305.216 248.216Z" stroke="#2E353A" stroke-opacity="1.000000" stroke-width="1.000000"/>
		<path id="Vector" d="M340.841 168.95C340.841 168.95 336.831 163.813 321.905 164.544C306.978 165.274 300.389 183.241 300.799 186.929C301.209 190.617 303.344 239.711 304.809 243.74C306.275 247.77 323.042 251.434 335.448 249.242C347.853 247.051 348.944 236.047 347.49 228.341C346.036 220.636 343.843 175.571 343.843 174.146C343.843 172.72 342.659 171.142 340.841 168.95Z" fill="#FFFFFF" fill-opacity="1.000000" fill-rule="nonzero"/>
		<mask id="mask296_2877" mask-type="alpha" maskUnits="userSpaceOnUse" x="300.781128" y="164.472656" width="47.206665" height="85.426270">
			<path id="Vector" d="M340.841 168.95C340.841 168.95 336.831 163.813 321.905 164.544C306.978 165.274 300.389 183.241 300.799 186.929C301.209 190.617 303.344 239.711 304.809 243.74C306.275 247.77 323.042 251.434 335.448 249.242C347.853 247.051 348.944 236.047 347.49 228.341C346.036 220.636 343.843 175.571 343.843 174.146C343.843 172.72 342.659 171.142 340.841 168.95Z" fill="#000000" fill-opacity="1.000000" fill-rule="nonzero"/>
		</mask>
		<g mask="url(#mask296_2877)">
			<g opacity="0.490000">
				<path id="Vector" d="M347.408 228.318C345.942 220.625 343.761 175.548 343.761 174.123C343.761 172.697 342.659 171.189 340.841 168.998C340.068 168.179 339.144 167.519 338.121 167.054L336.362 167.784C336.362 167.784 337.148 175.643 337.148 185.857C337.148 196.072 334.803 230.627 334.803 230.627L301.972 193.704L301.632 203.235C302.499 219.128 303.766 241.125 304.727 243.764C306.181 247.793 322.96 251.458 335.366 249.266C347.771 247.075 348.873 236.023 347.408 228.318Z" fill="#C35CFC" fill-opacity="1.000000" fill-rule="nonzero"/>
			</g>
		</g>
		<path id="Vector" d="M321.905 164.544C306.978 165.274 300.389 183.241 300.799 186.929C301.209 190.617 303.344 239.711 304.809 243.74C306.275 247.77 323.042 251.434 335.448 249.242C347.853 247.051 348.944 236.047 347.49 228.341C346.036 220.636 343.843 175.571 343.843 174.146C343.843 172.72 342.659 171.142 340.841 168.95C340.841 168.95 336.831 163.813 321.905 164.544Z" stroke="#2E353A" stroke-opacity="1.000000" stroke-width="1.000000"/>
		<path id="Vector" d="M305.818 245.178C305.818 245.178 316.37 254.709 328.799 253.979C341.228 253.249 344.488 245.178 344.488 245.178C344.488 245.178 345.578 241.514 331.355 238.215C317.133 234.916 305.818 245.178 305.818 245.178Z" fill="#2E353A" fill-opacity="1.000000" fill-rule="nonzero"/>
		<path id="Vector" d="M328.799 253.979C341.228 253.249 344.488 245.178 344.488 245.178C344.488 245.178 345.578 241.514 331.355 238.215C317.133 234.916 305.818 245.178 305.818 245.178C305.818 245.178 316.37 254.709 328.799 253.979Z" stroke="#2E353A" stroke-opacity="1.000000" stroke-width="1.000000"/>
		<path id="Vector" d="M300.529 85.6997C319.717 85.6997 335.272 68.8198 335.272 47.998C335.272 27.1763 319.717 10.2969 300.529 10.2969C281.342 10.2969 265.787 27.1763 265.787 47.998C265.787 68.8198 281.342 85.6997 300.529 85.6997Z" fill="#2E353A" fill-opacity="1.000000" fill-rule="nonzero"/>
		<path id="Vector" d="M300.529 85.6997C281.342 85.6997 265.787 68.8198 265.787 47.998C265.787 27.1763 281.342 10.2969 300.529 10.2969C319.717 10.2969 335.272 27.1763 335.272 47.998C335.272 68.8198 319.717 85.6997 300.529 85.6997Z" stroke="#2E353A" stroke-opacity="1.000000" stroke-width="1.000000"/>
		<path id="Vector" d="M339.786 43.8032C339.786 64.625 322.21 81.5049 300.529 81.5049C278.849 81.5049 261.273 64.625 261.273 43.8032C261.273 22.9814 278.849 6.10205 300.529 6.10205C322.21 6.10205 339.786 22.9814 339.786 43.8032Z" fill="#FFFFFF" fill-opacity="1.000000" fill-rule="evenodd"/>
		<mask id="mask296_2886" mask-type="alpha" maskUnits="userSpaceOnUse" x="261.272827" y="6.102051" width="78.513306" height="75.402832">
			<path id="Vector" d="M339.786 43.8032C339.786 64.625 322.21 81.5049 300.529 81.5049C278.849 81.5049 261.273 64.625 261.273 43.8032C261.273 22.9814 278.849 6.10205 300.529 6.10205C322.21 6.10205 339.786 22.9814 339.786 43.8032Z" fill="#000000" fill-opacity="1.000000" fill-rule="evenodd"/>
		</mask>
		<g mask="url(#mask296_2886)">
			<g opacity="0.490000">
				<path id="Vector" d="M315.55 8.97705C316.886 26.2725 312.595 55.3496 273.936 71.5376C281.297 78.0039 290.753 81.5479 300.529 81.5049C322.21 81.5049 339.786 64.6338 339.786 43.8037C339.786 28.0986 329.772 14.6323 315.55 8.97705Z" fill="#C35CFC" fill-opacity="1.000000" fill-rule="nonzero"/>
			</g>
		</g>
		<path id="Vector" d="M300.529 81.5049C278.849 81.5049 261.273 64.625 261.273 43.8032C261.273 22.9814 278.849 6.10205 300.529 6.10205C322.21 6.10205 339.786 22.9814 339.786 43.8032C339.786 64.625 322.21 81.5049 300.529 81.5049Z" stroke="#2E353A" stroke-opacity="1.000000" stroke-width="1.000000"/>
		<path id="Vector" d="M260.745 41.707C263.141 41.707 265.083 39.7554 265.083 37.3477C265.083 34.9399 263.141 32.9883 260.745 32.9883C258.349 32.9883 256.407 34.9399 256.407 37.3477C256.407 39.7554 258.349 41.707 260.745 41.707Z" fill="#FFFFFF" fill-opacity="1.000000" fill-rule="nonzero"/>
		<path id="Vector" d="M260.745 41.707C258.349 41.707 256.407 39.7554 256.407 37.3477C256.407 34.9399 258.349 32.9883 260.745 32.9883C263.141 32.9883 265.083 34.9399 265.083 37.3477C265.083 39.7554 263.141 41.707 260.745 41.707Z" stroke="#2E353A" stroke-opacity="1.000000" stroke-width="1.000000"/>
		<path id="Vector" d="M260.745 39.9629C262.183 39.9629 263.348 38.792 263.348 37.3477C263.348 35.9028 262.183 34.7319 260.745 34.7319C259.307 34.7319 258.142 35.9028 258.142 37.3477C258.142 38.792 259.307 39.9629 260.745 39.9629Z" fill="#FFFFFF" fill-opacity="1.000000" fill-rule="nonzero"/>
		<path id="Vector" d="M260.745 39.9629C259.307 39.9629 258.142 38.792 258.142 37.3477C258.142 35.9028 259.307 34.7319 260.745 34.7319C262.183 34.7319 263.348 35.9028 263.348 37.3477C263.348 38.792 262.183 39.9629 260.745 39.9629Z" stroke="#2E353A" stroke-opacity="1.000000" stroke-width="1.000000"/>
		<path id="Vector" d="M300.002 75.5669C317.752 75.5669 332.141 63.4556 332.141 48.5161C332.141 33.5762 317.752 21.4653 300.002 21.4653C282.252 21.4653 267.862 33.5762 267.862 48.5161C267.862 63.4556 282.252 75.5669 300.002 75.5669Z" fill="#2E353A" fill-opacity="1.000000" fill-rule="nonzero"/>
		<path id="Vector" d="M300.002 75.5669C282.252 75.5669 267.862 63.4556 267.862 48.5161C267.862 33.5762 282.252 21.4653 300.002 21.4653C317.752 21.4653 332.141 33.5762 332.141 48.5161C332.141 63.4556 317.752 75.5669 300.002 75.5669Z" stroke="#2E353A" stroke-opacity="1.000000" stroke-width="1.000000"/>
		<path id="Vector" d="M274.1 35.521L274.1 48.0923L276.105 38.5371L281.605 50.1074L281.605 37.0293L303.144 68.2041L288.136 33.5063L295.171 33.5063L290.164 28.9824L299.169 26.4727L287.667 25.4712C287.667 25.4712 278.603 27.981 274.1 35.521Z" fill="#C35CFC" fill-opacity="1.000000" fill-rule="nonzero"/>
		<path id="Vector" d="M365.781 95.3145L366.731 95.8564C371.726 98.6841 394.872 111.986 400.43 118.03C406.597 124.816 392.222 134.854 379.875 137.799C367.528 140.745 343.761 119.809 340.232 115.673C336.702 111.538 333.478 89.4121 341.697 85.2886C349.917 81.165 365.781 95.3145 365.781 95.3145Z" fill="#FFFFFF" fill-opacity="1.000000" fill-rule="nonzero"/>
		<mask id="mask296_2897" mask-type="alpha" maskUnits="userSpaceOnUse" x="336.534546" y="84.535156" width="65.371826" height="53.546875">
			<path id="Vector" d="M365.781 95.3145L366.731 95.8564C371.726 98.6841 394.872 111.986 400.43 118.03C406.597 124.816 392.222 134.854 379.875 137.799C367.528 140.745 343.761 119.809 340.232 115.673C336.702 111.538 333.478 89.4121 341.697 85.2886C349.917 81.165 365.781 95.3145 365.781 95.3145Z" fill="#000000" fill-opacity="1.000000" fill-rule="nonzero"/>
		</mask>
		<g mask="url(#mask296_2897)">
			<g opacity="0.490000">
				<path id="Vector" d="M400.465 118.03C394.966 111.986 371.761 98.6846 366.766 95.8569L365.816 95.3149C365.816 95.3149 349.952 81.1768 341.732 85.2886C333.513 89.4004 336.749 111.55 340.267 115.674C343.974 119.509 347.999 123.021 352.297 126.172L374.669 106.472L401.309 124.145C401.82 123.165 402.013 122.048 401.861 120.952C401.71 119.856 401.222 118.834 400.465 118.03Z" fill="#C35CFC" fill-opacity="1.000000" fill-rule="nonzero"/>
			</g>
		</g>
		<path id="Vector" d="M366.731 95.8564C371.726 98.6841 394.872 111.986 400.43 118.03C406.597 124.816 392.222 134.854 379.875 137.799C367.528 140.745 343.761 119.809 340.232 115.673C336.702 111.538 333.478 89.4121 341.697 85.2886C349.917 81.165 365.781 95.3145 365.781 95.3145L366.731 95.8564Z" stroke="#2E353A" stroke-opacity="1.000000" stroke-width="1.000000"/>
		<path id="Vector" d="M332.95 75.5449C334.868 73.6523 337.14 72.1587 339.634 71.1504C356.424 64.7407 365.429 84.0044 368.56 97.1768C368.56 97.1768 364.644 100.322 354.877 98.7437C345.109 97.1646 331.039 90.4961 329.468 84.9941C328.495 81.5654 330.3 78.1841 332.95 75.5449Z" fill="#2E353A" fill-opacity="1.000000" fill-rule="nonzero"/>
		<path id="Vector" d="M339.634 71.1504C356.424 64.7407 365.429 84.0044 368.56 97.1768C368.56 97.1768 364.644 100.322 354.877 98.7437C345.109 97.1646 331.039 90.4961 329.468 84.9941C328.495 81.5654 330.3 78.1841 332.95 75.5449C334.868 73.6523 337.14 72.1587 339.634 71.1504Z" stroke="#2E353A" stroke-opacity="1.000000" stroke-width="1.000000"/>
		<path id="Vector" d="M365.488 131.897C365.488 131.897 381.634 112.728 393.09 112.434C404.545 112.139 409.845 120.987 408.673 128.068C407.5 135.149 398.694 143.114 398.694 143.114C398.694 143.114 404.862 121.906 395.751 121.906C386.641 121.906 365.488 131.897 365.488 131.897Z" fill="#2E353A" fill-opacity="1.000000" fill-rule="nonzero"/>
		<path id="Vector" d="M393.09 112.434C404.545 112.139 409.845 120.987 408.673 128.068C407.5 135.149 398.694 143.114 398.694 143.114C398.694 143.114 404.862 121.906 395.751 121.906C386.641 121.906 365.488 131.897 365.488 131.897C365.488 131.897 381.634 112.728 393.09 112.434Z" stroke="#2E353A" stroke-opacity="1.000000" stroke-width="1.000000"/>
		<path id="Vector" d="M359.614 136.327C359.614 136.327 378.996 120.398 392.797 118.336C406.597 116.274 411.557 133.087 398.659 143.078C385.761 153.069 377.214 157.216 368.115 156.038C359.016 154.86 351.687 145.776 359.614 136.327Z" fill="#FFFFFF" fill-opacity="1.000000" fill-rule="nonzero"/>
		<mask id="mask296_2906" mask-type="alpha" maskUnits="userSpaceOnUse" x="356.234741" y="118.162598" width="49.907593" height="38.070312">
			<path id="Vector" d="M359.614 136.327C359.614 136.327 378.996 120.398 392.797 118.336C406.597 116.274 411.557 133.087 398.659 143.078C385.761 153.069 377.214 157.216 368.115 156.038C359.016 154.86 351.687 145.776 359.614 136.327Z" fill="#000000" fill-opacity="1.000000" fill-rule="nonzero"/>
		</mask>
		<g mask="url(#mask296_2906)">
			<g opacity="0.490000">
				<path id="Vector" d="M400.617 119.49C400.817 122.919 399.797 131.696 385.609 137.894C367.634 145.752 364.022 145.776 364.022 145.776C364.556 148.693 364.058 151.706 362.615 154.294C364.325 155.233 366.194 155.844 368.126 156.097C377.225 157.275 385.714 153.151 398.671 143.137C408.673 135.325 407.922 123.449 400.617 119.49Z" fill="#C35CFC" fill-opacity="1.000000" fill-rule="nonzero"/>
			</g>
		</g>
		<path id="Vector" d="M392.797 118.336C406.597 116.274 411.557 133.087 398.659 143.078C385.761 153.069 377.214 157.216 368.115 156.038C359.016 154.86 351.687 145.776 359.614 136.327C359.614 136.327 378.996 120.398 392.797 118.336Z" stroke="#2E353A" stroke-opacity="1.000000" stroke-width="1.000000"/>
		<path id="Vector" d="M373.391 152.893C373.391 152.893 401.532 141.111 406.468 124.204" stroke="#2E353A" stroke-opacity="1.000000" stroke-width="0.500000"/>
		<path id="Vector" d="M352.567 142.524C352.567 142.524 356.084 137.812 361.079 137.21C366.074 136.61 371.363 143.702 373.121 149.605C374.88 155.508 372.535 158.453 369.885 159.337C367.235 160.221 352.567 142.524 352.567 142.524Z" fill="#2E353A" fill-opacity="1.000000" fill-rule="nonzero"/>
		<path id="Vector" d="M361.079 137.21C366.074 136.61 371.363 143.702 373.121 149.605C374.88 155.508 372.535 158.453 369.885 159.337C367.235 160.221 352.567 142.524 352.567 142.524C352.567 142.524 356.084 137.812 361.079 137.21Z" stroke="#2E353A" stroke-opacity="1.000000" stroke-width="1.000000"/>
		<path id="Vector" d="M369.885 159.336C369.885 159.336 371.656 153.74 364.022 145.775C356.389 137.811 353.739 142.241 346.985 146.07C340.232 149.899 337.887 156.674 340.818 161.387C343.749 166.099 344.934 169.057 353.716 170.529C362.498 172.002 367.517 162.859 367.517 162.859C368.697 162.004 369.537 160.756 369.885 159.336Z" fill="#FFFFFF" fill-opacity="1.000000" fill-rule="nonzero"/>
		<mask id="mask296_2915" mask-type="alpha" maskUnits="userSpaceOnUse" x="339.577271" y="141.333984" width="30.485718" height="29.355957">
			<path id="Vector" d="M369.885 159.336C369.885 159.336 371.656 153.74 364.022 145.775C356.389 137.811 353.739 142.241 346.985 146.07C340.232 149.899 337.887 156.674 340.818 161.387C343.749 166.099 344.934 169.057 353.716 170.529C362.498 172.002 367.517 162.859 367.517 162.859C368.697 162.004 369.537 160.756 369.885 159.336Z" fill="#000000" fill-opacity="1.000000" fill-rule="nonzero"/>
		</mask>
		<g mask="url(#mask296_2915)">
			<g opacity="0.490000">
				<path id="Vector" d="M357.468 158.312C352.198 160.064 346.789 161.361 341.299 162.188C343.913 166.453 345.426 169.163 353.739 170.553C362.545 172.025 367.54 162.883 367.54 162.883C368.714 162.021 369.545 160.769 369.885 159.348C369.885 159.348 371.656 153.751 364.023 145.787C364.023 145.775 366.074 155.177 357.468 158.312Z" fill="#C35CFC" fill-opacity="1.000000" fill-rule="nonzero"/>
			</g>
		</g>
		<path id="Vector" d="M364.022 145.775C356.389 137.811 353.739 142.241 346.985 146.07C340.232 149.899 337.887 156.674 340.818 161.387C343.749 166.099 344.934 169.057 353.716 170.529C362.498 172.002 367.517 162.859 367.517 162.859C368.697 162.004 369.537 160.756 369.885 159.336C369.885 159.336 371.656 153.74 364.022 145.775Z" stroke="#2E353A" stroke-opacity="1.000000" stroke-width="1.000000"/>
		<path id="Vector" d="M367.54 162.882C367.54 162.882 360.786 167.018 356.671 167.312" fill="#FFFFFF" fill-opacity="1.000000" fill-rule="nonzero"/>
		<path id="Vector" d="M367.54 162.882C367.54 162.882 360.786 167.018 356.671 167.312" stroke="#2E353A" stroke-opacity="1.000000" stroke-width="1.000000"/>
		<path id="Vector" d="M172.113 355.583C172.113 355.583 161.173 347.737 171.339 337.522C181.505 327.308 188.528 329.664 192.445 320.239C196.361 310.813 200.254 293.542 229.18 283.327C258.107 273.112 287.022 281.76 301.092 291.962C315.163 302.166 340.959 309.246 355.029 307.679C369.1 306.112 386.301 320.239 388.646 332.81C390.991 345.381 395.681 346.948 398.026 349.304C400.371 351.66 402.716 357.94 402.716 357.94L190.1 357.94C190.1 357.94 177.589 359.519 172.113 355.583Z" fill="#2E353A" fill-opacity="1.000000" fill-rule="nonzero"/>
		<path id="Vector" d="M171.339 337.522C181.505 327.308 188.528 329.664 192.445 320.239C196.361 310.813 200.254 293.542 229.18 283.327C258.107 273.112 287.022 281.76 301.092 291.962C315.163 302.166 340.959 309.246 355.029 307.679C369.099 306.112 386.301 320.239 388.646 332.81C390.991 345.381 395.681 346.948 398.026 349.304C400.371 351.66 402.716 357.94 402.716 357.94L190.1 357.94C190.1 357.94 177.589 359.519 172.113 355.583C172.113 355.583 161.173 347.737 171.339 337.522Z" stroke="#2E353A" stroke-opacity="1.000000" stroke-width="1.000000"/>
		<path id="Vector" d="M372.723 320.379C372.723 320.379 379.406 330.441 375.232 338.842C371.058 347.242 363.506 347.23 363.506 347.23" stroke="#FFFFFF" stroke-opacity="1.000000" stroke-width="1.000000"/>
		<path id="Vector" d="M360.2 342.199C360.2 342.199 360.2 345.545 348.474 349.751" stroke="#FFFFFF" stroke-opacity="1.000000" stroke-width="1.000000"/>
		<path id="Vector" d="M250.38 353.085C246.686 354.134 244.107 354.782 244.107 354.782" stroke="#FFFFFF" stroke-opacity="1.000000" stroke-width="1.000000"/>
		<path id="Vector" d="M288.476 315.655C284.606 318.907 280.432 323.313 279.177 327.932C276.68 337.157 280.854 338.842 274.171 343.873C270.454 346.677 261.578 349.764 254.437 351.896" stroke="#FFFFFF" stroke-opacity="1.000000" stroke-width="1.000000"/>
		<path id="Vector" d="M295.887 310.307C295.887 310.307 294.292 311.249 292.075 312.84" stroke="#FFFFFF" stroke-opacity="1.000000" stroke-width="1.000000"/>
		<path id="Vector" d="M259.971 339.678C259.971 339.678 248.246 347.23 238.256 350.588C228.266 353.946 205.683 348.066 205.683 348.066" stroke="#FFFFFF" stroke-opacity="1.000000" stroke-width="1.000000"/>
		<path id="Vector" d="M202.47 342.306C198.411 340.4 194.912 337.469 192.316 333.799" stroke="#FFFFFF" stroke-opacity="1.000000" stroke-width="1.000000"/>
		<path id="Vector" d="M214.031 345.545C211.787 345.344 209.571 344.905 207.418 344.237" stroke="#FFFFFF" stroke-opacity="1.000000" stroke-width="1.000000"/>
		<path id="Vector" d="M273.737 158.441C264.274 150.441 256.09 151.372 251.388 153.08C250.638 156.944 250.134 159.419 250.016 159.784C249.278 161.987 252.197 168.95 261.32 178.847C267.15 185.147 274.811 189.436 283.211 191.1C285.474 182.252 285.931 168.762 273.737 158.441Z" fill="#2E353A" fill-opacity="1.000000" fill-rule="nonzero"/>
		<path id="Vector" d="M251.388 153.08C250.638 156.944 250.134 159.419 250.016 159.784C249.278 161.987 252.197 168.95 261.32 178.847C267.15 185.147 274.811 189.436 283.211 191.1C285.474 182.252 285.931 168.762 273.737 158.441C264.274 150.441 256.09 151.372 251.388 153.08Z" stroke="#2E353A" stroke-opacity="1.000000" stroke-width="1.000000"/>
		<path id="Vector" d="M239.827 280.734C239.827 280.734 222.649 289.877 222.239 299.797C221.828 309.718 232.088 309.694 243.345 306.761C254.601 303.827 269.234 291.727 271.79 290.631C274.347 289.536 283.094 284.398 281.276 277.07C279.459 269.742 269.551 262.779 269.551 262.779L239.827 280.734Z" fill="#FFFFFF" fill-opacity="1.000000" fill-rule="nonzero"/>
		<path id="Vector" d="M222.239 299.797C221.828 309.718 232.088 309.694 243.345 306.761C254.601 303.827 269.234 291.727 271.79 290.631C274.347 289.536 283.094 284.398 281.276 277.07C279.459 269.742 269.551 262.779 269.551 262.779L239.827 280.734C239.827 280.734 222.649 289.877 222.239 299.797Z" stroke="#2E353A" stroke-opacity="1.000000" stroke-width="1.000000"/>
		<path id="Vector" d="M281.499 277.812C271.673 284.964 249.84 300.304 240.167 303.097C237.177 304.061 234.003 304.306 230.902 303.812C227.8 303.319 224.857 302.102 222.309 300.257C222.309 309.683 232.323 309.683 243.415 306.761C254.718 303.827 269.305 291.727 271.861 290.631C274.417 289.536 282.578 284.74 281.499 277.812Z" fill="#C35CFC" fill-opacity="1.000000" fill-rule="nonzero"/>
		<path id="Vector" d="M240.167 303.097C237.177 304.061 234.003 304.306 230.902 303.812C227.8 303.319 224.857 302.102 222.309 300.257C222.309 309.683 232.323 309.683 243.415 306.761C254.718 303.827 269.305 291.727 271.861 290.631C274.417 289.536 282.578 284.74 281.499 277.812C271.673 284.964 249.84 300.304 240.167 303.097Z" stroke="#2E353A" stroke-opacity="1.000000" stroke-width="1.000000"/>
		<path id="Vector" d="M220.105 240.053C220.105 240.053 231.772 277.754 236.145 281.465C240.519 285.176 259.127 282.196 259.127 282.196C259.127 282.196 263.137 289.536 266.057 292.799C268.976 296.063 277.782 293.53 278.099 284.364C278.415 275.197 272.986 262.379 272.986 262.379L260.593 227.917C260.593 227.917 245.995 224.984 232.452 227.917C218.909 230.851 220.105 240.053 220.105 240.053Z" fill="#FFFFFF" fill-opacity="1.000000" fill-rule="nonzero"/>
		<mask id="mask296_2935" mask-type="alpha" maskUnits="userSpaceOnUse" x="220.078003" y="226.613770" width="58.034180" height="67.545410">
			<path id="Vector" d="M220.105 240.053C220.105 240.053 231.772 277.754 236.145 281.465C240.519 285.176 259.127 282.196 259.127 282.196C259.127 282.196 263.137 289.536 266.057 292.799C268.976 296.063 277.782 293.53 278.099 284.364C278.415 275.197 272.986 262.379 272.986 262.379L260.593 227.917C260.593 227.917 245.995 224.984 232.452 227.917C218.909 230.851 220.105 240.053 220.105 240.053Z" fill="#000000" fill-opacity="1.000000" fill-rule="nonzero"/>
		</mask>
		<g mask="url(#mask296_2935)">
			<g opacity="0.490000">
				<path id="Vector" d="M278.099 284.398C278.462 275.232 272.986 262.414 272.986 262.414L260.593 227.953C252.852 226.578 244.956 226.316 237.142 227.175C234.192 228.153 231.163 228.874 228.09 229.331C225.723 230.245 223.65 231.793 222.098 233.808C225.205 234.81 228.747 235.87 232.44 236.86C244.165 240.005 248.07 235.292 250.415 244.718C252.76 254.144 255.41 273.348 259.162 282.195C259.162 282.195 263.172 289.536 266.092 292.799C269.012 296.062 277.735 293.565 278.099 284.398Z" fill="#C35CFC" fill-opacity="1.000000" fill-rule="nonzero"/>
			</g>
		</g>
		<path id="Vector" d="M236.145 281.465C240.519 285.176 259.127 282.196 259.127 282.196C259.127 282.196 263.137 289.536 266.057 292.799C268.976 296.063 277.782 293.53 278.099 284.364C278.415 275.197 272.986 262.379 272.986 262.379L260.593 227.917C260.593 227.917 245.995 224.984 232.452 227.917C218.909 230.851 220.105 240.053 220.105 240.053C220.105 240.053 231.772 277.754 236.145 281.465Z" stroke="#2E353A" stroke-opacity="1.000000" stroke-width="1.000000"/>
		<path id="Vector" d="M273.35 280.558C273.724 282.604 273.838 284.691 273.69 286.767" stroke="#2E353A" stroke-opacity="1.000000" stroke-width="0.500000"/>
		<path id="Vector" d="M256.477 236.683C256.477 236.683 268.636 260.247 272.564 276.741" stroke="#2E353A" stroke-opacity="1.000000" stroke-width="0.500000"/>
		<path id="Vector" d="M218.639 222.462C218.639 222.462 213.175 229.425 216.458 237.85C219.741 246.273 232.874 248.453 244.177 244.447C255.48 240.441 261.683 230.521 260.229 225.396C258.775 220.271 218.639 222.462 218.639 222.462Z" fill="#2E353A" fill-opacity="1.000000" fill-rule="nonzero"/>
		<path id="Vector" d="M216.458 237.85C219.741 246.273 232.874 248.453 244.177 244.447C255.48 240.441 261.683 230.521 260.229 225.396C258.775 220.271 218.639 222.462 218.639 222.462C218.639 222.462 213.175 229.425 216.458 237.85Z" stroke="#2E353A" stroke-opacity="1.000000" stroke-width="1.000000"/>
		<path id="Vector" d="M282.109 188.378C282.109 188.378 267.522 222.098 258.036 229.061C248.551 236.023 227.398 236.389 219.741 227.953C212.085 219.517 221.195 199.736 230.681 184.361C240.167 168.986 244.904 155.778 255.48 156.509C266.057 157.239 283.574 170.411 282.109 188.378Z" fill="#FFFFFF" fill-opacity="1.000000" fill-rule="nonzero"/>
		<mask id="mask296_2945" mask-type="alpha" maskUnits="userSpaceOnUse" x="216.881348" y="156.479980" width="65.313843" height="77.804688">
			<path id="Vector" d="M282.109 188.378C282.109 188.378 267.522 222.098 258.036 229.061C248.551 236.023 227.398 236.389 219.741 227.953C212.085 219.517 221.195 199.736 230.681 184.361C240.167 168.986 244.904 155.778 255.48 156.509C266.057 157.239 283.574 170.411 282.109 188.378Z" fill="#000000" fill-opacity="1.000000" fill-rule="nonzero"/>
		</mask>
		<g mask="url(#mask296_2945)">
			<g opacity="0.490000">
				<path id="Vector" d="M249.594 220.365C241.387 227.305 230.341 229.449 222.075 229.979C231.057 236.271 249.395 235.399 258.037 229.06C267.522 222.097 282.109 188.378 282.109 188.378C282.418 184.51 281.862 180.621 280.479 176.997C276.363 184.561 262.105 209.762 249.594 220.365Z" fill="#C35CFC" fill-opacity="1.000000" fill-rule="nonzero"/>
			</g>
		</g>
		<path id="Vector" d="M258.036 229.061C248.551 236.023 227.398 236.389 219.741 227.953C212.085 219.517 221.195 199.736 230.681 184.361C240.167 168.986 244.904 155.778 255.48 156.509C266.057 157.239 283.574 170.411 282.109 188.378C282.109 188.378 267.522 222.098 258.036 229.061Z" stroke="#2E353A" stroke-opacity="1.000000" stroke-width="1.000000"/>
		<path id="Vector" d="M249.349 230.497C248.025 231.344 246.613 232.043 245.139 232.583" stroke="#2E353A" stroke-opacity="1.000000" stroke-width="0.500000"/>
		<path id="Vector" d="M277.43 191.406C272.904 201.102 264.415 217.326 254.472 226.504" stroke="#2E353A" stroke-opacity="1.000000" stroke-width="0.500000"/>
		<path id="Vector" d="M280.948 183.406C280.948 183.406 280.151 185.409 278.708 188.625" stroke="#2E353A" stroke-opacity="1.000000" stroke-width="0.500000"/>
	</g>
</svg>
