<svg width="27" height="28" viewBox="0 0 27 28" fill="none" xmlns="http://www.w3.org/2000/svg">
<path d="M13.5088 0.87207C6.16289 0.87207 0.208008 6.82728 0.208008 14.1736C0.208008 21.5199 6.16289 27.4751 13.5088 27.4751C20.8547 27.4751 26.8096 21.5199 26.8096 14.1736C26.8096 6.82728 20.8547 0.87207 13.5088 0.87207ZM10.2529 19.6868H7.55947V11.0186H10.2529V19.6868ZM8.88955 9.95453C8.03885 9.95453 7.48881 9.3518 7.48881 8.60636C7.48881 7.84568 8.05548 7.26096 8.92419 7.26096C9.7929 7.26096 10.3249 7.84568 10.3416 8.60636C10.3416 9.3518 9.7929 9.95453 8.88955 9.95453ZM20.0899 19.6868H17.3965V14.883C17.3965 13.7649 17.0058 13.0056 16.0318 13.0056C15.2878 13.0056 14.8458 13.5196 14.6505 14.0143C14.5784 14.1902 14.5604 14.4396 14.5604 14.6877V19.6854H11.8656V13.7829C11.8656 12.7007 11.831 11.796 11.7949 11.0173H14.1351L14.2584 12.2213H14.3124C14.6671 11.656 15.5358 10.8219 16.9892 10.8219C18.7612 10.8219 20.0899 12.0093 20.0899 14.5616V19.6868Z" fill="white"/>
</svg>
