<svg width="527" height="277" viewBox="0 0 527 277" fill="none" xmlns="http://www.w3.org/2000/svg">
<path d="M420.168 136.78C420.168 212.02 355.721 273.061 276.163 273.061C196.606 273.061 132.159 212.02 132.159 136.78C132.159 61.5403 196.606 0.5 276.163 0.5C355.721 0.5 420.168 61.5403 420.168 136.78Z" stroke="url(#paint0_linear_374_1049)"/>
<g opacity="0.2">
<path d="M232.782 18.2461C240.691 28.1739 250.546 36.3924 261.746 42.4003C264.391 43.9573 266.794 40.3641 265.392 38.4078C259.223 29.3051 253.614 20.4419 246.603 11.8582C244.68 9.50265 242.597 6.90758 240.874 4.3125C235.763 5.51523 230.721 6.99462 225.771 8.74409C227.894 12.0179 230.538 15.132 232.782 18.2461Z" fill="url(#paint1_linear_374_1049)"/>
<path d="M223.485 42.1997C242.059 65.5537 265.36 84.7478 291.871 98.5328C319.116 112.907 348.819 122.074 379.447 125.562C392.985 127.264 406.657 127.652 420.27 126.719C419.901 121.991 419.273 117.286 418.387 112.626C407.039 113.95 395.578 114.017 384.214 112.826C358.673 110.256 333.707 103.639 310.259 93.2229C287.703 83.5141 266.942 70.0993 248.844 53.5382C237.506 42.9583 222.603 28.2662 215.913 12.4961C212.988 13.7737 210.144 15.0912 207.3 16.4885C211.636 25.6773 217.07 34.3103 223.485 42.1997Z" fill="url(#paint2_linear_374_1049)"/>
<path d="M329.93 36.7302C342.429 44.3957 368.91 54.0573 386.017 47.909C382.778 44.2889 379.341 40.8502 375.721 37.6086C374.714 37.7896 373.697 37.9096 372.676 37.9679C361.953 38.1521 351.343 35.7554 341.748 30.9811C330.651 25.9906 313.344 15.4506 304.971 2.79462C302.006 2.19576 299.002 1.71663 295.957 1.31738C301.125 16.1293 317.751 29.3043 329.93 36.7302Z" fill="url(#paint3_linear_374_1049)"/>
<path d="M199.206 86.9942C223.243 113.464 254.171 132.348 286.942 147.879C316.761 162.729 349.206 171.626 382.451 174.069C393.422 174.805 404.436 174.645 415.382 173.59C418.375 163.323 420.111 152.732 420.55 142.05C405.856 143.173 391.085 142.745 376.481 140.772C348.865 136.519 322.094 127.95 297.158 115.38C270.998 102.724 245.598 87.4334 225.046 67.2717C215.064 57.2827 206.137 46.2993 198.405 34.4939C196.402 31.4597 194.399 28.3455 192.756 25.2314C184.463 30.8003 176.77 37.209 169.801 44.3552C177.505 59.8972 187.407 74.2567 199.206 86.9942Z" fill="url(#paint4_linear_374_1049)"/>
<path d="M179.776 182.813C162.927 171.114 146.867 158.324 131.702 144.525C131.702 148.158 132.263 151.792 132.824 155.385C165.835 188.083 208.581 213.794 249.845 233.277C276.036 245.72 303.329 255.718 331.372 263.14C334.096 262.062 336.78 260.944 339.384 259.707C310.266 251.838 281.994 241.14 254.973 227.767C228.724 214.843 203.575 199.809 179.776 182.813Z" fill="url(#paint5_linear_374_1049)"/>
<path d="M320.676 56.5721C338.337 67.6427 358.413 74.3117 379.207 76.0152C387.741 76.531 396.306 76.0487 404.727 74.5779C402.683 70.8251 400.48 67.1121 398.036 63.5189C391.036 64.9023 383.88 65.3321 376.763 64.7965C359.26 63.2198 342.316 57.8367 327.126 49.0265C305.412 37.0492 283.819 20.6004 270.478 0.15918C267.073 0.15918 263.708 0.478566 260.343 0.837884C273.443 24.3533 300.325 44.4751 320.676 56.5721Z" fill="url(#paint6_linear_374_1049)"/>
<path d="M370.311 240.54C357.404 239.55 344.563 237.831 331.852 235.39C279.538 225.83 230.526 203.161 189.431 169.515C169.76 154.024 147.606 136.857 133.343 116.017C132.823 119.211 132.382 122.444 132.102 125.678C143.399 141.368 160.986 154.623 174.888 166.481C197.269 185.984 221.956 202.689 248.402 216.226C282.892 233.233 319.971 244.43 358.132 249.364L359.254 248.685C363.18 246.09 366.786 243.375 370.311 240.54Z" fill="url(#paint7_linear_374_1049)"/>
<path d="M260.1 200.378C293.946 216.271 330.078 226.792 367.186 231.559C371.193 232.038 375.199 232.397 379.205 232.717C392.045 220.443 402.349 205.781 409.532 189.559C395.635 190.132 381.714 189.424 367.948 187.443C336.429 182.649 305.797 173.232 277.046 159.496C247.102 146.038 219.754 127.459 196.241 104.6C184.025 92.2816 173.271 78.6042 164.191 63.8374C162.589 61.3222 161.106 58.6472 159.624 55.8525C148.994 69.5859 141.143 85.247 136.508 101.965C143.657 112.543 151.699 122.493 160.546 131.709C189.152 160.574 222.916 183.863 260.1 200.378Z" fill="white"/>
<path d="M363.183 84.1983C351.765 80.6051 340.147 80.2059 328.97 74.9758C317.793 69.7457 307.296 61.2818 294.957 58.2475C288.828 56.7304 286.304 64.5556 290.19 68.029C300.165 76.8921 316.07 82.9207 328.569 88.3105C338.705 92.6622 352.607 95.936 362.863 91.0653C365.426 89.8276 366.708 85.3561 363.183 84.1983Z" fill="url(#paint8_linear_374_1049)"/>
<path d="M212.707 235.872C210.114 234.945 207.427 234.302 204.695 233.956C201.81 233.597 200.168 237.669 203.132 238.747C205.265 239.493 207.296 240.499 209.182 241.741C211.203 242.904 213.373 243.79 215.632 244.376C216.061 244.563 216.539 244.609 216.996 244.507C217.453 244.405 217.865 244.16 218.173 243.808C218.481 243.457 218.669 243.017 218.709 242.552C218.749 242.087 218.639 241.621 218.396 241.222C217.196 238.823 215.18 236.927 212.707 235.872Z" fill="url(#paint9_linear_374_1049)"/>
<path d="M291.989 258.31C277.006 252.801 262.263 243.019 246.358 240.424C242.793 239.825 239.348 244.097 241.952 247.011C253.129 259.627 272.639 265.736 288.464 271.365L292.47 272.723C301.713 271.715 310.845 269.871 319.752 267.213C310.378 264.538 301.043 261.624 291.989 258.31Z" fill="url(#paint10_linear_374_1049)"/>
<path d="M186.907 219.782C191.595 220.899 193.077 215.19 190.433 212.555C181.299 203.492 168.038 197.903 157.582 189.998C150.691 184.768 143.881 179.458 137.27 174.028C139.212 180.576 141.677 186.957 144.642 193.112C156.821 205.209 171.283 216.029 186.907 219.782Z" fill="url(#paint11_linear_374_1049)"/>
</g>
<path d="M389.493 159.599L389.503 159.599L389.517 159.599H389.531H389.545H389.56H389.574H389.588H389.603H389.617H389.631H389.646H389.66H389.674H389.688H389.703H389.717H389.731H389.746H389.76H389.774H389.788H389.803H389.817H389.831H389.845H389.86H389.874H389.888H389.902H389.917H389.931H389.945H389.959H389.973H389.988H390.002H390.016H390.03H390.045H390.059H390.073H390.087H390.101H390.116H390.13H390.144H390.158H390.172H390.187H390.201H390.215H390.229H390.243H390.257H390.272H390.286H390.3H390.314H390.328H390.342H390.357H390.371H390.385H390.399H390.413H390.427H390.441H390.455H390.47H390.484H390.498H390.512H390.526H390.54H390.554H390.568H390.582H390.597H390.611H390.625H390.639H390.653H390.667H390.681H390.695H390.709H390.723H390.737H390.751H390.765H390.779H390.793H390.808H390.822H390.836H390.85H390.864H390.878H390.892H390.906H390.92H390.934H390.948H390.962H390.976H390.99H391.004H391.018H391.032H391.046H391.06H391.074H391.088H391.102H391.116H391.13H391.144H391.158H391.172H391.185H391.199H391.213H391.227H391.241H391.255H391.269H391.283H391.297H391.311H391.325H391.339H391.353H391.367H391.38H391.394H391.408H391.422H391.436H391.45H391.464H391.478H391.492H391.506H391.519H391.533H391.547H391.561H391.575H391.589H391.603H391.616H391.63H391.644H391.658H391.672H391.686H391.699H391.713H391.727H391.741H391.755H391.768H391.782H391.796H391.81H391.824H391.837H391.851H391.865H391.879H391.893H391.906H391.92H391.934H391.948H391.961H391.975H391.989H392.003H392.016H392.03H392.044H392.058H392.071H392.085H392.099H392.112H392.126H392.14H392.154H392.167H392.181H392.195H392.208H392.222H392.236H392.249H392.263H392.277H392.29H392.304H392.318H392.331H392.345H392.359H392.372H392.386H392.4H392.413H392.427H392.441H392.454H392.468H392.481H392.495H392.509H392.522H392.536H392.549H392.563H392.577H392.59H392.604H392.617H392.631H392.644H392.658H392.672H392.685H392.699H392.712H392.726H392.739H392.753H392.766H392.78H392.793H392.807H392.82H392.834H392.847H392.861H392.874H392.888H392.901H392.915H392.928H392.942H392.955H392.969H392.982H392.996H393.009H393.023H393.036H393.05H393.063H393.076H393.09H393.103H393.117H393.13H393.144H393.157H393.17H393.184H393.197H393.211H393.224H393.237H393.251H393.264H393.277H393.291H393.304H393.318H393.331H393.344H393.358H393.371H393.384H393.398H393.411H393.424H393.438H393.451H393.464H393.478H393.491H393.504H393.518H393.531H393.544H393.557H393.571H393.584H393.597H393.61H393.624H393.637H393.65H393.663H393.677H393.69H393.703H393.716H393.73H393.743H393.756H393.769H393.783H393.796H393.809H393.822H393.835H393.849H393.862H393.875H393.888H393.901H393.914H393.928H393.941H393.954H393.967H393.98H393.993H394.006H394.02H394.033H394.046H394.059H394.072H394.085H394.098H394.111H394.124H394.138H394.151H394.164H394.177H394.19H394.203H394.216H394.229H394.242H394.255H394.268H394.281H394.294H394.307H394.32H394.333H394.346H394.359H394.372H394.385H394.398H394.411H394.424H394.437H394.45H394.463H394.476H394.489H394.502H394.515H394.528H394.541H394.554H394.567H394.58H394.593H394.606H394.619H394.631H394.644H394.657H394.67H394.683H394.696H394.709H394.722H394.735H394.747H394.76H394.773H394.786H394.799H394.812H394.825H394.837H394.85H394.863H394.876H394.889H394.902H394.914H394.927H394.94H394.953H394.966H394.978H394.991H395.004H395.017H395.029H395.042H395.055H395.068H395.08H395.093H395.106H395.119H395.131H395.144H395.157H395.169H395.182H395.195H395.208H395.22H395.233H395.246H395.258H395.271H395.284H395.296H395.309H395.322H395.334H395.347H395.359H395.372H395.385H395.397H395.41H395.423H395.435H395.448H395.46H395.473H395.485H395.498H395.511H395.523H395.536H395.548H395.561H395.573H395.586H395.598H395.611H395.624H395.636H395.649H395.661H395.674H395.686H395.699H395.711H395.724H395.736H395.748H395.761H395.773H395.786H395.798H395.811H395.823H395.836H395.848H395.86H395.873H395.885H395.898H395.91H395.923H395.935H395.947H395.96H395.972H395.984H395.997H396.009H396.022H396.034H396.046H396.059H396.071H396.083H396.096H396.108H396.12H396.132H396.145H396.157H396.169H396.182H396.194H396.206H396.218H396.231H396.243H396.255H396.268H396.28H396.292H396.304H396.316H396.329H396.329L402.073 159.043L389.493 159.599ZM389.493 159.599C383.909 159.703 378.324 159.49 372.764 158.963L372.763 158.963M389.493 159.599L372.763 158.963M372.763 158.963L363 158.046C362.998 158.046 362.996 158.045 362.994 158.045C360.728 157.776 358.416 157.363 356.033 156.937C354.896 156.734 353.742 156.528 352.569 156.333C344.876 155.004 337.258 153.275 329.746 151.154C295.157 141.363 263.169 124.07 236.072 100.514C230.199 95.3893 224.596 89.9651 219.285 84.2634C218.592 83.5058 217.9 82.7715 217.218 82.0468C215.431 80.1498 213.708 78.3197 212.185 76.3153L212.185 76.3152M372.763 158.963L212.185 76.3152M212.185 76.3152L212.177 76.3055M212.185 76.3152L212.177 76.3055M212.177 76.3055L206.048 68.6406C202.576 64.2864 199.351 59.7432 196.385 55.0319L196.384 55.0297M212.177 76.3055L196.384 55.0297M196.384 55.0297C195.929 54.3159 195.482 53.6246 195.047 52.9522C194.211 51.6604 193.42 50.4388 192.712 49.2638L190.036 44.1678C190.035 44.1676 190.035 44.1673 190.035 44.1671C188.436 41.0983 187.293 38.6909 186.627 37.013C186.292 36.1703 186.086 35.5333 185.998 35.0979C185.988 35.0473 185.979 35.001 185.973 34.9589C186.014 34.9872 186.06 35.02 186.11 35.0578C186.472 35.3327 186.966 35.8003 187.588 36.47C188.828 37.804 190.519 39.8744 192.599 42.6245L196.004 47.1356L196.004 47.1356M196.384 55.0297L196.004 47.1356M196.004 47.1356L196.009 47.1426M196.004 47.1356L196.009 47.1426M196.009 47.1426C196.736 48.0703 197.539 49.026 198.372 50.0169C199.005 50.7697 199.655 51.5428 200.301 52.3395L200.306 52.3451M196.009 47.1426L200.306 52.3451M200.306 52.3451L200.31 52.3505M200.306 52.3451L200.31 52.3505M200.31 52.3505C201.265 53.4609 202.242 54.6467 203.26 55.8837C205.543 58.6567 208.039 61.6874 210.983 64.7047L217.387 71.6858L217.388 71.6863M200.31 52.3505L217.388 71.6863M217.388 71.6863C218.817 73.24 220.426 74.7558 222.058 76.2933C222.951 77.1348 223.852 77.9828 224.733 78.8471C228.741 82.9706 233.384 86.9117 238.188 90.9903C239.315 91.9464 240.45 92.9101 241.588 93.8854L241.588 93.8855M217.388 71.6863L241.588 93.8855M241.588 93.8855L241.597 93.8931M241.588 93.8855L241.597 93.8931M241.597 93.8931C268.427 115.796 299.177 132.435 332.222 142.929L332.222 142.93M241.597 93.8931L332.222 142.93M332.222 142.93L332.236 142.933M332.222 142.93L332.236 142.933M332.236 142.933C333.906 143.413 335.558 143.899 337.193 144.38C343.025 146.095 348.641 147.747 354.106 148.811C355.312 149.077 356.514 149.365 357.709 149.651C359.886 150.173 362.036 150.688 364.138 151.05L364.141 151.051M332.236 142.933L364.141 151.051M364.141 151.051L373.507 152.606C377.499 153.412 381.299 153.825 384.755 154.201C386.443 154.384 388.048 154.559 389.555 154.766L389.564 154.767M364.141 151.051L389.564 154.767M389.564 154.767L389.573 154.768M389.564 154.767L389.573 154.768M389.573 154.768C390.767 154.887 391.921 155.036 393.039 155.181L393.126 155.192C394.21 155.332 395.26 155.468 396.264 155.567L396.273 155.567M389.573 154.768L396.273 155.567M396.273 155.567L396.281 155.568M396.273 155.567L396.281 155.568M396.281 155.568L401.916 155.926C401.918 155.926 401.921 155.927 401.923 155.927C405.404 156.246 408.078 156.554 409.883 156.869C410.79 157.027 411.454 157.184 411.885 157.337C411.948 157.359 412.003 157.381 412.052 157.401M396.281 155.568L412.052 157.401M412.052 157.401C412.008 157.421 411.959 157.442 411.903 157.465C411.487 157.631 410.84 157.807 409.95 157.987C408.178 158.347 405.534 158.704 402.074 159.043L412.052 157.401ZM185.957 34.633C185.957 34.6331 185.957 34.6354 185.956 34.6394C185.956 34.6348 185.957 34.6328 185.957 34.633ZM185.692 34.8067C185.687 34.8061 185.684 34.8054 185.684 34.8052C185.684 34.805 185.687 34.8053 185.692 34.8067ZM412.323 157.238C412.325 157.237 412.324 157.238 412.32 157.242C412.321 157.24 412.322 157.239 412.323 157.238ZM412.326 157.55C412.33 157.553 412.331 157.554 412.331 157.554C412.331 157.554 412.329 157.553 412.326 157.55Z" stroke="url(#paint12_linear_374_1049)"/>
<path d="M44.5485 34.5841L44.576 34.5784L44.6026 34.5697C47.0921 33.7555 51.0933 33.5654 56.7558 34.1767C62.4027 34.7864 69.6472 36.1865 78.5898 38.506C96.3706 43.1179 120.826 51.3546 152.712 64.1968C152.577 64.4072 152.442 64.6179 152.306 64.8292C151.736 65.7137 151.161 66.6076 150.631 67.5272C129.91 59.48 112.585 53.5687 100.003 50.3186C93.6753 48.684 88.5243 47.7163 84.7357 47.4952C82.8431 47.3847 81.263 47.4586 80.0353 47.7429C78.8152 48.0254 77.8654 48.5348 77.3537 49.3619L77.3439 49.3777L77.3354 49.3942C76.9303 50.1728 76.9845 51.0915 77.3459 52.0675C77.7071 53.043 78.3962 54.1385 79.3668 55.34C81.3102 57.7457 84.4635 60.6746 88.6841 64.0495C97.1319 70.8046 109.943 79.415 126.154 89.2925C158.582 109.051 204.668 133.911 256.799 159.188C308.929 184.464 357.189 205.392 393.079 218.788C411.021 225.486 425.885 230.306 436.601 232.845C441.956 234.114 446.299 234.819 449.484 234.897C451.074 234.936 452.405 234.819 453.437 234.521C454.466 234.225 455.264 233.729 455.682 232.96C456.12 232.189 456.102 231.274 455.769 230.299C455.436 229.324 454.772 228.232 453.827 227.037C451.934 224.644 448.826 221.733 444.651 218.379C436.363 211.723 423.775 203.253 407.836 193.532C408.216 192.81 408.554 192.073 408.886 191.347C408.922 191.269 408.957 191.192 408.993 191.114C447.974 214.623 472.366 232.569 482.992 242.83C483.375 243.35 483.605 243.965 483.659 244.608C483.714 245.263 483.581 245.92 483.277 246.504C482.974 247.088 482.51 247.574 481.941 247.907C481.377 248.238 480.731 248.404 480.077 248.388C464.929 246.733 435.249 238.946 395.509 224.845C355.766 210.744 305.995 190.34 250.705 163.478C158.812 118.848 107.447 88.9567 78.7774 69.3342C64.4423 59.5228 55.7924 52.2863 50.5897 47.0662C45.3807 41.8397 43.6567 38.6634 43.1209 36.9773L43.1184 36.9693L43.1156 36.9615C42.9568 36.5139 42.9525 36.0267 43.1027 35.5769L43.2526 35.3078C43.5991 34.94 44.0515 34.687 44.5485 34.5841Z" stroke="url(#paint13_linear_374_1049)"/>
<path d="M408.771 242.455L408.768 242.453C352.816 223.249 298.125 200.573 245.017 174.559C221.26 162.981 196.135 150.601 171.85 137.742C136.79 119.354 103.341 100.551 77.7854 83.6438C65.0085 75.191 54.1929 67.2045 46.1328 59.9745C38.0963 52.7656 32.7307 46.2499 30.9509 40.7252C30.3128 38.9757 30.0533 37.1114 30.1894 35.2548C30.3258 33.3948 30.8562 31.5849 31.7455 29.9442L31.7456 29.944C32.6595 28.2597 33.9077 26.7783 35.4142 25.5901C36.9173 24.4046 38.6461 23.5356 40.4958 23.0357C45.2383 21.4978 51.8976 21.3853 59.9664 22.3732C68.0554 23.3636 77.6165 25.4677 88.1858 28.4082C109.228 34.2625 134.313 43.4452 159.818 53.8096C160.01 53.551 160.188 53.2945 160.371 53.0306C160.384 53.011 160.398 52.9914 160.412 52.9716C117.15 35.8923 80.1703 23.8372 52.7724 17.6699C39.0083 14.5716 27.6852 12.9647 19.2082 12.9455C14.9693 12.9359 11.464 13.3235 8.72976 14.1081C5.99284 14.8935 4.07277 16.0636 2.94021 17.5854L2.93955 17.5863C0.416759 20.9608 -0.121932 24.9875 1.19639 29.6504C2.52043 34.3335 5.71494 39.6367 10.6329 45.4789C20.4661 57.1599 37.0734 70.8622 58.8948 85.8992C102.527 115.966 166.881 151.286 239.204 186.355C311.515 221.418 380.525 247.617 432.833 262.49C458.991 269.927 480.954 274.526 497.057 275.991C505.111 276.723 511.673 276.669 516.55 275.805C521.452 274.938 524.519 273.277 525.792 270.927C525.792 270.927 525.792 270.927 525.792 270.927L526.232 271.165C533.509 257.618 488.512 220.807 415.295 177.164L408.771 242.455ZM408.771 242.455C446.902 255.214 468.462 259.662 480.909 260.59C487.135 261.054 491.106 260.64 493.741 259.93C496.391 259.215 497.667 258.207 498.496 257.546C500.117 256.308 501.293 254.581 501.849 252.622C502.404 250.666 502.311 248.584 501.585 246.685C500.571 243.534 497.692 239.632 493.241 235.116C488.769 230.579 482.657 225.369 475.105 219.61C460.075 208.147 439.307 194.481 414.326 179.571C414.593 178.93 414.86 178.284 415.113 177.637L408.771 242.455Z" stroke="url(#paint14_linear_374_1049)"/>
<path d="M424.91 213.562L424.727 213.379C424.672 213.247 424.64 213.105 424.636 212.96C424.628 212.685 424.717 212.416 424.887 212.199C425.058 211.983 425.299 211.832 425.57 211.774C425.841 211.717 426.123 211.755 426.368 211.883C427.632 212.552 428.426 213.343 428.752 214.207C429.07 215.052 428.98 216.07 428.254 217.294L428.251 217.3C427.216 219.095 425.431 219.675 423.342 219.689C421.602 219.701 419.751 219.32 418.099 218.981C417.75 218.909 417.41 218.839 417.082 218.775C391.205 213.713 359.626 202.514 338.226 187.832L338.226 187.832L338.221 187.829C338.077 187.733 337.972 187.59 337.924 187.426C337.875 187.261 337.885 187.085 337.953 186.927C338.021 186.769 338.142 186.64 338.296 186.561C338.449 186.483 338.623 186.46 338.791 186.496C345.459 188.163 351.868 190.665 358.218 193.39C360.452 194.349 362.683 195.338 364.915 196.327C369.014 198.143 373.119 199.962 377.26 201.605C386.321 205.201 395.546 208.519 404.852 211.397C408.32 212.594 411.853 213.598 415.434 214.404L415.488 214.416H415.544C415.537 214.416 415.565 214.417 415.659 214.424C415.741 214.429 415.855 214.437 415.997 214.448L416.048 214.451C416.326 214.471 416.698 214.498 417.132 214.527C418.053 214.59 419.252 214.665 420.42 214.715C421.583 214.765 422.732 214.791 423.545 214.752C423.883 214.736 424.198 214.708 424.438 214.654L425.058 215.353V214.233C425.105 214.123 425.12 213.996 425.088 213.867C425.053 213.721 424.969 213.62 424.91 213.562Z" stroke="url(#paint15_linear_374_1049)"/>
<g opacity="0.3">
<path d="M150.852 68.1469C151.653 66.7096 152.575 65.3522 153.456 63.9548C89.1163 38.0041 54.823 30.698 44.4469 34.0915C43.8282 34.2196 43.2668 34.5413 42.8444 35.0098L42.6441 35.3691C42.4425 35.9375 42.4425 36.5574 42.6441 37.1258C44.9277 44.3121 66.6814 74.6546 250.487 163.925C361.098 217.663 449.636 245.57 480.043 248.884C480.797 248.907 481.543 248.717 482.193 248.336C482.844 247.955 483.373 247.399 483.721 246.732C484.068 246.064 484.219 245.313 484.157 244.563C484.095 243.814 483.821 243.097 483.368 242.496C472.672 232.156 448.073 214.07 408.772 190.395C408.252 191.513 407.771 192.631 407.17 193.709C439.42 213.351 458.009 227.884 455.245 232.715C449.996 242.416 361.259 209.279 257.017 158.735C152.775 108.191 72.7308 59.3236 77.7787 49.6221C81.0638 44.3121 109.067 51.8977 150.852 68.1469Z" fill="black"/>
<path d="M424.557 213.91C425.358 214.709 415.784 213.91 415.543 213.91C411.978 213.108 408.46 212.108 405.007 210.916C395.712 208.041 386.498 204.728 377.444 201.134C364.664 196.064 352.325 189.357 338.904 186.003C338.622 185.941 338.326 185.978 338.068 186.11C337.811 186.242 337.608 186.459 337.493 186.724C337.379 186.989 337.362 187.285 337.444 187.562C337.526 187.839 337.702 188.078 337.943 188.239C359.416 202.971 391.065 214.19 416.985 219.26C420.671 219.979 426.36 221.576 428.684 217.543C430.246 214.908 429.244 212.832 426.6 211.435C426.252 211.252 425.85 211.197 425.466 211.28C425.081 211.362 424.737 211.576 424.494 211.884C424.251 212.193 424.124 212.576 424.136 212.968C424.147 213.361 424.296 213.736 424.557 214.03V213.91Z" fill="black"/>
</g>
<g opacity="0.3">
<path d="M414.859 176.903C414.498 177.861 414.098 178.819 413.697 179.778C463.975 209.761 497.227 234.713 501.113 246.85C501.805 248.652 501.895 250.628 501.368 252.485C500.841 254.341 499.725 255.978 498.188 257.151C494.983 259.706 485.168 267.491 408.93 241.98C352.997 222.781 298.326 200.113 245.236 174.108C221.479 162.53 196.36 150.154 172.082 137.298C101.973 100.528 38.3544 62.1209 31.4237 40.5618C30.8074 38.8762 30.5566 37.0796 30.6878 35.2903C30.819 33.5011 31.3293 31.7599 32.1849 30.1815C33.0664 28.5569 34.2704 27.1279 35.7236 25.9817C37.1768 24.8355 38.8489 23.996 40.638 23.5142C59.1868 17.4856 108.744 33.575 159.983 54.4155C160.424 53.8566 160.784 53.2976 161.185 52.7387C74.13 18.324 12.314 4.15087 2.53885 17.2859C-18.5339 45.4725 94.3213 116.657 238.986 186.804C383.65 256.951 515.134 291.645 526.232 271.164C533.523 257.59 488.333 220.66 414.859 176.903Z" fill="black"/>
</g>
<defs>
<linearGradient id="paint0_linear_374_1049" x1="131.659" y1="0" x2="438.439" y2="22.5005" gradientUnits="userSpaceOnUse">
<stop stop-color="#20C7ED"/>
<stop offset="1" stop-color="#D251FD"/>
</linearGradient>
<linearGradient id="paint1_linear_374_1049" x1="245.788" y1="4.3125" x2="245.788" y2="42.7812" gradientUnits="userSpaceOnUse">
<stop stop-color="#14D1E8"/>
<stop offset="1" stop-color="#C35CFC"/>
</linearGradient>
<linearGradient id="paint2_linear_374_1049" x1="313.785" y1="12.4961" x2="313.785" y2="127.214" gradientUnits="userSpaceOnUse">
<stop stop-color="#14D1E8"/>
<stop offset="1" stop-color="#C759FC"/>
</linearGradient>
<linearGradient id="paint3_linear_374_1049" x1="340.987" y1="1.31738" x2="340.987" y2="49.8611" gradientUnits="userSpaceOnUse">
<stop stop-color="#14D1E8"/>
<stop offset="1" stop-color="#C759FC"/>
</linearGradient>
<linearGradient id="paint4_linear_374_1049" x1="295.175" y1="25.2314" x2="295.175" y2="174.523" gradientUnits="userSpaceOnUse">
<stop stop-color="#14D1E8"/>
<stop offset="1" stop-color="#C35CFC"/>
</linearGradient>
<linearGradient id="paint5_linear_374_1049" x1="235.543" y1="144.525" x2="235.543" y2="263.14" gradientUnits="userSpaceOnUse">
<stop stop-color="#14D1E8"/>
<stop offset="1" stop-color="#C35CFC"/>
</linearGradient>
<linearGradient id="paint6_linear_374_1049" x1="332.535" y1="0.15918" x2="332.535" y2="76.2153" gradientUnits="userSpaceOnUse">
<stop stop-color="#14D1E8"/>
<stop offset="1" stop-color="#C759FC"/>
</linearGradient>
<linearGradient id="paint7_linear_374_1049" x1="251.206" y1="116.017" x2="251.206" y2="249.364" gradientUnits="userSpaceOnUse">
<stop stop-color="#14D1E8"/>
<stop offset="1" stop-color="#C759FC"/>
</linearGradient>
<linearGradient id="paint8_linear_374_1049" x1="326.84" y1="58.0547" x2="326.84" y2="93.4896" gradientUnits="userSpaceOnUse">
<stop stop-color="#14D1E8"/>
<stop offset="1" stop-color="#C35CFC"/>
</linearGradient>
<linearGradient id="paint9_linear_374_1049" x1="210.14" y1="233.934" x2="210.14" y2="244.56" gradientUnits="userSpaceOnUse">
<stop stop-color="#14D1E8"/>
<stop offset="1" stop-color="#C759FC"/>
</linearGradient>
<linearGradient id="paint10_linear_374_1049" x1="280.396" y1="240.367" x2="280.396" y2="272.723" gradientUnits="userSpaceOnUse">
<stop stop-color="#14D1E8"/>
<stop offset="1" stop-color="#C35CFC"/>
</linearGradient>
<linearGradient id="paint11_linear_374_1049" x1="164.503" y1="174.028" x2="164.503" y2="219.925" gradientUnits="userSpaceOnUse">
<stop stop-color="#14D1E8"/>
<stop offset="1" stop-color="#C759FC"/>
</linearGradient>
<linearGradient id="paint12_linear_374_1049" x1="185.45" y1="34.3076" x2="424.297" y2="64.2677" gradientUnits="userSpaceOnUse">
<stop stop-color="#20C7ED"/>
<stop offset="1" stop-color="#D251FD"/>
</linearGradient>
<linearGradient id="paint13_linear_374_1049" x1="42.4932" y1="33.3164" x2="504.504" y2="99.0329" gradientUnits="userSpaceOnUse">
<stop stop-color="#20C7ED"/>
<stop offset="1" stop-color="#D251FD"/>
</linearGradient>
<linearGradient id="paint14_linear_374_1049" x1="0.000244141" y1="12.4453" x2="551.859" y2="88.7643" gradientUnits="userSpaceOnUse">
<stop stop-color="#20C7ED"/>
<stop offset="1" stop-color="#D251FD"/>
</linearGradient>
<linearGradient id="paint15_linear_374_1049" x1="337.393" y1="185.979" x2="432.3" y2="203.705" gradientUnits="userSpaceOnUse">
<stop stop-color="#20C7ED"/>
<stop offset="1" stop-color="#D251FD"/>
</linearGradient>
</defs>
</svg>
