<svg width="219.053223" height="166.102539" viewBox="0 0 219.053 166.103" fill="none" xmlns="http://www.w3.org/2000/svg" xmlns:xlink="http://www.w3.org/1999/xlink">
	<desc>
			Created with Pixso.
	</desc>
	<defs/>
	<path id="Vector" d="M40.9401 97.043C40.5056 97.4639 31.7622 120.626 48.7314 139.776C64.3335 157.379 91.5587 161.889 92.0193 159.364C92.5806 156.273 79.208 148.902 71.0186 133.471C68.1149 127.996 69.9421 118.813 69.9421 118.813L40.9401 97.043Z" fill="#798CF5" fill-opacity="1.000000" fill-rule="nonzero"/>
	<g opacity="0.100000">
		<path id="Vector" d="M69.9353 118.804C69.4521 121.524 69.2881 124.292 69.4463 127.051C61.8267 124.074 47.6129 118.516 38.4031 114.906C37.7587 104.864 40.698 97.2588 40.9213 97.0176L69.9353 118.804Z" fill="#000000" fill-opacity="1.000000" fill-rule="nonzero"/>
	</g>
	<path id="Vector" d="M81.7494 56.9492C82.178 56.5234 105.493 48.1875 124.336 65.4971C141.664 81.4082 145.689 108.707 143.157 109.123C140.058 109.63 132.924 96.124 117.638 87.667C112.218 84.6709 103.001 86.3281 103.001 86.3281L81.7494 56.9492Z" fill="#798CF5" fill-opacity="1.000000" fill-rule="nonzero"/>
	<g opacity="0.100000">
		<path id="Vector" d="M99.8055 54.752L111.445 86.0078C108.627 85.7861 105.793 85.9004 103.002 86.3486L81.7507 56.9707C81.9941 56.7061 89.7163 53.8506 99.8055 54.752Z" fill="#000000" fill-opacity="1.000000" fill-rule="nonzero"/>
	</g>
	<path id="Vector" d="M114.671 106.962L90.4749 130.733C90.4749 130.733 59.0413 121.547 36.5032 95.9629C25.2563 83.1748 16.4199 67.8779 10.299 54.002C1.82288 34.8896 -1.40857 18.6172 1.38843 15.8555C4.1853 13.0938 20.4197 16.6475 39.3861 25.4258C53.1072 31.8027 68.2717 40.9141 80.8613 52.3828C106.066 75.373 114.671 106.962 114.671 106.962Z" fill="#C7C7C7" fill-opacity="1.000000" fill-rule="nonzero"/>
	<path id="Vector" d="M70.0792 56.8037C72.7927 59.5625 74.6268 63.0645 75.3495 66.8662C76.0723 70.668 75.6511 74.5986 74.1394 78.1611C72.6277 81.7236 70.0934 84.7568 66.8571 86.8789C63.6206 89.001 59.8278 90.1143 55.9581 90.0801C52.0885 90.0449 48.316 88.8643 45.1182 86.6846C41.9202 84.5059 39.4404 81.4268 37.9926 77.8389C36.5447 74.25 36.1938 70.3125 36.9843 66.5244C37.7748 62.7354 39.6711 59.2676 42.4335 56.5566C46.1344 52.9277 51.1241 50.916 56.3074 50.9619C61.4906 51.0078 66.4436 53.1094 70.0792 56.8037Z" fill="#A6A6A6" fill-opacity="1.000000" fill-rule="nonzero"/>
	<path id="Vector" d="M68.1873 55.8711C70.8984 58.6309 72.7305 62.1328 73.4515 65.9336C74.1726 69.7344 73.7504 73.6641 72.2382 77.2256C70.726 80.7861 68.1918 83.8184 64.9559 85.9395C61.7202 88.0605 57.9283 89.1738 54.0597 89.1396C50.191 89.1055 46.4194 87.9248 43.2219 85.7461C40.0243 83.5684 37.5443 80.4912 36.0956 76.9043C34.647 73.3174 34.2946 69.3809 35.0829 65.5928C35.8713 61.8057 37.7653 58.3369 40.5251 55.625C44.2266 51.9912 49.2198 49.9756 54.407 50.0215C59.5942 50.0674 64.5508 52.1719 68.1873 55.8711Z" fill="#798CF5" fill-opacity="1.000000" fill-rule="nonzero"/>
	<path id="Vector" d="M63.9031 60.0664C65.7867 61.9785 67.0609 64.4062 67.5645 67.043C68.0679 69.6797 67.778 72.4053 66.7314 74.877C65.6848 77.3486 63.9286 79.4551 61.6849 80.9277C59.4413 82.4014 56.8112 83.1758 54.1272 83.1533C51.4431 83.1318 48.826 82.3135 46.6069 80.8037C44.3878 79.2939 42.6664 77.1602 41.6606 74.6709C40.6549 72.1826 40.4098 69.4521 40.9565 66.8242C41.5033 64.1963 42.8173 61.79 44.7322 59.9092C47.2966 57.3896 50.7559 55.9922 54.3502 56.0215C57.9446 56.0508 61.3804 57.5059 63.9031 60.0664Z" fill="#FFFFFF" fill-opacity="1.000000" fill-rule="nonzero"/>
	<path id="Vector" d="M63.9031 60.0605C65.084 61.2578 66.0317 62.6641 66.6984 64.207L66.6106 75.1621C65.92 76.6943 64.949 78.084 63.7474 79.2588C62.8759 80.1211 61.8892 80.8584 60.8156 81.4502L61.0032 57.8428C62.0667 58.4463 63.0424 59.1924 63.9031 60.0605Z" fill="#EBEBEB" fill-opacity="1.000000" fill-rule="nonzero"/>
	<path id="Vector" d="M46.2411 58.6221L46.0676 80.4102C45.5343 80.0107 45.0319 79.5723 44.5645 79.0977C42.0443 76.5342 40.6453 73.0742 40.6748 69.4795C40.7043 65.8848 42.1602 62.4482 44.722 59.9268C45.1946 59.4541 45.7023 59.0176 46.2411 58.6221Z" fill="#EBEBEB" fill-opacity="1.000000" fill-rule="nonzero"/>
	<path id="Vector" d="M58.0902 56.5674L57.8756 82.6396C57.4846 82.7549 57.0876 82.8486 56.6863 82.9189L56.9192 56.2764C57.297 56.3525 57.6932 56.4541 58.0902 56.5674Z" fill="#EBEBEB" fill-opacity="1.000000" fill-rule="nonzero"/>
	<path id="Vector" d="M39.3866 25.4248L10.2832 54.002C1.82349 34.8896 -1.40796 18.6172 1.38892 15.8545C4.18591 13.0928 20.4187 16.625 39.3866 25.4248Z" fill="#798CF5" fill-opacity="1.000000" fill-rule="nonzero"/>
	<path id="Vector" d="M12.35 46.0781C12.5088 46.2393 12.6162 46.4434 12.6588 46.665C12.7014 46.8867 12.6772 47.1162 12.5892 47.3242C12.5013 47.5322 12.3536 47.71 12.1649 47.834C11.9762 47.958 11.7549 48.0225 11.5289 48.0215C11.3031 48.0195 11.0829 47.9502 10.8961 47.8232C10.7095 47.6963 10.5647 47.5166 10.4801 47.3066C10.3956 47.0977 10.3751 46.8682 10.4214 46.6465C10.4675 46.4258 10.5784 46.2236 10.7396 46.0654C10.9552 45.8535 11.2457 45.7363 11.5475 45.7393C11.8494 45.7412 12.1379 45.8633 12.35 46.0781Z" fill="#FFFFFF" fill-opacity="1.000000" fill-rule="nonzero"/>
	<path id="Vector" d="M17.5277 40.9941C17.636 41.1006 17.7219 41.2275 17.7806 41.3672C17.8392 41.5068 17.8695 41.6572 17.8695 41.8086C17.8694 41.9609 17.8391 42.1104 17.7804 42.251C17.7217 42.3906 17.6356 42.5176 17.5273 42.623C17.4191 42.7295 17.2908 42.8135 17.1498 42.8691C17.0089 42.9248 16.8582 42.9521 16.7065 42.9492C16.5549 42.9463 16.4054 42.9131 16.2667 42.8525C16.1281 42.791 16.0029 42.7021 15.8988 42.5918C15.6936 42.375 15.5819 42.0859 15.5876 41.7871C15.5934 41.4883 15.7161 41.2031 15.9294 40.9941C16.1428 40.7852 16.4298 40.668 16.7286 40.668C17.0276 40.668 17.3145 40.7852 17.5277 40.9941Z" fill="#FFFFFF" fill-opacity="1.000000" fill-rule="nonzero"/>
	<path id="Vector" d="M22.6993 35.9131C22.853 36.0762 22.9554 36.2803 22.9939 36.501C23.0323 36.7207 23.005 36.9482 22.9154 37.1533C22.8258 37.3584 22.6779 37.5322 22.4899 37.6543C22.302 37.7764 22.0824 37.8398 21.8586 37.8379C21.6348 37.835 21.4165 37.7676 21.231 37.6416C21.0455 37.5166 20.901 37.3398 20.8154 37.1328C20.7299 36.9258 20.707 36.6982 20.7498 36.4785C20.7926 36.2588 20.899 36.0566 21.0559 35.8965C21.163 35.7871 21.2914 35.6992 21.4332 35.6406C21.5751 35.5811 21.7274 35.5518 21.8811 35.5527C22.0347 35.5547 22.1864 35.5869 22.327 35.6494C22.4678 35.7109 22.5944 35.8008 22.6993 35.9131Z" fill="#FFFFFF" fill-opacity="1.000000" fill-rule="nonzero"/>
	<path id="Vector" d="M27.8767 30.8262C28.0311 30.9883 28.1343 31.1924 28.1735 31.4131C28.2126 31.6328 28.1862 31.8604 28.0973 32.0654C28.0083 32.2715 27.861 32.4463 27.6735 32.5684C27.4858 32.6904 27.2665 32.7549 27.0426 32.7539C26.8187 32.752 26.6003 32.6846 26.4144 32.5596C26.2285 32.4355 26.0834 32.2588 25.9971 32.0518C25.9109 31.8457 25.8873 31.6182 25.9294 31.3984C25.9716 31.1777 26.0774 30.9756 26.2338 30.8154C26.3409 30.7051 26.4691 30.6182 26.6106 30.5596C26.7522 30.5 26.9042 30.4707 27.0575 30.4717C27.2109 30.4727 27.3625 30.5049 27.5033 30.5654C27.644 30.626 27.771 30.7148 27.8767 30.8262Z" fill="#FFFFFF" fill-opacity="1.000000" fill-rule="nonzero"/>
	<path id="Vector" d="M33.0522 25.7158C33.2102 25.876 33.3169 26.0811 33.359 26.3018C33.401 26.5234 33.3765 26.7529 33.2883 26.9609C33.2003 27.168 33.0526 27.3447 32.864 27.4688C32.6755 27.5928 32.4545 27.6572 32.229 27.6562C32.0034 27.6543 31.7836 27.585 31.5969 27.459C31.4104 27.332 31.2655 27.1533 31.1807 26.9443C31.0959 26.7354 31.075 26.5059 31.1205 26.2842C31.1659 26.0635 31.2759 25.8613 31.4364 25.7031C31.5432 25.5977 31.6698 25.5137 31.809 25.458C31.948 25.4014 32.0968 25.373 32.2469 25.374C32.3971 25.375 32.5454 25.4062 32.6836 25.4648C32.8218 25.5234 32.947 25.6084 33.0522 25.7158Z" fill="#FFFFFF" fill-opacity="1.000000" fill-rule="nonzero"/>
	<path id="Vector" d="M89.4084 124.489C89.6135 124.707 89.7253 124.996 89.7196 125.295C89.7139 125.594 89.5911 125.878 89.3777 126.087C89.1644 126.297 88.8774 126.414 88.5786 126.414C88.2797 126.413 87.9928 126.296 87.7795 126.087C87.6713 125.98 87.5853 125.854 87.5266 125.714C87.4679 125.574 87.4377 125.424 87.4377 125.272C87.4377 125.121 87.468 124.971 87.5269 124.831C87.5856 124.691 87.6715 124.564 87.7798 124.458C87.8881 124.352 88.0165 124.269 88.1573 124.212C88.2983 124.156 88.449 124.129 88.6007 124.132C88.7523 124.135 88.9019 124.168 89.0405 124.229C89.1792 124.291 89.3043 124.379 89.4084 124.489Z" fill="#A6A6A6" fill-opacity="1.000000" fill-rule="nonzero"/>
	<path id="Vector" d="M94.5834 119.38C94.7378 119.542 94.8409 119.746 94.8801 119.967C94.9193 120.187 94.8928 120.414 94.804 120.619C94.715 120.825 94.5676 121 94.3801 121.122C94.1925 121.244 93.9731 121.309 93.7493 121.308C93.5254 121.306 93.3069 121.238 93.121 121.113C92.9351 120.989 92.79 120.812 92.7037 120.605C92.6176 120.399 92.594 120.172 92.6361 119.952C92.6782 119.731 92.7841 119.529 92.9404 119.369C93.0476 119.259 93.1758 119.172 93.3173 119.113C93.4589 119.054 93.6108 119.024 93.7642 119.025C93.9176 119.026 94.0692 119.059 94.21 119.119C94.3507 119.18 94.4777 119.269 94.5834 119.38Z" fill="#A6A6A6" fill-opacity="1.000000" fill-rule="nonzero"/>
	<path id="Vector" d="M99.7727 114.296C99.9307 114.456 100.037 114.661 100.079 114.882C100.121 115.104 100.097 115.333 100.009 115.541C99.9208 115.748 99.7731 115.925 99.5845 116.049C99.396 116.173 99.1749 116.237 98.9495 116.236C98.7239 116.234 98.5039 116.165 98.3174 116.039C98.1309 115.912 97.986 115.733 97.9011 115.524C97.8164 115.315 97.7954 115.086 97.8409 114.864C97.8864 114.644 97.9963 114.441 98.1569 114.283C98.2637 114.178 98.3903 114.094 98.5294 114.038C98.6685 113.981 98.8173 113.953 98.9674 113.954C99.1174 113.955 99.2659 113.986 99.4041 114.045C99.5422 114.104 99.6675 114.188 99.7727 114.296Z" fill="#A6A6A6" fill-opacity="1.000000" fill-rule="nonzero"/>
	<path id="Vector" d="M104.934 109.216C105.088 109.378 105.191 109.582 105.23 109.803C105.27 110.022 105.243 110.25 105.154 110.455C105.065 110.661 104.918 110.836 104.73 110.958C104.543 111.08 104.323 111.145 104.099 111.144C103.876 111.142 103.657 111.074 103.471 110.949C103.285 110.825 103.14 110.648 103.054 110.441C102.968 110.235 102.944 110.008 102.986 109.788C103.028 109.567 103.134 109.365 103.291 109.205C103.398 109.095 103.526 109.008 103.667 108.949C103.809 108.89 103.961 108.86 104.114 108.861C104.268 108.862 104.419 108.894 104.56 108.955C104.701 109.016 104.828 109.104 104.934 109.216Z" fill="#A6A6A6" fill-opacity="1.000000" fill-rule="nonzero"/>
	<path id="Vector" d="M110.105 104.133C110.259 104.296 110.361 104.5 110.4 104.721C110.438 104.94 110.411 105.168 110.321 105.373C110.232 105.578 110.084 105.752 109.896 105.874C109.708 105.996 109.488 106.06 109.265 106.058C109.041 106.055 108.822 105.987 108.637 105.861C108.451 105.736 108.307 105.56 108.221 105.353C108.136 105.146 108.113 104.918 108.156 104.698C108.198 104.479 108.305 104.276 108.462 104.116C108.569 104.007 108.697 103.919 108.839 103.86C108.981 103.801 109.133 103.771 109.287 103.772C109.441 103.774 109.592 103.807 109.733 103.869C109.874 103.931 110 104.021 110.105 104.133Z" fill="#A6A6A6" fill-opacity="1.000000" fill-rule="nonzero"/>
	<g opacity="0.200000">
		<path id="Vector" d="M0.711182 17.1436C2.9126 32.21 14.0081 57.7695 37.6832 83.7793C55.1722 103 84.2509 115.825 99.7061 121.664L90.475 130.734C90.475 130.734 59.0415 121.547 36.5034 95.9629C25.2565 83.1748 16.42 67.8779 10.2992 54.002C2.69678 36.874 -0.692505 22.0303 0.711182 17.1436Z" fill="#FFFFFF" fill-opacity="1.000000" fill-rule="nonzero"/>
	</g>
	<path id="Vector" d="M119.592 116.426L99.9146 135.755L91.8436 129.391L113.369 108.245L119.592 116.426Z" fill="#798CF5" fill-opacity="1.000000" fill-rule="nonzero"/>
	<g opacity="0.100000">
		<path id="Vector" d="M113.369 108.245L116.399 112.232L94.9287 131.824L91.8486 129.39L113.369 108.245Z" fill="#000000" fill-opacity="1.000000" fill-rule="nonzero"/>
	</g>
	<path id="Vector" d="M42.2106 25.498L42.2631 33.667L50.2861 36.9199L41.6361 37.2051L38.7599 44.8506L38.2385 36.6338L30.6847 33.4336L38.8771 33.0283L42.2106 25.498Z" fill="#FCFCFC" fill-opacity="1.000000" fill-rule="nonzero"/>
	<path id="Vector" d="M12.3301 29.7012L12.3645 34.2695L16.8497 36.0859L12.0114 36.2441L10.4038 40.5166L10.1102 35.9238L5.88989 34.1377L10.4714 33.9102L12.3301 29.7012Z" fill="#FCFCFC" fill-opacity="1.000000" fill-rule="nonzero"/>
	<path id="Vector" d="M107.328 59.6846L107.357 64.248L111.842 66.0645L107.009 66.2275L105.402 70.5L105.108 65.9072L100.888 64.1152L105.469 63.8936L107.328 59.6846Z" fill="#FCFCFC" fill-opacity="1.000000" fill-rule="nonzero"/>
	<path id="Vector" d="M73.1127 143.498L73.1416 148.066L77.627 149.883L72.7939 150.041L71.1864 154.313L70.8928 149.721L66.6725 147.935L71.2485 147.708L73.1127 143.498Z" fill="#FCFCFC" fill-opacity="1.000000" fill-rule="nonzero"/>
	<g opacity="0.600000">
		<path id="Vector" d="M115.196 120.679C121.361 128.52 128.99 135.278 137.858 139.97C146.778 144.796 156.825 147.155 166.962 146.804C172.095 146.559 177.164 145.558 182.005 143.833C186.935 142.062 191.584 139.589 195.808 136.491C200.106 133.32 203.981 129.612 207.336 125.457C210.748 121.229 213.714 116.659 216.188 111.822C214.273 116.983 211.828 121.934 208.892 126.591C205.907 131.306 202.327 135.616 198.24 139.416C189.784 147.292 179.189 152.493 167.785 154.363C156.258 156.239 144.17 154.664 133.175 150.369C122.18 146.075 112.187 139.184 103.819 130.788L115.196 120.679Z" fill="#798CF5" fill-opacity="1.000000" fill-rule="nonzero"/>
	</g>
	<path id="Vector" d="M128.881 133.856L129.718 137.058L133.191 137.531L129.825 138.506L129.458 141.796L128.432 138.619L125.149 138.122L128.323 137.144L128.881 133.856Z" fill="#FFFFFF" fill-opacity="1.000000" fill-rule="nonzero"/>
	<path id="Vector" d="M193.803 141.094L194.274 142.883L196.214 143.145L194.333 143.693L194.129 145.531L193.555 143.756L191.723 143.475L193.494 142.929L193.803 141.094Z" fill="#FFFFFF" fill-opacity="1.000000" fill-rule="nonzero"/>
	<path id="Vector" d="M177.285 143.288L177.75 145.077L179.696 145.339L177.81 145.883L177.611 147.726L177.037 145.95L175.199 145.669L176.976 145.123L177.285 143.288Z" fill="#FFFFFF" fill-opacity="1.000000" fill-rule="nonzero"/>
	<path id="Vector" d="M118.391 137.037L118.861 138.826L120.802 139.094L118.921 139.637L118.716 141.475L118.143 139.699L116.311 139.424L118.082 138.878L118.391 137.037Z" fill="#FFFFFF" fill-opacity="1.000000" fill-rule="nonzero"/>
	<path id="Vector" d="M197.627 136.5C197.667 136.612 197.742 136.71 197.843 136.775C197.943 136.841 198.062 136.871 198.182 136.862C198.301 136.854 198.414 136.806 198.504 136.727C198.594 136.647 198.655 136.54 198.678 136.423C198.638 136.31 198.562 136.213 198.462 136.147C198.361 136.081 198.242 136.051 198.123 136.06C198.003 136.068 197.89 136.116 197.8 136.195C197.711 136.275 197.65 136.382 197.627 136.5Z" fill="#FFFFFF" fill-opacity="1.000000" fill-rule="nonzero"/>
	<path id="Vector" d="M115.115 127.473C115.155 127.585 115.231 127.683 115.331 127.748C115.431 127.813 115.55 127.844 115.67 127.835C115.789 127.826 115.903 127.778 115.992 127.699C116.082 127.62 116.143 127.513 116.166 127.396C116.126 127.282 116.05 127.186 115.95 127.12C115.85 127.054 115.73 127.023 115.611 127.032C115.491 127.041 115.378 127.089 115.288 127.168C115.199 127.248 115.138 127.354 115.115 127.473Z" fill="#FFFFFF" fill-opacity="1.000000" fill-rule="nonzero"/>
	<path id="Vector" d="M164.078 152.332C164.118 152.444 164.194 152.542 164.294 152.607C164.394 152.673 164.513 152.703 164.633 152.694C164.753 152.686 164.866 152.638 164.955 152.559C165.045 152.479 165.106 152.372 165.129 152.255C165.089 152.142 165.013 152.045 164.913 151.979C164.813 151.913 164.693 151.883 164.574 151.892C164.454 151.9 164.341 151.948 164.252 152.027C164.162 152.107 164.101 152.214 164.078 152.332Z" fill="#FFFFFF" fill-opacity="1.000000" fill-rule="nonzero"/>
	<path id="Vector" d="M194.956 137.639C194.974 137.729 195.024 137.81 195.097 137.865C195.171 137.921 195.262 137.948 195.353 137.941C195.445 137.935 195.531 137.895 195.596 137.828C195.66 137.763 195.698 137.676 195.702 137.583C195.684 137.493 195.634 137.412 195.561 137.356C195.488 137.301 195.397 137.273 195.305 137.28C195.213 137.287 195.127 137.327 195.063 137.394C194.998 137.459 194.961 137.546 194.956 137.639Z" fill="#FFFFFF" fill-opacity="1.000000" fill-rule="nonzero"/>
	<path id="Vector" d="M145.722 153.87C145.729 153.968 145.775 154.06 145.849 154.124C145.924 154.188 146.021 154.221 146.119 154.213C146.217 154.206 146.309 154.16 146.373 154.085C146.437 154.011 146.469 153.914 146.462 153.815C146.455 153.718 146.409 153.626 146.335 153.562C146.26 153.497 146.163 153.466 146.065 153.473C145.967 153.479 145.875 153.525 145.811 153.601C145.747 153.675 145.715 153.771 145.722 153.87Z" fill="#FFFFFF" fill-opacity="1.000000" fill-rule="nonzero"/>
	<path id="Vector" d="M183.48 147.294C183.518 147.548 183.65 147.777 183.85 147.938C184.05 148.099 184.304 148.177 184.559 148.158C184.815 148.14 185.054 148.024 185.229 147.837C185.403 147.649 185.5 147.402 185.5 147.146C185.463 146.892 185.331 146.662 185.131 146.501C184.931 146.341 184.677 146.263 184.421 146.281C184.166 146.3 183.927 146.415 183.752 146.603C183.577 146.791 183.48 147.037 183.48 147.294Z" fill="#FFFFFF" fill-opacity="1.000000" fill-rule="nonzero"/>
	<path id="Vector" d="M141.953 149.363C141.972 149.63 142.097 149.878 142.3 150.054C142.503 150.229 142.767 150.315 143.034 150.296C143.301 150.276 143.55 150.151 143.725 149.949C143.9 149.746 143.987 149.482 143.967 149.215C143.948 148.947 143.823 148.699 143.62 148.524C143.417 148.35 143.153 148.262 142.886 148.281C142.619 148.301 142.37 148.426 142.195 148.629C142.02 148.832 141.933 149.096 141.953 149.363Z" fill="#FFFFFF" fill-opacity="1.000000" fill-rule="nonzero"/>
</svg>
