<svg width="463.766724" height="388.226074" viewBox="0 0 463.767 388.226" fill="none" xmlns="http://www.w3.org/2000/svg" xmlns:xlink="http://www.w3.org/1999/xlink">
	<desc>
			Created with Pixso.
	</desc>
	<defs/>
	<g opacity="0.500000">
		<path id="Vector" d="M141.162 208.152L188.732 150.12L131.312 140.656L126.017 147.117L137.148 156.251L141.162 208.152Z" fill="#BA68C8" fill-opacity="1.000000" fill-rule="nonzero"/>
		<path id="Vector" d="M126.015 147.075L127.471 150.967L137.365 159.114L137.152 156.213L126.015 147.075Z" fill="#BA68C8" fill-opacity="1.000000" fill-rule="nonzero"/>
		<g opacity="0.100000">
			<path id="Vector" d="M126.015 147.075L127.471 150.967L137.365 159.114L137.152 156.213L126.015 147.075Z" fill="#000000" fill-opacity="1.000000" fill-rule="nonzero"/>
		</g>
		<path id="Vector" d="M211.606 122.1C213.606 119.085 217.54 117.694 223.011 118.588C233.002 120.317 243.922 129.438 247.398 138.981C249.016 143.305 248.753 147.01 247.084 149.539L250.132 146.489C252.623 143.877 253.247 139.618 251.343 134.53C247.69 124.769 236.611 115.423 226.308 113.622C220.598 112.648 216.407 114.212 214.478 117.465L211.606 122.1Z" fill="#BA68C8" fill-opacity="1.000000" fill-rule="nonzero"/>
		<path id="Vector" d="M201.295 138.96L230.955 165.348L244.682 151.887L247.048 149.551C248.718 147.022 248.947 143.33 247.362 138.995C243.887 129.453 232.969 120.332 222.978 118.603C217.591 117.678 213.574 119.101 211.575 122.115L211.178 122.777L201.295 138.96Z" fill="#455A64" fill-opacity="1.000000" fill-rule="nonzero"/>
		<path id="Vector" d="M222.975 158.261L221.57 150.708L240.866 128.939C243.687 131.821 245.897 135.246 247.363 139.008C248.98 143.331 248.718 147.036 247.049 149.564L244.682 151.9L230.957 165.36L222.975 158.261Z" fill="#37474F" fill-opacity="1.000000" fill-rule="nonzero"/>
		<path id="Vector" d="M68.3013 319.407C68.7275 307.716 70.4232 296.103 73.3584 284.774C78.4092 265.565 86.3689 245.22 91.6364 238.032C101.75 224.101 191.183 134.465 191.183 134.465C194.163 131.442 199.047 130.166 205.42 131.248C218.986 133.578 233.818 145.976 238.524 158.957C240.732 164.856 240.332 169.864 238.053 173.342C238.053 173.342 177.569 265.964 153.832 290.525C142.806 301.918 125.404 310.751 109.967 317.039L108.307 317.666C98.069 321.723 87.5902 325.137 76.9315 327.889C75.3077 328.292 73.5938 328.083 72.1166 327.302C70.6394 326.52 69.5024 325.22 68.9225 323.649C68.4866 322.279 68.2767 320.846 68.3013 319.407Z" fill="#FAFAFA" fill-opacity="1.000000" fill-rule="nonzero"/>
		<path id="Vector" d="M205.281 131.242C210.679 132.293 215.805 134.435 220.347 137.537L148.784 202.086L144.117 201.308L201.588 130.892C202.826 130.921 204.06 131.038 205.281 131.242Z" fill="#F0F0F0" fill-opacity="1.000000" fill-rule="nonzero"/>
		<path id="Vector" d="M76.9052 327.851C75.5016 328.2 74.0248 328.092 72.6886 327.543C71.3525 326.994 70.2264 326.033 69.4735 324.798C78.3182 326.009 114.207 303.461 126.208 291.34C135.668 281.792 183.715 218.845 183.715 218.845L229.81 156.957L234.446 151.222C236.114 153.63 237.478 156.236 238.505 158.982C240.713 164.88 240.313 169.887 238.035 173.365C238.035 173.365 177.558 265.967 153.825 290.523C142.8 301.914 125.4 310.744 109.965 317.03L108.306 317.657C98.0688 321.713 87.5913 325.127 76.9341 327.878L76.9052 327.851Z" fill="#F0F0F0" fill-opacity="1.000000" fill-rule="nonzero"/>
		<path id="Vector" d="M185.153 140.333C188.317 138.151 192.892 137.409 198.465 138.321C212.654 140.78 228.215 153.747 233.181 167.32C234.742 171.049 235.094 175.178 234.186 179.125L237.966 173.37C240.246 169.889 240.596 164.898 238.437 158.976C233.695 146.001 218.856 133.597 205.317 131.253C198.974 130.158 194.033 131.493 191.073 134.472L185.153 140.333Z" fill="#BA68C8" fill-opacity="1.000000" fill-rule="nonzero"/>
		<g opacity="0.100000">
			<path id="Vector" d="M201.552 130.894C202.79 130.923 204.024 131.04 205.245 131.244C210.645 132.295 215.772 134.438 220.314 137.54L212.993 144.1C208.548 141.243 203.605 139.249 198.421 138.223C197.496 138.08 196.606 137.979 195.745 137.906L201.552 130.894Z" fill="#000000" fill-opacity="1.000000" fill-rule="nonzero"/>
		</g>
		<g opacity="0.100000">
			<path id="Vector" d="M235.388 177.466L234.163 179.258C235.048 175.31 234.691 171.187 233.14 167.456C231.967 164.346 230.388 161.406 228.445 158.712L229.721 157.053L234.361 151.313C234.712 151.845 235.063 152.377 235.404 152.932L235.715 153.46C235.985 153.927 236.255 154.395 236.501 154.852C236.749 155.31 236.763 155.551 237.016 155.873C237.27 156.195 237.284 156.588 237.537 156.91C237.817 157.659 238.174 158.359 238.359 159.105C240.569 165.01 240.169 170.021 237.888 173.503L235.388 177.466Z" fill="#000000" fill-opacity="1.000000" fill-rule="nonzero"/>
		</g>
		<path id="Vector" d="M229.719 156.969L182.178 214.946L260.156 176.603L281.828 172.872L287.104 166.424L229.719 156.969Z" fill="#BA68C8" fill-opacity="1.000000" fill-rule="nonzero"/>
		<path id="Vector" d="M287.11 166.476L288.571 170.375L283.29 176.801L261.629 180.545L183.67 218.857L182.21 214.957L260.169 176.646L281.835 172.918L287.11 166.476Z" fill="#BA68C8" fill-opacity="1.000000" fill-rule="nonzero"/>
		<path id="Vector" d="M201.617 137.604L148.747 202.089L173.538 103.704L172.982 81.6504L178.262 75.1948L201.617 137.604Z" fill="#BA68C8" fill-opacity="1.000000" fill-rule="nonzero"/>
		<g opacity="0.150000">
			<path id="Vector" d="M201.617 137.604L148.747 202.089L173.538 103.704L172.982 81.6504L178.262 75.1948L201.617 137.604Z" fill="#000000" fill-opacity="1.000000" fill-rule="nonzero"/>
		</g>
		<path id="Vector" d="M173.599 74.4312L178.263 75.1929L172.983 81.6484L173.539 103.702L148.748 202.085L144.078 201.306L168.852 102.929L168.312 80.8696L173.599 74.4312Z" fill="#BA68C8" fill-opacity="1.000000" fill-rule="nonzero"/>
		<path id="Vector" d="M68.9835 323.608C68.569 322.247 68.3767 320.826 68.4139 319.402C68.627 312.527 69.3245 305.675 70.5011 298.896C80.1825 291.443 99.6709 311.008 96.8391 321.927C85.3345 325.875 77.0243 327.876 77.0243 327.876C75.3923 328.287 73.6681 328.078 72.1835 327.29C70.6989 326.502 69.5591 325.19 68.9835 323.608Z" fill="#BA68C8" fill-opacity="1.000000" fill-rule="nonzero"/>
		<g opacity="0.100000">
			<path id="Vector" d="M168.251 80.8647L172.922 81.6436L173.479 103.701L168.791 102.929L168.251 80.8647Z" fill="#000000" fill-opacity="1.000000" fill-rule="nonzero"/>
		</g>
		<g opacity="0.050000">
			<path id="Vector" d="M168.87 102.932L144.097 201.306L148.767 202.084L173.557 103.704L168.87 102.932Z" fill="#000000" fill-opacity="1.000000" fill-rule="nonzero"/>
		</g>
		<g opacity="0.150000">
			<path id="Vector" d="M287.102 166.476L281.822 172.931L283.278 176.822L288.565 170.383L287.102 166.476Z" fill="#000000" fill-opacity="1.000000" fill-rule="nonzero"/>
		</g>
		<g opacity="0.050000">
			<path id="Vector" d="M261.633 180.538L260.172 176.637L182.21 214.956L183.671 218.857L261.633 180.538Z" fill="#000000" fill-opacity="1.000000" fill-rule="nonzero"/>
		</g>
		<g opacity="0.100000">
			<path id="Vector" d="M260.157 176.651L281.831 172.92L283.286 176.807L261.619 180.555L260.157 176.651Z" fill="#000000" fill-opacity="1.000000" fill-rule="nonzero"/>
		</g>
		<g opacity="0.100000">
			<path id="Vector" d="M75.4526 328.043L74.6832 328.012L74.2208 327.94L73.5592 327.792L73.0885 327.647L72.4789 327.385L72.0392 327.172L71.4877 326.812L71.0958 326.523C70.9159 326.38 70.7488 326.221 70.5962 326.049C70.48 325.945 70.3693 325.834 70.2644 325.719C70.0098 325.442 69.7827 325.14 69.5864 324.819C73.8751 325.398 84.526 320.409 95.7311 313.712C96.9971 316.25 97.4115 319.132 96.9131 321.929L95.1542 322.593L94.5901 322.806L92.8997 323.35L92.6176 323.457L87.3618 325.1L87.2623 325.138L85.6757 325.604L80.5422 327.069L80.2271 327.188L78.0887 327.75L77.8563 327.837L77.5411 327.956L77.3917 328.013L77.1097 328.119C76.729 328.222 76.3379 328.281 75.9441 328.294L75.4526 328.043Z" fill="#000000" fill-opacity="1.000000" fill-rule="nonzero"/>
		</g>
		<g opacity="0.100000">
			<path id="Vector" d="M244.84 124.527C247.647 127.438 249.85 130.877 251.322 134.648C253.239 139.771 252.586 144.005 250.109 146.611L247.06 149.662C248.73 147.132 248.96 143.438 247.374 139.101C245.907 135.336 243.696 131.91 240.872 129.026L244.84 124.527Z" fill="#000000" fill-opacity="1.000000" fill-rule="nonzero"/>
		</g>
		<path id="Vector" d="M84.2177 256.411C84.2177 256.411 90.5383 251.33 104.139 252.792C112.873 253.735 121.151 257.154 128.004 262.649L114.024 276.828C114.024 276.828 96.5726 268.872 79.2367 271.097C80.3911 266.044 82.0602 261.124 84.2177 256.411Z" fill="#455A64" fill-opacity="1.000000" fill-rule="nonzero"/>
		<path id="Vector" d="M162.594 250.511C161.72 248.097 160.61 245.776 159.281 243.582C157.065 239.939 156.113 235.572 158.219 232.993C160.324 230.413 164.535 230.72 166.809 234.265C168.155 236.419 169.304 238.691 170.241 241.054L162.594 250.511Z" fill="#E0E0E0" fill-opacity="1.000000" fill-rule="nonzero"/>
		<path id="freepik--Cable--inject-57" d="M169.137 240.875L169.896 240.171C170.596 239.521 171.338 238.917 172.118 238.365C175.069 236.187 178.425 234.622 181.988 233.765C184.714 233.125 187.539 233.038 190.297 233.507C193.055 233.977 195.691 234.993 198.05 236.498L199.089 237.148L199.358 237.312L199.408 237.445L199.906 237.864C200.545 238.457 201.283 239.013 201.861 239.647C203.039 240.948 204.121 242.333 205.098 243.792C207.295 247.06 209.278 250.466 211.037 253.99C214.792 261.39 218.416 269.655 222.505 278.352C224.599 282.681 226.71 287.156 229.24 291.587C231.743 296.253 234.779 300.611 238.287 304.574C242.153 308.634 246.849 311.809 252.056 313.881C257.345 315.999 262.99 317.084 268.69 317.081C274.42 317.197 280.139 316.493 285.674 314.99C291.22 313.53 296.613 311.531 301.775 309.022C311.879 303.861 321.264 297.39 329.686 289.775C337.92 282.474 346.031 275.503 354.165 269.15C361.883 262.953 370.002 257.276 378.469 252.156C380.429 250.866 382.512 249.852 384.485 248.747C386.458 247.641 388.449 246.585 390.453 245.715C392.457 244.844 394.371 243.836 396.311 243.047L402.102 240.859C408.971 238.392 416.106 236.748 423.357 235.96L428.039 235.462L432.407 235.444L436.427 235.405C437.708 235.489 438.92 235.639 440.073 235.734C442.388 235.998 444.46 236.068 446.233 236.404L450.73 237.285L454.486 238.009L456.535 229.365L452.47 228.625L447.525 227.761C445.523 227.474 443.319 227.454 440.751 227.171C439.492 227.097 438.152 226.958 436.754 226.917L432.338 227.011L427.542 227.154L422.44 227.792C414.603 228.806 406.911 230.744 399.523 233.565L393.383 236.036C391.336 236.942 389.328 238.003 387.239 239.001C385.15 239.999 383.094 241.136 381.024 242.335C378.954 243.534 376.813 244.646 374.822 246.005C366.202 251.457 357.951 257.476 350.123 264.02C341.979 270.699 333.851 277.979 325.802 285.42C317.903 292.869 309.064 299.249 299.512 304.396C294.705 306.846 289.673 308.823 284.486 310.299C279.393 311.807 274.112 312.575 268.805 312.581C263.63 312.674 258.486 311.778 253.649 309.942C248.947 308.199 244.684 305.447 241.16 301.877C237.809 298.199 234.894 294.146 232.471 289.797C229.931 285.541 227.729 281.177 225.571 276.928C221.331 268.384 217.545 260.142 213.576 252.727C211.696 249.134 209.582 245.669 207.25 242.354C206.127 240.764 204.887 239.261 203.54 237.857C202.886 237.174 202.173 236.685 201.518 236.098L201.003 235.686L200.954 235.553L200.798 235.441L200.506 235.267L199.375 234.575C196.526 232.862 193.349 231.769 190.048 231.365C187.25 231.044 184.415 231.241 181.685 231.945C177.906 232.929 174.363 234.667 171.268 237.055C170.438 237.658 169.655 238.322 168.924 239.041L168.187 239.755L169.137 240.875Z" fill="#E0E0E0" fill-opacity="1.000000" fill-rule="nonzero"/>
	</g>
</svg>
