<svg width="28" height="27" viewBox="0 0 28 27" fill="none" xmlns="http://www.w3.org/2000/svg">
<path d="M14.1089 0.421875C6.86612 0.421875 0.987915 6.30008 0.987915 13.5429C0.987915 20.7857 6.86612 26.6639 14.1089 26.6639C21.3517 26.6639 27.2299 20.7857 27.2299 13.5429C27.2299 6.30008 21.3517 0.421875 14.1089 0.421875ZM20.197 9.34415C20.0002 11.4173 19.1474 16.4557 18.7144 18.7781C18.5307 19.7622 18.1633 20.0902 17.8221 20.1296C17.0611 20.1952 16.4838 19.631 15.749 19.1455C14.5944 18.3845 13.9383 17.9122 12.8231 17.1774C11.5241 16.3245 12.3638 15.8522 13.1117 15.0911C13.3085 14.8943 16.6675 11.8371 16.7331 11.5616C16.7422 11.5199 16.741 11.4765 16.7296 11.4354C16.7181 11.3942 16.6968 11.3565 16.6675 11.3254C16.5888 11.2598 16.4838 11.2861 16.392 11.2992C16.2739 11.3254 14.4369 12.5457 10.8549 14.9599C10.3301 15.3142 9.85771 15.4979 9.43783 15.4848C8.96548 15.4717 8.07325 15.2224 7.40408 14.9993C6.57746 14.7369 5.93453 14.5925 5.98701 14.1333C6.01326 13.8971 6.34128 13.661 6.95797 13.4117C10.7893 11.7453 13.3348 10.6431 14.6075 10.1183C18.2551 8.59625 19.003 8.33383 19.5016 8.33383C19.6066 8.33383 19.8559 8.36008 20.0134 8.49129C20.1446 8.59625 20.1839 8.74059 20.197 8.84555C20.1839 8.92428 20.2102 9.16046 20.197 9.34415Z" fill="white"/>
</svg>
