<svg width="671.000000" height="671.000000" viewBox="0 0 671 671" fill="none" xmlns="http://www.w3.org/2000/svg" xmlns:xlink="http://www.w3.org/1999/xlink">
	<desc>
			Created with Pixso.
	</desc>
	<defs>
		<clipPath id="clip382_2350">
			<rect id="Virtual reality-pana 1" width="671.000000" height="671.000000" fill="white" fill-opacity="0"/>
		</clipPath>
	</defs>
	<g opacity="0.300000">
		<rect id="Virtual reality-pana 1" width="671.000000" height="671.000000" fill="#FFFFFF" fill-opacity="0"/>
		<g clip-path="url(#clip382_2350)">
			<path id="Vector" d="M533.432 267.058L534.398 268.668C535.489 270.473 537.072 271.93 538.961 272.868L540.651 273.7L539.041 274.667C537.237 275.753 535.78 277.331 534.841 279.216L534.009 280.907L533.042 279.297C531.955 277.488 530.371 276.03 528.479 275.097L526.802 274.264L528.399 273.298C530.21 272.214 531.669 270.63 532.599 268.735L533.432 267.058Z" fill="#E0E0E0" fill-opacity="1.000000" fill-rule="nonzero"/>
			<path id="Vector" d="M463.54 68.4424L464.09 69.3418C464.699 70.3672 465.595 71.1934 466.667 71.7168L467.62 72.1865L466.707 72.7363C465.684 73.3496 464.859 74.2441 464.332 75.3135L463.862 76.2666L463.312 75.3535C462.696 74.333 461.802 73.5098 460.735 72.9785L459.783 72.5088L460.695 71.958C461.718 71.3516 462.543 70.4609 463.07 69.3955L463.54 68.4424Z" fill="#E0E0E0" fill-opacity="1.000000" fill-rule="nonzero"/>
			<path id="Vector" d="M506.941 123.33L508.511 125.947C510.28 128.879 512.85 131.244 515.919 132.765L518.603 134.106L515.919 135.689C512.981 137.446 510.614 140.015 509.101 143.084L507.759 145.769L506.189 143.084C504.425 140.153 501.859 137.788 498.795 136.267L496.111 134.925L498.728 133.354C501.655 131.59 504.016 129.024 505.531 125.96L506.941 123.33Z" fill="#E0E0E0" fill-opacity="1.000000" fill-rule="nonzero"/>
			<path id="Vector" d="M61.9601 371.814L62.9264 373.425C64.0102 375.236 65.5948 376.694 67.4892 377.625L69.1667 378.457L67.5563 379.424C65.7515 380.515 64.2946 382.098 63.3558 383.986L62.5238 385.678L61.5576 384.067C60.4756 382.259 58.8963 380.801 57.0082 379.866L55.3173 379.034L56.9277 378.068C58.7358 376.98 60.1937 375.397 61.1281 373.506L61.9601 371.814Z" fill="#E0E0E0" fill-opacity="1.000000" fill-rule="nonzero"/>
			<path id="Vector" d="M247.25 36.502L248.216 38.1123C249.304 39.9209 250.887 41.3789 252.779 42.3125L254.457 43.1445L252.846 44.1113C251.042 45.1992 249.589 46.7832 248.659 48.6738L247.827 50.3516L246.847 48.7412C245.765 46.9375 244.185 45.4834 242.298 44.5537L240.607 43.7217L242.218 42.7422C244.025 41.6602 245.483 40.0801 246.418 38.1924L247.25 36.502Z" fill="#E0E0E0" fill-opacity="1.000000" fill-rule="nonzero"/>
			<path id="Vector" d="M564.204 131.73L565.13 132.093C566.17 132.52 567.314 132.632 568.418 132.415L569.397 132.227L569.021 133.166C568.607 134.206 568.496 135.341 568.699 136.44L568.887 137.421L567.961 137.045C566.922 136.628 565.785 136.521 564.687 136.736L563.64 136.884L564.016 135.958C564.436 134.92 564.548 133.783 564.338 132.684L564.204 131.73Z" fill="#EBEBEB" fill-opacity="1.000000" fill-rule="nonzero"/>
			<path id="Vector" d="M199.408 41.7627L200.334 42.1387C201.371 42.5586 202.508 42.6709 203.608 42.4609L204.601 42.2725L204.226 43.1982C203.805 44.2412 203.694 45.3828 203.904 46.4863L204.091 47.4658L203.165 47.0908C202.121 46.6768 200.982 46.5654 199.878 46.7686L198.898 46.9561L199.274 46.0303C199.688 44.9863 199.8 43.8467 199.596 42.7422L199.408 41.7627Z" fill="#EBEBEB" fill-opacity="1.000000" fill-rule="nonzero"/>
			<path id="Vector" d="M166.408 480.275L167.334 480.651C168.378 481.064 169.517 481.177 170.622 480.974L171.602 480.785L171.226 481.711C170.811 482.755 170.7 483.895 170.904 484.999L171.092 485.979L170.166 485.604C169.123 485.183 167.982 485.071 166.878 485.281L165.898 485.469L166.274 484.543C166.688 483.499 166.799 482.359 166.596 481.255L166.408 480.275Z" fill="#EBEBEB" fill-opacity="1.000000" fill-rule="nonzero"/>
			<path id="Vector" d="M57.2094 112.729L58.1354 113.104C59.1779 113.524 60.3192 113.637 61.4233 113.427L62.403 113.238L62.0272 114.164C61.6149 115.224 61.5125 116.378 61.732 117.492L61.9199 118.473L60.967 118.097C59.9318 117.686 58.8017 117.573 57.706 117.774L56.7129 117.962L57.0887 117.036C57.5092 115.999 57.6211 114.861 57.4107 113.762L57.2094 112.729Z" fill="#EBEBEB" fill-opacity="1.000000" fill-rule="nonzero"/>
			<path id="Vector" d="M566.807 199.649L567.264 199.837C567.782 200.05 568.351 200.106 568.901 199.998L569.397 199.904L569.209 200.374C569.002 200.894 568.947 201.461 569.048 202.012L569.142 202.508L568.686 202.32C568.163 202.106 567.589 202.051 567.035 202.159L566.552 202.253L566.74 201.783C566.94 201.262 566.996 200.696 566.901 200.146L566.807 199.649Z" fill="#EBEBEB" fill-opacity="1.000000" fill-rule="nonzero"/>
			<path id="Vector" d="M232.649 66.0664L233.105 66.2539C233.624 66.4668 234.193 66.5234 234.743 66.415L235.239 66.3213L235.051 66.7773C234.822 67.3008 234.752 67.8789 234.85 68.4414L234.944 68.9248L234.488 68.7373C233.962 68.5371 233.392 68.4814 232.837 68.5762L232.354 68.6699L232.542 68.2139C232.742 67.6924 232.798 67.127 232.703 66.5762L232.649 66.0664Z" fill="#EBEBEB" fill-opacity="1.000000" fill-rule="nonzero"/>
			<path id="Vector" d="M193.141 363.816C174.353 351.269 161.308 350.92 151.659 351.738C139.487 352.745 127.732 356.569 118.109 364.81C109.534 372.204 103.643 383.463 105.052 394.709C106.461 405.955 116.593 416.181 127.866 415.402C135.784 414.879 143.782 409.538 151.096 412.585C158.785 415.792 160.221 425.75 163.684 433.318C166.389 439.037 170.737 443.819 176.172 447.056C181.608 450.292 187.884 451.836 194.201 451.489C206.775 450.51 218.223 440.646 220.719 428.286C222.584 418.986 222.799 406.035 220.155 396.937C216.451 384.147 209.419 372.392 193.047 363.83L193.141 363.816Z" fill="#F5F5F5" fill-opacity="1.000000" fill-rule="nonzero"/>
			<path id="Vector" d="M556.031 404.962C556.031 392.884 559.372 380.806 559.185 373.411C558.997 366.017 554.3 358.207 547.013 356.892C544.449 356.436 541.779 356.784 539.256 356.153C536.277 355.415 533.807 353.375 531.405 351.456C525.111 346.384 518.321 341.512 510.47 339.566C502.619 337.62 493.413 339.177 488.139 345.323C484.341 349.752 483.107 355.764 482.248 361.535C481.805 364.527 481.443 367.694 482.691 370.445C483.567 372.249 485.052 373.685 486.884 374.5C488.715 375.314 490.776 375.457 492.702 374.901L556.031 404.962Z" fill="#263238" fill-opacity="1.000000" fill-rule="nonzero"/>
			<path id="Vector" d="M547.737 481.523L502.243 479.43C501.988 474.612 504.444 444.739 504.444 444.739C504.444 444.739 487.253 442.056 486.998 424.864C486.743 407.673 489.83 368.191 489.83 368.191C499.605 364.003 510.32 362.496 520.871 363.826C531.423 365.157 541.428 369.276 549.858 375.761L552.407 377.733L547.737 481.523Z" fill="#B78876" fill-opacity="1.000000" fill-rule="nonzero"/>
			<path id="Vector" d="M504.417 444.484C512.354 444.636 520.156 442.421 526.829 438.123C526.829 438.123 521.541 450.496 504.377 448.939L504.417 444.484Z" fill="#AA6550" fill-opacity="1.000000" fill-rule="nonzero"/>
			<path id="Vector" d="M550.287 395.515C550.582 395.38 562.097 392.012 561.721 403.768C561.345 415.523 549.643 412.732 549.643 412.383C549.643 412.034 550.287 395.515 550.287 395.515Z" fill="#B78876" fill-opacity="1.000000" fill-rule="nonzero"/>
			<path id="Vector" d="M553.347 408.049C553.347 408.049 553.548 408.196 553.884 408.37C554.366 408.587 554.911 408.616 555.414 408.451C556.675 408.035 557.776 406.089 557.91 403.982C557.973 402.975 557.808 401.965 557.427 401.03C557.327 400.659 557.14 400.318 556.88 400.036C556.621 399.753 556.297 399.537 555.937 399.406C555.704 399.336 555.454 399.35 555.231 399.445C555.008 399.541 554.825 399.713 554.716 399.93C554.541 400.251 554.608 400.493 554.541 400.507C554.474 400.52 554.3 400.305 554.407 399.822C554.483 399.533 554.653 399.278 554.89 399.098C555.228 398.867 555.64 398.771 556.044 398.829C556.523 398.942 556.965 399.175 557.329 399.506C557.693 399.837 557.967 400.255 558.124 400.721C558.585 401.758 558.792 402.89 558.728 404.022C558.567 406.397 557.292 408.572 555.575 409.001C555.256 409.082 554.924 409.092 554.601 409.029C554.279 408.967 553.974 408.833 553.709 408.639C553.36 408.33 553.307 408.075 553.347 408.049Z" fill="#AA6550" fill-opacity="1.000000" fill-rule="nonzero"/>
			<path id="Vector" d="M493.601 395.139C493.594 395.779 493.836 396.396 494.277 396.86C494.719 397.324 495.323 397.598 495.963 397.622C496.275 397.646 496.589 397.606 496.887 397.508C497.184 397.409 497.459 397.252 497.695 397.046C497.931 396.84 498.124 396.589 498.262 396.308C498.4 396.026 498.481 395.721 498.499 395.407C498.507 394.766 498.262 394.146 497.818 393.682C497.374 393.218 496.766 392.945 496.124 392.925C495.812 392.901 495.499 392.939 495.202 393.039C494.906 393.138 494.632 393.295 494.397 393.501C494.162 393.708 493.97 393.959 493.834 394.24C493.697 394.521 493.618 394.827 493.601 395.139Z" fill="#263238" fill-opacity="1.000000" fill-rule="nonzero"/>
			<path id="Vector" d="M493.064 392.373C493.359 392.695 495.225 391.327 497.869 391.327C500.512 391.327 502.445 392.669 502.727 392.333C503.008 391.998 502.566 391.608 501.72 390.991C500.579 390.195 499.219 389.772 497.828 389.783C496.455 389.78 495.116 390.213 494.004 391.018C493.185 391.662 492.903 392.239 493.064 392.373Z" fill="#263238" fill-opacity="1.000000" fill-rule="nonzero"/>
			<path id="Vector" d="M519.475 395.756C519.464 396.397 519.705 397.017 520.147 397.481C520.589 397.945 521.196 398.218 521.837 398.239C522.149 398.263 522.463 398.224 522.76 398.125C523.058 398.026 523.333 397.869 523.569 397.663C523.805 397.457 523.997 397.206 524.135 396.925C524.274 396.644 524.354 396.338 524.373 396.024C524.377 395.386 524.133 394.77 523.693 394.307C523.252 393.844 522.65 393.569 522.011 393.542C521.699 393.519 521.385 393.557 521.087 393.656C520.79 393.755 520.515 393.912 520.279 394.118C520.043 394.324 519.85 394.575 519.712 394.856C519.574 395.138 519.493 395.443 519.475 395.756Z" fill="#263238" fill-opacity="1.000000" fill-rule="nonzero"/>
			<path id="Vector" d="M519.032 392.87C519.341 393.192 521.206 391.81 523.836 391.823C526.467 391.837 528.426 393.165 528.708 392.83C528.99 392.494 528.547 392.105 527.688 391.487C526.546 390.696 525.186 390.279 523.796 390.293C522.423 390.292 521.085 390.724 519.971 391.528C519.166 392.146 518.884 392.723 519.032 392.87Z" fill="#263238" fill-opacity="1.000000" fill-rule="nonzero"/>
			<path id="Vector" d="M509.45 412.463C508.055 412.035 506.613 411.778 505.156 411.698C504.471 411.618 503.814 411.483 503.72 411.027C503.674 410.331 503.833 409.636 504.176 409.027C504.807 407.391 505.518 405.687 506.176 403.888C508.94 396.574 510.953 390.562 510.658 390.468C510.363 390.374 507.867 396.198 505.102 403.512C504.431 405.311 503.76 407.042 503.183 408.679C502.76 409.507 502.637 410.455 502.834 411.363C502.936 411.598 503.089 411.808 503.282 411.977C503.474 412.146 503.702 412.271 503.948 412.343C504.32 412.442 504.703 412.496 505.089 412.504C506.538 412.686 508.005 412.672 509.45 412.463Z" fill="#263238" fill-opacity="1.000000" fill-rule="nonzero"/>
			<path id="Vector" d="M517.22 414.303C516.791 414.303 516.791 417.134 514.335 419.174C511.879 421.214 508.819 420.892 508.806 421.294C508.806 421.482 509.477 421.858 510.765 421.885C512.447 421.915 514.084 421.344 515.382 420.274C516.619 419.271 517.422 417.829 517.623 416.248C517.73 414.987 517.422 414.275 517.22 414.303Z" fill="#263238" fill-opacity="1.000000" fill-rule="nonzero"/>
			<path id="Vector" d="M518.348 382.471C518.616 383.182 521.246 382.846 524.346 383.222C527.446 383.598 529.956 384.43 530.372 383.785C530.546 383.477 530.117 382.806 529.11 382.108C527.767 381.238 526.234 380.704 524.642 380.551C523.054 380.363 521.445 380.552 519.945 381.102C518.817 381.611 518.24 382.175 518.348 382.471Z" fill="#263238" fill-opacity="1.000000" fill-rule="nonzero"/>
			<path id="Vector" d="M494.031 384.737C494.5 385.328 496.312 384.737 498.499 384.737C500.687 384.737 502.525 385.141 502.968 384.51C503.156 384.201 502.874 383.597 502.056 383.033C500.967 382.354 499.701 382.013 498.418 382.053C497.135 382.094 495.893 382.515 494.849 383.262C494.084 383.812 493.856 384.442 494.031 384.737Z" fill="#263238" fill-opacity="1.000000" fill-rule="nonzero"/>
			<path id="Vector" d="M553.32 376.914C553.092 381.92 554.206 387.503 553.32 392.428C553.186 393.166 551.253 395.111 551.092 395.891C550.072 400.252 548.274 402.117 545.724 397.621C544.731 395.891 544.087 391.086 543.698 389.14C542.651 383.853 541.609 378.561 540.571 373.264C536.535 375.355 532.046 376.421 527.5 376.364C522.977 376.096 518.388 373.801 516.321 369.774C515.243 371.553 513.779 373.065 512.038 374.201C510.297 375.337 508.323 376.067 506.262 376.338C504.2 376.608 502.104 376.413 500.129 375.765C498.154 375.116 496.349 374.032 494.849 372.593C494.008 373.775 492.755 374.6 491.336 374.902C489.917 375.205 488.437 374.966 487.186 374.23C485.983 373.421 485.065 372.252 484.564 370.891C484.063 369.529 484.004 368.045 484.395 366.648C485.576 362.447 490.072 360.166 494.259 358.945C510.604 354.127 528.694 357.898 543.389 366.527C545.583 367.711 547.587 369.218 549.334 370.996C551.012 372.835 553.36 375.022 553.36 377.478L553.32 376.914Z" fill="#263238" fill-opacity="1.000000" fill-rule="nonzero"/>
			<path id="Vector" d="M486.556 346.88C487.532 345.934 488.587 345.071 489.709 344.304C492.892 342.398 496.585 341.521 500.284 341.794C509.557 342.398 522.467 347.323 532.64 357.509C534.062 358.925 535.406 360.417 536.666 361.978L536.974 362.34L537.404 362.139C540.079 360.941 543.081 360.688 545.919 361.419C548.757 362.15 551.262 363.823 553.025 366.165C556.125 370.647 556.152 375.975 555.467 379.934C554.838 383.122 553.899 386.241 552.662 389.247C552.182 390.338 551.775 391.458 551.441 392.603C552.095 391.602 552.644 390.535 553.078 389.422C554.505 386.424 555.581 383.271 556.286 380.027C556.748 377.745 556.865 375.406 556.635 373.09C556.376 370.376 555.454 367.768 553.951 365.494C552.054 362.876 549.307 360.996 546.18 360.177C543.052 359.356 539.737 359.647 536.8 360.998L537.552 361.173C536.269 359.576 534.903 358.049 533.458 356.597C523.071 346.236 509.96 341.324 500.311 340.868C496.462 340.672 492.652 341.716 489.441 343.848C488.592 344.438 487.825 345.137 487.159 345.928C486.895 346.2 486.689 346.524 486.556 346.88Z" fill="#455A64" fill-opacity="1.000000" fill-rule="nonzero"/>
			<path id="Vector" d="M495.426 366.594C495.892 364.183 496.861 361.896 498.271 359.884C499.88 357.776 501.969 356.083 504.364 354.945C507.314 353.637 510.536 353.057 513.758 353.255C520.75 353.631 526.561 356.69 530.587 358.864C532.711 360.203 534.916 361.408 537.189 362.475C537.189 362.407 536.679 361.938 535.619 361.132C534.559 360.327 533.016 359.294 531.029 358.06C527.084 355.684 521.166 352.369 513.825 351.979C510.382 351.752 506.937 352.403 503.814 353.872C501.283 355.123 499.112 356.998 497.506 359.32C496.434 360.878 495.715 362.65 495.399 364.514C495.25 365.2 495.259 365.912 495.426 366.594Z" fill="#455A64" fill-opacity="1.000000" fill-rule="nonzero"/>
			<path id="Vector" d="M537.86 408.666L497.439 408.666C494.012 408.666 490.724 407.304 488.301 404.88C485.877 402.457 484.516 399.17 484.516 395.742C484.519 392.317 485.882 389.033 488.306 386.612C490.729 384.191 494.014 382.832 497.439 382.832L537.86 382.832C541.284 382.832 544.568 384.192 546.989 386.613C549.41 389.034 550.77 392.318 550.77 395.742C550.77 399.167 549.41 402.452 546.99 404.876C544.569 407.299 541.285 408.662 537.86 408.666Z" fill="#BD60FB" fill-opacity="1.000000" fill-rule="nonzero"/>
			<g opacity="0.300000">
				<path id="Vector" d="M537.86 408.666L497.439 408.666C494.012 408.666 490.724 407.304 488.301 404.88C485.877 402.457 484.516 399.17 484.516 395.742C484.519 392.317 485.882 389.033 488.306 386.612C490.729 384.191 494.014 382.832 497.439 382.832L537.86 382.832C541.284 382.832 544.568 384.192 546.989 386.613C549.41 389.034 550.77 392.318 550.77 395.742C550.77 399.167 549.41 402.452 546.99 404.876C544.569 407.299 541.285 408.662 537.86 408.666Z" fill="#000000" fill-opacity="1.000000" fill-rule="nonzero"/>
			</g>
			<path id="Vector" d="M520.803 408.666L480.436 408.666C477.011 408.662 473.727 407.299 471.306 404.876C468.886 402.452 467.526 399.167 467.526 395.742C467.526 392.318 468.886 389.034 471.307 386.613C473.728 384.192 477.012 382.832 480.436 382.832L520.857 382.832C524.282 382.832 527.567 384.191 529.991 386.612C532.414 389.033 533.777 392.317 533.781 395.742C533.781 397.443 533.445 399.129 532.792 400.7C532.139 402.271 531.182 403.698 529.976 404.899C528.771 406.101 527.34 407.051 525.766 407.697C524.191 408.344 522.505 408.673 520.803 408.666Z" fill="#BD60FB" fill-opacity="1.000000" fill-rule="nonzero"/>
			<path id="Vector" d="M520.374 407.444L480.812 407.444C477.747 407.444 474.808 406.227 472.641 404.06C470.474 401.893 469.257 398.954 469.257 395.89C469.257 392.825 470.474 389.886 472.641 387.719C474.808 385.553 477.747 384.335 480.812 384.335L520.374 384.335C523.438 384.335 526.377 385.553 528.544 387.719C530.711 389.886 531.928 392.825 531.928 395.89C531.928 398.954 530.711 401.893 528.544 404.06C526.377 406.227 523.438 407.444 520.374 407.444Z" fill="#263238" fill-opacity="1.000000" fill-rule="nonzero"/>
			<path id="Vector" d="M498.781 384.335L480.033 407.417L485.334 407.417L504.377 384.335L498.781 384.335Z" fill="#E0E0E0" fill-opacity="1.000000" fill-rule="nonzero"/>
			<path id="Vector" d="M503.357 391.729C501.515 394.433 499.483 397.003 497.278 399.419C495.243 401.98 493.032 404.397 490.662 406.652C494.531 401.38 498.773 396.393 503.357 391.729Z" fill="#E0E0E0" fill-opacity="1.000000" fill-rule="nonzero"/>
			<path id="Vector" d="M506.404 387.678C506.551 387.798 506.283 388.389 505.8 389.02C505.317 389.65 504.793 390.013 504.646 389.892C504.498 389.771 504.766 389.181 505.25 388.55C505.733 387.919 506.243 387.557 506.404 387.678Z" fill="#E0E0E0" fill-opacity="1.000000" fill-rule="nonzero"/>
			<path id="Vector" d="M492.648 386.496C491.779 388.328 490.634 390.017 489.253 391.502C488.051 393.133 486.612 394.575 484.985 395.783C486.099 394.109 487.346 392.529 488.716 391.059C489.902 389.435 491.217 387.909 492.648 386.496Z" fill="#E0E0E0" fill-opacity="1.000000" fill-rule="nonzero"/>
			<path id="Vector" d="M609.738 571.074L617.79 637.248L590.118 637.128L578.254 570.041L609.738 571.074Z" fill="#B78876" fill-opacity="1.000000" fill-rule="nonzero"/>
			<path id="Vector" d="M416.087 558.379L463.124 533.512L469.109 636.953L590.118 637.142L581.234 573.142L624.459 572.027C624.459 572.027 616.407 521.313 613.146 509.946C609.885 498.58 597.19 485.696 587.393 480.436C577.597 475.175 548.596 462.521 548.596 462.521C532.143 469.432 516.952 469.23 503.223 460.682C495.223 461.811 487.347 463.688 479.698 466.291C469.687 469.78 459.447 473.98 455.153 476.504C450.858 479.026 405.284 507.947 405.284 507.947L416.087 558.379Z" fill="#BD60FB" fill-opacity="1.000000" fill-rule="nonzero"/>
			<path id="Vector" d="M578.737 519.14C578.789 519.355 578.816 519.575 578.818 519.797C578.818 520.308 578.898 520.925 578.939 521.676C579.019 523.421 579.127 525.702 579.261 528.601C579.516 534.546 579.865 542.571 580.24 551.415C580.616 560.259 581.059 568.404 581.435 574.229C581.623 577.061 581.77 579.396 581.891 581.14C581.891 581.892 581.972 582.482 581.998 583.019C582.031 583.237 582.031 583.458 581.998 583.677C581.923 583.47 581.878 583.252 581.864 583.032C581.797 582.522 581.73 581.905 581.623 581.167C581.421 579.529 581.207 577.141 580.952 574.256C580.455 568.432 579.959 560.353 579.61 551.441C579.261 542.53 578.966 534.438 578.831 528.628C578.831 525.782 578.831 523.447 578.737 521.703C578.737 520.951 578.737 520.361 578.737 519.811C578.705 519.588 578.705 519.362 578.737 519.14Z" fill="#263238" fill-opacity="1.000000" fill-rule="nonzero"/>
			<path id="Vector" d="M465.486 568.659C465.366 568.031 465.317 567.393 465.338 566.754C465.271 565.411 465.204 563.64 465.11 561.533C464.909 556.997 464.627 550.985 464.319 544.329C464.01 537.673 463.782 531.513 463.728 527.111C463.728 524.896 463.728 523.085 463.728 521.877C463.701 521.235 463.741 520.592 463.849 519.958C463.959 520.592 464.009 521.234 463.996 521.877C463.996 523.219 464.131 524.99 464.211 527.098C464.426 531.634 464.708 537.646 465.016 544.302C465.325 550.958 465.553 557.104 465.607 561.52C465.607 563.721 465.607 565.546 465.607 566.754C465.617 567.391 465.576 568.028 465.486 568.659Z" fill="#263238" fill-opacity="1.000000" fill-rule="nonzero"/>
			<g opacity="0.300000">
				<path id="Vector" d="M578.979 524.373C582.853 535.879 586.727 547.37 590.601 558.849C591.688 562.097 592.788 565.559 591.862 568.874C590.936 572.188 586.28 573.208 581.234 573.142C581.234 573.142 581.046 568.471 580.858 565.6C579.963 552.528 579.095 539.466 578.254 526.413L578.979 524.373Z" fill="#000000" fill-opacity="1.000000" fill-rule="nonzero"/>
			</g>
			<path id="Vector" d="M605.725 542.853C605.887 542.556 606.066 542.269 606.262 541.993L607.778 539.726C609.12 537.793 610.932 535.096 613.146 531.901L613.214 532.331L602.451 524.722L602.934 524.642L602.867 524.735L602.732 524.923L602.464 525.285L601.941 526.023C601.592 526.507 601.256 526.99 600.907 527.46C600.236 528.412 599.565 529.338 598.921 530.237L595.258 535.297L595.177 534.881C598.344 537.176 600.961 539.135 602.826 540.53L605 542.182C605.275 542.378 605.535 542.593 605.779 542.825C605.505 542.707 605.248 542.554 605.014 542.369L602.813 540.88C600.894 539.537 598.129 537.699 594.828 535.377L594.587 535.203L594.761 534.948L598.371 529.849L600.344 527.057C600.693 526.587 601.028 526.104 601.377 525.621L601.9 524.883L602.155 524.521L602.29 524.333L602.357 524.238L602.84 524.158L613.576 531.901L613.831 532.076L613.643 532.317C611.281 535.592 609.268 538.276 607.886 540.128L606.275 542.235C605.926 542.651 605.739 542.893 605.725 542.853Z" fill="#FAFAFA" fill-opacity="1.000000" fill-rule="nonzero"/>
			<path id="Vector" d="M559.963 516.134C560.115 515.831 560.295 515.544 560.5 515.274C560.902 514.657 561.412 513.933 562.016 513.007C563.358 511.088 565.17 508.377 567.384 505.183L567.465 505.612L556.662 497.949L557.145 497.869L557.078 497.949L556.943 498.138L556.688 498.513L556.165 499.237L555.132 500.674C554.447 501.627 553.79 502.553 553.132 503.451L549.428 508.618L549.361 508.188C552.528 510.483 555.145 512.443 557.01 513.839L559.171 515.489C559.448 515.688 559.712 515.903 559.963 516.134C559.963 516.134 559.708 516.013 559.198 515.678L556.984 514.201C555.078 512.859 552.313 511.007 549.012 508.686L548.771 508.511L548.945 508.256L552.542 503.156L554.528 500.365L555.561 498.929L556.084 498.191L556.339 497.829L556.474 497.641L556.474 497.547C556.031 497.614 557.064 497.439 556.957 497.453L567.693 505.196L567.934 505.371L567.76 505.626C565.385 508.887 563.385 511.57 562.003 513.423L560.392 515.529C560.269 515.744 560.125 515.946 559.963 516.134Z" fill="#FAFAFA" fill-opacity="1.000000" fill-rule="nonzero"/>
			<path id="Vector" d="M492.849 522.212C493.006 521.908 493.185 521.616 493.386 521.34L494.903 519.085C496.245 517.152 498.056 514.455 500.271 511.262L500.338 511.678L489.535 504.015L490.018 503.935L489.951 504.028L489.83 504.216L489.562 504.578L489.038 505.316C488.689 505.8 488.34 506.27 488.005 506.752C487.32 507.691 486.663 508.631 486.005 509.53L482.342 514.59L482.342 514.174C485.509 516.469 488.126 518.428 489.991 519.823L492.152 521.474C492.432 521.668 492.696 521.884 492.943 522.118C492.675 521.989 492.419 521.836 492.178 521.662L489.83 520.267C487.911 518.924 485.146 517.086 481.778 514.751L481.536 514.576L481.711 514.335L485.307 509.235L487.294 506.443L488.327 504.994L488.85 504.27L489.105 503.894L489.239 503.72L489.307 503.625L489.79 503.545L500.526 511.288L500.767 511.463L500.593 511.704C498.217 514.979 496.218 517.663 494.836 519.501L493.225 521.622C493.115 521.828 492.989 522.025 492.849 522.212Z" fill="#FAFAFA" fill-opacity="1.000000" fill-rule="nonzero"/>
			<path id="Vector" d="M499.224 570.739C499.385 570.442 499.565 570.155 499.761 569.88L501.277 567.612C502.619 565.68 504.431 562.982 506.645 559.788L506.645 560.218L495.909 552.555L496.392 552.475L496.325 552.568L496.191 552.756L495.923 553.118L495.399 553.856C495.05 554.34 494.715 554.823 494.366 555.293C493.695 556.245 493.024 557.171 492.38 558.07L488.716 563.13L488.636 562.714C491.803 565.009 494.42 566.968 496.285 568.363L498.459 570.015C498.733 570.211 498.993 570.426 499.237 570.658C498.968 570.532 498.711 570.38 498.472 570.202L496.272 568.713C494.366 567.37 491.588 565.532 488.287 563.21L488.045 563.036L488.22 562.781L491.83 557.682L493.802 554.89L494.836 553.454L495.359 552.716L495.627 552.354L495.748 552.166L495.815 552.071L496.312 551.991L507.048 559.734L507.303 559.909L507.128 560.15C504.753 563.425 502.74 566.109 501.358 567.961L499.747 570.068C499.479 570.538 499.291 570.779 499.224 570.739Z" fill="#FAFAFA" fill-opacity="1.000000" fill-rule="nonzero"/>
			<path id="Vector" d="M441.075 530.412C441.228 530.109 441.407 529.822 441.612 529.553C442.015 528.936 442.525 528.211 443.128 527.285C444.47 525.366 446.282 522.655 448.496 519.461L448.577 519.891L437.841 512.228L438.324 512.147L438.257 512.241L438.123 512.429L437.868 512.791L437.344 513.529L436.311 514.966C435.627 515.918 434.969 516.844 434.311 517.743C432.969 519.542 431.789 521.246 430.648 522.803L430.581 522.387C433.748 524.682 436.365 526.641 438.23 528.036L440.391 529.688C440.667 529.886 440.932 530.101 441.182 530.331C441.182 530.331 440.914 530.211 440.418 529.875L438.203 528.398C436.298 527.057 433.533 525.205 430.232 522.883L429.99 522.709L430.165 522.454L433.761 517.354L435.747 514.562L436.781 513.127L437.291 512.389L437.559 512.026L437.693 511.839L437.76 511.744L438.244 511.664L448.98 519.407L449.221 519.582L449.047 519.837C446.671 523.098 444.672 525.782 443.276 527.634L441.679 529.741C441.505 529.987 441.302 530.213 441.075 530.412Z" fill="#FAFAFA" fill-opacity="1.000000" fill-rule="nonzero"/>
			<path id="Vector" d="M532.895 536.196C533.223 535.556 533.6 534.941 534.022 534.358C534.733 533.258 535.74 531.741 536.974 529.956L537.042 530.386L530.962 526.091L531.432 526.064L531.351 526.158L531.204 526.373L530.909 526.775C530.721 527.058 530.519 527.326 530.332 527.595C529.942 528.118 529.567 528.641 529.204 529.151L527.138 531.982L527.07 531.566C528.815 532.908 530.251 533.969 531.284 534.774C531.868 535.184 532.424 535.632 532.948 536.116C532.361 535.824 531.8 535.482 531.271 535.096C530.184 534.398 528.587 533.338 526.708 532.036L526.467 531.862L526.641 531.606L528.654 528.735L529.768 527.165L530.345 526.347L530.64 525.943L530.788 525.729L530.788 525.621L531.271 525.541L537.297 529.902L537.552 530.091L537.377 530.332C536.035 532.184 534.854 533.687 534.049 534.707C533.708 535.236 533.322 535.734 532.895 536.196Z" fill="#FAFAFA" fill-opacity="1.000000" fill-rule="nonzero"/>
			<path id="Vector" d="M590.601 508.926C590.944 508.298 591.32 507.688 591.728 507.101C592.453 506.001 593.459 504.417 594.694 502.699L594.761 503.115L588.682 498.821L589.165 498.74L589.165 498.848L589.017 499.049L588.722 499.465L588.145 500.271L587.018 501.827L584.951 504.672L584.87 504.242C586.615 505.585 588.064 506.645 589.098 507.45C589.682 507.854 590.234 508.302 590.748 508.792C590.165 508.507 589.608 508.17 589.084 507.785C587.997 507.074 586.4 506.027 584.522 504.712L584.28 504.538L584.454 504.283L586.468 501.411L587.581 499.841L588.158 499.035L588.454 498.619L588.601 498.418L588.668 498.311L589.151 498.23L595.177 502.592L595.432 502.78L595.244 503.021C593.902 504.873 592.721 506.376 591.929 507.396C591.538 507.949 591.093 508.461 590.601 508.926Z" fill="#FAFAFA" fill-opacity="1.000000" fill-rule="nonzero"/>
			<path id="Vector" d="M452.871 500.016C453.205 499.382 453.582 498.772 453.999 498.19C454.71 497.09 455.716 495.507 456.951 493.789L457.018 494.205L450.912 489.924L451.395 489.843L451.315 489.95L451.167 490.165L450.872 490.567L450.295 491.373L449.167 492.943L447.101 495.774L447.02 495.346C448.765 496.688 450.214 497.748 451.247 498.566C451.826 498.983 452.381 499.432 452.911 499.908C452.32 499.629 451.758 499.292 451.234 498.901C450.147 498.19 448.55 497.144 446.671 495.828L446.43 495.654L446.604 495.412L448.617 492.527L449.731 490.957L450.308 490.151L450.603 489.735L450.751 489.534L450.751 489.427L451.234 489.347L457.26 493.722L457.515 493.896L457.327 494.138C455.985 495.989 454.817 497.506 454.012 498.526C453.673 499.053 453.292 499.552 452.871 500.016Z" fill="#FAFAFA" fill-opacity="1.000000" fill-rule="nonzero"/>
			<path id="Vector" d="M549.979 563.452C550.31 563.527 550.637 563.621 550.958 563.733L553.548 564.565C555.763 565.29 558.916 566.311 562.566 567.585L562.177 567.773C563.452 564.109 564.955 559.828 566.539 555.266C566.539 555.172 566.941 556.111 566.753 555.708L566.66 555.708L566.324 555.588L565.895 555.44L565.049 555.132L563.372 554.541L560.151 553.4L554.246 551.253L554.635 551.065C553.293 554.742 552.153 557.775 551.32 559.976C550.931 560.996 550.596 561.842 550.341 562.525C550.226 562.843 550.092 563.152 549.938 563.452C549.985 563.158 550.062 562.871 550.166 562.593L550.972 560.057C551.696 557.869 552.743 554.688 554.058 550.864L554.166 550.582L554.447 550.689L560.352 552.729L563.586 553.87L565.25 554.447L566.096 554.756L566.525 554.903L566.74 554.971L566.847 554.971C566.646 554.567 567.102 555.521 567.062 555.413C565.425 559.963 563.908 564.23 562.593 567.894L562.499 568.176L562.218 568.068C558.42 566.727 555.279 565.519 553.119 564.7L550.65 563.733C550.417 563.663 550.192 563.568 549.979 563.452Z" fill="#FAFAFA" fill-opacity="1.000000" fill-rule="nonzero"/>
			<g opacity="0.200000">
				<path id="Vector" d="M417 500.955C420.865 507.531 424.743 514.16 427.253 521.367C429.475 527.28 430.275 533.634 429.588 539.913C428.87 546.232 425.775 552.043 420.932 556.165C419.561 557.373 417.84 558.111 416.02 558.271C412.786 558.366 410.209 555.588 408.76 552.676C405.244 545.604 405.794 537.256 406.854 529.433C407.968 521.119 409.55 512.875 411.591 504.739L417 500.955Z" fill="#000000" fill-opacity="1.000000" fill-rule="nonzero"/>
			</g>
			<path id="Vector" d="M422.945 538.746L410.008 447.65L410.008 432.741C410.008 432.741 408.035 399.191 408.263 395.89C408.518 392.146 406.76 391.112 405.378 391.112C403.204 391.112 401.5 393.676 401.177 396.883C401.07 397.997 400.037 415.671 400.037 415.671C399.125 413.941 398.094 412.277 396.95 410.692C394.561 407.216 388.576 404.922 382.282 404.707C375.988 404.492 374.23 404.988 374.015 407.391C373.999 407.853 374.088 408.312 374.273 408.734C374.459 409.157 374.738 409.533 375.089 409.833C376.175 410.878 377.609 411.484 379.115 411.537C389.18 412.021 391.529 417.576 391.529 417.576L391.529 419.522C391.529 419.522 385.718 414.759 380.725 416.274C379.992 416.5 379.308 416.865 378.712 417.349C377.34 417.26 375.968 417.531 374.733 418.138C373.499 418.743 372.444 419.662 371.674 420.802C370.905 421.942 370.447 423.264 370.347 424.636C370.247 426.008 370.508 427.382 371.103 428.621C371.332 429.248 371.746 429.79 372.29 430.176C372.834 430.562 373.483 430.773 374.15 430.782C374.838 430.619 375.474 430.286 376.002 429.815C376.296 429.587 376.61 429.385 376.941 429.212L377.706 434.674C377.706 434.674 380.081 446.859 380.511 452.28L378.941 541.457C378.889 544.393 379.422 547.309 380.51 550.036C381.597 552.764 383.217 555.248 385.274 557.343C387.332 559.438 389.786 561.102 392.493 562.238C395.201 563.375 398.107 563.961 401.043 563.962C404.21 563.963 407.34 563.283 410.221 561.97C413.102 560.656 415.668 558.739 417.744 556.349C419.821 553.957 421.36 551.148 422.257 548.112C423.154 545.075 423.389 541.881 422.945 538.746Z" fill="#B78876" fill-opacity="1.000000" fill-rule="nonzero"/>
			<path id="Vector" d="M407.203 446.256C405.324 446.631 403.513 445.155 402.627 443.451C401.741 441.746 401.459 439.813 400.694 438.083C398.413 432.836 392.24 430.03 390.213 424.663C389.932 423.911 389.824 422.904 390.495 422.462C391.166 422.019 391.931 422.462 392.548 422.864L408.518 433.145L407.203 446.256Z" fill="#B78876" fill-opacity="1.000000" fill-rule="nonzero"/>
			<path id="Vector" d="M408.518 433.063C408.039 432.551 407.498 432.1 406.908 431.721C405.821 430.956 404.224 429.869 402.291 428.554L395.367 424.071L393.354 422.729C392.619 422.071 391.655 421.729 390.67 421.777C390.359 421.855 390.079 422.024 389.866 422.264C389.653 422.503 389.517 422.802 389.475 423.119C389.414 423.64 389.474 424.168 389.65 424.662C389.982 425.538 390.41 426.375 390.925 427.158C393.018 430.299 395.85 432.365 397.849 434.687C398.825 435.739 399.635 436.934 400.251 438.229C400.802 439.451 401.11 440.713 401.526 441.84C401.766 442.787 402.21 443.671 402.826 444.429C403.443 445.187 404.217 445.801 405.096 446.229C405.423 446.384 405.781 446.464 406.143 446.464C406.505 446.464 406.862 446.384 407.19 446.229C406.528 446.189 405.878 446.035 405.271 445.771C404.499 445.315 403.831 444.702 403.311 443.972C402.791 443.241 402.43 442.41 402.251 441.531C401.923 440.268 401.528 439.022 401.07 437.801C400.458 436.396 399.625 435.101 398.601 433.962C396.561 431.52 393.756 429.413 391.891 426.501C391.43 425.796 391.043 425.045 390.737 424.26C390.468 423.508 390.562 422.783 390.992 422.743C391.421 422.703 392.173 423.092 392.857 423.535L394.883 424.877L401.929 429.278C403.942 430.514 405.579 431.493 406.733 432.164C407.284 432.545 407.884 432.848 408.518 433.063Z" fill="#AA6550" fill-opacity="1.000000" fill-rule="nonzero"/>
			<path id="Vector" d="M391.77 419.63C391.74 418.414 391.423 417.224 390.844 416.154C390.156 415.059 389.136 414.212 387.932 413.738C386.426 413.151 384.836 412.812 383.222 412.731C381.554 412.646 379.899 412.39 378.283 411.967C376.931 411.592 375.7 410.87 374.713 409.873C374.374 409.522 374.124 409.097 373.981 408.63C373.839 408.163 373.809 407.67 373.895 407.189C373.941 406.848 374.075 406.524 374.284 406.25C374.351 406.25 374.284 406.612 374.163 407.229C374.14 407.655 374.209 408.081 374.367 408.478C374.524 408.874 374.766 409.231 375.076 409.524C376.038 410.403 377.205 411.026 378.471 411.336C380.054 411.705 381.666 411.934 383.289 412.021C384.976 412.118 386.636 412.494 388.2 413.135C389.505 413.687 390.587 414.66 391.274 415.899C391.714 416.726 391.949 417.646 391.958 418.583C391.988 418.942 391.923 419.303 391.77 419.63Z" fill="#AA6550" fill-opacity="1.000000" fill-rule="nonzero"/>
			<path id="Vector" d="M401.325 395.648C401.36 396.819 401.297 397.991 401.137 399.151C400.949 401.553 400.735 404.412 400.493 407.565C400.251 410.719 400.104 413.591 399.956 415.993C399.965 417.168 399.861 418.341 399.648 419.496C399.462 418.334 399.403 417.154 399.473 415.979C399.473 413.819 399.554 410.813 399.795 407.525C400.037 404.237 400.345 401.244 400.654 399.098C400.743 397.926 400.968 396.769 401.325 395.648Z" fill="#AA6550" fill-opacity="1.000000" fill-rule="nonzero"/>
			<path id="Vector" d="M387.543 423.32C387.543 423.32 387.167 423.173 386.55 422.864C386.151 422.622 385.705 422.47 385.242 422.416C384.778 422.363 384.309 422.41 383.866 422.556C383.596 422.673 383.362 422.858 383.186 423.094C383.01 423.329 382.897 423.605 382.859 423.897C382.759 424.654 382.759 425.422 382.859 426.179C382.979 427.116 382.766 428.066 382.255 428.863C381.92 429.269 381.494 429.59 381.011 429.8C380.528 430.01 380.003 430.103 379.477 430.07C378.962 430.044 378.457 429.911 377.995 429.681C377.533 429.449 377.124 429.125 376.793 428.729C376.174 428.018 375.777 427.141 375.653 426.206C375.556 424.692 375.683 423.173 376.029 421.696C376.225 420.697 376.592 419.739 377.115 418.865C377.518 418.261 377.867 418.033 377.88 418.06C377.894 418.087 377.652 418.382 377.344 418.999C376.94 419.892 376.66 420.835 376.512 421.804C376.249 423.229 376.177 424.682 376.297 426.125C376.392 426.949 376.757 427.718 377.334 428.312C377.912 428.907 378.67 429.294 379.491 429.413C379.905 429.438 380.32 429.365 380.702 429.202C381.084 429.039 381.423 428.79 381.692 428.474C382.132 427.805 382.313 426.999 382.202 426.206C382.094 425.396 382.094 424.574 382.202 423.764C382.26 423.385 382.413 423.026 382.648 422.724C382.883 422.421 383.191 422.183 383.544 422.032C384.053 421.879 384.591 421.846 385.115 421.937C385.639 422.027 386.135 422.239 386.563 422.556C386.932 422.751 387.264 423.01 387.543 423.32Z" fill="#AA6550" fill-opacity="1.000000" fill-rule="nonzero"/>
			<path id="Vector" d="M377.102 428.286C377.102 428.286 377.209 428.661 376.941 429.279C376.732 429.703 376.429 430.074 376.054 430.362C375.68 430.651 375.244 430.85 374.78 430.943C374.078 431.058 373.357 430.983 372.692 430.729C372.028 430.475 371.442 430.048 370.996 429.494C369.941 428.151 369.437 426.457 369.587 424.757C369.697 423.068 370.335 421.458 371.412 420.153C372.287 419.104 373.427 418.307 374.713 417.845C375.572 417.528 376.483 417.378 377.397 417.402C377.732 417.38 378.067 417.436 378.377 417.563C377.193 417.641 376.027 417.889 374.915 418.302C373.745 418.793 372.717 419.568 371.922 420.556C370.968 421.774 370.402 423.252 370.298 424.797C370.152 426.324 370.583 427.852 371.506 429.078C371.883 429.551 372.373 429.922 372.931 430.157C373.49 430.392 374.098 430.481 374.7 430.42C375.112 430.353 375.504 430.198 375.852 429.967C376.199 429.735 376.492 429.432 376.713 429.078C377.102 428.635 377.102 428.272 377.102 428.286Z" fill="#AA6550" fill-opacity="1.000000" fill-rule="nonzero"/>
			<path id="Vector" d="M388.469 440.86C388.469 440.794 389.099 440.713 390.146 440.995C391.561 441.403 392.798 442.272 393.662 443.464L393.058 443.585C393.187 442.805 393.367 442.033 393.595 441.276C394.288 438.572 395.714 436.111 397.715 434.164C396.311 436.474 395.155 438.926 394.266 441.478C394.038 442.243 393.85 443.008 393.716 443.706L393.555 444.497L393.112 443.84C392.336 442.744 391.259 441.896 390.012 441.397C389.488 441.246 388.973 441.067 388.469 440.86Z" fill="#AA6550" fill-opacity="1.000000" fill-rule="nonzero"/>
			<path id="Vector" d="M390.133 410.88C390.294 410.974 389.529 412.222 387.932 412.759C386.335 413.295 384.993 412.866 385.06 412.691C385.127 412.517 386.322 412.598 387.744 412.088C389.167 411.577 389.972 410.745 390.133 410.88Z" fill="#AA6550" fill-opacity="1.000000" fill-rule="nonzero"/>
			<path id="Vector" d="M475.35 275.338C483.566 271.277 490.563 265.119 495.635 257.486C500.708 249.853 503.674 241.016 504.235 231.869C504.796 222.722 502.932 213.588 498.831 205.393C494.729 197.197 488.537 190.229 480.879 185.195C462.171 172.903 436.593 173.185 419.872 158.248C391.864 133.14 406.237 82.7871 381.678 54.3105C366.916 37.2266 341.418 33.2139 319.316 38.0449C291.429 44.1514 282.37 71.2197 262.737 84.3174C244.673 96.3955 231.24 94.3018 210.533 88.625C170.125 77.5137 151.485 80.8682 125.906 92.0605C119.439 95.2686 113.166 98.8535 107.118 102.797C65.0333 129.503 40.3405 182.229 48.2852 231.629C56.9008 285.309 103.307 330.628 157.095 338.05C172.313 340.156 188.699 339.768 201.609 348.088C226.315 364.03 224.423 401.244 241.802 424.971C255.423 443.584 280.236 451.811 303.185 449.543C326.133 447.274 347.336 435.962 365.561 421.844C382.47 408.732 400.332 392.078 421.603 394.319C431.346 395.34 440.149 400.358 449.127 404.277C458.105 408.195 468.385 411.121 477.618 407.807C477.618 407.807 470.21 404.867 469.324 400.171C466.479 384.952 475.659 382.725 487.092 382.725C461.836 379.88 439.062 365.923 426.702 343.807C418.865 329.796 415.832 311.129 425.548 298.366C436.714 283.591 458.669 283.577 475.35 275.338Z" fill="#BD60FB" fill-opacity="1.000000" fill-rule="nonzero"/>
			<g opacity="0.800000">
				<path id="Vector" d="M475.35 275.338C483.566 271.277 490.563 265.119 495.635 257.486C500.708 249.853 503.674 241.016 504.235 231.869C504.796 222.722 502.932 213.588 498.831 205.393C494.729 197.197 488.537 190.229 480.879 185.195C462.171 172.903 436.593 173.185 419.872 158.248C391.864 133.14 406.237 82.7871 381.678 54.3105C366.916 37.2266 341.418 33.2139 319.316 38.0449C291.429 44.1514 282.37 71.2197 262.737 84.3174C244.673 96.3955 231.24 94.3018 210.533 88.625C170.125 77.5137 151.485 80.8682 125.906 92.0605C119.439 95.2686 113.166 98.8535 107.118 102.797C65.0333 129.503 40.3405 182.229 48.2852 231.629C56.9008 285.309 103.307 330.628 157.095 338.05C172.313 340.156 188.699 339.768 201.609 348.088C226.315 364.03 224.423 401.244 241.802 424.971C255.423 443.584 280.236 451.811 303.185 449.543C326.133 447.274 347.336 435.962 365.561 421.844C382.47 408.732 400.332 392.078 421.603 394.319C431.346 395.34 440.149 400.358 449.127 404.277C458.105 408.195 468.385 411.121 477.618 407.807C477.618 407.807 470.21 404.867 469.324 400.171C466.479 384.952 475.659 382.725 487.092 382.725C461.836 379.88 439.062 365.923 426.702 343.807C418.865 329.796 415.832 311.129 425.548 298.366C436.714 283.591 458.669 283.577 475.35 275.338Z" fill="#FFFFFF" fill-opacity="1.000000" fill-rule="nonzero"/>
			</g>
			<path id="Vector" d="M439.68 318.766C438.749 322.932 439.245 327.289 441.089 331.139C442.913 334.904 445.844 338.022 449.49 340.076C463.97 348.41 477.792 336.225 479.013 322.725C479.28 319.116 478.467 315.51 476.678 312.364C467.768 296.273 443.652 300.81 439.68 318.766Z" fill="#BD60FB" fill-opacity="1.000000" fill-rule="nonzero"/>
			<g opacity="0.800000">
				<path id="Vector" d="M439.68 318.766C438.749 322.932 439.245 327.289 441.089 331.139C442.913 334.904 445.844 338.022 449.49 340.076C463.97 348.41 477.792 336.225 479.013 322.725C479.28 319.116 478.467 315.51 476.678 312.364C467.768 296.273 443.652 300.81 439.68 318.766Z" fill="#FFFFFF" fill-opacity="1.000000" fill-rule="nonzero"/>
			</g>
			<path id="Vector" d="M249.357 119.586C249.223 119.751 249.08 119.907 248.928 120.056L247.586 121.397L242.405 126.443L223.188 144.937L223.255 144.748C224.168 164.879 225.416 192.229 226.798 222.651L226.798 223.336L226.221 222.96L219.283 218.316L175.265 188.793L175.171 188.726L175.171 188.632C168.595 169.012 163.093 152.479 159.148 140.803L154.666 127.222C154.156 125.665 153.766 124.538 153.498 123.625C153.377 123.236 153.283 122.928 153.216 122.686C153.17 122.585 153.142 122.476 153.136 122.364L153.256 122.673L153.592 123.585C153.887 124.431 154.303 125.625 154.853 127.155C155.94 130.322 157.537 134.898 159.51 140.683C163.536 152.331 169.105 168.864 175.762 188.431L175.641 188.27L219.699 217.673L226.637 222.316L226.1 222.625C224.758 192.201 223.631 164.919 222.759 144.789L222.759 144.682L222.839 144.601L242.218 126.216L247.492 121.264L248.834 119.922C249.183 119.72 249.357 119.586 249.357 119.586Z" fill="#BD60FB" fill-opacity="1.000000" fill-rule="nonzero"/>
			<path id="Vector" d="M228.865 213.512L228.731 218.062L232.394 220.745L228.033 222.02L226.597 226.328L224.047 222.57L219.498 222.543L222.289 218.96L220.907 214.626L225.174 216.169L228.865 213.512Z" fill="#BD60FB" fill-opacity="1.000000" fill-rule="nonzero"/>
			<path id="Vector" d="M175.842 182.7L175.936 185.64L178.406 187.223L175.641 188.216L174.889 191.061L173.091 188.739L170.152 188.9L171.803 186.472L170.743 183.733L173.561 184.552L175.842 182.7Z" fill="#BD60FB" fill-opacity="1.000000" fill-rule="nonzero"/>
			<path id="Vector" d="M153.001 117.062L155.229 119.907L158.826 119.692L156.799 122.686L158.114 126.04L154.652 125.034L151.861 127.329L151.74 123.719L148.707 121.772L152.089 120.552L153.001 117.062Z" fill="#BD60FB" fill-opacity="1.000000" fill-rule="nonzero"/>
			<path id="Vector" d="M247.143 114.204L249.357 117.062L252.967 116.848L250.941 119.827L252.256 123.195L248.78 122.189L246.002 124.483L245.881 120.874L242.835 118.928L246.23 117.707L247.143 114.204Z" fill="#BD60FB" fill-opacity="1.000000" fill-rule="nonzero"/>
			<path id="Vector" d="M222.423 141.715L223.846 143.526L226.14 143.393L224.852 145.298L225.698 147.445L223.483 146.801L221.698 148.264L221.618 145.969L219.685 144.721L221.846 143.942L222.423 141.715Z" fill="#BD60FB" fill-opacity="1.000000" fill-rule="nonzero"/>
			<path id="Vector" d="M325.905 242.379C325.844 242.683 325.768 242.982 325.677 243.278C325.475 243.922 325.207 244.768 324.885 245.841L321.839 255.235L311.344 287.014L311.183 287.523L310.78 287.161L305.721 282.505L288.275 266.4L288.678 266.4L271.366 279.633L266.441 283.337L265.099 284.29C264.956 284.411 264.798 284.516 264.629 284.599C264.751 284.452 264.891 284.321 265.045 284.209L266.307 283.176L271.124 279.338L288.275 265.918L288.49 265.757L288.678 265.931L306.124 281.941L311.344 286.651L310.78 286.799L321.516 255.142L324.751 245.747L325.65 243.225C325.702 242.934 325.788 242.65 325.905 242.379Z" fill="#BD60FB" fill-opacity="1.000000" fill-rule="nonzero"/>
			<path id="Vector" d="M309.747 281.592L311.465 283.578L314.068 283.296L312.713 285.537L313.786 287.939L311.223 287.336L309.291 289.094L309.076 286.477L306.795 285.175L309.21 284.155L309.747 281.592Z" fill="#BD60FB" fill-opacity="1.000000" fill-rule="nonzero"/>
			<path id="Vector" d="M263.649 283.176L264.495 284.169L265.797 284.034L265.112 285.148L265.649 286.329L264.374 286.034L263.408 286.906L263.314 285.604L262.173 284.961L263.381 284.464L263.649 283.176Z" fill="#BD60FB" fill-opacity="1.000000" fill-rule="nonzero"/>
			<path id="Vector" d="M325.569 241.601L326.428 242.594L327.716 242.446L327.045 243.56L327.582 244.754L326.307 244.459L325.341 245.331L325.234 244.029L324.106 243.386L325.301 242.875L325.569 241.601Z" fill="#BD60FB" fill-opacity="1.000000" fill-rule="nonzero"/>
			<path id="Vector" d="M288.074 264.643L288.933 265.636L290.234 265.488L289.55 266.602L290.087 267.796L288.812 267.487L287.846 268.373L287.738 267.071L286.611 266.414L287.819 265.917L288.074 264.643Z" fill="#BD60FB" fill-opacity="1.000000" fill-rule="nonzero"/>
			<path id="Vector" d="M342.062 393.031C342 393.257 341.919 393.477 341.821 393.688L341.056 395.567C340.331 397.245 339.325 399.594 338.05 402.64C335.366 408.76 331.662 417.402 327.206 427.722L327.206 427.869L327.045 427.869L292.958 433.506L281.538 435.371L281.015 435.465L281.149 434.955L288.53 405.351L288.691 405.673L268.668 396.722L263.139 394.212L261.703 393.527C261.535 393.458 261.373 393.373 261.22 393.272C261.396 393.311 261.568 393.369 261.73 393.447L263.206 394.051L268.789 396.427L288.919 405.163L289.134 405.257L289.134 405.485C287 414.074 284.477 424.166 281.753 435.144L281.35 434.714L292.784 432.849L326.871 427.293L326.643 427.48C331.206 417.201 335.017 408.585 337.714 402.492L340.868 395.487L341.713 393.648C341.799 393.427 341.916 393.219 342.062 393.031Z" fill="#BD60FB" fill-opacity="1.000000" fill-rule="nonzero"/>
			<path id="Vector" d="M285.457 431.372L284.531 433.828L286.02 435.988L283.404 435.854L281.807 437.948L281.122 435.411L278.653 434.539L280.84 433.104L280.907 430.486L282.947 432.124L285.457 431.372Z" fill="#BD60FB" fill-opacity="1.000000" fill-rule="nonzero"/>
			<path id="Vector" d="M262.066 391.623L261.596 392.844L262.334 393.917L261.032 393.851L260.241 394.884L259.905 393.622L258.671 393.192L259.758 392.481L259.798 391.18L260.804 391.998L262.066 391.623Z" fill="#BD60FB" fill-opacity="1.000000" fill-rule="nonzero"/>
			<path id="Vector" d="M328.159 426.192L327.69 427.414L328.441 428.487L327.126 428.421L326.348 429.454L325.999 428.192L324.764 427.763L325.865 427.052L325.891 425.75L326.911 426.568L328.159 426.192Z" fill="#BD60FB" fill-opacity="1.000000" fill-rule="nonzero"/>
			<path id="Vector" d="M290.02 404.236L289.55 405.458L290.288 406.531L288.986 406.465L288.195 407.512L287.859 406.25L286.624 405.82L287.725 405.096L287.752 403.794L288.772 404.612L290.02 404.236Z" fill="#BD60FB" fill-opacity="1.000000" fill-rule="nonzero"/>
			<path id="Vector" d="M343.646 391.81L343.176 393.031L343.914 394.104L342.613 394.038L341.821 395.071L341.485 393.823L340.251 393.38L341.338 392.669L341.378 391.367L342.385 392.186L343.646 391.81Z" fill="#BD60FB" fill-opacity="1.000000" fill-rule="nonzero"/>
			<path id="Vector" d="M329.837 118.069C329.837 125.926 323.468 132.294 315.612 132.294C307.755 132.294 301.386 125.926 301.386 118.069C301.386 110.213 307.755 103.844 315.612 103.844C323.468 103.844 329.837 110.213 329.837 118.069Z" fill="#BD60FB" fill-opacity="1.000000" fill-rule="evenodd"/>
			<path id="Vector" d="M114.672 232.266C139.268 236.396 155.859 259.682 151.73 284.277C147.601 308.873 124.315 325.465 99.7185 321.336C75.1225 317.207 58.5309 293.92 62.66 269.324C66.7892 244.729 90.0757 228.137 114.672 232.266Z" fill="#BD60FB" fill-opacity="1.000000" fill-rule="evenodd"/>
			<g opacity="0.300000">
				<path id="Vector" d="M101.321 290.879C101.324 292.336 100.894 293.761 100.087 294.974C99.2794 296.188 98.1305 297.134 96.7852 297.693C95.44 298.254 93.9589 298.402 92.5292 298.12C91.0995 297.839 89.7855 297.14 88.7532 296.111C87.721 295.083 87.0169 293.771 86.73 292.343C86.4431 290.914 86.5864 289.433 87.1415 288.085C87.6967 286.737 88.6389 285.585 89.8491 284.773C91.0591 283.962 92.4828 283.527 93.9399 283.524C94.9075 283.522 95.8659 283.712 96.7604 284.08C97.655 284.448 98.4682 284.99 99.1536 285.673C99.839 286.355 100.383 287.167 100.755 288.061C101.127 288.953 101.319 289.911 101.321 290.879Z" fill="#FFFFFF" fill-opacity="1.000000" fill-rule="nonzero"/>
			</g>
			<g opacity="0.300000">
				<path id="Vector" d="M90.8669 269.634C90.8642 270.48 90.6109 271.307 90.1389 272.009C89.6669 272.711 88.9974 273.258 88.2149 273.58C87.4324 273.901 86.5721 273.984 85.7425 273.818C84.913 273.651 84.1514 273.242 83.5541 272.644C82.9567 272.044 82.5503 271.281 82.3862 270.451C82.2221 269.621 82.3077 268.761 82.6321 267.979C82.9565 267.198 83.5052 266.53 84.2089 266.061C84.9126 265.591 85.7397 265.34 86.5859 265.34C87.1492 265.34 87.707 265.451 88.2272 265.667C88.7475 265.883 89.22 266.199 89.6177 266.599C90.0154 266.997 90.3305 267.471 90.5449 267.992C90.7592 268.513 90.8687 269.071 90.8669 269.634Z" fill="#FFFFFF" fill-opacity="1.000000" fill-rule="nonzero"/>
			</g>
			<path id="Vector" d="M63.3826 287.765C63.5839 288.557 24.733 325.824 34.7443 333.769C44.7556 341.713 86.881 321.342 122.793 292.327C158.705 263.313 191.517 228.14 182.512 218.746C173.507 209.352 128.657 237.023 128.657 237.023L134.025 240.445C134.025 240.445 161.161 223 169.75 229.79C178.338 236.581 153.874 263.031 119.344 288.194C84.8143 313.356 51.4522 331.138 46.2721 324.187C41.092 317.235 65.5298 294.246 65.5298 294.246L63.3826 287.765Z" fill="#BD60FB" fill-opacity="1.000000" fill-rule="nonzero"/>
			<g opacity="0.300000">
				<path id="Vector" d="M63.3826 287.765C63.5839 288.557 24.733 325.824 34.7443 333.769C44.7556 341.713 86.881 321.342 122.793 292.327C158.705 263.313 191.517 228.14 182.512 218.746C173.507 209.352 128.657 237.023 128.657 237.023L134.025 240.445C134.025 240.445 161.161 223 169.75 229.79C178.338 236.581 153.874 263.031 119.344 288.194C84.8143 313.356 51.4522 331.138 46.2721 324.187C41.092 317.235 65.5298 294.246 65.5298 294.246L63.3826 287.765Z" fill="#000000" fill-opacity="1.000000" fill-rule="nonzero"/>
			</g>
			<g opacity="0.300000">
				<path id="Vector" d="M82.3048 244.982C82.6671 245.412 79.6208 248.016 76.145 253.222C71.5632 259.911 69.0358 267.794 68.8737 275.899C68.7116 284.006 70.9218 291.983 75.2325 298.85C78.4935 304.218 81.4459 306.902 81.0568 307.345C80.6675 307.788 77.2052 305.561 73.1792 300.232C70.8535 297.102 69.0081 293.642 67.7039 289.966C64.3818 280.829 64.5828 270.781 68.2675 261.784C69.7151 258.159 71.6963 254.771 74.1454 251.732C78.3727 246.606 82.0901 244.66 82.3048 244.982Z" fill="#FFFFFF" fill-opacity="1.000000" fill-rule="nonzero"/>
			</g>
			<path id="Vector" d="M149.163 374.659L149.754 375.746C150.416 376.959 151.413 377.956 152.626 378.618L153.699 379.209L152.626 379.799C151.411 380.453 150.413 381.446 149.754 382.657L149.163 383.744L148.573 382.657C147.906 381.451 146.91 380.46 145.701 379.799L144.627 379.209L145.701 378.618C146.908 377.948 147.903 376.953 148.573 375.746L149.163 374.659Z" fill="#BD60FB" fill-opacity="1.000000" fill-rule="nonzero"/>
			<path id="Vector" d="M343.445 68.6562L343.914 69.542C344.456 70.5176 345.26 71.3223 346.236 71.8633L347.122 72.3467L346.236 72.8301C345.259 73.3691 344.454 74.1738 343.914 75.1514L343.445 76.0234L342.962 75.1514C342.428 74.1621 341.616 73.3496 340.626 72.8164L339.754 72.333L340.626 71.8506C341.613 71.3184 342.424 70.5117 342.962 69.5283L343.445 68.6562Z" fill="#BD60FB" fill-opacity="1.000000" fill-rule="nonzero"/>
			<path id="Vector" d="M106.904 171.146L107.87 172.742C108.954 174.554 110.538 176.013 112.433 176.943L114.11 177.775L112.5 178.741C110.695 179.833 109.238 181.415 108.299 183.304L107.467 184.995L106.501 183.385C105.426 181.586 103.862 180.129 101.992 179.185L100.301 178.352L101.911 177.386C103.72 176.299 105.177 174.715 106.112 172.823L106.904 171.146Z" fill="#BD60FB" fill-opacity="1.000000" fill-rule="nonzero"/>
			<path id="Vector" d="M332.923 201.072L333.89 202.683C334.972 204.49 336.551 205.948 338.439 206.883L340.13 207.715L338.52 208.682C336.711 209.769 335.253 211.353 334.319 213.244L333.487 214.936L332.521 213.325C331.437 211.514 329.852 210.055 327.958 209.124L326.281 208.292L327.891 207.326C329.695 206.238 331.148 204.654 332.078 202.763L332.923 201.072Z" fill="#BD60FB" fill-opacity="1.000000" fill-rule="nonzero"/>
			<path id="Vector" d="M404.935 365.226L405.928 367.668C407.016 369.477 408.599 370.935 410.491 371.868L412.169 372.7L410.558 373.667C408.75 374.754 407.292 376.338 406.358 378.229L405.526 380.538L404.559 378.297C403.468 376.492 401.885 375.035 399.997 374.097L398.319 373.265L399.93 372.298C401.731 371.208 403.187 369.631 404.13 367.749L404.935 365.226Z" fill="#BD60FB" fill-opacity="1.000000" fill-rule="nonzero"/>
			<path id="Vector" d="M386.858 341.177L387.288 342.25C387.764 343.039 388.459 343.673 389.287 344.075L390.012 344.451L389.314 344.867C388.525 345.347 387.888 346.04 387.476 346.867L387.113 347.873L386.697 346.894C386.217 346.104 385.524 345.467 384.698 345.055L383.96 344.692L384.671 344.276C385.459 343.8 386.093 343.105 386.496 342.277L386.858 341.177Z" fill="#BD60FB" fill-opacity="1.000000" fill-rule="nonzero"/>
			<path id="Vector" d="M220.571 306.258L221.497 306.634C222.539 307.055 223.681 307.166 224.785 306.956L225.765 306.768L225.389 307.693C224.969 308.736 224.857 309.878 225.067 310.981L225.255 311.961L224.329 311.586C223.285 311.172 222.145 311.061 221.041 311.264L220.061 311.451L220.437 310.525C220.851 309.486 220.963 308.351 220.759 307.251L220.571 306.258Z" fill="#BD60FB" fill-opacity="1.000000" fill-rule="nonzero"/>
			<path id="Vector" d="M479.309 242.902L479.765 243.09C480.283 243.303 480.852 243.359 481.402 243.251L481.899 243.157L481.711 243.627C481.498 244.146 481.442 244.715 481.55 245.265L481.644 245.761L481.174 245.573C480.656 245.359 480.087 245.303 479.537 245.412L479.094 245.586L479.282 245.116C479.484 244.596 479.536 244.028 479.43 243.479L479.309 242.902Z" fill="#BD60FB" fill-opacity="1.000000" fill-rule="nonzero"/>
			<path id="Vector" d="M306.553 376.015L307.023 376.202C307.542 376.409 308.11 376.466 308.66 376.363L309.157 376.27L308.969 376.726C308.755 377.249 308.699 377.822 308.808 378.377L308.902 378.859L308.432 378.672C307.911 378.472 307.345 378.416 306.795 378.511L306.298 378.604L306.486 378.148C306.699 377.63 306.755 377.061 306.647 376.511L306.553 376.015Z" fill="#BD60FB" fill-opacity="1.000000" fill-rule="nonzero"/>
			<path id="Vector" d="M163.818 290.221L164.288 290.396C164.806 290.609 165.375 290.665 165.925 290.557L166.408 290.462L166.234 290.932C166.021 291.45 165.965 292.02 166.073 292.569L166.166 293.065L165.697 292.878C165.179 292.665 164.609 292.609 164.06 292.717L163.563 292.811L163.751 292.341C163.965 291.823 164.021 291.254 163.912 290.704L163.818 290.221Z" fill="#BD60FB" fill-opacity="1.000000" fill-rule="nonzero"/>
			<path id="Vector" d="M196.402 406.492L196.965 406.721C197.609 406.974 198.311 407.044 198.992 406.922L199.596 406.801L199.367 407.378C199.101 408.014 199.031 408.715 199.166 409.391L199.274 409.995L198.71 409.767C198.066 409.513 197.365 409.443 196.683 409.565L196.08 409.687L196.321 409.109C196.577 408.471 196.642 407.771 196.509 407.096L196.402 406.492Z" fill="#BD60FB" fill-opacity="1.000000" fill-rule="nonzero"/>
			<path id="Vector" d="M276.049 190.806L276.519 190.993C277.037 191.206 277.607 191.263 278.156 191.154L278.653 191.061L278.465 191.53C278.252 192.049 278.196 192.618 278.304 193.168L278.398 193.664L277.928 193.477C277.41 193.264 276.841 193.207 276.291 193.315L275.794 193.409L275.982 192.939C276.195 192.421 276.251 191.852 276.143 191.302L276.049 190.806Z" fill="#BD60FB" fill-opacity="1.000000" fill-rule="nonzero"/>
			<path id="Vector" d="M369.855 91.7119L370.311 91.8994C370.837 92.1016 371.409 92.1533 371.962 92.0479L372.445 91.9668L372.257 92.4229C372.057 92.9443 372.002 93.5098 372.096 94.0605L372.19 94.5566L371.734 94.3691C371.211 94.1553 370.637 94.0986 370.083 94.208L369.6 94.3018L369.788 93.832C369.996 93.3125 370.052 92.7451 369.949 92.1953L369.855 91.7119Z" fill="#BD60FB" fill-opacity="1.000000" fill-rule="nonzero"/>
			<path id="Vector" d="M84.707 139.045L85.1767 139.232C85.6949 139.445 86.2642 139.502 86.814 139.394L87.3105 139.3L87.1226 139.77C86.9089 140.287 86.8528 140.857 86.9615 141.407L87.0555 141.89L86.5858 141.716C86.0676 141.503 85.4983 141.446 84.9485 141.555L84.452 141.648L84.6399 141.179C84.8528 140.66 84.9089 140.091 84.801 139.541L84.707 139.045Z" fill="#BD60FB" fill-opacity="1.000000" fill-rule="nonzero"/>
			<path id="Vector" d="M329.904 313.786L330.374 313.974C330.892 314.187 331.461 314.243 332.011 314.135L332.507 314.041L332.32 314.511C332.106 315.028 332.05 315.599 332.158 316.148L332.252 316.631L331.783 316.457C331.265 316.243 330.695 316.187 330.145 316.296L329.662 316.376L329.837 315.92C330.05 315.401 330.106 314.832 329.998 314.282L329.904 313.786Z" fill="#BD60FB" fill-opacity="1.000000" fill-rule="nonzero"/>
			<path id="Vector" d="M439.095 225.539C439.532 244.233 424.732 259.743 406.037 260.181C387.343 260.618 371.833 245.817 371.396 227.123C370.959 208.429 385.759 192.919 404.454 192.481C423.148 192.044 438.658 206.845 439.095 225.539Z" fill="#BD60FB" fill-opacity="1.000000" fill-rule="evenodd"/>
			<g opacity="0.400000">
				<path id="Vector" d="M416.275 213.378C416.299 212.283 416.648 211.22 417.278 210.323C417.907 209.428 418.788 208.738 419.81 208.344C420.831 207.948 421.947 207.866 423.015 208.106C424.084 208.347 425.057 208.898 425.811 209.692C426.565 210.486 427.067 211.486 427.252 212.565C427.437 213.645 427.298 214.755 426.851 215.755C426.405 216.755 425.672 217.6 424.744 218.183C423.817 218.765 422.738 219.06 421.643 219.027C420.184 218.985 418.8 218.367 417.794 217.31C416.789 216.251 416.243 214.837 416.275 213.378Z" fill="#000000" fill-opacity="1.000000" fill-rule="nonzero"/>
			</g>
			<g opacity="0.400000">
				<path id="Vector" d="M427.32 226.262C427.336 225.628 427.539 225.013 427.905 224.494C428.271 223.976 428.782 223.578 429.374 223.35C429.966 223.122 430.612 223.075 431.231 223.214C431.849 223.354 432.413 223.673 432.85 224.133C433.287 224.593 433.578 225.171 433.686 225.796C433.795 226.421 433.715 227.064 433.458 227.645C433.2 228.224 432.777 228.714 432.241 229.054C431.705 229.393 431.081 229.565 430.446 229.55C430.025 229.539 429.61 229.445 429.225 229.274C428.84 229.104 428.492 228.858 428.202 228.554C427.911 228.248 427.684 227.889 427.533 227.495C427.381 227.103 427.309 226.683 427.32 226.262Z" fill="#000000" fill-opacity="1.000000" fill-rule="nonzero"/>
			</g>
			<g opacity="0.400000">
				<path id="Vector" d="M423.012 236.192C423.245 236.2 423.47 236.276 423.659 236.412C423.849 236.548 423.994 236.737 424.076 236.955C424.158 237.173 424.174 237.41 424.122 237.637C424.07 237.864 423.952 238.07 423.782 238.23C423.613 238.391 423.4 238.497 423.171 238.536C422.941 238.576 422.705 238.546 422.492 238.452C422.279 238.357 422.099 238.202 421.974 238.005C421.849 237.809 421.785 237.579 421.791 237.347C421.794 237.19 421.828 237.036 421.892 236.894C421.955 236.75 422.047 236.621 422.16 236.514C422.274 236.406 422.407 236.323 422.554 236.268C422.7 236.213 422.856 236.187 423.012 236.192Z" fill="#000000" fill-opacity="1.000000" fill-rule="nonzero"/>
			</g>
			<path id="Vector" d="M351.107 153.914L435.076 153.914C435.076 153.914 427.642 140.4 406.035 142.359C385.396 144.238 384.349 135.649 373.827 134.67C363.306 133.69 354.61 141.662 351.107 153.914Z" fill="#FFFFFF" fill-opacity="1.000000" fill-rule="nonzero"/>
			<path id="Vector" d="M242.58 360.019L348.034 360.019C348.034 360.019 338.707 343.042 311.572 345.512C285.645 347.873 284.33 337.164 271.151 335.85C257.973 334.534 246.928 344.64 242.58 360.019Z" fill="#FFFFFF" fill-opacity="1.000000" fill-rule="nonzero"/>
			<path id="Vector" d="M341.029 303.896L390.119 303.896C390.119 303.896 385.785 296.005 373.143 297.187C361.065 298.286 360.461 293.308 354.355 292.69C348.249 292.073 343.082 296.743 341.029 303.896Z" fill="#FFFFFF" fill-opacity="1.000000" fill-rule="nonzero"/>
		</g>
	</g>
</svg>
