<svg width="28" height="28" viewBox="0 0 28 28" fill="none" xmlns="http://www.w3.org/2000/svg">
<path d="M16.0192 13.9422L12.9072 12.4901C12.6356 12.364 12.4125 12.5054 12.4125 12.806V15.5412C12.4125 15.8418 12.6356 15.9832 12.9072 15.8571L16.0178 14.405C16.2908 14.2775 16.2908 14.0697 16.0192 13.9422ZM13.7981 0.87207C6.45179 0.87207 0.496582 6.82728 0.496582 14.1736C0.496582 21.5199 6.45179 27.4751 13.7981 27.4751C21.1444 27.4751 27.0997 21.5199 27.0997 14.1736C27.0997 6.82728 21.1444 0.87207 13.7981 0.87207ZM13.7981 19.5774C6.9894 19.5774 6.87023 18.9635 6.87023 14.1736C6.87023 9.38367 6.9894 8.76986 13.7981 8.76986C20.6068 8.76986 20.726 9.38367 20.726 14.1736C20.726 18.9635 20.6068 19.5774 13.7981 19.5774Z" fill="white"/>
</svg>
