<svg width="177" height="75" viewBox="0 0 177 75" fill="none" xmlns="http://www.w3.org/2000/svg">
<path d="M1.33473 53.6361C0.802529 55.7763 28.2651 78.4778 93.3422 73.8081C149.263 69.8023 176.651 44.1938 176.651 44.1938L1.33473 53.6361Z" fill="black"/>
<path opacity="0.2" d="M1.33473 53.6361C0.802529 55.7763 28.2651 78.4778 93.3422 73.8081C149.263 69.8023 176.651 44.1938 176.651 44.1938L1.33473 53.6361Z" fill="#609FF1"/>
<path d="M89.0582 59.9433C137.627 57.6273 176.75 50.5087 176.442 44.0434C176.133 37.5781 136.511 34.2143 87.9418 36.5303C39.3729 38.8462 0.249918 45.9648 0.558208 52.4301C0.866498 58.8955 40.4893 62.2592 89.0582 59.9433Z" fill="#609FF1"/>
<path d="M48.2312 45.2412C48.2312 45.2412 45.6675 5.46362 85.1074 0.422039C124.547 -4.61954 128.061 37.1724 128.061 37.1724C128.061 37.1724 102.533 56.6291 48.2312 45.2412Z" fill="#F5F5F5"/>
<path d="M68.5749 9.88704C68.7066 10.0759 67.3389 11.1346 65.3417 13.0344C64.8496 13.5094 64.3059 14.0302 63.7565 14.6253C63.2072 15.2205 62.612 15.8557 62.0398 16.5367C59.4914 19.5322 57.3728 22.868 55.7449 26.4482C55.3844 27.2836 55.0239 28.0676 54.7549 28.823C54.486 29.5784 54.1827 30.288 53.9881 30.9404C53.1183 33.5499 52.7463 35.238 52.5174 35.2037C52.2885 35.1693 52.3457 33.424 52.9752 30.6256C53.1355 29.9332 53.3243 29.1778 53.5875 28.3881C53.8508 27.5984 54.1598 26.7572 54.486 25.8759C56.0247 22.0799 58.2324 18.5911 61.004 15.5753C61.6564 14.9 62.263 14.2476 62.8924 13.6925C63.4541 13.1613 64.0423 12.659 64.655 12.1875C66.8868 10.4593 68.4834 9.72108 68.5749 9.88704Z" fill="white"/>
<path d="M169.807 43.4155C169.739 43.5239 169.659 43.6238 169.567 43.7131C169.314 43.9784 169.04 44.2233 168.749 44.4456C167.651 45.2289 166.449 45.8549 165.178 46.3054C156.908 49.512 148.22 51.5087 139.38 52.234C137.664 52.3656 136.313 52.4286 135.375 52.4515H134.281C134.154 52.4602 134.026 52.4602 133.898 52.4515C134.024 52.4205 134.152 52.4051 134.281 52.4057L135.369 52.3313C136.319 52.2684 137.686 52.1768 139.375 52.0165C148.182 51.1804 156.84 49.187 165.126 46.088C166.391 45.6592 167.595 45.0687 168.708 44.3311C169.09 44.0451 169.457 43.7395 169.807 43.4155Z" fill="white"/>
<path d="M78.0859 74.5521C77.8942 74.463 77.7136 74.3516 77.548 74.2202C77.0718 73.8951 76.6186 73.5376 76.1917 73.1501C75.5493 72.5815 74.9523 71.9635 74.4063 71.3017C73.7373 70.4916 73.1381 69.6263 72.6151 68.7151C72.101 67.7987 71.6627 66.8417 71.3047 65.8538C71.019 65.0455 70.7933 64.2173 70.6294 63.3759C70.5163 62.8092 70.4398 62.2357 70.4005 61.6591C70.3769 61.4481 70.3769 61.235 70.4005 61.0239C70.4577 61.0239 70.5207 61.9166 70.8411 63.313C71.0308 64.1366 71.2736 64.947 71.5679 65.7393C71.9384 66.7054 72.3763 67.6443 72.8784 68.5491C73.3971 69.4432 73.9804 70.2981 74.6238 71.1071C75.154 71.7663 75.7275 72.3896 76.3405 72.9727C77.382 73.9798 78.1202 74.5006 78.0859 74.5521Z" fill="#263238"/>
<path d="M75.3848 65.4649C75.3848 65.505 75.2418 65.5736 75.196 65.7854C75.1784 65.84 75.1739 65.8979 75.1829 65.9546C75.1918 66.0112 75.2139 66.065 75.2475 66.1116C75.2906 66.1536 75.3439 66.1836 75.4023 66.1984C75.4606 66.2133 75.5218 66.2126 75.5798 66.1964C75.6378 66.1802 75.6904 66.149 75.7325 66.106C75.7747 66.063 75.8047 66.0096 75.8197 65.9513C75.8241 65.8941 75.8156 65.8366 75.7948 65.7831C75.774 65.7297 75.7414 65.6815 75.6996 65.6423C75.5451 65.4821 75.3791 65.5107 75.3676 65.4649C75.3562 65.4191 75.5508 65.2989 75.8312 65.4649C75.9126 65.5171 75.9794 65.5891 76.0255 65.6742C76.0715 65.7593 76.0952 65.8546 76.0944 65.9513C76.089 66.0759 76.043 66.1954 75.9635 66.2914C75.8839 66.3875 75.7752 66.455 75.6538 66.4835C75.5493 66.5124 75.4387 66.511 75.335 66.4794C75.2313 66.4479 75.1386 66.3875 75.0679 66.3054C74.9971 66.2232 74.9511 66.1227 74.9353 66.0154C74.9195 65.9082 74.9345 65.7986 74.9785 65.6995C75.1445 65.3962 75.3963 65.4248 75.3848 65.4649Z" fill="#263238"/>
<path d="M77.9485 70.0488C77.9485 70.0889 77.8112 70.1518 77.7597 70.3693C77.7438 70.4241 77.7402 70.4817 77.7491 70.5381C77.758 70.5945 77.7792 70.6482 77.8112 70.6955C77.852 70.7442 77.9069 70.7792 77.9684 70.7955C78.0298 70.8119 78.0948 70.809 78.1545 70.787C78.2171 70.7748 78.2743 70.7434 78.3184 70.6973C78.3625 70.6512 78.3912 70.5926 78.4006 70.5295C78.4041 70.4732 78.3951 70.4169 78.3744 70.3644C78.3536 70.312 78.3215 70.2648 78.2804 70.2262C78.1259 70.066 77.96 70.0889 77.9485 70.0488C77.9371 70.0088 78.1316 69.8829 78.412 70.0488C78.4935 70.101 78.5603 70.173 78.6063 70.2581C78.6524 70.3432 78.6761 70.4385 78.6753 70.5352C78.6607 70.6105 78.6313 70.6821 78.5885 70.7457C78.5458 70.8094 78.4907 70.8638 78.4266 70.9057C78.3624 70.9477 78.2905 70.9763 78.215 70.9899C78.1396 71.0036 78.0622 71.0019 77.9874 70.985C77.9127 70.9681 77.842 70.9364 77.7798 70.8917C77.7175 70.847 77.6648 70.7903 77.6249 70.7248C77.585 70.6594 77.5586 70.5866 77.5473 70.5108C77.5361 70.435 77.5402 70.3577 77.5594 70.2835C77.7082 69.9744 77.96 70.0088 77.9485 70.0488Z" fill="#263238"/>
<path d="M0.762573 52.0452C0.911786 51.979 1.067 51.9272 1.2261 51.8907L2.57663 51.5073C3.72114 51.1811 5.43791 50.7404 7.57243 50.2311C11.8014 49.2125 17.7014 47.9993 24.2823 47.0551C30.8633 46.1109 36.872 45.6474 41.2211 45.4413C43.3957 45.3383 45.1583 45.2868 46.3715 45.2811H47.7735C47.9372 45.2663 48.1019 45.2663 48.2656 45.2811C48.1049 45.3086 47.9423 45.3239 47.7792 45.3269L46.3772 45.3898C45.164 45.4356 43.4014 45.5157 41.2269 45.6473C36.8834 45.9049 30.8919 46.4142 24.3167 47.3641C17.7414 48.3141 11.8529 49.4815 7.61249 50.4486C5.48942 50.9293 3.77837 51.3356 2.59952 51.6332L1.23755 51.9651C1.08159 52.0043 0.922768 52.0311 0.762573 52.0452Z" fill="#263238"/>
<path d="M128.673 56.5263C128.417 56.3992 128.171 56.2498 127.941 56.0799L125.989 54.7866C124.341 53.6936 122.047 52.2172 119.46 50.6664C116.873 49.1156 114.487 47.8051 112.747 46.8552L110.687 45.745C110.428 45.6204 110.179 45.4749 109.943 45.3101C110.217 45.398 110.483 45.5091 110.739 45.642C111.242 45.8709 111.963 46.2142 112.845 46.6663C114.613 47.559 117.022 48.8581 119.614 50.4089C122.207 51.9597 124.49 53.4762 126.11 54.6092C126.916 55.1815 127.569 55.6507 128.009 55.9826C128.246 56.1441 128.468 56.326 128.673 56.5263Z" fill="#263238"/>
<path d="M112.639 49.0181C112.673 49.0524 112.501 49.1955 112.513 49.4931C112.516 49.6528 112.582 49.805 112.696 49.9165C112.771 49.9666 112.858 49.9969 112.948 50.0047C113.038 50.0124 113.129 49.9974 113.211 49.9609C113.294 49.9244 113.366 49.8676 113.421 49.7958C113.476 49.7241 113.512 49.6396 113.526 49.5503C113.526 49.4704 113.509 49.3915 113.476 49.3186C113.444 49.2456 113.396 49.1803 113.337 49.1268C113.125 48.9208 112.908 48.9494 112.902 48.9036C112.896 48.8579 113.137 48.7377 113.474 48.9609C113.568 49.026 113.647 49.1111 113.704 49.21C113.761 49.3089 113.796 49.4192 113.806 49.5331C113.806 49.6821 113.761 49.8275 113.677 49.9509C113.593 50.0742 113.475 50.1698 113.337 50.2255C113.204 50.2895 113.055 50.3122 112.909 50.2908C112.763 50.2694 112.627 50.2048 112.519 50.1054C112.437 50.0229 112.375 49.9227 112.338 49.8125C112.302 49.7024 112.291 49.5852 112.307 49.4702C112.358 49.081 112.633 48.9838 112.639 49.0181Z" fill="#263238"/>
<path d="M38.5887 46.8032C38.5887 46.8376 38.4514 46.9806 38.4628 47.2725C38.4623 47.3519 38.4783 47.4306 38.5098 47.5035C38.5414 47.5764 38.5877 47.642 38.646 47.696C38.7208 47.7477 38.8077 47.7793 38.8982 47.7879C38.9888 47.7964 39.08 47.7816 39.1633 47.7449C39.2465 47.7082 39.3189 47.6507 39.3736 47.578C39.4283 47.5054 39.4635 47.4199 39.4757 47.3297C39.4747 47.2508 39.4575 47.173 39.425 47.1011C39.3925 47.0292 39.3455 46.9648 39.2869 46.912C39.0751 46.7002 38.8577 46.7346 38.852 46.6888C38.8462 46.643 39.0866 46.5228 39.4242 46.746C39.5187 46.8106 39.5976 46.8955 39.6551 46.9945C39.7125 47.0935 39.747 47.2042 39.7561 47.3183C39.756 47.4666 39.7111 47.6115 39.6274 47.734C39.5437 47.8565 39.425 47.9509 39.2869 48.005C39.1532 48.0694 39.0033 48.0924 38.8565 48.071C38.7096 48.0496 38.5725 47.9847 38.4628 47.8848C38.3828 47.8013 38.3227 47.7008 38.287 47.5908C38.2514 47.4808 38.241 47.3642 38.2568 47.2496C38.3083 46.8662 38.583 46.7632 38.5887 46.8032Z" fill="#263238"/>
<path d="M24.9289 48.5259C24.9289 48.5602 24.7916 48.6976 24.7973 48.9951C24.7992 49.0747 24.8168 49.1531 24.8492 49.2258C24.8817 49.2985 24.9282 49.364 24.9861 49.4186C25.0587 49.4742 25.1454 49.5084 25.2364 49.5175C25.3273 49.5266 25.419 49.5102 25.5012 49.4701C25.5869 49.4368 25.6615 49.3799 25.7162 49.306C25.7709 49.232 25.8035 49.1441 25.8102 49.0524C25.8107 48.9729 25.7947 48.8943 25.7632 48.8214C25.7317 48.7484 25.6853 48.6829 25.6271 48.6289C25.4154 48.4229 25.1979 48.4515 25.1922 48.4057C25.1864 48.3599 25.4268 48.2455 25.7644 48.4687C25.8588 48.5329 25.9372 48.6179 25.9937 48.717C26.0503 48.8162 26.0834 48.927 26.0906 49.0409C26.0933 49.1892 26.0503 49.3346 25.9673 49.4575C25.8844 49.5804 25.7656 49.6747 25.6271 49.7276C25.4934 49.7921 25.3435 49.8151 25.1967 49.7937C25.0498 49.7722 24.9127 49.7074 24.803 49.6075C24.723 49.524 24.6629 49.4235 24.6272 49.3135C24.5916 49.2035 24.5812 49.0868 24.597 48.9722C24.6542 48.5888 24.9232 48.4858 24.9289 48.5259Z" fill="#263238"/>
<path d="M9.35207 50.9292C9.38068 50.9636 9.20901 51.1066 9.22046 51.4042C9.22064 51.4841 9.23755 51.563 9.27007 51.6359C9.30259 51.7089 9.35002 51.7742 9.4093 51.8277C9.48186 51.8836 9.56889 51.9176 9.66014 51.9257C9.75138 51.9338 9.84304 51.9157 9.92433 51.8735C10.01 51.8418 10.0847 51.786 10.1395 51.713C10.1943 51.6399 10.2269 51.5526 10.2334 51.4614C10.2305 51.3017 10.1647 51.1495 10.0502 51.038C9.83849 50.832 9.61531 50.8606 9.61531 50.8148C9.61531 50.769 9.84994 50.6488 10.1876 50.8777C10.2816 50.9423 10.3598 51.0273 10.4163 51.1264C10.4728 51.2255 10.5061 51.3362 10.5138 51.45C10.5141 51.5977 10.47 51.7421 10.3874 51.8645C10.3048 51.9869 10.1873 52.0817 10.0502 52.1367C9.91655 52.2011 9.76666 52.2241 9.61981 52.2027C9.47297 52.1813 9.33588 52.1165 9.22617 52.0165C9.14683 51.9324 9.08679 51.832 9.05022 51.7223C9.01365 51.6126 9.00144 51.4962 9.01444 51.3813C9.07167 50.9922 9.34635 50.8949 9.35207 50.9292Z" fill="#263238"/>
<path d="M118.876 53.23C118.911 53.2643 118.739 53.4074 118.75 53.6992C118.75 53.7787 118.766 53.8573 118.797 53.9303C118.829 54.0032 118.875 54.0687 118.934 54.1227C119.006 54.1795 119.092 54.2146 119.184 54.2237C119.275 54.2328 119.367 54.2157 119.449 54.1742C119.535 54.1412 119.61 54.0845 119.666 54.0106C119.722 53.9367 119.755 53.8486 119.763 53.7565C119.762 53.6776 119.745 53.5997 119.713 53.5278C119.68 53.456 119.633 53.3916 119.575 53.3387C119.363 53.127 119.145 53.1613 119.14 53.1155C119.134 53.0698 119.374 52.9496 119.712 53.1728C119.806 53.2373 119.885 53.3222 119.943 53.4213C120 53.5203 120.035 53.6309 120.044 53.745C120.051 53.8513 120.036 53.9578 119.999 54.0577C119.962 54.1577 119.905 54.2487 119.83 54.3248C119.756 54.401 119.666 54.4605 119.567 54.4996C119.468 54.5386 119.362 54.5563 119.256 54.5514C119.149 54.5465 119.045 54.5192 118.95 54.4713C118.855 54.4233 118.771 54.3559 118.704 54.2732C118.637 54.1906 118.588 54.0947 118.56 53.9918C118.533 53.889 118.527 53.7815 118.544 53.6763C118.596 53.2929 118.871 53.1899 118.876 53.23Z" fill="#263238"/>
<path d="M91.2191 4.90267C89.5914 4.35508 87.8653 4.16272 86.157 4.33854C84.4486 4.51436 82.7978 5.05428 81.3158 5.92193C79.8337 6.78957 78.5549 7.96479 77.5653 9.36839C76.5758 10.772 75.8986 12.3714 75.5794 14.0588L75.5279 14.3735C75.3299 15.5268 75.3299 16.7053 75.5279 17.8586C75.8965 20.0046 76.6736 22.0599 77.8169 23.913C81.0959 29.2293 82.8527 29.401 83.1732 32.434C83.4937 35.4669 83.9515 36.1136 82.4007 37.4069C82.4007 37.4069 80.2719 37.5385 79.1102 38.2481C77.9485 38.9577 76.9757 39.4727 76.8498 43.0264C76.7239 46.5801 76.5694 48.749 76.5694 48.749C82.7659 49.1129 88.9832 48.8733 95.1334 48.0337L94.3551 39.0721C94.2305 38.6568 93.9972 38.2824 93.6792 37.9876C93.3613 37.6928 92.9703 37.4883 92.5468 37.3954C91.1276 37.1379 88.9358 37.2009 88.8042 36.4283C88.6726 35.6558 88.9988 35.3925 88.9988 35.3925C88.9988 35.3925 91.5797 36.4283 93.2564 35.65C94.9331 34.8718 96.8101 33.8474 97.1306 32.5541C97.451 31.2608 98.4639 26.8716 98.2751 26.677C98.0862 26.4825 100.799 24.2907 100.913 19.2377C101.028 14.1847 97.6742 7.48356 93.2163 5.61228C92.5258 5.35285 91.8601 5.11632 91.2191 4.90267Z" fill="#69BB5B"/>
<path d="M82.9729 16.3191C82.9729 16.3191 92.5639 13.4063 91.1333 24.4966C91.1333 24.4966 80.8784 25.7842 82.9729 16.3191Z" fill="#263238"/>
<path d="M95.2651 24.2565C95.2651 24.2565 91.2249 14.6197 98.3095 15.5811C98.3095 15.6097 102.155 22.5569 95.2651 24.2565Z" fill="#263238"/>
<path d="M108.232 36.3481C108.232 36.3481 106.516 36.9204 106.092 37.3896C105.669 37.8589 105.028 39.5642 104.324 39.7702C103.726 39.8654 103.114 39.8083 102.544 39.6043C102.544 39.6043 102.172 37.5327 101.4 36.6114C100.627 35.69 100.432 35.9075 100.432 35.9075C100.432 35.9075 98.4925 35.8617 98.5955 34.763C98.5955 34.763 99.4024 33.8187 100.77 35.1349C100.967 35.3269 101.226 35.4418 101.5 35.4586C101.774 35.4754 102.045 35.393 102.264 35.2265C103.031 34.6027 103.145 33.0691 103.065 32.0447C103.065 32.0447 102.292 30.2536 103.5 29.8931C103.5 29.8931 104.513 29.9675 103.958 32.0619C103.958 32.0619 103.071 34.288 104.295 35.1693C104.295 35.1693 105.291 35.6042 106.413 33.67L106.785 32.9604C106.785 32.9604 106.847 31.4267 108.181 31.3867C108.258 31.3838 108.334 31.4088 108.395 31.4571C108.456 31.5053 108.498 31.5737 108.513 31.6499C108.582 32.0134 108.515 32.3899 108.324 32.7069C108.133 33.0238 107.831 33.2588 107.477 33.3667C107.477 33.3667 105.949 34.5112 106.149 35.8331C106.149 35.8331 106.613 36.331 107.763 35.8045L108.204 35.6385C108.204 35.6385 109.652 34.4024 109.863 34.969C110.081 35.6671 109.257 36.3996 108.232 36.3481Z" fill="#69BB5B"/>
<path d="M102.538 39.3071L100.667 47.2729L102.287 47.0154L103.958 46.6835L104.925 39.2842L102.538 39.3071Z" fill="#69BB5B"/>
<g opacity="0.2">
<path d="M81.7884 7.79277C81.4374 7.79235 81.0969 7.91183 80.8232 8.13143C80.5495 8.35103 80.359 8.65757 80.2833 9.00024C80.2325 9.35517 80.3018 9.71691 80.4801 10.028C80.6584 10.339 80.9356 10.5815 81.2676 10.717C81.6091 10.8324 81.9796 10.8285 82.3185 10.7058C82.6575 10.5831 82.9447 10.349 83.1332 10.0417C83.3028 9.72379 83.3573 9.35694 83.2875 9.00339C83.2176 8.64983 83.0276 8.33131 82.7498 8.1018C82.571 7.96578 82.3646 7.87068 82.1451 7.82321C81.9256 7.77575 81.6983 7.77708 81.4793 7.82711" fill="white"/>
</g>
<path d="M84.4779 18.5453C84.3329 18.5317 84.1875 18.5679 84.0658 18.648C83.9441 18.7281 83.8533 18.8473 83.8084 18.9859C83.7644 19.1326 83.7744 19.2902 83.8365 19.4302C83.8987 19.5702 84.009 19.6833 84.1473 19.749C84.2857 19.8147 84.443 19.8287 84.5907 19.7884C84.7385 19.7482 84.867 19.6564 84.9529 19.5296C85.0358 19.4044 85.0726 19.2543 85.0569 19.105C85.0413 18.9557 84.9741 18.8165 84.8671 18.7112C84.7985 18.648 84.7167 18.6009 84.6276 18.5732C84.5385 18.5454 84.4444 18.5379 84.352 18.551" fill="#455A64"/>
<path d="M84.7412 20.903C84.6679 20.8956 84.5942 20.9139 84.5327 20.9545C84.4712 20.9952 84.4256 21.0558 84.4036 21.1261C84.3855 21.1999 84.3932 21.2776 84.4255 21.3464C84.4578 21.4151 84.5127 21.4707 84.581 21.5038C84.6492 21.5367 84.7268 21.5445 84.8001 21.5256C84.8735 21.5067 84.9378 21.4625 84.9816 21.4008C85.0188 21.3505 85.0402 21.2903 85.043 21.2278C85.0458 21.1653 85.0299 21.1034 84.9973 21.0499C84.9648 20.9965 84.917 20.954 84.8602 20.9278C84.8034 20.9016 84.7401 20.893 84.6783 20.903" fill="#455A64"/>
<g opacity="0.2">
<path d="M79.4993 11.3521C79.3661 11.4017 79.2545 11.4966 79.1841 11.6202C79.1136 11.7437 79.0889 11.8881 79.1141 12.0281C79.1393 12.168 79.2129 12.2947 79.3221 12.3859C79.4312 12.4771 79.5689 12.5271 79.7111 12.5271C79.8533 12.5271 79.991 12.4771 80.1001 12.3859C80.2092 12.2947 80.2828 12.168 80.3081 12.0281C80.3333 11.8881 80.3085 11.7437 80.2381 11.6202C80.1677 11.4966 80.0561 11.4017 79.9228 11.3521" fill="white"/>
</g>
<path d="M88.2663 25.5497C88.1171 25.5798 87.9634 25.5798 87.8142 25.5497C87.4004 25.5354 86.9895 25.474 86.5896 25.3666C85.2459 25.0265 84.0419 24.275 83.1462 23.2172C82.2505 22.1594 81.7077 20.8481 81.5938 19.4666C81.5508 19.0538 81.5508 18.6376 81.5938 18.2248C81.5985 18.0725 81.6335 17.9227 81.6968 17.7842C81.754 17.7842 81.6453 18.4251 81.7827 19.438C81.9484 20.7584 82.4942 22.0022 83.3536 23.0181C84.2131 24.034 85.3493 24.7784 86.624 25.1606C87.6025 25.4925 88.2721 25.4982 88.2663 25.5497Z" fill="#263238"/>
<path d="M91.1504 18.4253C90.4382 17.4976 89.5638 16.7065 88.5696 16.0905C87.5304 15.5566 86.4046 15.2117 85.2448 15.0719C85.5893 14.9855 85.9483 14.9738 86.2977 15.0376C87.1494 15.1389 87.9723 15.4093 88.7181 15.8328C89.464 16.2563 90.1177 16.8245 90.6411 17.504C90.8778 17.769 91.0519 18.0839 91.1504 18.4253Z" fill="#263238"/>
<path d="M94.0805 19.6157C93.9756 19.3356 93.9213 19.0392 93.9202 18.7401C93.8374 18.0175 93.9016 17.2856 94.1091 16.5884C94.2209 16.2342 94.4019 15.9056 94.6416 15.6217C94.8813 15.3378 95.1748 15.1043 95.5054 14.9346C95.6359 14.8522 95.7818 14.797 95.9342 14.7724C96.0867 14.7478 96.2425 14.7543 96.3924 14.7916C96.1231 14.8851 95.8594 14.994 95.6027 15.1177C95.029 15.4843 94.6002 16.0384 94.3895 16.6857C94.196 17.3507 94.1091 18.0422 94.132 18.7344C94.1633 19.029 94.1459 19.3268 94.0805 19.6157Z" fill="#263238"/>
<path d="M98.6642 23.2036C98.5526 23.5066 98.3781 23.7826 98.1523 24.0134C97.9264 24.2442 97.6543 24.4246 97.3537 24.5427C97.0766 24.708 96.7676 24.8128 96.4471 24.8503C96.1265 24.8878 95.8017 24.8571 95.4939 24.7602C96.0813 24.6599 96.6566 24.4988 97.2107 24.2795C97.7321 23.9736 98.2193 23.6129 98.6642 23.2036Z" fill="#263238"/>
<path d="M93.1248 28.7716C93.1248 28.8059 93.0104 28.9261 92.7357 28.9948C92.5534 29.0398 92.364 29.048 92.1785 29.0189C91.993 28.9898 91.8151 28.9241 91.6553 28.8256C91.4954 28.727 91.3569 28.5976 91.2476 28.4449C91.1383 28.2921 91.0606 28.1192 91.0189 27.9361C90.9617 27.6557 91.0189 27.4897 91.0533 27.4897C91.0876 27.4897 91.122 27.65 91.2192 27.8674C91.3377 28.151 91.5367 28.3938 91.7915 28.5656C92.0578 28.7229 92.3637 28.8004 92.6728 28.7888C92.9532 28.7716 93.1077 28.7258 93.1248 28.7716Z" fill="#263238"/>
<path d="M91.4538 35.759C91.117 35.8451 90.7655 35.8569 90.4237 35.7933C89.5899 35.6903 88.7867 35.4153 88.0646 34.9858C87.3426 34.5564 86.7176 33.9817 86.2291 33.2983C86.0066 33.0311 85.8498 32.7156 85.7712 32.377C85.9978 32.6284 86.2081 32.8941 86.4007 33.1724C87.4334 34.4239 88.8703 35.2759 90.4638 35.5816C90.7974 35.6183 91.1281 35.6776 91.4538 35.759Z" fill="#263238"/>
<path d="M80.5122 48.8351C80.3138 47.0112 80.3138 45.1711 80.5122 43.3472C80.7106 45.1711 80.7106 47.0112 80.5122 48.8351Z" fill="#263238"/>
<path d="M86.4007 46.7119C85.59 47.0219 84.7169 47.1337 83.8542 47.0381C83.2193 47.069 82.5931 46.8811 82.0802 46.5058C81.7025 46.1568 81.7082 45.802 81.7425 45.8077C81.7769 45.8134 81.8627 46.0881 82.2118 46.3399C82.7129 46.63 83.2872 46.7691 83.8656 46.7405C85.2562 46.8149 86.3835 46.626 86.4007 46.7119Z" fill="#263238"/>
<path d="M92.0031 48.377C91.7939 47.6311 91.6767 46.8624 91.654 46.088C91.537 45.3191 91.5177 44.5384 91.5968 43.7646C91.9337 45.2796 92.0703 46.8322 92.0031 48.3827V48.377Z" fill="#263238"/>
<path d="M91.7228 44.6802C91.5529 45.1995 91.1992 45.6391 90.7283 45.9162C90.2573 46.1933 89.7013 46.289 89.1648 46.1852C89.6493 46.0479 90.122 45.8719 90.5783 45.6587C91.2936 45.2467 91.6427 44.6344 91.7228 44.6802Z" fill="#263238"/>
<path d="M97.3767 4.30174C96.7346 4.58967 96.1278 4.95066 95.5684 5.37758C95.0752 5.88012 94.643 6.43907 94.2808 7.04285C94.2464 7.04285 94.2808 6.77961 94.441 6.41336C94.66 5.93396 94.9767 5.50561 95.3709 5.15577C95.7651 4.80593 96.228 4.54232 96.73 4.38186C97.1192 4.2674 97.3709 4.2674 97.3767 4.30174Z" fill="#69BB5B"/>
<path d="M98.0748 3.68984C97.8974 3.60155 97.6931 3.58375 97.503 3.64002C97.313 3.69629 97.1513 3.82246 97.0505 3.99314C96.985 4.11624 96.9581 4.25626 96.9735 4.39487C96.9888 4.53348 97.0457 4.66423 97.1366 4.76999C97.2275 4.87574 97.3482 4.95158 97.483 4.98757C97.6177 5.02356 97.7602 5.01804 97.8917 4.9717C98.0035 4.93009 98.104 4.86318 98.1856 4.7762C98.2672 4.68923 98.3275 4.58456 98.3618 4.47038C98.3962 4.35621 98.4037 4.23563 98.3837 4.11809C98.3637 4.00054 98.3167 3.88923 98.2465 3.79286C98.2005 3.72654 98.1373 3.67396 98.0637 3.6407C97.9902 3.60745 97.909 3.59477 97.8288 3.60401" fill="#69BB5B"/>
<path d="M94.7499 3.2605C94.1065 3.54361 93.4994 3.90288 92.9416 4.33061C92.4484 4.83316 92.0163 5.39211 91.654 5.99588C91.6197 5.99588 91.654 5.73837 91.8085 5.36641C92.0306 4.88616 92.3502 4.4574 92.747 4.10743C93.1419 3.75733 93.6059 3.49413 94.109 3.33489C94.4695 3.22044 94.7442 3.22616 94.7499 3.2605Z" fill="#69BB5B"/>
<path d="M95.4481 2.64235C95.27 2.55454 95.0652 2.53761 94.8751 2.59496C94.6849 2.65232 94.5237 2.77971 94.4238 2.95138C94.3569 3.07413 94.329 3.21439 94.3439 3.35341C94.3588 3.49244 94.4158 3.62359 94.5072 3.72936C94.5987 3.83512 94.7202 3.91045 94.8557 3.94527C94.9911 3.98009 95.1339 3.97274 95.265 3.92421C95.3766 3.88332 95.4772 3.81704 95.5588 3.73061C95.6404 3.64418 95.7008 3.53996 95.7352 3.42618C95.7696 3.31241 95.7771 3.1922 95.7571 3.07504C95.737 2.95787 95.6901 2.84697 95.6198 2.75108C95.5752 2.68333 95.5122 2.62964 95.4383 2.59621C95.3643 2.56279 95.2824 2.55101 95.2021 2.56224" fill="#69BB5B"/>
</svg>
