<svg width="140" height="248" viewBox="0 0 140 248" fill="none" xmlns="http://www.w3.org/2000/svg">
<path d="M9.89384 102.182C9.15703 102.233 8.41725 102.139 7.71682 101.905C7.01638 101.67 6.36903 101.3 5.81178 100.815C5.25453 100.331 4.79831 99.7408 4.46921 99.0795C4.14012 98.4183 3.9446 97.6986 3.89384 96.9617L0.0138381 40.9617C-0.0906255 39.4753 0.399534 38.0081 1.37654 36.883C2.35355 35.7578 3.73741 35.0668 5.22384 34.9617L56.4638 31.4117C57.2007 31.36 57.9404 31.4541 58.6409 31.6885C59.3413 31.923 59.9887 32.2932 60.5459 32.778C61.1032 33.2628 61.5594 33.8527 61.8885 34.5139C62.2176 35.1752 62.4131 35.8949 62.4638 36.6317L66.3438 92.6317C66.3955 93.3685 66.3015 94.1083 66.067 94.8088C65.8326 95.5092 65.4624 96.1565 64.9776 96.7138C64.4928 97.271 63.9029 97.7273 63.2416 98.0564C62.5804 98.3854 61.8607 98.581 61.1238 98.6317V98.6817C61.8602 98.6287 62.5997 98.7214 63.3001 98.9547C64.0005 99.188 64.6479 99.5573 65.2053 100.041C65.7627 100.525 66.2191 101.115 66.5483 101.775C66.8775 102.436 67.0731 103.155 67.1238 103.892L68.2738 121.052C68.3255 121.789 68.2315 122.528 67.997 123.229C67.7626 123.929 67.3924 124.577 66.9076 125.134C66.4228 125.691 65.8329 126.147 65.1716 126.476C64.5104 126.805 63.7907 127.001 63.0538 127.052L11.8238 130.592C10.3374 130.696 8.87027 130.206 7.74512 129.229C6.61997 128.252 5.92889 126.868 5.82384 125.382L4.64384 108.222C4.59081 107.485 4.68393 106.744 4.91785 106.043C5.15178 105.342 5.5219 104.694 6.00695 104.137C6.492 103.579 7.08243 103.123 7.74431 102.795C8.4062 102.466 9.1265 102.271 9.86384 102.222L9.89384 102.182Z" fill="#263238"/>
<path opacity="0.3" d="M9.89384 102.182C9.15703 102.233 8.41725 102.139 7.71682 101.905C7.01638 101.67 6.36903 101.3 5.81178 100.815C5.25453 100.331 4.79831 99.7408 4.46921 99.0795C4.14012 98.4183 3.9446 97.6986 3.89384 96.9617L0.0138381 40.9617C-0.0906255 39.4753 0.399534 38.0081 1.37654 36.883C2.35355 35.7578 3.73741 35.0668 5.22384 34.9617L56.4638 31.4117C57.2007 31.36 57.9404 31.4541 58.6409 31.6885C59.3413 31.923 59.9887 32.2932 60.5459 32.778C61.1032 33.2628 61.5594 33.8527 61.8885 34.5139C62.2176 35.1752 62.4131 35.8949 62.4638 36.6317L66.3438 92.6317C66.3955 93.3685 66.3015 94.1083 66.067 94.8088C65.8326 95.5092 65.4624 96.1565 64.9776 96.7138C64.4928 97.271 63.9029 97.7273 63.2416 98.0564C62.5804 98.3854 61.8607 98.581 61.1238 98.6317V98.6817C61.8602 98.6287 62.5997 98.7214 63.3001 98.9547C64.0005 99.188 64.6479 99.5573 65.2053 100.041C65.7627 100.525 66.2191 101.115 66.5483 101.775C66.8775 102.436 67.0731 103.155 67.1238 103.892L68.2738 121.052C68.3255 121.789 68.2315 122.528 67.997 123.229C67.7626 123.929 67.3924 124.577 66.9076 125.134C66.4228 125.691 65.8329 126.147 65.1716 126.476C64.5104 126.805 63.7907 127.001 63.0538 127.052L11.8238 130.592C10.3374 130.696 8.87027 130.206 7.74512 129.229C6.61997 128.252 5.92889 126.868 5.82384 125.382L4.64384 108.222C4.59081 107.485 4.68393 106.744 4.91785 106.043C5.15178 105.342 5.5219 104.694 6.00695 104.137C6.492 103.579 7.08243 103.123 7.74431 102.795C8.4062 102.466 9.1265 102.271 9.86384 102.222L9.89384 102.182Z" fill="white"/>
<path d="M9.89384 102.182C9.15703 102.233 8.41725 102.139 7.71682 101.905C7.01638 101.671 6.36903 101.3 5.81178 100.815C5.25453 100.331 4.79831 99.7408 4.46921 99.0795C4.14012 98.4183 3.9446 97.6986 3.89384 96.9617L0.0138381 40.9617C-0.0906255 39.4753 0.399534 38.0082 1.37654 36.883C2.35355 35.7579 3.73741 35.0668 5.22384 34.9617L23.0438 33.7318C23.7809 33.6787 24.5212 33.7718 25.2222 34.0058C25.9232 34.2397 26.5711 34.6098 27.1286 35.0948C27.6862 35.5799 28.1424 36.1703 28.471 36.8322C28.7997 37.4941 28.9944 38.2144 29.0438 38.9518L32.9238 94.9518C32.9755 95.6886 32.8815 96.4283 32.647 97.1288C32.4126 97.8292 32.0424 98.4766 31.5576 99.0338C31.0728 99.5911 30.4829 100.047 29.8216 100.376C29.1604 100.705 28.4407 100.901 27.7038 100.952C28.4407 100.9 29.1804 100.994 29.8809 101.229C30.5813 101.463 31.2287 101.833 31.7859 102.318C32.3432 102.803 32.7994 103.393 33.1285 104.054C33.4576 104.715 33.6531 105.435 33.7038 106.172L34.8938 123.352C34.9455 124.089 34.8515 124.828 34.617 125.529C34.3826 126.229 34.0124 126.877 33.5276 127.434C33.0428 127.991 32.4529 128.447 31.7916 128.776C31.1304 129.105 30.4107 129.301 29.6738 129.352L11.8638 130.582C10.3774 130.686 8.91026 130.196 7.78511 129.219C6.65996 128.242 5.96888 126.858 5.86384 125.372L4.68384 108.212C4.63081 107.475 4.72393 106.734 4.95785 106.033C5.19178 105.332 5.5619 104.684 6.04695 104.127C6.532 103.569 7.12243 103.113 7.78432 102.785C8.4462 102.456 9.1665 102.261 9.90384 102.212L9.89384 102.182Z" fill="#263238"/>
<path opacity="0.6" d="M9.89384 102.182C9.15703 102.233 8.41725 102.139 7.71682 101.905C7.01638 101.671 6.36903 101.3 5.81178 100.815C5.25453 100.331 4.79831 99.7408 4.46921 99.0795C4.14012 98.4183 3.9446 97.6986 3.89384 96.9617L0.0138381 40.9617C-0.0906255 39.4753 0.399534 38.0082 1.37654 36.883C2.35355 35.7579 3.73741 35.0668 5.22384 34.9617L23.0438 33.7318C23.7809 33.6787 24.5212 33.7718 25.2222 34.0058C25.9232 34.2397 26.5711 34.6098 27.1286 35.0948C27.6862 35.5799 28.1424 36.1703 28.471 36.8322C28.7997 37.4941 28.9944 38.2144 29.0438 38.9518L32.9238 94.9518C32.9755 95.6886 32.8815 96.4283 32.647 97.1288C32.4126 97.8292 32.0424 98.4766 31.5576 99.0338C31.0728 99.5911 30.4829 100.047 29.8216 100.376C29.1604 100.705 28.4407 100.901 27.7038 100.952C28.4407 100.9 29.1804 100.994 29.8809 101.229C30.5813 101.463 31.2287 101.833 31.7859 102.318C32.3432 102.803 32.7994 103.393 33.1285 104.054C33.4576 104.715 33.6531 105.435 33.7038 106.172L34.8938 123.352C34.9455 124.089 34.8515 124.828 34.617 125.529C34.3826 126.229 34.0124 126.877 33.5276 127.434C33.0428 127.991 32.4529 128.447 31.7916 128.776C31.1304 129.105 30.4107 129.301 29.6738 129.352L11.8638 130.582C10.3774 130.686 8.91026 130.196 7.78511 129.219C6.65996 128.242 5.96888 126.858 5.86384 125.372L4.68384 108.212C4.63081 107.475 4.72393 106.734 4.95785 106.033C5.19178 105.332 5.5619 104.684 6.04695 104.127C6.532 103.569 7.12243 103.113 7.78432 102.785C8.4462 102.456 9.1665 102.261 9.90384 102.212L9.89384 102.182Z" fill="white"/>
<path d="M66.9338 6.96167H74.0038C75.2338 6.96167 76.2438 8.30167 76.2438 9.96167C76.2438 11.6217 75.2438 12.9617 74.0138 12.9617H66.9438C65.7138 12.9617 64.7138 11.6217 64.7038 9.96167C64.6938 8.30167 65.7038 6.96167 66.9338 6.96167Z" fill="#263238"/>
<path d="M71.7738 9.96167C71.7738 11.6317 72.7738 12.9617 74.0138 12.9617C75.2538 12.9617 76.2438 11.6117 76.2438 9.96167C76.2438 8.31167 75.2438 6.96167 74.0038 6.96167C72.7638 6.96167 71.7738 8.35167 71.7738 9.96167Z" fill="#4BADEF"/>
<path opacity="0.4" d="M71.7738 9.96167C71.7738 11.6317 72.7738 12.9617 74.0138 12.9617C75.2538 12.9617 76.2438 11.6117 76.2438 9.96167C76.2438 8.31167 75.2438 6.96167 74.0038 6.96167C72.7638 6.96167 71.7738 8.35167 71.7738 9.96167Z" fill="white"/>
<path d="M71.9138 9.96176C71.9138 11.2918 72.7138 12.3718 73.7038 12.3718C74.6938 12.3718 75.4838 11.2918 75.4838 9.96176C75.4838 8.63176 74.6738 7.55176 73.6938 7.55176C72.7138 7.55176 71.9038 8.63176 71.9138 9.96176Z" fill="#4BADEF"/>
<path opacity="0.5" d="M73.1638 8.75174C73.1638 9.14174 73.4038 9.46175 73.6938 9.46175C73.8575 9.43232 74.0037 9.34127 74.1023 9.20734C74.2009 9.0734 74.2444 8.90678 74.2238 8.74174C74.2238 8.35175 73.9838 8.03174 73.6938 8.03174C73.4038 8.03174 73.1638 8.35174 73.1638 8.75174Z" fill="white"/>
<path opacity="0.2" d="M73.1738 10.8318C73.1738 11.2318 73.4038 11.5418 73.6938 11.5418C73.9838 11.5418 74.2238 11.2218 74.2238 10.8318C74.2238 10.4418 73.9838 10.1218 73.6938 10.1218C73.4038 10.1218 73.1738 10.4418 73.1738 10.8318Z" fill="black"/>
<path d="M71.0639 43.3517H44.6839C44.335 42.281 43.7585 41.2985 42.9939 40.4717C40.3497 37.5876 38.6019 33.9962 37.9638 30.1358C37.3256 26.2754 37.8247 22.3126 39.4001 18.731C40.9756 15.1493 43.5592 12.1035 46.836 9.96509C50.1128 7.82664 53.941 6.68799 57.8539 6.68799C61.7667 6.68799 65.595 7.82664 68.8717 9.96509C72.1485 12.1035 74.7322 15.1493 76.3076 18.731C77.883 22.3126 78.3821 26.2754 77.744 30.1358C77.1058 33.9962 75.3581 37.5876 72.7139 40.4717C71.9579 41.298 71.3943 42.2816 71.0639 43.3517Z" fill="#4BADEF"/>
<path d="M54.3538 32.0518C53.8938 36.7418 53.1338 42.1918 49.9238 44.9118C50.6816 46.7165 51.9464 48.2627 53.5651 49.3631C55.1838 50.4636 57.0869 51.071 59.0438 51.1118C64.0438 51.2818 63.1438 47.2918 62.2438 45.1918C60.0238 42.8418 60.9538 40.1918 61.4238 38.2718L54.3538 32.0518Z" fill="#FFB573"/>
<path opacity="0.2" d="M55.8238 34.3517C55.8238 34.0517 55.8238 33.7517 55.9138 33.4617L61.4138 38.3117C60.9908 39.6011 60.8011 40.9557 60.8538 42.3117C58.1538 40.5617 55.6038 37.1517 55.8238 34.3517Z" fill="black"/>
<path d="M52.3539 25.2817C53.3539 31.4517 53.6439 35.1118 57.1039 38.0118C62.3039 42.3618 69.6739 38.8017 70.5239 32.4717C71.2939 26.7617 69.5239 17.6217 63.1739 15.7217C61.7885 15.2922 60.3158 15.2266 58.8977 15.5311C57.4796 15.8356 56.1637 16.5 55.0767 17.4604C53.9898 18.4208 53.1683 19.6448 52.6914 21.0146C52.2146 22.3845 52.0983 23.854 52.3539 25.2817Z" fill="#FFB573"/>
<path d="M50.8838 31.7716C51.7714 33.0752 53.1365 33.9769 54.6838 34.2816C56.7338 34.6716 57.5638 32.8016 56.8338 30.9616C56.1738 29.3116 54.3138 27.1116 52.3338 27.5516C51.9036 27.6591 51.5071 27.8724 51.1804 28.1722C50.8537 28.4719 50.607 28.8486 50.463 29.2679C50.3189 29.6873 50.2819 30.136 50.3554 30.5732C50.4289 31.0105 50.6105 31.4224 50.8838 31.7716Z" fill="#FF8B7B"/>
<path d="M62.2738 26.3516C62.3238 26.8516 62.6338 27.2416 62.9638 27.2016C63.2938 27.1616 63.5138 26.7416 63.4638 26.2016C63.4138 25.6616 63.1038 25.3116 62.7738 25.3416C62.4438 25.3716 62.2738 25.8316 62.2738 26.3516Z" fill="#263238"/>
<path d="M68.6338 25.9417C68.6338 26.4517 68.9938 26.8317 69.3238 26.8017C69.6538 26.7717 69.8738 26.3417 69.8238 25.8017C69.7738 25.2617 69.4638 24.9117 69.1338 24.9417C68.8038 24.9717 68.5738 25.4417 68.6338 25.9417Z" fill="#263238"/>
<path d="M66.8138 26.6218C67.6617 28.065 68.7049 29.3842 69.9138 30.5418C69.6113 30.8408 69.2465 31.0693 68.8455 31.2111C68.4444 31.3528 68.0171 31.4043 67.5939 31.3618L66.8138 26.6218Z" fill="#ED893E"/>
<path d="M61.0439 23.5017C60.9922 23.485 60.9445 23.4578 60.9039 23.4217C60.8489 23.3656 60.8181 23.2902 60.8181 23.2117C60.8181 23.1331 60.8489 23.0577 60.9039 23.0017C61.2133 22.6428 61.6051 22.3644 62.0458 22.1902C62.4864 22.0161 62.9627 21.9514 63.4339 22.0017C63.5108 22.0163 63.5793 22.0595 63.6257 22.1226C63.672 22.1856 63.6928 22.2639 63.6839 22.3417C63.6791 22.3809 63.6663 22.4187 63.6463 22.4528C63.6264 22.4869 63.5997 22.5166 63.5678 22.54C63.536 22.5635 63.4997 22.5801 63.4612 22.589C63.4227 22.5979 63.3828 22.5988 63.3439 22.5917C62.9707 22.5542 62.5941 22.6074 62.2459 22.7467C61.8977 22.886 61.5883 23.1072 61.3439 23.3917C61.3093 23.4364 61.2628 23.4705 61.2097 23.4899C61.1567 23.5094 61.0992 23.5135 61.0439 23.5017Z" fill="#263238"/>
<path d="M70.4139 22.9717C70.365 22.9828 70.3142 22.9823 70.2655 22.9701C70.2169 22.9579 70.1718 22.9345 70.1339 22.9017C69.8618 22.6431 69.5326 22.4522 69.1729 22.3444C68.8133 22.2367 68.4334 22.2152 68.0639 22.2817C68.0264 22.2922 67.9873 22.2951 67.9487 22.2902C67.9101 22.2852 67.873 22.2726 67.8394 22.253C67.8058 22.2334 67.7765 22.2073 67.7532 22.1761C67.7299 22.145 67.7131 22.1095 67.7039 22.0717C67.6932 22.035 67.6899 21.9965 67.6942 21.9584C67.6985 21.9204 67.7103 21.8835 67.7289 21.8501C67.7475 21.8166 67.7725 21.7871 67.8025 21.7634C67.8326 21.7397 67.867 21.7221 67.9039 21.7117C68.3695 21.6181 68.8508 21.6363 69.308 21.765C69.7652 21.8936 70.1854 22.129 70.5339 22.4517C70.5895 22.5095 70.6206 22.5866 70.6206 22.6667C70.6206 22.7469 70.5895 22.824 70.5339 22.8817C70.4996 22.9187 70.459 22.9492 70.4139 22.9717Z" fill="#263238"/>
<path d="M67.9638 32.3517C66.3242 32.1962 64.6735 32.1962 63.0338 32.3517C63.3059 32.9739 63.7761 33.4887 64.3711 33.8161C64.9661 34.1434 65.6526 34.2649 66.3238 34.1617C66.5562 34.1696 66.7874 34.1267 67.0015 34.0361C67.2156 33.9454 67.4074 33.8092 67.5635 33.637C67.7196 33.4647 67.8362 33.2605 67.9054 33.0385C67.9745 32.8165 67.9945 32.5822 67.9638 32.3517Z" fill="#263238"/>
<path d="M65.3738 33.3518C66.0908 33.2713 66.8149 33.4182 67.4438 33.7718C67.1262 34.0275 66.7315 34.1685 66.3238 34.1718C65.6067 34.2558 64.8815 34.1087 64.2538 33.7518C64.5736 33.5002 64.9669 33.3597 65.3738 33.3518Z" fill="#FF5652"/>
<path d="M67.8038 32.3517C67.7238 32.5917 67.6539 32.8317 67.2939 32.9317C66.2199 32.9948 65.1426 32.9647 64.0739 32.8417C63.898 32.8394 63.7255 32.7934 63.5719 32.7079C63.4183 32.6224 63.2884 32.5 63.1938 32.3517C64.7281 32.2291 66.2696 32.2291 67.8038 32.3517Z" fill="white"/>
<path d="M68.8838 17.1918C69.0009 17.4177 69.0533 17.6715 69.0352 17.9253C69.0171 18.179 68.9293 18.4228 68.7813 18.6298C68.6333 18.8367 68.431 18.9987 68.1968 19.0979C67.9625 19.1971 67.7054 19.2296 67.4538 19.1918C64.4538 18.7818 58.8938 18.4818 58.3338 21.6718C57.5738 26.0718 61.3338 35.0618 54.8738 35.2318C51.8738 35.3118 50.1538 32.3818 49.1638 28.5118C48.0138 23.9618 48.2238 18.1518 53.6238 14.8218C59.0238 11.4918 66.8338 13.2818 68.8838 17.1918Z" fill="#263238"/>
<path d="M61.2139 40.3518C61.2139 40.3518 57.6939 40.1418 53.3239 36.3518C53.3239 36.3518 52.1639 42.9018 49.2439 44.4518C49.2439 44.4518 52.3239 52.9918 60.0139 51.6918C67.7039 50.3918 62.4839 44.6018 62.4839 44.6018C61.9165 44.0681 61.5002 43.394 61.2772 42.6477C61.0541 41.9013 61.0323 41.1093 61.2139 40.3518Z" fill="#263238"/>
<path opacity="0.5" d="M61.2139 40.3518C61.2139 40.3518 57.6939 40.1418 53.3239 36.3518C53.3239 36.3518 52.1639 42.9018 49.2439 44.4518C49.2439 44.4518 52.3239 52.9918 60.0139 51.6918C67.7039 50.3918 62.4839 44.6018 62.4839 44.6018C61.9165 44.0681 61.5002 43.394 61.2772 42.6477C61.0541 41.9013 61.0323 41.1093 61.2139 40.3518Z" fill="white"/>
<path d="M61.2738 41.0517C58.2738 40.8317 55.2738 38.7917 53.0538 36.9017C52.4038 36.3517 53.1538 35.2617 53.8038 35.8117C55.8638 37.5617 58.5538 39.5217 61.3738 39.7317C61.5489 39.745 61.7115 39.8272 61.8259 39.9604C61.9403 40.0936 61.9971 40.2667 61.9838 40.4417C61.9706 40.6168 61.8883 40.7794 61.7551 40.8938C61.622 41.0082 61.4489 41.065 61.2738 41.0517Z" fill="#4BADEF"/>
<g opacity="0.3">
<path d="M61.2738 41.0517C58.2738 40.8317 55.2738 38.7917 53.0538 36.9017C52.4038 36.3517 53.1538 35.2617 53.8038 35.8117C55.8638 37.5617 58.5538 39.5217 61.3738 39.7317C61.5489 39.745 61.7115 39.8272 61.8259 39.9604C61.9403 40.0936 61.9971 40.2667 61.9838 40.4417C61.9706 40.6168 61.8883 40.7794 61.7551 40.8938C61.622 41.0082 61.4489 41.065 61.2738 41.0517Z" fill="white"/>
</g>
<path d="M49.5238 27.8018C49.8138 30.5418 50.6938 31.5518 53.0538 31.3018C55.4138 31.0518 56.0538 29.8918 55.7938 27.1518C55.5338 24.4118 54.6238 23.4018 52.2638 23.6418C49.9038 23.8818 49.2738 25.0518 49.5238 27.8018Z" fill="#263238"/>
<path opacity="0.5" d="M49.5238 27.8018C49.8138 30.5418 50.6938 31.5518 53.0538 31.3018C55.4138 31.0518 56.0538 29.8918 55.7938 27.1518C55.5338 24.4118 54.6238 23.4018 52.2638 23.6418C49.9038 23.8818 49.2738 25.0518 49.5238 27.8018Z" fill="white"/>
<path d="M28.8138 137.242L25.0238 128.362L19.0238 129.292L18.0138 138.902L28.8138 137.242Z" fill="#263238"/>
<path opacity="0.6" d="M26.1239 130.932L25.0239 128.362L19.0239 129.292L18.7339 132.102L26.1239 130.932Z" fill="black"/>
<path d="M47.7039 102.052C48.39 104.925 48.8514 107.847 49.0839 110.792C49.6839 117.132 50.3239 126.432 57.2439 132.562C70.3439 144.182 105.674 140.112 112.844 148.242C120.014 156.372 111.844 194.672 111.844 194.672L130.274 198.522C130.274 198.522 144.704 154.942 135.374 138.712C125.234 121.102 82.3739 114.222 78.8839 106.632C76.8207 102.2 75.5838 97.4281 75.2339 92.5518L47.7039 102.052Z" fill="#4BADEF"/>
<path opacity="0.7" d="M47.7039 102.052C48.39 104.925 48.8514 107.847 49.0839 110.792C49.6839 117.132 50.3239 126.432 57.2439 132.562C70.3439 144.182 105.674 140.112 112.844 148.242C120.014 156.372 111.844 194.672 111.844 194.672L130.274 198.522C130.274 198.522 144.704 154.942 135.374 138.712C125.234 121.102 82.3739 114.222 78.8839 106.632C76.8207 102.2 75.5838 97.4281 75.2339 92.5518L47.7039 102.052Z" fill="white"/>
<path d="M113.144 184.072L106.074 227.072L106.804 227.152L108.604 226.342L110.184 227.532L111.994 226.732L113.574 227.912L115.384 227.112L116.964 228.292L118.764 227.492L120.344 228.682L122.154 227.872L123.734 229.062L125.544 228.252L127.124 229.442L128.924 228.642L130.504 229.822L131.504 229.932C131.504 229.932 136.144 223.142 123.924 220.062L133.924 189.122C133.924 189.122 121.554 188.122 113.144 184.072Z" fill="#4BADEF"/>
<path opacity="0.5" d="M113.144 184.072L106.074 227.072L106.804 227.152L108.604 226.342L110.184 227.532L111.994 226.732L113.574 227.912L115.384 227.112L116.964 228.292L118.764 227.492L120.344 228.682L122.154 227.872L123.734 229.062L125.544 228.252L127.124 229.442L128.924 228.642L130.504 229.822L131.504 229.932C131.504 229.932 136.144 223.142 123.924 220.062L133.924 189.122C133.924 189.122 121.554 188.122 113.144 184.072Z" fill="white"/>
<path d="M106.804 227.142L106.074 227.062L107.214 220.142L110.364 224.552L124.264 226.112L127.694 221.352C135.004 224.712 131.454 229.922 131.454 229.922L130.454 229.812L128.874 228.632L127.074 229.432L125.494 228.242L123.684 229.052L122.104 227.862L120.294 228.672L118.714 227.482L116.914 228.282L115.334 227.102L113.524 227.902L111.944 226.722L110.134 227.522L108.604 226.352L106.804 227.142Z" fill="#263238"/>
<path d="M133.764 190.172C126.524 189.676 119.422 187.948 112.764 185.062C111.524 184.492 112.314 182.512 113.564 183.062C120.048 185.886 126.968 187.577 134.024 188.062C134.288 188.113 134.524 188.262 134.683 188.479C134.843 188.696 134.915 188.965 134.885 189.233C134.854 189.501 134.724 189.747 134.52 189.923C134.316 190.099 134.053 190.191 133.784 190.182L133.764 190.172Z" fill="#4BADEF"/>
<g opacity="0.3">
<path d="M133.764 190.172C126.524 189.676 119.422 187.948 112.764 185.062C111.524 184.492 112.314 182.512 113.564 183.062C120.048 185.886 126.968 187.577 134.024 188.062C134.288 188.113 134.524 188.262 134.683 188.479C134.843 188.696 134.915 188.965 134.885 189.233C134.854 189.501 134.724 189.747 134.52 189.923C134.316 190.099 134.053 190.191 133.784 190.182L133.764 190.172Z" fill="white"/>
</g>
<path opacity="0.2" d="M65.9238 115.792L60.3738 116.212L57.5538 124.352C54.7238 132.482 63.8138 132.552 63.8138 132.552L68.5638 138.262C76.5038 140.622 86.1238 141.542 94.4838 142.652C90.2738 131.962 65.9238 115.792 65.9238 115.792Z" fill="black"/>
<path d="M41.4839 99.4016C40.9049 102.299 40.1025 105.148 39.0839 107.922C36.9839 113.922 36.8039 123.092 40.5239 131.542C47.5239 147.542 76.2339 160.812 78.4039 169.132C80.5739 177.452 62.0139 210.952 62.0139 210.952L76.5639 221.522C76.5639 221.522 106.134 178.452 102.464 161.932C98.3239 143.322 69.5139 127.272 69.5339 118.932C69.5539 110.592 68.9639 100.592 68.9639 100.592L41.4839 99.4016Z" fill="#4BADEF"/>
<path opacity="0.7" d="M41.4839 99.4016C40.9049 102.299 40.1025 105.148 39.0839 107.922C36.9839 113.922 36.8039 123.092 40.5239 131.542C47.5239 147.542 76.2339 160.812 78.4039 169.132C80.5739 177.452 62.0139 210.952 62.0139 210.952L76.5639 221.522C76.5639 221.522 106.134 178.452 102.464 161.932C98.3239 143.322 69.5139 127.272 69.5339 118.932C69.5539 110.592 68.9639 100.592 68.9639 100.592L41.4839 99.4016Z" fill="white"/>
<path d="M67.5739 198.672L46.8639 236.992L47.5239 237.312L49.5239 237.142L50.6339 238.782L52.6339 238.602L53.7339 240.242L55.7339 240.072L56.8439 241.712L58.8439 241.532L59.9539 243.172L61.9539 243.002L63.0539 244.642L65.0539 244.472L66.1639 246.102L68.1639 245.932L69.2739 247.572L70.1339 247.982C70.1339 247.982 76.7339 243.072 66.1339 236.182L85.6939 210.182C85.6939 210.182 74.1939 205.242 67.5739 198.672Z" fill="#4BADEF"/>
<path opacity="0.5" d="M67.5739 198.672L46.8639 236.992L47.5239 237.312L49.5239 237.142L50.6339 238.782L52.6339 238.602L53.7339 240.242L55.7339 240.072L56.8439 241.712L58.8439 241.532L59.9539 243.172L61.9539 243.002L63.0539 244.642L65.0539 244.472L66.1639 246.102L68.1639 245.932L69.2739 247.572L70.1339 247.982C70.1339 247.982 76.7339 243.072 66.1339 236.182L85.6939 210.182C85.6939 210.182 74.1939 205.242 67.5739 198.672Z" fill="white"/>
<path d="M47.5239 237.352L46.8639 237.032L50.1939 230.872L51.7339 236.062L64.3639 242.062L69.1639 238.682C74.9839 244.242 69.9239 248.002 69.9239 248.002L69.0639 247.592L67.9539 245.952L65.9539 246.122L64.8439 244.492L62.8439 244.662L61.7439 243.022L59.7439 243.192L58.6339 241.552L56.6339 241.732L55.5239 240.092L53.5239 240.262L52.4239 238.622L50.4239 238.802L49.3139 237.162L47.5239 237.352Z" fill="#263238"/>
<path d="M85.0738 211.162C78.3859 208.329 72.2308 204.376 66.8738 199.472C65.8738 198.532 67.2738 196.912 68.2638 197.862C73.484 202.633 79.4801 206.478 85.9938 209.232C87.2438 209.792 86.3238 211.722 85.0738 211.162Z" fill="#4BADEF"/>
<g opacity="0.3">
<path d="M85.0738 211.162C78.3859 208.329 72.2308 204.376 66.8738 199.472C65.8738 198.532 67.2738 196.912 68.2638 197.862C73.484 202.633 79.4801 206.478 85.9938 209.232C87.2438 209.792 86.3238 211.722 85.0738 211.162Z" fill="white"/>
</g>
<path d="M93.2739 66.2218C89.2139 59.8118 79.4839 39.5918 71.9839 44.6218C64.4839 49.6518 80.0439 73.0218 87.5739 79.8418C92.7639 84.5518 105.984 88.9318 113.664 91.1918C114.368 91.4032 115.111 91.4566 115.839 91.3481C116.566 91.2396 117.261 90.9718 117.873 90.564C118.485 90.1562 119 89.6183 119.38 88.9888C119.761 88.3592 119.998 87.6535 120.074 86.9218L120.294 84.8218C120.427 83.6302 120.128 82.4304 119.451 81.441C118.773 80.4516 117.763 79.7385 116.604 79.4318C110.184 77.7418 98.0339 73.6918 93.2739 66.2218Z" fill="#4BADEF"/>
<path opacity="0.8" d="M93.2739 66.2218C89.2139 59.8118 79.4839 39.5918 71.9839 44.6218C64.4839 49.6518 80.0439 73.0218 87.5739 79.8418C92.7639 84.5518 105.984 88.9318 113.664 91.1918C114.368 91.4032 115.111 91.4566 115.839 91.3481C116.566 91.2396 117.261 90.9718 117.873 90.564C118.485 90.1562 119 89.6183 119.38 88.9888C119.761 88.3592 119.998 87.6535 120.074 86.9218L120.294 84.8218C120.427 83.6302 120.128 82.4304 119.451 81.441C118.773 80.4516 117.763 79.7385 116.604 79.4318C110.184 77.7418 98.0339 73.6918 93.2739 66.2218Z" fill="white"/>
<path d="M92.1639 65.2417C87.8939 65.9917 83.6639 68.4117 81.6339 72.3117C80.7839 73.9317 78.4439 72.3117 79.2839 70.7117C81.6239 66.2117 86.6839 63.3117 91.5939 62.4517C93.4039 62.1417 93.9739 64.9317 92.1639 65.2417Z" fill="#4BADEF"/>
<path d="M102.694 74.7218C103.004 74.3918 102.304 75.2218 102.184 75.3618C101.643 76.0642 101.145 76.7989 100.694 77.5618C99.256 79.9187 98.4246 82.5951 98.2738 85.3518C98.2513 85.7284 98.08 86.0807 97.7978 86.331C97.5156 86.5814 97.1454 86.7094 96.7688 86.6868C96.3922 86.6643 96.04 86.4931 95.7896 86.2108C95.5393 85.9286 95.4113 85.5584 95.4338 85.1818C95.7502 80.4963 97.6551 76.0587 100.834 72.6018C102.064 71.2518 103.914 73.4118 102.694 74.7518V74.7218Z" fill="#4BADEF"/>
<g opacity="0.3">
<path d="M92.1639 65.2417C87.8939 65.9917 83.6639 68.4117 81.6339 72.3117C80.7839 73.9317 78.4439 72.3117 79.2839 70.7117C81.6239 66.2117 86.6839 63.3117 91.5939 62.4517C93.4039 62.1417 93.9739 64.9317 92.1639 65.2417Z" fill="white"/>
</g>
<g opacity="0.3">
<path d="M102.694 74.7218C103.004 74.3918 102.304 75.2218 102.184 75.3618C101.643 76.0642 101.145 76.7989 100.694 77.5618C99.256 79.9187 98.4246 82.5951 98.2738 85.3518C98.2513 85.7284 98.08 86.0807 97.7978 86.331C97.5156 86.5814 97.1454 86.7094 96.7688 86.6868C96.3922 86.6643 96.04 86.4931 95.7896 86.2108C95.5393 85.9286 95.4113 85.5584 95.4338 85.1818C95.7502 80.4963 97.6551 76.0587 100.834 72.6018C102.064 71.2518 103.914 73.4118 102.694 74.7518V74.7218Z" fill="white"/>
</g>
<path opacity="0.2" d="M70.4138 52.2018L73.7538 46.5818L75.9938 47.3418C75.9938 47.3418 85.9938 61.0918 77.4038 67.0618C74.1738 62.0318 71.4038 56.5818 70.4138 52.2018Z" fill="black"/>
<path d="M130.614 82.7918C131.534 83.7218 131.754 86.5818 131.814 87.8818C132.084 93.3818 124.244 91.2018 124.244 91.2018L120.534 91.5018C119.876 91.5125 119.235 91.2892 118.726 90.8717C118.217 90.4542 117.872 89.8695 117.754 89.2218L116.894 85.6718C116.668 84.9516 116.734 84.1718 117.076 83.4991C117.418 82.8264 118.009 82.3142 118.724 82.0718L121.874 81.2818C122.793 81.0519 123.755 81.0519 124.674 81.2818C124.674 81.2818 129.544 81.6918 130.614 82.7918Z" fill="#4BADEF"/>
<path opacity="0.3" d="M130.614 82.7918C131.534 83.7218 131.754 86.5818 131.814 87.8818C132.084 93.3818 124.244 91.2018 124.244 91.2018L120.534 91.5018C119.876 91.5125 119.235 91.2892 118.726 90.8717C118.217 90.4542 117.872 89.8695 117.754 89.2218L116.894 85.6718C116.668 84.9516 116.734 84.1718 117.076 83.4991C117.418 82.8264 118.009 82.3142 118.724 82.0718L121.874 81.2818C122.793 81.0519 123.755 81.0519 124.674 81.2818C124.674 81.2818 129.544 81.6918 130.614 82.7918Z" fill="white"/>
<path d="M70.9039 44.1018C64.0039 41.8018 53.1639 39.8718 41.6639 44.4018C39.6968 45.1993 38.0025 46.5489 36.7853 48.2878C35.568 50.0267 34.8799 52.0806 34.8039 54.2018C34.4039 64.8318 34.2439 87.0418 38.2439 110.202C38.2439 110.202 64.8639 113.822 81.7539 107.202C81.7539 107.202 85.8439 92.5418 78.3339 75.0718L78.4239 54.6418C78.446 52.3155 77.7301 50.042 76.3789 48.1482C75.0277 46.2544 73.1109 44.8377 70.9039 44.1018Z" fill="#4BADEF"/>
<path d="M42.0238 44.2717C53.3838 39.9217 64.0738 41.8217 70.9038 44.1017C71.2436 44.2069 71.5774 44.3304 71.9038 44.4717C75.2838 47.8017 77.2838 52.9617 78.4638 57.4717L78.3838 75.0317C85.8938 92.5017 81.8038 107.162 81.8038 107.162C64.9138 113.792 38.2938 110.162 38.2938 110.162C36.2275 97.8119 35.0479 85.33 34.7638 72.8117C53.2738 52.0717 46.5438 46.0117 42.0238 44.2717Z" fill="#4BADEF"/>
<path opacity="0.7" d="M42.0238 44.2717C53.3838 39.9217 64.0738 41.8217 70.9038 44.1017C71.2436 44.2069 71.5774 44.3304 71.9038 44.4717C75.2838 47.8017 77.2838 52.9617 78.4638 57.4717L78.3838 75.0317C85.8938 92.5017 81.8038 107.162 81.8038 107.162C64.9138 113.792 38.2938 110.162 38.2938 110.162C36.2275 97.8119 35.0479 85.33 34.7638 72.8117C53.2738 52.0717 46.5438 46.0117 42.0238 44.2717Z" fill="white"/>
<path opacity="0.2" d="M77.6838 98.3517L73.9738 97.9817C73.9738 97.9817 70.7638 96.4317 68.3838 96.9817C68.0344 95.9037 67.3293 94.9764 66.3838 94.3517L65.8438 93.9917C65.8563 93.9172 65.8469 93.8407 65.8167 93.7714C65.7865 93.7022 65.7369 93.6432 65.6738 93.6017L63.5338 92.1517C63.3964 92.0663 63.235 92.0278 63.0738 92.0417C60.2093 89.9446 57.5326 87.6024 55.0738 85.0417C56.0738 83.9817 55.0738 81.9216 53.6138 82.7216L53.2338 82.9517C51.0445 80.4454 49.4391 77.484 48.5338 74.2816C48.4338 73.8916 48.3438 73.4517 48.2438 72.9817C48.561 72.8984 48.8403 72.7094 49.0355 72.4459C49.2307 72.1824 49.3301 71.8602 49.3172 71.5325C49.3044 71.2048 49.1801 70.8913 48.9649 70.6439C48.7497 70.3964 48.4566 70.2298 48.1338 70.1717L47.6538 70.1017C46.9838 66.6917 46.1438 62.4117 44.9838 58.4517C43.1638 62.2217 39.9838 66.9317 34.6738 72.8417C34.6738 74.0717 34.7438 75.3416 34.8038 76.6416C34.9103 76.6292 35.0146 76.6023 35.1138 76.5617C36.0695 79.5871 37.284 82.5247 38.7438 85.3417C40.3811 87.9574 42.3773 90.3305 44.6738 92.3916C44.6038 92.5616 44.5138 92.7217 44.4438 92.8817C44.3323 93.1905 44.3296 93.5282 44.4363 93.8387C44.543 94.1493 44.7526 94.414 45.0304 94.5891C45.3082 94.7642 45.6375 94.8391 45.9637 94.8014C46.2898 94.7636 46.5933 94.6155 46.8238 94.3817C48.9938 96.3017 51.3238 98.1817 53.5638 99.9117C53.4138 100.264 53.3938 100.659 53.5073 101.025C53.6208 101.391 53.8605 101.706 54.1838 101.912L59.9738 105.622C60.2864 105.812 60.6543 105.891 61.0174 105.846C61.3806 105.8 61.7177 105.633 61.9738 105.372C62.6524 105.468 63.3434 105.423 64.0039 105.241C64.6645 105.058 65.2806 104.742 65.8138 104.312C65.869 104.598 65.9739 104.872 66.1238 105.122C66.9838 106.392 71.7038 107.662 71.7038 107.662C72.5658 108.051 73.5101 108.222 74.4538 108.162L77.6938 107.942C78.4385 107.832 79.1111 107.437 79.5687 106.839C80.0262 106.242 80.2325 105.489 80.1438 104.742L79.9238 101.082C79.9284 100.437 79.7068 99.8102 79.2976 99.3115C78.8884 98.8128 78.3174 98.4732 77.6838 98.3517Z" fill="black"/>
<path d="M55.1639 67.6617C54.2714 67.7227 53.3913 67.4267 52.7171 66.8388C52.0429 66.2508 51.6299 65.4192 51.5689 64.5267C51.5079 63.6343 51.8039 62.7541 52.3918 62.0799C52.9798 61.4057 53.8114 60.9927 54.7039 60.9317L55.7039 60.8617C56.1458 60.8309 56.5894 60.8873 57.0095 61.0279C57.4296 61.1685 57.8179 61.3905 58.1521 61.6811C58.4864 61.9718 58.7602 62.3254 58.9578 62.7219C59.1554 63.1183 59.273 63.5498 59.3039 63.9917C59.3348 64.4336 59.2783 64.8773 59.1377 65.2973C58.9971 65.7174 58.7751 66.1057 58.4845 66.44C58.1938 66.7742 57.8402 67.048 57.4437 67.2456C57.0473 67.4433 56.6158 67.5609 56.1739 67.5917L55.1639 67.6617Z" fill="#263238"/>
<path opacity="0.5" d="M52.6139 64.4617C52.6609 65.1263 52.9039 65.762 53.3121 66.2886C53.7203 66.8151 54.2755 67.2089 54.9074 67.42C55.5393 67.6312 56.2196 67.6503 56.8624 67.475C57.5051 67.2996 58.0815 66.9377 58.5187 66.4349C58.9558 65.9321 59.2341 65.311 59.3184 64.6501C59.4027 63.9893 59.2892 63.3182 58.9923 62.7218C58.6953 62.1254 58.2282 61.6303 57.6501 61.2993C57.0719 60.9682 56.4086 60.8159 55.7439 60.8617C55.3018 60.8922 54.8701 61.0095 54.4735 61.207C54.0768 61.4045 53.723 61.6782 53.4323 62.0126C53.1416 62.347 52.9196 62.7354 52.7792 63.1557C52.6388 63.5759 52.5826 64.0197 52.6139 64.4617Z" fill="white"/>
<path d="M54.3939 64.3518C54.4144 64.6657 54.5275 64.9665 54.7191 65.2161C54.9106 65.4657 55.1718 65.6529 55.4697 65.7539C55.7677 65.855 56.0889 65.8654 56.3927 65.7838C56.6966 65.7023 56.9694 65.5324 57.1767 65.2957C57.3839 65.059 57.5163 64.7662 57.5571 64.4543C57.5979 64.1423 57.5452 63.8253 57.4057 63.5433C57.2662 63.2613 57.0462 63.027 56.7735 62.8701C56.5009 62.7132 56.1878 62.6407 55.8739 62.6618C55.4537 62.69 55.0618 62.8838 54.7843 63.2007C54.5069 63.5175 54.3664 63.9315 54.3939 64.3518Z" fill="#4BADEF"/>
<path opacity="0.5" d="M51.9639 55.0518C52.0109 55.7164 52.2539 56.3521 52.6621 56.8787C53.0703 57.4052 53.6254 57.7989 54.2574 58.0101C54.8893 58.2213 55.5696 58.2404 56.2123 58.0651C56.8551 57.8897 57.4315 57.5278 57.8686 57.025C58.3058 56.5222 58.5841 55.9011 58.6684 55.2402C58.7527 54.5793 58.6392 53.9083 58.3422 53.3119C58.0453 52.7154 57.5782 52.2204 57 51.8893C56.4219 51.5583 55.7585 51.406 55.0939 51.4518C54.6518 51.4823 54.2201 51.5996 53.8235 51.7971C53.4268 51.9945 53.073 52.2683 52.7823 52.6027C52.4915 52.9371 52.2696 53.3255 52.1292 53.7458C51.9887 54.166 51.9326 54.6098 51.9639 55.0518Z" fill="white"/>
<path d="M54.5139 58.2618C53.6372 58.2941 52.7824 57.9843 52.1299 57.3979C51.4775 56.8115 51.0786 55.9943 51.0176 55.1192C50.9566 54.2441 51.2382 53.3795 51.8029 52.7082C52.3676 52.0369 53.1712 51.6115 54.0439 51.5218L55.0439 51.4518C55.9363 51.3895 56.817 51.6842 57.4921 52.2712C58.1673 52.8582 58.5815 53.6893 58.6439 54.5818C58.7062 55.4742 58.4115 56.3549 57.8245 57.03C57.2375 57.7052 56.4063 58.1195 55.5139 58.1818L54.5139 58.2618Z" fill="#263238"/>
<path d="M53.1638 54.9717C53.1948 55.4002 53.3521 55.8098 53.616 56.1487C53.8799 56.4876 54.2384 56.7406 54.6462 56.8756C55.054 57.0106 55.4926 57.0215 55.9066 56.907C56.3206 56.7925 56.6913 56.5577 56.9718 56.2324C57.2523 55.9071 57.4298 55.5058 57.4821 55.0795C57.5343 54.6531 57.4589 54.2209 57.2653 53.8374C57.0717 53.454 56.7686 53.1367 56.3946 52.9256C56.0205 52.7145 55.5921 52.6192 55.1638 52.6517C54.5914 52.6952 54.0595 52.9638 53.6846 53.3986C53.3098 53.8335 53.1225 54.3991 53.1638 54.9717Z" fill="#4BADEF"/>
<path d="M38.8939 108.762C52.7639 110.612 68.4239 110.762 81.6439 105.762C83.3639 105.122 84.3039 107.762 82.5939 108.452C68.8539 113.582 52.7239 113.452 38.3239 111.512C36.5139 111.272 37.0839 108.512 38.8939 108.722V108.762Z" fill="#4BADEF"/>
<g opacity="0.3">
<path d="M38.8939 108.762C52.7639 110.612 68.4239 110.762 81.6439 105.762C83.3639 105.122 84.3039 107.762 82.5939 108.452C68.8539 113.582 52.7239 113.452 38.3239 111.512C36.5139 111.272 37.0839 108.512 38.8939 108.722V108.762Z" fill="white"/>
</g>
<path d="M72.6339 83.7018C77.9032 88.0711 82.6995 92.9813 86.9439 98.3518C88.4239 100.352 90.8539 103.482 89.9439 106.162C88.8639 109.522 84.2539 108.772 81.6339 108.302C81.4507 108.266 81.2764 108.194 81.121 108.09C80.9655 107.987 80.832 107.854 80.728 107.699C80.624 107.544 80.5516 107.37 80.5148 107.187C80.4781 107.003 80.4778 106.815 80.5139 106.632C80.55 106.449 80.6218 106.274 80.7253 106.119C80.8288 105.963 80.9618 105.83 81.1169 105.726C81.272 105.622 81.446 105.549 81.6291 105.513C81.8122 105.476 82.0007 105.476 82.1839 105.512C84.3139 105.892 88.0539 106.832 86.8639 103.652C85.7839 100.782 83.2139 98.1618 81.1839 95.9418C77.8936 92.3615 74.3977 88.9757 70.7139 85.8018C69.3239 84.6118 71.2039 82.4718 72.5939 83.6718L72.6339 83.7018Z" fill="#4BADEF"/>
<g opacity="0.3">
<path d="M79.8438 90.3518C79.4259 91.2523 78.6881 91.9651 77.7738 92.3518C76.6338 91.2052 75.4671 90.0785 74.2738 88.9718C75.1601 88.5199 75.8656 87.7791 76.2738 86.8718C77.4738 88.0185 78.6638 89.1785 79.8438 90.3518Z" fill="black"/>
<path d="M83.2738 93.9119C84.2938 95.0385 85.2738 96.2052 86.2138 97.4119C85.7783 98.2537 85.0379 98.8975 84.1438 99.2119C83.1438 98.0619 82.1438 96.9719 81.2538 95.9719L81.1238 95.8419C81.9799 95.3732 82.7157 94.7126 83.2738 93.9119Z" fill="black"/>
<path d="M89.9838 106.192C89.9256 106.382 89.8485 106.567 89.7538 106.742C88.6575 106.591 87.5953 106.253 86.6138 105.742C87.1238 105.442 87.3238 104.842 86.9038 103.742C86.9038 103.632 86.8038 103.532 86.7638 103.422C87.2701 103.378 87.7582 103.212 88.1866 102.939C88.6149 102.665 88.9708 102.293 89.2238 101.852C90.0371 103.143 90.3101 104.701 89.9838 106.192Z" fill="black"/>
<path d="M82.6338 108.492L81.6338 108.332C81.2638 108.259 80.938 108.042 80.7279 107.729C80.5179 107.416 80.4409 107.032 80.5138 106.662C80.5867 106.292 80.8036 105.966 81.1168 105.756C81.43 105.546 81.8138 105.469 82.1838 105.542L82.6538 105.632C82.3067 106.552 82.2996 107.566 82.6338 108.492Z" fill="black"/>
</g>
<path d="M55.9938 75.2117L55.8138 72.7117C55.792 72.3972 55.8325 72.0815 55.9328 71.7825C56.0331 71.4836 56.1913 71.2074 56.3984 70.9697C56.6055 70.732 56.8574 70.5374 57.1397 70.397C57.422 70.2567 57.7292 70.1733 58.0438 70.1517L64.9438 69.6717C65.2583 69.65 65.5741 69.6904 65.873 69.7907C66.1719 69.891 66.4481 70.0492 66.6858 70.2563C66.9236 70.4634 67.1182 70.7153 67.2585 70.9977C67.3989 71.28 67.4822 71.5872 67.5038 71.9017L67.6738 74.4117L68.9838 74.3117C69.2983 74.29 69.6141 74.3304 69.913 74.4307C70.2119 74.531 70.4881 74.6892 70.7258 74.8963C70.9636 75.1034 71.1582 75.3553 71.2985 75.6377C71.4389 75.92 71.5222 76.2272 71.5438 76.5417L72.1238 84.9817C72.176 85.7454 71.9231 86.4985 71.4207 87.0759C70.9183 87.6534 70.2073 88.0079 69.4438 88.0617L56.1238 88.9917C55.3581 89.0413 54.6039 88.7864 54.0252 88.2826C53.4465 87.7789 53.0902 87.0669 53.0338 86.3017L52.4538 77.8617C52.4126 77.2282 52.6242 76.6041 53.0421 76.1261C53.4601 75.6482 54.0504 75.3554 54.6838 75.3117L55.9938 75.2117Z" fill="#263238"/>
<path d="M59.5439 74.9718L59.3639 72.4618C59.3227 71.8282 59.5343 71.2042 59.9522 70.7262C60.3702 70.2483 60.9605 69.9554 61.5939 69.9118L68.4939 69.4318C69.1275 69.3878 69.7527 69.5967 70.2326 70.0128C70.7124 70.429 71.0078 71.0183 71.0539 71.6518L71.2339 74.1618L72.5339 74.0718C72.8479 74.0487 73.1634 74.0878 73.4623 74.187C73.7611 74.2862 74.0374 74.4434 74.2753 74.6497C74.5132 74.856 74.708 75.1073 74.8485 75.3891C74.9889 75.6709 75.0723 75.9777 75.0939 76.2918L75.6839 84.7318C75.7361 85.4981 75.4822 86.2538 74.9779 86.8331C74.4736 87.4124 73.7601 87.768 72.9939 87.8218L59.6739 88.7418C59.295 88.7676 58.9147 88.7185 58.5548 88.5973C58.1949 88.476 57.8624 88.285 57.5763 88.0352C57.2903 87.7854 57.0563 87.4816 56.8877 87.1413C56.7191 86.801 56.6193 86.4307 56.5939 86.0518L56.0039 77.6218C55.9821 77.3073 56.0226 76.9915 56.1229 76.6926C56.2232 76.3937 56.3814 76.1175 56.5885 75.8798C56.7956 75.642 57.0475 75.4474 57.3298 75.3071C57.6121 75.1667 57.9193 75.0834 58.2339 75.0618L59.5439 74.9718Z" fill="#263238"/>
<path opacity="0.5" d="M59.5439 74.9718L59.3639 72.4618C59.3227 71.8282 59.5343 71.2042 59.9522 70.7262C60.3702 70.2483 60.9605 69.9554 61.5939 69.9118L68.4939 69.4318C69.1275 69.3878 69.7527 69.5967 70.2326 70.0128C70.7124 70.429 71.0078 71.0183 71.0539 71.6518L71.2339 74.1618L72.5339 74.0718C72.8479 74.0487 73.1634 74.0878 73.4623 74.187C73.7611 74.2862 74.0374 74.4434 74.2753 74.6497C74.5132 74.856 74.708 75.1073 74.8485 75.3891C74.9889 75.6709 75.0723 75.9777 75.0939 76.2918L75.6839 84.7318C75.7361 85.4981 75.4822 86.2538 74.9779 86.8331C74.4736 87.4124 73.7601 87.768 72.9939 87.8218L59.6739 88.7418C59.295 88.7676 58.9147 88.7185 58.5548 88.5973C58.1949 88.476 57.8624 88.285 57.5763 88.0352C57.2903 87.7854 57.0563 87.4816 56.8877 87.1413C56.7191 86.801 56.6193 86.4307 56.5939 86.0518L56.0039 77.6218C55.9821 77.3073 56.0226 76.9915 56.1229 76.6926C56.2232 76.3937 56.3814 76.1175 56.5885 75.8798C56.7956 75.642 57.0475 75.4474 57.3298 75.3071C57.6121 75.1667 57.9193 75.0834 58.2339 75.0618L59.5439 74.9718Z" fill="white"/>
<path d="M60.3338 86.6818L72.6638 85.8218C72.7571 85.8155 72.8483 85.7908 72.932 85.7491C73.0158 85.7074 73.0905 85.6496 73.1518 85.579C73.2131 85.5084 73.2599 85.4263 73.2894 85.3376C73.3189 85.2488 73.3306 85.1551 73.3238 85.0618C73.3188 84.968 73.295 84.8762 73.2537 84.7918C73.2125 84.7074 73.1547 84.6322 73.0838 84.5706C73.0129 84.5091 72.9303 84.4624 72.841 84.4334C72.7516 84.4044 72.6574 84.3936 72.5638 84.4018L60.2338 85.2618C60.14 85.2668 60.0482 85.2907 59.9638 85.3319C59.8794 85.3731 59.8042 85.4309 59.7426 85.5019C59.6811 85.5728 59.6344 85.6554 59.6054 85.7447C59.5764 85.834 59.5656 85.9283 59.5738 86.0218C59.5892 86.2093 59.6773 86.3834 59.8193 86.5067C59.9614 86.6301 60.146 86.6929 60.3338 86.6818Z" fill="#4BADEF"/>
<path d="M71.5838 81.1117C71.285 81.1327 70.9851 81.0947 70.701 80.9998C70.417 80.9049 70.1544 80.7549 69.9283 80.5585C69.7022 80.3621 69.517 80.1231 69.3832 79.8551C69.2495 79.5872 69.1698 79.2955 69.1488 78.9967C69.1278 78.698 69.1658 78.398 69.2607 78.1139C69.3557 77.8299 69.5056 77.5673 69.702 77.3412C69.8984 77.1151 70.1374 76.9299 70.4054 76.7961C70.6734 76.6624 70.9651 76.5827 71.2638 76.5617L71.9738 76.5117C72.2726 76.4907 72.5725 76.5287 72.8566 76.6237C73.1406 76.7186 73.4032 76.8685 73.6293 77.0649C73.8554 77.2613 74.0407 77.5003 74.1744 77.7683C74.3081 78.0363 74.3878 78.328 74.4088 78.6267C74.4298 78.9255 74.3918 79.2255 74.2969 79.5095C74.2019 79.7936 74.052 80.0561 73.8556 80.2822C73.6592 80.5084 73.4202 80.6936 73.1522 80.8273C72.8843 80.9611 72.5926 81.0407 72.2938 81.0617L71.5838 81.1117Z" fill="#4BADEF"/>
<path opacity="0.5" d="M69.8538 78.9418C69.8845 79.3917 70.0479 79.8224 70.3234 80.1794C70.5988 80.5364 70.974 80.8037 71.4013 80.9475C71.8287 81.0913 72.2891 81.1052 72.7244 80.9874C73.1596 80.8695 73.5501 80.6253 73.8466 80.2855C74.143 79.9457 74.332 79.5256 74.3898 79.0784C74.4475 78.6312 74.3713 78.1769 74.1708 77.773C73.9704 77.3691 73.6547 77.0337 73.2636 76.8092C72.8725 76.5847 72.4237 76.4813 71.9738 76.5118C71.675 76.5322 71.3832 76.6111 71.1149 76.7443C70.8467 76.8774 70.6073 77.062 70.4104 77.2877C70.2136 77.5134 70.0631 77.7756 69.9676 78.0594C69.8721 78.3432 69.8334 78.6431 69.8538 78.9418Z" fill="white"/>
<path d="M65.1639 81.5517C64.5605 81.5941 63.965 81.3951 63.5084 80.9985C63.0517 80.6018 62.7713 80.04 62.7289 79.4367C62.6865 78.8333 62.8854 78.2378 63.2821 77.7811C63.6787 77.3245 64.2405 77.0441 64.8439 77.0017L65.5539 76.9517C66.1573 76.9092 66.7528 77.1082 67.2094 77.5049C67.6661 77.9015 67.9465 78.4633 67.9889 79.0667C68.0313 79.67 67.8323 80.2655 67.4357 80.7222C67.0391 81.1788 66.4773 81.4592 65.8739 81.5017L65.1639 81.5517Z" fill="#4BADEF"/>
<path opacity="0.5" d="M63.4338 79.3517C63.4665 79.801 63.6315 80.2305 63.908 80.5861C64.1845 80.9417 64.5602 81.2074 64.9876 81.3497C65.415 81.492 65.875 81.5046 66.3095 81.3857C66.744 81.2668 67.1335 81.0219 67.429 80.6819C67.7244 80.3418 67.9125 79.9219 67.9695 79.4751C68.0265 79.0282 67.9499 78.5745 67.7493 78.1712C67.5487 77.7678 67.2331 77.433 66.8424 77.2088C66.4517 76.9847 66.0033 76.8813 65.5538 76.9117C65.2542 76.932 64.9615 77.0113 64.6925 77.145C64.4236 77.2788 64.1837 77.4644 63.9868 77.6911C63.7898 77.9178 63.6395 78.1813 63.5446 78.4662C63.4497 78.7512 63.4121 79.0521 63.4338 79.3517Z" fill="white"/>
<path d="M57.5738 89.9818C54.0664 95.878 49.9433 101.386 45.2738 106.412C43.5638 108.182 40.8238 111.072 38.0438 110.632C34.5538 110.092 34.5638 105.422 34.6238 102.762C34.6371 102.385 34.7994 102.029 35.0751 101.772C35.3508 101.515 35.7172 101.379 36.0938 101.392C36.4704 101.405 36.8264 101.567 37.0833 101.843C37.3402 102.119 37.4771 102.485 37.4638 102.862C37.4638 105.032 37.0838 108.862 40.0338 107.202C42.7038 105.692 44.8838 102.732 46.7638 100.382C49.7832 96.5711 52.5779 92.5877 55.1338 88.4518C55.3367 88.1336 55.6577 87.9089 56.0262 87.8273C56.3948 87.7458 56.7806 87.8139 57.0988 88.0168C57.4171 88.2197 57.6417 88.5407 57.7233 88.9092C57.8049 89.2777 57.7367 89.6636 57.5338 89.9818H57.5738Z" fill="#4BADEF"/>
<g opacity="0.3">
<path d="M52.1438 98.1416C51.1759 97.8817 50.3408 97.2679 49.8038 96.4216C50.7638 95.0883 51.6938 93.755 52.5938 92.4216C53.178 93.2185 54.0183 93.7904 54.9738 94.0416C54.0638 95.4316 53.1238 96.8016 52.1438 98.1416Z" fill="black"/>
<path d="M49.1538 102.052C48.1938 103.238 47.1938 104.388 46.1538 105.502C45.2486 105.211 44.4919 104.58 44.0438 103.742C45.0438 102.622 45.9438 101.442 46.7938 100.382C46.8273 100.333 46.8641 100.286 46.9038 100.242C47.5033 101.011 48.2736 101.631 49.1538 102.052Z" fill="black"/>
<path d="M38.0838 110.632C37.8833 110.602 37.6859 110.556 37.4938 110.492C37.4932 109.383 37.6757 108.281 38.0338 107.232C38.4138 107.692 39.0338 107.792 40.0338 107.232L40.3338 107.042C40.4565 107.534 40.6958 107.991 41.0317 108.372C41.3676 108.753 41.7901 109.048 42.2638 109.232C41.1074 110.227 39.6066 110.73 38.0838 110.632Z" fill="black"/>
<path d="M34.6538 103.732C34.6538 103.392 34.6538 103.062 34.6538 102.732C34.6671 102.355 34.8294 101.999 35.1051 101.742C35.3808 101.485 35.7472 101.348 36.1238 101.362C36.5004 101.375 36.8563 101.537 37.1133 101.813C37.3702 102.089 37.5071 102.455 37.4938 102.832C37.4938 102.992 37.4938 103.152 37.4938 103.312C36.5272 103.114 35.5218 103.262 34.6538 103.732Z" fill="black"/>
</g>
<path d="M50.5338 72.0818C48.7538 64.7218 46.0638 42.4318 37.3338 44.7818C28.6038 47.1318 35.8238 74.2718 40.7538 83.1518C44.1538 89.2818 55.2538 97.6818 61.7538 102.302C62.3541 102.727 63.0409 103.015 63.7652 103.145C64.4896 103.275 65.2336 103.243 65.9443 103.052C66.6549 102.861 67.3147 102.515 67.8764 102.04C68.4381 101.565 68.8879 100.971 69.1938 100.302L70.0838 98.3818C70.5906 97.2976 70.6916 96.0677 70.3687 94.9153C70.0457 93.763 69.3202 92.7647 68.3238 92.1018C62.8038 88.4418 52.6138 80.6818 50.5338 72.0818Z" fill="#4BADEF"/>
<path opacity="0.8" d="M50.5338 72.0818C48.7538 64.7218 46.0638 42.4318 37.3338 44.7818C28.6038 47.1318 35.8238 74.2718 40.7538 83.1518C44.1538 89.2818 55.2538 97.6818 61.7538 102.302C62.3541 102.727 63.0409 103.015 63.7652 103.145C64.4896 103.275 65.2336 103.243 65.9443 103.052C66.6549 102.861 67.3147 102.515 67.8764 102.04C68.4381 101.565 68.8879 100.971 69.1938 100.302L70.0838 98.3818C70.5906 97.2976 70.6916 96.0677 70.3687 94.9153C70.0457 93.763 69.3202 92.7647 68.3238 92.1018C62.8038 88.4418 52.6138 80.6818 50.5338 72.0818Z" fill="white"/>
<path d="M60.2738 95.9418L63.1838 98.1818C63.1838 98.1818 64.8438 94.1318 67.6738 92.0518C67.7295 92.0132 67.775 91.9616 67.8064 91.9015C67.8379 91.8414 67.8543 91.7746 67.8543 91.7068C67.8543 91.639 67.8379 91.5722 67.8064 91.5121C67.775 91.4521 67.7295 91.4005 67.6738 91.3618L65.5338 89.9218C65.4144 89.8406 65.2733 89.7971 65.1288 89.7971C64.9843 89.7971 64.8432 89.8406 64.7238 89.9218C63.6438 90.6518 60.8638 92.8218 60.2738 95.9418Z" fill="#4BADEF"/>
<path d="M49.7738 70.7918C45.4938 70.1218 40.7038 71.0618 37.5238 74.1018C36.2038 75.3618 34.5238 73.1018 35.8138 71.8218C39.4838 68.3218 45.2038 67.2018 50.1338 67.9718C51.9438 68.2618 51.5838 71.0818 49.7738 70.7918Z" fill="#4BADEF"/>
<path d="M56.6938 83.1618C57.0838 82.9518 56.1539 83.5118 56.0039 83.6118C55.2621 84.1015 54.5508 84.6358 53.8738 85.2118C51.764 86.9732 50.1192 89.2259 49.0838 91.7718C49.0129 91.9445 48.9087 92.1015 48.7771 92.2339C48.6455 92.3663 48.4891 92.4715 48.3169 92.5435C48.1446 92.6155 47.9599 92.6528 47.7732 92.6534C47.5865 92.6539 47.4015 92.6177 47.2289 92.5468C47.0562 92.4759 46.8991 92.3717 46.7667 92.2401C46.6343 92.1085 46.5291 91.9521 46.4572 91.7798C46.3852 91.6076 46.3479 91.4228 46.3473 91.2362C46.3467 91.0495 46.3829 90.8645 46.4538 90.6918C48.2612 86.3577 51.4971 82.7725 55.6238 80.5318C57.2238 79.6418 58.2738 82.2918 56.6938 83.1618Z" fill="#4BADEF"/>
<path d="M60.2738 95.9418L63.1838 98.1818C63.1838 98.1818 64.8438 94.1318 67.6738 92.0518C67.7295 92.0132 67.775 91.9616 67.8064 91.9015C67.8379 91.8414 67.8543 91.7746 67.8543 91.7068C67.8543 91.639 67.8379 91.5722 67.8064 91.5121C67.775 91.4521 67.7295 91.4005 67.6738 91.3618L65.5338 89.9218C65.4144 89.8406 65.2733 89.7971 65.1288 89.7971C64.9843 89.7971 64.8432 89.8406 64.7238 89.9218C63.6438 90.6518 60.8638 92.8218 60.2738 95.9418Z" fill="#4BADEF"/>
<path d="M49.7738 70.7918C45.4938 70.1218 40.7038 71.0618 37.5238 74.1018C36.2038 75.3618 34.5238 73.1018 35.8138 71.8218C39.4838 68.3218 45.2038 67.2018 50.1338 67.9718C51.9438 68.2618 51.5838 71.0818 49.7738 70.7918Z" fill="#4BADEF"/>
<path d="M56.6938 83.1618C57.0838 82.9518 56.1539 83.5118 56.0039 83.6118C55.2621 84.1015 54.5508 84.6358 53.8738 85.2118C51.764 86.9732 50.1192 89.2259 49.0838 91.7718C49.0129 91.9445 48.9087 92.1015 48.7771 92.2339C48.6455 92.3663 48.4891 92.4715 48.3169 92.5435C48.1446 92.6155 47.9599 92.6528 47.7732 92.6534C47.5865 92.6539 47.4015 92.6177 47.2289 92.5468C47.0562 92.4759 46.8991 92.3717 46.7667 92.2401C46.6343 92.1085 46.5291 91.9521 46.4572 91.7798C46.3852 91.6076 46.3479 91.4228 46.3473 91.2362C46.3467 91.0495 46.3829 90.8645 46.4538 90.6918C48.2612 86.3577 51.4971 82.7725 55.6238 80.5318C57.2238 79.6418 58.2738 82.2918 56.6938 83.1618Z" fill="#4BADEF"/>
<g opacity="0.3">
<path d="M60.2738 95.9418L63.1838 98.1818C63.1838 98.1818 64.8438 94.1318 67.6738 92.0518C67.7295 92.0132 67.775 91.9616 67.8064 91.9015C67.8379 91.8414 67.8543 91.7746 67.8543 91.7068C67.8543 91.639 67.8379 91.5722 67.8064 91.5121C67.775 91.4521 67.7295 91.4005 67.6738 91.3618L65.5338 89.9218C65.4144 89.8406 65.2733 89.7971 65.1288 89.7971C64.9843 89.7971 64.8432 89.8406 64.7238 89.9218C63.6438 90.6518 60.8638 92.8218 60.2738 95.9418Z" fill="white"/>
<path d="M49.7738 70.7918C45.4938 70.1218 40.7038 71.0618 37.5238 74.1018C36.2038 75.3618 34.5238 73.1018 35.8138 71.8218C39.4838 68.3218 45.2038 67.2018 50.1338 67.9718C51.9438 68.2618 51.5838 71.0818 49.7738 70.7918Z" fill="white"/>
<path d="M56.6937 83.1618C57.0837 82.9518 56.1537 83.5118 56.0037 83.6118C55.262 84.1015 54.5506 84.6358 53.8737 85.2118C51.7639 86.9732 50.1191 89.2259 49.0837 91.7718C49.0128 91.9445 48.9086 92.1015 48.777 92.2339C48.6454 92.3663 48.489 92.4715 48.3167 92.5435C48.1445 92.6155 47.9597 92.6528 47.7731 92.6534C47.5864 92.6539 47.4014 92.6177 47.2287 92.5468C47.056 92.4759 46.899 92.3717 46.7666 92.2401C46.6342 92.1085 46.529 91.9521 46.457 91.7798C46.3851 91.6076 46.3477 91.4228 46.3472 91.2362C46.3466 91.0495 46.3828 90.8645 46.4537 90.6918C48.2611 86.3577 51.497 82.7725 55.6237 80.5318C57.2237 79.6418 58.2737 82.2918 56.6937 83.1618Z" fill="white"/>
</g>
<path d="M33.2738 53.7918C33.4137 53.3858 33.6538 53.0217 33.972 52.7332C34.2902 52.4448 34.676 52.2414 35.0938 52.1418C36.7738 51.9318 38.4438 54.2118 38.8338 57.2318C39.2238 60.2518 38.1838 62.8918 36.5138 63.1118C35.5738 63.2318 34.6438 62.5418 33.9238 61.4018C33.4995 58.8872 33.2821 56.342 33.2738 53.7918Z" fill="#4BADEF"/>
<path d="M64.2155 102.905L65.4075 101.044C65.8901 100.291 65.6705 99.289 64.9171 98.8064L59.132 95.101C58.3786 94.6185 57.3767 94.838 56.8941 95.5914L55.7021 97.4524C55.2196 98.2058 55.4391 99.2078 56.1925 99.6903L61.9776 103.396C62.731 103.878 63.7329 103.659 64.2155 102.905Z" fill="#4BADEF"/>
<path d="M63.7027 102.38L64.4794 101.168C64.962 100.414 64.7424 99.4125 63.989 98.93L59.4081 95.9958C58.6547 95.5133 57.6527 95.7328 57.1702 96.4862L56.3935 97.6988C55.9109 98.4522 56.1305 99.4542 56.8839 99.9367L61.4648 102.871C62.2182 103.353 63.2201 103.134 63.7027 102.38Z" fill="#263238"/>
<path d="M68.1638 102.912C67.4238 101.832 67.7238 98.9816 67.8938 97.6816C68.6038 92.2216 75.8938 95.7716 75.8938 95.7716L79.6038 96.1316C80.2539 96.2382 80.8449 96.5722 81.2717 97.074C81.6984 97.5758 81.9331 98.2129 81.9338 98.8716L82.1438 102.522C82.2353 103.271 82.0303 104.026 81.5725 104.626C81.1147 105.225 80.4404 105.622 79.6938 105.732L76.4538 105.952C75.5122 106.014 74.57 105.839 73.7138 105.442C73.7138 105.442 69.0238 104.172 68.1638 102.912Z" fill="#4BADEF"/>
<path opacity="0.3" d="M68.1638 102.912C67.4238 101.832 67.7238 98.9816 67.8938 97.6816C68.6038 92.2216 75.8938 95.7716 75.8938 95.7716L79.6038 96.1316C80.2539 96.2382 80.8449 96.5722 81.2717 97.074C81.6984 97.5758 81.9331 98.2129 81.9338 98.8716L82.1438 102.522C82.2353 103.271 82.0303 104.026 81.5725 104.626C81.1147 105.225 80.4404 105.622 79.6938 105.732L76.4538 105.952C75.5122 106.014 74.57 105.839 73.7138 105.442C73.7138 105.442 69.0238 104.172 68.1638 102.912Z" fill="white"/>
<path d="M95.5238 148.032C89.6476 154.995 82.5262 160.804 74.5238 165.162C72.7838 166.162 71.0938 163.512 72.8538 162.552C80.5985 158.327 87.4891 152.698 93.1738 145.952C94.4638 144.422 96.7738 146.502 95.4838 148.032H95.5238Z" fill="#4BADEF"/>
<g opacity="0.3">
<path d="M95.5238 148.032C89.6476 154.995 82.5262 160.804 74.5238 165.162C72.7838 166.162 71.0938 163.512 72.8538 162.552C80.5985 158.327 87.4891 152.698 93.1738 145.952C94.4638 144.422 96.7738 146.502 95.4838 148.032H95.5238Z" fill="white"/>
</g>
<path d="M100.154 177.642C92.7025 178.305 85.1927 177.679 77.9538 175.792C76.1738 175.362 76.7338 172.572 78.5138 173.002C85.5064 174.835 92.763 175.447 99.9638 174.812C101.784 174.612 101.964 177.442 100.154 177.642Z" fill="#4BADEF"/>
<g opacity="0.3">
<path d="M100.154 177.642C92.7025 178.305 85.1927 177.679 77.9538 175.792C76.1738 175.362 76.7338 172.572 78.5138 173.002C85.5064 174.835 92.763 175.447 99.9638 174.812C101.784 174.612 101.964 177.442 100.154 177.642Z" fill="white"/>
</g>
<path d="M126.164 129.352C121.873 136.496 116.331 142.81 109.804 147.992C108.374 149.132 106.424 147.182 107.874 145.992C114.207 140.979 119.583 134.864 123.744 127.942C123.927 127.621 124.23 127.386 124.586 127.288C124.942 127.191 125.323 127.239 125.644 127.422C125.965 127.605 126.2 127.908 126.297 128.264C126.395 128.62 126.347 129.001 126.164 129.322V129.352Z" fill="#4BADEF"/>
<g opacity="0.3">
<path d="M126.164 129.352C121.873 136.496 116.331 142.81 109.804 147.992C108.374 149.132 106.424 147.182 107.874 145.992C114.207 140.979 119.583 134.864 123.744 127.942C123.927 127.621 124.23 127.386 124.586 127.288C124.942 127.191 125.323 127.239 125.644 127.422C125.965 127.605 126.2 127.908 126.297 128.264C126.395 128.62 126.347 129.001 126.164 129.322V129.352Z" fill="white"/>
</g>
<path d="M138.274 157.812C131.155 159.852 123.75 160.71 116.354 160.352C116.177 160.346 116.002 160.306 115.84 160.234C115.678 160.161 115.533 160.057 115.411 159.928C115.289 159.799 115.194 159.647 115.131 159.481C115.068 159.316 115.039 159.139 115.044 158.962C115.049 158.784 115.089 158.61 115.162 158.448C115.235 158.286 115.338 158.14 115.467 158.019C115.597 157.897 115.748 157.802 115.914 157.739C116.08 157.676 116.257 157.646 116.434 157.652C123.589 157.997 130.752 157.159 137.634 155.172C139.374 154.642 140.034 157.242 138.294 157.782L138.274 157.812Z" fill="#4BADEF"/>
<g opacity="0.3">
<path d="M138.274 157.812C131.155 159.852 123.75 160.71 116.354 160.352C116.177 160.346 116.002 160.306 115.84 160.234C115.678 160.161 115.533 160.057 115.411 159.928C115.289 159.799 115.194 159.647 115.131 159.481C115.068 159.316 115.039 159.139 115.044 158.962C115.049 158.784 115.089 158.61 115.162 158.448C115.235 158.286 115.338 158.14 115.467 158.019C115.597 157.897 115.748 157.802 115.914 157.739C116.08 157.676 116.257 157.646 116.434 157.652C123.589 157.997 130.752 157.159 137.634 155.172C139.374 154.642 140.034 157.242 138.294 157.782L138.274 157.812Z" fill="white"/>
</g>
<path d="M26.9938 117.962C27.2904 119.111 27.2396 120.322 26.8478 121.442C26.456 122.562 25.7409 123.541 24.7929 124.255C23.8449 124.968 22.7065 125.385 21.5218 125.452C20.337 125.518 19.159 125.232 18.1368 124.63C17.1146 124.027 16.2941 123.135 15.779 122.066C15.2639 120.997 15.0773 119.799 15.2429 118.624C15.4085 117.449 15.9188 116.349 16.7093 115.464C17.4997 114.579 18.5349 113.949 19.6838 113.652C20.4468 113.455 21.2411 113.41 22.0215 113.52C22.8018 113.63 23.5528 113.892 24.2316 114.293C24.9104 114.693 25.5037 115.223 25.9777 115.852C26.4516 116.482 26.7969 117.199 26.9938 117.962Z" fill="#263238"/>
<path d="M51.5396 114.076L19.2525 116.656C18.3937 116.725 17.7532 117.477 17.8218 118.336L18.0433 121.107C18.112 121.966 18.8638 122.606 19.7226 122.538L52.0097 119.957C52.8685 119.888 53.5091 119.136 53.4404 118.278L53.2189 115.506C53.1503 114.648 52.3984 114.007 51.5396 114.076Z" fill="#4BADEF"/>
<path d="M80.4619 105.847L48.1749 108.428C47.3161 108.497 46.6755 109.249 46.7442 110.108L46.9657 112.879C47.0343 113.738 47.7862 114.378 48.645 114.309L80.932 111.729C81.7909 111.66 82.4314 110.908 82.3628 110.049L82.1413 107.278C82.0726 106.419 81.3208 105.779 80.4619 105.847Z" fill="#4BADEF"/>
<path opacity="0.3" d="M51.5396 114.076L19.2525 116.656C18.3937 116.725 17.7532 117.477 17.8218 118.336L18.0433 121.107C18.112 121.966 18.8638 122.606 19.7226 122.538L52.0097 119.957C52.8685 119.888 53.5091 119.136 53.4404 118.278L53.2189 115.506C53.1503 114.648 52.3984 114.007 51.5396 114.076Z" fill="black"/>
<path opacity="0.3" d="M80.4619 105.847L48.1749 108.428C47.3161 108.497 46.6755 109.249 46.7442 110.108L46.9657 112.879C47.0343 113.738 47.7862 114.378 48.645 114.309L80.932 111.729C81.7909 111.66 82.4314 110.908 82.3628 110.049L82.1413 107.278C82.0726 106.419 81.3208 105.779 80.4619 105.847Z" fill="black"/>
<path d="M81.6838 93.4216C81.8522 94.0614 81.8261 94.7369 81.609 95.3618C81.3919 95.9868 80.9936 96.5329 80.4648 96.9305C79.936 97.3282 79.3008 97.5593 78.6401 97.5944C77.9795 97.6295 77.3233 97.467 76.7554 97.1277C76.1875 96.7883 75.7335 96.2875 75.4514 95.6891C75.1692 95.0907 75.0718 94.4218 75.1714 93.7677C75.271 93.1137 75.5632 92.5041 76.0106 92.0168C76.4581 91.5295 77.0406 91.1865 77.6838 91.0316C78.5308 90.825 79.4251 90.9598 80.1735 91.407C80.9219 91.8542 81.4644 92.5778 81.6838 93.4216Z" fill="#263238"/>
<path d="M58.6438 6.77163C61.2878 6.87682 63.8846 7.50564 66.2838 8.62163H65.6338C54.5038 8.62163 45.4938 15.5016 45.5038 23.9516C45.5138 32.4016 54.5038 39.2416 65.6738 39.2216C68.8773 39.2352 72.054 38.6379 75.0338 37.4616C74.3622 38.5611 73.5852 39.5926 72.7138 40.5416C71.9616 41.3592 71.3983 42.3322 71.0638 43.3916H44.6838C44.335 42.3209 43.7585 41.3384 42.9938 40.5116C40.3036 37.578 38.5419 33.9135 37.931 29.9803C37.3201 26.047 37.8872 22.0209 39.5609 18.4094C41.2345 14.7979 43.9398 11.7627 47.3358 9.6863C50.7318 7.60993 54.6664 6.58532 58.6438 6.74163V6.77163Z" fill="#4BADEF"/>
<path opacity="0.7" d="M58.6438 6.77163C61.2878 6.87682 63.8846 7.50564 66.2838 8.62163H65.6338C54.5038 8.62163 45.4938 15.5016 45.5038 23.9516C45.5138 32.4016 54.5038 39.2416 65.6738 39.2216C68.8773 39.2352 72.054 38.6379 75.0338 37.4616C74.3622 38.5611 73.5852 39.5926 72.7138 40.5416C71.9616 41.3592 71.3983 42.3322 71.0638 43.3916H44.6838C44.335 42.3209 43.7585 41.3384 42.9938 40.5116C40.3036 37.578 38.5419 33.9135 37.931 29.9803C37.3201 26.047 37.8872 22.0209 39.5609 18.4094C41.2345 14.7979 43.9398 11.7627 47.3358 9.6863C50.7318 7.60993 54.6664 6.58532 58.6438 6.74163V6.77163Z" fill="white"/>
<path d="M65.0839 8.11182C66.0406 8.48198 66.9668 8.92668 67.8539 9.44182C67.1205 9.38182 66.3805 9.35182 65.6339 9.35182C54.8339 9.35182 46.0639 15.9118 46.0739 23.9418C46.0839 31.9718 54.8839 38.5018 65.6739 38.4818C69.0896 38.5074 72.4738 37.8265 75.6139 36.4818C75.2882 37.0901 74.9311 37.6809 74.5439 38.2518C71.6991 39.2613 68.7024 39.7754 65.6839 39.7718C54.1739 39.7718 44.8439 32.7718 44.8239 23.9818C44.8139 15.3518 53.8339 8.35182 65.0839 8.11182Z" fill="#4BADEF"/>
<path opacity="0.4" d="M65.0839 8.11182C66.0406 8.48198 66.9668 8.92668 67.8539 9.44182C67.1205 9.38182 66.3805 9.35182 65.6339 9.35182C54.8339 9.35182 46.0639 15.9118 46.0739 23.9418C46.0839 31.9718 54.8839 38.5018 65.6739 38.4818C69.0896 38.5074 72.4738 37.8265 75.6139 36.4818C75.2882 37.0901 74.9311 37.6809 74.5439 38.2518C71.6991 39.2613 68.7024 39.7754 65.6839 39.7718C54.1739 39.7718 44.8439 32.7718 44.8239 23.9818C44.8139 15.3518 53.8339 8.35182 65.0839 8.11182Z" fill="black"/>
<path opacity="0.6" d="M65.1238 14.6217C64.006 13.92 62.7938 13.3812 61.5238 13.0217C63.1924 12.4763 64.9223 12.1403 66.6738 12.0217C67.8722 12.7551 68.977 13.6316 69.9638 14.6317C68.3534 14.4985 66.7348 14.4951 65.1238 14.6217Z" fill="white"/>
<path opacity="0.6" d="M66.7339 15.8016C68.2278 15.7674 69.7222 15.8476 71.2039 16.0416C73.3634 18.7429 74.6477 22.0386 74.8854 25.4889C75.123 28.9391 74.3027 32.3798 72.5339 35.3516C71.0501 35.6836 69.5343 35.8512 68.0139 35.8516H67.9139L68.0339 35.7016C69.2941 34.3315 70.2631 32.7199 70.8824 30.9644C71.5017 29.2089 71.7584 27.346 71.6368 25.4884C71.5153 23.6308 71.0181 21.8172 70.1754 20.1574C69.3326 18.4975 68.1618 17.0259 66.7339 15.8316V15.8016Z" fill="white"/>
<path d="M45.6591 20.7547L44.6591 20.7563L44.6475 13.3863C44.6473 13.2484 44.7019 13.116 44.7992 13.0183C44.8966 12.9207 45.0288 12.8657 45.1667 12.8655C45.302 12.8652 45.4318 12.9188 45.5276 13.0143C45.6233 13.1098 45.6773 13.2394 45.6775 13.3747L45.6891 20.7446L45.6591 20.7547Z" fill="#263238"/>
<path opacity="0.4" d="M45.6591 20.7547L44.6591 20.7563L44.6475 13.3863C44.6473 13.2484 44.7019 13.116 44.7992 13.0183C44.8966 12.9207 45.0288 12.8657 45.1667 12.8655C45.302 12.8652 45.4318 12.9188 45.5276 13.0143C45.6233 13.1098 45.6773 13.2394 45.6775 13.3747L45.6891 20.7446L45.6591 20.7547Z" fill="white"/>
<path d="M43.5082 20.7513L42.5082 20.7528L42.4776 1.26286C42.4774 1.12494 42.532 0.9926 42.6293 0.894928C42.7267 0.797256 42.8589 0.742254 42.9968 0.742037C43.0637 0.741932 43.1301 0.755017 43.192 0.780549C43.2539 0.806081 43.3102 0.843571 43.3576 0.890854C43.4051 0.938137 43.4427 0.994295 43.4685 1.05613C43.4942 1.11797 43.5075 1.18427 43.5076 1.25125L43.5382 20.7512L43.5082 20.7513Z" fill="#263238"/>
<path opacity="0.6" d="M43.5082 20.7513L42.5082 20.7528L42.4776 1.26286C42.4774 1.12494 42.532 0.9926 42.6293 0.894928C42.7267 0.797256 42.8589 0.742254 42.9968 0.742037C43.0637 0.741932 43.1301 0.755017 43.192 0.780549C43.2539 0.806081 43.3102 0.843571 43.3576 0.890854C43.4051 0.938137 43.4427 0.994295 43.4685 1.05613C43.4942 1.11797 43.5075 1.18427 43.5076 1.25125L43.5382 20.7512L43.5082 20.7513Z" fill="white"/>
<path d="M72.3838 43.8416L72.3338 42.6016C72.3293 42.4345 72.2902 42.2702 72.219 42.119C72.1478 41.9678 72.046 41.833 71.9201 41.7231C71.7942 41.6132 71.6469 41.5305 71.4875 41.4804C71.3281 41.4302 71.16 41.4136 70.9938 41.4316C62.3313 42.2627 53.6147 42.3731 44.9338 41.7616C44.6832 41.7462 44.434 41.8092 44.2208 41.9418C44.0076 42.0744 43.8409 42.27 43.7438 42.5016L43.6038 42.8216C43.4975 43.1139 43.5077 43.4359 43.6325 43.7208C43.7573 44.0056 43.9869 44.2316 44.2738 44.3516C47.7738 45.9016 59.3738 50.1616 71.6938 44.9716C71.9046 44.8687 72.0816 44.7076 72.2038 44.5074C72.3261 44.3072 72.3885 44.0762 72.3838 43.8416Z" fill="#4BADEF"/>
<path d="M45.1738 29.9317C45.8429 29.9901 46.5169 29.9162 47.1575 29.7141C47.798 29.5121 48.3924 29.1858 48.9069 28.754C49.4213 28.3222 49.8456 27.7933 50.1557 27.1976C50.4657 26.6018 50.6554 25.9507 50.7138 25.2816C50.7722 24.6126 50.6983 23.9385 50.4963 23.298C50.2942 22.6575 49.968 22.063 49.5362 21.5486C49.1044 21.0342 48.5755 20.6098 47.9797 20.2998C47.3839 19.9898 46.7329 19.8001 46.0638 19.7417L44.4738 19.6017C43.1368 19.5136 41.8185 19.9532 40.802 20.8261C39.7854 21.6989 39.1515 22.9355 39.0363 24.2705C38.9211 25.6054 39.3339 26.9324 40.1859 27.9664C41.038 29.0005 42.2615 29.6594 43.5938 29.8016L45.1738 29.9317Z" fill="#263238"/>
<path opacity="0.3" d="M45.1738 29.9317C45.8429 29.9901 46.5169 29.9162 47.1575 29.7141C47.798 29.5121 48.3924 29.1858 48.9069 28.754C49.4213 28.3222 49.8456 27.7933 50.1557 27.1976C50.4657 26.6018 50.6554 25.9507 50.7138 25.2816C50.7722 24.6126 50.6983 23.9385 50.4963 23.298C50.2942 22.6575 49.968 22.063 49.5362 21.5486C49.1044 21.0342 48.5755 20.6098 47.9797 20.2998C47.3839 19.9898 46.7329 19.8001 46.0638 19.7417L44.4738 19.6017C43.1368 19.5136 41.8185 19.9532 40.802 20.8261C39.7854 21.6989 39.1515 22.9355 39.0363 24.2705C38.9211 25.6054 39.3339 26.9324 40.1859 27.9664C41.038 29.0005 42.2615 29.6594 43.5938 29.8016L45.1738 29.9317Z" fill="white"/>
<path opacity="0.3" d="M49.1339 25.1418C49.047 26.1508 48.6629 27.1114 48.0301 27.9021C47.3973 28.6927 46.5442 29.278 45.5787 29.5838C44.6133 29.8896 43.5788 29.9022 42.6062 29.62C41.6336 29.3379 40.7665 28.7736 40.1145 27.9986C39.4626 27.2236 39.0552 26.2726 38.9438 25.266C38.8324 24.2595 39.022 23.2424 39.4886 22.3436C39.9553 21.4448 40.678 20.7046 41.5653 20.2165C42.4527 19.7285 43.4649 19.5145 44.4739 19.6018C45.8264 19.7188 47.077 20.3681 47.9509 21.407C48.8248 22.4459 49.2503 23.7893 49.1339 25.1418Z" fill="white"/>
<path d="M60.1039 41.4518L60.3639 40.6618L46.4639 36.0718L43.8039 24.6018L42.9939 24.7918L45.7539 36.7118L60.1039 41.4518Z" fill="#263238"/>
<g opacity="0.4">
<path d="M60.1039 41.4518L60.3639 40.6618L46.4639 36.0718L43.8039 24.6018L42.9939 24.7918L45.7539 36.7118L60.1039 41.4518Z" fill="white"/>
</g>
<path d="M47.2738 24.9816C47.2188 25.6203 46.9762 26.2285 46.5764 26.7296C46.1767 27.2307 45.6376 27.6024 45.0271 27.798C44.4166 27.9935 43.7619 28.0042 43.1454 27.8285C42.5289 27.6529 41.9781 27.2989 41.5622 26.811C41.1464 26.3231 40.8842 25.7231 40.8085 25.0866C40.7328 24.45 40.8471 23.8053 41.1369 23.2335C41.4267 22.6617 41.8792 22.1884 42.4374 21.8731C42.9955 21.5578 43.6345 21.4147 44.2738 21.4616C44.7029 21.4931 45.1214 21.6095 45.5052 21.804C45.8889 21.9986 46.2302 22.2673 46.5093 22.5948C46.7884 22.9222 46.9996 23.3018 47.1309 23.7115C47.2621 24.1213 47.3107 24.553 47.2738 24.9816Z" fill="#4BADEF"/>
<path d="M46.6438 24.9816C46.5888 25.6203 46.3462 26.2285 45.9464 26.7296C45.5467 27.2307 45.0076 27.6024 44.3971 27.798C43.7866 27.9935 43.1319 28.0042 42.5154 27.8285C41.8989 27.6529 41.3481 27.2989 40.9322 26.811C40.5164 26.3231 40.2542 25.7231 40.1785 25.0866C40.1028 24.45 40.2171 23.8053 40.5069 23.2335C40.7967 22.6617 41.2492 22.1884 41.8074 21.8731C42.3655 21.5578 43.0045 21.4147 43.6438 21.4616C44.0724 21.4944 44.4903 21.6117 44.8734 21.8066C45.2565 22.0016 45.5973 22.2703 45.8761 22.5975C46.1549 22.9246 46.3663 23.3037 46.498 23.7129C46.6298 24.122 46.6793 24.5532 46.6438 24.9816Z" fill="#4BADEF"/>
<path opacity="0.5" d="M46.6438 24.9816C46.5888 25.6203 46.3462 26.2285 45.9464 26.7296C45.5467 27.2307 45.0076 27.6024 44.3971 27.798C43.7866 27.9935 43.1319 28.0042 42.5154 27.8285C41.8989 27.6529 41.3481 27.2989 40.9322 26.811C40.5164 26.3231 40.2542 25.7231 40.1785 25.0866C40.1028 24.45 40.2171 23.8053 40.5069 23.2335C40.7967 22.6617 41.2492 22.1884 41.8074 21.8731C42.3655 21.5578 43.0045 21.4147 43.6438 21.4616C44.0724 21.4944 44.4903 21.6117 44.8734 21.8066C45.2565 22.0016 45.5973 22.2703 45.8761 22.5975C46.1549 22.9246 46.3663 23.3037 46.498 23.7129C46.6298 24.122 46.6793 24.5532 46.6438 24.9816Z" fill="white"/>
<path d="M47.6438 36.5016C47.6133 36.8432 47.449 37.1589 47.1868 37.3799C46.9246 37.6009 46.5857 37.7094 46.2438 37.6816C45.9901 37.6591 45.7487 37.5619 45.5501 37.4023C45.3516 37.2428 45.2047 37.028 45.128 36.7851C45.0513 36.5422 45.0482 36.282 45.1192 36.0373C45.1902 35.7927 45.332 35.5745 45.5267 35.4103C45.7215 35.2461 45.9606 35.1433 46.2137 35.1148C46.4668 35.0863 46.7227 35.1333 46.9492 35.2501C47.1756 35.3668 47.3624 35.5479 47.486 35.7707C47.6096 35.9934 47.6646 36.2477 47.6438 36.5016Z" fill="#4BADEF"/>
<path d="M47.3939 36.5017C47.3713 36.7554 47.2741 36.9968 47.1146 37.1954C46.955 37.394 46.7403 37.5409 46.4973 37.6176C46.2544 37.6943 45.9942 37.6973 45.7496 37.6263C45.5049 37.5554 45.2868 37.4136 45.1226 37.2188C44.9584 37.024 44.8556 36.785 44.8271 36.5318C44.7986 36.2787 44.8456 36.0228 44.9623 35.7964C45.0791 35.5699 45.2602 35.3831 45.4829 35.2595C45.7057 35.1359 45.96 35.081 46.2139 35.1017C46.5555 35.1322 46.8712 35.2965 47.0922 35.5587C47.3132 35.8209 47.4216 36.1599 47.3939 36.5017Z" fill="#4BADEF"/>
<path opacity="0.3" d="M47.3939 36.5017C47.3713 36.7554 47.2741 36.9968 47.1146 37.1954C46.955 37.394 46.7403 37.5409 46.4973 37.6176C46.2544 37.6943 45.9942 37.6973 45.7496 37.6263C45.5049 37.5554 45.2868 37.4136 45.1226 37.2188C44.9584 37.024 44.8556 36.785 44.8271 36.5318C44.7986 36.2787 44.8456 36.0228 44.9623 35.7964C45.0791 35.5699 45.2602 35.3831 45.4829 35.2595C45.7057 35.1359 45.96 35.081 46.2139 35.1017C46.5555 35.1322 46.8712 35.2965 47.0922 35.5587C47.3132 35.8209 47.4216 36.1599 47.3939 36.5017Z" fill="white"/>
<path d="M60.6539 42.3517H66.3639C66.7069 42.3491 67.035 42.2109 67.2767 41.9674C67.5183 41.7239 67.6539 41.3948 67.6539 41.0517C67.6512 40.7087 67.5131 40.3806 67.2696 40.1389C67.0261 39.8973 66.6969 39.7617 66.3539 39.7617H60.6539C60.3108 39.7617 59.9817 39.8973 59.7382 40.1389C59.4946 40.3806 59.3565 40.7087 59.3539 41.0517C59.3539 41.3965 59.4908 41.7271 59.7346 41.9709C59.9784 42.2147 60.3091 42.3517 60.6539 42.3517Z" fill="#4BADEF"/>
<path d="M61.4838 42.3517H67.1938C67.5378 42.3491 67.867 42.2113 68.1102 41.9681C68.3534 41.7248 68.4912 41.3957 68.4938 41.0517C68.4912 40.7087 68.3531 40.3806 68.1096 40.1389C67.866 39.8973 67.5369 39.7617 67.1938 39.7617H61.4838C61.1399 39.7643 60.8107 39.9021 60.5675 40.1454C60.3243 40.3886 60.1865 40.7177 60.1838 41.0617C60.1865 41.4048 60.3246 41.7329 60.5681 41.9745C60.8116 42.2161 61.1408 42.3517 61.4838 42.3517Z" fill="#4BADEF"/>
<path opacity="0.3" d="M61.4838 42.3517H67.1938C67.5378 42.3491 67.867 42.2113 68.1102 41.9681C68.3534 41.7248 68.4912 41.3957 68.4938 41.0517C68.4912 40.7087 68.3531 40.3806 68.1096 40.1389C67.866 39.8973 67.5369 39.7617 67.1938 39.7617H61.4838C61.1399 39.7643 60.8107 39.9021 60.5675 40.1454C60.3243 40.3886 60.1865 40.7177 60.1838 41.0617C60.1865 41.4048 60.3246 41.7329 60.5681 41.9745C60.8116 42.2161 61.1408 42.3517 61.4838 42.3517Z" fill="white"/>
</svg>
