<svg width="60" height="58" viewBox="0 0 60 58" fill="none" xmlns="http://www.w3.org/2000/svg">
<path d="M57.0114 1.34375L33.5996 18.732L37.929 8.47316L57.0114 1.34375Z" fill="#E2761B" stroke="#E2761B" stroke-linecap="round" stroke-linejoin="round"/>
<path d="M2.96484 1.34375L26.1884 18.8967L22.0707 8.47316L2.96484 1.34375Z" fill="#E4761B" stroke="#E4761B" stroke-linecap="round" stroke-linejoin="round"/>
<path d="M48.5878 41.6494L42.3525 51.2024L55.6937 54.8729L59.529 41.8612L48.5878 41.6494Z" fill="#E4761B" stroke="#E4761B" stroke-linecap="round" stroke-linejoin="round"/>
<path d="M0.494141 41.8612L4.3059 54.8729L17.6471 51.2024L11.4118 41.6494L0.494141 41.8612Z" fill="#E4761B" stroke="#E4761B" stroke-linecap="round" stroke-linejoin="round"/>
<path d="M16.8944 25.5089L13.1768 31.1324L26.4238 31.7206L25.9532 17.4854L16.8944 25.5089Z" fill="#E4761B" stroke="#E4761B" stroke-linecap="round" stroke-linejoin="round"/>
<path d="M43.082 25.5085L33.9055 17.3203L33.5996 31.7203L46.8231 31.1321L43.082 25.5085Z" fill="#E4761B" stroke="#E4761B" stroke-linecap="round" stroke-linejoin="round"/>
<path d="M17.6475 51.2021L25.6004 47.3198L18.7298 41.9551L17.6475 51.2021Z" fill="#E4761B" stroke="#E4761B" stroke-linecap="round" stroke-linejoin="round"/>
<path d="M34.377 47.3198L42.3534 51.2021L41.2475 41.9551L34.377 47.3198Z" fill="#E4761B" stroke="#E4761B" stroke-linecap="round" stroke-linejoin="round"/>
<path d="M42.3534 51.2027L34.377 47.3203L35.0123 52.5203L34.9417 54.7085L42.3534 51.2027Z" fill="#D7C1B3" stroke="#D7C1B3" stroke-linecap="round" stroke-linejoin="round"/>
<path d="M17.6475 51.2027L25.0592 54.7085L25.0122 52.5203L25.6004 47.3203L17.6475 51.2027Z" fill="#D7C1B3" stroke="#D7C1B3" stroke-linecap="round" stroke-linejoin="round"/>
<path d="M25.1763 38.5199L18.541 36.567L23.2234 34.4258L25.1763 38.5199Z" fill="#233447" stroke="#233447" stroke-linecap="round" stroke-linejoin="round"/>
<path d="M34.7998 38.5199L36.7527 34.4258L41.4586 36.567L34.7998 38.5199Z" fill="#233447" stroke="#233447" stroke-linecap="round" stroke-linejoin="round"/>
<path d="M17.6474 51.2024L18.7768 41.6494L11.4121 41.8612L17.6474 51.2024Z" fill="#CD6116" stroke="#CD6116" stroke-linecap="round" stroke-linejoin="round"/>
<path d="M41.2236 41.6494L42.353 51.2024L48.5883 41.8612L41.2236 41.6494Z" fill="#CD6116" stroke="#CD6116" stroke-linecap="round" stroke-linejoin="round"/>
<path d="M46.8241 31.1318L33.6006 31.7201L34.8241 38.5201L36.7771 34.426L41.4829 36.5671L46.8241 31.1318Z" fill="#CD6116" stroke="#CD6116" stroke-linecap="round" stroke-linejoin="round"/>
<path d="M18.5415 36.5671L23.2473 34.426L25.1768 38.5201L26.4238 31.7201L13.1768 31.1318L18.5415 36.5671Z" fill="#CD6116" stroke="#CD6116" stroke-linecap="round" stroke-linejoin="round"/>
<path d="M13.1768 31.1318L18.7297 41.9554L18.5415 36.5671L13.1768 31.1318Z" fill="#E4751F" stroke="#E4751F" stroke-linecap="round" stroke-linejoin="round"/>
<path d="M41.4824 36.5671L41.2471 41.9554L46.8235 31.1318L41.4824 36.5671Z" fill="#E4751F" stroke="#E4751F" stroke-linecap="round" stroke-linejoin="round"/>
<path d="M26.4238 31.7197L25.1768 38.5197L26.7297 46.5433L27.0826 35.9785L26.4238 31.7197Z" fill="#E4751F" stroke="#E4751F" stroke-linecap="round" stroke-linejoin="round"/>
<path d="M33.6001 31.7197L32.9648 35.955L33.2472 46.5433L34.8237 38.5197L33.6001 31.7197Z" fill="#E4751F" stroke="#E4751F" stroke-linecap="round" stroke-linejoin="round"/>
<path d="M34.8235 38.5203L33.2471 46.5439L34.3765 47.3203L41.2471 41.9556L41.4824 36.5674L34.8235 38.5203Z" fill="#F6851B" stroke="#F6851B" stroke-linecap="round" stroke-linejoin="round"/>
<path d="M18.541 36.5674L18.7293 41.9556L25.5998 47.3203L26.7292 46.5439L25.1763 38.5203L18.541 36.5674Z" fill="#F6851B" stroke="#F6851B" stroke-linecap="round" stroke-linejoin="round"/>
<path d="M34.9416 54.708L35.0122 52.5198L34.4239 52.0022H25.5533L25.0122 52.5198L25.0592 54.708L17.6475 51.2021L20.2357 53.3198L25.4828 56.9669H34.4945L39.7651 53.3198L42.3533 51.2021L34.9416 54.708Z" fill="#C0AD9E" stroke="#C0AD9E" stroke-linecap="round" stroke-linejoin="round"/>
<path d="M34.3764 47.3204L33.247 46.5439H26.7294L25.6 47.3204L25.0117 52.5204L25.5529 52.0028H34.4235L35.0117 52.5204L34.3764 47.3204Z" fill="#161616" stroke="#161616" stroke-linecap="round" stroke-linejoin="round"/>
<path d="M58.0005 19.8614L60.0005 10.2614L57.0123 1.34375L34.377 18.1438L43.0828 25.5085L55.3887 29.1085L58.1181 25.932L56.9417 25.0849L58.824 23.3673L57.3652 22.2379L59.2475 20.8026L58.0005 19.8614Z" fill="#763D16" stroke="#763D16" stroke-linecap="round" stroke-linejoin="round"/>
<path d="M0 10.2614L2 19.8614L0.729412 20.8026L2.61177 22.2379L1.17647 23.3673L3.05882 25.0849L1.88235 25.932L4.58824 29.1085L16.8941 25.5085L25.6 18.1438L2.96471 1.34375L0 10.2614Z" fill="#763D16" stroke="#763D16" stroke-linecap="round" stroke-linejoin="round"/>
<path d="M55.3883 29.1088L43.0824 25.5088L46.8235 31.1323L41.2471 41.9559L48.5882 41.8617H59.5294L55.3883 29.1088Z" fill="#F6851B" stroke="#F6851B" stroke-linecap="round" stroke-linejoin="round"/>
<path d="M16.8941 25.5088L4.58826 29.1088L0.494141 41.8617H11.4118L18.7294 41.9559L13.1765 31.1323L16.8941 25.5088Z" fill="#F6851B" stroke="#F6851B" stroke-linecap="round" stroke-linejoin="round"/>
<path d="M33.5997 31.7207L34.3762 18.1442L37.9527 8.47363H22.0703L25.5997 18.1442L26.4233 31.7207L26.7056 36.003L26.7291 46.5442H33.2468L33.2938 36.003L33.5997 31.7207Z" fill="#F6851B" stroke="#F6851B" stroke-linecap="round" stroke-linejoin="round"/>
</svg>
