<svg width="133" height="170" viewBox="0 0 133 170" fill="none" xmlns="http://www.w3.org/2000/svg">
<path d="M86.8834 48.5173C87.3223 48.3194 87.7179 48.0368 88.0476 47.6859C88.3772 47.335 88.6344 46.9225 88.8046 46.4721C88.9747 46.0217 89.0543 45.5422 89.039 45.061C89.0236 44.5797 88.9135 44.1063 88.7151 43.6676L73.6511 10.3196C73.25 9.4344 72.5142 8.7444 71.605 8.40101C70.6959 8.05763 69.6876 8.0889 68.8015 8.48797L38.2955 22.2743C37.8566 22.4722 37.461 22.7547 37.1313 23.1057C36.8017 23.4566 36.5445 23.869 36.3744 24.3195C36.2042 24.7699 36.1246 25.2494 36.1399 25.7306C36.1553 26.2119 36.2654 26.6853 36.4638 27.124L51.5278 60.4654C51.7257 60.9044 52.0082 61.2999 52.3591 61.6296C52.71 61.9592 53.1225 62.2165 53.5729 62.3866C54.0233 62.5567 54.5029 62.6364 54.9841 62.621C55.4653 62.6057 55.9388 62.4956 56.3774 62.2971C55.9385 62.495 55.5429 62.7775 55.2133 63.1284C54.8836 63.4794 54.6264 63.8918 54.4563 64.3422C54.2862 64.7927 54.2065 65.2722 54.2219 65.7534C54.2372 66.2346 54.3473 66.7081 54.5458 67.1468L59.1608 77.3611C59.3587 77.8 59.6412 78.1955 59.9921 78.5252C60.3431 78.8548 60.7555 79.1121 61.2059 79.2822C61.6563 79.4523 62.1359 79.532 62.6171 79.5166C63.0983 79.5013 63.5718 79.3912 64.0104 79.1927L94.5295 65.4129C94.9681 65.2156 95.3636 64.9338 95.6931 64.5834C96.0227 64.2331 96.28 63.8212 96.4501 63.3713C96.6202 62.9214 96.7 62.4424 96.6847 61.9617C96.6694 61.4809 96.5595 61.0079 96.3611 60.5697L91.7461 50.3554C91.5482 49.9165 91.2657 49.521 90.9148 49.1913C90.5639 48.8617 90.1514 48.6044 89.701 48.4343C89.2506 48.2642 88.771 48.1845 88.2898 48.1999C87.8086 48.2152 87.3351 48.3253 86.8965 48.5238L86.8834 48.5173Z" fill="#263238"/>
<path opacity="0.3" d="M86.8834 48.5173C87.3223 48.3194 87.7179 48.0368 88.0476 47.6859C88.3772 47.335 88.6344 46.9225 88.8046 46.4721C88.9747 46.0217 89.0543 45.5422 89.039 45.061C89.0236 44.5797 88.9135 44.1063 88.7151 43.6676L73.6511 10.3196C73.25 9.4344 72.5142 8.7444 71.605 8.40101C70.6959 8.05763 69.6876 8.0889 68.8015 8.48797L38.2955 22.2743C37.8566 22.4722 37.461 22.7547 37.1313 23.1057C36.8017 23.4566 36.5445 23.869 36.3744 24.3195C36.2042 24.7699 36.1246 25.2494 36.1399 25.7306C36.1553 26.2119 36.2654 26.6853 36.4638 27.124L51.5278 60.4654C51.7257 60.9044 52.0082 61.2999 52.3591 61.6296C52.71 61.9592 53.1225 62.2165 53.5729 62.3866C54.0233 62.5567 54.5029 62.6364 54.9841 62.621C55.4653 62.6057 55.9388 62.4956 56.3774 62.2971C55.9385 62.495 55.5429 62.7775 55.2133 63.1284C54.8836 63.4794 54.6264 63.8918 54.4563 64.3422C54.2862 64.7927 54.2065 65.2722 54.2219 65.7534C54.2372 66.2346 54.3473 66.7081 54.5458 67.1468L59.1608 77.3611C59.3587 77.8 59.6412 78.1955 59.9921 78.5252C60.3431 78.8548 60.7555 79.1121 61.2059 79.2822C61.6563 79.4523 62.1359 79.532 62.6171 79.5166C63.0983 79.5013 63.5718 79.3912 64.0104 79.1927L94.5295 65.4129C94.9681 65.2156 95.3636 64.9338 95.6931 64.5834C96.0227 64.2331 96.28 63.8212 96.4501 63.3713C96.6202 62.9214 96.7 62.4424 96.6847 61.9617C96.6694 61.4809 96.5595 61.0079 96.3611 60.5697L91.7461 50.3554C91.5482 49.9165 91.2657 49.521 90.9148 49.1913C90.5639 48.8617 90.1514 48.6044 89.701 48.4343C89.2506 48.2642 88.771 48.1845 88.2898 48.1999C87.8086 48.2152 87.3351 48.3253 86.8965 48.5238L86.8834 48.5173Z" fill="white"/>
<path d="M86.8834 48.5173C87.3223 48.3194 87.7179 48.0368 88.0476 47.6859C88.3772 47.335 88.6345 46.9225 88.8046 46.4721C88.9747 46.0217 89.0544 45.5422 89.039 45.061C89.0237 44.5797 88.9136 44.1063 88.7151 43.6676L73.6512 10.3196C73.2501 9.4344 72.5142 8.7444 71.6051 8.40101C70.6959 8.05763 69.6876 8.0889 68.8015 8.48797L58.17 13.2659C57.7314 13.4632 57.3359 13.7451 57.0063 14.0954C56.6768 14.4457 56.4195 14.8576 56.2494 15.3075C56.0792 15.7574 55.9995 16.2364 56.0148 16.7171C56.0301 17.1979 56.14 17.6709 56.3384 18.1091L71.4023 51.4571C71.6002 51.896 71.8827 52.2916 72.2337 52.6212C72.5846 52.9509 72.997 53.2081 73.4475 53.3782C73.8979 53.5483 74.3774 53.628 74.8586 53.6126C75.3399 53.5973 75.8133 53.4872 76.252 53.2887C75.8131 53.4866 75.4175 53.7691 75.0879 54.1201C74.7582 54.471 74.501 54.8834 74.3308 55.3339C74.1607 55.7843 74.0811 56.2638 74.0964 56.745C74.1118 57.2262 74.2218 57.6997 74.4203 58.1384L79.0353 68.3527C79.4364 69.2379 80.1722 69.9279 81.0814 70.2713C81.9906 70.6147 82.9989 70.5834 83.885 70.1843L94.5295 65.4129C94.9682 65.2156 95.3636 64.9338 95.6932 64.5834C96.0228 64.2331 96.28 63.8212 96.4501 63.3713C96.6203 62.9214 96.7 62.4424 96.6847 61.9617C96.6695 61.4809 96.5595 61.0079 96.3612 60.5697L91.7462 50.3554C91.5482 49.9165 91.2657 49.521 90.9148 49.1913C90.5639 48.8617 90.1514 48.6044 89.701 48.4343C89.2506 48.2642 88.7711 48.1845 88.2898 48.1999C87.8086 48.2152 87.3351 48.3253 86.8965 48.5238L86.8834 48.5173Z" fill="#263238"/>
<path opacity="0.6" d="M86.8834 48.5173C87.3223 48.3194 87.7179 48.0368 88.0476 47.6859C88.3772 47.335 88.6345 46.9225 88.8046 46.4721C88.9747 46.0217 89.0544 45.5422 89.039 45.061C89.0237 44.5797 88.9136 44.1063 88.7151 43.6676L73.6512 10.3196C73.2501 9.4344 72.5142 8.7444 71.6051 8.40101C70.6959 8.05763 69.6876 8.0889 68.8015 8.48797L58.17 13.2659C57.7314 13.4632 57.3359 13.7451 57.0063 14.0954C56.6768 14.4457 56.4195 14.8576 56.2494 15.3075C56.0792 15.7574 55.9995 16.2364 56.0148 16.7171C56.0301 17.1979 56.14 17.6709 56.3384 18.1091L71.4023 51.4571C71.6002 51.896 71.8827 52.2916 72.2337 52.6212C72.5846 52.9509 72.997 53.2081 73.4475 53.3782C73.8979 53.5483 74.3774 53.628 74.8586 53.6126C75.3399 53.5973 75.8133 53.4872 76.252 53.2887C75.8131 53.4866 75.4175 53.7691 75.0879 54.1201C74.7582 54.471 74.501 54.8834 74.3308 55.3339C74.1607 55.7843 74.0811 56.2638 74.0964 56.745C74.1118 57.2262 74.2218 57.6997 74.4203 58.1384L79.0353 68.3527C79.4364 69.2379 80.1722 69.9279 81.0814 70.2713C81.9906 70.6147 82.9989 70.5834 83.885 70.1843L94.5295 65.4129C94.9682 65.2156 95.3636 64.9338 95.6932 64.5834C96.0228 64.2331 96.28 63.8212 96.4501 63.3713C96.6203 62.9214 96.7 62.4424 96.6847 61.9617C96.6695 61.4809 96.5595 61.0079 96.3612 60.5697L91.7462 50.3554C91.5482 49.9165 91.2657 49.521 90.9148 49.1913C90.5639 48.8617 90.1514 48.6044 89.701 48.4343C89.2506 48.2642 88.7711 48.1845 88.2898 48.1999C87.8086 48.2152 87.3351 48.3253 86.8965 48.5238L86.8834 48.5173Z" fill="white"/>
<path d="M88.7272 51.6438L77.7434 56.6055L79.9492 61.4885L90.933 56.5268L88.7272 51.6438Z" fill="#263238"/>
<path d="M84.1587 65.1652C84.2527 65.3892 84.2784 65.6359 84.2326 65.8744C84.1868 66.113 84.0715 66.3326 83.9012 66.5058C83.731 66.679 83.5133 66.798 83.2756 66.8479C83.0379 66.8977 82.7907 66.8762 82.5652 66.786C82.3397 66.6958 82.1459 66.5409 82.0081 66.3409C81.8704 66.1409 81.7948 65.9046 81.7909 65.6617C81.7871 65.4189 81.8551 65.1803 81.9864 64.976C82.1177 64.7717 82.3065 64.6107 82.5291 64.5134C82.6787 64.4479 82.8399 64.4129 83.0032 64.4103C83.1665 64.4077 83.3287 64.4376 83.4803 64.4983C83.6319 64.5589 83.77 64.6491 83.8865 64.7636C84.0029 64.8781 84.0954 65.0146 84.1587 65.1652Z" fill="#917EF7"/>
<path d="M88.4934 63.2097C88.5887 63.4347 88.6153 63.6829 88.5699 63.923C88.5245 64.1631 88.4091 64.3844 88.2382 64.5591C88.0672 64.7337 87.8485 64.8539 87.6094 64.9045C87.3703 64.9551 87.1216 64.9338 86.8946 64.8434C86.6676 64.7529 86.4724 64.5974 86.3336 64.3962C86.1949 64.1951 86.1187 63.9574 86.1147 63.7131C86.1107 63.4687 86.1791 63.2287 86.3112 63.0231C86.4433 62.8176 86.6333 62.6557 86.8573 62.5579C87.0074 62.4923 87.169 62.4572 87.3328 62.4545C87.4965 62.4518 87.6592 62.4817 87.8114 62.5423C87.9635 62.6029 88.1022 62.6931 88.2192 62.8077C88.3363 62.9223 88.4295 63.0589 88.4934 63.2097Z" fill="#917EF7"/>
<path d="M25.0892 11.1215L21.0153 13.3051C20.3048 13.6832 20.1483 14.7653 20.6568 15.7235C21.1652 16.6817 22.1625 17.1445 22.873 16.7599L26.947 14.5697C27.6575 14.1916 27.8139 13.1031 27.3055 12.1514C26.797 11.1997 25.7997 10.7434 25.0892 11.1215Z" fill="#263238"/>
<path d="M23.2445 14.3413C23.7595 15.2995 23.5965 16.3816 22.8925 16.7596C22.1886 17.1377 21.1913 16.6749 20.6763 15.7232C20.1614 14.7715 20.3243 13.683 21.0348 13.3049C21.7453 12.9268 22.7296 13.3896 23.2445 14.3413Z" fill="#917EF7"/>
<path opacity="0.4" d="M23.2445 14.3413C23.7595 15.2995 23.5965 16.3816 22.8925 16.7596C22.1886 17.1377 21.1913 16.6749 20.6763 15.7232C20.1614 14.7715 20.3243 13.683 21.0348 13.3049C21.7453 12.9268 22.7296 13.3896 23.2445 14.3413Z" fill="white"/>
<path d="M23.1663 14.3871C23.577 15.1498 23.4531 16.0167 22.886 16.3426C22.3189 16.6686 21.5237 16.2775 21.113 15.5148C20.8961 15.2159 20.8046 14.8441 20.8582 14.4786C20.9118 14.1132 21.1062 13.7833 21.3998 13.5593C21.9669 13.266 22.7556 13.6245 23.1663 14.3871Z" fill="#917EF7"/>
<path opacity="0.5" d="M22.0713 14.0743C22.1312 14.1632 22.1557 14.2714 22.1401 14.3775C22.1244 14.4836 22.0696 14.58 21.9865 14.6479C21.8845 14.6835 21.7726 14.6775 21.6749 14.6311C21.5773 14.5847 21.5019 14.5018 21.4651 14.4002C21.4024 14.3133 21.3763 14.2053 21.3921 14.0994C21.4079 13.9934 21.4645 13.8979 21.5498 13.8331C21.7128 13.7418 21.9474 13.8526 22.0713 14.0743Z" fill="white"/>
<path opacity="0.2" d="M22.7101 15.2736C22.7722 15.3613 22.7987 15.4693 22.7842 15.5758C22.7697 15.6823 22.7152 15.7793 22.6318 15.8472C22.5607 15.9192 22.4687 15.967 22.3689 15.9839C22.2691 16.0007 22.1665 15.9857 22.0756 15.941C21.9848 15.8963 21.9103 15.8242 21.8628 15.7348C21.8152 15.6454 21.797 15.5434 21.8107 15.4431C21.8244 15.3428 21.8693 15.2493 21.939 15.1759C22.0087 15.1025 22.0998 15.053 22.1993 15.0342C22.2988 15.0155 22.4016 15.0285 22.4933 15.0715C22.585 15.1144 22.6608 15.1851 22.7101 15.2736Z" fill="black"/>
<path d="M33.9934 33.2968L49.1421 25.1618C49.0061 24.4397 49.0306 23.6964 49.2138 22.9847C49.8405 20.5121 49.734 17.9105 48.9073 15.4974C48.0806 13.0843 46.5694 10.9639 44.5582 9.39497C42.547 7.82604 40.1226 6.87636 37.5808 6.66181C35.0391 6.44726 32.4898 6.9771 30.244 8.18669C27.9983 9.39628 26.1531 11.2333 24.9336 13.4737C23.7141 15.7141 23.173 18.261 23.3763 20.8037C23.5796 23.3464 24.5186 25.775 26.0786 27.7931C27.6386 29.8113 29.7523 31.3318 32.1617 32.1691C32.8473 32.4067 33.4726 32.7916 33.9934 33.2968Z" fill="#917EF7"/>
<path d="M40.075 21.6226C41.7893 24.1712 43.9078 27.0654 46.5934 27.6325C46.7147 28.9029 46.466 30.1812 45.8773 31.3135C45.2886 32.4457 44.3851 33.3836 43.2755 34.014C40.453 35.6631 39.7425 33.0884 39.6122 31.6022C40.1597 29.575 38.7974 28.343 37.9435 27.3783L40.075 21.6226Z" fill="#FF8B7B"/>
<path opacity="0.2" d="M39.9185 23.3759C39.8142 23.213 39.6969 23.05 39.5861 22.8936L37.963 27.3782C38.6076 27.9896 39.1374 28.7115 39.5274 29.5097C40.5247 27.6846 40.9354 24.9403 39.9185 23.3759Z" fill="black"/>
<path d="M39.1299 17.1182C40.4335 20.9771 41.4308 23.1608 40.3423 25.8919C38.6996 29.9985 33.3676 30.2397 30.9232 26.8697C28.72 23.8321 26.9144 18.0373 29.9585 14.9867C30.6208 14.312 31.4454 13.8188 32.3533 13.5546C33.2611 13.2904 34.2216 13.2641 35.1425 13.4781C36.0634 13.6922 36.9139 14.1394 37.6121 14.7768C38.3104 15.4143 38.833 16.2206 39.1299 17.1182Z" fill="#FF8B7B"/>
<path d="M41.9784 20.3906C41.8709 21.4097 41.3677 22.346 40.577 22.9979C39.521 23.8583 38.465 23.0435 38.3151 21.7594C38.1782 20.6057 38.5693 18.774 39.8404 18.4155C40.1209 18.342 40.4154 18.3404 40.6967 18.4106C40.978 18.4809 41.2371 18.6209 41.4501 18.8177C41.6631 19.0144 41.8232 19.2616 41.9155 19.5365C42.0078 19.8114 42.0294 20.1051 41.9784 20.3906Z" fill="#FF8B7B"/>
<path d="M33.7391 20.8078C33.8695 21.1142 33.8108 21.4596 33.6088 21.5183C33.4067 21.577 33.146 21.4205 33.0221 21.1142C32.8983 20.8078 32.9504 20.4623 33.1525 20.4102C33.3545 20.358 33.6153 20.5014 33.7391 20.8078Z" fill="#263238"/>
<path d="M29.9911 22.535C30.1214 22.8414 30.0628 23.1869 29.8607 23.2455C29.6587 23.3042 29.3979 23.1478 29.2741 22.8414C29.1502 22.535 29.2024 22.1896 29.4044 22.1374C29.6065 22.0853 29.8672 22.2352 29.9911 22.535Z" fill="#263238"/>
<path d="M31.2426 22.3918C31.2014 23.4813 31.0128 24.5601 30.682 25.5989C30.9475 25.6776 31.2271 25.6968 31.5009 25.6551C31.7747 25.6134 32.0359 25.5119 32.266 25.3577L31.2426 22.3918Z" fill="#FF5652"/>
<path d="M33.5893 18.787C33.6162 18.7659 33.6347 18.7359 33.6414 18.7023C33.6507 18.6784 33.6549 18.6528 33.654 18.6272C33.653 18.6016 33.6469 18.5764 33.6359 18.5533C33.625 18.5301 33.6094 18.5094 33.5902 18.4924C33.5709 18.4755 33.5485 18.4626 33.5241 18.4546C33.2358 18.3464 32.9255 18.3101 32.62 18.3487C32.3145 18.3873 32.023 18.4997 31.7707 18.6762C31.7302 18.7083 31.704 18.7551 31.6979 18.8064C31.6918 18.8577 31.7062 18.9093 31.7381 18.95C31.7735 18.9854 31.8216 19.0053 31.8717 19.0053C31.9218 19.0053 31.9699 18.9854 32.0053 18.95C32.2085 18.8146 32.4411 18.7298 32.6838 18.7026C32.9264 18.6754 33.1721 18.7066 33.4002 18.7936C33.4293 18.8098 33.4623 18.8178 33.4957 18.8167C33.529 18.8155 33.5614 18.8053 33.5893 18.787Z" fill="#263238"/>
<path d="M28.0486 21.3815C28.0801 21.3742 28.1092 21.3591 28.1332 21.3374C28.1571 21.3157 28.1751 21.2882 28.1855 21.2576C28.2619 21.0256 28.3921 20.8149 28.5654 20.6428C28.7387 20.4706 28.9503 20.3418 29.1828 20.2668C29.2327 20.2545 29.2758 20.2229 29.3027 20.1789C29.3295 20.135 29.338 20.0823 29.3262 20.0321C29.3152 19.9823 29.2852 19.9388 29.2426 19.9108C29.2 19.8828 29.1481 19.8725 29.098 19.8822C28.7968 19.9699 28.5211 20.1289 28.2942 20.3455C28.0673 20.5622 27.8958 20.8303 27.7944 21.1272C27.7792 21.1757 27.7829 21.2281 27.8046 21.274C27.8264 21.3199 27.8646 21.3559 27.9117 21.3749C27.9554 21.392 28.0035 21.3943 28.0486 21.3815Z" fill="#263238"/>
<path d="M32.3638 26.0288C33.255 25.4261 34.2024 24.9109 35.1927 24.4905C35.2319 24.9302 35.1255 25.3705 34.89 25.7439C34.6544 26.1172 34.3028 26.4028 33.8891 26.5568C33.7572 26.6365 33.6095 26.6863 33.4563 26.7025C33.3031 26.7187 33.1482 26.701 33.0026 26.6506C32.857 26.6002 32.7243 26.5184 32.6139 26.4109C32.5035 26.3034 32.4181 26.173 32.3638 26.0288Z" fill="#263238"/>
<path d="M34.1564 25.7877C33.7194 25.9636 33.3481 26.2711 33.0939 26.6677C33.3562 26.7156 33.627 26.6743 33.863 26.5503C34.2994 26.3763 34.6692 26.0682 34.919 25.6703C34.6588 25.6224 34.3901 25.6637 34.1564 25.7877Z" fill="#FF5652"/>
<path d="M32.4551 25.9639C32.5064 26.0372 32.5787 26.0932 32.6625 26.1246C32.7462 26.156 32.8376 26.1613 32.9244 26.1399C33.5633 25.8461 34.1742 25.4948 34.7496 25.0904C34.848 25.0333 34.9309 24.9529 34.9911 24.8563C35.0513 24.7598 35.087 24.6499 35.095 24.5364C34.1779 24.94 33.295 25.4174 32.4551 25.9639Z" fill="white"/>
<path d="M27.1425 17.5943C27.1544 17.7535 27.2088 17.9066 27.2999 18.0376C27.391 18.1687 27.5156 18.2729 27.6607 18.3395C27.8058 18.406 27.9661 18.4325 28.1249 18.4161C28.2836 18.3996 28.4351 18.341 28.5635 18.2462C30.167 17.0794 33.2567 15.189 34.5604 16.8447C36.366 19.1327 36.9657 25.475 40.7463 23.5586C42.4867 22.6787 42.5715 20.4559 41.9392 17.9333C41.1961 14.9674 39.2732 11.7017 35.1471 11.4605C31.0209 11.2194 27.1034 14.7197 27.1425 17.5943Z" fill="#263238"/>
<path d="M38.7126 28.5318C38.7126 28.5318 40.6682 27.3194 41.9718 23.7734C41.9718 23.7734 44.6704 27.176 46.8215 27.163C46.8215 27.163 47.695 33.0295 42.9105 34.6461C38.126 36.2626 39.2993 31.3413 39.2993 31.3413C39.4562 30.8626 39.4846 30.3512 39.3817 29.8581C39.2787 29.365 39.048 28.9077 38.7126 28.5318Z" fill="#263238"/>
<path opacity="0.5" d="M38.7126 28.5318C38.7126 28.5318 40.6682 27.3194 41.9718 23.7734C41.9718 23.7734 44.6704 27.176 46.8215 27.163C46.8215 27.163 47.695 33.0295 42.9105 34.6461C38.126 36.2626 39.2993 31.3413 39.2993 31.3413C39.4562 30.8626 39.4846 30.3512 39.3817 29.8581C39.2787 29.365 39.048 28.9077 38.7126 28.5318Z" fill="white"/>
<path d="M38.9082 28.9098C40.5769 27.8473 41.6459 25.7614 42.3368 23.9884C42.5389 23.4735 41.7697 23.0759 41.5677 23.5973C40.9158 25.24 39.9902 27.1955 38.4389 28.1602C38.3914 28.191 38.3504 28.2309 38.3183 28.2775C38.2862 28.3242 38.2636 28.3767 38.2518 28.4321C38.24 28.4875 38.2392 28.5446 38.2495 28.6003C38.2598 28.656 38.2809 28.7091 38.3118 28.7566C38.3426 28.8041 38.3824 28.8451 38.4291 28.8772C38.4758 28.9093 38.5283 28.9319 38.5836 28.9437C38.639 28.9555 38.6962 28.9563 38.7519 28.946C38.8076 28.9357 38.8607 28.9146 38.9082 28.8837V28.9098Z" fill="#917EF7"/>
<g opacity="0.3">
<path d="M38.9082 28.9098C40.5769 27.8473 41.6459 25.7614 42.3368 23.9884C42.5389 23.4735 41.7697 23.0759 41.5677 23.5973C40.9158 25.24 39.9902 27.1955 38.4389 28.1602C38.3914 28.191 38.3504 28.2309 38.3183 28.2775C38.2862 28.3242 38.2636 28.3767 38.2518 28.4321C38.24 28.4875 38.2392 28.5446 38.2495 28.6003C38.2598 28.656 38.2809 28.7091 38.3118 28.7566C38.3426 28.8041 38.3824 28.8451 38.4291 28.8772C38.4758 28.9093 38.5283 28.9319 38.5836 28.9437C38.639 28.9555 38.6962 28.9563 38.7519 28.946C38.8076 28.9357 38.8607 28.9146 38.9082 28.8837V28.9098Z" fill="white"/>
</g>
<path opacity="0.5" d="M27.1425 17.5943C27.1544 17.7535 27.2088 17.9066 27.2999 18.0376C27.391 18.1687 27.5156 18.2729 27.6607 18.3395C27.8058 18.406 27.9661 18.4325 28.1249 18.4161C28.2836 18.3996 28.4351 18.341 28.5635 18.2462C30.167 17.0794 33.2567 15.189 34.5604 16.8447C36.366 19.1327 36.9657 25.475 40.7463 23.5586C42.4867 22.6787 42.5715 20.4559 41.9392 17.9333C41.1961 14.9674 39.2732 11.7017 35.1471 11.4605C31.0209 11.2194 27.1034 14.7197 27.1425 17.5943Z" fill="white"/>
<path d="M41.5286 17.692C42.1804 19.3542 42.0175 20.2081 40.5834 20.7947C39.1494 21.3814 38.4193 20.9186 37.7349 19.2564C37.0505 17.5942 37.246 16.7403 38.6735 16.1537C40.1011 15.567 40.8376 16.0298 41.5286 17.692Z" fill="#263238"/>
<path d="M29.789 8.45539C28.304 9.33264 27.0079 10.4958 25.9757 11.8775L26.3473 11.6689C32.7418 8.23377 40.0358 9.38751 42.6432 14.2372C45.2505 19.0868 42.1804 25.8073 35.7924 29.2294C33.9567 30.2267 31.9481 30.866 29.8737 31.1132C30.6008 31.5376 31.367 31.8912 32.1617 32.1692C32.8472 32.4068 33.4725 32.7917 33.9933 33.2969L49.142 25.162C49.006 24.4398 49.0305 23.6965 49.2137 22.9848C49.8482 20.4699 49.7243 17.8235 48.8575 15.3788C47.9908 12.9342 46.42 10.8008 44.343 9.2472C42.266 7.69364 39.7757 6.78946 37.1858 6.64856C34.5959 6.50766 32.0222 7.13633 29.789 8.45539Z" fill="#917EF7"/>
<path opacity="0.7" d="M29.789 8.45539C28.304 9.33264 27.0079 10.4958 25.9757 11.8775L26.3473 11.6689C32.7418 8.23377 40.0358 9.38751 42.6432 14.2372C45.2505 19.0868 42.1804 25.8073 35.7924 29.2294C33.9567 30.2267 31.9481 30.866 29.8737 31.1132C30.6008 31.5376 31.367 31.8912 32.1617 32.1692C32.8472 32.4068 33.4725 32.7917 33.9933 33.2969L49.142 25.162C49.006 24.4398 49.0305 23.6965 49.2137 22.9848C49.8482 20.4699 49.7243 17.8235 48.8575 15.3788C47.9908 12.9342 46.42 10.8008 44.343 9.2472C42.266 7.69364 39.7757 6.78946 37.1858 6.64856C34.5959 6.50766 32.0222 7.13633 29.789 8.45539Z" fill="white"/>
<path d="M26.5038 11.2127C26.0736 11.7221 25.6815 12.2624 25.3304 12.8292C25.7281 12.5685 26.1452 12.3208 26.5755 12.0927C32.7744 8.76178 39.8338 9.7982 42.3108 14.4132C44.7878 19.0282 41.7633 25.4944 35.5643 28.8188C33.609 29.8845 31.4537 30.5326 29.2349 30.7222C29.613 30.9699 29.9976 31.198 30.3952 31.4066C32.3405 31.1079 34.2194 30.475 35.9489 29.5358C42.5585 25.9833 45.7264 19.0412 43.0278 14.0286C40.3292 9.016 33.0352 7.86876 26.5038 11.2127Z" fill="#917EF7"/>
<path opacity="0.4" d="M26.5038 11.2127C26.0736 11.7221 25.6815 12.2624 25.3304 12.8292C25.7281 12.5685 26.1452 12.3208 26.5755 12.0927C32.7744 8.76178 39.8338 9.7982 42.3108 14.4132C44.7878 19.0282 41.7633 25.4944 35.5643 28.8188C33.609 29.8845 31.4537 30.5326 29.2349 30.7222C29.613 30.9699 29.9976 31.198 30.3952 31.4066C32.3405 31.1079 34.2194 30.475 35.9489 29.5358C42.5585 25.9833 45.7264 19.0412 43.0278 14.0286C40.3292 9.016 33.0352 7.86876 26.5038 11.2127Z" fill="black"/>
<path opacity="0.6" d="M28.4983 14.9607C28.9229 14.2118 29.4519 13.527 30.0693 12.927C28.9433 13.1328 27.8481 13.4811 26.8101 13.9634C26.3501 14.7535 25.9868 15.5961 25.728 16.473C26.6104 15.8971 27.5367 15.3914 28.4983 14.9607Z" fill="white"/>
<path opacity="0.6" d="M27.9378 16.134C27.0714 16.5781 26.2391 17.0858 25.4478 17.6528C25.0473 19.8694 25.3319 22.1554 26.2635 24.2061C27.1952 26.2569 28.7296 27.9751 30.6625 29.1317C31.6153 28.8558 32.5371 28.4822 33.4132 28.017H33.4654L33.3481 27.9649C32.202 27.568 31.1482 26.9431 30.2504 26.1277C29.3526 25.3123 28.6294 24.3234 28.1243 23.2208C27.6193 22.1181 27.343 20.9246 27.312 19.7121C27.2811 18.4997 27.4962 17.2936 27.9443 16.1666L27.9378 16.134Z" fill="white"/>
<path d="M39.4208 7.78242C39.4985 7.74071 39.5896 7.73155 39.674 7.75698C39.7584 7.7824 39.8293 7.84033 39.871 7.918L42.1533 12.1675L41.5791 12.4759L39.306 8.24366C39.2828 8.20597 39.2673 8.16401 39.2605 8.12027C39.2537 8.07652 39.2557 8.03184 39.2664 7.98888C39.2771 7.94592 39.2963 7.90553 39.3228 7.87007C39.3493 7.83462 39.3826 7.80482 39.4208 7.78242Z" fill="#263238"/>
<path opacity="0.4" d="M39.4208 7.78242C39.4985 7.74071 39.5896 7.73155 39.674 7.75698C39.7584 7.7824 39.8293 7.84033 39.871 7.918L42.1533 12.1675L41.5791 12.4759L39.306 8.24366C39.2828 8.20597 39.2673 8.16401 39.2605 8.12027C39.2537 8.07652 39.2557 8.03184 39.2664 7.98888C39.2771 7.94592 39.2963 7.90553 39.3228 7.87007C39.3493 7.83462 39.3826 7.80482 39.4208 7.78242Z" fill="white"/>
<path d="M36.919 0.157418C36.9575 0.136755 36.9996 0.123869 37.0431 0.119496C37.0865 0.115122 37.1304 0.119345 37.1722 0.131927C37.214 0.144508 37.2529 0.165208 37.2867 0.19283C37.3205 0.220451 37.3486 0.254452 37.3692 0.292908L43.3824 11.484L42.8082 11.7925L36.795 0.601435C36.7543 0.52575 36.7444 0.437231 36.7676 0.354445C36.7907 0.271658 36.845 0.20104 36.919 0.157418Z" fill="#263238"/>
<path opacity="0.6" d="M36.919 0.157418C36.9575 0.136755 36.9996 0.123869 37.0431 0.119496C37.0865 0.115122 37.1304 0.119345 37.1722 0.131927C37.214 0.144508 37.2529 0.165208 37.2867 0.19283C37.3205 0.220451 37.3486 0.254452 37.3692 0.292908L43.3824 11.484L42.8082 11.7925L36.795 0.601435C36.7543 0.52575 36.7444 0.437231 36.7676 0.354445C36.7907 0.271658 36.845 0.20104 36.919 0.157418Z" fill="white"/>
<path d="M93.5582 72.2374L89.582 67.3486L85.9904 69.0108L87.0789 75.2163L93.5582 72.2374Z" fill="#263238"/>
<path opacity="0.6" d="M90.7357 68.7696L89.582 67.3486L85.9904 69.0108L86.3098 70.8229L90.7357 68.7696Z" fill="black"/>
<path d="M23.7335 50.1273C25.9693 45.7209 31.0275 31.9867 36.2031 34.7896C41.3787 37.5925 32.7353 53.6929 28.2768 58.6143C25.2001 61.9908 16.8957 65.6541 12.0525 67.5966C11.6088 67.7766 11.1308 67.8566 10.6525 67.831C10.1743 67.8053 9.70763 67.6745 9.28568 67.448C8.86374 67.2214 8.4969 66.9047 8.21127 66.5203C7.92564 66.1359 7.72823 65.6933 7.6331 65.2239L7.3528 63.8746C7.19345 63.1103 7.31373 62.3143 7.69175 61.6312C8.06977 60.9481 8.68042 60.4235 9.41262 60.1526C13.4931 58.6534 21.1261 55.2638 23.7335 50.1273Z" fill="#917EF7"/>
<path opacity="0.8" d="M23.7335 50.1273C25.9693 45.7209 31.0275 31.9867 36.2031 34.7896C41.3787 37.5925 32.7353 53.6929 28.2768 58.6143C25.2001 61.9908 16.8957 65.6541 12.0525 67.5966C11.6088 67.7766 11.1308 67.8566 10.6525 67.831C10.1743 67.8053 9.70763 67.6745 9.28568 67.448C8.86374 67.2214 8.4969 66.9047 8.21127 66.5203C7.92564 66.1359 7.72823 65.6933 7.6331 65.2239L7.3528 63.8746C7.19345 63.1103 7.31373 62.3143 7.69175 61.6312C8.06977 60.9481 8.68042 60.4235 9.41262 60.1526C13.4931 58.6534 21.1261 55.2638 23.7335 50.1273Z" fill="white"/>
<path d="M24.4114 49.4234C27.2273 49.6385 30.1215 50.9487 31.6859 53.3344C32.3377 54.3317 33.7587 53.1388 33.1134 52.148C31.3078 49.3712 27.8531 47.8003 24.6069 47.5526C23.4141 47.4613 23.2185 49.306 24.4114 49.3973V49.4234Z" fill="#917EF7"/>
<path d="M18.1668 56.2285C17.9452 56.0329 18.4536 56.5283 18.5383 56.6131C18.9319 57.036 19.2998 57.4823 19.6399 57.9493C20.7186 59.3795 21.4263 61.0547 21.6997 62.8251C21.7378 63.068 21.8707 63.2858 22.0694 63.4307C22.268 63.5755 22.5161 63.6355 22.759 63.5975C23.0018 63.5595 23.2197 63.4265 23.3645 63.2278C23.5094 63.0292 23.5694 62.7811 23.5314 62.5383C23.0336 59.5173 21.5179 56.7573 19.2358 54.7162C18.3558 53.9145 17.2803 55.4332 18.1668 56.2285Z" fill="#917EF7"/>
<g opacity="0.3">
<path d="M24.4114 49.4234C27.2273 49.6385 30.1215 50.9487 31.6859 53.3344C32.3377 54.3317 33.7587 53.1388 33.1134 52.148C31.3078 49.3712 27.8531 47.8003 24.6069 47.5526C23.4141 47.4613 23.2185 49.306 24.4114 49.3973V49.4234Z" fill="white"/>
</g>
<g opacity="0.3">
<path d="M18.1668 56.2285C17.9452 56.0329 18.4536 56.5283 18.5383 56.6131C18.9319 57.036 19.2998 57.4823 19.6399 57.9493C20.7186 59.3795 21.4263 61.0547 21.6997 62.8251C21.7378 63.068 21.8707 63.2858 22.0694 63.4307C22.268 63.5755 22.5161 63.6355 22.759 63.5975C23.0018 63.5595 23.2197 63.4265 23.3645 63.2278C23.5094 63.0292 23.5694 62.7811 23.5314 62.5383C23.0336 59.5173 21.5179 56.7573 19.2358 54.7162C18.3558 53.9145 17.2803 55.4332 18.1668 56.2285Z" fill="white"/>
</g>
<path opacity="0.2" d="M37.7153 39.6066L35.1992 36.1714L33.7913 36.8232C33.7913 36.8232 29.8803 41.6794 34.0976 49.7035C35.8837 46.2227 37.3438 42.5138 37.7153 39.6066Z" fill="black"/>
<path d="M33.9282 34.014C37.1874 30.5592 42.8062 26.1072 50.8043 25.1555C52.1803 25.0051 53.5705 25.2561 54.807 25.8784C56.0435 26.5007 57.0734 27.4676 57.7724 28.6624C61.2858 34.6463 68.2344 47.344 73.0841 61.8605C73.0841 61.8605 58.9196 72.1595 47.1801 73.5935C47.1801 73.5935 40.2967 66.4233 39.2146 54.0906L32.8592 42.3575C32.1358 41.0314 31.8497 39.5108 32.0417 38.0125C32.2336 36.5142 32.8939 35.1148 33.9282 34.014Z" fill="#917EF7"/>
<path d="M47.1865 71.338C50.1963 85.0486 54.4509 98.456 59.8973 111.393C69.0231 133.204 74.0227 142.649 74.0227 142.649L84.8953 138.601L69.701 86.5258C69.701 86.5258 73.1687 76.2463 67.7455 64.2786L47.1865 71.338Z" fill="#917EF7"/>
<path opacity="0.7" d="M47.1865 71.338C50.1963 85.0486 54.4509 98.456 59.8973 111.393C69.0231 133.204 74.0227 142.649 74.0227 142.649L84.8953 138.601L69.701 86.5258C69.701 86.5258 73.1687 76.2463 67.7455 64.2786L47.1865 71.338Z" fill="white"/>
<path opacity="0.2" d="M70.3398 83.5927L65.262 76.7549L62.1657 78.8342C62.1657 78.8342 61.1293 90.626 76.6626 110.474L69.6749 86.5259C69.9661 85.5653 70.1883 84.585 70.3398 83.5927Z" fill="black"/>
<path d="M85.6709 137.174L93.4082 163.149L92.9715 163.345L91.6678 163.208L90.9182 164.257L89.6145 164.121L88.9236 165.144L87.6199 165.007L86.8768 166.063L85.5732 165.926L84.8953 167.002L83.5916 166.865L82.8485 167.914L81.5448 167.777L80.8017 168.833L79.498 168.696L78.7549 169.746L78.1878 170C78.1878 170 75.1177 166.206 82.0858 161.885L72.6603 141.932C77.2177 141.03 81.607 139.425 85.6709 137.174Z" fill="#917EF7"/>
<path opacity="0.5" d="M85.6709 137.174L93.4082 163.149L92.9715 163.345L91.6678 163.208L90.9182 164.257L89.6145 164.121L88.9236 165.144L87.6199 165.007L86.8768 166.063L85.5732 165.926L84.8953 167.002L83.5916 166.865L82.8485 167.914L81.5448 167.777L80.8017 168.833L79.498 168.696L78.7549 169.746L78.1878 170C78.1878 170 75.1177 166.206 82.0858 161.885L72.6603 141.932C77.2177 141.03 81.607 139.425 85.6709 137.174Z" fill="white"/>
<path d="M91.0747 161.885L82.2879 165.867L80.0521 163.332C75.7956 167.034 78.2205 170 78.2205 170L78.7876 169.746L79.5307 168.696L80.8343 168.833L81.5709 167.751L82.8746 167.888L83.6177 166.839L84.9214 166.976L85.6644 165.926L86.9681 166.063L87.7112 165.007L89.0149 165.144L89.758 164.094L91.0616 164.231L91.8113 163.182L93.1149 163.319L93.5517 163.123L92.3849 159.212L91.0747 161.885Z" fill="#263238"/>
<path d="M56.6772 69.4348C56.6772 69.4348 68.8079 94.3154 80.3324 110.129C86.0164 117.951 90.11 123.648 92.7499 127.455C93.8428 129.012 95.4887 130.093 97.3516 130.479C99.2146 130.864 101.154 130.524 102.775 129.528L107.201 126.816C107.201 126.816 86.5118 92.2686 83.6633 83.3645C80.8148 74.4604 71.5131 60.3481 71.5131 60.3481L56.6772 69.4348Z" fill="#917EF7"/>
<path opacity="0.7" d="M56.6772 69.4346C56.6772 69.4346 68.8079 94.3153 80.3324 110.129C86.2381 118.231 90.4033 124.091 93.0498 127.885C94.0517 129.334 95.5709 130.345 97.2949 130.708C99.0189 131.072 100.817 130.761 102.319 129.84L107.201 126.848C107.201 126.848 86.5118 92.3011 83.6633 83.397C80.8148 74.4929 71.5131 60.3806 71.5131 60.3806L56.6772 69.4346Z" fill="white"/>
<path d="M65.9921 38.9874C61.5857 36.7516 47.858 31.6933 50.6609 26.5112C53.4638 21.3291 69.5641 29.979 74.479 34.4376C77.8555 37.5208 81.5188 45.8186 83.4678 50.6618C83.649 51.1059 83.73 51.5846 83.7049 52.0636C83.6798 52.5426 83.5493 53.0102 83.3226 53.4329C83.096 53.8557 82.7788 54.2232 82.3938 54.5093C82.0087 54.7953 81.5653 54.9928 81.0951 55.0878L79.7393 55.3681C78.9742 55.527 78.1775 55.4058 77.4943 55.0265C76.8112 54.6473 76.287 54.0351 76.0173 53.3017C74.5311 49.2212 71.1481 41.5948 65.9921 38.9874Z" fill="#917EF7"/>
<path opacity="0.8" d="M65.9921 38.9874C61.5857 36.7516 47.858 31.6933 50.6609 26.5112C53.4638 21.3291 69.5641 29.979 74.479 34.4376C77.8555 37.5208 81.5188 45.8186 83.4678 50.6618C83.649 51.1059 83.73 51.5846 83.7049 52.0636C83.6798 52.5426 83.5493 53.0102 83.3226 53.4329C83.096 53.8557 82.7788 54.2232 82.3938 54.5093C82.0087 54.7953 81.5653 54.9928 81.0951 55.0878L79.7393 55.3681C78.9742 55.527 78.1775 55.4058 77.4943 55.0265C76.8112 54.6473 76.287 54.0351 76.0173 53.3017C74.5311 49.2212 71.1481 41.5948 65.9921 38.9874Z" fill="white"/>
<path d="M101.452 115.252L128.96 108.212L129.057 108.682L128.634 109.901L129.494 110.859L129.077 112.078L129.937 113.036L129.514 114.255L130.374 115.213L129.957 116.432L130.817 117.39L130.4 118.609L131.261 119.567L130.837 120.786L131.697 121.745L131.28 122.963L132.141 123.922L132.264 124.528C132.264 124.528 128.112 127.93 125.427 120.174L105.904 128.432C105.904 128.432 104.555 120.48 101.452 115.252Z" fill="#917EF7"/>
<path opacity="0.5" d="M101.452 115.252L128.96 108.212L129.057 108.682L128.634 109.901L129.494 110.859L129.077 112.078L129.937 113.036L129.514 114.255L130.374 115.213L129.957 116.432L130.817 117.39L130.4 118.609L131.261 119.567L130.837 120.786L131.697 121.745L131.28 122.963L132.141 123.922L132.264 124.528C132.264 124.528 128.112 127.93 125.427 120.174L105.904 128.432C105.904 128.432 104.555 120.48 101.452 115.252Z" fill="white"/>
<path d="M129.057 108.682L128.96 108.212L124.534 109.34L127.571 111.139L129.383 120.076L126.489 122.579C129.096 127.142 132.264 124.534 132.264 124.534L132.141 123.928L131.28 122.97L131.697 121.751L130.837 120.819L131.261 119.6L130.4 118.642L130.817 117.423L129.957 116.465L130.374 115.246L129.514 114.288L129.937 113.069L129.077 112.11L129.494 110.891L128.634 109.933L129.057 108.682Z" fill="#263238"/>
<path d="M50.5566 25.1946C42.6954 26.2049 37.1418 30.5983 33.9282 34.0139C33.776 34.1758 33.6324 34.3455 33.498 34.5224C32.5854 37.4752 33.0287 41.0407 33.7522 44.0131L39.2146 54.0644C40.2967 66.4167 47.1801 73.5674 47.1801 73.5674C58.9131 72.1594 73.084 61.8343 73.084 61.8343C70.453 54.1194 67.2748 46.602 63.5738 39.3394C46.5347 33.1274 48.5033 27.6064 50.5566 25.1946Z" fill="#917EF7"/>
<path opacity="0.7" d="M50.5566 25.1946C42.6954 26.2049 37.1418 30.5983 33.9282 34.0139C33.776 34.1758 33.6324 34.3455 33.498 34.5224C32.5854 37.4752 33.0287 41.0407 33.7522 44.0131L39.2146 54.0644C40.2967 66.4167 47.1801 73.5674 47.1801 73.5674C58.9131 72.1594 73.084 61.8343 73.084 61.8343C70.453 54.1194 67.2748 46.602 63.5738 39.3394C46.5347 33.1274 48.5033 27.6064 50.5566 25.1946Z" fill="white"/>
<path d="M50.2372 42.6834C50.7564 42.4348 51.1576 41.9928 51.3551 41.4521C51.5525 40.9113 51.5305 40.3148 51.2937 39.7901C51.0569 39.2654 50.6241 38.8542 50.088 38.6445C49.5519 38.4348 48.955 38.4433 48.4251 38.6681L47.8058 38.9549C47.5426 39.0739 47.3054 39.2436 47.1077 39.4542C46.9101 39.6649 46.7559 39.9124 46.6539 40.1827C46.5519 40.4529 46.5041 40.7406 46.5133 41.0294C46.5225 41.3181 46.5885 41.6022 46.7075 41.8654C46.8265 42.1286 46.9961 42.3658 47.2068 42.5635C47.4175 42.7611 47.665 42.9153 47.9352 43.0173C48.2055 43.1193 48.4932 43.1671 48.7819 43.1579C49.0706 43.1487 49.3547 43.0827 49.6179 42.9637L50.2372 42.6834Z" fill="#263238"/>
<path opacity="0.5" d="M50.713 40.0498C50.8921 40.4456 50.95 40.8856 50.8791 41.3142C50.8082 41.7429 50.6118 42.1409 50.3147 42.4579C50.0176 42.7749 49.6332 42.9967 49.2101 43.0953C48.7869 43.1938 48.344 43.1647 47.9375 43.0115C47.5309 42.8584 47.1789 42.5881 46.9259 42.2349C46.6729 41.8817 46.5304 41.4613 46.5163 41.0271C46.5022 40.5929 46.6172 40.1642 46.8467 39.7953C47.0762 39.4264 47.41 39.1339 47.8058 38.9547C48.3367 38.7162 48.9405 38.6975 49.4852 38.9027C50.0299 39.1078 50.4713 39.5202 50.713 40.0498Z" fill="white"/>
<path d="M49.6571 40.5321C49.7404 40.719 49.7666 40.9264 49.7322 41.1282C49.6978 41.3299 49.6045 41.517 49.464 41.6658C49.3234 41.8146 49.142 41.9185 48.9425 41.9643C48.743 42.0101 48.5344 41.9958 48.3431 41.9233C48.1517 41.8507 47.9861 41.7231 47.8671 41.5565C47.7481 41.39 47.6812 41.1919 47.6746 40.9874C47.668 40.7828 47.7222 40.5809 47.8302 40.4071C47.9383 40.2332 48.0954 40.0953 48.2817 40.0106C48.4062 39.954 48.5406 39.9226 48.6772 39.9183C48.8139 39.9139 48.9501 39.9366 49.0779 39.985C49.2058 40.0335 49.3228 40.1068 49.4222 40.2007C49.5216 40.2946 49.6014 40.4072 49.6571 40.5321Z" fill="#917EF7"/>
<path opacity="0.5" d="M48.1838 34.4506C48.3612 34.8466 48.4174 35.2863 48.3452 35.7142C48.273 36.1421 48.0757 36.5391 47.7781 36.8549C47.4806 37.1708 47.0961 37.3915 46.6733 37.4891C46.2505 37.5867 45.8082 37.5569 45.4023 37.4035C44.9963 37.25 44.645 36.9798 44.3925 36.6268C44.14 36.2739 43.9977 35.854 43.9836 35.4203C43.9694 34.9866 44.0841 34.5584 44.313 34.1898C44.542 33.8211 44.875 33.5285 45.2701 33.349C45.5335 33.2283 45.8182 33.161 46.1077 33.1512C46.3973 33.1413 46.6859 33.189 46.9569 33.2914C47.2279 33.3939 47.4759 33.5491 47.6865 33.7481C47.8971 33.947 48.0661 34.1858 48.1838 34.4506Z" fill="white"/>
<path d="M47.7406 37.0774C48.0039 36.9584 48.2411 36.7887 48.4387 36.578C48.6364 36.3674 48.7906 36.1199 48.8926 35.8496C48.9946 35.5793 49.0423 35.2917 49.0331 35.0029C49.0239 34.7142 48.958 34.4301 48.839 34.1669C48.72 33.9037 48.5503 33.6665 48.3397 33.4688C48.129 33.2712 47.8815 33.117 47.6112 33.015C47.341 32.913 47.0533 32.8652 46.7645 32.8744C46.4758 32.8836 46.1917 32.9496 45.9285 33.0686L45.2767 33.3489C44.7416 33.5892 44.3239 34.0322 44.1155 34.5804C43.9071 35.1287 43.925 35.7373 44.1653 36.2723C44.4056 36.8074 44.8486 37.2251 45.3969 37.4335C45.9451 37.6419 46.5537 37.624 47.0888 37.3837L47.7406 37.0774Z" fill="#263238"/>
<path d="M47.6298 34.6982C47.7604 34.9859 47.8027 35.3059 47.7514 35.6177C47.7001 35.9294 47.5574 36.219 47.3415 36.4496C47.1255 36.6803 46.846 36.8417 46.5383 36.9135C46.2306 36.9853 45.9086 36.9641 45.6129 36.8528C45.3172 36.7414 45.0611 36.5449 44.8772 36.288C44.6932 36.0311 44.5896 35.7254 44.5794 35.4096C44.5693 35.0938 44.653 34.7821 44.8201 34.5139C44.9871 34.2457 45.23 34.0331 45.5179 33.903C45.9035 33.7287 46.3424 33.7146 46.7384 33.8637C47.1344 34.0128 47.455 34.3129 47.6298 34.6982Z" fill="#917EF7"/>
<path d="M79.6807 48.739L80.6649 50.9227C80.6649 50.9227 77.8425 51.3659 76.1021 52.8456C76.0685 52.8748 76.0285 52.8957 75.9853 52.9064C75.9421 52.9171 75.897 52.9173 75.8537 52.9071C75.8104 52.8969 75.7701 52.8766 75.7362 52.8477C75.7024 52.8189 75.6758 52.7824 75.6588 52.7413L75.0657 51.1638C75.033 51.0754 75.0273 50.9792 75.0493 50.8875C75.0714 50.7959 75.1202 50.7128 75.1895 50.6489C75.8087 50.0883 77.6078 48.6477 79.6807 48.739Z" fill="#917EF7"/>
<path d="M33.4002 33.968L33.0417 33.238C32.9935 33.1402 32.9661 33.0336 32.9612 32.9247C32.9563 32.8159 32.9741 32.7072 33.0132 32.6055C33.0524 32.5039 33.1123 32.4114 33.189 32.334C33.2657 32.2567 33.3576 32.196 33.4589 32.1559C38.6822 29.9504 43.7141 27.3167 48.5033 24.2817C48.6436 24.1949 48.8075 24.1539 48.9722 24.1645C49.1369 24.175 49.2942 24.2364 49.4224 24.3404L49.5984 24.4838C49.7584 24.6119 49.8618 24.7978 49.8862 25.0014C49.9106 25.205 49.854 25.41 49.7287 25.5724C48.2034 27.5279 42.8584 33.5769 34.1889 34.4113C34.0283 34.4245 33.8673 34.3893 33.7267 34.3103C33.5862 34.2313 33.4725 34.1121 33.4002 33.968Z" fill="#917EF7"/>
<path d="M72.2692 61.2476C64.8839 66.5926 55.9277 71.5075 46.815 72.7525C45.6286 72.9154 45.922 74.7471 47.1018 74.5842C56.573 73.2805 65.7834 68.2222 73.4556 62.6751C74.4268 61.9776 73.2405 60.5501 72.2692 61.2476Z" fill="#917EF7"/>
<g opacity="0.3">
<path d="M72.2692 61.2476C64.8839 66.5926 55.9277 71.5075 46.815 72.7525C45.6286 72.9154 45.922 74.7471 47.1018 74.5842C56.573 73.2805 65.7834 68.2222 73.4556 62.6751C74.4268 61.9776 73.2405 60.5501 72.2692 61.2476Z" fill="white"/>
</g>
<path d="M65.301 38.3093C65.5227 35.4869 66.8263 32.5992 69.2121 31.0348C70.2094 30.383 69.0165 28.962 68.0257 29.6073C65.2489 31.4064 63.6845 34.8676 63.4303 38.1138C63.339 39.3001 65.1837 39.4957 65.275 38.3093H65.301Z" fill="#917EF7"/>
<path d="M72.1062 44.5542C71.9107 44.7694 72.4061 44.2674 72.4908 44.1827C72.9046 43.7895 73.3398 43.4196 73.7945 43.0746C75.2285 41.9993 76.9053 41.2941 78.6767 41.0213C78.9196 40.9833 79.1375 40.8503 79.2823 40.6516C79.4272 40.453 79.4872 40.2049 79.4492 39.9621C79.4111 39.7192 79.2782 39.5013 79.0795 39.3565C78.8809 39.2116 78.6328 39.1516 78.3899 39.1896C75.3705 39.6876 72.6113 41.2006 70.5679 43.4787C69.7661 44.3587 71.2849 45.4342 72.0802 44.5542H72.1062Z" fill="#917EF7"/>
<path d="M79.6807 48.739L80.6649 50.9227C80.6649 50.9227 77.8425 51.3659 76.1021 52.8456C76.0685 52.8748 76.0285 52.8957 75.9853 52.9064C75.9421 52.9171 75.897 52.9173 75.8537 52.9071C75.8104 52.8969 75.7701 52.8766 75.7362 52.8477C75.7024 52.8189 75.6758 52.7824 75.6588 52.7413L75.0657 51.1638C75.033 51.0754 75.0273 50.9792 75.0493 50.8875C75.0714 50.7959 75.1202 50.7128 75.1895 50.6489C75.8087 50.0883 77.6078 48.6477 79.6807 48.739Z" fill="#917EF7"/>
<path d="M65.301 38.3093C65.5227 35.4869 66.8263 32.5992 69.2121 31.0348C70.2094 30.383 69.0165 28.962 68.0257 29.6073C65.2489 31.4064 63.6845 34.8676 63.4303 38.1138C63.339 39.3001 65.1837 39.4957 65.275 38.3093H65.301Z" fill="#917EF7"/>
<path d="M72.1062 44.5542C71.9107 44.7694 72.4061 44.2674 72.4908 44.1827C72.9046 43.7895 73.3398 43.4196 73.7945 43.0746C75.2285 41.9993 76.9053 41.2941 78.6767 41.0213C78.9196 40.9833 79.1375 40.8503 79.2823 40.6516C79.4272 40.453 79.4872 40.2049 79.4492 39.9621C79.4111 39.7192 79.2782 39.5013 79.0795 39.3565C78.8809 39.2116 78.6328 39.1516 78.3899 39.1896C75.3705 39.6876 72.6113 41.2006 70.5679 43.4787C69.7661 44.3587 71.2849 45.4342 72.0802 44.5542H72.1062Z" fill="#917EF7"/>
<g opacity="0.3">
<path d="M79.6805 48.739L80.6648 50.9227C80.6648 50.9227 77.8424 51.3659 76.102 52.8456C76.0684 52.8748 76.0284 52.8957 75.9852 52.9064C75.942 52.9171 75.8969 52.9173 75.8536 52.9071C75.8103 52.8969 75.77 52.8766 75.7361 52.8477C75.7022 52.8189 75.6757 52.7824 75.6587 52.7413L75.0656 51.1638C75.0328 51.0754 75.0271 50.9792 75.0492 50.8875C75.0713 50.7959 75.12 50.7128 75.1894 50.6489C75.8086 50.0883 77.6077 48.6477 79.6805 48.739Z" fill="white"/>
<path d="M65.301 38.3093C65.5227 35.4869 66.8263 32.5992 69.2121 31.0348C70.2094 30.383 69.0165 28.962 68.0257 29.6073C65.2489 31.4064 63.6845 34.8676 63.4303 38.1138C63.339 39.3001 65.1837 39.4957 65.275 38.3093H65.301Z" fill="white"/>
<path d="M72.1062 44.554C71.9107 44.7691 72.4061 44.2672 72.4908 44.1824C72.9046 43.7893 73.3398 43.4193 73.7945 43.0743C75.2285 41.9991 76.9053 41.2939 78.6767 41.021C78.9196 40.983 79.1375 40.85 79.2823 40.6514C79.4272 40.4528 79.4872 40.2047 79.4492 39.9618C79.4111 39.7189 79.2782 39.5011 79.0795 39.3562C78.8809 39.2114 78.6328 39.1514 78.3899 39.1894C75.3705 39.6874 72.6113 41.2004 70.5679 43.4785C69.7661 44.3585 71.2849 45.434 72.0802 44.554H72.1062Z" fill="white"/>
</g>
<path d="M56.9967 25.2727C56.7199 25.3019 56.455 25.401 56.227 25.5606C55.9989 25.7202 55.8152 25.9352 55.693 26.1853C55.3019 27.2152 56.4948 28.6166 58.359 29.3206C60.2233 30.0246 62.0419 29.7573 62.433 28.7274C62.6481 28.1473 62.3548 27.4564 61.7421 26.8306C60.2051 26.1836 58.6181 25.6625 56.9967 25.2727Z" fill="#917EF7"/>
<path d="M72.7711 142.597C77.3666 141.847 81.8968 139.989 85.9513 137.806C86.74 137.388 86.1729 136.117 85.3842 136.541C81.3884 138.647 77.0407 140.491 72.556 141.221C72.383 141.26 72.2311 141.363 72.1312 141.509C72.0313 141.656 71.991 141.835 72.0184 142.01C72.0458 142.185 72.1389 142.343 72.2787 142.452C72.4185 142.561 72.5946 142.613 72.7711 142.597Z" fill="#917EF7"/>
<path d="M58.9652 110.331C64.5078 109.578 69.8641 107.811 74.7657 105.116C75.8347 104.523 75.0395 102.783 73.9575 103.382C69.2142 106.009 64.0246 107.733 58.6523 108.467C57.4269 108.623 57.7463 110.507 58.9652 110.35V110.331Z" fill="#917EF7"/>
<path d="M65.3402 124.287C70.0821 123.144 74.5916 121.193 78.6703 118.518C79.6806 117.866 78.755 116.276 77.7447 116.915C73.8072 119.503 69.4517 121.39 64.8709 122.494C63.7041 122.748 64.18 124.541 65.3402 124.287Z" fill="#917EF7"/>
<g opacity="0.3">
<path d="M72.7711 142.597C77.3666 141.847 81.8968 139.989 85.9513 137.806C86.74 137.388 86.1729 136.117 85.3842 136.541C81.3884 138.647 77.0407 140.491 72.556 141.221C72.383 141.26 72.2311 141.363 72.1312 141.509C72.0313 141.656 71.991 141.835 72.0184 142.01C72.0458 142.185 72.1389 142.343 72.2787 142.452C72.4185 142.561 72.5946 142.613 72.7711 142.597Z" fill="white"/>
<path d="M58.9652 110.331C64.5078 109.578 69.8641 107.811 74.7657 105.116C75.8347 104.523 75.0395 102.783 73.9575 103.382C69.2142 106.009 64.0246 107.733 58.6523 108.467C57.4269 108.623 57.7463 110.507 58.9652 110.35V110.331Z" fill="white"/>
<path d="M65.3402 124.287C70.0821 123.144 74.5916 121.193 78.6703 118.518C79.6806 117.866 78.755 116.276 77.7447 116.915C73.8072 119.503 69.4517 121.39 64.8709 122.494C63.7041 122.748 64.18 124.541 65.3402 124.287Z" fill="white"/>
</g>
<path d="M75.6849 103.591C80.7038 101.505 85.2921 98.5056 89.2171 94.7457C90.0775 93.9309 88.8977 92.4968 88.0307 93.3247C84.2335 96.9787 79.788 99.8922 74.9223 101.916C73.8142 102.366 74.5768 104.06 75.6849 103.604V103.591Z" fill="#917EF7"/>
<path d="M84.1457 115.695C88.6284 113.776 92.7472 111.099 96.322 107.782C97.2085 106.987 96.0287 105.553 95.1357 106.355C91.6946 109.564 87.7252 112.155 83.4026 114.014C82.2945 114.457 83.0572 116.145 84.1653 115.702L84.1457 115.695Z" fill="#917EF7"/>
<g opacity="0.3">
<path d="M75.6849 103.591C80.7038 101.505 85.2921 98.5056 89.2171 94.7457C90.0775 93.9309 88.8977 92.4968 88.0307 93.3247C84.2335 96.9787 79.788 99.8922 74.9223 101.916C73.8142 102.366 74.5768 104.06 75.6849 103.604V103.591Z" fill="white"/>
<path d="M84.1457 115.695C88.6284 113.776 92.7472 111.099 96.322 107.782C97.2085 106.987 96.0287 105.553 95.1357 106.355C91.6946 109.564 87.7252 112.155 83.4026 114.014C82.2945 114.457 83.0572 116.145 84.1653 115.702L84.1457 115.695Z" fill="white"/>
</g>
<path d="M106.582 128.296C105.848 123.618 104.322 119.099 102.071 114.933C101.628 114.164 100.383 114.783 100.826 115.585C103.023 119.637 104.509 124.035 105.22 128.589C105.269 128.756 105.379 128.899 105.528 128.989C105.678 129.079 105.855 129.11 106.026 129.076C106.197 129.042 106.349 128.944 106.452 128.804C106.555 128.663 106.601 128.489 106.582 128.315V128.296Z" fill="#917EF7"/>
<g opacity="0.3">
<path d="M106.582 128.296C105.848 123.618 104.322 119.099 102.071 114.933C101.628 114.164 100.383 114.783 100.826 115.585C103.023 119.637 104.509 124.035 105.22 128.589C105.269 128.756 105.379 128.899 105.528 128.989C105.678 129.079 105.855 129.11 106.026 129.076C106.197 129.042 106.349 128.944 106.452 128.804C106.555 128.663 106.601 128.489 106.582 128.315V128.296Z" fill="white"/>
</g>
<path d="M81.3279 46.0924L79.9684 46.5688C79.418 46.7616 79.1281 47.3641 79.321 47.9145L80.8018 52.1407C80.9947 52.6911 81.5972 52.981 82.1476 52.7881L83.5071 52.3117C84.0575 52.1189 84.3473 51.5164 84.1545 50.966L82.6737 46.7398C82.4808 46.1894 81.8783 45.8996 81.3279 46.0924Z" fill="#917EF7"/>
<path d="M81.3747 46.5577L80.4889 46.8681C79.9385 47.0609 79.6486 47.6635 79.8415 48.2139L81.0141 51.5604C81.2069 52.1108 81.8095 52.4006 82.3599 52.2077L83.2457 51.8973C83.7961 51.7045 84.0859 51.102 83.8931 50.5516L82.7205 47.2051C82.5276 46.6547 81.9251 46.3649 81.3747 46.5577Z" fill="#263238"/>
<path d="M44.664 59.2073C43.2711 63.4422 42.3273 67.8118 41.848 72.2441C41.7177 73.8476 41.47 76.4289 42.8779 77.6087C44.6379 79.0883 46.9259 77.0807 48.21 75.9139C49.09 75.1056 47.8254 73.7563 46.9063 74.5581C45.8634 75.5098 44.1229 77.3284 43.6797 75.1578C43.2756 73.2023 43.7905 70.8622 44.1425 68.9327C44.7287 65.8251 45.4948 62.7541 46.437 59.7353C46.507 59.4993 46.4804 59.2452 46.363 59.0288C46.2457 58.8125 46.0472 58.6516 45.8112 58.5816C45.5752 58.5115 45.3211 58.5381 45.1047 58.6555C44.8884 58.7728 44.7275 58.9713 44.6575 59.2073H44.664Z" fill="#917EF7"/>
<g opacity="0.3">
<path d="M42.9822 65.3738C43.5258 65.7382 44.1866 65.8848 44.8334 65.7845C45.0681 64.7546 45.3223 63.7246 45.596 62.7078C44.9553 62.7612 44.3157 62.5932 43.7839 62.2319C43.4971 63.2684 43.2234 64.3178 42.9822 65.3738Z" fill="black"/>
<path d="M42.3434 68.522C42.1739 69.4997 42.037 70.4775 41.9327 71.4683C42.4636 71.7853 43.0962 71.8857 43.6992 71.7486C43.8296 70.7838 44.0121 69.8322 44.1751 68.9587V68.8414C43.5482 68.8745 42.922 68.7653 42.3434 68.522Z" fill="black"/>
<path d="M42.8779 77.6349C42.978 77.7194 43.0849 77.7957 43.1973 77.863C43.7454 77.3897 44.2104 76.8279 44.5727 76.2008C44.1816 76.2008 43.8622 75.9466 43.7123 75.184C43.7123 75.1123 43.7123 75.034 43.6732 74.9558C43.3808 75.1099 43.0552 75.1905 42.7247 75.1905C42.3942 75.1905 42.0687 75.1099 41.7763 74.9558C41.7734 75.4531 41.8692 75.946 42.0583 76.4059C42.2475 76.8658 42.526 77.2835 42.8779 77.6349Z" fill="black"/>
<path d="M47.7407 76.3637L48.2165 75.94C49.0965 75.1318 47.8319 73.7825 46.9128 74.5842L46.6847 74.7993C47.2139 75.1763 47.589 75.7319 47.7407 76.3637Z" fill="black"/>
</g>
<path d="M52.1014 47.2723L51.4495 45.7796C51.3657 45.5922 51.2456 45.4232 51.0962 45.2823C50.9468 45.1414 50.771 45.0315 50.579 44.9588C50.387 44.8861 50.1825 44.8521 49.9773 44.8587C49.772 44.8653 49.5701 44.9125 49.3832 44.9974L45.2701 46.8551C44.8928 47.0258 44.5985 47.3392 44.4519 47.7266C44.3052 48.1139 44.3182 48.5436 44.4879 48.9214L45.1398 50.4141L44.3575 50.7661C44.1707 50.8506 44.0023 50.9711 43.8622 51.1208C43.722 51.2704 43.6127 51.4463 43.5407 51.6382C43.4686 51.8302 43.4351 52.0345 43.4422 52.2394C43.4493 52.4444 43.4967 52.6459 43.5819 52.8325L45.8503 57.8581C45.9523 58.0839 46.0979 58.2873 46.2787 58.4567C46.4595 58.6261 46.6719 58.7581 46.9038 58.8453C47.1357 58.9325 47.3825 58.9731 47.6301 58.9648C47.8777 58.9564 48.1213 58.8994 48.3468 58.7968L56.2731 55.2182C56.4989 55.1161 56.7023 54.9705 56.8717 54.7897C57.0411 54.6089 57.1731 54.3965 57.2603 54.1646C57.3475 53.9327 57.3881 53.6859 57.3798 53.4383C57.3714 53.1907 57.3144 52.9472 57.2118 52.7216L54.9434 47.696C54.8589 47.5091 54.7384 47.3408 54.5888 47.2006C54.4391 47.0604 54.2632 46.9512 54.0713 46.8791C53.8793 46.807 53.675 46.7736 53.4701 46.7807C53.2651 46.7877 53.0636 46.8352 52.8771 46.9203L52.1014 47.2723Z" fill="#263238"/>
<path d="M49.9829 48.2241L49.3311 46.7314C49.1579 46.3547 48.8428 46.0618 48.4545 45.9165C48.0662 45.7712 47.6362 45.7853 47.2583 45.9557L43.1517 47.8069C42.964 47.8914 42.7949 48.0121 42.654 48.1621C42.5131 48.3121 42.4031 48.4885 42.3304 48.681C42.2578 48.8736 42.2238 49.0786 42.2305 49.2843C42.2372 49.49 42.2845 49.6923 42.3695 49.8798L43.0213 51.3725L42.2456 51.7245C42.0582 51.8083 41.8892 51.9284 41.7484 52.0778C41.6075 52.2272 41.4976 52.4029 41.4249 52.595C41.3522 52.787 41.3182 52.9915 41.3248 53.1967C41.3314 53.4019 41.3785 53.6038 41.4634 53.7908L43.7318 58.8099C43.8333 59.0362 43.9785 59.2403 44.159 59.4104C44.3395 59.5805 44.5518 59.7132 44.7838 59.801C45.0157 59.8888 45.2628 59.93 45.5107 59.9221C45.7586 59.9142 46.0025 59.8575 46.2284 59.7551L54.1547 56.17C54.381 56.0685 54.5851 55.9234 54.7552 55.7428C54.9252 55.5623 55.058 55.35 55.1458 55.118C55.2336 54.8861 55.2748 54.6391 55.2669 54.3912C55.259 54.1433 55.2022 53.8994 55.0999 53.6735L52.8315 48.6543C52.6607 48.277 52.3474 47.9827 51.96 47.8361C51.5727 47.6894 51.143 47.7024 50.7652 47.8721L49.9829 48.2241Z" fill="#263238"/>
<path opacity="0.5" d="M49.9829 48.2241L49.3311 46.7314C49.1579 46.3547 48.8428 46.0618 48.4545 45.9165C48.0662 45.7712 47.6362 45.7853 47.2583 45.9557L43.1517 47.8069C42.964 47.8914 42.7949 48.0121 42.654 48.1621C42.5131 48.3121 42.4031 48.4885 42.3304 48.681C42.2578 48.8736 42.2238 49.0786 42.2305 49.2843C42.2372 49.49 42.2845 49.6923 42.3695 49.8798L43.0213 51.3725L42.2456 51.7245C42.0582 51.8083 41.8892 51.9284 41.7484 52.0778C41.6075 52.2272 41.4976 52.4029 41.4249 52.595C41.3522 52.787 41.3182 52.9915 41.3248 53.1967C41.3314 53.4019 41.3785 53.6038 41.4634 53.7908L43.7318 58.8099C43.8333 59.0362 43.9785 59.2403 44.159 59.4104C44.3395 59.5805 44.5518 59.7132 44.7838 59.801C45.0157 59.8888 45.2628 59.93 45.5107 59.9221C45.7586 59.9142 46.0025 59.8575 46.2284 59.7551L54.1547 56.17C54.381 56.0685 54.5851 55.9234 54.7552 55.7428C54.9252 55.5623 55.058 55.35 55.1458 55.118C55.2336 54.8861 55.2748 54.6391 55.2669 54.3912C55.259 54.1433 55.2022 53.8994 55.0999 53.6735L52.8315 48.6543C52.6607 48.277 52.3474 47.9827 51.96 47.8361C51.5727 47.6894 51.143 47.7024 50.7652 47.8721L49.9829 48.2241Z" fill="white"/>
<path d="M53.1443 55.1921L45.7851 58.5099C45.7294 58.5349 45.6694 58.5487 45.6085 58.5504C45.5476 58.5521 45.4869 58.5418 45.4299 58.52C45.373 58.4982 45.3209 58.4653 45.2767 58.4233C45.2325 58.3813 45.197 58.331 45.1723 58.2753C45.1474 58.2197 45.1336 58.1597 45.1319 58.0987C45.1302 58.0378 45.1405 57.9771 45.1623 57.9201C45.1841 57.8632 45.217 57.8111 45.259 57.7669C45.301 57.7227 45.3513 57.6873 45.407 57.6626L52.7662 54.3317C52.878 54.2825 53.0045 54.2789 53.1189 54.3215C53.2333 54.3641 53.3266 54.4496 53.379 54.5598C53.4052 54.6167 53.42 54.6782 53.4224 54.7409C53.4248 54.8035 53.4148 54.866 53.393 54.9247C53.3712 54.9835 53.338 55.0373 53.2953 55.0832C53.2526 55.1291 53.2013 55.1661 53.1443 55.1921Z" fill="#917EF7"/>
<path d="M47.343 54.208C47.5289 54.1331 47.6977 54.0213 47.8392 53.8794C47.9808 53.7375 48.0922 53.5685 48.1667 53.3824C48.2413 53.1964 48.2774 52.9972 48.273 52.7968C48.2685 52.5964 48.2236 52.399 48.1409 52.2164C48.0582 52.0339 47.9394 51.8699 47.7917 51.7344C47.644 51.599 47.4704 51.4948 47.2814 51.4281C47.0924 51.3614 46.8918 51.3337 46.6918 51.3466C46.4918 51.3594 46.2965 51.4126 46.1175 51.5029L45.6938 51.6919C45.5158 51.7724 45.3553 51.8871 45.2216 52.0296C45.0879 52.1721 44.9836 52.3395 44.9146 52.5223C44.8456 52.7051 44.8133 52.8997 44.8195 53.095C44.8257 53.2903 44.8703 53.4824 44.9507 53.6605C45.0312 53.8385 45.146 53.999 45.2884 54.1327C45.4309 54.2664 45.5983 54.3707 45.7811 54.4397C45.9639 54.5087 46.1585 54.541 46.3538 54.5348C46.5491 54.5286 46.7412 54.484 46.9193 54.4036L47.343 54.208Z" fill="#917EF7"/>
<path opacity="0.5" d="M47.6624 52.4348C47.7843 52.7029 47.8239 53.0011 47.776 53.2918C47.7281 53.5824 47.5949 53.8522 47.3934 54.067C47.1919 54.2818 46.9311 54.4319 46.6441 54.4982C46.3572 54.5645 46.057 54.544 45.7816 54.4394C45.5063 54.3348 45.2683 54.1507 45.0978 53.9106C44.9273 53.6704 44.8319 53.385 44.8239 53.0906C44.8159 52.7962 44.8956 52.506 45.0528 52.2569C45.21 52.0079 45.4376 51.8111 45.7068 51.6917C46.0649 51.5328 46.4713 51.5217 46.8375 51.6609C47.2037 51.8 47.5001 52.0782 47.6624 52.4348Z" fill="white"/>
<path d="M51.1628 52.4805C51.4982 52.3045 51.7538 52.0071 51.8773 51.649C52.0008 51.2909 51.9829 50.8992 51.8273 50.5539C51.6717 50.2085 51.3901 49.9356 51.04 49.7909C50.69 49.6462 50.2979 49.6407 49.9438 49.7754L49.5201 49.9644C49.3421 50.0449 49.1816 50.1596 49.0479 50.3021C48.9142 50.4446 48.8099 50.612 48.7409 50.7948C48.6719 50.9776 48.6396 51.1722 48.6458 51.3675C48.652 51.5628 48.6966 51.7549 48.777 51.933C48.8575 52.111 48.9723 52.2715 49.1147 52.4052C49.2572 52.5389 49.4246 52.6432 49.6074 52.7122C49.7902 52.7812 49.9848 52.8135 50.1801 52.8073C50.3754 52.8011 50.5675 52.7565 50.7456 52.6761L51.1628 52.4805Z" fill="#917EF7"/>
<path opacity="0.5" d="M51.4886 50.7075C51.6106 50.9756 51.6502 51.2739 51.6023 51.5645C51.5544 51.8551 51.4212 52.1249 51.2197 52.3397C51.0182 52.5545 50.7574 52.7046 50.4704 52.7709C50.1835 52.8372 49.8833 52.8167 49.6079 52.7121C49.3326 52.6075 49.0946 52.4234 48.9241 52.1833C48.7536 51.9431 48.6582 51.6577 48.6502 51.3633C48.6422 51.0689 48.7219 50.7787 48.8791 50.5296C49.0363 50.2806 49.2639 50.0838 49.5331 49.9644C49.8912 49.8055 50.2976 49.7944 50.6638 49.9336C51.03 50.0727 51.3264 50.3509 51.4886 50.7075Z" fill="white"/>
<path d="M55.9211 55.72C59.4802 58.4163 63.3148 60.728 67.3609 62.6165C68.834 63.2683 71.2002 64.3373 72.7711 63.3856C74.7266 62.1993 73.5859 59.3833 72.895 57.7929C72.7938 57.569 72.6079 57.3945 72.3781 57.3077C72.1483 57.2209 71.8934 57.2289 71.6695 57.3301C71.4456 57.4312 71.2711 57.6171 71.1843 57.8469C71.0975 58.0768 71.1056 58.3316 71.2067 58.5555C71.7673 59.8592 72.921 62.0885 70.7244 61.8147C68.7688 61.554 66.696 60.309 64.9882 59.3573C62.2237 57.8011 59.5531 56.0838 56.9901 54.2143C56.7896 54.0725 56.541 54.0162 56.2989 54.0578C56.0569 54.0994 55.8413 54.2354 55.6995 54.4359C55.5577 54.6364 55.5015 54.8851 55.543 55.1271C55.5846 55.3692 55.7206 55.5848 55.9211 55.7265V55.72Z" fill="#917EF7"/>
<g opacity="0.3">
<path d="M61.2075 59.3118C61.729 58.9163 62.0826 58.3393 62.1983 57.6952C61.2988 57.1412 60.4058 56.5675 59.5323 55.9744C59.3752 56.6004 59.0068 57.1529 58.4894 57.5388C59.3846 58.1472 60.2906 58.7382 61.2075 59.3118Z" fill="black"/>
<path d="M63.9779 60.935C64.847 61.4174 65.7314 61.865 66.6309 62.2778C67.1039 61.88 67.4052 61.3149 67.4717 60.7004C66.5983 60.2702 65.7574 59.7813 64.9882 59.3511L64.8774 59.2859C64.712 59.8989 64.4037 60.464 63.9779 60.935Z" fill="black"/>
<path d="M72.7712 63.3861C72.8824 63.317 72.9891 63.2408 73.0906 63.158C72.8194 62.4869 72.4383 61.8657 71.963 61.3198C71.8456 61.6914 71.4936 61.9065 70.7245 61.8087L70.4963 61.7631C70.5397 62.0932 70.5031 62.429 70.3896 62.742C70.2762 63.0551 70.0892 63.3364 69.8445 63.5621C70.3195 63.7292 70.823 63.7996 71.3256 63.7694C71.8282 63.7392 72.3197 63.6089 72.7712 63.3861Z" fill="black"/>
<path d="M73.1623 58.3799C73.0775 58.1713 72.9928 57.9757 72.9146 57.7932C72.8134 57.5693 72.6275 57.3948 72.3977 57.308C72.1679 57.2212 71.913 57.2293 71.6891 57.3304C71.4652 57.4316 71.2907 57.6175 71.2039 57.8473C71.1171 58.0771 71.1252 58.332 71.2263 58.5559C71.2654 58.6471 71.3045 58.7449 71.3502 58.8427C71.8799 58.4779 72.5224 58.3138 73.1623 58.3799Z" fill="black"/>
</g>
<path d="M9.11927 67.2769C9.6603 66.6251 9.62118 64.7478 9.58207 63.9004C9.41911 60.3153 4.46516 62.2187 4.46516 62.2187L2.03381 62.2513C1.60715 62.2853 1.20645 62.4698 0.903198 62.7719C0.599948 63.0739 0.413864 63.4739 0.378136 63.9004L0.0391875 66.2666C-0.0604543 66.7475 0.0316407 67.2483 0.29586 67.6623C0.56008 68.0762 0.97553 68.3707 1.45367 68.4828L3.54606 68.7957C4.15536 68.8877 4.77796 68.8272 5.35817 68.6197C5.35817 68.6197 8.49351 68.0526 9.11927 67.2769Z" fill="#917EF7"/>
<path opacity="0.3" d="M9.11927 67.2769C9.6603 66.6251 9.62118 64.7478 9.58207 63.9004C9.41911 60.3153 4.46516 62.2187 4.46516 62.2187L2.03381 62.2513C1.60715 62.2853 1.20645 62.4698 0.903198 62.7719C0.599948 63.0739 0.413864 63.4739 0.378136 63.9004L0.0391875 66.2666C-0.0604543 66.7475 0.0316407 67.2483 0.29586 67.6623C0.56008 68.0762 0.97553 68.3707 1.45367 68.4828L3.54606 68.7957C4.15536 68.8877 4.77796 68.8272 5.35817 68.6197C5.35817 68.6197 8.49351 68.0526 9.11927 67.2769Z" fill="white"/>
<path d="M82.9398 54.7945C82.3662 54.1426 80.5149 53.9275 79.6806 53.8428C76.115 53.4712 77.2623 58.6534 77.2623 58.6534L76.9364 61.0586C76.9062 61.4872 77.0292 61.9125 77.2835 62.2587C77.5378 62.6049 77.9068 62.8496 78.3248 62.949L80.6127 63.6334C81.073 63.8025 81.5812 63.7854 82.0291 63.5858C82.477 63.3862 82.8294 63.0197 83.0115 62.5644L83.6633 60.5372C83.8401 59.9472 83.8715 59.3232 83.7546 58.7185C83.7546 58.7185 83.5916 55.5376 82.9398 54.7945Z" fill="#917EF7"/>
<path opacity="0.3" d="M82.9398 54.7945C82.3662 54.1426 80.5149 53.9275 79.6806 53.8428C76.115 53.4712 77.2623 58.6534 77.2623 58.6534L76.9364 61.0586C76.9062 61.4872 77.0292 61.9125 77.2835 62.2587C77.5378 62.6049 77.9068 62.8496 78.3248 62.949L80.6127 63.6334C81.073 63.8025 81.5812 63.7854 82.0291 63.5858C82.477 63.3862 82.8294 63.0197 83.0115 62.5644L83.6633 60.5372C83.8401 59.9472 83.8715 59.3232 83.7546 58.7185C83.7546 58.7185 83.5916 55.5376 82.9398 54.7945Z" fill="white"/>
<path d="M44.6835 17.5743C44.3171 17.8149 43.907 17.9809 43.4764 18.0629C43.0459 18.1449 42.6034 18.1413 42.1743 18.0524C41.7451 17.9634 41.3377 17.7908 40.9753 17.5443C40.6128 17.2979 40.3025 16.9825 40.062 16.6161C39.8214 16.2498 39.6554 15.8396 39.5734 15.4091C39.4914 14.9785 39.4949 14.5361 39.5839 14.1069C39.6729 13.6778 39.8455 13.2703 40.092 12.9079C40.3384 12.5455 40.6538 12.2351 41.0202 11.9946L41.8871 11.4275C42.2525 11.1656 42.6671 10.9802 43.106 10.8825C43.5449 10.7848 43.9989 10.7768 44.441 10.8589C44.883 10.941 45.3039 11.1117 45.6784 11.3605C46.0529 11.6093 46.3732 11.9313 46.6202 12.307C46.8671 12.6827 47.0356 13.1044 47.1155 13.5469C47.1955 13.9893 47.1852 14.4434 47.0853 14.8817C46.9853 15.3201 46.7979 15.7338 46.5341 16.0979C46.2704 16.462 45.9358 16.7691 45.5504 17.0007L44.6835 17.5743Z" fill="#263238"/>
<path opacity="0.3" d="M44.6835 17.5743C44.3171 17.8149 43.907 17.9809 43.4764 18.0629C43.0459 18.1449 42.6034 18.1413 42.1743 18.0524C41.7451 17.9634 41.3377 17.7908 40.9753 17.5443C40.6128 17.2979 40.3025 16.9825 40.062 16.6161C39.8214 16.2498 39.6554 15.8396 39.5734 15.4091C39.4914 14.9785 39.4949 14.5361 39.5839 14.1069C39.6729 13.6778 39.8455 13.2703 40.092 12.9079C40.3384 12.5455 40.6538 12.2351 41.0202 11.9946L41.8871 11.4275C42.2525 11.1656 42.6671 10.9802 43.106 10.8825C43.5449 10.7848 43.9989 10.7768 44.441 10.8589C44.883 10.941 45.3039 11.1117 45.6784 11.3605C46.0529 11.6093 46.3732 11.9313 46.6202 12.307C46.8671 12.6827 47.0356 13.1044 47.1155 13.5469C47.1955 13.9893 47.1852 14.4434 47.0853 14.8817C46.9853 15.3201 46.7979 15.7338 46.5341 16.0979C46.2704 16.462 45.9358 16.7691 45.5504 17.0007L44.6835 17.5743Z" fill="white"/>
<path opacity="0.3" d="M40.9289 16.0427C41.2905 16.5954 41.8079 17.0284 42.4157 17.2868C43.0235 17.5453 43.6943 17.6176 44.3432 17.4946C44.9921 17.3716 45.59 17.0589 46.061 16.5959C46.5321 16.133 46.8552 15.5407 46.9895 14.894C47.1237 14.2474 47.0631 13.5754 46.8153 12.9632C46.5674 12.351 46.1435 11.8261 45.5972 11.455C45.0509 11.0838 44.4067 10.8831 43.7463 10.8783C43.0858 10.8734 42.4388 11.0646 41.8871 11.4277C41.5209 11.6676 41.2057 11.9774 40.9593 12.3392C40.713 12.7011 40.5404 13.1079 40.4514 13.5366C40.3624 13.9652 40.3588 14.4071 40.4407 14.8372C40.5226 15.2672 40.6885 15.6768 40.9289 16.0427Z" fill="white"/>
<path d="M39.6774 28.799L39.2863 28.421L45.8437 21.4854L43.8165 14.0936L44.3445 13.9502L46.4499 21.6419L39.6774 28.799Z" fill="#263238"/>
<g opacity="0.4">
<path d="M39.6774 28.799L39.2863 28.421L45.8437 21.4854L43.8165 14.0936L44.3445 13.9502L46.4499 21.6419L39.6774 28.799Z" fill="white"/>
</g>
<path d="M41.9458 15.3778C42.1759 15.728 42.5047 16.0021 42.8906 16.1654C43.2765 16.3287 43.7022 16.3739 44.1138 16.2953C44.5254 16.2166 44.9044 16.0177 45.2029 15.7236C45.5015 15.4295 45.7061 15.0535 45.7909 14.6432C45.8757 14.2328 45.8369 13.8065 45.6794 13.4182C45.5219 13.0299 45.2528 12.697 44.9061 12.4616C44.5594 12.2263 44.1507 12.099 43.7317 12.096C43.3126 12.093 42.9021 12.2142 42.552 12.4445C42.0828 12.7532 41.7553 13.2356 41.6416 13.7857C41.528 14.3357 41.6374 14.9084 41.9458 15.3778Z" fill="#917EF7"/>
<path d="M42.3108 15.1825C42.5409 15.5327 42.8697 15.8068 43.2556 15.9701C43.6415 16.1334 44.0672 16.1786 44.4788 16.0999C44.8903 16.0213 45.2694 15.8224 45.5679 15.5283C45.8664 15.2342 46.071 14.8582 46.1558 14.4479C46.2406 14.0375 46.2018 13.6112 46.0444 13.2229C45.8869 12.8346 45.6177 12.5017 45.271 12.2663C44.9243 12.031 44.5156 11.9037 44.0966 11.9007C43.6776 11.8976 43.2671 12.0189 42.917 12.2492C42.6839 12.4015 42.4833 12.5983 42.3266 12.8284C42.1699 13.0584 42.0602 13.3172 42.0039 13.5898C41.9476 13.8624 41.9457 14.1434 41.9983 14.4168C42.051 14.6901 42.1572 14.9503 42.3108 15.1825Z" fill="#917EF7"/>
<path opacity="0.5" d="M42.3108 15.1825C42.5409 15.5327 42.8697 15.8068 43.2556 15.9701C43.6415 16.1334 44.0672 16.1786 44.4788 16.0999C44.8903 16.0213 45.2694 15.8224 45.5679 15.5283C45.8664 15.2342 46.071 14.8582 46.1558 14.4479C46.2406 14.0375 46.2018 13.6112 46.0444 13.2229C45.8869 12.8346 45.6177 12.5017 45.271 12.2663C44.9243 12.031 44.5156 11.9037 44.0966 11.9007C43.6776 11.8976 43.2671 12.0189 42.917 12.2492C42.6839 12.4015 42.4833 12.5983 42.3266 12.8284C42.1699 13.0584 42.0602 13.3172 42.0039 13.5898C41.9476 13.8624 41.9457 14.1434 41.9983 14.4168C42.051 14.6901 42.1572 14.9503 42.3108 15.1825Z" fill="white"/>
<path d="M45.2962 22.1047C45.3878 22.2433 45.5184 22.3518 45.6715 22.4163C45.8246 22.4808 45.9935 22.4985 46.1566 22.4672C46.3198 22.4358 46.4701 22.3568 46.5884 22.2401C46.7067 22.1235 46.7878 21.9744 46.8214 21.8116C46.8551 21.6489 46.8398 21.4798 46.7774 21.3258C46.715 21.1718 46.6084 21.0397 46.471 20.9462C46.3336 20.8527 46.1716 20.8021 46.0055 20.8006C45.8393 20.7991 45.6764 20.8469 45.5374 20.9379C45.4448 20.9985 45.3651 21.0768 45.3028 21.1684C45.2405 21.2599 45.1969 21.3628 45.1745 21.4712C45.1521 21.5796 45.1513 21.6914 45.1722 21.8001C45.1931 21.9088 45.2352 22.0123 45.2962 22.1047Z" fill="#917EF7"/>
<path d="M45.4397 22.0265C45.5305 22.1677 45.6613 22.2788 45.8153 22.3456C45.9694 22.4124 46.1399 22.4319 46.3051 22.4016C46.4702 22.3713 46.6227 22.2927 46.7431 22.1756C46.8635 22.0585 46.9464 21.9083 46.9813 21.7441C47.0162 21.5798 47.0014 21.4089 46.939 21.253C46.8765 21.0971 46.7692 20.9633 46.6305 20.8685C46.4919 20.7737 46.3282 20.7223 46.1603 20.7207C45.9924 20.7192 45.8278 20.7675 45.6874 20.8597C45.5942 20.9198 45.5139 20.9977 45.451 21.089C45.3881 21.1803 45.3438 21.2831 45.3208 21.3916C45.2978 21.5 45.2964 21.6119 45.3168 21.7209C45.3372 21.8298 45.379 21.9337 45.4397 22.0265Z" fill="#917EF7"/>
<path opacity="0.3" d="M45.4397 22.0265C45.5305 22.1677 45.6613 22.2788 45.8153 22.3456C45.9694 22.4124 46.1399 22.4319 46.3051 22.4016C46.4702 22.3713 46.6227 22.2927 46.7431 22.1756C46.8635 22.0585 46.9464 21.9083 46.9813 21.7441C47.0162 21.5798 47.0014 21.4089 46.939 21.253C46.8765 21.0971 46.7692 20.9633 46.6305 20.8685C46.4919 20.7737 46.3282 20.7223 46.1603 20.7207C45.9924 20.7192 45.8278 20.7675 45.6874 20.8597C45.5942 20.9198 45.5139 20.9977 45.451 21.089C45.3881 21.1803 45.3438 21.2831 45.3208 21.3916C45.2978 21.5 45.2964 21.6119 45.3168 21.7209C45.3372 21.8298 45.379 21.9337 45.4397 22.0265Z" fill="white"/>
<path d="M38.836 27.9861L35.5631 29.7447C35.1509 29.9662 34.9962 30.48 35.2177 30.8922L35.227 30.9094C35.4485 31.3217 35.9623 31.4763 36.3745 31.2548L39.6475 29.4962C40.0597 29.2747 40.2144 28.7609 39.9928 28.3487L39.9836 28.3314C39.7621 27.9192 39.2483 27.7645 38.836 27.9861Z" fill="#917EF7"/>
<path d="M35.0848 30.0037L38.3578 28.2451C38.4558 28.1924 38.5632 28.1596 38.6739 28.1484C38.7847 28.1373 38.8965 28.1481 39.003 28.1801C39.1096 28.2122 39.2088 28.2649 39.295 28.3353C39.3812 28.4058 39.4526 28.4924 39.5053 28.5905C39.558 28.6885 39.5908 28.7959 39.602 28.9066C39.6131 29.0174 39.6023 29.1292 39.5703 29.2358C39.5382 29.3423 39.4854 29.4415 39.415 29.5277C39.3446 29.6139 39.258 29.6853 39.1599 29.738L35.8813 31.4997C35.6848 31.6053 35.4545 31.6284 35.2409 31.5642C35.0274 31.4999 34.8481 31.3534 34.7425 31.157C34.6899 31.059 34.657 30.9515 34.6459 30.8408C34.6347 30.7301 34.6455 30.6182 34.6776 30.5117C34.7096 30.4051 34.7624 30.3059 34.8328 30.2198C34.9032 30.1336 34.9899 30.0621 35.0879 30.0094L35.0848 30.0037Z" fill="#917EF7"/>
<path opacity="0.3" d="M35.0848 30.0037L38.3578 28.2451C38.4558 28.1924 38.5632 28.1596 38.6739 28.1484C38.7847 28.1373 38.8965 28.1481 39.003 28.1801C39.1096 28.2122 39.2088 28.2649 39.295 28.3353C39.3812 28.4058 39.4526 28.4924 39.5053 28.5905C39.558 28.6885 39.5908 28.7959 39.602 28.9066C39.6131 29.0174 39.6023 29.1292 39.5703 29.2358C39.5382 29.3423 39.4854 29.4415 39.415 29.5277C39.3446 29.6139 39.258 29.6853 39.1599 29.738L35.8813 31.4997C35.6848 31.6053 35.4545 31.6284 35.2409 31.5642C35.0274 31.4999 34.8481 31.3534 34.7425 31.157C34.6899 31.059 34.657 30.9515 34.6459 30.8408C34.6347 30.7301 34.6455 30.6182 34.6776 30.5117C34.7096 30.4051 34.7624 30.3059 34.8328 30.2198C34.9032 30.1336 34.9899 30.0621 35.0879 30.0094L35.0848 30.0037Z" fill="white"/>
</svg>
