<svg width="116" height="90" viewBox="0 0 116 90" fill="none" xmlns="http://www.w3.org/2000/svg">
<path d="M97.7518 39.7607C97.6975 38.7697 97.411 37.8053 96.9153 36.9456C96.4196 36.0859 95.7287 35.3548 94.8984 34.8117C94.6375 34.635 94.3407 34.5183 94.0295 34.4698C93.7182 34.4213 93.4001 34.4423 93.0978 34.5312L80.7371 39.3431L86.7866 49.7336L97.1038 41.4561C97.3299 41.2387 97.5052 40.9739 97.6172 40.6809C97.7292 40.3878 97.7751 40.0736 97.7518 39.7607Z" fill="#F5F5F5"/>
<path d="M90.9048 35.3415C91.2233 35.269 91.5532 35.262 91.8745 35.3209C92.1958 35.3798 92.5018 35.5035 92.7738 35.6843C93.6911 36.2841 94.4545 37.0915 95.0021 38.0411C95.5498 38.9908 95.8664 40.056 95.9263 41.1507C95.9432 41.4703 95.8969 41.7901 95.79 42.0917C95.6831 42.3934 95.5177 42.6709 95.3033 42.9084L96.3064 42.0981L97.1101 41.4312C97.3316 41.2159 97.5038 40.955 97.6146 40.6666C97.7254 40.3781 97.7722 40.0691 97.7518 39.7607C97.6975 38.7697 97.411 37.8053 96.9153 36.9456C96.4196 36.0859 95.7287 35.3548 94.8983 34.8117C94.6374 34.635 94.3407 34.5183 94.0295 34.4698C93.7182 34.4213 93.4 34.4423 93.0978 34.5312L92.0511 34.9239L90.9048 35.3415Z" fill="#8B81F7"/>
<path opacity="0.1" d="M97.4963 38.2339L84.4752 45.751L86.7866 49.7339L97.1038 41.4564C97.3299 41.2389 97.5052 40.9742 97.6172 40.6811C97.7292 40.3881 97.7751 40.0739 97.7518 39.761C97.7466 39.2418 97.6604 38.7265 97.4963 38.2339Z" fill="#455A64"/>
<path d="M83.4846 39.7608C84.7301 40.5741 85.7667 41.6694 86.5103 42.958C87.2539 44.2467 87.6836 45.6924 87.7647 47.1782C87.7647 49.9083 85.8459 51.0115 83.4846 49.6714C82.2391 48.8582 81.2026 47.7629 80.459 46.4742C79.7154 45.1856 79.2856 43.7398 79.2045 42.2541C79.2045 39.4741 81.1234 38.3709 83.4846 39.7608Z" fill="#E0E0E0"/>
<path d="M93.889 28.08C93.8343 27.0899 93.5475 26.1266 93.0518 25.2679C92.5561 24.4093 91.8655 23.6793 91.0356 23.1371C90.7753 22.9593 90.4785 22.8418 90.167 22.7933C89.8556 22.7448 89.5372 22.7664 89.2351 22.8567L76.8744 27.6686L82.9364 38.0965L93.2411 29.7878C93.4682 29.5685 93.644 29.3016 93.756 29.0064C93.868 28.7112 93.9134 28.3948 93.889 28.08Z" fill="#F5F5F5"/>
<path d="M87.0421 23.6919C87.3556 23.6212 87.6803 23.6152 87.9963 23.6741C88.3122 23.733 88.6129 23.8557 88.88 24.0347C89.7986 24.6321 90.5634 25.4379 91.1123 26.3867C91.6611 27.3354 91.9785 28.4003 92.0387 29.4949C92.0563 29.8145 92.0103 30.1345 91.9033 30.4362C91.7964 30.738 91.6306 31.0155 91.4156 31.2526L92.4187 30.4485L93.2224 29.7816C93.4441 29.5607 93.6148 29.2938 93.7224 28.9999C93.8301 28.7059 93.872 28.3919 93.8454 28.08C93.7907 27.0899 93.5039 26.1266 93.0082 25.2679C92.5125 24.4093 91.8218 23.6793 90.992 23.1371C90.7316 22.9593 90.4349 22.8418 90.1234 22.7933C89.8119 22.7448 89.4935 22.7664 89.1915 22.8567L88.1448 23.2431L87.0421 23.6919Z" fill="#8B81F7"/>
<path opacity="0.1" d="M93.6274 26.5776L80.6125 34.101L82.9239 38.0776L93.2411 29.7877C93.4628 29.5667 93.6335 29.2999 93.7411 29.0059C93.8488 28.712 93.8907 28.398 93.8641 28.086C93.8621 27.5741 93.7823 27.0655 93.6274 26.5776Z" fill="#455A64"/>
<path d="M82.6448 38.2624C84.3165 37.2968 84.3175 34.1673 82.6469 31.2725C80.9764 28.3778 78.267 26.8139 76.5953 27.7795C74.9236 28.7451 74.9226 31.8745 76.5932 34.7693C78.2637 37.6641 80.9731 39.228 82.6448 38.2624Z" fill="#E0E0E0"/>
<path d="M18.2919 65.4973L32.2475 49.3724L35.7364 23.1685L42.7142 19.1357L70.6317 35.2669L18.2919 65.4973Z" fill="#8B81F7"/>
<path opacity="0.6" d="M18.2919 65.4973L32.2475 49.3724L35.7364 23.1685L42.7142 19.1357L70.6317 35.2669L18.2919 65.4973Z" fill="white"/>
<path d="M42.7143 19.1357L35.7365 23.1685L63.6539 39.2935L70.6318 35.2669L42.7143 19.1357Z" fill="#8B81F7"/>
<path opacity="0.3" d="M42.7143 19.1357L35.7365 23.1685L63.6539 39.2935L70.6318 35.2669L42.7143 19.1357Z" fill="#455A64"/>
<path d="M81.1047 25.1378C78.6625 23.7291 76.4009 23.3177 74.5443 23.7665C74.0752 23.8734 73.624 24.0476 73.2048 24.2839L72.9307 24.4335L31.0077 48.6552C24.1245 52.6331 18.2659 58.1656 13.8996 64.8113L0.41748 85.3181L3.11516 89.1078L23.8306 85.7793C30.2822 84.7478 36.4903 82.5423 42.1473 79.272L89.2787 52.0522C90.9297 51.03 92.0387 49.104 92.3565 46.4424C92.4171 45.9002 92.4483 45.355 92.4499 44.8094C92.4437 37.5603 87.3661 28.7592 81.1047 25.1378Z" fill="#8B81F7"/>
<path opacity="0.9" d="M81.1047 25.1378C78.6625 23.7291 76.4009 23.3177 74.5443 23.7665C74.0752 23.8734 73.624 24.0476 73.2048 24.2839L72.9307 24.4335L31.0077 48.6552C24.1245 52.6331 18.2659 58.1656 13.8996 64.8113L0.41748 85.3181L3.11516 89.1078L23.8306 85.7793C30.2822 84.7478 36.4903 82.5423 42.1473 79.272L89.2787 52.0522C90.9297 51.03 92.0387 49.104 92.3565 46.4424C92.4171 45.9002 92.4483 45.355 92.4499 44.8094C92.4437 37.5603 87.3661 28.7592 81.1047 25.1378Z" fill="white"/>
<path d="M83.8833 55.1504C85.5343 54.1282 86.6433 52.2022 86.9611 49.5406C87.0217 48.9984 87.0529 48.4532 87.0545 47.9076C87.0545 40.671 81.9769 31.8699 75.7156 28.2547C73.2733 26.8398 71.018 26.4284 69.1614 26.8772C68.6919 26.9829 68.2406 27.1573 67.8219 27.3945L73.2048 24.278C73.624 24.0418 74.0752 23.8675 74.5443 23.7606C76.4133 23.3119 78.6624 23.7233 81.1047 25.1319C87.3349 28.7533 92.4436 37.5545 92.4436 44.791C92.4421 45.3367 92.4109 45.8819 92.3502 46.4241C92.0324 49.0981 90.9235 51.0241 89.2725 52.0339L83.8833 55.1504Z" fill="#8B81F7"/>
<path d="M4.6166 81.6533C4.16408 81.3639 3.63288 81.2223 3.09643 81.2481L1.57627 83.5606L0.417449 85.3245C0.171983 85.6999 0.0322711 86.1345 0.013037 86.5826C-0.00619701 87.0308 0.0957597 87.4758 0.308162 87.8708C0.520565 88.2658 0.835547 88.5962 1.21991 88.8271C1.60427 89.058 2.04378 89.1809 2.49211 89.1828C2.70258 89.1796 2.91185 89.1503 3.11512 89.0955L4.8845 88.8151L7.27066 88.4286C7.48386 88.1104 7.61447 87.7441 7.6507 87.3627C7.6507 87.2256 7.6507 87.076 7.6507 86.9202C7.59384 85.8656 7.28953 84.8392 6.76241 83.9242C6.23528 83.0092 5.50017 82.2312 4.6166 81.6533Z" fill="#8B81F7"/>
<path opacity="0.6" d="M32.2475 59.4508C38.3718 55.8294 67.9652 38.7695 85.4783 28.6844C84.2038 27.2972 82.7348 26.1025 81.1171 25.1378C78.6749 23.7291 76.4133 23.3177 74.5567 23.7665C74.0876 23.8734 73.6365 24.0476 73.2173 24.2839L72.9431 24.4335L31.0201 48.6552C24.1369 52.6331 18.2783 58.1656 13.912 64.8113L0.890935 84.5951L0.417439 85.3243C0.145957 85.7325 0.000765181 86.2116 1.70276e-05 86.7018C-0.00223894 87.3066 0.219746 87.8907 0.623036 88.3411C-0.623002 85.6547 10.4481 78.4368 16.5786 72.6463C22.7091 66.8557 28.8022 61.4891 32.2475 59.4508Z" fill="white"/>
<path d="M26.1232 73.3384C24.3663 69.7232 21.7122 66.7002 18.8401 65.0484C17.5698 64.2688 16.1233 63.8229 14.6347 63.752C14.3917 64.1072 14.1363 64.4501 13.8995 64.8116L8.29236 73.3384L8.97145 73.2761C9.05648 73.2697 9.14186 73.2697 9.22689 73.2761C10.0396 73.3112 10.8294 73.556 11.5196 73.9867C13.2867 75.1098 14.7265 76.6793 15.6938 78.5368L16.0926 79.2598L26.497 74.1176L26.1232 73.3384Z" fill="#8B81F7"/>
<path d="M18.4102 65.7901C17.1113 64.9613 15.5881 64.5542 14.0491 64.6245L8.8905 72.422C9.96758 72.3679 11.0347 72.6511 11.9433 73.2324C13.8515 74.43 15.4063 76.1146 16.4477 78.1128L25.3507 73.7123C23.7433 70.4025 21.2325 67.4169 18.4102 65.7901Z" fill="#455A64"/>
<path opacity="0.1" d="M18.4102 65.7901C17.1113 64.9613 15.5881 64.5542 14.0491 64.6245L8.8905 72.422C9.26155 72.3933 9.63479 72.4164 9.99948 72.4906C10.7035 71.7053 11.4137 70.4462 12.6286 70.6706C14.0366 70.9323 15.1207 72.3535 16.2671 73.0765C16.5649 73.2812 16.9018 73.4223 17.2566 73.491C17.6114 73.5596 17.9766 73.5543 18.3292 73.4754C18.9355 73.2143 19.4823 72.8326 19.9366 72.3535C20.1648 72.1163 20.4455 71.9363 20.7562 71.828C21.0669 71.7197 21.3987 71.6862 21.7247 71.7302C22.4225 71.9172 22.6966 72.5903 22.9707 73.1825C23.2141 73.6397 23.4223 74.1148 23.5938 74.6036L25.3756 73.7185C23.7433 70.4025 21.2325 67.4169 18.4102 65.7901Z" fill="white"/>
<path opacity="0.05" d="M13.9993 69.0565L14.0429 69.0876C14.6104 69.4659 15.1991 69.8114 15.806 70.1223C16.3107 70.3841 16.9835 70.6023 17.4072 70.222C17.8308 69.8418 17.7374 69.1063 18.186 68.7947C18.3747 68.6847 18.5907 68.6307 18.809 68.6388C19.8262 68.6518 20.8262 68.9033 21.7286 69.3731C22.631 69.843 23.4107 70.518 24.005 71.344C22.5889 69.0817 20.67 67.1769 18.3978 65.7779C17.0988 64.9491 15.5757 64.542 14.0367 64.6123L11.0212 69.1874C12.1115 68.3833 12.8841 68.3459 13.9993 69.0565Z" fill="white"/>
<path opacity="0.15" d="M92.3502 46.4299C92.4109 45.8877 92.4421 45.3425 92.4437 44.7968C92.4359 44.1572 92.3943 43.5185 92.319 42.8833C77.7591 51.2605 42.2345 71.7112 35.7364 75.5758C27.5188 80.4625 7.29559 87.4186 2.09338 87.6679C0.847343 87.7365 0.411228 86.7828 0.442379 85.2931V85.3243C0.198009 85.6979 0.0583897 86.1302 0.0381001 86.5762C0.0178105 87.0222 0.117596 87.4655 0.327037 87.8597C0.536477 88.254 0.847885 88.5847 1.22873 88.8174C1.60959 89.0501 2.0459 89.1762 2.49211 89.1826C2.70259 89.1793 2.91186 89.15 3.11513 89.0953L23.8305 85.7668C30.2822 84.7353 36.4903 82.5298 42.1473 79.2595L89.2787 52.0397C90.9235 51.0299 92.0325 49.1101 92.3502 46.4299Z" fill="#8B81F7"/>
<path opacity="0.6" d="M3.11521 89.0955L4.88458 88.815L7.27075 88.4286C7.48394 88.1104 7.61456 87.7441 7.65079 87.3627C7.65079 87.2256 7.65079 87.076 7.65079 86.9202C7.65079 86.7643 7.65079 86.6708 7.65079 86.5462C5.83801 87.0855 3.98001 87.4589 2.09969 87.6619C0.853653 87.7305 0.417539 86.7768 0.44869 85.2871V85.3183C0.202948 85.6915 0.0619956 86.1239 0.0405845 86.5703C0.0191734 87.0167 0.118089 87.4607 0.326983 87.8557C0.535876 88.2508 0.847067 88.5824 1.22798 88.8158C1.6089 89.0493 2.04553 89.176 2.49219 89.1828C2.68348 89.1806 2.87383 89.1555 3.05914 89.108L3.11521 89.0955Z" fill="#455A64"/>
<path d="M116 61.4705L88.0825 45.3394L35.7365 75.576L63.6539 69.5299L109.022 67.5166L116 63.4838V61.4705Z" fill="#8B81F7"/>
<path opacity="0.6" d="M116 61.4705L88.0825 45.3394L35.7365 75.576L63.6539 69.5299L109.022 67.5166L116 63.4838V61.4705Z" fill="white"/>
<path d="M63.6539 69.5299V67.5166L35.7365 75.576L63.6539 69.5299Z" fill="#8B81F7"/>
<path d="M63.6539 67.5166L109.022 65.4971V67.5166L63.6539 69.5299V67.5166Z" fill="#8B81F7"/>
<path opacity="0.3" d="M63.6539 67.5166L109.022 65.4971V67.5166L63.6539 69.5299V67.5166Z" fill="white"/>
<path d="M81.1047 49.3722L109.022 65.4971L116 61.4705L88.0825 45.3394L81.1047 49.3722Z" fill="#8B81F7"/>
<path opacity="0.3" d="M81.1047 49.3722L109.022 65.4971L116 61.4705L88.0825 45.3394L81.1047 49.3722Z" fill="#455A64"/>
<path d="M116 61.4702L109.022 65.4968V67.5163L116 63.4835V61.4702Z" fill="#8B81F7"/>
<path opacity="0.5" d="M116 61.4702L109.022 65.4968V67.5163L116 63.4835V61.4702Z" fill="#455A64"/>
<path d="M86.3443 0L82.8554 2.01951L65.4046 32.2499L67.1428 33.2472L81.1421 25.1629L88.0825 0.997286L86.3443 0Z" fill="#8B81F7"/>
<path d="M67.1428 33.247L81.1421 25.1627L88.0825 0.99707L84.5936 3.01035L67.1428 33.247Z" fill="#8B81F7"/>
<path opacity="0.5" d="M82.8553 2.01951L84.5936 3.01057L88.0825 0.997286L86.3442 0L82.8553 2.01951Z" fill="white"/>
<path opacity="0.6" d="M84.5936 3.01035L67.1428 33.247L81.1421 25.1627L88.0825 0.99707L84.5936 3.01035Z" fill="#455A64"/>
<path opacity="0.8" d="M92.2069 26.5279C90.8176 24.1219 90.0637 19.6715 94.1819 16.9539C98.3 14.2363 101.577 15.7572 101.577 15.7572C101.577 15.7572 100.026 17.0038 100.069 18.2005C100.069 18.2005 104.536 14.2737 107.888 15.9317C107.888 15.9317 105.147 17.278 105.539 18.481C105.932 19.684 110.692 17.4837 112.343 15.271C112.343 15.271 112.58 17.2095 110.642 19.5967C108.704 21.984 104.568 23.8913 104.568 23.8913C105.067 24.0952 105.606 24.1853 106.145 24.1551C106.684 24.1249 107.209 23.9752 107.683 23.7168C107.683 23.7168 105.085 27.7745 101.484 29.5136C99.8515 30.3122 97.9736 30.4473 96.244 29.8906C94.5144 29.334 93.0675 28.1288 92.2069 26.5279Z" fill="#8B81F7"/>
<path opacity="0.8" d="M94.2504 25.3253C92.9732 23.1125 95.1351 19.8028 99.4214 20.1892C99.4214 20.1892 97.4465 21.5044 98.0508 22.6326C98.6551 23.7608 102.674 21.5979 103.484 20.9497C103.484 20.9497 102.132 24.409 99.4775 25.9361C97.5773 27.0394 95.4466 27.4071 94.2504 25.3253Z" fill="white"/>
<path opacity="0.8" d="M95.7768 37.6291C97.1662 40.0351 100.63 42.9148 105.054 40.702C109.477 38.4893 109.782 34.8928 109.782 34.8928C109.782 34.8928 107.913 35.6034 106.916 34.9801C106.916 34.9801 112.524 33.0727 112.785 29.3391C112.785 29.3391 110.256 31.0408 109.402 30.0996C108.549 29.1584 112.848 26.1353 115.589 25.8112C115.589 25.8112 114.031 24.6394 110.991 25.1193C107.951 25.5993 104.075 28.8966 104.075 28.8966C104.027 28.3343 104.099 27.7682 104.288 27.2361C104.476 26.704 104.775 26.2182 105.166 25.8112C102.557 25.9004 100.02 26.6836 97.8141 28.0801C96.3044 29.0978 95.2484 30.6619 94.8684 32.4431C94.4884 34.2242 94.8141 36.0834 95.7768 37.6291Z" fill="#8B81F7"/>
<path opacity="0.8" d="M97.8141 36.4762C99.0913 38.6827 103.035 38.4645 104.842 34.5564C104.842 34.5564 102.717 35.616 102.044 34.519C101.372 33.422 105.253 31.0347 106.219 30.6607C106.219 30.6607 102.543 30.0997 99.895 31.6331C98.0072 32.7301 96.6304 34.3943 97.8141 36.4762Z" fill="white"/>
</svg>
