<svg width="85.374512" height="282.937256" viewBox="0 0 85.3745 282.937" fill="none" xmlns="http://www.w3.org/2000/svg" xmlns:xlink="http://www.w3.org/1999/xlink">
	<desc>
			Created with Pixso.
	</desc>
	<defs>
		<filter id="filter_1026_2291_dd" x="84.966797" y="172.753906" width="73.419434" height="93.189026" filterUnits="userSpaceOnUse" color-interpolation-filters="sRGB">
			<feFlood flood-opacity="0" result="BackgroundImageFix"/>
			<feColorMatrix in="SourceAlpha" type="matrix" values="0 0 0 0 0 0 0 0 0 0 0 0 0 0 0 0 0 0 127 0" result="hardAlpha"/>
			<feOffset dx="0" dy="4"/>
			<feGaussianBlur stdDeviation="1.33333"/>
			<feComposite in2="hardAlpha" operator="out" k2="-1" k3="1"/>
			<feColorMatrix type="matrix" values="0 0 0 0 0 0 0 0 0 0 0 0 0 0 0 0 0 0 0.25 0"/>
			<feBlend mode="normal" in2="BackgroundImageFix" result="effect_dropShadow_1"/>
			<feBlend mode="normal" in="SourceGraphic" in2="effect_dropShadow_1" result="shape"/>
		</filter>
		<filter id="filter_1026_2292_dd" x="88.966797" y="172.753906" width="65.419434" height="85.189026" filterUnits="userSpaceOnUse" color-interpolation-filters="sRGB">
			<feFlood flood-opacity="0" result="BackgroundImageFix"/>
			<feBlend mode="normal" in="SourceGraphic" in2="BackgroundImageFix" result="shape"/>
			<feGaussianBlur stdDeviation="5.33333" result="effect_layerBlur_1"/>
		</filter>
		<radialGradient id="paint_radial_1026_2283_0" cx="0.000000" cy="0.000000" r="1.000000" gradientUnits="userSpaceOnUse" gradientTransform="translate(42.3486 208.74) rotate(0.550002) scale(26.295 72.3716)">
			<stop stop-color="#2C6AFF"/>
			<stop offset="0.090000" stop-color="#2458D5"/>
			<stop offset="0.230000" stop-color="#1B419D"/>
			<stop offset="0.360000" stop-color="#122D6D"/>
			<stop offset="0.500000" stop-color="#0C1D46"/>
			<stop offset="0.630000" stop-color="#061027"/>
			<stop offset="0.760000" stop-color="#030711"/>
			<stop offset="0.890000" stop-color="#000104"/>
			<stop offset="1.000000" stop-color="#000000"/>
		</radialGradient>
		<linearGradient id="paint_linear_1026_2285_0" x1="41.920609" y1="268.065002" x2="43.059311" y2="151.755981" gradientUnits="userSpaceOnUse">
			<stop stop-color="#000000"/>
			<stop offset="0.150000" stop-color="#000304"/>
			<stop offset="0.320000" stop-color="#010D11"/>
			<stop offset="0.500000" stop-color="#041D27"/>
			<stop offset="0.680000" stop-color="#073445"/>
			<stop offset="0.860000" stop-color="#0C526C"/>
			<stop offset="1.000000" stop-color="#106D90"/>
		</linearGradient>
		<linearGradient id="paint_linear_1026_2286_0" x1="34.140877" y1="269.285522" x2="35.295464" y2="151.059845" gradientUnits="userSpaceOnUse">
			<stop stop-color="#000000"/>
			<stop offset="0.150000" stop-color="#000304"/>
			<stop offset="0.320000" stop-color="#010D11"/>
			<stop offset="0.500000" stop-color="#041D27"/>
			<stop offset="0.680000" stop-color="#073445"/>
			<stop offset="0.860000" stop-color="#0C526C"/>
			<stop offset="1.000000" stop-color="#106D90"/>
		</linearGradient>
		<linearGradient id="paint_linear_1026_2287_0" x1="44.668839" y1="269.815247" x2="45.829132" y2="151.157608" gradientUnits="userSpaceOnUse">
			<stop stop-color="#000000"/>
			<stop offset="0.150000" stop-color="#000304"/>
			<stop offset="0.320000" stop-color="#010D11"/>
			<stop offset="0.500000" stop-color="#041D27"/>
			<stop offset="0.680000" stop-color="#073445"/>
			<stop offset="0.860000" stop-color="#0C526C"/>
			<stop offset="1.000000" stop-color="#106D90"/>
		</linearGradient>
		<linearGradient id="paint_linear_1026_2288_0" x1="51.950790" y1="270.149628" x2="53.103210" y2="152.222519" gradientUnits="userSpaceOnUse">
			<stop stop-color="#000000"/>
			<stop offset="0.150000" stop-color="#000304"/>
			<stop offset="0.320000" stop-color="#010D11"/>
			<stop offset="0.500000" stop-color="#041D27"/>
			<stop offset="0.680000" stop-color="#073445"/>
			<stop offset="0.860000" stop-color="#0C526C"/>
			<stop offset="1.000000" stop-color="#106D90"/>
		</linearGradient>
		<linearGradient id="paint_linear_1026_2298_0" x1="42.672195" y1="159.261719" x2="42.672195" y2="176.006470" gradientUnits="userSpaceOnUse">
			<stop stop-color="#5B3190"/>
			<stop offset="1.000000" stop-color="#3384FF"/>
		</linearGradient>
		<linearGradient id="paint_linear_1026_2311_0" x1="42.645885" y1="14.343750" x2="42.645885" y2="58.025364" gradientUnits="userSpaceOnUse">
			<stop stop-color="#5B3190"/>
			<stop offset="1.000000" stop-color="#3384FF"/>
		</linearGradient>
		<linearGradient id="paint_linear_1026_2315_0" x1="37.160889" y1="64.807266" x2="48.194786" y2="91.445450" gradientUnits="userSpaceOnUse">
			<stop stop-color="#5B3190"/>
			<stop offset="1.000000" stop-color="#3384FF"/>
		</linearGradient>
		<linearGradient id="paint_linear_1026_2317_0" x1="42.676243" y1="65.382812" x2="42.676243" y2="94.215767" gradientUnits="userSpaceOnUse">
			<stop stop-color="#5B3190"/>
			<stop offset="1.000000" stop-color="#3384FF"/>
		</linearGradient>
		<linearGradient id="paint_linear_1026_2325_0" x1="42.663979" y1="127.164062" x2="42.663979" y2="186.262772" gradientUnits="userSpaceOnUse">
			<stop stop-color="#5B3190"/>
			<stop offset="1.000000" stop-color="#3384FF"/>
		</linearGradient>
		<linearGradient id="paint_linear_1026_2331_0" x1="77.786819" y1="115.230469" x2="77.786819" y2="176.132263" gradientUnits="userSpaceOnUse">
			<stop stop-color="#5B3190"/>
			<stop offset="1.000000" stop-color="#3384FF"/>
		</linearGradient>
		<linearGradient id="paint_linear_1026_2334_0" x1="76.623528" y1="116.566406" x2="76.623528" y2="176.123047" gradientUnits="userSpaceOnUse">
			<stop stop-color="#5B3190"/>
			<stop offset="1.000000" stop-color="#3384FF"/>
		</linearGradient>
		<linearGradient id="paint_linear_1026_2340_0" x1="7.573494" y1="115.230469" x2="7.573494" y2="176.132263" gradientUnits="userSpaceOnUse">
			<stop stop-color="#5B3190"/>
			<stop offset="1.000000" stop-color="#3384FF"/>
		</linearGradient>
		<linearGradient id="paint_linear_1026_2343_0" x1="8.705341" y1="116.566406" x2="8.705341" y2="176.123047" gradientUnits="userSpaceOnUse">
			<stop stop-color="#5B3190"/>
			<stop offset="1.000000" stop-color="#3384FF"/>
		</linearGradient>
	</defs>
	<path id="Vector" d="M43.7764 138.166C58.3481 138.306 69.8506 170.771 69.4678 210.678C69.0845 250.585 56.9609 282.823 42.3892 282.683C27.8169 282.543 16.3145 250.078 16.6978 210.171C17.0806 170.264 29.2041 138.026 43.7764 138.166Z" fill="url(#paint_radial_1026_2283_0)" fill-opacity="1.000000" fill-rule="evenodd"/>
	<path id="Vector" d="M28.2422 152.669L29.2397 267.947L56.4746 263.886L57.8882 153.266C57.8882 153.266 36.2861 150.21 28.2422 152.677L28.2422 152.669Z" fill="url(#paint_linear_1026_2285_0)" fill-opacity="1.000000" fill-rule="nonzero"/>
	<path id="Vector" d="M30.9194 269.258L30.6289 151.632L39.9849 151.106L38.8379 267.844L30.9194 269.258Z" fill="url(#paint_linear_1026_2286_0)" fill-opacity="1.000000" fill-rule="nonzero"/>
	<path id="Vector" d="M45.1377 151.152L44.2344 269.816L45.1221 269.824L46.5439 151.592L45.1377 151.152Z" fill="url(#paint_linear_1026_2287_0)" fill-opacity="1.000000" fill-rule="nonzero"/>
	<path id="Vector" d="M51.7231 152.207L50.5605 270.14L53.3804 268.553L53.9067 152.765L51.7231 152.207Z" fill="url(#paint_linear_1026_2288_0)" fill-opacity="1.000000" fill-rule="nonzero"/>
	<path id="Vector" d="M63.2739 170.11L61.5166 151.41L23.7764 151.41L22.0264 170.11C21.6641 173.412 23.6509 176.757 28.0234 179.305C36.103 183.965 49.1899 183.965 57.2549 179.305C61.6641 176.779 63.6436 173.412 63.2739 170.11Z" fill="#37474F" fill-opacity="1.000000" fill-rule="nonzero"/>
	<path id="Vector" d="M29.2988 159.865C21.9136 155.603 21.9136 148.69 29.2988 144.422C36.6846 140.153 48.6636 140.16 56.0493 144.422C63.4346 148.683 63.4346 155.603 56.0493 159.865C48.6636 164.126 36.6919 164.126 29.2988 159.865Z" fill="#455A64" fill-opacity="1.000000" fill-rule="nonzero"/>
	<path id="Vector" d="M62.8677 165.532L62.2769 159.262C61.7378 161.677 59.8691 164.011 56.6567 165.864C48.939 170.296 36.4204 170.296 28.6953 165.864C25.4824 164.011 23.6064 161.677 23.0674 159.269L22.4766 165.525C22.9492 168.102 24.8916 170.606 28.311 172.578C36.2505 177.149 49.1089 177.149 57.0405 172.578C60.4526 170.606 62.4023 168.124 62.8677 165.532Z" fill="url(#paint_linear_1026_2298_0)" fill-opacity="1.000000" fill-rule="nonzero"/>
	<g opacity="0.200000">
		<path id="Vector" d="M42.9697 171.433C53.4941 171.433 59.8828 167.799 62.7632 164.469L62.3271 159.838C57.4087 163.235 50.7173 165.082 43.2651 165.082L42.6743 165.082C37.8481 165.194 33.0444 164.393 28.5166 162.718C28.7158 161.529 28.9448 160.237 29.1958 158.811L27.6006 151.426L25.3853 151.426L23.6274 153.08L22.0322 170.126C21.6699 173.427 23.6567 176.773 28.0293 179.321C36.1089 183.981 49.1958 183.981 57.2607 179.321C57.5342 179.166 57.7998 179.003 58.0513 178.841C58.0513 178.841 51.936 181.884 42.5415 181.485C33.147 181.086 27.394 177.504 27.2241 174.838C27.1479 172.669 27.2817 170.497 27.623 168.353C31.3228 170.2 36.4336 171.433 42.9697 171.433Z" fill="#000000" fill-opacity="1.000000" fill-rule="nonzero"/>
	</g>
	<path id="Vector" d="M43.2651 165.078L42.6743 165.078C34.3652 165.174 26.9653 163.017 21.8398 158.977C20.9092 158.231 20.311 157.148 20.1758 155.963C20.0405 154.778 20.3789 153.588 21.1177 152.651C21.856 151.715 22.9351 151.108 24.1187 150.964C25.3027 150.819 26.4956 151.148 27.438 151.88C30.9531 154.657 36.3447 156.141 42.6074 156.045L42.7407 156.045C49.0107 156.112 54.395 154.657 57.9102 151.88C58.376 151.507 58.9106 151.229 59.4839 151.064C60.0566 150.899 60.6572 150.848 61.2495 150.916C61.8423 150.984 62.416 151.168 62.937 151.458C63.458 151.748 63.9165 152.139 64.2861 152.607C64.6553 153.076 64.9287 153.613 65.0894 154.187C65.2505 154.761 65.2959 155.362 65.2236 155.954C65.1514 156.546 64.9629 157.118 64.6685 157.637C64.374 158.156 63.98 158.611 63.5088 158.977C58.5088 162.951 51.3228 165.078 43.2651 165.078Z" fill="#455A64" fill-opacity="1.000000" fill-rule="nonzero"/>
	<path id="Vector" d="M24.5796 157.988C25.9385 157.988 31.0347 161.792 42.3936 161.792C53.7524 161.792 61.3374 157.36 64.9634 153.889C64.7988 153.431 64.562 153.002 64.2617 152.619C63.5166 151.68 62.4297 151.075 61.2388 150.937C60.0483 150.798 58.8511 151.138 57.9102 151.88C54.395 154.657 49.0479 156.112 42.7407 156.046L42.6074 156.046C36.3447 156.142 30.9531 154.657 27.438 151.88C26.4956 151.149 25.3027 150.82 24.1187 150.964C22.9351 151.109 21.856 151.715 21.1177 152.652C20.3789 153.588 20.0405 154.779 20.1758 155.963C20.311 157.148 20.9092 158.232 21.8398 158.978C26.9653 163.018 34.395 165.174 42.6743 165.078C38.1802 164.998 33.7368 164.11 29.5576 162.456C25.0376 160.736 23.2578 157.988 24.5796 157.988Z" fill="#37474F" fill-opacity="1.000000" fill-rule="nonzero"/>
	<path id="Vector" d="M42.6729 160.002C35.7822 160.002 29.3198 158.451 24.4604 155.644C19.6006 152.838 16.9937 149.197 16.9937 145.305L16.9937 145.024C16.7129 140.135 13.6035 84.7879 15.4277 64.5221C17.5771 40.6522 35.4722 20.8665 40.9004 15.3716C41.1333 15.1351 41.4111 14.9474 41.7173 14.8192C42.0234 14.691 42.3521 14.625 42.6841 14.625C43.0161 14.625 43.3447 14.691 43.6509 14.8192C43.957 14.9474 44.2349 15.1351 44.4678 15.3716C49.9033 20.8665 67.791 40.6522 69.9404 64.5221C71.7646 84.7584 68.6626 140.105 68.3818 145.024L68.3818 145.305C68.3818 149.204 65.7305 152.875 60.9224 155.644C56.1147 158.414 49.5562 160.002 42.6729 160.002Z" fill="#F5F5F5" fill-opacity="1.000000" fill-rule="nonzero"/>
	<path id="Vector" d="M42.6733 14.9051C42.9673 14.9053 43.2588 14.9642 43.5303 15.0784C43.8018 15.1924 44.0474 15.3596 44.2534 15.5698C49.667 21.0498 67.5029 40.769 69.645 64.543C71.4395 84.4469 68.4561 138.361 68.1016 144.705L68.0645 144.705L68.0645 145.274C68.0645 149.062 65.4648 152.659 60.7456 155.377C56.0259 158.095 49.5049 159.69 42.6733 159.69C35.8413 159.69 29.416 158.161 24.6011 155.377C19.7856 152.593 17.2817 149.062 17.2817 145.274L17.2817 144.705C16.9199 138.361 13.9434 84.4469 15.731 64.543C17.8726 40.769 35.7085 21.0498 41.1221 15.5698C41.3291 15.3586 41.5762 15.191 41.8491 15.0769C42.1216 14.9628 42.4146 14.9044 42.71 14.9051L42.6733 14.9051ZM42.71 14.3438C42.3403 14.3421 41.9741 14.4144 41.6333 14.5565C41.292 14.6985 40.9824 14.9075 40.7231 15.171C34.7632 21.1975 17.3115 40.7173 15.1694 64.4913C13.5376 82.6227 15.9082 130.289 16.75 145.274C16.75 149.107 19.2832 152.94 24.3569 155.872C29.4312 158.804 36.063 160.259 42.71 160.259C49.3569 160.259 56.0039 158.782 61.063 155.872C66.1221 152.962 68.6626 149.107 68.6626 145.274C69.5269 130.289 71.8682 82.6227 70.2358 64.4913C68.0645 40.7173 50.583 21.1975 44.6748 15.171C44.4165 14.9084 44.1079 14.7 43.7681 14.5579C43.4282 14.4159 43.0635 14.3431 42.6953 14.3438L42.71 14.3438Z" fill="#E0E0E0" fill-opacity="1.000000" fill-rule="nonzero"/>
	<path id="Vector" d="M68.4268 121.594C67.1411 123.653 65.4316 125.416 63.4121 126.764C62.3999 127.427 61.3545 128.038 60.2808 128.595C59.1729 129.09 58.0649 129.637 56.9351 130.021C47.7041 133.251 37.6504 133.251 28.4194 130.021C27.2676 129.644 26.2041 129.09 25.0737 128.603C24.0176 128.004 22.9321 127.473 21.9351 126.771C19.918 125.423 18.2109 123.66 16.9277 121.601C18.3677 123.502 20.1733 125.097 22.2378 126.291C23.2422 126.926 24.3281 127.406 25.3843 127.938C26.4404 128.47 27.5996 128.861 28.7002 129.186C37.8052 132.004 47.5493 132.004 56.6543 129.186C57.7915 128.861 58.8701 128.374 59.9702 127.938C61.0708 127.502 62.1123 126.919 63.1167 126.284C65.1812 125.089 66.9868 123.495 68.4268 121.594Z" fill="#E0E0E0" fill-opacity="1.000000" fill-rule="nonzero"/>
	<path id="Vector" d="M68.4268 93.6328C67.1416 95.6927 65.4316 97.4552 63.4121 98.8027C62.4014 99.4685 61.3564 100.08 60.2808 100.634C59.1909 101.167 58.0742 101.643 56.9351 102.06C47.7051 105.294 37.6494 105.294 28.4194 102.06C27.2676 101.676 26.2041 101.129 25.0737 100.634C23.9966 100.078 22.9492 99.467 21.9351 98.8027C19.916 97.4568 18.2085 95.694 16.9277 93.6328C18.3721 95.5303 20.1763 97.124 22.2378 98.3226C23.2422 98.9504 24.3281 99.4378 25.3843 99.9695C26.4404 100.501 27.5996 100.893 28.7002 101.218C37.8052 104.036 47.5493 104.036 56.6543 101.218C57.7915 100.893 58.8701 100.398 59.9702 99.9622C61.0708 99.5264 62.1123 98.9504 63.1167 98.3152C65.1792 97.121 66.9839 95.5295 68.4268 93.6328Z" fill="#E0E0E0" fill-opacity="1.000000" fill-rule="nonzero"/>
	<path id="Vector" d="M43.6113 108.621C43.6113 108.808 43.5562 108.991 43.4521 109.146C43.3481 109.302 43.2007 109.423 43.0278 109.495C42.855 109.566 42.665 109.585 42.4814 109.548C42.2983 109.512 42.1299 109.422 41.9976 109.29C41.8652 109.157 41.7754 108.989 41.7388 108.806C41.7026 108.622 41.7212 108.432 41.7925 108.259C41.8643 108.087 41.9854 107.939 42.1406 107.835C42.2964 107.731 42.479 107.676 42.666 107.676C42.917 107.676 43.1572 107.775 43.3345 107.953C43.5117 108.13 43.6113 108.37 43.6113 108.621Z" fill="#E0E0E0" fill-opacity="1.000000" fill-rule="nonzero"/>
	<path id="Vector" d="M59.6738 104.645C59.6738 105.167 59.2505 105.59 58.7285 105.59C58.2065 105.59 57.7832 105.167 57.7832 104.645C57.7832 104.122 58.2065 103.699 58.7285 103.699C59.2505 103.699 59.6738 104.122 59.6738 104.645Z" fill="#E0E0E0" fill-opacity="1.000000" fill-rule="evenodd"/>
	<path id="Vector" d="M27.5488 104.645C27.5488 105.167 27.1255 105.59 26.6035 105.59C26.0815 105.59 25.6582 105.167 25.6582 104.645C25.6582 104.122 26.0815 103.699 26.6035 103.699C27.1255 103.699 27.5488 104.122 27.5488 104.645Z" fill="#E0E0E0" fill-opacity="1.000000" fill-rule="evenodd"/>
	<path id="Vector" d="M59.668 133.789C59.668 133.976 59.6128 134.159 59.5088 134.314C59.4048 134.47 59.2573 134.591 59.0845 134.663C58.9116 134.734 58.7217 134.753 58.5381 134.716C58.355 134.68 58.1865 134.59 58.0542 134.458C57.9219 134.325 57.832 134.157 57.7954 133.974C57.7588 133.79 57.7778 133.6 57.8491 133.427C57.9209 133.255 58.042 133.107 58.1973 133.003C58.353 132.899 58.5356 132.844 58.7227 132.844C58.8472 132.843 58.9707 132.867 59.0854 132.914C59.2007 132.961 59.3052 133.031 59.3936 133.118C59.4814 133.206 59.5508 133.311 59.5981 133.426C59.645 133.541 59.6689 133.665 59.668 133.789Z" fill="#E0E0E0" fill-opacity="1.000000" fill-rule="nonzero"/>
	<path id="Vector" d="M27.5488 133.789C27.5488 133.976 27.4937 134.159 27.3896 134.314C27.2856 134.47 27.1382 134.591 26.9653 134.663C26.7925 134.734 26.6025 134.753 26.4189 134.716C26.2358 134.68 26.0674 134.59 25.9351 134.458C25.8027 134.325 25.7129 134.157 25.6763 133.974C25.6401 133.79 25.6587 133.6 25.73 133.427C25.8018 133.255 25.9229 133.107 26.0781 133.003C26.2339 132.899 26.4165 132.844 26.6035 132.844C26.728 132.843 26.8516 132.867 26.9663 132.914C27.0815 132.961 27.186 133.031 27.2744 133.118C27.3623 133.206 27.4316 133.311 27.479 133.426C27.5259 133.541 27.5498 133.665 27.5488 133.789Z" fill="#E0E0E0" fill-opacity="1.000000" fill-rule="nonzero"/>
	<path id="Vector" d="M58.1685 54.3197C49.6084 59.2606 35.7388 59.2606 27.1494 54.3197C21.8096 51.2252 19.7637 46.9342 21.1377 42.9608C21.4258 42.3256 21.7212 41.7053 22.0239 41.0923C26.8696 31.5454 33.1572 22.8019 40.665 15.1692C40.9233 14.9077 41.231 14.7001 41.5698 14.5584C41.9092 14.4167 42.2729 14.3438 42.6406 14.3438C43.0078 14.3438 43.3721 14.4167 43.7109 14.5584C44.0503 14.7001 44.3579 14.9077 44.6162 15.1692C52.1104 22.7787 58.3882 31.4974 63.2275 41.0184C63.5522 41.6683 63.8628 42.3109 64.1655 42.9682C65.5098 47.0007 63.4932 51.2399 58.1685 54.3197Z" fill="url(#paint_linear_1026_2311_0)" fill-opacity="1.000000" fill-rule="nonzero"/>
	<g opacity="0.150000">
		<path id="Vector" d="M42.6753 55.1963C37.3135 55.1963 32.3359 54.0146 28.5913 51.8654C24.6919 49.6498 22.9487 46.7399 23.8057 43.9703C24.064 43.4164 24.3228 42.8773 24.5884 42.3381C29.2998 33.0778 35.3989 24.5923 42.6753 17.1758C42.6753 17.1758 37.3579 28.0029 36.1465 37.1166C34.9355 46.2303 38.0889 52.1165 42.6753 55.1963Z" fill="#000000" fill-opacity="1.000000" fill-rule="nonzero"/>
	</g>
	<g opacity="0.500000">
		<path id="Vector" d="M44.9629 19.2617C46.6997 20.9642 48.3301 22.7722 49.8447 24.6753C51.3662 26.566 52.7988 28.5305 54.1431 30.5394C54.8228 31.5438 55.4648 32.5778 56.1074 33.597C56.75 34.6161 57.3633 35.6797 57.9243 36.7505C59.0903 38.8708 60.1235 41.061 61.019 43.3089L57.1343 37.1937C55.8345 35.17 54.5273 33.1538 53.1758 31.1597C51.8242 29.1656 50.48 27.179 49.1138 25.1923L44.9629 19.2617Z" fill="#FFFFFF" fill-opacity="1.000000" fill-rule="nonzero"/>
	</g>
	<path id="Vector" d="M44.2905 15.8936L42.666 0L41.041 15.8936C41.0547 16.037 41.1064 16.1741 41.1909 16.291C41.2754 16.4077 41.3892 16.5 41.521 16.5583C41.8765 16.7369 42.2681 16.8299 42.666 16.8299C43.0635 16.8299 43.4556 16.7369 43.8105 16.5583C43.9424 16.5 44.0562 16.4077 44.1406 16.291C44.2251 16.1741 44.2769 16.037 44.2905 15.8936Z" fill="#455A64" fill-opacity="1.000000" fill-rule="nonzero"/>
	<path id="Vector" d="M55.9971 72.6094C59.0439 79.9653 55.5508 88.3986 48.1948 91.4454C40.8389 94.4924 32.4058 90.9993 29.3589 83.6433C26.312 76.2874 29.8052 67.8542 37.1606 64.8073C44.5166 61.7604 52.9502 65.2535 55.9971 72.6094Z" fill="url(#paint_linear_1026_2315_0)" fill-opacity="1.000000" fill-rule="evenodd"/>
	<g opacity="0.150000">
		<path id="Vector" d="M55.9971 72.6094C59.0439 79.9653 55.5508 88.3986 48.1948 91.4454C40.8389 94.4924 32.4058 90.9993 29.3589 83.6433C26.312 76.2874 29.8052 67.8542 37.1606 64.8073C44.5166 61.7604 52.9502 65.2535 55.9971 72.6094Z" fill="#000000" fill-opacity="1.000000" fill-rule="evenodd"/>
	</g>
	<path id="Vector" d="M57.0928 79.7993C57.0928 87.7613 50.6382 94.2158 42.6763 94.2158C34.7144 94.2158 28.2598 87.7613 28.2598 79.7993C28.2598 71.8373 34.7144 65.3828 42.6763 65.3828C50.6382 65.3828 57.0928 71.8373 57.0928 79.7993Z" fill="url(#paint_linear_1026_2317_0)" fill-opacity="1.000000" fill-rule="evenodd"/>
	<g opacity="0.200000">
		<path id="Vector" d="M47.8652 93.2487L43.1973 80.4349L55.0142 87.2517C55.1104 87.0892 55.2061 86.9267 55.2949 86.7642L43.478 79.9401L56.9121 77.5767C56.9121 77.3846 56.8457 77.2 56.8091 77.0154L43.3745 79.3861L52.1411 68.9431C52.001 68.8175 51.8608 68.692 51.7129 68.5738L42.9463 79.0242L42.9463 65.3906L42.3774 65.3906L42.3774 79.0242L33.5962 68.5738L33.168 68.9431L41.9346 79.3861L28.5005 77.0154C28.5005 77.2 28.4341 77.3846 28.4043 77.5767L41.8384 79.9401L30.0215 86.7642C30.1104 86.9267 30.2065 87.0892 30.3022 87.2517L42.1191 80.4349L37.4517 93.2487L37.9834 93.4407L42.6509 80.6269L47.311 93.4407C47.5181 93.3817 47.688 93.3152 47.8652 93.2487Z" fill="#000000" fill-opacity="1.000000" fill-rule="nonzero"/>
	</g>
	<path id="Vector" d="M53.085 79.8002C53.085 85.5514 48.4224 90.2137 42.6714 90.2137C36.9199 90.2137 32.2578 85.5514 32.2578 79.8002C32.2578 74.0489 36.9199 69.3866 42.6714 69.3866C48.4224 69.3866 53.085 74.0489 53.085 79.8002Z" fill="#37474F" fill-opacity="1.000000" fill-rule="evenodd"/>
	<path id="Vector" d="M42.6738 69.3867C40.0879 69.3932 37.5967 70.3618 35.6855 72.1037C33.7744 73.8456 32.5796 76.2363 32.334 78.8105C32.5659 81.3959 33.7549 83.8016 35.668 85.556C37.5811 87.3104 40.0806 88.287 42.6763 88.2944C45.272 88.3018 47.7769 87.3394 49.7002 85.5959C51.6235 83.8525 52.8262 81.4537 53.0723 78.8696C52.8398 76.2747 51.6426 73.8612 49.7173 72.1057C47.7925 70.35 45.2793 69.3799 42.6738 69.3867Z" fill="#5E80C1" fill-opacity="1.000000" fill-rule="nonzero"/>
	<path id="Vector" d="M50.9902 77.1484C50.9902 77.7633 50.8076 78.3644 50.4658 78.8758C50.1245 79.3871 49.6387 79.7856 49.0708 80.021C48.5024 80.2563 47.8774 80.3179 47.2744 80.1979C46.6709 80.0779 46.1172 79.7818 45.6821 79.347C45.2476 78.9121 44.9512 78.3581 44.8311 77.7549C44.7114 77.1518 44.7729 76.5266 45.0083 75.9585C45.2437 75.3903 45.6421 74.9047 46.1533 74.563C46.6646 74.2214 47.2656 74.0391 47.8809 74.0391C48.7056 74.0391 49.4961 74.3666 50.0796 74.9498C50.6626 75.5328 50.9902 76.3237 50.9902 77.1484Z" fill="#E0E0E0" fill-opacity="1.000000" fill-rule="nonzero"/>
	<path id="Vector" d="M49.0464 83.3103C49.0464 83.6653 48.9409 84.0123 48.7441 84.3074C48.5469 84.6025 48.2666 84.8325 47.9385 84.9684C47.6104 85.1042 47.2495 85.1398 46.9014 85.0705C46.5532 85.0013 46.2339 84.8303 45.9829 84.5793C45.7314 84.3284 45.5605 84.0085 45.4917 83.6605C45.4224 83.3123 45.458 82.9515 45.5938 82.6235C45.7295 82.2956 45.9595 82.0153 46.2549 81.8181C46.5498 81.6209 46.897 81.5156 47.252 81.5156C47.4878 81.5146 47.7217 81.5604 47.9395 81.6503C48.1577 81.7401 48.356 81.8723 48.5229 82.0391C48.6899 82.2059 48.8218 82.4042 48.9116 82.6224C49.0015 82.8406 49.0474 83.0743 49.0464 83.3103Z" fill="#E0E0E0" fill-opacity="1.000000" fill-rule="nonzero"/>
	<path id="Vector" d="M48.7759 125.592C48.8105 124.768 48.6787 123.946 48.3872 123.174C48.0962 122.403 47.6519 121.698 47.0811 121.103C46.5107 120.508 45.8257 120.034 45.0674 119.71C44.3086 119.386 43.4927 119.219 42.668 119.219C41.8433 119.219 41.0273 119.386 40.2686 119.71C39.5103 120.034 38.8252 120.508 38.2549 121.103C37.6841 121.698 37.2397 122.403 36.9487 123.174C36.6572 123.946 36.5254 124.768 36.5601 125.592C36.5601 125.592 36.5601 127.845 36.5601 128.236L37.9263 160.688C37.959 161.646 38.3623 162.553 39.0513 163.219C39.7407 163.884 40.6611 164.256 41.6191 164.255L43.6724 164.255C44.6304 164.256 45.5513 163.884 46.2402 163.219C46.9292 162.553 47.3325 161.646 47.3652 160.688L48.7759 128.244C48.7979 127.845 48.7759 125.592 48.7759 125.592Z" fill="#455A64" fill-opacity="1.000000" fill-rule="nonzero"/>
	<path id="Vector" d="M43.6924 164.253L41.6392 164.253C40.6812 164.253 39.7603 163.881 39.0713 163.216C38.3823 162.55 37.979 161.643 37.9463 160.685L36.5503 128.241C36.5156 127.417 36.6475 126.594 36.939 125.823C37.23 125.051 37.6743 124.347 38.2451 123.751C38.8154 123.156 39.5005 122.682 40.2588 122.358C41.0176 122.034 41.8335 121.867 42.6582 121.867C43.4829 121.867 44.2988 122.034 45.0571 122.358C45.8159 122.682 46.501 123.156 47.0713 123.751C47.6421 124.347 48.0864 125.051 48.3774 125.823C48.6689 126.594 48.8008 127.417 48.7661 128.241L47.3999 160.693C47.3652 161.651 46.959 162.559 46.2671 163.224C45.5747 163.888 44.6514 164.257 43.6924 164.253Z" fill="#37474F" fill-opacity="1.000000" fill-rule="nonzero"/>
	<path id="Vector" d="M42.6641 186.263C42.1885 186.263 41.731 186.078 41.3892 185.747C41.0474 185.417 40.8477 184.966 40.8325 184.49L39.2446 130.709C39.2275 130.25 39.3037 129.791 39.4678 129.362C39.6323 128.932 39.8813 128.541 40.2007 128.21C40.5195 127.879 40.9023 127.615 41.3257 127.436C41.749 127.256 42.2041 127.164 42.6641 127.164C43.124 127.164 43.5791 127.256 44.0024 127.436C44.4253 127.615 44.8081 127.879 45.1274 128.21C45.4468 128.541 45.6958 128.932 45.8604 129.362C46.0244 129.791 46.1006 130.25 46.0835 130.709L44.4956 184.49C44.4805 184.966 44.2803 185.417 43.9385 185.747C43.5967 186.078 43.1396 186.263 42.6641 186.263Z" fill="url(#paint_linear_1026_2325_0)" fill-opacity="1.000000" fill-rule="nonzero"/>
	<g opacity="0.200000">
		<path id="Vector" d="M40.8359 184.486C40.8359 184.976 41.0303 185.446 41.3765 185.792C41.7231 186.138 42.1924 186.333 42.6821 186.333C43.1719 186.333 43.6416 186.138 43.9878 185.792C44.334 185.446 44.5288 184.976 44.5288 184.486L44.6763 177.721L44.5952 177.507C44.5952 177.507 44.3364 180.661 42.6455 179.878C41.4341 179.317 40.688 175.557 40.4297 171.82L40.8359 184.486Z" fill="#000000" fill-opacity="1.000000" fill-rule="nonzero"/>
	</g>
	<g opacity="0.500000">
		<path id="Vector" d="M46.0874 130.709C46.104 130.25 46.0283 129.791 45.8638 129.362C45.6997 128.932 45.4507 128.541 45.1313 128.21C44.812 127.879 44.4292 127.615 44.0063 127.436C43.583 127.256 43.1274 127.164 42.668 127.164C42.4746 127.166 42.2822 127.183 42.0918 127.216C44.1821 127.615 44.8467 128.885 44.9648 133.959C45.083 139.269 44.5586 182.289 44.5586 182.289L46.0874 130.709Z" fill="#FFFFFF" fill-opacity="1.000000" fill-rule="nonzero"/>
	</g>
	<path id="Vector" d="M71.1523 106.947C70.3252 106.475 69.1802 106.556 67.9028 107.294C66.5093 108.213 65.3604 109.457 64.5547 110.918C63.7495 112.38 63.3115 114.016 63.2793 115.684L64.3799 151.482C64.354 151.787 64.4087 152.093 64.5381 152.371C64.6675 152.648 64.8677 152.886 65.1182 153.062C65.5244 153.291 67.0015 154.163 67.4224 154.392C67.7031 154.518 68.0117 154.568 68.3179 154.537C68.624 154.506 68.916 154.394 69.1655 154.214L71.1597 153.07C71.873 152.6 72.4707 151.975 72.9072 151.24C73.3433 150.506 73.6069 149.682 73.6782 148.83L74.7935 111.482C74.8374 109.887 74.313 108.764 73.4346 108.262L71.1523 106.947Z" fill="#263238" fill-opacity="1.000000" fill-rule="nonzero"/>
	<path id="Vector" d="M69.2041 154.228C67.8525 155.011 66.7227 154.376 66.6782 152.818L65.5703 117.02C65.6016 115.348 66.0396 113.71 66.8467 112.245C67.6533 110.781 68.8047 109.535 70.2012 108.615C72.8452 107.087 74.9131 108.379 74.8315 111.496L73.7163 148.844C73.6455 149.695 73.3818 150.519 72.9458 151.254C72.5093 151.988 71.9116 152.614 71.1982 153.083L69.2041 154.228Z" fill="#37474F" fill-opacity="1.000000" fill-rule="nonzero"/>
	<path id="Vector" d="M71.1528 106.948C71.5518 107.169 73.0806 108.056 73.4644 108.277C72.6299 107.797 71.4854 107.878 70.1929 108.617C68.1978 109.918 66.7231 111.878 66.0273 114.156L63.7305 112.827C64.4312 110.549 65.9077 108.589 67.9033 107.288C69.1885 106.556 70.3257 106.475 71.1528 106.948Z" fill="#455A64" fill-opacity="1.000000" fill-rule="nonzero"/>
	<path id="Vector" d="M74.5713 116.427L72.4888 115.23L70.1992 116.552L70.1992 174.994C72.6069 176.39 74.8521 176.471 76.6616 175.407L78.936 174.085C81.2109 172.786 82.7988 169.735 83.1753 165.341L85.2954 141.279C86.0708 131.84 81.0557 120.186 74.5713 116.427Z" fill="url(#paint_linear_1026_2331_0)" fill-opacity="1.000000" fill-rule="nonzero"/>
	<g opacity="0.200000">
		<path id="Vector" d="M74.5713 116.427L72.4888 115.23L70.1992 116.552L70.1992 174.994C72.6069 176.39 74.8521 176.471 76.6616 175.407L78.936 174.085C81.2109 172.786 82.7988 169.735 83.1753 165.341L85.2954 141.279C86.0708 131.84 81.0557 120.186 74.5713 116.427Z" fill="#FFFFFF" fill-opacity="1.000000" fill-rule="nonzero"/>
	</g>
	<path id="Vector" d="M70.1992 174.993L70.1992 116.566L72.2744 117.77C78.7588 121.515 83.7739 133.169 82.9614 142.6L80.8638 166.647C80.1992 174.557 75.6201 178.124 70.1992 174.993Z" fill="url(#paint_linear_1026_2334_0)" fill-opacity="1.000000" fill-rule="nonzero"/>
	<g opacity="0.200000">
		<path id="Vector" d="M70.1992 174.993L70.1992 116.566L72.2744 117.77C78.7588 121.515 83.7739 133.169 82.9614 142.6L80.8638 166.647C80.1992 174.557 75.6201 178.124 70.1992 174.993Z" fill="#000000" fill-opacity="1.000000" fill-rule="nonzero"/>
	</g>
	<g opacity="0.200000">
		<path id="Vector" d="M80.9375 165.998C80.6055 169.846 76.7871 171.33 74.0103 168.383C71.2334 165.436 70.1992 161.618 70.1992 149.742L70.1992 174.993C75.6201 178.125 80.1992 174.557 80.8784 166.67L80.9375 165.998Z" fill="#000000" fill-opacity="1.000000" fill-rule="nonzero"/>
	</g>
	<path id="Vector" d="M14.188 106.947C15.0151 106.475 16.1597 106.556 17.4375 107.294C18.8315 108.213 19.9819 109.456 20.7886 110.918C21.5952 112.379 22.0342 114.015 22.0684 115.684L20.9604 151.482C20.9863 151.787 20.9316 152.093 20.8018 152.371C20.6724 152.648 20.4722 152.886 20.2217 153.062C19.8154 153.291 18.3384 154.163 17.9248 154.392C17.6431 154.518 17.333 154.568 17.0259 154.537C16.7188 154.506 16.4253 154.394 16.1743 154.214L14.188 153.07C13.4722 152.601 12.873 151.976 12.4355 151.242C11.998 150.507 11.7334 149.682 11.6621 148.83L10.5469 111.482C10.5098 109.887 11.0342 108.764 11.9131 108.262C12.2603 108.055 13.7891 107.169 14.188 106.947Z" fill="#263238" fill-opacity="1.000000" fill-rule="nonzero"/>
	<path id="Vector" d="M16.1372 154.228C17.4888 155.011 18.6187 154.376 18.6631 152.818L19.7705 117.02C19.7349 115.349 19.2939 113.711 18.4863 112.247C17.6782 110.783 16.5273 109.537 15.1328 108.615C12.4888 107.087 10.4131 108.379 10.4946 111.496L11.6099 148.844C11.6812 149.696 11.9453 150.521 12.3833 151.255C12.8208 151.99 13.4199 152.615 14.1357 153.083L16.1372 154.228Z" fill="#37474F" fill-opacity="1.000000" fill-rule="nonzero"/>
	<path id="Vector" d="M14.1865 106.948C13.7881 107.169 12.2593 108.056 11.875 108.277C12.7095 107.797 13.8618 107.878 15.147 108.617C17.144 109.915 18.6191 111.877 19.312 114.156L21.6167 112.827C20.9126 110.549 19.4336 108.589 17.436 107.288C16.1587 106.556 15.0137 106.475 14.1865 106.948Z" fill="#455A64" fill-opacity="1.000000" fill-rule="nonzero"/>
	<path id="Vector" d="M10.7676 116.427L12.8501 115.23L15.147 116.552L15.147 174.994C12.7319 176.39 10.4868 176.471 8.67725 175.407L6.40234 174.085C4.13525 172.786 2.54736 169.735 2.16309 165.341L0.0878906 141.279C-0.731934 131.84 4.28271 120.186 10.7676 116.427Z" fill="url(#paint_linear_1026_2340_0)" fill-opacity="1.000000" fill-rule="nonzero"/>
	<g opacity="0.200000">
		<path id="Vector" d="M10.7676 116.427L12.8501 115.23L15.147 116.552L15.147 174.994C12.7319 176.39 10.4868 176.471 8.67725 175.407L6.40234 174.085C4.13525 172.786 2.54736 169.735 2.16309 165.341L0.0878906 141.279C-0.731934 131.84 4.28271 120.186 10.7676 116.427Z" fill="#FFFFFF" fill-opacity="1.000000" fill-rule="nonzero"/>
	</g>
	<path id="Vector" d="M15.1333 174.993L15.1333 116.566L13.0508 117.77C6.56641 121.515 1.55127 133.169 2.36377 142.6L4.46143 166.647C5.14062 174.557 9.71973 178.124 15.1333 174.993Z" fill="url(#paint_linear_1026_2343_0)" fill-opacity="1.000000" fill-rule="nonzero"/>
	<g opacity="0.200000">
		<path id="Vector" d="M15.1333 174.993L15.1333 116.566L13.0508 117.77C6.56641 121.515 1.55127 133.169 2.36377 142.6L4.46143 166.647C5.14062 174.557 9.71973 178.124 15.1333 174.993Z" fill="#000000" fill-opacity="1.000000" fill-rule="nonzero"/>
	</g>
	<g opacity="0.200000">
		<path id="Vector" d="M4.40234 165.998C4.73486 169.846 8.56055 171.33 11.3301 168.383C14.0996 165.436 15.1406 161.618 15.1484 149.742L15.1484 174.993C9.71973 178.125 5.14111 174.557 4.46143 166.67L4.40234 165.998Z" fill="#000000" fill-opacity="1.000000" fill-rule="nonzero"/>
	</g>
</svg>
