<svg width="236.087891" height="226.114563" viewBox="0 0 236.088 226.115" fill="none" xmlns="http://www.w3.org/2000/svg" xmlns:xlink="http://www.w3.org/1999/xlink">
	<desc>
			Created with Pixso.
	</desc>
	<defs>
		<linearGradient id="paint_linear_776_3243_0" x1="236.086899" y1="109.714355" x2="4.877625" y2="119.917252" gradientUnits="userSpaceOnUse">
			<stop stop-color="#20C7ED"/>
			<stop offset="1.000000" stop-color="#D251FD"/>
		</linearGradient>
		<linearGradient id="paint_linear_776_3244_0" x1="222.520493" y1="99.983871" x2="4.442066" y2="119.604660" gradientUnits="userSpaceOnUse">
			<stop stop-color="#1C3693"/>
			<stop offset="1.000000" stop-color="#523189"/>
		</linearGradient>
		<linearGradient id="paint_linear_776_3245_0" x1="133.774261" y1="145.648300" x2="185.795868" y2="73.501907" gradientUnits="userSpaceOnUse">
			<stop stop-color="#30255D"/>
			<stop offset="1.000000" stop-color="#4513B5"/>
		</linearGradient>
	</defs>
	<path id="Vector" d="M162.975 57.0463L161.858 56.6438L131.56 46.4504L83.0352 68.425L62.6914 53.7554L39.1064 62.1671L69.4521 115.041L76.2549 126.979L84.791 141.874L98.2246 165.224L119.724 202.728L145.24 207.162L180.896 186.256L178.088 177.55L217.689 135.228C213.269 122.145 205.911 109.305 197.993 97.8691C190.386 86.9081 182.265 77.285 175.771 70.1407C172.577 66.6327 169.745 63.7371 167.611 61.5452C164.747 58.6257 162.998 57.0132 162.998 57.0132L162.975 57.0463Z" fill="#A1A1A1" fill-opacity="1.000000" fill-rule="evenodd"/>
	<path id="Vector" d="M162.975 57.0463L161.858 56.6438L131.56 46.4504L83.0352 68.425L62.6914 53.7554L39.1064 62.1671L69.4521 115.041L76.2549 126.979L84.791 141.874L98.2246 165.224L119.724 202.728L145.24 207.162L180.896 186.256L178.088 177.55L217.689 135.228C213.269 122.145 205.911 109.305 197.993 97.8691C190.386 86.9081 182.265 77.285 175.771 70.1407C172.577 66.6327 169.745 63.7371 167.611 61.5452C164.747 58.6257 162.998 57.0132 162.998 57.0132L162.975 57.0463Z" fill="url(#paint_linear_776_3243_0)" fill-opacity="1.000000" fill-rule="evenodd"/>
	<path id="Vector" d="M145.239 207.162L88.1025 130.249L61.0801 88.3605L78.0947 81.541L83.6396 73.4333L101.551 84.2382C101.551 84.2382 141.832 71.1888 162.939 57.0227L131.502 46.46L82.9775 68.4347L62.6328 53.765L39.0811 62.2004L119.689 202.704L145.215 207.195L145.239 207.162Z" fill="#A1A1A1" fill-opacity="1.000000" fill-rule="evenodd"/>
	<path id="Vector" d="M145.239 207.162L88.1025 130.249L61.0801 88.3605L78.0947 81.541L83.6396 73.4333L101.551 84.2382C101.551 84.2382 141.832 71.1888 162.939 57.0227L131.502 46.46L82.9775 68.4347L62.6328 53.765L39.0811 62.2004L119.689 202.704L145.215 207.195L145.239 207.162Z" fill="url(#paint_linear_776_3244_0)" fill-opacity="1.000000" fill-rule="evenodd"/>
	<g opacity="0.200000">
		<path id="Vector" d="M178.088 177.55L101.609 84.2286L162.998 57.0132C162.998 57.0132 210.659 102.581 217.689 135.228L178.088 177.55Z" fill="url(#paint_linear_776_3245_0)" fill-opacity="1.000000" fill-rule="evenodd"/>
	</g>
	<path id="Vector" d="M175.78 70.1982C173.58 72.8314 171.38 75.4647 169.237 78.0887C156.828 93.0012 144.347 108.013 129.973 121.056C127.096 123.653 124.072 126.245 120.913 128.538C110.356 136.147 97.75 140.821 84.791 141.875L98.2246 165.224C102.411 166.937 107.397 167.82 111.269 167.045C114.581 166.419 117.366 164.158 120 162.038C146.009 140.656 172.051 119.299 198.003 97.9265C190.396 86.9655 182.274 77.3425 175.78 70.1982Z" fill="#0C5A63" fill-opacity="1.000000" fill-rule="evenodd"/>
	<path id="Vector" d="M162.976 57.0457L161.86 56.6433C157.391 62.563 152.648 68.2352 147.707 73.7646C138.111 84.4269 127.559 94.3986 115.229 101.683C101.384 109.884 85.4912 114.449 69.4531 115.041L76.2568 126.979C83.9785 126.921 92.3604 124.626 99.0156 121.94C107.862 118.373 115.818 112.908 123.327 107.02C140.064 93.9723 154.966 78.5966 167.612 61.5447C164.748 58.6252 162.999 57.0126 162.999 57.0126L162.976 57.0457Z" fill="#0E5D67" fill-opacity="1.000000" fill-rule="evenodd"/>
</svg>
