<svg width="330.399414" height="220.933228" viewBox="0 0 330.399 220.933" fill="none" xmlns="http://www.w3.org/2000/svg" xmlns:xlink="http://www.w3.org/1999/xlink">
	<desc>
			Created with Pixso.
	</desc>
	<defs>
		<linearGradient id="paint_linear_776_3126_0" x1="0.000000" y1="0.000061" x2="330.399017" y2="213.852051" gradientUnits="userSpaceOnUse">
			<stop stop-color="#20C7ED"/>
			<stop offset="1.000000" stop-color="#D251FD"/>
		</linearGradient>
		<linearGradient id="paint_linear_776_3127_0" x1="256.081207" y1="220.571884" x2="256.081207" y2="25.005859" gradientUnits="userSpaceOnUse">
			<stop stop-color="#6389FD"/>
			<stop offset="1.000000" stop-color="#5234DD"/>
		</linearGradient>
		<linearGradient id="paint_linear_776_3128_0" x1="196.838989" y1="112.506897" x2="196.838989" y2="67.839844" gradientUnits="userSpaceOnUse">
			<stop stop-color="#002D61"/>
			<stop offset="1.000000" stop-color="#052631"/>
		</linearGradient>
		<linearGradient id="paint_linear_776_3129_0" x1="273.925171" y1="132.092239" x2="0.079803" y2="132.092239" gradientUnits="userSpaceOnUse">
			<stop stop-color="#001561"/>
			<stop offset="1.000000" stop-color="#051F31"/>
		</linearGradient>
		<linearGradient id="paint_linear_776_3130_0" x1="170.516586" y1="220.571640" x2="170.516586" y2="194.349609" gradientUnits="userSpaceOnUse">
			<stop stop-color="#240061"/>
			<stop offset="1.000000" stop-color="#1B0531"/>
		</linearGradient>
		<linearGradient id="paint_linear_776_3131_0" x1="96.199944" y1="80.462822" x2="96.199944" y2="0.167969" gradientUnits="userSpaceOnUse">
			<stop stop-color="#01003E"/>
			<stop offset="1.000000" stop-color="#1B0531"/>
		</linearGradient>
		<linearGradient id="paint_linear_776_3134_0" x1="279.223816" y1="100.333008" x2="122.234375" y2="100.333008" gradientUnits="userSpaceOnUse">
			<stop stop-color="#B77CBC"/>
			<stop offset="1.000000" stop-color="#451390"/>
		</linearGradient>
		<linearGradient id="paint_linear_776_3138_0" x1="261.133636" y1="135.309723" x2="19.232162" y2="135.309723" gradientUnits="userSpaceOnUse">
			<stop stop-color="#967CFF"/>
			<stop offset="1.000000" stop-color="#4513B5"/>
		</linearGradient>
		<linearGradient id="paint_linear_776_3139_0" x1="315.729401" y1="44.224274" x2="55.003906" y2="44.224274" gradientUnits="userSpaceOnUse">
			<stop stop-color="#00203E"/>
			<stop offset="1.000000" stop-color="#051C31"/>
		</linearGradient>
		<linearGradient id="paint_linear_776_3141_0" x1="62.256432" y1="99.111076" x2="62.256432" y2="90.275391" gradientUnits="userSpaceOnUse">
			<stop stop-color="#01003E"/>
			<stop offset="1.000000" stop-color="#1B0531"/>
		</linearGradient>
	</defs>
	<path id="Vector" d="M0.0410156 90.2754C0.0410156 90.2754 8.47461 99.3961 19.2314 109.168C27.2988 116.538 36.6699 124.234 44.7373 128.794L54.5576 133.721L134.906 173.868L139.388 182.175L142.892 188.69L145.947 194.349L165.22 220.571C165.22 220.571 185.307 221.386 194.923 220.571L220.144 191.906L234.812 175.212L244.102 164.666L253.514 161.572L261.052 159.088L273.805 154.894L298.618 131.563L303.915 126.636L308.764 122.076L319.235 112.263L330.399 101.758C330.399 101.758 321.761 91.1304 315.649 88.2395L304.975 66.5371C304.975 66.5371 261.54 25.9825 238.561 15.3145C238.561 15.3145 162.327 -1.86829 74.6035 0.167603L70.0811 23.4987L54.9238 21.8701L33.5732 48.4586L18.6201 67.0664L4.15625 85.0635L4.07422 85.145L3.17773 86.285L0 90.2347L0.0410156 90.2754Z" fill="#A1A1A1" fill-opacity="1.000000" fill-rule="evenodd"/>
	<path id="Vector" d="M0.0410156 90.2754C0.0410156 90.2754 8.47461 99.3961 19.2314 109.168C27.2988 116.538 36.6699 124.234 44.7373 128.794L54.5576 133.721L134.906 173.868L139.388 182.175L142.892 188.69L145.947 194.349L165.22 220.571C165.22 220.571 185.307 221.386 194.923 220.571L220.144 191.906L234.812 175.212L244.102 164.666L253.514 161.572L261.052 159.088L273.805 154.894L298.618 131.563L303.915 126.636L308.764 122.076L319.235 112.263L330.399 101.758C330.399 101.758 321.761 91.1304 315.649 88.2395L304.975 66.5371C304.975 66.5371 261.54 25.9825 238.561 15.3145C238.561 15.3145 162.327 -1.86829 74.6035 0.167603L70.0811 23.4987L54.9238 21.8701L33.5732 48.4586L18.6201 67.0664L4.15625 85.0635L4.07422 85.145L3.17773 86.285L0 90.2347L0.0410156 90.2754Z" fill="url(#paint_linear_776_3126_0)" fill-opacity="1.000000" fill-rule="evenodd"/>
	<path id="Vector" d="M254.736 25.0059L242.758 84.1276L210.773 110.431L209.144 120.163L212.403 141.458L181.641 199.643L194.964 220.531L244.143 164.626L273.846 154.895L330.399 101.758L314.672 86.0006L304.975 66.5377C304.975 66.5377 266.186 32.335 254.655 25.0059L254.736 25.0059Z" fill="url(#paint_linear_776_3127_0)" fill-opacity="1.000000" fill-rule="evenodd"/>
	<path id="Vector" d="M279.225 110.471L242.759 84.1675L114.453 67.8398L122.235 80.4623L210.773 110.471C210.773 110.471 250.541 115.072 279.225 110.471Z" fill="url(#paint_linear_776_3128_0)" fill-opacity="1.000000" fill-rule="evenodd"/>
	<path id="Vector" d="M273.885 154.894L209.141 120.203L138.204 103.386L0.0390625 90.2754L44.7363 128.794L134.904 173.868L212.4 141.498L241.085 164.666L273.885 154.894Z" fill="url(#paint_linear_776_3129_0)" fill-opacity="1.000000" fill-rule="evenodd"/>
	<path id="Vector" d="M194.964 220.572L181.64 199.684L145.988 194.35C145.988 194.35 157.071 214.016 165.261 220.572L194.964 220.572Z" fill="url(#paint_linear_776_3130_0)" fill-opacity="1.000000" fill-rule="evenodd"/>
	<path id="Vector" d="M122.235 80.4628L70.1641 23.4991L74.6455 0.167969L114.413 67.8404L122.235 80.4628Z" fill="url(#paint_linear_776_3131_0)" fill-opacity="1.000000" fill-rule="evenodd"/>
	<path id="Vector" d="M246.709 87.0176L243.857 78.752L229.148 82.8644L246.709 87.0176Z" fill="#756AC9" fill-opacity="1.000000" fill-rule="evenodd"/>
	<path id="Vector" d="M184.33 194.594L186.571 208.845L176.996 198.991L184.33 194.594Z" fill="#756AC9" fill-opacity="1.000000" fill-rule="evenodd"/>
	<g opacity="0.500000">
		<path id="Vector" d="M279.224 110.472L209.143 120.203L138.206 103.387L122.234 80.4629L210.772 110.472L279.224 110.472Z" fill="url(#paint_linear_776_3134_0)" fill-opacity="1.000000" fill-rule="evenodd"/>
	</g>
	<path id="Vector" d="M18.6602 67.1075C21.5938 66.0489 24.4863 64.2573 26.9717 62.5472C42.333 51.7978 59.6904 44.1022 77.7812 39.2161C82.2627 37.9946 86.9072 36.8952 90.8594 34.4929C92.5713 33.4342 94.2012 32.1312 96.1562 31.5612C98.3975 30.9097 100.761 31.3169 103.083 31.7241C147.251 39.0125 194.433 30.3804 235.789 47.5225C240.638 49.5176 245.364 51.9199 249.356 55.3402C256.568 61.5292 260.684 70.65 267.284 77.4905C272.907 83.2724 280.119 87.222 286.476 92.1081C294.95 98.6636 303.262 107.825 307.459 117.76C307.825 118.615 308.355 120.162 308.926 122.076L319.397 112.263C303.67 97.2792 284.927 85.5118 271.114 68.5327C263.088 58.7198 255.917 47.7261 245.241 40.9669C236.196 35.2258 225.439 32.9049 214.846 31.0726C177.116 24.5985 138.734 22.8884 100.476 21.219C96.4824 21.0561 92.4492 20.8932 88.5371 21.6262C85.4404 22.1962 82.5068 23.377 79.6143 24.5985C63.6826 31.1948 48.2812 39.2161 33.6953 48.459L18.7412 67.0668L18.6602 67.1075Z" fill="#C39ECB" fill-opacity="1.000000" fill-rule="evenodd"/>
	<path id="Vector" d="M2.07812 88.8503C29.1328 87.1401 53.1719 71.8711 78.9639 63.524C123.049 49.2729 170.884 55.5841 216.803 62.0582C223.852 63.0354 231.063 64.0941 237.583 66.985C245.243 70.4053 251.518 76.1871 257.426 82.0912C261.907 86.4886 285.458 116.66 298.7 131.522L303.997 126.595C299.596 123.827 295.358 119.511 291.325 114.991C279.061 101.269 265.778 87.9952 254.288 73.6219C251.272 70.2424 248.177 66.7814 244.184 64.6641C240.965 62.9133 237.338 62.0989 233.793 61.366C193.66 52.7339 152.874 47.2371 111.926 44.9161C109.359 44.794 106.548 44.7125 104.511 46.3005C102.596 47.7664 101.821 50.2501 100.273 52.0417C95.9131 56.9685 88.0898 54.6884 81.5303 54.8919C72.7705 55.2177 65.1914 60.6738 57.6543 65.112C45.2266 72.4819 31.4551 77.5308 17.1943 80.0146C12.6309 80.8289 7.25293 81.969 4.2373 85.0228L4.15625 85.1042L3.25977 86.2444C2.73047 86.9773 2.36328 87.8323 2.11914 88.7689L2.07812 88.8503Z" fill="#C39ECB" fill-opacity="1.000000" fill-rule="evenodd"/>
	<path id="Vector" d="M139.43 182.174L142.934 188.689C156.746 180.546 172.188 175.13 188.038 172.972C192.968 172.28 198.225 171.954 202.788 174.071C206.21 175.659 208.899 178.55 211.385 181.36C214.44 184.78 217.374 188.282 220.227 191.906L234.895 175.212C224.831 169.715 213.219 162.386 202.462 162.182C198.876 162.101 195.372 162.833 191.909 163.607C181.438 165.847 171.007 168.045 160.535 170.285C154.872 171.506 149.046 172.768 144.4 176.229C142.363 177.777 140.57 179.853 139.471 182.215L139.43 182.174Z" fill="#C39ECB" fill-opacity="1.000000" fill-rule="evenodd"/>
	<g opacity="0.500000">
		<path id="Vector" d="M19.1914 109.169C27.2588 116.539 36.6299 124.235 44.6973 128.795L54.5166 133.722C65.7217 124.927 82.2236 125.13 96.8916 125.985C112.904 126.922 128.958 127.899 144.971 128.836C167.502 130.179 190.238 131.604 211.832 138.119C228.008 142.965 241.78 150.742 253.596 161.532L261.134 159.048C252.292 152.818 239.702 147.159 236.238 145.123C224.056 138.038 211.71 130.872 198.224 126.759C175.488 119.796 151.123 121.873 127.409 120.489C91.1875 118.371 55.251 108.029 19.2324 109.128L19.1914 109.169Z" fill="url(#paint_linear_776_3138_0)" fill-opacity="1.000000" fill-rule="evenodd"/>
	</g>
	<path id="Vector" d="M305.055 66.5374L301.143 80.0557L247.034 62.9136L229.146 48.1739L187.139 52.8564L95.9932 27.0008L84.0137 25.0056L74.6426 0.167969L70.1611 23.4991L55.0039 21.9111L87.8848 30.2582L183.839 54.5665L223.769 59.3304L246.708 66.3339L300.939 83.7609L315.729 88.2399L305.055 66.5374Z" fill="url(#paint_linear_776_3139_0)" fill-opacity="1.000000" fill-rule="evenodd"/>
	<path id="Vector" d="M70.1611 23.4981L87.0293 28.5064L169.008 49.9645L183.839 54.5656L223.769 59.3295L246.708 66.3329L303.995 83.76L315.729 88.2389L323.104 94.3873L252.331 71.5447L246.708 67.8395L222.872 62.0168L196.836 57.5787L179.52 59.9402L151.324 47.6029L85.8066 32.0081L55.0039 21.9102L70.1611 23.4981Z" fill="#756ABA" fill-opacity="1.000000" fill-rule="evenodd"/>
	<path id="Vector" d="M83.2803 98.0931L55.085 90.2754L41.1914 94.1843L63.4785 99.1111L83.2803 98.0931Z" fill="url(#paint_linear_776_3141_0)" fill-opacity="1.000000" fill-rule="evenodd"/>
	<path id="Vector" d="M83.2803 98.0925L62.2158 96.1788L41.1914 94.1836L63.4785 100.78L83.2803 98.0925Z" fill="#7551BA" fill-opacity="1.000000" fill-rule="evenodd"/>
</svg>
