<svg width="300.665771" height="383.125977" viewBox="0 0 300.666 383.126" fill="none" xmlns="http://www.w3.org/2000/svg" xmlns:xlink="http://www.w3.org/1999/xlink">
	<desc>
			Created with Pixso.
	</desc>
	<defs/>
	<g opacity="0.500000">
		<path id="Vector" d="M138.55 292.369C131.356 295.688 123.953 298.828 124.188 303.49C124.423 308.152 132.948 315.096 147.15 308.058C161.353 301.02 161.25 295.154 159.316 291.218C157.38 287.282 144.229 289.745 138.55 292.369Z" fill="#263238" fill-opacity="1.000000" fill-rule="nonzero"/>
		<path id="Vector" d="M242.266 254.273C238.074 254.927 233.2 263.894 229.772 270.803C226.344 277.713 223.623 284.472 225.514 286.528C227.404 288.584 233.563 292.736 241.914 283.496C250.266 274.256 250.999 264.385 249.867 260.298C248.734 256.21 245.86 253.722 242.266 254.273Z" fill="#263238" fill-opacity="1.000000" fill-rule="nonzero"/>
		<path id="Vector" d="M147.799 267.685C147.436 269.586 147.461 271.54 147.872 273.43C148.283 275.319 149.072 277.105 150.191 278.68C159.699 292.205 162.81 317.513 165.686 331.055C155.556 343.41 144.008 337.744 144.008 337.744C144.008 337.744 116.706 283.188 114.647 276.236C111.55 265.715 111.853 250.532 115.206 234.514C117.708 221.97 120.845 209.56 124.606 197.333L195.479 185.813C200.071 192.596 203.779 199.941 206.511 207.67C210.791 220.026 215.312 235.861 221.075 245.433C222.082 247.083 223.412 248.512 224.986 249.631C226.56 250.751 228.345 251.539 230.233 251.948C246.356 255.543 265.64 272.147 276.887 280.17C277.63 296.167 265.233 299.811 265.233 299.811C265.233 299.811 208.377 277.888 202.188 274.127C192.821 268.426 183.165 259.618 174.885 245.499C166.606 231.38 161.979 224.601 161.979 224.601C161.979 224.601 149.961 256.732 147.799 267.685Z" fill="#F0F0F0" fill-opacity="1.000000" fill-rule="nonzero"/>
		<path id="Vector" d="M128.565 309.587C128.565 309.587 136.313 324.572 137.525 329.012C138.538 332.731 138.086 335.949 133.974 340.165C128.068 346.219 118.477 353.42 112.788 360.275C109.167 364.701 110.932 369.517 118.683 370.895C123.438 371.717 132.86 371.716 142.967 365.307C148.477 361.823 154.306 353.487 159.341 352.017C164.376 350.547 173.185 348.16 175.098 342.845C174.441 335.379 169.971 330.444 168.101 325.796C164.994 318.127 161.649 302.045 160.473 297.19C160.473 297.19 157.671 304.59 146.375 308.818C135.08 313.046 128.565 309.587 128.565 309.587Z" fill="#455A64" fill-opacity="1.000000" fill-rule="nonzero"/>
		<path id="Vector" d="M157.991 292.013C158.834 294.405 158.225 297.143 155.715 300.09C150.691 305.963 140.469 309.583 132.882 308.181C129.377 307.539 127.051 305.932 126.045 303.769C126.045 303.769 125.265 302.021 125.964 301.046L124.518 298.051C123.65 298.691 122.976 299.56 122.57 300.56C122.164 301.559 122.043 302.652 122.219 303.715C122.651 306.142 125.21 311.61 133.357 312.74C141.503 313.871 153.634 309.547 158.732 303.418C163.357 297.841 162.143 291.608 160.472 289.359C159.877 288.501 159.034 287.847 158.056 287.483C157.078 287.12 156.012 287.065 155.001 287.326L156.158 290.208C156.583 290.345 156.97 290.58 157.289 290.893C157.607 291.206 157.847 291.59 157.991 292.013Z" fill="#BA68C8" fill-opacity="1.000000" fill-rule="nonzero"/>
		<path id="Vector" d="M234.003 289.142C234.003 289.142 248.417 295.241 252.32 297.733C255.568 299.813 257.389 302.557 257.136 308.389C256.788 316.855 254.543 325.027 254.892 333.931C255.12 339.617 259.699 342.026 266.338 337.814C270.428 335.232 276.214 330.378 281.139 319.47C284.265 312.545 282.494 304.387 285.244 299.909C287.994 295.43 291.273 287.176 289.14 281.953C283.662 276.852 278.717 276.78 274.216 274.605C266.741 270.982 253.544 261.392 249.413 258.533C249.413 258.533 252.281 265.888 246.665 276.596C241.05 287.305 234.003 289.142 234.003 289.142Z" fill="#455A64" fill-opacity="1.000000" fill-rule="nonzero"/>
		<path id="Vector" d="M244.177 256.313C246.4 257.515 247.779 259.952 247.887 263.844C248.091 271.583 242.908 281.136 236.331 285.188C233.283 287.088 230.468 287.436 228.265 286.53C228.265 286.53 226.508 285.796 226.372 284.57L223.238 283.303C223.033 284.365 223.123 285.463 223.496 286.477C223.87 287.491 224.515 288.383 225.359 289.055C227.312 290.546 232.87 292.896 239.696 288.259C246.523 283.622 252.637 272.273 252.321 264.309C252.027 257.07 246.953 253.267 244.197 252.716C243.166 252.469 242.085 252.54 241.094 252.917C240.103 253.295 239.247 253.962 238.639 254.833L241.674 256.243C242.064 256.044 242.498 255.947 242.935 255.959C243.372 255.972 243.8 256.093 244.177 256.313Z" fill="#BA68C8" fill-opacity="1.000000" fill-rule="nonzero"/>
		<path id="Vector" d="M141.796 215.664C141.796 215.664 147.945 223.967 153.44 226.873C153.44 226.873 149.647 247.924 147.757 258.137C145.867 268.35 148.055 274.077 148.055 274.077C147.472 271.975 147.379 269.766 147.783 267.621C149.936 256.617 161.918 224.527 161.918 224.527C161.918 224.527 153.144 223.203 141.796 215.664Z" fill="#E0E0E0" fill-opacity="1.000000" fill-rule="nonzero"/>
		<path id="Vector" d="M52.7491 143.008C51.6625 141.701 49.0288 134.484 48.39 130.306C47.8542 126.74 44.3325 125.981 42.9108 129.303C41.489 132.625 42.5265 134.926 41.3224 134.628C40.1183 134.33 36.9954 129.538 34.6212 125.041C32.5035 120.988 26.6155 114.82 21.0117 123.896C15.4078 132.973 21.8204 143.237 25.6184 148.473C29.4165 153.708 38.4688 159.484 43.5574 160.505L52.7491 143.008Z" fill="#455A64" fill-opacity="1.000000" fill-rule="nonzero"/>
		<path id="Vector" d="M56.2748 146.746C57.0255 144.261 53.6942 142.548 50.6448 143.022C48.8828 143.391 47.2146 144.118 45.7438 145.159C44.2729 146.201 43.0308 147.533 42.0946 149.075C39.4382 153.171 39.2725 158.492 41.4412 161.981C43.8739 165.949 47.1709 164.459 47.1709 164.459L56.2748 146.746Z" fill="#BA68C8" fill-opacity="1.000000" fill-rule="nonzero"/>
		<path id="Vector" d="M124.581 141.875C122.086 148.675 109.608 166.046 104.334 172.193C99.0604 178.34 92.3385 183.587 87.8563 184.487C84.1064 185.242 68.0275 181.41 47.1219 164.5C45.3488 163.064 43.4171 160.3 43.2742 158.094C43.025 152.476 45.656 148.745 49.8268 146.792C50.838 146.371 51.9216 146.156 53.0156 146.157C54.1095 146.158 55.1919 146.375 56.2007 146.797C62.1084 150.012 76.4673 158.478 81.5045 158.6C86.8618 155.871 91.1815 146.579 95.0948 138.865C99.0082 131.151 103.908 117.26 111.117 117.361C126.348 117.568 127.947 138.011 124.581 141.875Z" fill="#F0F0F0" fill-opacity="1.000000" fill-rule="nonzero"/>
		<path id="Vector" d="M123.058 189.049C121.175 191.277 122.271 196.098 126.287 198.775C130.302 201.453 141.385 206.25 157.276 204.809C175.107 203.172 187.613 194.995 193.128 189.025C198.833 182.843 194.069 179.081 194.069 179.081L123.058 189.049Z" fill="#BA68C8" fill-opacity="1.000000" fill-rule="nonzero"/>
		<path id="Vector" d="M164.002 53.3555C177.216 72.0283 172.814 97.9395 154.17 111.229C135.525 124.52 109.698 120.156 96.4829 101.483C83.2682 82.8096 87.6702 56.8984 106.315 43.6084C124.96 30.3184 150.787 34.6821 164.002 53.3555Z" fill="#455A64" fill-opacity="1.000000" fill-rule="evenodd"/>
		<path id="Vector" d="M132.849 126.792C136.091 137.366 131.469 148.18 122.54 150.942C113.612 153.703 106.112 146.337 102.871 135.763C99.6299 125.189 103.157 113.189 111.319 113.946C120.376 111.646 129.597 116.22 132.849 126.792Z" fill="#BA68C8" fill-opacity="1.000000" fill-rule="nonzero"/>
		<g opacity="0.100000">
			<path id="Vector" d="M132.849 126.792C136.091 137.366 131.469 148.18 122.54 150.942C113.612 153.703 106.112 146.337 102.871 135.763C99.6299 125.189 103.157 113.189 111.319 113.946C120.376 111.646 129.597 116.22 132.849 126.792Z" fill="#000000" fill-opacity="1.000000" fill-rule="nonzero"/>
		</g>
		<path id="Vector" d="M110.101 114.215C107.937 117.744 106.027 126.389 109.721 137.902C112.329 146.058 117.05 152.986 118.49 162.849C119.481 169.676 117.928 180.947 122.993 189.017C125.655 193.256 138.545 199.921 155.685 199.343C172.825 198.765 192.549 186.296 194.583 177.406C196.697 168.187 192.99 146.411 189.822 136.263C186.653 126.115 179.208 105.679 168.531 98.6968C141.331 90.1738 123.504 98.1455 110.101 114.215Z" fill="#FAFAFA" fill-opacity="1.000000" fill-rule="nonzero"/>
		<path id="Vector" d="M136.539 69.1958C138.64 78.436 132.864 87.6479 123.638 89.771C114.412 91.8945 105.23 86.1245 103.129 76.8843C101.029 67.644 106.805 58.4321 116.031 56.3091C125.256 54.186 134.438 59.9556 136.539 69.1958Z" fill="#263238" fill-opacity="1.000000" fill-rule="evenodd"/>
		<path id="Vector" d="M151.4 78.3257C151.4 78.3257 151.591 91.6914 150.979 94.001C150.547 95.4585 149.573 96.6948 148.258 97.4551L146.413 88.4487L151.4 78.3257Z" fill="#263238" fill-opacity="1.000000" fill-rule="nonzero"/>
		<path id="Vector" d="M143.844 60.8477C144.766 60.5195 145.75 60.4067 146.721 60.5176C147.692 60.6284 148.625 60.9604 149.447 61.4878C152.24 63.2422 152.581 70.689 151.384 78.3218L146.424 80.0859L143.844 60.8477Z" fill="#263238" fill-opacity="1.000000" fill-rule="nonzero"/>
		<path id="Vector" d="M144.92 80.439C146.082 80.8184 147.101 78.5117 148.062 76.9009C149.023 75.29 152.726 72.5332 155.758 76.3994C158.79 80.2656 156.28 87.0601 153.274 88.8301C148.08 91.8696 146.436 88.4751 146.436 88.4751L149.692 105.059C149.692 105.059 151.869 108.69 142.275 112.312C132.681 115.933 129.057 113.46 131.397 108.706L130.922 106.251C128.525 107.219 126.033 107.929 123.487 108.37C119.228 108.679 115.91 106.029 113.637 101.868C110.011 95.1802 107.935 89.5728 106.444 75.1226C104.792 59.2842 122.665 54.9912 133.713 58.8691C144.76 62.7476 144.92 80.439 144.92 80.439Z" fill="#FFA8A7" fill-opacity="1.000000" fill-rule="nonzero"/>
		<path id="Vector" d="M145.293 82.126C145.816 82.0059 147.035 78.3242 148.044 76.8711C149.431 74.875 143.945 61.0498 143.859 60.8301C143.563 60.1079 143.675 59.2319 143.31 58.4175C142.826 57.4141 142.185 56.4941 141.411 55.6934C139.913 54.0981 137.824 53.585 135.757 52.9111C132.187 51.7451 128.356 51.6294 124.718 52.5776C121.036 53.4248 118.49 54.7412 114.06 56.7666C110.37 58.4658 105.645 60.2476 101.619 59.8931C98.9244 59.6626 99.9779 63.1924 101.57 65.9873C102.727 67.9282 104.361 69.5396 106.316 70.667C109.106 72.4199 113.583 72.7065 116.662 72.1538C124.836 70.7158 133.247 66.9004 134.6 66.3853C136.438 65.687 137.098 66.1699 139.23 70.9722C141.12 75.1831 143.558 82.4893 145.293 82.126Z" fill="#263238" fill-opacity="1.000000" fill-rule="nonzero"/>
		<path id="Vector" d="M144.085 61.9839L149.512 57.2378C149.22 56.8652 148.856 56.5562 148.441 56.3291C148.026 56.1021 147.57 55.9614 147.099 55.9165C146.628 55.8716 146.153 55.9229 145.702 56.0669C145.251 56.2114 144.834 56.4458 144.475 56.7559C143.752 57.4111 143.308 58.3203 143.235 59.2935C143.163 60.2671 143.467 61.2305 144.085 61.9839Z" fill="#263238" fill-opacity="1.000000" fill-rule="nonzero"/>
		<path id="Vector" d="M130.935 106.251C130.935 106.251 139.67 102.29 142.486 99.8462C144.149 98.4346 145.346 96.5522 145.921 94.4468C145.862 96.4336 145.409 98.3901 144.587 100.201C142.927 103.732 131.409 108.705 131.409 108.705L130.935 106.251Z" fill="#F28F8F" fill-opacity="1.000000" fill-rule="nonzero"/>
		<path id="Vector" d="M127.526 83.7783C127.621 84.1372 127.821 84.46 128.098 84.7056C128.376 84.9517 128.72 85.1099 129.087 85.1606C129.455 85.2119 129.829 85.1533 130.164 84.9922C130.499 84.8315 130.779 84.5757 130.97 84.2563C131.16 83.9375 131.253 83.5693 131.237 83.1982C131.22 82.8267 131.095 82.4688 130.876 82.1689C130.658 81.8691 130.356 81.6406 130.008 81.5117C129.66 81.3828 129.282 81.3599 128.921 81.4448C128.676 81.5059 128.446 81.6147 128.243 81.7651C128.04 81.916 127.869 82.105 127.739 82.3218C127.61 82.5386 127.524 82.7788 127.487 83.0288C127.451 83.2788 127.464 83.5337 127.526 83.7783Z" fill="#263238" fill-opacity="1.000000" fill-rule="nonzero"/>
		<path id="Vector" d="M127.884 76.3843L132.31 77.6533C132.47 77.0488 132.389 76.4067 132.084 75.8618C131.78 75.3174 131.275 74.9136 130.678 74.7354C130.386 74.6523 130.081 74.6299 129.781 74.6685C129.48 74.707 129.191 74.8066 128.929 74.9609C128.668 75.1152 128.441 75.3208 128.261 75.5654C128.081 75.8101 127.953 76.0889 127.884 76.3843Z" fill="#263238" fill-opacity="1.000000" fill-rule="nonzero"/>
		<path id="Vector" d="M129.252 94.998L125.417 97.5332C125.571 97.7954 125.778 98.0229 126.023 98.2031C126.268 98.3828 126.547 98.5117 126.843 98.5811C127.139 98.6504 127.446 98.6592 127.745 98.6069C128.045 98.5547 128.331 98.4424 128.587 98.2769C129.096 97.9189 129.449 97.3794 129.573 96.769C129.696 96.1592 129.582 95.5249 129.252 94.998Z" fill="#F28F8F" fill-opacity="1.000000" fill-rule="nonzero"/>
		<path id="Vector" d="M109.918 82.1226L112.881 78.5303C112.656 78.3267 112.393 78.1704 112.106 78.0718C111.82 77.9731 111.516 77.9336 111.213 77.9561C110.911 77.979 110.616 78.063 110.347 78.2031C110.077 78.3433 109.839 78.5366 109.647 78.7715C109.257 79.2607 109.068 79.8794 109.119 80.5024C109.169 81.125 109.455 81.7046 109.918 82.1226Z" fill="#263238" fill-opacity="1.000000" fill-rule="nonzero"/>
		<path id="Vector" d="M112.137 86.77C112.233 87.1284 112.432 87.4507 112.709 87.6963C112.986 87.9419 113.329 88.1006 113.696 88.1519C114.063 88.2036 114.437 88.146 114.771 87.9858C115.106 87.8262 115.387 87.5713 115.578 87.2534C115.77 86.9351 115.864 86.5679 115.849 86.1973C115.833 85.8262 115.71 85.4683 115.493 85.168C115.276 84.8672 114.975 84.6377 114.629 84.5068C114.282 84.3765 113.905 84.3511 113.544 84.4341C113.298 84.4951 113.068 84.604 112.864 84.7544C112.661 84.9053 112.489 85.0942 112.358 85.311C112.228 85.5278 112.141 85.7686 112.103 86.019C112.065 86.269 112.077 86.5244 112.137 86.77Z" fill="#263238" fill-opacity="1.000000" fill-rule="nonzero"/>
		<path id="Vector" d="M121.299 81.0483L123.212 92.2539L116.988 91.6133L121.299 81.0483Z" fill="#F28F8F" fill-opacity="1.000000" fill-rule="nonzero"/>
		<path id="Vector" d="M139.565 118.455C131.46 120.32 122.99 119.736 115.225 116.777C107.461 113.817 100.751 108.616 95.9449 101.83C91.1387 95.043 88.4517 86.9771 88.2238 78.6514C87.9957 70.3252 90.2371 62.1143 94.6643 55.0557C99.0916 47.9971 105.506 42.4087 113.096 38.9966C120.686 35.585 129.11 34.5034 137.305 35.8882C145.499 37.2729 153.094 41.0625 159.13 46.7773C165.167 52.4927 169.372 59.876 171.215 67.9941C173.674 78.877 171.722 90.3008 165.789 99.7607C159.856 109.22 150.425 115.943 139.565 118.455ZM121.194 37.646C113.328 39.4565 106.169 43.5625 100.623 49.4448C95.0778 55.3271 91.3943 62.7217 90.0387 70.6934C88.6831 78.6655 89.7164 86.856 93.0078 94.2305C96.2993 101.604 101.701 107.831 108.53 112.122C115.359 116.413 123.308 118.576 131.373 118.337C139.438 118.099 147.256 115.469 153.838 110.782C160.42 106.094 165.471 99.5591 168.352 92.0024C171.233 84.4458 171.815 76.207 170.024 68.3286C168.84 63.0918 166.636 58.1426 163.54 53.7637C160.444 49.3848 156.516 45.6621 151.98 42.8081C147.444 39.9546 142.389 38.0259 137.105 37.1323C131.821 36.2383 126.411 36.3979 121.184 37.6006L121.194 37.646Z" fill="#BA68C8" fill-opacity="1.000000" fill-rule="nonzero"/>
		<path id="Vector" d="M161.961 113.085C151.21 123.096 131.141 127.712 117.12 123.399C108.237 120.656 103.834 116.381 104.618 110.051C113.677 118.352 126.589 120.838 139.458 117.878C152.326 114.918 162.811 107.206 167.358 95.7749C170.8 101.133 168.777 106.743 161.961 113.085Z" fill="#BA68C8" fill-opacity="1.000000" fill-rule="nonzero"/>
		<path id="Vector" d="M129.075 158.708L129.678 163.362C123.418 164.191 115.497 170.292 114.181 177.711C113.036 184.145 116.663 199.15 123.121 202.456C122.795 203.861 122.459 205.436 122.104 207.135C112.722 203.184 108.088 185.379 109.584 176.912C111.229 167.308 121.014 159.772 129.075 158.708Z" fill="#E0E0E0" fill-opacity="1.000000" fill-rule="nonzero"/>
		<path id="Vector" d="M129.774 157.391L128.237 157.577C127.915 157.622 127.621 157.785 127.412 158.034C127.204 158.284 127.095 158.603 127.108 158.927C127.208 160.666 127.596 162.374 128.257 163.983C128.363 164.255 128.557 164.483 128.807 164.632C129.058 164.78 129.351 164.841 129.641 164.803L132.126 164.471L129.774 157.391Z" fill="#BA68C8" fill-opacity="1.000000" fill-rule="nonzero"/>
		<path id="Vector" d="M132.466 144.221L154.95 144.604C156.595 144.692 158.169 145.299 159.447 146.339C160.725 147.378 161.642 148.797 162.065 150.392L164.94 163.037C165.141 163.715 165.175 164.434 165.037 165.13C164.899 165.825 164.593 166.477 164.147 167.028C163.701 167.579 163.128 168.013 162.477 168.292C161.826 168.571 161.117 168.687 160.412 168.629L137.928 168.247C136.282 168.159 134.708 167.552 133.43 166.512C132.152 165.472 131.235 164.054 130.812 162.458L127.938 149.814C127.736 149.135 127.702 148.417 127.84 147.721C127.978 147.025 128.284 146.374 128.73 145.823C129.176 145.271 129.75 144.837 130.401 144.559C131.052 144.279 131.76 144.164 132.466 144.221Z" fill="#37474F" fill-opacity="1.000000" fill-rule="nonzero"/>
		<path id="Vector" d="M135.08 149.438C136.069 149.488 137.015 149.851 137.783 150.475C138.551 151.1 139.1 151.953 139.35 152.912C139.472 153.319 139.492 153.75 139.409 154.167C139.326 154.584 139.142 154.975 138.874 155.305C138.605 155.635 138.261 155.894 137.87 156.06C137.479 156.226 137.053 156.293 136.63 156.257C135.646 156.206 134.703 155.842 133.938 155.22C133.173 154.597 132.626 153.748 132.374 152.792C132.255 152.386 132.235 151.957 132.318 151.541C132.401 151.125 132.583 150.735 132.849 150.405C133.116 150.075 133.458 149.814 133.846 149.646C134.235 149.478 134.658 149.407 135.08 149.438Z" fill="#BA68C8" fill-opacity="1.000000" fill-rule="nonzero"/>
		<path id="Vector" d="M137.182 158.654C138.17 158.703 139.117 159.066 139.884 159.691C140.652 160.315 141.201 161.168 141.452 162.127C141.573 162.535 141.593 162.966 141.51 163.383C141.427 163.8 141.243 164.19 140.975 164.521C140.707 164.851 140.362 165.11 139.971 165.276C139.58 165.442 139.154 165.509 138.732 165.473C137.747 165.421 136.804 165.058 136.039 164.436C135.275 163.813 134.727 162.963 134.475 162.008C134.353 161.602 134.331 161.171 134.413 160.754C134.495 160.337 134.677 159.946 134.944 159.615C135.211 159.284 135.554 159.024 135.944 158.856C136.334 158.689 136.759 158.62 137.182 158.654Z" fill="#BA68C8" fill-opacity="1.000000" fill-rule="nonzero"/>
		<path id="Vector" d="M192.1 180.312C190.864 181.555 183.666 184.972 179.421 186.021C175.798 186.914 175.338 190.624 178.889 191.783C182.441 192.941 184.704 191.642 184.508 192.885C184.312 194.127 179.655 197.833 175.253 200.714C171.266 203.32 165.399 209.963 175.296 214.894C185.193 219.825 195.129 212.198 200.188 207.789C205.247 203.38 210.349 193.476 210.948 188.118L192.1 180.312Z" fill="#455A64" fill-opacity="1.000000" fill-rule="nonzero"/>
		<path id="Vector" d="M195.584 176.322C192.962 175.728 191.497 179.382 192.262 182.487C192.805 184.272 193.707 185.927 194.912 187.349C196.118 188.771 197.601 189.929 199.271 190.754C203.72 193.072 209.225 192.775 212.628 190.231C216.5 187.328 214.658 184.063 214.658 184.063L195.584 176.322Z" fill="#BA68C8" fill-opacity="1.000000" fill-rule="nonzero"/>
		<path id="Vector" d="M184.278 106.082C191.512 108.011 210.545 119.277 217.357 124.143C224.17 129.008 230.185 135.471 231.525 140.051C232.644 143.866 230.165 160.85 214.63 184.071C213.31 186.052 210.641 188.308 208.367 188.616C202.566 189.411 198.513 187.049 196.125 182.915C195.07 180.883 194.862 178.514 195.548 176.327C198.325 169.914 205.756 154.247 205.419 149.029C202.098 143.684 190.993 140.453 184.872 138.471C184.872 138.471 170.302 137.786 168.014 122.2C165.726 106.613 179.997 102.982 184.278 106.082Z" fill="#F0F0F0" fill-opacity="1.000000" fill-rule="nonzero"/>
		<path id="Vector" d="M184.281 106.045C183.373 105.504 182.35 105.187 181.294 105.119C180.239 105.051 179.182 105.236 178.211 105.657C171.418 108.874 168.739 117.613 172.899 127.857C175.62 134.563 179.036 137.012 184.87 138.414C178.067 141.009 169.819 137.516 166.2 128.596C162.029 118.354 165.486 105.83 174.144 102.292C176.01 101.663 178.033 101.693 179.877 102.375C181.721 103.059 183.276 104.354 184.281 106.045Z" fill="#BA68C8" fill-opacity="1.000000" fill-rule="nonzero"/>
	</g>
</svg>
