<svg width="325" height="383" viewBox="0 0 325 383" fill="none" xmlns="http://www.w3.org/2000/svg">
<path d="M24.576 284.803C21.2056 286.361 17.3558 286.523 13.8666 285.253C10.3775 283.983 7.53245 281.385 5.95203 278.025C4.39408 274.654 4.23244 270.804 5.50238 267.315C6.77231 263.826 9.37072 260.981 12.7306 259.401C12.7306 259.401 379.365 95.2457 382.661 102.315C385.958 109.384 24.576 284.803 24.576 284.803Z" fill="url(#paint0_linear_781_5587)"/>
<path d="M12.6521 274.852C11.8142 273.042 11.7298 270.973 12.4174 269.1C13.105 267.228 14.5083 265.705 16.3186 264.867C18.129 264.029 20.198 263.945 22.0706 264.633C23.9432 265.32 25.4659 266.723 26.3038 268.534C26.7186 269.43 26.9529 270.399 26.9931 271.386C27.0334 272.373 26.8789 273.358 26.5384 274.286C26.198 275.213 25.6783 276.064 25.0089 276.79C24.3396 277.517 23.5336 278.104 22.6372 278.519C21.7408 278.934 20.7716 279.168 19.7847 279.208C18.7978 279.249 17.8125 279.094 16.8853 278.754C15.9581 278.413 15.1071 277.893 14.3808 277.224C13.6545 276.555 13.067 275.749 12.6521 274.852Z" fill="#FAFAFA"/>
<defs>
<linearGradient id="paint0_linear_781_5587" x1="18.9252" y1="271.975" x2="383.806" y2="101.829" gradientUnits="userSpaceOnUse">
<stop stop-color="#C759FC"/>
<stop offset="1" stop-color="#C759FC" stop-opacity="0"/>
</linearGradient>
</defs>
</svg>
