<svg width="175" height="189" viewBox="0 0 175 189" fill="none" xmlns="http://www.w3.org/2000/svg">
<g id="freepik--Comets--inject-146">
<g id="freepik--comets--inject-146">
<path id="Vector" d="M3.16644 131.818C2.65514 130.639 2.50625 129.335 2.73872 128.071C2.97118 126.808 3.57447 125.642 4.47176 124.723C5.36906 123.803 6.51974 123.172 7.7772 122.909C9.03466 122.646 10.342 122.763 11.5326 123.245C12.3282 123.552 13.0532 124.017 13.664 124.612C14.2749 125.206 14.7587 125.919 15.0864 126.706C15.4275 127.486 15.6099 128.327 15.6229 129.178C15.6359 130.03 15.4793 130.875 15.1622 131.665C14.5207 133.28 13.264 134.574 11.6685 135.263C10.0856 135.943 8.29725 135.967 6.69677 135.329C5.09629 134.691 3.81466 133.444 3.13368 131.861L3.16644 131.818Z" fill="url(#paint0_linear_187_2093)"/>
<path id="Vector_2" opacity="0.990198" d="M4.83207 131.098C4.33392 129.927 4.19358 128.635 4.42881 127.384C4.66404 126.134 5.26434 124.981 6.15389 124.071C7.04345 123.161 8.18248 122.535 9.42739 122.272C10.6723 122.008 11.9673 122.119 13.1492 122.591C13.9336 122.899 14.6484 123.361 15.2514 123.95C15.8543 124.538 16.3332 125.242 16.6596 126.019C16.9957 126.795 17.175 127.63 17.1873 128.476C17.1995 129.322 17.0443 130.162 16.7308 130.947C16.4172 131.733 15.9513 132.449 15.36 133.054C14.7687 133.659 14.0636 134.141 13.2853 134.472C11.7176 135.14 9.95032 135.165 8.36414 134.543C6.78616 133.894 5.52045 132.659 4.83207 131.098Z" fill="url(#paint1_linear_187_2093)"/>
<path id="Vector_3" opacity="0.980396" d="M6.5356 130.373C6.20386 129.604 6.02727 128.777 6.01602 127.939C6.00477 127.102 6.15912 126.27 6.47009 125.492C6.78105 124.714 7.24252 124.006 7.82811 123.407C8.41369 122.808 9.11187 122.33 9.88247 122.002C11.0394 121.505 12.3178 121.363 13.5557 121.593C14.7936 121.823 15.9353 122.415 16.8363 123.295C17.7374 124.174 18.3572 125.301 18.6173 126.533C18.8774 127.765 18.7661 129.047 18.2975 130.215C17.992 130.994 17.5351 131.705 16.9532 132.307C16.3714 132.909 15.676 133.389 14.9074 133.72C13.3506 134.379 11.598 134.402 10.0243 133.785C9.24609 133.475 8.5371 133.014 7.93828 132.429C7.33946 131.843 6.86267 131.145 6.5356 130.373Z" fill="url(#paint2_linear_187_2093)"/>
<path id="Vector_4" opacity="0.970594" d="M8.20115 129.654C7.55451 128.108 7.53312 126.371 8.14148 124.809C8.60918 123.651 9.4087 122.657 10.4396 121.952C11.4704 121.247 12.6866 120.863 13.9353 120.847C15.184 120.831 16.4095 121.185 17.4578 121.864C18.5062 122.542 19.3305 123.516 19.8273 124.661C20.4739 126.208 20.4953 127.945 19.887 129.506C19.4193 130.664 18.6197 131.658 17.5889 132.363C16.558 133.068 15.3419 133.453 14.0931 133.468C12.8444 133.484 11.6189 133.13 10.5706 132.452C9.52226 131.773 8.69792 130.8 8.20115 129.654Z" fill="url(#paint3_linear_187_2093)"/>
<path id="Vector_5" opacity="0.960792" d="M9.90477 128.929C9.57349 128.177 9.39658 127.366 9.38443 126.544C9.37229 125.722 9.52516 124.906 9.83408 124.144C10.1373 123.379 10.5885 122.681 11.1618 122.091C11.7351 121.501 12.4193 121.029 13.1752 120.704C14.7008 120.061 16.4164 120.036 17.9604 120.633C19.4976 121.259 20.7264 122.465 21.3805 123.99C22.0345 125.515 22.0612 127.237 21.4547 128.781C20.8298 130.318 19.6316 131.552 18.1136 132.221C17.3568 132.543 16.5438 132.711 15.7216 132.717C14.8993 132.722 14.0841 132.565 13.323 132.254C12.5589 131.958 11.8623 131.511 11.275 130.94C10.6876 130.369 10.2216 129.685 9.90477 128.929Z" fill="url(#paint4_linear_187_2093)"/>
<path id="Vector_6" opacity="0.95099" d="M11.5703 128.21C10.9424 126.694 10.919 124.995 11.505 123.463C11.9591 122.324 12.7406 121.346 13.7507 120.651C14.7608 119.957 15.954 119.577 17.1797 119.561C18.4054 119.544 19.6084 119.892 20.6368 120.559C21.6651 121.226 22.4726 122.183 22.957 123.309C23.2837 124.056 23.4577 124.861 23.4689 125.676C23.4802 126.491 23.3283 127.301 23.0223 128.056C22.5682 129.195 21.7867 130.173 20.7767 130.868C19.7666 131.562 18.5733 131.942 17.3476 131.958C16.1219 131.974 14.9188 131.627 13.8905 130.96C12.8622 130.293 12.0548 129.336 11.5703 128.21Z" fill="url(#paint5_linear_187_2093)"/>
<path id="Vector_7" opacity="0.941188" d="M13.2741 127.485C12.9531 126.745 12.7816 125.949 12.7697 125.142C12.7577 124.335 12.9054 123.534 13.2043 122.785C13.5032 122.036 13.9473 121.353 14.5111 120.776C15.075 120.199 15.7474 119.739 16.4897 119.423C17.9831 118.791 19.6638 118.763 21.177 119.347C22.6932 119.954 23.9068 121.138 24.5518 122.639C24.9161 123.386 25.125 124.2 25.1656 125.03C25.2063 125.861 25.078 126.691 24.7885 127.471C24.4989 128.25 24.0541 128.963 23.481 129.565C22.908 130.168 22.2186 130.648 21.4546 130.976C20.6905 131.304 19.8679 131.474 19.0363 131.475C18.2047 131.476 17.3815 131.309 16.6167 130.982C15.8519 130.656 15.1613 130.178 14.5867 129.577C14.0121 128.975 13.5656 128.264 13.2741 127.485Z" fill="url(#paint6_linear_187_2093)"/>
<path id="Vector_8" opacity="0.931386" d="M14.9394 126.765C14.6204 126.03 14.4513 125.237 14.4419 124.435C14.4325 123.633 14.583 122.838 14.8847 122.095C15.178 121.355 15.6159 120.681 16.1727 120.113C16.7296 119.545 17.3942 119.093 18.1276 118.785C19.2325 118.314 20.4517 118.181 21.6321 118.401C22.8125 118.622 23.9014 119.187 24.7618 120.024C25.6223 120.862 26.216 121.935 26.4682 123.109C26.7204 124.283 26.6199 125.505 26.1793 126.622C25.8861 127.362 25.4482 128.036 24.8914 128.604C24.3346 129.172 23.6699 129.624 22.9364 129.932C22.2042 130.249 21.4167 130.419 20.6188 130.431C19.821 130.443 19.0286 130.298 18.2871 130.003C16.7912 129.402 15.5897 128.24 14.9394 126.765Z" fill="url(#paint7_linear_187_2093)"/>
<path id="Vector_9" opacity="0.921584" d="M16.6214 126.024C16.3256 125.303 16.1752 124.53 16.1789 123.749C16.1825 122.969 16.3401 122.198 16.6426 121.479C16.9335 120.743 17.3666 120.073 17.9171 119.505C18.4677 118.938 19.1249 118.484 19.8511 118.171C20.5772 117.858 21.358 117.691 22.1486 117.681C22.9393 117.67 23.7243 117.815 24.4587 118.109C25.1951 118.399 25.8657 118.834 26.4306 119.388C26.9954 119.942 27.443 120.605 27.7466 121.335C28.3645 122.793 28.3851 124.435 27.8041 125.907C27.223 127.379 26.0868 128.565 24.6401 129.207C23.1778 129.782 21.5512 129.774 20.0943 129.186C18.5683 128.626 17.3219 127.491 16.6214 126.024Z" fill="url(#paint8_linear_187_2093)"/>
<path id="Vector_10" opacity="0.911782" d="M18.3087 125.321C17.923 124.422 17.765 123.441 17.8486 122.466C17.9321 121.491 18.2547 120.552 18.7878 119.731C19.3208 118.911 20.048 118.234 20.9048 117.761C21.7617 117.289 22.7218 117.034 23.7003 117.021C24.6788 117.008 25.6455 117.236 26.5149 117.685C27.3842 118.135 28.1294 118.791 28.6845 119.597C29.2396 120.403 29.5875 121.334 29.6974 122.306C29.8073 123.278 29.676 124.263 29.3148 125.172C29.0295 125.9 28.602 126.563 28.0573 127.123C27.5126 127.682 26.8617 128.128 26.1426 128.433C24.6927 129.027 23.0672 129.025 21.6186 128.428C20.8883 128.156 20.2195 127.741 19.6513 127.208C19.083 126.674 18.6266 126.033 18.3087 125.321Z" fill="url(#paint9_linear_187_2093)"/>
<path id="Vector_11" opacity="0.90198" d="M20.0233 124.537C19.557 123.458 19.4218 122.266 19.6347 121.11C19.8477 119.955 20.3992 118.889 21.2193 118.048C22.0393 117.206 23.0908 116.628 24.2404 116.385C25.3899 116.143 26.5856 116.247 27.6755 116.686C29.1218 117.281 30.2823 118.411 30.9146 119.842C31.2155 120.554 31.3716 121.319 31.3736 122.092C31.3755 122.865 31.2234 123.63 30.9261 124.344C30.6451 125.063 30.2224 125.719 29.6831 126.271C29.1438 126.824 28.4989 127.263 27.7868 127.561C27.0671 127.883 26.29 128.057 25.5018 128.073C24.7135 128.088 23.9302 127.944 23.1986 127.65C22.4671 127.356 21.8022 126.918 21.2436 126.362C20.685 125.805 20.2442 125.142 19.9474 124.412L20.0233 124.537Z" fill="url(#paint10_linear_187_2093)"/>
<path id="Vector_12" opacity="0.892178" d="M21.6778 123.877C21.0803 122.454 21.0644 120.853 21.6336 119.418C22.2219 117.978 23.348 116.824 24.7729 116.201C25.476 115.897 26.2324 115.737 26.9979 115.73C27.7635 115.722 28.5229 115.867 29.2319 116.156C29.9479 116.434 30.6003 116.854 31.1496 117.391C31.6988 117.927 32.1336 118.57 32.4276 119.279C32.7278 119.983 32.8862 120.739 32.8938 121.504C32.9014 122.27 32.758 123.029 32.4718 123.738C31.8875 125.17 30.7668 126.317 29.3488 126.934C27.9252 127.537 26.3213 127.554 24.8852 126.981C23.4492 126.409 22.2967 125.294 21.6778 123.877Z" fill="url(#paint11_linear_187_2093)"/>
<path id="Vector_13" opacity="0.882376" d="M23.3597 123.136C22.7659 121.727 22.7509 120.14 23.3179 118.72C23.8849 117.3 24.9883 116.16 26.3894 115.547C27.0864 115.245 27.8361 115.085 28.5954 115.074C29.3547 115.063 30.1086 115.202 30.8138 115.484C31.5191 115.765 32.1618 116.184 32.705 116.714C33.2481 117.245 33.681 117.878 33.9789 118.576C34.2802 119.273 34.4409 120.023 34.4517 120.782C34.4624 121.542 34.323 122.295 34.0415 123.001C33.76 123.706 33.3419 124.349 32.8112 124.892C32.2805 125.435 31.6477 125.868 30.9492 126.166C30.2527 126.471 29.5025 126.634 28.7422 126.647C27.9819 126.66 27.2267 126.521 26.5205 126.239C25.8143 125.957 25.1712 125.538 24.6286 125.005C24.0859 124.472 23.6546 123.837 23.3597 123.136Z" fill="url(#paint12_linear_187_2093)"/>
<path id="Vector_14" opacity="0.872574" d="M25.047 122.433C24.7472 121.741 24.5874 120.996 24.577 120.242C24.5666 119.488 24.7058 118.739 24.9865 118.039C25.2672 117.339 25.6838 116.701 26.2123 116.163C26.7408 115.625 27.3707 115.197 28.0656 114.903C28.7543 114.594 29.4982 114.426 30.253 114.41C31.0079 114.394 31.7582 114.53 32.4594 114.81C33.1594 115.085 33.7978 115.497 34.3375 116.021C34.8772 116.545 35.3074 117.171 35.6033 117.863C35.8992 118.555 36.0548 119.298 36.0611 120.05C36.0674 120.802 35.9242 121.548 35.6399 122.245C35.0806 123.652 33.9854 124.779 32.5952 125.378C31.205 125.978 29.6336 126.001 28.2266 125.442C26.817 124.889 25.6771 123.81 25.047 122.433Z" fill="url(#paint13_linear_187_2093)"/>
<path id="Vector_15" opacity="0.862772" d="M26.7289 121.692C26.2956 120.662 26.1755 119.527 26.3839 118.429C26.5923 117.331 27.1198 116.319 27.9004 115.519C28.6811 114.719 29.6802 114.168 30.7728 113.933C31.8654 113.698 33.003 113.791 34.0432 114.199C35.4365 114.758 36.5519 115.846 37.1458 117.225C37.7397 118.604 37.7639 120.161 37.2129 121.558C36.9344 122.253 36.5207 122.885 35.9958 123.419C35.471 123.953 34.8454 124.377 34.1554 124.667C33.4739 124.987 32.7334 125.162 31.9808 125.181C31.2282 125.199 30.4799 125.062 29.7833 124.777C29.0945 124.492 28.4695 124.072 27.945 123.542C27.4205 123.013 27.0072 122.383 26.7289 121.692Z" fill="url(#paint14_linear_187_2093)"/>
<path id="Vector_16" opacity="0.85297" d="M28.4162 120.989C27.9752 119.97 27.8469 118.843 28.0475 117.751C28.2482 116.66 28.7688 115.652 29.5433 114.857C30.3177 114.061 31.3111 113.514 32.3972 113.284C33.4833 113.055 34.6131 113.153 35.6433 113.567C37.0175 114.121 38.1177 115.195 38.7051 116.555C39.2925 117.916 39.3196 119.453 38.7806 120.833C38.2276 122.217 37.1479 123.326 35.7785 123.915C34.409 124.504 32.8618 124.526 31.4763 123.976C30.1063 123.416 29.0084 122.345 28.4162 120.989Z" fill="url(#paint15_linear_187_2093)"/>
<path id="Vector_17" opacity="0.843168" d="M30.0979 120.248C29.7959 119.581 29.6314 118.861 29.6143 118.129C29.5973 117.398 29.7279 116.671 29.9985 115.991C30.2691 115.311 30.6742 114.693 31.1893 114.174C31.7044 113.654 32.319 113.244 32.9964 112.968C33.6697 112.649 34.4013 112.471 35.1459 112.447C35.8906 112.422 36.6323 112.551 37.3251 112.825C38.0088 113.084 38.6333 113.478 39.1614 113.983C39.6895 114.488 40.1103 115.095 40.3986 115.767C40.6869 116.438 40.8369 117.161 40.8394 117.892C40.842 118.623 40.6972 119.347 40.4137 120.021C40.1478 120.701 39.7478 121.32 39.2375 121.842C38.7271 122.364 38.117 122.778 37.4432 123.059C36.7741 123.378 36.0468 123.556 35.3062 123.583C34.5655 123.611 33.8272 123.486 33.1363 123.218C32.4564 122.952 31.837 122.552 31.315 122.042C30.793 121.531 30.3791 120.921 30.0979 120.248Z" fill="url(#paint16_linear_187_2093)"/>
<path id="Vector_18" opacity="0.833366" d="M31.7853 119.545C31.4954 118.879 31.3416 118.163 31.3329 117.437C31.3243 116.711 31.461 115.991 31.735 115.319C31.9989 114.649 32.3935 114.037 32.8959 113.52C33.3983 113.003 33.9983 112.591 34.6613 112.309C35.3243 112.026 36.0368 111.878 36.7576 111.873C37.4784 111.868 38.1929 112.006 38.8598 112.28C39.5293 112.542 40.1402 112.935 40.657 113.435C41.1738 113.935 41.5863 114.533 41.8705 115.193C42.1548 115.854 42.3051 116.564 42.3129 117.283C42.3207 118.003 42.1857 118.716 41.9159 119.383C41.6557 120.056 41.264 120.671 40.7636 121.192C40.2632 121.712 39.6642 122.128 39.0015 122.414C38.3388 122.701 37.6256 122.852 36.9037 122.86C36.1817 122.868 35.4654 122.732 34.7965 122.461C34.1266 122.198 33.5155 121.805 32.9986 121.304C32.4817 120.804 32.0693 120.206 31.7853 119.545Z" fill="url(#paint17_linear_187_2093)"/>
<path id="Vector_19" opacity="0.823564" d="M33.4672 118.804C32.9056 117.482 32.8894 115.992 33.4221 114.659C33.9549 113.326 34.9934 112.257 36.3109 111.687C36.9735 111.373 37.6928 111.195 38.4256 111.166C39.1584 111.137 39.8895 111.256 40.5749 111.517C41.2604 111.778 41.886 112.174 42.4142 112.683C42.9424 113.192 43.3623 113.802 43.6485 114.477C43.9347 115.153 44.0814 115.879 44.0797 116.612C44.078 117.346 43.9279 118.071 43.6386 118.745C43.3492 119.419 42.9266 120.027 42.396 120.533C41.8655 121.04 41.238 121.433 40.5514 121.691C39.9025 121.977 39.2026 122.13 38.4934 122.139C37.7843 122.149 37.0804 122.015 36.4241 121.747C35.7617 121.475 35.1596 121.075 34.6522 120.57C34.1448 120.065 33.7421 119.465 33.4672 118.804Z" fill="url(#paint18_linear_187_2093)"/>
<path id="Vector_20" opacity="0.813762" d="M35.1328 118.084C34.7489 117.108 34.6556 116.041 34.8641 115.013C35.0726 113.985 35.574 113.039 36.3079 112.29C37.0419 111.54 37.977 111.019 39.0005 110.789C40.0241 110.559 41.0923 110.63 42.0764 110.993C43.3823 111.535 44.4256 112.565 44.9851 113.863C45.5445 115.162 45.5761 116.628 45.0732 117.949C44.5398 119.268 43.5106 120.326 42.2063 120.895C40.8913 121.456 39.4086 121.476 38.0789 120.951C36.7596 120.418 35.7019 119.389 35.1328 118.084Z" fill="url(#paint19_linear_187_2093)"/>
<path id="Vector_21" opacity="0.80396" d="M36.8364 117.359C36.5565 116.72 36.4062 116.032 36.394 115.335C36.3818 114.638 36.5081 113.945 36.7654 113.297C37.0228 112.648 37.4062 112.058 37.8934 111.558C38.3806 111.059 38.9619 110.662 39.6037 110.389C40.9032 109.862 42.3561 109.857 43.6589 110.376C44.9618 110.895 46.014 111.897 46.5956 113.173C47.1319 114.467 47.1481 115.918 46.6408 117.224C46.2102 118.154 45.5256 118.943 44.6658 119.501C43.806 120.059 42.806 120.363 41.7812 120.377C40.7564 120.391 39.7484 120.115 38.8735 119.581C37.9986 119.047 37.2924 118.277 36.8364 117.359Z" fill="url(#paint20_linear_187_2093)"/>
<path id="Vector_22" opacity="0.794158" d="M38.5183 116.618C38.1156 115.667 38.0027 114.617 38.1938 113.602C38.385 112.587 38.8717 111.65 39.5928 110.91C40.314 110.17 41.2376 109.66 42.2477 109.443C43.2579 109.225 44.3097 109.311 45.2713 109.69C45.9525 109.915 46.5803 110.277 47.116 110.754C47.6516 111.231 48.0838 111.813 48.3856 112.464C48.6875 113.115 48.8527 113.821 48.871 114.538C48.8893 115.255 48.7605 115.969 48.4923 116.634C48.2241 117.299 47.8223 117.903 47.3117 118.407C46.8011 118.911 46.1926 119.305 45.5238 119.564C44.855 119.824 44.14 119.943 43.4232 119.916C42.7063 119.888 42.0027 119.713 41.3559 119.403C40.7231 119.148 40.1468 118.771 39.66 118.293C39.1731 117.815 38.7852 117.246 38.5183 116.618Z" fill="url(#paint21_linear_187_2093)"/>
<path id="Vector_23" opacity="0.784356" d="M40.2055 115.915C39.9304 115.287 39.7837 114.61 39.774 113.925C39.7644 113.239 39.892 112.559 40.1494 111.924C40.6679 110.659 41.6621 109.648 42.9181 109.108C43.5423 108.834 44.2143 108.687 44.8956 108.675C45.5769 108.662 46.2539 108.785 46.8877 109.035C47.5251 109.282 48.1055 109.657 48.5933 110.136C49.0812 110.614 49.4663 111.188 49.7252 111.82C49.9999 112.445 50.1477 113.117 50.1598 113.799C50.1719 114.481 50.048 115.159 49.7955 115.792C49.5431 116.426 49.167 117.003 48.6892 117.49C48.2114 117.976 47.6415 118.363 47.0127 118.628C46.3914 118.903 45.7208 119.049 45.0413 119.058C44.3619 119.066 43.6876 118.937 43.0594 118.678C41.7795 118.172 40.753 117.178 40.2055 115.915Z" fill="url(#paint22_linear_187_2093)"/>
<path id="Vector_24" opacity="0.774554" d="M41.8874 115.174C41.485 114.244 41.3681 113.215 41.5517 112.219C41.7353 111.222 42.211 110.302 42.9184 109.577C43.6258 108.851 44.5329 108.352 45.5246 108.143C46.5163 107.934 47.5477 108.024 48.4878 108.403C49.1159 108.649 49.689 109.017 50.1741 109.486C50.6592 109.955 51.0466 110.515 51.3141 111.135C51.5817 111.754 51.724 112.42 51.7328 113.095C51.7416 113.769 51.6167 114.439 51.3655 115.065C51.1216 115.692 50.7542 116.264 50.2852 116.747C49.8161 117.23 49.2549 117.614 48.6349 117.876C47.3851 118.418 45.9709 118.443 44.7033 117.943C43.4383 117.424 42.4273 116.43 41.8874 115.174Z" fill="url(#paint23_linear_187_2093)"/>
<path id="Vector_25" opacity="0.764752" d="M43.5747 114.471C43.0441 113.231 43.0219 111.833 43.5129 110.577C43.8884 109.648 44.5304 108.85 45.3581 108.284C46.1859 107.718 47.1623 107.41 48.1648 107.398C49.1673 107.386 50.151 107.67 50.9923 108.215C51.8336 108.761 52.4949 109.543 52.893 110.463C53.4209 111.701 53.4357 113.099 52.9344 114.349C52.4331 115.598 51.4565 116.598 50.2189 117.129C48.9819 117.651 47.5893 117.665 46.3418 117.169C45.7216 116.93 45.1564 116.568 44.6807 116.104C44.205 115.641 43.8287 115.085 43.5747 114.471Z" fill="url(#paint24_linear_187_2093)"/>
<path id="Vector_26" opacity="0.75495" d="M45.2566 113.729C44.7361 112.51 44.7207 111.134 45.2139 109.904C45.7071 108.673 46.6685 107.689 47.887 107.167C49.1061 106.647 50.481 106.63 51.7129 107.118C52.9449 107.607 53.9342 108.562 54.466 109.775C54.9846 111.005 55.0048 112.387 54.5225 113.631C54.0216 114.861 53.0591 115.847 51.841 116.376C51.2361 116.639 50.5845 116.777 49.925 116.783C49.2655 116.789 48.6115 116.663 48.0019 116.411C47.3857 116.175 46.8243 115.815 46.3521 115.354C45.88 114.893 45.5072 114.34 45.2566 113.729Z" fill="url(#paint25_linear_187_2093)"/>
<path id="Vector_27" opacity="0.745149" d="M46.9439 113.027C46.5532 112.127 46.4387 111.132 46.6149 110.167C46.791 109.202 47.2499 108.312 47.9332 107.608C48.6165 106.905 49.4935 106.42 50.4528 106.216C51.412 106.012 52.4102 106.098 53.3207 106.462C54.231 106.824 55.0134 107.448 55.5687 108.255C56.1241 109.062 56.4274 110.015 56.4403 110.995C56.4532 111.974 56.1751 112.935 55.6413 113.757C55.1074 114.578 54.3418 115.222 53.4414 115.608C52.2342 116.129 50.8707 116.153 49.6458 115.676C48.4298 115.186 47.458 114.233 46.9439 113.027Z" fill="url(#paint26_linear_187_2093)"/>
<path id="Vector_28" opacity="0.735347" d="M48.6257 112.286C48.3699 111.701 48.2332 111.07 48.2234 110.432C48.2137 109.793 48.3311 109.159 48.5689 108.566C49.0538 107.361 49.9908 106.393 51.1797 105.87C52.3728 105.364 53.7171 105.35 54.9209 105.829C55.5247 106.057 56.0754 106.407 56.5391 106.856C57.0029 107.305 57.3698 107.844 57.6174 108.44C57.8706 109.03 58.0046 109.664 58.0115 110.306C58.0185 110.949 57.8982 111.586 57.6578 112.181C57.1706 113.385 56.2344 114.352 55.0471 114.878C53.854 115.383 52.5097 115.398 51.306 114.918C50.7071 114.679 50.1617 114.323 49.7016 113.871C49.2415 113.419 48.8757 112.88 48.6257 112.286Z" fill="url(#paint27_linear_187_2093)"/>
<path id="Vector_29" opacity="0.725545" d="M50.313 111.582C50.0572 110.997 49.9204 110.367 49.9106 109.728C49.9009 109.09 50.0183 108.456 50.2562 107.863C50.7328 106.674 51.6591 105.72 52.8342 105.21C54.0169 104.716 55.3454 104.704 56.5373 105.175C57.2785 105.467 57.9361 105.938 58.4516 106.546C58.9672 107.153 59.3247 107.879 59.4924 108.658C59.6602 109.437 59.6329 110.245 59.4132 111.011C59.1934 111.777 58.788 112.477 58.2328 113.049C57.6775 113.62 56.9898 114.046 56.2305 114.288C55.4712 114.53 54.664 114.58 53.8804 114.435C53.0969 114.29 52.3613 113.954 51.739 113.456C51.1166 112.959 50.6268 112.315 50.313 111.582Z" fill="url(#paint28_linear_187_2093)"/>
<path id="Vector_30" opacity="0.715743" d="M51.995 110.841C51.748 110.267 51.6167 109.649 51.6087 109.024C51.6006 108.398 51.716 107.777 51.9481 107.197C52.1802 106.616 52.5246 106.087 52.9615 105.639C53.3984 105.191 53.9192 104.834 54.4942 104.588C55.0678 104.334 55.6862 104.197 56.3134 104.184C56.9406 104.172 57.5641 104.284 58.1475 104.515C58.7309 104.745 59.2627 105.089 59.7118 105.527C60.1609 105.965 60.5184 106.488 60.7635 107.066C61.0129 107.643 61.1462 108.263 61.1559 108.891C61.1655 109.52 61.0512 110.144 60.8196 110.728C60.5881 111.312 60.2437 111.845 59.8062 112.296C59.3686 112.747 58.8465 113.108 58.2697 113.357C57.6923 113.608 57.07 113.741 56.4402 113.746C55.8104 113.751 55.1861 113.629 54.6047 113.387C54.0229 113.156 53.4928 112.812 53.0448 112.375C52.5969 111.939 52.24 111.417 51.995 110.841Z" fill="url(#paint29_linear_187_2093)"/>
<path id="Vector_31" opacity="0.705941" d="M53.6605 110.122C53.1774 108.972 53.1628 107.678 53.6198 106.517C53.8469 105.938 54.1878 105.411 54.6222 104.967C55.0565 104.522 55.5756 104.169 56.1487 103.929C57.2992 103.446 58.5928 103.431 59.7539 103.888C60.3324 104.115 60.8595 104.456 61.3041 104.89C61.7486 105.325 62.1015 105.844 62.342 106.417C62.5855 106.986 62.7145 107.597 62.7215 108.216C62.7285 108.834 62.6134 109.448 62.3827 110.022C62.1591 110.598 61.8211 111.122 61.3892 111.563C60.9574 112.004 60.4406 112.353 59.8701 112.589C59.3002 112.836 58.687 112.969 58.0655 112.98C57.4441 112.991 56.8267 112.879 56.2485 112.651C55.0881 112.179 54.1589 111.271 53.6605 110.122Z" fill="url(#paint30_linear_187_2093)"/>
<path id="Vector_32" opacity="0.696139" d="M55.3641 109.397C55.1192 108.852 54.9842 108.264 54.9669 107.667C54.9496 107.07 55.0503 106.475 55.2633 105.917C55.4859 105.348 55.8193 104.828 56.244 104.388C56.6688 103.949 57.1765 103.598 57.7378 103.356C58.2996 103.108 58.9051 102.974 59.519 102.963C60.133 102.952 60.743 103.063 61.3135 103.29C61.8841 103.517 62.4036 103.856 62.8419 104.286C63.2801 104.716 63.6282 105.229 63.8659 105.795C64.1123 106.34 64.2481 106.928 64.2655 107.525C64.2828 108.122 64.1812 108.717 63.9667 109.275C63.7428 109.844 63.409 110.363 62.9844 110.802C62.5598 111.242 62.0528 111.593 61.4923 111.836C60.3866 112.308 59.1432 112.344 58.012 111.937C57.4182 111.721 56.876 111.384 56.4201 110.947C55.9642 110.509 55.6045 109.981 55.3641 109.397Z" fill="url(#paint31_linear_187_2093)"/>
<path id="Vector_33" opacity="0.686337" d="M57.0297 108.678C56.5528 107.556 56.5387 106.29 56.9904 105.158C57.4421 104.025 58.3231 103.117 59.4414 102.631C60.5433 102.162 61.7831 102.134 62.9053 102.552C64.0327 103.004 64.937 103.881 65.4228 104.994C65.8997 106.116 65.9138 107.381 65.4621 108.514C65.0104 109.646 64.1294 110.554 63.0111 111.04C62.4682 111.284 61.882 111.417 61.2871 111.43C60.6922 111.444 60.1006 111.338 59.5472 111.12C58.9874 110.899 58.4767 110.569 58.0447 110.15C57.6126 109.731 57.2677 109.231 57.0297 108.678Z" fill="url(#paint32_linear_187_2093)"/>
<path id="Vector_34" opacity="0.676535" d="M58.7332 107.953C58.2636 106.85 58.2491 105.607 58.6927 104.493C59.1363 103.38 60.002 102.487 61.1012 102.01C62.1938 101.596 63.404 101.619 64.48 102.074C65.556 102.53 66.415 103.382 66.8783 104.455C67.3416 105.528 67.3736 106.738 66.9676 107.833C66.5615 108.929 65.7488 109.826 64.6983 110.337C63.5964 110.806 62.3566 110.835 61.2344 110.417C60.6748 110.192 60.1655 109.859 59.7361 109.436C59.3067 109.013 58.9658 108.509 58.7332 107.953Z" fill="url(#paint33_linear_187_2093)"/>
<path id="Vector_35" opacity="0.666733" d="M60.3661 107.277C59.9029 106.183 59.8901 104.95 60.3304 103.846C60.5452 103.298 60.8676 102.799 61.2785 102.377C61.6895 101.956 62.1807 101.622 62.7231 101.393C63.8176 100.93 65.0505 100.917 66.1543 101.358C66.7342 101.552 67.2684 101.862 67.724 102.27C68.1796 102.677 68.5471 103.174 68.8038 103.729C69.0605 104.284 69.2012 104.885 69.2169 105.497C69.2327 106.108 69.1234 106.716 68.8957 107.283C68.6679 107.851 68.3266 108.366 67.8926 108.796C67.4587 109.227 66.9412 109.565 66.3721 109.788C65.803 110.012 65.1942 110.116 64.5831 110.096C63.972 110.076 63.3715 109.931 62.8185 109.67C61.7215 109.221 60.8422 108.363 60.3661 107.277Z" fill="url(#paint34_linear_187_2093)"/>
<path id="Vector_36" opacity="0.656931" d="M62.1024 106.509C61.8652 105.971 61.7415 105.39 61.739 104.803C61.7366 104.215 61.8555 103.633 62.0884 103.094C62.3697 102.437 62.8068 101.858 63.3619 101.407C63.9169 100.957 64.5732 100.648 65.2742 100.508C65.9752 100.368 66.6998 100.401 67.3853 100.603C68.0708 100.806 68.6968 101.172 69.2091 101.671C69.7214 102.169 70.1046 102.785 70.3258 103.465C70.5469 104.145 70.5993 104.868 70.4783 105.572C70.3574 106.277 70.0668 106.941 69.6317 107.509C69.1965 108.076 68.6299 108.528 67.9807 108.828C66.8887 109.282 65.6614 109.287 64.5658 108.842C64.0183 108.64 63.5175 108.33 63.094 107.929C62.6705 107.528 62.3331 107.044 62.1024 106.509Z" fill="url(#paint35_linear_187_2093)"/>
<path id="Vector_37" opacity="0.647129" d="M63.7681 105.789C63.5427 105.251 63.4273 104.673 63.4286 104.09C63.4299 103.506 63.548 102.928 63.7758 102.391C63.9837 101.848 64.2977 101.352 64.6995 100.932C65.1013 100.511 65.5828 100.175 66.1158 99.9432C66.6489 99.711 67.2229 99.5874 67.8042 99.5795C68.3856 99.5716 68.9627 99.6797 69.5018 99.8973C70.0326 100.103 70.5166 100.413 70.9257 100.809C71.3347 101.205 71.6605 101.679 71.8837 102.203C72.1133 102.742 72.2327 103.322 72.2351 103.909C72.2375 104.495 72.1228 105.076 71.8977 105.618C71.456 106.687 70.6155 107.543 69.5541 108.005C69.0186 108.241 68.4395 108.363 67.8541 108.361C67.2687 108.36 66.6901 108.236 66.1556 107.997C65.1028 107.6 64.2463 106.808 63.7681 105.789Z" fill="url(#paint36_linear_187_2093)"/>
<path id="Vector_38" opacity="0.637327" d="M65.4716 105.065C65.2401 104.528 65.1213 103.949 65.1227 103.364C65.124 102.78 65.2454 102.202 65.4793 101.666C65.9145 100.603 66.7504 99.753 67.8065 99.3005C68.5882 98.9758 69.4479 98.8877 70.2792 99.0471C71.1104 99.2065 71.8766 99.6064 72.4826 100.197C73.0887 100.788 73.5079 101.544 73.6884 102.371C73.869 103.198 73.8027 104.059 73.498 104.849C73.0595 105.907 72.2353 106.758 71.1925 107.231C70.105 107.666 68.8902 107.655 67.8104 107.201C66.7885 106.811 65.9527 106.047 65.4716 105.065Z" fill="url(#paint37_linear_187_2093)"/>
<path id="Vector_39" opacity="0.627525" d="M67.1372 104.345C66.805 103.575 66.7087 102.723 66.8605 101.898C67.0122 101.073 67.4052 100.311 67.9898 99.7098C68.5743 99.1081 69.3242 98.6934 70.1446 98.5179C70.9649 98.3424 71.8189 98.4141 72.5984 98.724C73.3812 99.0321 74.0546 99.5661 74.5331 100.258C75.0116 100.95 75.2735 101.768 75.2856 102.61C75.2977 103.451 75.0594 104.276 74.601 104.982C74.1425 105.687 73.4847 106.24 72.7111 106.571C71.6799 107.007 70.519 107.024 69.4756 106.618C68.9552 106.412 68.4806 106.105 68.0792 105.715C67.6779 105.325 67.3577 104.859 67.1372 104.345Z" fill="url(#paint38_linear_187_2093)"/>
<path id="Vector_40" opacity="0.617723" d="M68.9009 103.495C68.4761 102.475 68.4611 101.33 68.8592 100.298C69.2768 99.2694 70.081 98.4454 71.0993 98.003C72.12 97.5782 73.2653 97.5633 74.2968 97.9614C75.3271 98.3764 76.1519 99.1814 76.5918 100.201C76.8123 100.704 76.9296 101.247 76.9367 101.796C76.9439 102.345 76.8407 102.89 76.6334 103.399C76.4388 103.915 76.1392 104.386 75.7537 104.781C75.3682 105.176 74.905 105.487 74.3934 105.694C73.3734 106.13 72.2222 106.143 71.1924 105.731C70.1627 105.319 69.3385 104.515 68.9009 103.495Z" fill="url(#paint39_linear_187_2093)"/>
<path id="Vector_41" opacity="0.607921" d="M70.5064 102.901C70.2914 102.404 70.1769 101.868 70.1698 101.326C70.1626 100.784 70.2628 100.246 70.4647 99.7434C70.6665 99.2403 70.966 98.7822 71.3458 98.3954C71.7256 98.0087 72.1782 97.7011 72.6775 97.4902C73.1707 97.2731 73.7022 97.1567 74.241 97.1477C74.7797 97.1386 75.3149 97.2372 75.8151 97.4375C76.3221 97.6338 76.7851 97.9289 77.1771 98.3056C77.5692 98.6823 77.8825 99.1331 78.0989 99.6319C78.3153 100.131 78.4304 100.668 78.4377 101.211C78.4449 101.755 78.3441 102.294 78.1411 102.799C77.941 103.302 77.6428 103.76 77.2638 104.147C76.8849 104.533 76.4327 104.84 75.9338 105.05C74.9245 105.489 73.7826 105.51 72.758 105.108C72.2558 104.907 71.7983 104.608 71.4119 104.23C71.0254 103.851 70.7177 103.399 70.5064 102.901Z" fill="url(#paint40_linear_187_2093)"/>
<path id="Vector_42" opacity="0.598119" d="M72.1883 102.16C71.9791 101.669 71.8686 101.142 71.8631 100.609C71.8576 100.075 71.9573 99.5461 72.1563 99.0512C72.3554 98.5563 72.65 98.1055 73.0233 97.7244C73.3965 97.3434 73.8412 97.0396 74.3319 96.8305C74.8226 96.6213 75.3497 96.5108 75.8831 96.5053C76.4165 96.4998 76.9457 96.5995 77.4406 96.7986C77.9355 96.9976 78.3863 97.2922 78.7674 97.6655C79.1484 98.0388 79.4522 98.4835 79.6613 98.9741C79.8768 99.4612 79.992 99.9866 80.0001 100.519C80.0082 101.052 79.9092 101.58 79.7087 102.074C79.4164 102.828 78.9048 103.478 78.2398 103.939C77.5748 104.4 76.7869 104.652 75.9777 104.661C75.1685 104.67 74.3751 104.437 73.6997 103.991C73.0243 103.545 72.4978 102.908 72.1883 102.16Z" fill="url(#paint41_linear_187_2093)"/>
<path id="Vector_43" opacity="0.588317" d="M73.8756 101.457C73.5048 100.602 73.4418 99.6457 73.6976 98.75C73.9533 97.8544 74.5119 97.0752 75.278 96.5454C76.0441 96.0156 76.9702 95.768 77.8985 95.8448C78.8268 95.9216 79.6997 96.318 80.3683 96.9665C81.0369 97.615 81.4598 98.4753 81.5649 99.4008C81.67 100.326 81.4508 101.26 80.9446 102.042C80.4385 102.823 79.6767 103.406 78.7893 103.688C77.9019 103.971 76.9438 103.938 76.0784 103.593C75.0924 103.198 74.3013 102.43 73.8756 101.457Z" fill="url(#paint42_linear_187_2093)"/>
<path id="Vector_44" opacity="0.578515" d="M75.5574 100.715C75.3496 100.24 75.2394 99.7268 75.2331 99.2075C75.2268 98.6882 75.3246 98.1729 75.5208 97.6921C75.9031 96.7253 76.6517 95.9487 77.6039 95.5313C78.556 95.1139 79.6345 95.0894 80.6046 95.4633C81.3295 95.7521 81.9523 96.2496 82.3944 96.8926C82.8364 97.5357 83.0776 98.2955 83.0875 99.0758C83.0974 99.8561 82.8755 100.622 82.4499 101.276C82.0243 101.93 81.4141 102.443 80.6967 102.75C80.2274 102.967 79.7183 103.083 79.2015 103.092C78.6847 103.101 78.1716 103.003 77.695 102.803C76.7362 102.415 75.9684 101.665 75.5574 100.715Z" fill="url(#paint43_linear_187_2093)"/>
<path id="Vector_45" opacity="0.568713" d="M77.2447 100.013C77.04 99.5424 76.9319 99.036 76.9265 98.5232C76.9211 98.0104 77.0187 97.5017 77.2134 97.0273C77.397 96.5526 77.6754 96.1201 78.0314 95.7564C78.3875 95.3926 78.8138 95.1051 79.2845 94.9113C79.753 94.707 80.2573 94.5977 80.7683 94.5898C81.2794 94.582 81.7868 94.6756 82.2613 94.8654C82.7359 95.0551 83.168 95.3372 83.5327 95.6952C83.8974 96.0533 84.1874 96.4802 84.3858 96.9512C84.7924 97.894 84.8095 98.9594 84.4334 99.9148C84.0354 100.867 83.2888 101.632 82.346 102.052C81.3935 102.454 80.3214 102.465 79.3607 102.084C78.4162 101.69 77.6588 100.948 77.2447 100.013Z" fill="url(#paint44_linear_187_2093)"/>
<path id="Vector_46" opacity="0.558911" d="M78.9266 99.2717C78.6865 98.8037 78.5452 98.2913 78.5117 97.7664C78.4781 97.2415 78.5529 96.7153 78.7315 96.2205C78.91 95.7258 79.1885 95.273 79.5495 94.8905C79.9105 94.508 80.3464 94.2039 80.83 93.9971C81.3136 93.7902 81.8346 93.6852 82.3606 93.6884C82.8866 93.6916 83.4063 93.803 83.8873 94.0156C84.3684 94.2283 84.8006 94.5377 85.1569 94.9245C85.5133 95.3114 85.7862 95.7675 85.9588 96.2643C86.1585 96.7251 86.265 97.2207 86.2722 97.7228C86.2795 98.2249 86.1873 98.7236 86.0011 99.1899C85.821 99.6615 85.5456 100.091 85.1921 100.451C84.8385 100.812 84.4144 101.095 83.9463 101.284C83.4856 101.484 82.9899 101.59 82.4878 101.598C81.9857 101.605 81.4871 101.513 81.0208 101.326C80.5492 101.146 80.1198 100.871 79.7594 100.517C79.3991 100.164 79.1156 99.7398 78.9266 99.2717Z" fill="url(#paint45_linear_187_2093)"/>
<path id="Vector_47" opacity="0.549109" d="M80.5484 98.6552C80.1543 97.7355 80.1411 96.6972 80.5114 95.7677C80.6871 95.3055 80.955 94.8837 81.2989 94.5283C81.6428 94.1729 82.0555 93.8912 82.5117 93.7005C83.4314 93.3064 84.4698 93.2932 85.3992 93.6636C85.8615 93.8392 86.2831 94.1072 86.6385 94.4511C86.9939 94.795 87.2756 95.2076 87.4664 95.6639C87.8604 96.5835 87.8737 97.6219 87.5033 98.5513C87.3277 99.0136 87.0597 99.4354 86.7158 99.7907C86.3719 100.146 85.9592 100.428 85.503 100.619C84.5833 101.013 83.545 101.026 82.6155 100.655C82.1532 100.48 81.7316 100.212 81.3762 99.868C81.0208 99.5241 80.7391 99.1114 80.5484 98.6552Z" fill="url(#paint46_linear_187_2093)"/>
<path id="Vector_48" opacity="0.539307" d="M82.2957 97.8272C82.0996 97.3829 81.9944 96.9038 81.9861 96.4182C81.9779 95.9326 82.0669 95.4503 82.2478 94.9995C82.6239 94.1325 83.3072 93.435 84.1663 93.0409C85.0755 92.659 86.0981 92.6477 87.0156 93.0093C87.8826 93.3855 88.5802 94.0688 88.9742 94.9278C89.345 95.8394 89.3563 96.8576 89.0059 97.7772C88.738 98.4651 88.2703 99.0571 87.6631 99.4769C87.0559 99.8968 86.3369 100.125 85.5987 100.133C84.8606 100.141 84.137 99.9271 83.5212 99.52C82.9054 99.1129 82.4255 98.5308 82.1434 97.8486L82.2957 97.8272Z" fill="url(#paint47_linear_187_2093)"/>
<path id="Vector_49" opacity="0.529505" d="M83.983 97.1244C83.7915 96.6854 83.6892 96.2128 83.6819 95.7339C83.6746 95.255 83.7625 94.7795 83.9404 94.3349C84.115 93.8978 84.3744 93.4996 84.7037 93.1635C85.033 92.8273 85.4256 92.5597 85.8589 92.3762C86.2979 92.1847 86.7705 92.0823 87.2494 92.075C87.7283 92.0677 88.2038 92.1556 88.6485 92.3336C89.5295 92.6887 90.2338 93.3786 90.6071 94.2521C90.7986 94.6911 90.901 95.1637 90.9083 95.6426C90.9156 96.1215 90.8277 96.597 90.6497 97.0417C90.2848 97.9163 89.5981 98.6174 88.7312 99.0003C88.2922 99.1918 87.8196 99.2942 87.3407 99.3015C86.8619 99.3088 86.3862 99.2209 85.9416 99.0429C85.0654 98.6804 84.3635 97.9929 83.983 97.1244Z" fill="url(#paint48_linear_187_2093)"/>
<path id="Vector_50" opacity="0.519703" d="M85.6649 96.3829C85.4751 95.9501 85.3739 95.4836 85.3675 95.0109C85.3611 94.5383 85.4496 94.0692 85.6277 93.6314C85.9828 92.7503 86.6727 92.046 87.5462 91.6728C88.4226 91.2982 89.4115 91.2848 90.2977 91.6355C90.8453 91.855 91.3304 92.2061 91.71 92.6577C92.0895 93.1094 92.3519 93.6477 92.4738 94.2249C92.5958 94.8021 92.5735 95.4005 92.4091 95.9671C92.2446 96.5337 91.9431 97.051 91.531 97.4732C91.119 97.8955 90.6092 98.2096 90.0468 98.3878C89.4844 98.566 88.8868 98.6029 88.3067 98.4951C87.7267 98.3873 87.1822 98.1382 86.7214 97.7698C86.2606 97.4013 85.8977 96.925 85.6649 96.3829Z" fill="url(#paint49_linear_187_2093)"/>
<path id="Vector_51" opacity="0.509901" d="M87.3305 95.6638C87.0582 95.0213 86.9823 94.3125 87.1122 93.6268C87.2421 92.9412 87.572 92.3093 88.0604 91.8109C88.5489 91.3125 89.1739 90.9699 89.8568 90.8261C90.5397 90.6824 91.2499 90.744 91.8978 91.0032C92.3397 91.1666 92.7432 91.4194 93.083 91.7457C93.4229 92.0721 93.6917 92.465 93.8728 92.9C94.2358 93.7651 94.2456 94.7381 93.9001 95.6103C93.5546 96.4826 92.8812 97.1849 92.0243 97.5668C91.1613 97.9236 90.1928 97.9272 89.3272 97.5769C88.8813 97.4114 88.4741 97.1563 88.1307 96.8273C87.7872 96.4982 87.5149 96.1022 87.3305 95.6638Z" fill="url(#paint50_linear_187_2093)"/>
<path id="Vector_52" opacity="0.500099" d="M89.0832 94.8737C88.8969 94.4573 88.7971 94.0075 88.7897 93.5513C88.7823 93.0952 88.8676 92.6424 89.0403 92.2202C89.2051 91.779 89.4584 91.3762 89.7846 91.0366C90.1108 90.6969 90.503 90.4276 90.9371 90.2452C91.7872 89.8837 92.7456 89.8722 93.6041 90.2132C94.4626 90.5542 95.1519 91.2201 95.5223 92.0663C95.8729 92.9219 95.8824 93.8793 95.5489 94.7417C95.3158 95.405 94.8857 95.9814 94.3162 96.3937C93.7466 96.806 93.0648 97.0346 92.3619 97.0489C91.6589 97.0633 90.9683 96.8628 90.3824 96.474C89.7965 96.0853 89.3432 95.527 89.0832 94.8737Z" fill="url(#paint51_linear_187_2093)"/>
<path id="Vector_53" opacity="0.490297" d="M90.6997 94.2197C90.5222 93.8099 90.4293 93.3683 90.4266 92.9217C90.4239 92.475 90.5113 92.0324 90.6838 91.6205C90.8457 91.1777 91.098 90.7735 91.4246 90.4334C91.7511 90.0934 92.1448 89.8251 92.5807 89.6455C92.9897 89.4649 93.4315 89.3703 93.8786 89.3675C94.3257 89.3648 94.7687 89.454 95.1799 89.6296C95.5965 89.792 95.9763 90.0363 96.2969 90.348C96.6175 90.6598 96.8723 91.0327 97.0463 91.4446C97.3199 92.0643 97.4022 92.7515 97.2825 93.4182C97.1628 94.0849 96.8465 94.7006 96.3744 95.1864C95.9023 95.6721 95.2959 96.0056 94.6328 96.1442C93.9698 96.2828 93.2804 96.2201 92.6533 95.9641C91.8027 95.6543 91.1035 95.0299 90.6997 94.2197Z" fill="url(#paint52_linear_187_2093)"/>
<path id="Vector_54" opacity="0.480495" d="M92.4032 93.4946C92.225 93.0934 92.1289 92.6606 92.1205 92.2217C92.1122 91.7828 92.1918 91.3466 92.3547 90.9389C92.6863 90.1101 93.3331 89.4467 94.1533 89.0942C94.5582 88.914 94.9955 88.8182 95.4387 88.8127C95.8818 88.8071 96.3215 88.892 96.7307 89.062C97.1371 89.2241 97.5075 89.4651 97.8203 89.7709C98.1332 90.0768 98.3824 90.4416 98.5537 90.8442C98.7339 91.2491 98.8297 91.6865 98.8352 92.1296C98.8408 92.5728 98.7559 93.0124 98.5859 93.4217C98.4292 93.8312 98.1902 94.2042 97.8837 94.5178C97.5771 94.8313 97.2096 95.0787 96.8037 95.2447C96.4004 95.4231 95.9657 95.5193 95.5248 95.5277C95.084 95.536 94.6458 95.4564 94.2361 95.2934C93.8263 95.1305 93.4532 94.8875 93.1385 94.5786C92.8238 94.2698 92.5738 93.9012 92.4032 93.4946Z" fill="url(#paint53_linear_187_2093)"/>
<path id="Vector_55" opacity="0.470693" d="M94.0688 92.7752C93.7266 91.9687 93.7175 91.0596 94.0433 90.2463C94.3691 89.433 95.0035 88.7817 95.8078 88.4345C96.6158 88.1068 97.5193 88.1049 98.3286 88.4291C99.138 88.7534 99.7903 89.3787 100.149 90.1736C100.315 90.5731 100.402 91.0016 100.403 91.4346C100.403 91.8676 100.319 92.2964 100.154 92.6966C99.9993 93.1008 99.7653 93.4699 99.4658 93.7821C99.1662 94.0943 98.807 94.3433 98.4095 94.5142C97.5972 94.8454 96.6892 94.8551 95.8701 94.5411C95.0638 94.2077 94.4181 93.5747 94.0688 92.7752Z" fill="url(#paint54_linear_187_2093)"/>
<path id="Vector_56" opacity="0.460891" d="M95.7725 92.0507C95.5974 91.6618 95.5037 91.2412 95.4971 90.8148C95.4906 90.3883 95.5714 89.9651 95.7346 89.571C95.89 89.1739 96.123 88.8119 96.42 88.5059C96.7169 88.2 97.0719 87.9563 97.4641 87.7891C97.8564 87.6219 98.278 87.5345 98.7044 87.5321C99.1308 87.5298 99.5534 87.6125 99.9474 87.7753C100.343 87.9298 100.702 88.1631 101.005 88.4611C101.307 88.759 101.545 89.1154 101.705 89.5085C101.956 90.0965 102.028 90.7456 101.91 91.374C101.792 92.0025 101.491 92.582 101.045 93.0394C100.598 93.4968 100.026 93.8116 99.4002 93.9441C98.7748 94.0766 98.1241 94.0209 97.5304 93.7838C97.1351 93.6294 96.7753 93.3961 96.4731 93.0981C96.1709 92.8001 95.9325 92.4438 95.7725 92.0507Z" fill="url(#paint55_linear_187_2093)"/>
<path id="Vector_57" opacity="0.451089" d="M97.438 91.331C97.27 90.9466 97.1802 90.5326 97.1742 90.1132C97.1681 89.6938 97.2458 89.2774 97.4026 88.8884C97.5595 88.4994 97.7923 88.1455 98.0876 87.8476C98.3829 87.5496 98.7346 87.3136 99.1222 87.1533C99.5025 86.9862 99.912 86.8959 100.327 86.8875C100.743 86.8791 101.155 86.9528 101.542 87.1044C102.32 87.4327 102.941 88.0474 103.278 88.8212C103.611 89.593 103.624 90.4651 103.316 91.2468C103.007 92.0286 102.402 92.6566 101.632 92.9936C100.855 93.3244 99.9786 93.3353 99.1934 93.024C98.4082 92.7128 97.7775 92.1044 97.438 91.331Z" fill="url(#paint56_linear_187_2093)"/>
<path id="Vector_58" opacity="0.441287" d="M99.1416 90.6063C98.9778 90.2316 98.8897 89.8282 98.8824 89.4193C98.8751 89.0104 98.9488 88.6042 99.0993 88.2239C99.2498 87.8436 99.4741 87.4969 99.7592 87.2037C100.044 86.9105 100.385 86.6766 100.76 86.5155C101.138 86.3525 101.544 86.2654 101.955 86.2594C102.366 86.2533 102.774 86.3284 103.156 86.4803C103.538 86.6322 103.886 86.8579 104.181 87.1445C104.475 87.4311 104.711 87.7731 104.873 88.1507C105.188 88.915 105.19 89.7722 104.878 90.5379C104.731 90.9199 104.507 91.2682 104.222 91.5618C103.936 91.8555 103.594 92.0885 103.216 92.2469C102.458 92.564 101.605 92.5696 100.842 92.2626C100.08 91.9556 99.4687 91.3605 99.1416 90.6063Z" fill="url(#paint57_linear_187_2093)"/>
<path id="Vector_59" opacity="0.431485" d="M100.807 89.887C100.491 89.1403 100.477 88.2999 100.769 87.5433C101.084 86.7924 101.672 86.1891 102.415 85.8559C103.162 85.5398 104.002 85.5261 104.759 85.8177C105.51 86.1324 106.113 86.7209 106.446 87.4638C106.762 88.2105 106.776 89.0509 106.484 89.8075C106.17 90.5584 105.581 91.1616 104.838 91.4948C104.102 91.7546 103.295 91.7295 102.576 91.4244C101.814 91.1534 101.182 90.6043 100.807 89.887Z" fill="url(#paint58_linear_187_2093)"/>
<path id="Vector_60" opacity="0.421683" d="M102.511 89.1622C102.199 88.4339 102.185 87.612 102.474 86.8741C102.763 86.1361 103.33 85.5413 104.053 85.2179C104.416 85.0602 104.807 84.976 105.203 84.9704C105.598 84.9647 105.991 85.0377 106.359 85.1851C106.727 85.3293 107.063 85.5466 107.346 85.8238C107.628 86.101 107.852 86.4326 108.003 86.7984C108.221 87.338 108.278 87.9297 108.165 88.5008C108.052 89.072 107.775 89.5978 107.367 90.0137C106.96 90.4296 106.44 90.7176 105.871 90.8423C105.303 90.967 104.71 90.923 104.166 90.7156C103.433 90.4329 102.839 89.8756 102.511 89.1622Z" fill="url(#paint59_linear_187_2093)"/>
<path id="Vector_61" opacity="0.411881" d="M104.176 88.4428C103.873 87.7193 103.863 86.9059 104.149 86.1752C104.294 85.8176 104.509 85.4923 104.78 85.2177C105.051 84.9431 105.374 84.7246 105.729 84.5748C106.268 84.3259 106.869 84.246 107.454 84.3456C108.039 84.4451 108.58 84.7194 109.006 85.1324C109.431 85.5455 109.722 86.0778 109.84 86.6593C109.957 87.2408 109.895 87.8442 109.663 88.39C109.362 89.1145 108.8 89.6993 108.088 90.0286C107.367 90.3236 106.559 90.3257 105.837 90.0343C105.467 89.8944 105.129 89.6814 104.844 89.4079C104.559 89.1344 104.332 88.8062 104.176 88.4428Z" fill="url(#paint60_linear_187_2093)"/>
<path id="Vector_62" opacity="0.402079" d="M105.858 87.7017C105.704 87.3576 105.622 86.9851 105.619 86.6078C105.616 86.2305 105.692 85.8568 105.841 85.5103C106.125 84.8069 106.673 84.2423 107.368 83.9369C107.712 83.7764 108.087 83.69 108.467 83.6834C108.848 83.6768 109.225 83.75 109.575 83.8984C110.285 84.189 110.856 84.7412 111.17 85.4409C111.462 86.1412 111.467 86.9276 111.187 87.6323C111.057 87.9917 110.852 88.3195 110.586 88.5944C110.32 88.8692 110 89.085 109.645 89.2274C108.941 89.5214 108.151 89.5352 107.437 89.2659C107.083 89.1227 106.762 88.9106 106.491 88.6421C106.22 88.3736 106.005 88.054 105.858 87.7017Z" fill="url(#paint61_linear_187_2093)"/>
<path id="Vector_63" opacity="0.392277" d="M107.546 86.9985C107.398 86.6716 107.317 86.3188 107.307 85.9604C107.296 85.6021 107.357 85.2452 107.485 84.9103C107.617 84.562 107.819 84.2446 108.079 83.9777C108.339 83.7107 108.65 83.5 108.995 83.3586C109.335 83.2044 109.703 83.1218 110.076 83.1161C110.449 83.1104 110.82 83.1817 111.164 83.3255C111.534 83.5254 111.852 83.8081 112.094 84.1515C112.335 84.495 112.494 84.8898 112.558 85.3049C112.621 85.7201 112.588 86.1443 112.46 86.5443C112.332 86.9444 112.113 87.3094 111.821 87.6107C111.528 87.912 111.17 88.1413 110.774 88.2809C110.377 88.4204 109.954 88.4662 109.538 88.4148C109.121 88.3634 108.721 88.2161 108.371 87.9845C108.021 87.7529 107.729 87.4433 107.518 87.08L107.546 86.9985Z" fill="url(#paint62_linear_187_2093)"/>
<path id="Vector_64" opacity="0.382475" d="M109.244 86.2357C109.096 85.9021 109.017 85.5421 109.011 85.1772C109.005 84.8123 109.073 84.45 109.21 84.1119C109.348 83.7738 109.552 83.4667 109.81 83.209C110.068 82.9514 110.376 82.7484 110.715 82.6122C111.046 82.4673 111.403 82.3901 111.765 82.385C112.127 82.38 112.486 82.4471 112.821 82.5826C113.157 82.7181 113.462 82.9191 113.719 83.174C113.975 83.4288 114.179 83.7323 114.317 84.0668C114.464 84.3978 114.544 84.7549 114.552 85.1173C114.559 85.4796 114.494 85.8398 114.361 86.1767C114.232 86.5179 114.036 86.8298 113.785 87.0938C113.533 87.3578 113.231 87.5685 112.896 87.7133C112.562 87.8582 112.201 87.9342 111.837 87.9369C111.472 87.9397 111.111 87.869 110.774 87.7291C110.431 87.5965 110.119 87.3958 109.856 87.1391C109.593 86.8825 109.385 86.5751 109.244 86.2357Z" fill="url(#paint63_linear_187_2093)"/>
<path id="Vector_65" opacity="0.372673" d="M110.915 85.5544C110.629 84.896 110.615 84.1512 110.876 83.4826C111.007 83.1503 111.203 82.8473 111.452 82.5907C111.701 82.3342 111.998 82.1292 112.326 81.9876C112.654 81.8459 113.007 81.7703 113.364 81.7651C113.721 81.7599 114.076 81.8252 114.408 81.9572C114.74 82.091 115.042 82.2888 115.297 82.5394C115.552 82.7901 115.755 83.0887 115.895 83.4179C116.169 84.0744 116.175 84.8123 115.912 85.4733C115.651 86.1453 115.133 86.6859 114.473 86.9763C113.808 87.2514 113.061 87.2517 112.396 86.977C111.735 86.7147 111.203 86.204 110.915 85.5544Z" fill="url(#paint64_linear_187_2093)"/>
<path id="Vector_66" opacity="0.362871" d="M112.597 84.8131C112.455 84.4961 112.38 84.153 112.378 83.8056C112.376 83.4583 112.447 83.1144 112.585 82.7957C112.848 82.1462 113.352 81.6233 113.991 81.3362C114.637 81.0737 115.359 81.0695 116.008 81.3245C116.658 81.5876 117.181 82.0914 117.468 82.7307C117.73 83.3768 117.735 84.099 117.48 84.7481C117.217 85.3976 116.713 85.9205 116.073 86.2076C115.425 86.4815 114.696 86.4935 114.04 86.2411C113.392 85.9693 112.875 85.4576 112.597 84.8131Z" fill="url(#paint65_linear_187_2093)"/>
<path id="Vector_67" opacity="0.353069" d="M114.284 84.1104C114.136 83.797 114.053 83.4572 114.04 83.1111C114.026 82.765 114.082 82.4198 114.205 82.0959C114.327 81.772 114.514 81.476 114.753 81.2256C114.992 80.9752 115.28 80.7755 115.598 80.6383C115.916 80.5012 116.258 80.4294 116.604 80.4272C116.951 80.425 117.294 80.4925 117.614 80.6257C117.933 80.7588 118.223 80.955 118.465 81.2024C118.708 81.4497 118.898 81.7433 119.025 82.0656C119.166 82.3744 119.242 82.7087 119.25 83.0481C119.257 83.3874 119.196 83.7248 119.069 84.0396C118.805 84.6669 118.315 85.1723 117.696 85.4557C117.062 85.6977 116.36 85.6939 115.729 85.4449C115.097 85.196 114.582 84.7199 114.284 84.1104Z" fill="url(#paint66_linear_187_2093)"/>
<path id="Vector_68" opacity="0.343267" d="M115.966 83.3691C115.773 82.9103 115.72 82.405 115.813 81.9162C115.906 81.4275 116.142 80.9771 116.49 80.6215C116.837 80.2658 117.283 80.0207 117.769 79.9169C118.256 79.8131 118.762 79.8551 119.225 80.0377C119.841 80.292 120.334 80.7768 120.597 81.3889C120.861 82.0011 120.875 82.692 120.637 83.3144C120.386 83.94 119.898 84.4411 119.28 84.7088C118.977 84.8379 118.651 84.906 118.322 84.9089C117.992 84.9119 117.665 84.8498 117.36 84.7262C117.046 84.6088 116.76 84.4275 116.52 84.1939C116.28 83.9603 116.092 83.6795 115.966 83.3691Z" fill="url(#paint67_linear_187_2093)"/>
<path id="Vector_69" opacity="0.333465" d="M117.653 82.6658C117.521 82.3682 117.45 82.0473 117.443 81.7218C117.437 81.3963 117.496 81.0728 117.616 80.7703C117.736 80.4677 117.915 80.1922 118.143 79.9598C118.371 79.7274 118.643 79.543 118.944 79.4171C119.241 79.2807 119.562 79.2073 119.889 79.2015C120.216 79.1957 120.54 79.2576 120.841 79.3834C121.445 79.6358 121.928 80.1097 122.192 80.7078C122.445 81.3107 122.449 81.989 122.203 82.5947C121.957 83.2003 121.481 83.684 120.88 83.9401C120.588 84.0703 120.273 84.1399 119.953 84.1448C119.633 84.1496 119.316 84.0897 119.02 83.9686C118.716 83.8555 118.438 83.6818 118.203 83.4578C117.968 83.2339 117.781 82.9644 117.653 82.6658Z" fill="url(#paint68_linear_187_2093)"/>
<path id="Vector_70" opacity="0.323663" d="M119.335 81.9248C119.211 81.6378 119.145 81.329 119.141 81.0163C119.137 80.7036 119.195 80.3932 119.312 80.1031C119.421 79.8019 119.592 79.5267 119.814 79.2951C120.035 79.0634 120.302 78.8804 120.598 78.7575C121.187 78.5147 121.847 78.5107 122.438 78.7466C123.029 78.9825 123.506 79.4396 123.765 80.0208C124.019 80.6128 124.03 81.281 123.794 81.8805C123.675 82.1729 123.5 82.4389 123.279 82.6633C123.057 82.8877 122.793 83.0661 122.502 83.1881C121.91 83.442 121.242 83.4521 120.642 83.2164C120.35 83.098 120.084 82.9229 119.86 82.7012C119.635 82.4795 119.457 82.2157 119.335 81.9248Z" fill="url(#paint69_linear_187_2093)"/>
<path id="Vector_71" opacity="0.313861" d="M121 81.2051C120.767 80.626 120.766 79.9792 120.999 79.3998C121.113 79.1123 121.283 78.8501 121.498 78.6287C121.714 78.4072 121.972 78.2307 122.256 78.1095C122.541 77.9883 122.847 77.9246 123.156 77.9224C123.465 77.9201 123.772 77.9791 124.058 78.0962C124.343 78.2091 124.602 78.3791 124.82 78.5955C125.037 78.812 125.208 79.0705 125.322 79.3552C125.453 79.636 125.525 79.9411 125.531 80.2511C125.538 80.561 125.48 80.8689 125.361 81.1552C125.245 81.4435 125.072 81.7057 124.853 81.9265C124.634 82.1473 124.373 82.3222 124.086 82.441C123.805 82.5634 123.502 82.6281 123.196 82.6311C122.89 82.6342 122.586 82.5755 122.302 82.4587C121.724 82.2223 121.258 81.7738 121 81.2051Z" fill="url(#paint70_linear_187_2093)"/>
<path id="Vector_72" opacity="0.304059" d="M122.704 80.4805C122.582 80.2045 122.516 79.9067 122.51 79.6048C122.505 79.3029 122.56 79.003 122.673 78.7229C122.786 78.4427 122.954 78.188 123.167 77.9739C123.379 77.7598 123.633 77.5905 123.913 77.4763C124.472 77.2439 125.1 77.2403 125.662 77.4663C126.224 77.6924 126.674 78.1299 126.917 78.6848C127.035 78.9603 127.097 79.2566 127.099 79.5563C127.101 79.856 127.043 80.1531 126.929 80.4303C126.703 80.994 126.265 81.4462 125.708 81.6891C125.149 81.9214 124.521 81.925 123.959 81.699C123.397 81.473 122.947 81.0354 122.704 80.4805Z" fill="url(#paint71_linear_187_2093)"/>
<path id="Vector_73" opacity="0.294257" d="M124.37 79.7612C124.144 79.2149 124.141 78.6018 124.363 78.0538C124.468 77.781 124.627 77.5326 124.831 77.3236C125.036 77.1146 125.28 76.9495 125.551 76.8384C125.821 76.7179 126.114 76.6533 126.41 76.6484C126.706 76.6434 127 76.6983 127.275 76.8097C127.816 77.037 128.25 77.4619 128.49 77.9979C128.606 78.2673 128.667 78.5574 128.668 78.8509C128.669 79.1443 128.611 79.4349 128.497 79.7053C128.396 79.9805 128.238 80.2312 128.034 80.4408C127.829 80.6503 127.582 80.8139 127.309 80.9206C126.77 81.1603 126.158 81.1764 125.607 80.9657C125.057 80.7344 124.615 80.3042 124.37 79.7612Z" fill="url(#paint72_linear_187_2093)"/>
<path id="Vector_74" opacity="0.284455" d="M126.073 79.0361C125.956 78.7747 125.893 78.4924 125.887 78.2061C125.881 77.9198 125.932 77.6351 126.037 77.3689C126.143 77.1026 126.3 76.8602 126.501 76.6557C126.702 76.4513 126.941 76.289 127.205 76.1785C127.736 75.9645 128.328 75.9627 128.86 76.1734C129.392 76.3841 129.823 76.7912 130.063 77.3106C130.285 77.8489 130.294 78.452 130.086 78.9963C129.98 79.258 129.823 79.4962 129.625 79.6973C129.427 79.8984 129.191 80.0584 128.931 80.1682C128.669 80.285 128.387 80.3483 128.101 80.3545C127.814 80.3606 127.53 80.3095 127.264 80.2041C126.997 80.0986 126.755 79.9409 126.55 79.7403C126.346 79.5398 126.184 79.3003 126.073 79.0361Z" fill="url(#paint73_linear_187_2093)"/>
<path id="Vector_75" opacity="0.274653" d="M127.739 78.3167C127.529 77.8016 127.524 77.2256 127.726 76.7072C127.937 76.1909 128.337 75.774 128.843 75.5407C129.099 75.4282 129.374 75.3673 129.653 75.3614C129.932 75.3555 130.209 75.4048 130.469 75.5063C130.728 75.609 130.963 75.7628 131.161 75.9585C131.358 76.1543 131.514 76.3879 131.62 76.6454C131.74 76.8986 131.805 77.1744 131.811 77.4547C131.817 77.7349 131.763 78.0133 131.654 78.2713C131.55 78.5291 131.396 78.7635 131.2 78.9609C131.004 79.1584 130.772 79.315 130.515 79.4215C130.262 79.5343 129.988 79.5936 129.711 79.5958C129.434 79.598 129.16 79.5429 128.905 79.4341C128.39 79.2206 127.974 78.8219 127.739 78.3167Z" fill="url(#paint74_linear_187_2093)"/>
<path id="Vector_76" opacity="0.264851" d="M129.426 77.6139C129.315 77.3646 129.255 77.0956 129.25 76.8229C129.246 76.5501 129.295 76.2792 129.397 76.0261C129.605 75.5282 129.999 75.1313 130.495 74.9201C130.991 74.7089 131.55 74.7001 132.053 74.8956C132.306 74.9934 132.536 75.1405 132.732 75.3284C132.927 75.5163 133.083 75.7413 133.19 75.9901C133.297 76.2389 133.354 76.5066 133.356 76.7775C133.359 77.0485 133.308 77.3172 133.205 77.5681C133.004 78.0699 132.615 78.4731 132.121 78.6912C131.873 78.7993 131.606 78.8558 131.336 78.857C131.065 78.8583 130.798 78.8044 130.549 78.6985C130.297 78.6045 130.068 78.4597 129.875 78.2731C129.681 78.0865 129.529 77.862 129.426 77.6139Z" fill="url(#paint75_linear_187_2093)"/>
<path id="Vector_77" opacity="0.25505" d="M131.108 76.8729C130.905 76.382 130.904 75.8308 131.106 75.3394C131.2 75.0981 131.341 74.8782 131.522 74.6927C131.703 74.5072 131.919 74.36 132.158 74.2598C132.398 74.153 132.657 74.0949 132.919 74.0889C133.182 74.0829 133.443 74.129 133.687 74.2247C133.932 74.3203 134.155 74.4636 134.344 74.6461C134.533 74.8286 134.683 75.0468 134.787 75.288C134.99 75.7788 134.991 76.33 134.789 76.8214C134.695 77.0627 134.554 77.2827 134.373 77.4682C134.192 77.6537 133.976 77.8009 133.737 77.9011C133.498 78.0099 133.24 78.0696 132.977 78.0765C132.715 78.0833 132.454 78.0373 132.209 77.9411C131.715 77.7445 131.32 77.3605 131.108 76.8729Z" fill="url(#paint76_linear_187_2093)"/>
<path id="Vector_78" opacity="0.245248" d="M132.812 76.1481C132.706 75.9149 132.648 75.6627 132.642 75.4067C132.636 75.1506 132.682 74.896 132.777 74.6581C132.973 74.1851 133.344 73.8061 133.813 73.6001C134.044 73.4955 134.294 73.4402 134.548 73.438C134.802 73.4357 135.053 73.4865 135.286 73.5871C135.763 73.7718 136.149 74.1357 136.361 74.601C136.52 74.9531 136.57 75.3451 136.504 75.7261C136.439 76.1071 136.26 76.4595 135.992 76.7377C135.723 77.016 135.377 77.2073 134.999 77.2868C134.621 77.3663 134.227 77.3304 133.87 77.1837C133.631 77.0933 133.415 76.9546 133.232 76.7764C133.05 76.5982 132.907 76.3843 132.812 76.1481Z" fill="url(#paint77_linear_187_2093)"/>
<path id="Vector_79" opacity="0.235446" d="M134.477 75.4285C134.287 74.9693 134.285 74.4541 134.47 73.993C134.653 73.5258 135.01 73.1483 135.467 72.9404C135.928 72.7614 136.439 72.7586 136.903 72.9327C137.137 73.0209 137.35 73.1571 137.528 73.3327C137.707 73.5082 137.847 73.7191 137.939 73.9519C138.036 74.1786 138.086 74.4224 138.088 74.6689C138.089 74.9155 138.041 75.1597 137.946 75.3874C137.86 75.6178 137.727 75.8274 137.554 76.0022C137.381 76.1771 137.173 76.3134 136.944 76.402C136.722 76.5031 136.482 76.5574 136.239 76.5616C135.996 76.5657 135.754 76.5195 135.53 76.4259C135.061 76.2454 134.683 75.8868 134.477 75.4285Z" fill="url(#paint78_linear_187_2093)"/>
<path id="Vector_80" opacity="0.225644" d="M136.181 74.7039C136.08 74.4861 136.024 74.25 136.017 74.01C136.01 73.77 136.052 73.5312 136.141 73.308C136.229 73.0848 136.363 72.882 136.532 72.7119C136.702 72.5419 136.904 72.4082 137.127 72.3189C137.342 72.2193 137.576 72.1661 137.813 72.1629C138.05 72.1597 138.285 72.2065 138.503 72.3003C138.728 72.3841 138.933 72.5129 139.107 72.6788C139.28 72.8447 139.418 73.0441 139.512 73.265C139.609 73.4851 139.659 73.723 139.659 73.9635C139.66 74.2041 139.61 74.4421 139.514 74.6625C139.432 74.8835 139.306 75.0853 139.143 75.2552C138.98 75.4251 138.783 75.5595 138.566 75.65C138.116 75.8421 137.608 75.8508 137.152 75.674C136.716 75.4873 136.368 75.1399 136.181 74.7039Z" fill="url(#paint79_linear_187_2093)"/>
<path id="Vector_81" opacity="0.215842" d="M137.846 73.9844C137.756 73.7692 137.709 73.5379 137.71 73.3044C137.71 73.0708 137.758 72.8398 137.849 72.625C137.929 72.408 138.053 72.2099 138.213 72.0436C138.374 71.8773 138.567 71.7463 138.781 71.6592C139.208 71.4796 139.689 71.4749 140.119 71.6459C140.554 71.8169 140.904 72.1536 141.092 72.5821C141.279 73.0106 141.29 73.496 141.12 73.932C140.933 74.3682 140.586 74.7159 140.15 74.9031C139.723 75.0826 139.242 75.0874 138.812 74.9164C138.388 74.7333 138.044 74.402 137.846 73.9844Z" fill="url(#paint80_linear_187_2093)"/>
<path id="Vector_82" opacity="0.20604" d="M139.528 73.2431C139.441 73.0378 139.395 72.8172 139.394 72.5941C139.393 72.371 139.436 72.1499 139.52 71.9435C139.693 71.5339 140.014 71.2045 140.42 71.0212C140.624 70.9324 140.845 70.8859 141.069 70.8846C141.292 70.8832 141.513 70.927 141.719 71.0132C141.933 71.0889 142.128 71.2099 142.291 71.368C142.454 71.526 142.581 71.7173 142.663 71.9289C142.836 72.3357 142.845 72.7936 142.688 73.2068C142.511 73.6245 142.184 73.9612 141.772 74.1509C141.567 74.2396 141.346 74.2861 141.123 74.2875C140.9 74.2888 140.678 74.245 140.472 74.1588C140.262 74.0772 140.069 73.9541 139.907 73.7968C139.745 73.6395 139.616 73.4512 139.528 73.2431Z" fill="url(#paint81_linear_187_2093)"/>
<path id="Vector_83" opacity="0.196238" d="M141.216 72.5401C141.049 72.1364 141.048 71.6831 141.213 71.2786C141.284 71.0741 141.398 70.8867 141.546 70.7288C141.695 70.5708 141.874 70.4458 142.074 70.3616C142.48 70.203 142.93 70.2021 143.336 70.359C143.739 70.5257 144.062 70.8422 144.236 71.242C144.322 71.437 144.367 71.6471 144.37 71.86C144.374 72.0729 144.335 72.2842 144.255 72.4817C144.091 72.8865 143.774 73.2102 143.372 73.3824C143.177 73.4677 142.967 73.5133 142.754 73.5165C142.541 73.5198 142.33 73.4807 142.132 73.4014C141.928 73.3299 141.741 73.2163 141.583 73.068C141.425 72.9196 141.3 72.7398 141.216 72.5401Z" fill="url(#paint82_linear_187_2093)"/>
<path id="Vector_84" opacity="0.186436" d="M142.897 71.7992C142.737 71.4155 142.732 70.9847 142.884 70.5975C142.96 70.4042 143.074 70.2284 143.22 70.081C143.366 69.9335 143.541 69.8176 143.734 69.7402C143.923 69.6538 144.128 69.6063 144.336 69.6006C144.544 69.5949 144.751 69.6312 144.945 69.7073C145.138 69.7833 145.315 69.8976 145.463 70.0432C145.612 70.1889 145.729 70.363 145.809 70.5551C145.972 70.9382 145.977 71.3702 145.823 71.7569C145.751 71.9512 145.641 72.1289 145.499 72.2791C145.356 72.4293 145.185 72.5488 144.994 72.6305C144.608 72.7991 144.172 72.8118 143.776 72.6658C143.58 72.5865 143.401 72.4691 143.25 72.3204C143.099 72.1717 142.979 71.9945 142.897 71.7992Z" fill="url(#paint83_linear_187_2093)"/>
<path id="Vector_85" opacity="0.176634" d="M144.585 71.0962C144.505 70.9126 144.464 70.7151 144.463 70.5152C144.461 70.3153 144.5 70.1172 144.576 69.9325C144.646 69.7422 144.754 69.5682 144.893 69.4216C145.033 69.275 145.202 69.1589 145.388 69.0806C145.762 68.9323 146.177 68.9294 146.552 69.0724C146.738 69.1456 146.909 69.2547 147.053 69.3936C147.197 69.5325 147.312 69.6985 147.392 69.882C147.472 70.0655 147.515 70.263 147.518 70.4631C147.522 70.6632 147.486 70.862 147.412 71.0482C147.251 71.4226 146.952 71.7213 146.578 71.8837C146.209 72.0347 145.795 72.0371 145.423 71.8904C145.052 71.7436 144.751 71.4591 144.585 71.0962Z" fill="url(#paint84_linear_187_2093)"/>
<path id="Vector_86" opacity="0.166832" d="M146.266 70.355C146.125 70.0019 146.118 69.609 146.247 69.2511C146.316 69.071 146.421 68.9067 146.555 68.7678C146.689 68.6289 146.849 68.5184 147.027 68.4426C147.206 68.3625 147.399 68.3189 147.595 68.3147C147.791 68.3105 147.986 68.3456 148.169 68.418C148.527 68.5716 148.811 68.859 148.961 69.2191C149.102 69.5723 149.109 69.9652 148.98 70.323C148.882 70.6964 148.641 71.0163 148.309 71.2133C148.132 71.2924 147.94 71.3336 147.747 71.3341C147.553 71.3346 147.361 71.2944 147.183 71.2162C146.976 71.1496 146.787 71.0377 146.628 70.8888C146.469 70.7398 146.346 70.5575 146.266 70.355Z" fill="url(#paint85_linear_187_2093)"/>
<path id="Vector_87" opacity="0.15703" d="M147.954 69.6519C147.881 69.4798 147.844 69.2948 147.844 69.1079C147.844 68.921 147.883 68.7361 147.956 68.5643C148.021 68.3922 148.121 68.2354 148.249 68.1037C148.378 67.972 148.532 67.8684 148.703 67.7994C148.869 67.7205 149.05 67.6784 149.234 67.676C149.418 67.6736 149.601 67.7109 149.769 67.7854C149.941 67.8503 150.098 67.9502 150.229 68.0787C150.361 68.2072 150.465 68.3616 150.534 68.5321C150.609 68.6993 150.65 68.8802 150.652 69.0636C150.654 69.247 150.619 69.4289 150.548 69.598C150.483 69.7701 150.383 69.927 150.254 70.0586C150.126 70.1903 149.971 70.2939 149.801 70.3629C149.457 70.5096 149.071 70.5223 148.719 70.3985C148.377 70.2569 148.104 69.9897 147.954 69.6519Z" fill="url(#paint86_linear_187_2093)"/>
<path id="Vector_88" opacity="0.147228" d="M149.587 68.976C149.449 68.6478 149.446 68.2788 149.578 67.9483C149.719 67.6213 149.98 67.3608 150.307 67.2209C150.634 67.0809 151.003 67.0722 151.336 67.1964C151.655 67.339 151.912 67.5928 152.058 67.9104C152.127 68.0726 152.164 68.247 152.165 68.4235C152.166 68.5999 152.133 68.7748 152.066 68.9382C151.976 69.2843 151.752 69.5808 151.444 69.7633C151.113 69.8829 150.75 69.8859 150.417 69.7718C150.23 69.7063 150.058 69.6013 149.915 69.464C149.772 69.3268 149.66 69.1603 149.587 68.976Z" fill="url(#paint87_linear_187_2093)"/>
<path id="Vector_89" opacity="0.137426" d="M151.323 68.2076C151.199 67.8852 151.19 67.5298 151.298 67.2016C151.434 66.8891 151.683 66.6392 151.996 66.5017C152.152 66.4339 152.32 66.3986 152.49 66.3981C152.66 66.3975 152.829 66.4317 152.985 66.4985C153.31 66.591 153.589 66.801 153.767 67.0875C153.885 67.4067 153.886 67.7573 153.77 68.0772C153.634 68.3898 153.385 68.6396 153.072 68.7771C152.921 68.8477 152.757 68.8858 152.591 68.8892C152.424 68.8926 152.258 68.8611 152.105 68.7967C151.78 68.7042 151.501 68.4942 151.323 68.2076Z" fill="url(#paint88_linear_187_2093)"/>
<path id="Vector_90" opacity="0.127624" d="M153.005 67.4666C152.884 67.1694 152.878 66.8374 152.991 66.5367C153.115 66.2331 153.353 65.9903 153.655 65.8608C153.956 65.7313 154.296 65.7254 154.602 65.8444C154.91 65.9287 155.174 66.1278 155.34 66.4007C155.461 66.6978 155.467 67.0298 155.354 67.3305C155.315 67.4844 155.246 67.6288 155.15 67.7556C155.055 67.8823 154.935 67.9888 154.798 68.0688C154.648 68.1352 154.486 68.1693 154.322 68.1689C154.158 68.1686 153.996 68.1337 153.846 68.0667C153.668 68.042 153.498 67.9745 153.352 67.87C153.205 67.7656 153.086 67.6271 153.005 67.4666Z" fill="url(#paint89_linear_187_2093)"/>
<path id="Vector_91" opacity="0.117822" d="M154.692 66.7634C154.566 66.4758 154.555 66.1507 154.662 65.8552C154.722 65.7116 154.81 65.5814 154.922 65.4724C155.033 65.3634 155.165 65.2778 155.31 65.2205C155.592 65.1019 155.909 65.0985 156.193 65.211C156.478 65.3234 156.707 65.5428 156.831 65.8221C156.952 66.1065 156.955 66.4272 156.84 66.7139C156.803 66.8636 156.736 67.0042 156.643 67.1274C156.551 67.2505 156.434 67.3536 156.3 67.4304C156.016 67.5511 155.695 67.5543 155.408 67.4393C155.249 67.3824 155.102 67.2929 154.979 67.1766C154.856 67.0602 154.758 66.9195 154.692 66.7634Z" fill="url(#paint90_linear_187_2093)"/>
<path id="Vector_92" opacity="0.10802" d="M156.374 66.0223C156.317 65.8872 156.288 65.7422 156.287 65.5957C156.287 65.4492 156.315 65.3041 156.37 65.1685C156.403 65.027 156.465 64.8939 156.552 64.7779C156.64 64.6619 156.751 64.5657 156.878 64.4954C157.01 64.4375 157.152 64.4063 157.296 64.4038C157.441 64.4014 157.584 64.4276 157.718 64.4811C157.852 64.5345 157.974 64.6141 158.077 64.7152C158.18 64.8162 158.261 64.9367 158.317 65.0697C158.435 65.3463 158.444 65.6568 158.343 65.9397C158.253 66.214 158.074 66.4508 157.835 66.6129C157.56 66.7119 157.258 66.7131 156.982 66.6164C156.71 66.5039 156.493 66.2911 156.374 66.0223Z" fill="url(#paint91_linear_187_2093)"/>
<path id="Vector_93" opacity="0.098218" d="M158.121 65.1941C158.024 64.9308 158.025 64.6413 158.123 64.3785C158.201 64.1189 158.37 63.8957 158.598 63.7488C158.722 63.6926 158.857 63.6624 158.993 63.6599C159.13 63.6574 159.265 63.6827 159.392 63.7343C159.53 63.7627 159.66 63.8214 159.773 63.9063C159.885 63.9912 159.978 64.1001 160.043 64.2251C160.098 64.35 160.127 64.4844 160.13 64.6207C160.132 64.7569 160.108 64.8923 160.058 65.019C159.979 65.2786 159.811 65.5018 159.583 65.6487C159.46 65.7082 159.325 65.7403 159.188 65.7428C159.051 65.7453 158.915 65.7181 158.789 65.6632C158.652 65.633 158.523 65.576 158.408 65.4955C158.294 65.415 158.196 65.3125 158.121 65.1941Z" fill="url(#paint92_linear_187_2093)"/>
<path id="Vector_94" opacity="0.088416" d="M159.743 64.5781C159.688 64.4599 159.659 64.3314 159.658 64.2012C159.656 64.0709 159.682 63.9417 159.734 63.8222C159.806 63.5698 159.969 63.3532 160.192 63.2143C160.435 63.1233 160.703 63.1201 160.948 63.2051C161.202 63.2749 161.419 63.4387 161.556 63.6633C161.657 63.9045 161.66 64.1756 161.565 64.4192C161.493 64.6715 161.33 64.8882 161.107 65.0271C160.864 65.1181 160.596 65.1213 160.351 65.0362C160.098 64.9665 159.88 64.8026 159.743 64.5781Z" fill="url(#paint93_linear_187_2093)"/>
<path id="Vector_95" opacity="0.078614" d="M161.409 63.8586C161.319 63.628 161.318 63.3725 161.405 63.1409C161.466 62.9038 161.619 62.7007 161.83 62.5763C161.939 62.5252 162.056 62.497 162.176 62.4936C162.296 62.4901 162.415 62.5114 162.526 62.5562C162.64 62.6008 162.744 62.6676 162.832 62.7527C162.92 62.8378 162.99 62.9394 163.038 63.0518C163.087 63.1642 163.112 63.2852 163.113 63.4075C163.115 63.5298 163.092 63.6511 163.046 63.7645C163.022 63.8845 162.971 63.9975 162.897 64.0952C162.824 64.1929 162.729 64.2729 162.62 64.3291C162.507 64.3775 162.385 64.4028 162.262 64.4035C162.138 64.4041 162.016 64.3801 161.902 64.3328C161.69 64.2337 161.516 64.0669 161.409 63.8586Z" fill="url(#paint94_linear_187_2093)"/>
<path id="Vector_96" opacity="0.068812" d="M163.112 63.1338C163.063 63.0317 163.036 62.92 163.033 62.8065C163.03 62.6929 163.052 62.5801 163.098 62.4759C163.157 62.3097 163.265 62.1655 163.408 62.0623C163.551 61.9592 163.722 61.9019 163.899 61.8982C164.075 61.8945 164.248 61.9444 164.396 62.0415C164.543 62.1385 164.657 62.278 164.723 62.4415C164.8 62.6618 164.799 62.9012 164.722 63.1212C164.661 63.338 164.521 63.5241 164.329 63.6423C164.109 63.7207 163.869 63.7202 163.65 63.6408C163.529 63.5993 163.419 63.5325 163.326 63.4451C163.234 63.3577 163.161 63.2516 163.112 63.1338Z" fill="url(#paint95_linear_187_2093)"/>
<path id="Vector_97" opacity="0.05901" d="M164.778 62.4145C164.736 62.3127 164.714 62.2033 164.716 62.093C164.717 61.9827 164.74 61.8738 164.785 61.7729C164.837 61.5725 164.967 61.4009 165.145 61.2952C165.242 61.2502 165.347 61.2261 165.454 61.2245C165.56 61.2229 165.666 61.2438 165.765 61.2858C165.973 61.3425 166.152 61.4772 166.264 61.6621C166.333 61.8079 166.356 61.9715 166.33 62.1307C166.303 62.29 166.229 62.4373 166.116 62.5527C166.003 62.668 165.857 62.746 165.698 62.7759C165.54 62.8059 165.376 62.7864 165.228 62.7201C165.048 62.6728 164.889 62.565 164.778 62.4145Z" fill="url(#paint96_linear_187_2093)"/>
<path id="Vector_98" opacity="0.049208" d="M166.482 61.6897C166.441 61.5981 166.42 61.4993 166.419 61.3992C166.419 61.2992 166.438 61.2 166.477 61.1079C166.535 60.9206 166.657 60.7593 166.821 60.6519C167.008 60.5815 167.215 60.58 167.403 60.6478C167.499 60.6702 167.589 60.7123 167.667 60.7715C167.746 60.8307 167.811 60.9055 167.859 60.9914C167.903 61.082 167.926 61.1812 167.926 61.2818C167.927 61.3825 167.905 61.482 167.863 61.5732C167.805 61.7606 167.683 61.9218 167.519 62.0292C167.332 62.0996 167.126 62.101 166.938 62.0333C166.842 62.0109 166.752 61.9688 166.673 61.9096C166.595 61.8505 166.529 61.7755 166.482 61.6897Z" fill="url(#paint97_linear_187_2093)"/>
<path id="Vector_99" opacity="0.039406" d="M168.147 60.9703C168.08 60.7951 168.081 60.6014 168.148 60.4265C168.164 60.3382 168.2 60.2548 168.254 60.1831C168.308 60.1114 168.378 60.0535 168.459 60.014C168.54 59.974 168.628 59.9519 168.719 59.9493C168.809 59.9467 168.898 59.9636 168.981 59.9988C169.067 60.0198 169.149 60.0582 169.219 60.1117C169.29 60.1651 169.35 60.2326 169.394 60.3097C169.436 60.394 169.459 60.4873 169.458 60.5818C169.458 60.6763 169.436 60.7694 169.392 60.8535C169.361 60.937 169.313 61.0134 169.252 61.0784C169.191 61.1435 169.117 61.1958 169.036 61.2324C168.955 61.2691 168.867 61.2894 168.778 61.2921C168.688 61.2949 168.6 61.2801 168.516 61.2485C168.366 61.1979 168.237 61.1003 168.147 60.9703Z" fill="url(#paint98_linear_187_2093)"/>
<path id="Vector_100" opacity="0.029604" d="M169.851 60.2457C169.81 60.1719 169.787 60.0893 169.786 60.0049C169.784 59.9206 169.803 59.837 169.841 59.7617C169.86 59.6795 169.896 59.6021 169.946 59.5348C169.997 59.4674 170.062 59.4116 170.135 59.3709C170.291 59.3108 170.462 59.3073 170.619 59.3611C170.779 59.4136 170.916 59.5171 171.01 59.6556C171.043 59.7327 171.059 59.8155 171.059 59.8991C171.059 59.9827 171.042 60.0654 171.01 60.1424C170.977 60.2194 170.929 60.289 170.869 60.3472C170.809 60.4055 170.738 60.4511 170.66 60.4813C170.585 60.557 170.488 60.6073 170.383 60.6256C170.278 60.6439 170.169 60.6291 170.073 60.5833C169.958 60.5035 169.879 60.3826 169.851 60.2457Z" fill="url(#paint99_linear_187_2093)"/>
<path id="Vector_101" opacity="0.019802" d="M171.516 59.5261C171.467 59.3818 171.465 59.2254 171.512 59.0801C171.55 58.9343 171.644 58.8094 171.774 58.7327C171.843 58.6987 171.919 58.6807 171.996 58.68C172.073 58.6792 172.149 58.6957 172.219 58.7284C172.294 58.7423 172.364 58.7731 172.424 58.8185C172.484 58.8639 172.533 58.9227 172.567 58.9902C172.601 59.0594 172.619 59.1354 172.62 59.2126C172.62 59.2898 172.604 59.3661 172.571 59.436C172.557 59.5102 172.527 59.5801 172.481 59.6404C172.436 59.7007 172.377 59.7496 172.31 59.7834C172.165 59.8311 172.009 59.8327 171.864 59.7879C171.726 59.7337 171.606 59.6432 171.516 59.5261Z" fill="url(#paint100_linear_187_2093)"/>
<path id="Vector_102" opacity="0.01" d="M173.879 58.1067C174.003 58.148 174.11 58.2284 174.183 58.3358C174.222 58.3968 174.242 58.4676 174.242 58.5399C174.242 58.6121 174.221 58.6827 174.182 58.7436C174.174 58.8099 174.149 58.8729 174.109 58.9263C174.068 58.9797 174.015 59.0215 173.953 59.0476C173.831 59.0998 173.693 59.1054 173.567 59.0631C173.437 59.015 173.324 58.9297 173.242 58.8176C173.212 58.7557 173.199 58.6874 173.203 58.619C173.207 58.5506 173.228 58.4842 173.264 58.4262C173.279 58.3621 173.306 58.3019 173.346 58.2495C173.385 58.1971 173.436 58.1536 173.493 58.1221C173.618 58.0826 173.752 58.0773 173.879 58.1067Z" fill="url(#paint101_linear_187_2093)"/>
<path id="Vector_103" d="M6.024 130.601C5.76016 129.988 5.68407 129.311 5.80531 128.655C5.92656 127.999 6.23973 127.393 6.70515 126.915C7.17058 126.437 7.76731 126.108 8.41988 125.97C9.07245 125.831 9.75151 125.889 10.371 126.137C10.9906 126.384 11.5227 126.81 11.9002 127.36C12.2777 127.91 12.4835 128.56 12.4915 129.227C12.4996 129.894 12.3095 130.548 11.9455 131.107C11.5814 131.666 11.0596 132.105 10.4462 132.367C10.0403 132.545 9.60312 132.64 9.16013 132.647C8.71713 132.654 8.27711 132.573 7.86567 132.409C7.45422 132.244 7.07961 132 6.76345 131.69C6.44729 131.379 6.19591 131.009 6.024 130.601Z" fill="#FAFAFA"/>
</g>
</g>
<defs>
<linearGradient id="paint0_linear_187_2093" x1="3.92143" y1="125.366" x2="14.3051" y2="133.191" gradientUnits="userSpaceOnUse">
<stop stop-color="#4AACF1"/>
<stop offset="1" stop-color="#4AACF1" stop-opacity="0"/>
</linearGradient>
<linearGradient id="paint1_linear_187_2093" x1="5.62291" y1="124.688" x2="15.8966" y2="132.429" gradientUnits="userSpaceOnUse">
<stop stop-color="#4AACF1"/>
<stop offset="1" stop-color="#4AACF1" stop-opacity="0"/>
</linearGradient>
<linearGradient id="paint2_linear_187_2093" x1="7.29621" y1="124.026" x2="17.4741" y2="131.695" gradientUnits="userSpaceOnUse">
<stop stop-color="#4AACF1"/>
<stop offset="1" stop-color="#4AACF1" stop-opacity="0"/>
</linearGradient>
<linearGradient id="paint3_linear_187_2093" x1="8.96704" y1="123.354" x2="19.0614" y2="130.961" gradientUnits="userSpaceOnUse">
<stop stop-color="#4AACF1"/>
<stop offset="1" stop-color="#4AACF1" stop-opacity="0"/>
</linearGradient>
<linearGradient id="paint4_linear_187_2093" x1="10.6472" y1="122.693" x2="20.6378" y2="130.221" gradientUnits="userSpaceOnUse">
<stop stop-color="#4AACF1"/>
<stop offset="1" stop-color="#4AACF1" stop-opacity="0"/>
</linearGradient>
<linearGradient id="paint5_linear_187_2093" x1="12.3123" y1="122.028" x2="22.215" y2="129.491" gradientUnits="userSpaceOnUse">
<stop stop-color="#4AACF1"/>
<stop offset="1" stop-color="#4AACF1" stop-opacity="0"/>
</linearGradient>
<linearGradient id="paint6_linear_187_2093" x1="13.9608" y1="121.423" x2="23.9787" y2="128.972" gradientUnits="userSpaceOnUse">
<stop stop-color="#4AACF1"/>
<stop offset="1" stop-color="#4AACF1" stop-opacity="0"/>
</linearGradient>
<linearGradient id="paint7_linear_187_2093" x1="15.6659" y1="120.702" x2="25.3878" y2="128.028" gradientUnits="userSpaceOnUse">
<stop stop-color="#4AACF1"/>
<stop offset="1" stop-color="#4AACF1" stop-opacity="0"/>
</linearGradient>
<linearGradient id="paint8_linear_187_2093" x1="17.4523" y1="120.045" x2="27.047" y2="127.275" gradientUnits="userSpaceOnUse">
<stop stop-color="#4AACF1"/>
<stop offset="1" stop-color="#4AACF1" stop-opacity="0"/>
</linearGradient>
<linearGradient id="paint9_linear_187_2093" x1="19.042" y1="119.37" x2="28.5553" y2="126.539" gradientUnits="userSpaceOnUse">
<stop stop-color="#4AACF1"/>
<stop offset="1" stop-color="#4AACF1" stop-opacity="0"/>
</linearGradient>
<linearGradient id="paint10_linear_187_2093" x1="20.7267" y1="118.622" x2="30.1529" y2="125.725" gradientUnits="userSpaceOnUse">
<stop stop-color="#4AACF1"/>
<stop offset="1" stop-color="#4AACF1" stop-opacity="0"/>
</linearGradient>
<linearGradient id="paint11_linear_187_2093" x1="22.409" y1="118.06" x2="31.7133" y2="125.072" gradientUnits="userSpaceOnUse">
<stop stop-color="#4AACF1"/>
<stop offset="1" stop-color="#4AACF1" stop-opacity="0"/>
</linearGradient>
<linearGradient id="paint12_linear_187_2093" x1="24.0629" y1="117.391" x2="33.2853" y2="124.341" gradientUnits="userSpaceOnUse">
<stop stop-color="#4AACF1"/>
<stop offset="1" stop-color="#4AACF1" stop-opacity="0"/>
</linearGradient>
<linearGradient id="paint13_linear_187_2093" x1="25.7626" y1="116.679" x2="34.8998" y2="123.564" gradientUnits="userSpaceOnUse">
<stop stop-color="#4AACF1"/>
<stop offset="1" stop-color="#4AACF1" stop-opacity="0"/>
</linearGradient>
<linearGradient id="paint14_linear_187_2093" x1="27.4149" y1="116.087" x2="36.451" y2="122.896" gradientUnits="userSpaceOnUse">
<stop stop-color="#4AACF1"/>
<stop offset="1" stop-color="#4AACF1" stop-opacity="0"/>
</linearGradient>
<linearGradient id="paint15_linear_187_2093" x1="29.0822" y1="115.394" x2="38.0398" y2="122.144" gradientUnits="userSpaceOnUse">
<stop stop-color="#4AACF1"/>
<stop offset="1" stop-color="#4AACF1" stop-opacity="0"/>
</linearGradient>
<linearGradient id="paint16_linear_187_2093" x1="30.7689" y1="114.649" x2="39.6633" y2="121.351" gradientUnits="userSpaceOnUse">
<stop stop-color="#4AACF1"/>
<stop offset="1" stop-color="#4AACF1" stop-opacity="0"/>
</linearGradient>
<linearGradient id="paint17_linear_187_2093" x1="32.4357" y1="114.06" x2="41.2062" y2="120.669" gradientUnits="userSpaceOnUse">
<stop stop-color="#4AACF1"/>
<stop offset="1" stop-color="#4AACF1" stop-opacity="0"/>
</linearGradient>
<linearGradient id="paint18_linear_187_2093" x1="34.1719" y1="113.347" x2="42.9288" y2="119.946" gradientUnits="userSpaceOnUse">
<stop stop-color="#4AACF1"/>
<stop offset="1" stop-color="#4AACF1" stop-opacity="0"/>
</linearGradient>
<linearGradient id="paint19_linear_187_2093" x1="35.8634" y1="112.805" x2="44.358" y2="119.206" gradientUnits="userSpaceOnUse">
<stop stop-color="#4AACF1"/>
<stop offset="1" stop-color="#4AACF1" stop-opacity="0"/>
</linearGradient>
<linearGradient id="paint20_linear_187_2093" x1="37.487" y1="112.026" x2="45.9209" y2="118.382" gradientUnits="userSpaceOnUse">
<stop stop-color="#4AACF1"/>
<stop offset="1" stop-color="#4AACF1" stop-opacity="0"/>
</linearGradient>
<linearGradient id="paint21_linear_187_2093" x1="39.1891" y1="111.376" x2="47.7936" y2="117.86" gradientUnits="userSpaceOnUse">
<stop stop-color="#4AACF1"/>
<stop offset="1" stop-color="#4AACF1" stop-opacity="0"/>
</linearGradient>
<linearGradient id="paint22_linear_187_2093" x1="40.8319" y1="110.734" x2="49.1255" y2="116.983" gradientUnits="userSpaceOnUse">
<stop stop-color="#4AACF1"/>
<stop offset="1" stop-color="#4AACF1" stop-opacity="0"/>
</linearGradient>
<linearGradient id="paint23_linear_187_2093" x1="42.4939" y1="110.072" x2="50.7033" y2="116.258" gradientUnits="userSpaceOnUse">
<stop stop-color="#4AACF1"/>
<stop offset="1" stop-color="#4AACF1" stop-opacity="0"/>
</linearGradient>
<linearGradient id="paint24_linear_187_2093" x1="44.1718" y1="109.415" x2="52.2729" y2="115.52" gradientUnits="userSpaceOnUse">
<stop stop-color="#4AACF1"/>
<stop offset="1" stop-color="#4AACF1" stop-opacity="0"/>
</linearGradient>
<linearGradient id="paint25_linear_187_2093" x1="45.8598" y1="108.757" x2="53.8629" y2="114.788" gradientUnits="userSpaceOnUse">
<stop stop-color="#4AACF1"/>
<stop offset="1" stop-color="#4AACF1" stop-opacity="0"/>
</linearGradient>
<linearGradient id="paint26_linear_187_2093" x1="47.5267" y1="108.084" x2="55.4386" y2="114.046" gradientUnits="userSpaceOnUse">
<stop stop-color="#4AACF1"/>
<stop offset="1" stop-color="#4AACF1" stop-opacity="0"/>
</linearGradient>
<linearGradient id="paint27_linear_187_2093" x1="49.215" y1="107.424" x2="57.0219" y2="113.307" gradientUnits="userSpaceOnUse">
<stop stop-color="#4AACF1"/>
<stop offset="1" stop-color="#4AACF1" stop-opacity="0"/>
</linearGradient>
<linearGradient id="paint28_linear_187_2093" x1="50.8809" y1="106.752" x2="58.6264" y2="112.589" gradientUnits="userSpaceOnUse">
<stop stop-color="#4AACF1"/>
<stop offset="1" stop-color="#4AACF1" stop-opacity="0"/>
</linearGradient>
<linearGradient id="paint29_linear_187_2093" x1="52.5761" y1="106.086" x2="60.2016" y2="111.833" gradientUnits="userSpaceOnUse">
<stop stop-color="#4AACF1"/>
<stop offset="1" stop-color="#4AACF1" stop-opacity="0"/>
</linearGradient>
<linearGradient id="paint30_linear_187_2093" x1="54.2311" y1="105.422" x2="61.7783" y2="111.11" gradientUnits="userSpaceOnUse">
<stop stop-color="#4AACF1"/>
<stop offset="1" stop-color="#4AACF1" stop-opacity="0"/>
</linearGradient>
<linearGradient id="paint31_linear_187_2093" x1="55.894" y1="104.796" x2="63.3311" y2="110.4" gradientUnits="userSpaceOnUse">
<stop stop-color="#4AACF1"/>
<stop offset="1" stop-color="#4AACF1" stop-opacity="0"/>
</linearGradient>
<linearGradient id="paint32_linear_187_2093" x1="57.5868" y1="104.096" x2="64.8633" y2="109.579" gradientUnits="userSpaceOnUse">
<stop stop-color="#4AACF1"/>
<stop offset="1" stop-color="#4AACF1" stop-opacity="0"/>
</linearGradient>
<linearGradient id="paint33_linear_187_2093" x1="59.2241" y1="103.522" x2="66.3876" y2="108.92" gradientUnits="userSpaceOnUse">
<stop stop-color="#4AACF1"/>
<stop offset="1" stop-color="#4AACF1" stop-opacity="0"/>
</linearGradient>
<linearGradient id="paint34_linear_187_2093" x1="60.9292" y1="102.782" x2="68.2981" y2="108.335" gradientUnits="userSpaceOnUse">
<stop stop-color="#4AACF1"/>
<stop offset="1" stop-color="#4AACF1" stop-opacity="0"/>
</linearGradient>
<linearGradient id="paint35_linear_187_2093" x1="62.6406" y1="102.149" x2="69.6757" y2="107.45" gradientUnits="userSpaceOnUse">
<stop stop-color="#4AACF1"/>
<stop offset="1" stop-color="#4AACF1" stop-opacity="0"/>
</linearGradient>
<linearGradient id="paint36_linear_187_2093" x1="64.3554" y1="101.338" x2="71.3372" y2="106.6" gradientUnits="userSpaceOnUse">
<stop stop-color="#4AACF1"/>
<stop offset="1" stop-color="#4AACF1" stop-opacity="0"/>
</linearGradient>
<linearGradient id="paint37_linear_187_2093" x1="66.0369" y1="100.687" x2="72.9108" y2="105.866" gradientUnits="userSpaceOnUse">
<stop stop-color="#4AACF1"/>
<stop offset="1" stop-color="#4AACF1" stop-opacity="0"/>
</linearGradient>
<linearGradient id="paint38_linear_187_2093" x1="67.6442" y1="100.113" x2="74.4295" y2="105.226" gradientUnits="userSpaceOnUse">
<stop stop-color="#4AACF1"/>
<stop offset="1" stop-color="#4AACF1" stop-opacity="0"/>
</linearGradient>
<linearGradient id="paint39_linear_187_2093" x1="69.4079" y1="99.3327" x2="76.0999" y2="104.375" gradientUnits="userSpaceOnUse">
<stop stop-color="#4AACF1"/>
<stop offset="1" stop-color="#4AACF1" stop-opacity="0"/>
</linearGradient>
<linearGradient id="paint40_linear_187_2093" x1="71.0038" y1="98.7911" x2="77.5979" y2="103.76" gradientUnits="userSpaceOnUse">
<stop stop-color="#4AACF1"/>
<stop offset="1" stop-color="#4AACF1" stop-opacity="0"/>
</linearGradient>
<linearGradient id="paint41_linear_187_2093" x1="72.6748" y1="98.1304" x2="79.1791" y2="103.032" gradientUnits="userSpaceOnUse">
<stop stop-color="#4AACF1"/>
<stop offset="1" stop-color="#4AACF1" stop-opacity="0"/>
</linearGradient>
<linearGradient id="paint42_linear_187_2093" x1="74.3538" y1="97.4325" x2="80.781" y2="102.276" gradientUnits="userSpaceOnUse">
<stop stop-color="#4AACF1"/>
<stop offset="1" stop-color="#4AACF1" stop-opacity="0"/>
</linearGradient>
<linearGradient id="paint43_linear_187_2093" x1="76.0309" y1="96.7792" x2="82.2937" y2="101.499" gradientUnits="userSpaceOnUse">
<stop stop-color="#4AACF1"/>
<stop offset="1" stop-color="#4AACF1" stop-opacity="0"/>
</linearGradient>
<linearGradient id="paint44_linear_187_2093" x1="77.71" y1="96.1312" x2="83.9173" y2="100.809" gradientUnits="userSpaceOnUse">
<stop stop-color="#4AACF1"/>
<stop offset="1" stop-color="#4AACF1" stop-opacity="0"/>
</linearGradient>
<linearGradient id="paint45_linear_187_2093" x1="79.2332" y1="95.2712" x2="85.5484" y2="100.03" gradientUnits="userSpaceOnUse">
<stop stop-color="#4AACF1"/>
<stop offset="1" stop-color="#4AACF1" stop-opacity="0"/>
</linearGradient>
<linearGradient id="paint46_linear_187_2093" x1="80.9932" y1="94.8882" x2="87.0216" y2="99.4309" gradientUnits="userSpaceOnUse">
<stop stop-color="#4AACF1"/>
<stop offset="1" stop-color="#4AACF1" stop-opacity="0"/>
</linearGradient>
<linearGradient id="paint47_linear_187_2093" x1="82.6785" y1="94.2507" x2="88.5197" y2="98.6523" gradientUnits="userSpaceOnUse">
<stop stop-color="#4AACF1"/>
<stop offset="1" stop-color="#4AACF1" stop-opacity="0"/>
</linearGradient>
<linearGradient id="paint48_linear_187_2093" x1="84.4068" y1="93.5081" x2="90.1791" y2="97.8579" gradientUnits="userSpaceOnUse">
<stop stop-color="#4AACF1"/>
<stop offset="1" stop-color="#4AACF1" stop-opacity="0"/>
</linearGradient>
<linearGradient id="paint49_linear_187_2093" x1="86.0954" y1="92.8062" x2="91.8287" y2="97.1265" gradientUnits="userSpaceOnUse">
<stop stop-color="#4AACF1"/>
<stop offset="1" stop-color="#4AACF1" stop-opacity="0"/>
</linearGradient>
<linearGradient id="paint50_linear_187_2093" x1="87.7693" y1="92.1481" x2="93.4465" y2="96.4262" gradientUnits="userSpaceOnUse">
<stop stop-color="#4AACF1"/>
<stop offset="1" stop-color="#4AACF1" stop-opacity="0"/>
</linearGradient>
<linearGradient id="paint51_linear_187_2093" x1="89.4918" y1="91.3843" x2="95.0984" y2="95.6092" gradientUnits="userSpaceOnUse">
<stop stop-color="#4AACF1"/>
<stop offset="1" stop-color="#4AACF1" stop-opacity="0"/>
</linearGradient>
<linearGradient id="paint52_linear_187_2093" x1="91.163" y1="90.7403" x2="96.6452" y2="94.8714" gradientUnits="userSpaceOnUse">
<stop stop-color="#4AACF1"/>
<stop offset="1" stop-color="#4AACF1" stop-opacity="0"/>
</linearGradient>
<linearGradient id="paint53_linear_187_2093" x1="92.7981" y1="90.1548" x2="98.1598" y2="94.1951" gradientUnits="userSpaceOnUse">
<stop stop-color="#4AACF1"/>
<stop offset="1" stop-color="#4AACF1" stop-opacity="0"/>
</linearGradient>
<linearGradient id="paint54_linear_187_2093" x1="94.4653" y1="89.4943" x2="99.7338" y2="93.4644" gradientUnits="userSpaceOnUse">
<stop stop-color="#4AACF1"/>
<stop offset="1" stop-color="#4AACF1" stop-opacity="0"/>
</linearGradient>
<linearGradient id="paint55_linear_187_2093" x1="96.1471" y1="88.8266" x2="101.317" y2="92.7221" gradientUnits="userSpaceOnUse">
<stop stop-color="#4AACF1"/>
<stop offset="1" stop-color="#4AACF1" stop-opacity="0"/>
</linearGradient>
<linearGradient id="paint56_linear_187_2093" x1="97.8204" y1="88.1544" x2="102.904" y2="91.985" gradientUnits="userSpaceOnUse">
<stop stop-color="#4AACF1"/>
<stop offset="1" stop-color="#4AACF1" stop-opacity="0"/>
</linearGradient>
<linearGradient id="paint57_linear_187_2093" x1="99.5101" y1="87.4937" x2="104.49" y2="91.246" gradientUnits="userSpaceOnUse">
<stop stop-color="#4AACF1"/>
<stop offset="1" stop-color="#4AACF1" stop-opacity="0"/>
</linearGradient>
<linearGradient id="paint58_linear_187_2093" x1="101.207" y1="86.7974" x2="106.099" y2="90.4835" gradientUnits="userSpaceOnUse">
<stop stop-color="#4AACF1"/>
<stop offset="1" stop-color="#4AACF1" stop-opacity="0"/>
</linearGradient>
<linearGradient id="paint59_linear_187_2093" x1="102.875" y1="86.1559" x2="107.614" y2="89.7272" gradientUnits="userSpaceOnUse">
<stop stop-color="#4AACF1"/>
<stop offset="1" stop-color="#4AACF1" stop-opacity="0"/>
</linearGradient>
<linearGradient id="paint60_linear_187_2093" x1="104.55" y1="85.4793" x2="109.289" y2="89.0505" gradientUnits="userSpaceOnUse">
<stop stop-color="#4AACF1"/>
<stop offset="1" stop-color="#4AACF1" stop-opacity="0"/>
</linearGradient>
<linearGradient id="paint61_linear_187_2093" x1="106.212" y1="84.8531" x2="110.817" y2="88.3226" gradientUnits="userSpaceOnUse">
<stop stop-color="#4AACF1"/>
<stop offset="1" stop-color="#4AACF1" stop-opacity="0"/>
</linearGradient>
<linearGradient id="paint62_linear_187_2093" x1="107.875" y1="84.2127" x2="112.042" y2="87.3527" gradientUnits="userSpaceOnUse">
<stop stop-color="#4AACF1"/>
<stop offset="1" stop-color="#4AACF1" stop-opacity="0"/>
</linearGradient>
<linearGradient id="paint63_linear_187_2093" x1="109.569" y1="83.4834" x2="114.008" y2="86.8279" gradientUnits="userSpaceOnUse">
<stop stop-color="#4AACF1"/>
<stop offset="1" stop-color="#4AACF1" stop-opacity="0"/>
</linearGradient>
<linearGradient id="paint64_linear_187_2093" x1="111.239" y1="82.8391" x2="115.567" y2="86.1008" gradientUnits="userSpaceOnUse">
<stop stop-color="#4AACF1"/>
<stop offset="1" stop-color="#4AACF1" stop-opacity="0"/>
</linearGradient>
<linearGradient id="paint65_linear_187_2093" x1="112.923" y1="82.1941" x2="117.13" y2="85.3646" gradientUnits="userSpaceOnUse">
<stop stop-color="#4AACF1"/>
<stop offset="1" stop-color="#4AACF1" stop-opacity="0"/>
</linearGradient>
<linearGradient id="paint66_linear_187_2093" x1="114.559" y1="81.4545" x2="118.744" y2="84.6082" gradientUnits="userSpaceOnUse">
<stop stop-color="#4AACF1"/>
<stop offset="1" stop-color="#4AACF1" stop-opacity="0"/>
</linearGradient>
<linearGradient id="paint67_linear_187_2093" x1="116.275" y1="80.872" x2="120.302" y2="83.9067" gradientUnits="userSpaceOnUse">
<stop stop-color="#4AACF1"/>
<stop offset="1" stop-color="#4AACF1" stop-opacity="0"/>
</linearGradient>
<linearGradient id="paint68_linear_187_2093" x1="117.943" y1="80.1911" x2="121.882" y2="83.1592" gradientUnits="userSpaceOnUse">
<stop stop-color="#4AACF1"/>
<stop offset="1" stop-color="#4AACF1" stop-opacity="0"/>
</linearGradient>
<linearGradient id="paint69_linear_187_2093" x1="119.617" y1="79.5291" x2="123.476" y2="82.4368" gradientUnits="userSpaceOnUse">
<stop stop-color="#4AACF1"/>
<stop offset="1" stop-color="#4AACF1" stop-opacity="0"/>
</linearGradient>
<linearGradient id="paint70_linear_187_2093" x1="121.3" y1="78.8606" x2="125.057" y2="81.6917" gradientUnits="userSpaceOnUse">
<stop stop-color="#4AACF1"/>
<stop offset="1" stop-color="#4AACF1" stop-opacity="0"/>
</linearGradient>
<linearGradient id="paint71_linear_187_2093" x1="122.972" y1="78.1972" x2="126.634" y2="80.9565" gradientUnits="userSpaceOnUse">
<stop stop-color="#4AACF1"/>
<stop offset="1" stop-color="#4AACF1" stop-opacity="0"/>
</linearGradient>
<linearGradient id="paint72_linear_187_2093" x1="124.648" y1="77.5376" x2="128.216" y2="80.2265" gradientUnits="userSpaceOnUse">
<stop stop-color="#4AACF1"/>
<stop offset="1" stop-color="#4AACF1" stop-opacity="0"/>
</linearGradient>
<linearGradient id="paint73_linear_187_2093" x1="126.316" y1="76.8712" x2="129.8" y2="79.4966" gradientUnits="userSpaceOnUse">
<stop stop-color="#4AACF1"/>
<stop offset="1" stop-color="#4AACF1" stop-opacity="0"/>
</linearGradient>
<linearGradient id="paint74_linear_187_2093" x1="128.013" y1="76.2064" x2="131.385" y2="78.7475" gradientUnits="userSpaceOnUse">
<stop stop-color="#4AACF1"/>
<stop offset="1" stop-color="#4AACF1" stop-opacity="0"/>
</linearGradient>
<linearGradient id="paint75_linear_187_2093" x1="129.663" y1="75.565" x2="132.943" y2="78.0362" gradientUnits="userSpaceOnUse">
<stop stop-color="#4AACF1"/>
<stop offset="1" stop-color="#4AACF1" stop-opacity="0"/>
</linearGradient>
<linearGradient id="paint76_linear_187_2093" x1="131.359" y1="74.8837" x2="134.536" y2="77.2778" gradientUnits="userSpaceOnUse">
<stop stop-color="#4AACF1"/>
<stop offset="1" stop-color="#4AACF1" stop-opacity="0"/>
</linearGradient>
<linearGradient id="paint77_linear_187_2093" x1="133.029" y1="74.218" x2="136.141" y2="76.563" gradientUnits="userSpaceOnUse">
<stop stop-color="#4AACF1"/>
<stop offset="1" stop-color="#4AACF1" stop-opacity="0"/>
</linearGradient>
<linearGradient id="paint78_linear_187_2093" x1="134.715" y1="73.5486" x2="137.717" y2="75.8109" gradientUnits="userSpaceOnUse">
<stop stop-color="#4AACF1"/>
<stop offset="1" stop-color="#4AACF1" stop-opacity="0"/>
</linearGradient>
<linearGradient id="paint79_linear_187_2093" x1="136.381" y1="72.8848" x2="139.292" y2="75.0782" gradientUnits="userSpaceOnUse">
<stop stop-color="#4AACF1"/>
<stop offset="1" stop-color="#4AACF1" stop-opacity="0"/>
</linearGradient>
<linearGradient id="paint80_linear_187_2093" x1="138.065" y1="72.2193" x2="140.88" y2="74.3399" gradientUnits="userSpaceOnUse">
<stop stop-color="#4AACF1"/>
<stop offset="1" stop-color="#4AACF1" stop-opacity="0"/>
</linearGradient>
<linearGradient id="paint81_linear_187_2093" x1="139.742" y1="71.5604" x2="142.456" y2="73.605" gradientUnits="userSpaceOnUse">
<stop stop-color="#4AACF1"/>
<stop offset="1" stop-color="#4AACF1" stop-opacity="0"/>
</linearGradient>
<linearGradient id="paint82_linear_187_2093" x1="141.41" y1="70.8947" x2="144.032" y2="72.8707" gradientUnits="userSpaceOnUse">
<stop stop-color="#4AACF1"/>
<stop offset="1" stop-color="#4AACF1" stop-opacity="0"/>
</linearGradient>
<linearGradient id="paint83_linear_187_2093" x1="143.091" y1="70.2289" x2="145.62" y2="72.1344" gradientUnits="userSpaceOnUse">
<stop stop-color="#4AACF1"/>
<stop offset="1" stop-color="#4AACF1" stop-opacity="0"/>
</linearGradient>
<linearGradient id="paint84_linear_187_2093" x1="144.772" y1="69.5657" x2="147.205" y2="71.3986" gradientUnits="userSpaceOnUse">
<stop stop-color="#4AACF1"/>
<stop offset="1" stop-color="#4AACF1" stop-opacity="0"/>
</linearGradient>
<linearGradient id="paint85_linear_187_2093" x1="146.437" y1="68.9071" x2="148.827" y2="70.7084" gradientUnits="userSpaceOnUse">
<stop stop-color="#4AACF1"/>
<stop offset="1" stop-color="#4AACF1" stop-opacity="0"/>
</linearGradient>
<linearGradient id="paint86_linear_187_2093" x1="148.128" y1="68.2464" x2="150.364" y2="69.9311" gradientUnits="userSpaceOnUse">
<stop stop-color="#4AACF1"/>
<stop offset="1" stop-color="#4AACF1" stop-opacity="0"/>
</linearGradient>
<linearGradient id="paint87_linear_187_2093" x1="149.75" y1="67.6538" x2="151.926" y2="69.2934" gradientUnits="userSpaceOnUse">
<stop stop-color="#4AACF1"/>
<stop offset="1" stop-color="#4AACF1" stop-opacity="0"/>
</linearGradient>
<linearGradient id="paint88_linear_187_2093" x1="151.506" y1="66.8645" x2="153.562" y2="68.4144" gradientUnits="userSpaceOnUse">
<stop stop-color="#4AACF1"/>
<stop offset="1" stop-color="#4AACF1" stop-opacity="0"/>
</linearGradient>
<linearGradient id="paint89_linear_187_2093" x1="153.187" y1="66.2071" x2="155.184" y2="67.7114" gradientUnits="userSpaceOnUse">
<stop stop-color="#4AACF1"/>
<stop offset="1" stop-color="#4AACF1" stop-opacity="0"/>
</linearGradient>
<linearGradient id="paint90_linear_187_2093" x1="154.816" y1="65.5913" x2="156.72" y2="67.0262" gradientUnits="userSpaceOnUse">
<stop stop-color="#4AACF1"/>
<stop offset="1" stop-color="#4AACF1" stop-opacity="0"/>
</linearGradient>
<linearGradient id="paint91_linear_187_2093" x1="156.471" y1="64.8855" x2="158.227" y2="66.2088" gradientUnits="userSpaceOnUse">
<stop stop-color="#4AACF1"/>
<stop offset="1" stop-color="#4AACF1" stop-opacity="0"/>
</linearGradient>
<linearGradient id="paint92_linear_187_2093" x1="158.262" y1="64.0772" x2="159.916" y2="65.3235" gradientUnits="userSpaceOnUse">
<stop stop-color="#4AACF1"/>
<stop offset="1" stop-color="#4AACF1" stop-opacity="0"/>
</linearGradient>
<linearGradient id="paint93_linear_187_2093" x1="159.866" y1="63.53" x2="161.433" y2="64.7114" gradientUnits="userSpaceOnUse">
<stop stop-color="#4AACF1"/>
<stop offset="1" stop-color="#4AACF1" stop-opacity="0"/>
</linearGradient>
<linearGradient id="paint94_linear_187_2093" x1="161.499" y1="62.8988" x2="162.966" y2="64.004" gradientUnits="userSpaceOnUse">
<stop stop-color="#4AACF1"/>
<stop offset="1" stop-color="#4AACF1" stop-opacity="0"/>
</linearGradient>
<linearGradient id="paint95_linear_187_2093" x1="163.213" y1="62.2571" x2="164.64" y2="63.3324" gradientUnits="userSpaceOnUse">
<stop stop-color="#4AACF1"/>
<stop offset="1" stop-color="#4AACF1" stop-opacity="0"/>
</linearGradient>
<linearGradient id="paint96_linear_187_2093" x1="164.885" y1="61.5425" x2="166.161" y2="62.504" gradientUnits="userSpaceOnUse">
<stop stop-color="#4AACF1"/>
<stop offset="1" stop-color="#4AACF1" stop-opacity="0"/>
</linearGradient>
<linearGradient id="paint97_linear_187_2093" x1="166.577" y1="60.8933" x2="167.764" y2="61.7878" gradientUnits="userSpaceOnUse">
<stop stop-color="#4AACF1"/>
<stop offset="1" stop-color="#4AACF1" stop-opacity="0"/>
</linearGradient>
<linearGradient id="paint98_linear_187_2093" x1="168.226" y1="60.2201" x2="169.296" y2="61.0263" gradientUnits="userSpaceOnUse">
<stop stop-color="#4AACF1"/>
<stop offset="1" stop-color="#4AACF1" stop-opacity="0"/>
</linearGradient>
<linearGradient id="paint99_linear_187_2093" x1="169.893" y1="59.6056" x2="170.878" y2="60.3481" gradientUnits="userSpaceOnUse">
<stop stop-color="#4AACF1"/>
<stop offset="1" stop-color="#4AACF1" stop-opacity="0"/>
</linearGradient>
<linearGradient id="paint100_linear_187_2093" x1="171.59" y1="58.9045" x2="172.512" y2="59.5993" gradientUnits="userSpaceOnUse">
<stop stop-color="#4AACF1"/>
<stop offset="1" stop-color="#4AACF1" stop-opacity="0"/>
</linearGradient>
<linearGradient id="paint101_linear_187_2093" x1="173.322" y1="58.2816" x2="174.133" y2="58.8933" gradientUnits="userSpaceOnUse">
<stop stop-color="#4AACF1"/>
<stop offset="1" stop-color="#4AACF1" stop-opacity="0"/>
</linearGradient>
</defs>
</svg>
