<svg width="391.790283" height="391.851074" viewBox="0 0 391.79 391.851" fill="none" xmlns="http://www.w3.org/2000/svg" xmlns:xlink="http://www.w3.org/1999/xlink">
	<defs>
		<linearGradient id="paint_linear_262_372_0" x1="200.336090" y1="41.614258" x2="200.336090" y2="350.505707" gradientUnits="userSpaceOnUse">
			<stop stop-color="#BA68C8"/>
			<stop offset="0.000100" stop-color="#C35CFC"/>
			<stop offset="1.000000" stop-color="#C35CFC" stop-opacity="0.000000"/>
		</linearGradient>
		<linearGradient id="paint_linear_262_373_0" x1="199.835175" y1="30.572754" x2="199.835175" y2="361.528015" gradientUnits="userSpaceOnUse">
			<stop stop-color="#BA68C8"/>
			<stop offset="0.000100" stop-color="#C35CFC"/>
			<stop offset="1.000000" stop-color="#C35CFC" stop-opacity="0.000000"/>
		</linearGradient>
		<linearGradient id="paint_linear_262_374_0" x1="197.175888" y1="17.094238" x2="197.175888" y2="374.745972" gradientUnits="userSpaceOnUse">
			<stop stop-color="#BA68C8"/>
			<stop offset="0.000100" stop-color="#C35CFC"/>
			<stop offset="1.000000" stop-color="#C35CFC" stop-opacity="0.000000"/>
		</linearGradient>
		<linearGradient id="paint_linear_262_375_0" x1="195.895111" y1="0.000000" x2="195.895111" y2="391.850952" gradientUnits="userSpaceOnUse">
			<stop stop-color="#BA68C8"/>
			<stop offset="0.000100" stop-color="#C35CFC"/>
			<stop offset="1.000000" stop-color="#C35CFC" stop-opacity="0.000000"/>
		</linearGradient>
		<linearGradient id="paint_linear_262_377_0" x1="197.267990" y1="54.440918" x2="197.267990" y2="337.076630" gradientUnits="userSpaceOnUse">
			<stop stop-color="#BA68C8"/>
			<stop offset="0.000100" stop-color="#C35CFC"/>
			<stop offset="1.000000" stop-color="#C35CFC" stop-opacity="0.000000"/>
		</linearGradient>
		<linearGradient id="paint_linear_262_379_0" x1="197.856613" y1="67.838867" x2="197.856613" y2="326.273468" gradientUnits="userSpaceOnUse">
			<stop stop-color="#BA68C8"/>
			<stop offset="0.000100" stop-color="#C35CFC"/>
			<stop offset="1.000000" stop-color="#C35CFC" stop-opacity="0.000000"/>
		</linearGradient>
		<linearGradient id="paint_linear_262_383_0" x1="196.430954" y1="138.554199" x2="196.430954" y2="337.176575" gradientUnits="userSpaceOnUse">
			<stop stop-color="#BA68C8"/>
			<stop offset="0.000100" stop-color="#C35CFC"/>
			<stop offset="1.000000" stop-color="#C35CFC" stop-opacity="0.000000"/>
		</linearGradient>
	</defs>
	<g opacity="0.500000">
		<path id="Vector" d="M197.316 350.476C160.911 349.764 125.93 336.208 98.5483 312.204C71.1669 288.2 53.1471 255.291 47.671 219.288C42.1949 183.285 49.615 146.505 68.6206 115.443C87.6263 84.3809 116.995 61.0352 151.541 49.5278C172.885 42.4175 195.525 40.0581 217.876 42.6138C240.228 45.1694 261.751 52.5791 280.94 64.3237C300.13 76.0684 316.521 91.8647 328.969 110.608C341.416 129.351 349.618 150.587 353.001 172.832C356.385 195.077 354.868 217.792 348.556 239.389C342.245 260.986 331.291 280.943 316.462 297.864C301.633 314.784 283.287 328.26 262.706 337.348C242.126 346.436 219.808 350.917 197.316 350.476ZM197.316 46.1079C163.711 46.1367 131.084 57.4258 104.645 78.1724C78.2065 98.9189 59.48 127.927 51.4551 160.565C43.4302 193.203 46.5698 227.589 60.3729 258.233C74.176 288.877 97.8464 314.012 127.605 329.626C147.804 340.224 170.148 346.085 192.947 346.768C215.746 347.451 238.401 342.937 259.198 333.566C279.994 324.196 298.385 310.216 312.98 292.685C327.575 275.154 337.99 254.531 343.437 232.378C348.884 210.226 349.219 187.124 344.418 164.823C339.618 142.521 329.806 121.604 315.727 103.657C301.647 85.709 283.669 71.2002 263.154 61.23C242.639 51.2593 220.125 46.0879 197.316 46.1079Z" fill="url(#paint_linear_262_372_0)" fill-opacity="1.000000" fill-rule="nonzero"/>
	</g>
	<g opacity="0.400000">
		<path id="Vector" d="M197.315 361.509C158.185 360.913 120.533 346.463 91.0472 320.727C61.5616 294.991 42.1519 259.635 36.2657 220.939C30.3796 182.244 38.3983 142.714 58.8975 109.372C79.3965 76.0303 111.049 51.0352 148.231 38.8276C171.076 31.3271 195.28 28.8965 219.159 31.7051C243.039 34.5142 266.019 42.4941 286.5 55.0903C306.981 67.6865 324.472 84.5962 337.753 104.642C351.035 124.688 359.789 147.388 363.405 171.162C367.021 194.936 365.413 219.212 358.693 242.301C351.973 265.39 340.302 286.737 324.493 304.855C308.683 322.974 289.116 337.428 267.152 347.212C245.188 356.996 221.356 361.875 197.315 361.509ZM149.334 41.5854C108.506 54.4277 74.4332 82.9355 54.5845 120.861C34.7357 158.787 30.7301 203.035 43.4454 243.909C52.9874 274.363 71.3424 301.304 96.1902 321.326C121.038 341.348 151.263 353.554 183.045 356.399C214.827 359.244 246.739 352.602 274.747 337.311C302.755 322.021 325.602 298.768 340.4 270.494C355.198 242.219 361.283 210.191 357.885 178.458C354.487 146.726 341.759 116.713 321.31 92.2144C300.861 67.7153 273.609 49.8296 242.998 40.8179C212.388 31.8062 179.793 32.0732 149.334 41.5854Z" fill="url(#paint_linear_262_373_0)" fill-opacity="1.000000" fill-rule="nonzero"/>
	</g>
	<g opacity="0.200000">
		<path id="Vector" d="M197.315 374.746C154.604 374.68 113.326 359.333 80.9417 331.48C48.5576 303.627 27.205 265.106 20.7434 222.88C14.2819 180.653 23.1378 137.508 45.7104 101.243C68.2831 64.9785 103.083 37.9863 143.819 25.147C168.39 17.5117 194.319 15.27 219.836 18.5757C245.352 21.8809 269.855 30.6553 291.67 44.2993C313.485 57.9434 332.099 76.1357 346.24 97.6338C360.382 119.132 369.718 143.43 373.61 168.867C377.502 194.304 375.86 220.282 368.795 245.026C361.729 269.771 349.407 292.698 332.671 312.244C315.934 331.789 295.177 347.491 271.817 358.278C248.457 369.064 223.045 374.682 197.315 374.746ZM197.315 20.624C160.388 20.6318 124.407 32.3047 94.5059 53.9771C64.6046 75.6494 42.3114 106.214 30.8073 141.309C19.3031 176.404 19.1758 214.236 30.4434 249.408C41.7111 284.58 63.7981 315.293 93.5527 337.167C123.307 359.04 159.209 370.955 196.136 371.212C233.062 371.468 269.126 360.053 299.182 338.596C329.237 317.138 351.749 286.734 363.504 251.723C375.26 216.711 375.658 178.88 364.642 143.629C353.575 107.922 331.351 76.7051 301.233 54.5654C271.116 32.4253 234.693 20.5293 197.315 20.624Z" fill="url(#paint_linear_262_374_0)" fill-opacity="1.000000" fill-rule="nonzero"/>
	</g>
	<g opacity="0.100000">
		<path id="Vector" d="M197.316 391.846C150.236 392.187 104.609 375.559 68.7853 345.005C32.9617 314.451 9.3385 272.016 2.23987 225.466C-4.85864 178.917 5.04236 131.367 30.1304 91.5215C55.2185 51.6758 93.8154 22.2002 138.856 8.48926C165.741 0.305176 194.072 -1.99756 221.925 1.7373C249.779 5.47217 276.503 15.1572 300.283 30.1348C324.063 45.1123 344.343 65.0317 359.746 88.541C375.149 112.051 385.314 138.599 389.551 166.385C393.788 194.171 391.998 222.543 384.303 249.576C376.607 276.608 363.187 301.669 344.952 323.055C326.717 344.442 304.095 361.654 278.621 373.524C253.147 385.394 225.418 391.642 197.316 391.846ZM139.739 12.2402C97.2628 25.5166 60.7035 53.1118 36.2889 90.3242C11.8744 127.537 1.11487 172.064 5.84363 216.32C10.5724 260.577 30.4968 301.825 62.2224 333.037C93.948 364.249 135.512 383.494 179.834 387.493C224.155 391.493 268.492 380 305.292 354.971C342.091 329.943 369.075 292.928 381.648 250.233C394.221 207.538 391.604 161.803 374.244 120.821C356.883 79.8389 325.853 46.1445 286.439 25.4785C264.077 13.6777 239.596 6.43164 214.415 4.15918C189.233 1.88672 163.851 4.6333 139.739 12.2402Z" fill="url(#paint_linear_262_375_0)" fill-opacity="1.000000" fill-rule="nonzero"/>
	</g>
	<path id="Vector" d="M155.07 60.8901C181.741 52.543 210.287 52.293 237.1 60.1724C263.913 68.0518 287.787 83.7065 305.704 105.157C323.621 126.607 334.776 152.89 337.757 180.681C340.739 208.472 335.414 236.523 322.455 261.288C309.497 286.052 289.487 306.416 264.956 319.806C240.425 333.195 212.475 339.009 184.641 336.511C156.806 334.013 130.338 323.316 108.582 305.772C86.8262 288.229 70.7606 264.627 62.4169 237.951C51.2291 202.183 54.7053 163.435 72.0808 130.23C89.4564 97.0249 119.308 72.083 155.07 60.8901Z" fill="url(#paint_linear_262_377_0)" fill-opacity="1.000000" fill-rule="nonzero"/>
	<g opacity="0.200000">
		<path id="Vector" d="M155.07 60.8901C181.741 52.543 210.287 52.293 237.1 60.1724C263.913 68.0518 287.787 83.7065 305.704 105.157C323.621 126.607 334.776 152.89 337.757 180.681C340.739 208.472 335.414 236.523 322.455 261.288C309.497 286.052 289.487 306.416 264.956 319.806C240.425 333.195 212.475 339.009 184.641 336.511C156.806 334.013 130.338 323.316 108.582 305.772C86.8262 288.229 70.7606 264.627 62.4169 237.951C51.2291 202.183 54.7053 163.435 72.0808 130.23C89.4564 97.0249 119.308 72.083 155.07 60.8901Z" fill="#FFFFFF" fill-opacity="1.000000" fill-rule="nonzero"/>
	</g>
	<path id="Vector" d="M69.1458 141.862C69.1458 141.862 69.6973 139.215 69.1458 138.663C68.5942 138.112 68.4839 138.663 68.0426 138.663L67.05 141.09C67.05 141.09 67.0499 141.862 67.822 142.304C68.5941 142.745 69.0354 142.193 69.1458 141.862ZM171.726 255.932C169.961 255.932 167.203 253.725 165.439 254.387L164.887 254.387C163.122 255.049 159.703 253.725 157.718 253.725L156.394 253.725C154.017 253.668 151.759 252.677 150.107 250.967C148.849 249.436 147.157 248.32 145.253 247.768C142.937 247.768 140.952 249.864 138.525 248.43C137.56 247.753 136.474 247.266 135.326 246.996C134.127 246.847 132.967 246.473 131.907 245.893C130.363 244.9 129.811 245.893 128.488 245.893C127.164 245.893 127.274 245.893 126.392 245.893C125.35 246.327 124.281 246.695 123.193 246.996C122.311 246.996 121.87 246.996 120.987 246.996C119.983 246.814 118.947 247.006 118.074 247.534C117.201 248.062 116.55 248.891 116.244 249.864C116.305 250.783 116.305 251.704 116.244 252.622C115.693 254.167 113.156 253.946 111.612 253.725C110.392 253.528 109.227 253.077 108.192 252.401C106.979 251.519 106.207 251.409 105.766 249.975C105.324 248.541 105.104 247.437 104.001 246.775C103.548 246.581 103.06 246.481 102.567 246.481C102.074 246.481 101.586 246.581 101.133 246.775C100.418 247.161 99.6276 247.386 98.8168 247.437C98.3533 247.308 97.9337 247.055 97.6033 246.705C97.2729 246.355 97.0441 245.921 96.9415 245.451C96.9415 245.451 96.9415 244.348 96.9415 243.797C96.995 243.468 96.995 243.133 96.9415 242.804L96.9415 242.032C96.9415 240.598 96.9417 240.046 95.8386 239.936C95.4465 239.977 95.0667 240.095 94.7207 240.284C94.3749 240.473 94.0698 240.729 93.8236 241.037C93.5774 241.345 93.3948 241.699 93.2863 242.078C93.1777 242.457 93.1454 242.854 93.1913 243.245C93.1913 244.9 91.3162 246.665 89.5514 246.555C86.132 246.555 82.6024 241.149 82.1611 237.067C82.0858 235.981 82.2548 234.893 82.6556 233.881C83.0565 232.869 83.6791 231.96 84.4775 231.22C85.8796 230.788 87.3203 230.492 88.7793 230.338C89.4412 230.338 88.7793 229.786 88.7793 229.345C88.7793 228.904 89.8822 228.242 90.7646 227.801C91.5392 227.429 92.3875 227.236 93.2465 227.236C94.1056 227.236 94.9536 227.429 95.7281 227.801C96.4073 228.449 97.0344 229.15 97.6035 229.896C98.9271 231.331 101.574 231.551 100.471 229.896C99.3682 228.242 98.5961 227.58 97.824 226.366C97.302 225.44 97.0278 224.396 97.0278 223.333C97.0278 222.27 97.302 221.225 97.824 220.299C98.4033 219.456 98.9194 218.571 99.3682 217.651C99.5973 216.784 99.5973 215.871 99.3682 215.003C99.3682 214.011 98.0446 213.349 97.824 212.135C97.6029 211.341 97.6029 210.502 97.824 209.708C97.9495 208.384 98.4465 207.122 99.2579 206.068C100.03 205.185 101.795 204.744 101.905 203.199C101.573 201.971 101.573 200.677 101.905 199.449C102.366 198.554 102.961 197.735 103.67 197.021C104.663 195.808 104.883 198.456 106.427 197.684C107.891 196.623 109.16 195.316 110.178 193.822C111.281 192.278 111.281 190.182 110.178 189.851C109.075 189.52 109.185 192.94 107.531 193.161L109.075 193.161C107.42 193.161 106.869 190.402 106.648 190.623C106.427 190.844 106.648 190.623 106.648 189.961C106.648 189.299 106.648 186.873 105.214 188.086L104.442 188.748C103.229 190.072 102.677 188.748 103.891 187.534C106.071 185.596 108.478 183.929 111.06 182.57C112.604 181.577 113.487 182.57 113.156 184.335C112.825 186.1 113.156 187.865 114.038 187.645C114.921 187.424 117.347 185.99 117.568 186.652C117.789 187.313 117.568 187.424 118.34 186.652C119.112 185.879 120.325 186.652 120.656 185.438C120.669 185.121 120.606 184.805 120.472 184.517C120.337 184.229 120.136 183.978 119.884 183.783C119.112 183.122 118.119 181.688 117.127 182.019C116.134 182.349 115.141 179.922 114.921 177.716L114.921 177.054C114.921 174.958 111.722 174.186 110.178 173.524C105.545 171.538 106.758 170.987 103.67 167.125C102.567 165.691 101.243 166.463 100.361 168.339C99.4785 170.214 99.3683 170.104 98.8168 170.214C98.2653 170.325 96.8313 165.912 95.8386 165.801C94.8458 165.691 94.515 165.802 93.9635 165.14C93.5048 164.547 92.8325 164.158 92.0905 164.055C91.3484 163.952 90.5955 164.143 89.9927 164.588C89.3411 165.263 88.8765 166.096 88.6443 167.005C88.4122 167.915 88.4207 168.868 88.6689 169.773C88.6689 171.317 88.6691 174.075 89.3308 174.958C90.0217 175.662 90.5405 176.516 90.8467 177.454C91.1528 178.392 91.2379 179.388 91.0956 180.364C91.0956 181.577 89.9926 182.68 89.772 183.783C89.5514 184.887 91.3162 188.086 90.9854 189.299C90.6544 190.513 90.3236 190.402 89.6617 190.292C88.5208 189.947 87.542 189.203 86.9042 188.196C85.9115 185.879 86.9042 184.225 84.257 184.335C81.3512 184.62 78.418 184.282 75.6534 183.342C74.4402 183.342 74.2195 181.798 73.5577 180.584C72.8959 179.371 71.5724 179.26 72.5651 176.833C73.5337 175.358 74.2078 173.71 74.5504 171.979C74.5504 170.104 73.0062 170.435 73.5577 168.78C74.1093 167.125 76.7563 166.794 77.6388 165.912C78.2145 165.482 78.6082 164.853 78.7419 164.147C78.7419 162.823 77.8595 163.043 77.5286 162.492C77.1976 161.94 77.5286 162.492 77.5286 161.94C77.9828 161.722 78.3938 161.423 78.7419 161.058C78.8259 160.732 78.8259 160.391 78.7419 160.065C78.7419 160.065 78.7419 159.403 78.7419 158.962L79.514 158.189C80.1649 157.889 80.7327 157.435 81.1686 156.866C82.0184 155.939 82.5916 154.792 82.823 153.556C82.9961 152.756 82.9961 151.929 82.823 151.129C82.823 151.129 82.0509 151.129 81.8303 150.247C81.6097 149.364 83.7054 147.158 84.4775 146.716C85.2498 146.275 86.7938 145.282 87.0145 147.599C87.2351 149.916 87.566 151.129 88.4485 149.364C89.3308 147.599 89.1102 147.93 89.772 148.481C90.0869 148.662 90.3523 148.918 90.5447 149.226C90.7371 149.534 90.8506 149.884 90.8751 150.247C90.9069 150.631 90.8541 151.018 90.7207 151.38C90.5874 151.742 90.3765 152.071 90.1029 152.343C89.441 153.225 89.441 156.645 88.2278 157.307L87.566 157.307C86.3527 157.969 87.566 161.168 88.4485 160.175C89.0397 159.691 89.7802 159.427 90.5442 159.427C91.3082 159.427 92.0485 159.691 92.6398 160.175C94.0894 161.323 95.8663 161.979 97.7137 162.051C99.1476 162.051 97.7137 158.741 97.7137 158.189L98.927 157.417C98.927 157.417 98.927 155.542 98.927 155.321C98.7823 154.797 98.473 154.333 98.0446 153.998C97.1622 153.446 96.2798 153.998 95.6179 152.453C94.9562 150.909 95.618 149.585 96.7211 149.805C97.824 150.026 97.493 149.806 97.824 150.909C98.1548 152.012 99.3682 151.901 99.5887 151.57C99.6646 151.356 99.6646 151.123 99.5887 150.909C99.5887 150.247 99.5887 149.584 99.5887 148.923C99.5887 148.261 100.692 147.82 101.023 146.716C101.117 146.554 101.168 146.37 101.172 146.183C101.175 145.995 101.13 145.809 101.042 145.644C100.954 145.478 100.824 145.337 100.667 145.235C100.509 145.134 100.328 145.074 100.14 145.062C98.8168 145.062 97.493 144.51 96.2798 144.069L95.5077 144.069C95.5077 144.069 94.7356 142.855 94.6252 141.973C94.6781 141.496 94.6781 141.015 94.6252 140.539C94.6252 139.877 93.8531 139.656 93.412 139.325C92.9325 139.002 92.4135 138.743 91.8678 138.553C90.875 138.553 89.1102 138.553 88.1176 137.891C87.1249 137.229 86.463 135.795 85.4702 136.236C85.4702 136.236 85.4703 136.236 84.8085 136.236C84.1467 136.236 84.0364 136.236 83.5952 136.236C83.1377 136.137 82.661 136.179 82.2278 136.356C81.7947 136.534 81.4254 136.838 81.1686 137.229L80.2861 138.222C79.6471 138.597 78.9839 138.928 78.3008 139.215C77.4131 140.001 76.6669 140.934 76.0946 141.973C75.6274 142.679 75.2913 143.464 75.1019 144.29C75.1019 145.503 75.1019 147.378 75.1019 147.378C76.0591 147.165 76.9856 146.831 77.8595 146.386C78.6316 146.386 80.5066 145.503 80.3964 147.599C80.286 149.695 78.5212 149.254 78.8522 151.019C78.9774 151.601 78.9774 152.202 78.8522 152.784C78.6821 153.442 78.4224 154.073 78.0801 154.659C77.8516 155.175 77.5548 155.657 77.1976 156.094C77.1976 156.645 75.9843 156.755 75.7637 156.094C75.5431 155.432 75.7637 154.77 75.7637 153.998C75.7637 153.225 75.7638 153.225 74.9917 153.115L75.9844 153.115C75.7944 153.204 75.5874 153.25 75.3778 153.25C75.1681 153.25 74.9609 153.204 74.771 153.115C74.5892 153.154 74.4012 153.154 74.2195 153.115C74.2195 153.115 73.5576 152.343 73.337 151.901C73.1245 151.414 73.0148 150.889 73.0148 150.357C73.0148 149.826 73.1245 149.3 73.337 148.812C73.6088 148.539 73.7997 148.195 73.8885 147.82C74.3031 146.958 74.6713 146.074 74.9917 145.172C74.9917 143.187 74.9917 141.421 74.1093 141.973C73.2865 142.503 72.5988 143.218 72.1008 144.061C71.603 144.903 71.3088 145.85 71.2415 146.827C71.3374 148.112 71.3374 149.403 71.2415 150.688C71.2415 151.901 70.2487 152.894 69.9177 154.108C69.8099 155.135 69.8099 156.17 69.9177 157.197C69.9177 158.3 69.9177 158.079 69.0353 158.631C68.153 159.183 69.0354 161.94 67.9324 163.264C67.5844 163.629 67.1733 163.928 66.7191 164.147C66.0994 164.566 65.3713 164.796 64.6233 164.809C64.6233 164.809 65.2852 163.706 65.5057 163.375C66.4028 161.926 66.7546 160.205 66.4984 158.521C66.4984 157.749 65.5057 158.521 65.0645 157.858C64.603 157.566 64.2273 157.158 63.9753 156.673C63.7235 156.188 63.6046 155.646 63.6307 155.101C62.5277 158.741 61.5348 162.382 60.7627 166.132L61.4246 166.132C61.4246 166.132 61.4246 166.905 61.4246 167.566C61.4246 168.229 61.4246 168.449 61.4246 168.78C61.4246 169.111 61.4247 171.869 60.3217 171.648C59.2186 171.428 60.3217 171.648 59.6598 171.648C58.6168 177.779 57.9537 183.969 57.6743 190.182C56.9816 206.297 59.033 222.412 63.741 237.839C63.741 237.839 64.4027 237.839 64.9542 237.839C65.5057 237.839 68.0426 241.149 69.5869 241.811C72.3918 242.9 74.9445 244.552 77.0874 246.665C78.3506 248.399 80.016 249.8 81.9406 250.747C85.2511 251.734 88.7778 251.734 92.0884 250.747C94.9562 249.533 99.5889 253.726 101.905 251.409C101.905 251.409 104.442 253.063 104.773 253.284C105.925 254.156 107.236 254.793 108.634 255.16C110.139 255.267 111.65 255.267 113.156 255.16C115.913 255.16 119.222 255.932 119.774 259.793C120.325 263.654 119.774 264.537 119.774 266.963C119.633 268.187 119.747 269.425 120.108 270.603C120.468 271.779 121.068 272.869 121.87 273.803C123.745 275.568 126.061 276.671 127.936 278.437C129.811 280.202 130.142 283.07 132.128 285.056C134.113 287.042 136.871 287.373 140.18 287.703C142.62 287.945 144.909 288.993 146.687 290.682C150.974 294.582 154.855 298.906 158.269 303.589C162.218 309.681 166.843 315.307 172.057 320.358C174.695 322.725 177.716 324.627 180.991 325.984C183.087 326.756 184.852 325.984 184.079 323.667C183.307 321.351 181.873 321.13 180.881 319.806C179.888 318.482 180.109 317.158 179.667 315.614C179.226 314.069 177.682 312.746 178.234 311.532C178.785 310.319 180.329 310.539 180.44 309.105C180.55 307.671 178.454 306.899 177.792 305.686C177.13 304.472 179.447 303.81 179.778 302.376C180.109 300.941 179.778 300.61 179.778 299.728C179.778 298.846 179.778 298.846 180.44 298.184C180.715 297.061 180.715 295.887 180.44 294.764C180.44 292.778 177.903 291.234 178.123 289.358C178.528 287.711 179.457 286.24 180.77 285.166C181.653 284.284 182.315 284.063 182.535 282.519C182.711 280.695 182.366 278.859 181.543 277.223C180.881 276.23 181.542 275.017 180.55 274.245C179.411 272.74 178.517 271.064 177.903 269.28C176.91 265.971 179.116 262.882 177.903 259.352C177.372 258.197 176.487 257.243 175.375 256.627C174.264 256.012 172.985 255.769 171.726 255.932ZM79.183 203.31C80.1758 201.545 81.7201 198.015 83.2643 198.346C84.0648 198.654 84.7825 199.145 85.36 199.78C86.5734 200.993 88.8896 200.883 90.3235 201.104C91.7574 201.324 90.3235 203.089 90.3235 204.413C90.3235 205.737 89.6616 206.399 89.5514 205.737C89.441 205.075 89.5514 204.965 88.7793 205.737C88.0072 206.509 88.1176 205.737 88.1176 204.854C88.1176 203.972 85.8011 203.641 85.8011 205.737C85.7466 206.287 85.7466 206.841 85.8011 207.392C85.8011 209.488 84.1466 209.929 83.926 207.943C83.7054 205.958 83.926 207.392 83.926 207.171C83.926 205.075 82.6025 202.979 81.0582 203.53C79.514 204.082 78.08 205.075 79.183 203.31ZM64.182 240.156C64.182 240.156 64.182 240.156 64.182 239.604C64.182 239.053 63.1895 239.604 62.5276 238.833L64.182 243.687L66.6086 244.79C67.3807 244.79 69.0353 246.775 69.6971 246.444C70.3589 246.113 68.5941 243.907 68.153 243.576C67.7117 243.245 64.182 240.156 64.182 240.156ZM66.4984 153.667C68.153 153.667 69.3663 151.791 69.8075 150.026C70.2488 148.261 68.2633 148.371 68.925 147.378C69.5869 146.385 69.8075 145.944 68.925 145.724C68.925 145.724 67.9323 145.724 66.6086 147.268C65.285 148.812 65.5057 150.247 64.6233 151.019C63.741 151.791 64.9542 153.556 66.4984 153.667ZM71.2415 137.008C71.8983 137.124 72.5701 137.124 73.2268 137.008L74.1093 137.008C74.9917 137.008 74.1091 139.656 74.8812 140.097C75.6534 140.539 76.0946 140.097 76.6461 140.097C78.1343 139.79 79.4862 139.017 80.5067 137.891C81.629 136.938 82.8076 136.054 84.0363 135.244C84.5304 135.003 84.9174 134.588 85.1213 134.078C85.3253 133.568 85.3318 133 85.1394 132.485C85.1394 131.493 83.926 131.824 83.0436 132.485C82.1613 133.147 80.3964 134.582 80.0654 134.802C79.7345 135.022 79.514 134.802 79.514 134.802C79.514 134.802 81.0582 133.037 81.3892 132.816L83.0436 131.272L85.4702 129.286L86.3527 128.403C86.7345 127.963 87.0674 127.482 87.3453 126.97C87.3453 125.756 87.3453 125.425 87.3453 124.432C87.7137 123.637 88.2389 122.924 88.8895 122.336L90.5442 120.24C91.4266 118.696 90.5441 117.482 91.4264 115.827C91.6964 114.958 92.1062 114.138 92.6398 113.4C93.4119 112.297 94.5149 110.973 95.0664 110.091L96.0592 108.546C96.4767 107.932 96.8104 107.264 97.0519 106.561C97.088 106.046 97.088 105.53 97.0519 105.016C97.2227 104.621 97.4451 104.25 97.7137 103.913C98.6273 102.899 99.2051 101.627 99.3682 100.272C99.3682 98.6177 98.4857 99.3896 98.1548 99.1694C97.824 98.9487 96.8313 99.1694 96.0592 99.1694C94.2283 100.323 92.4608 101.576 90.7646 102.92C88.5586 105.458 86.4629 107.995 84.3672 110.753C82.2715 113.511 80.9479 115.386 79.4037 117.813L80.9479 117.813C82.2715 117.813 83.8158 115.717 85.1394 114.614C86.463 113.511 87.5659 112.518 88.0071 113.069C88.4484 113.621 86.5732 116.048 86.1321 116.489C85.7673 116.837 85.4684 117.249 85.2496 117.703C85.2496 118.695 84.3672 120.13 83.4847 119.909C83.0139 119.792 82.5217 119.792 82.0509 119.909C82.0509 119.909 81.389 119.909 81.2788 120.681C81.1685 121.454 80.1758 123.219 79.6243 122.446C79.0728 121.674 79.6243 121.233 78.7419 121.233C77.8595 121.233 77.8595 121.233 77.5286 121.233C75.9844 123.66 74.5505 126.197 73.1166 128.734L73.8885 128.734C74.7502 129.005 75.6743 129.005 76.5359 128.734L77.8595 127.962C78.411 127.962 79.4038 126.197 79.845 126.197C80.2861 126.197 79.845 127.852 79.845 128.734C79.3234 130.189 78.5381 131.536 77.5286 132.706C77.0681 133.361 76.478 133.914 75.795 134.332C75.1119 134.749 74.3505 135.022 73.5577 135.133C73.5577 135.133 71.2413 135.133 70.8002 136.236C70.359 137.339 70.8003 136.788 71.2415 137.008ZM155.512 84.7178C156.027 84.9463 156.509 85.2432 156.945 85.6001L158.71 86.2622L160.696 86.2622C160.696 86.2622 160.696 86.9238 161.799 87.0342L163.233 87.0342C164.005 87.0342 165.328 87.0342 165.218 86.2622C165.319 85.7896 165.319 85.3003 165.218 84.8276C164.913 84.082 164.692 83.3052 164.556 82.5112C164.556 82.5112 164.556 81.8491 165.549 81.9595L166.762 81.9595C166.762 81.9595 166.762 81.9595 166.762 82.5112C167.383 82.6182 168.017 82.6182 168.637 82.5112L169.299 82.5112C169.299 82.5112 169.299 81.5181 169.299 81.4082C168.308 81.4844 167.312 81.4844 166.321 81.4082C165.677 81.1865 165.08 80.8501 164.556 80.415C163.453 79.6431 164.556 79.0913 164.556 78.8706L166.1 78.209C166.872 78.209 167.645 76.8848 167.645 76.3335C167.717 76.1587 167.755 75.9712 167.755 75.7817C167.755 75.5923 167.717 75.4048 167.645 75.23C167.289 75.0371 166.891 74.936 166.486 74.936C166.082 74.936 165.684 75.0371 165.328 75.23L162.791 76.2231C162.388 76.2725 161.981 76.2725 161.578 76.2231L160.585 76.2231L159.372 77.3262C159.219 77.6187 159 77.8711 158.732 78.0625C158.464 78.2544 158.154 78.3799 157.828 78.4292C157.828 78.4292 156.835 78.4292 156.945 79.0913C157.056 79.7529 158.159 79.9736 158.49 80.6357C158.82 81.2974 158.49 80.6357 157.718 80.6357C156.945 80.6357 157.056 79.8633 156.615 79.6431C156.173 79.4224 155.953 79.6431 155.953 79.6431C155.953 79.6431 155.953 80.5254 155.401 80.3047C154.85 80.084 154.739 80.3047 154.298 80.3047C153.857 80.3047 152.202 81.4077 153.195 82.4009C153.731 83.3779 154.534 84.1821 155.512 84.7178ZM168.637 154.438C168.477 154.941 168.477 155.481 168.637 155.983C169.52 157.086 170.733 155.983 171.395 155.321C171.811 154.903 172.134 154.402 172.343 153.851C172.552 153.3 172.642 152.711 172.608 152.122C172.479 151.266 172.049 150.483 171.395 149.916C171.395 149.916 169.409 148.481 168.858 149.254C168.306 150.026 168.858 149.916 168.858 150.247C168.858 150.578 167.865 150.247 167.534 150.798C167.203 151.35 167.534 152.453 168.196 153.005C168.506 153.417 168.662 153.924 168.637 154.438ZM217.17 89.5718C217.867 89.6343 218.568 89.6343 219.266 89.5718C219.685 89.6382 220.115 89.603 220.518 89.4683C220.921 89.334 221.286 89.1045 221.582 88.7993C221.582 88.7993 221.582 87.5859 220.479 87.0342L219.817 87.0342C219.255 86.3779 218.808 85.6323 218.493 84.8276C218.446 84.3511 218.446 83.8706 218.493 83.3936C218.466 82.3262 218.693 81.2671 219.155 80.3047C219.966 78.854 220.968 77.5186 222.133 76.3335L223.898 74.6787L225.112 73.7959L225.994 73.1343C226.111 72.9854 226.188 72.8086 226.216 72.6216C226.245 72.4341 226.226 72.2427 226.159 72.0654C226.093 71.8882 225.982 71.731 225.837 71.6089C225.692 71.4868 225.518 71.4043 225.332 71.3691C225.176 71.2988 225.007 71.2627 224.836 71.2627C224.665 71.2627 224.495 71.2988 224.339 71.3691L221.802 72.9136C219.972 73.4795 218.354 74.5806 217.154 76.0747C215.955 77.5688 215.231 79.3882 215.074 81.2979C214.954 82.7295 214.954 84.1685 215.074 85.6001C215.074 85.6001 215.074 86.5928 215.074 86.8135C215.074 87.0342 215.074 86.8135 215.074 87.5859C215.575 88.4292 216.301 89.1167 217.17 89.5718ZM169.409 143.848C169.409 143.848 169.409 144.73 169.961 145.613C170.512 146.496 171.836 146.496 172.167 147.268C172.498 148.041 173.601 147.268 174.263 147.268C174.925 147.268 175.476 149.475 174.814 150.026C174.152 150.578 174.814 152.012 174.814 152.563C174.814 153.115 174.814 153.225 174.814 153.667C174.814 154.108 175.807 153.005 176.138 153.667C176.469 154.329 175.476 154.77 176.138 155.321C176.8 155.873 177.241 155.321 177.682 155.321C179.631 154.591 181.215 153.125 182.094 151.24C182.094 150.578 182.756 148.702 182.094 148.371L180.991 148.371C180.502 148.065 180.057 147.694 179.667 147.268C179.099 146.589 178.471 145.962 177.792 145.393C176.8 144.51 175.035 144.51 174.704 142.855C174.373 141.201 174.704 141.532 174.704 141.09C174.567 141.022 174.416 140.987 174.263 140.987C174.11 140.987 173.958 141.022 173.821 141.09C173.821 141.09 172.167 140.428 172.057 139.987C171.946 139.546 169.409 139.987 169.961 141.09C170.512 142.193 168.086 143.297 169.409 143.848ZM321.404 128.293C321.039 127.537 320.634 126.801 320.191 126.087C305.722 100.626 283.719 80.2764 257.209 67.8389L256.437 67.8389C255.117 68.2671 253.828 68.7832 252.576 69.3833C252.154 69.7139 251.808 70.1309 251.56 70.6069C251.313 71.0825 251.171 71.606 251.143 72.1411C251.271 72.7598 251.271 73.3979 251.143 74.0166C250.606 74.5752 249.915 74.9595 249.157 75.1196C248.606 75.1196 247.613 75.1196 248.054 76.4438C248.495 77.7676 250.37 77.8779 251.032 78.5396C251.694 79.2017 249.819 79.312 249.047 79.2017C248.208 79.0459 247.349 79.0459 246.51 79.2017C246.51 79.2017 244.966 79.2017 245.076 79.8638C245.186 80.5254 245.958 80.8564 246.4 81.2979C246.841 81.7388 247.172 82.0698 246.4 82.2905L244.855 83.2832C244.086 83.7837 243.223 84.1216 242.318 84.2764C240.933 84.0859 239.671 83.376 238.789 82.2905C238.127 82.2905 237.906 81.2979 237.024 81.0771C236.445 80.9277 235.838 80.9277 235.259 81.0771C234.046 81.0771 234.267 82.5112 235.259 83.5039C236.252 84.4971 235.259 85.269 235.259 86.2622C236.095 87.1333 237.112 87.811 238.237 88.2476C239.12 88.2476 240.554 89.2407 240.554 90.123C240.554 91.0054 238.679 91.0059 237.355 90.6748L232.171 89.6816C230.726 89.293 229.204 89.293 227.759 89.6816C226.987 89.6816 226.766 90.3438 227.759 90.8955C228.751 91.4468 229.854 91.5571 229.965 92.3296C230.075 93.1016 228.421 93.4326 227.979 93.6533C226.582 94.3843 225.1 94.9399 223.567 95.3081C222.322 95.3833 221.096 95.644 219.927 96.0806L218.714 97.0732C218.258 97.6396 217.989 98.3335 217.942 99.0591C217.969 99.2417 217.969 99.4277 217.942 99.6104L217.391 99.6104C216.98 99.7041 216.551 99.6572 216.171 99.4771C215.791 99.2969 215.482 98.9941 215.295 98.6177C215.295 97.9556 215.295 97.2939 214.081 97.0732C213.339 96.7725 212.508 96.7725 211.765 97.0732C211.688 97.2075 211.647 97.3599 211.647 97.5146C211.647 97.6694 211.688 97.8218 211.765 97.9556C211.765 97.9556 212.647 99.8311 212.868 100.824C213.04 101.4 213.04 102.013 212.868 102.589C212.868 102.589 212.206 103.251 211.875 103.582C211.462 104.079 211.229 104.701 211.214 105.347C211.214 106.561 211.214 107.774 209.89 108.436C209.353 108.746 208.745 108.909 208.125 108.909C207.505 108.909 206.897 108.746 206.36 108.436C205.232 107.88 204.161 107.215 203.161 106.45C201.617 105.347 204.044 105.347 204.596 105.237L207.243 104.685L209.338 104.023C209.89 104.023 210.772 103.251 210.441 102.369C210.111 101.486 204.816 99.6104 203.492 99.3901L201.507 99.3901L197.426 98.8384L195.441 98.8384C194.448 98.8384 194.117 100.604 192.462 98.8384C192.15 98.4463 191.743 98.1396 191.28 97.9468C190.818 97.7539 190.314 97.6812 189.815 97.7349C187.868 97.9204 186.023 98.6895 184.521 99.9414L183.418 101.265C183.078 102.141 182.673 102.989 182.204 103.803C181.884 103.921 181.532 103.921 181.212 103.803C178.895 104.464 178.895 106.781 179.557 109.539C179.557 110.312 179.557 111.194 180.329 111.856L180.329 113.18C180.329 113.842 180.329 115.497 180.329 116.82C180.379 117.628 180.379 118.439 180.329 119.247C180.329 121.564 180.329 123.991 179.557 126.418C179.161 128.243 179.395 130.148 180.219 131.823C181 132.999 182.172 133.859 183.528 134.25C184.178 134.396 184.855 134.372 185.493 134.178C186.131 133.985 186.708 133.63 187.168 133.147C188.712 131.934 189.705 132.485 191.359 134.25C191.938 135.109 192.739 135.795 193.676 136.236C194.11 136.428 194.58 136.527 195.054 136.527C195.529 136.527 195.999 136.428 196.433 136.236C197.205 135.574 197.095 134.471 196.433 133.368C196.223 132.899 196.115 132.392 196.115 131.878C196.115 131.365 196.223 130.858 196.433 130.389C196.557 129.902 196.552 129.391 196.416 128.907C196.281 128.423 196.02 127.983 195.661 127.631C194.558 126.197 192.683 124.653 192.021 123.66C191.687 123.121 191.463 122.521 191.359 121.895C191.305 121.345 191.305 120.791 191.359 120.24C191.573 118.863 191.868 117.5 192.242 116.158C192.419 115.173 192.419 114.165 192.242 113.18C192.192 112.74 192.192 112.296 192.242 111.856C192.408 111.497 192.672 111.193 193.004 110.979C193.336 110.764 193.722 110.647 194.117 110.642C194.542 110.471 195.016 110.471 195.441 110.642C195.761 111.062 195.994 111.542 196.127 112.054C196.259 112.565 196.288 113.098 196.213 113.621C196.213 114.724 195.44 115.276 195.22 116.269C195.211 117.585 195.554 118.88 196.213 120.02C196.535 121.325 197.224 122.512 198.198 123.439C199.522 124.432 200.955 123.439 202.058 123.439L203.492 122.777C204.296 122.644 205.116 122.644 205.919 122.777C205.919 122.777 207.132 123.77 206.802 124.101C206.471 124.432 206.802 124.101 206.14 124.101C205.478 124.101 204.044 124.874 203.051 125.425C202.059 125.977 201.286 126.087 201.617 127.08C201.948 128.073 202.831 128.293 203.382 128.624C203.934 128.955 204.706 129.286 204.816 130.059C204.917 130.162 204.974 130.3 204.974 130.444C204.974 130.589 204.917 130.728 204.816 130.831C204.237 130.98 203.63 130.98 203.051 130.831C203.051 130.831 202.059 130.168 201.838 130.831C201.617 131.493 202.5 133.147 202.72 133.809C203.253 134.787 203.483 135.9 203.382 137.008C203.382 139.215 200.625 139.987 198.86 140.649C197.74 140.94 196.595 141.125 195.441 141.201C194.677 141.365 193.887 141.365 193.124 141.201C191.249 141.201 191.028 137.67 190.036 136.236C189.043 134.802 187.94 136.236 188.05 137.56C188.161 138.884 190.477 141.09 190.477 142.966C190.477 144.841 189.153 144.841 188.381 145.503C187.918 146.063 187.605 146.731 187.47 147.444C187.335 148.158 187.383 148.895 187.609 149.584C187.837 150.302 187.837 151.073 187.609 151.791C187.272 152.703 186.866 153.588 186.396 154.438C186.396 155.211 185.734 155.763 184.962 155.983C184.19 156.204 183.859 155.983 183.638 156.535C183.418 157.086 183.638 157.528 183.638 158.079C182.893 158.439 182.118 158.734 181.322 158.962C181.322 158.962 180.329 159.844 181.322 160.286C182.123 160.443 182.947 160.443 183.749 160.286C184.429 160.508 185.051 160.881 185.567 161.378C186.082 161.875 186.479 162.482 186.727 163.154C187.719 165.029 187.83 166.794 186.065 167.677C184.178 168.261 182.419 169.197 180.881 170.435C179.557 171.759 180.881 174.848 181.432 176.502C181.641 177.234 182.112 177.862 182.756 178.268C183.14 178.762 183.585 179.207 184.079 179.591C184.798 179.812 185.567 179.812 186.286 179.591C186.63 179.425 187.007 179.339 187.389 179.339C187.771 179.339 188.147 179.425 188.491 179.591L186.286 179.591C186.286 179.591 186.286 178.819 187.168 178.488C188.05 178.157 187.719 178.488 188.05 178.488C188.38 178.535 188.714 178.535 189.043 178.488C189.043 178.488 189.043 178.488 189.043 177.826C189.386 177.441 189.635 176.982 189.769 176.484C189.903 175.986 189.919 175.463 189.815 174.958C189.815 174.958 189.815 173.965 189.815 173.414C189.699 172.831 189.699 172.231 189.815 171.648C189.76 171.209 189.76 170.764 189.815 170.325C189.815 169.552 190.587 169.442 191.139 169.001C191.462 168.72 191.696 168.352 191.814 167.941C191.931 167.529 191.927 167.093 191.801 166.684C191.801 165.912 191.801 165.029 191.801 164.478C191.801 163.926 193.014 164.478 193.565 164.478C194.117 164.478 195.11 163.154 195.771 162.382C196.04 162.038 196.383 161.76 196.775 161.568C197.166 161.377 197.597 161.277 198.033 161.277C198.469 161.277 198.899 161.377 199.291 161.568C199.682 161.76 200.026 162.038 200.294 162.382C201.031 163.032 201.846 163.588 202.72 164.037L204.706 164.809L207.243 165.912C208.235 165.912 208.566 167.677 208.677 168.67C208.787 169.663 208.677 169.773 208.677 169.994C208.677 170.214 209.339 169.994 209.449 169.442C209.559 168.891 209.449 167.457 209.449 166.353C209.449 165.25 209.449 165.36 209.449 165.029L210.111 165.029C210.111 165.029 210.111 163.926 209.118 163.706C208.616 163.545 208.076 163.545 207.573 163.706C207.573 163.706 205.809 162.933 205.478 162.712C204.466 162.309 203.504 161.79 202.61 161.168C201.807 160.75 201.153 160.095 200.735 159.293C200.735 158.079 201.507 157.749 202.39 157.969C203.272 158.189 203.382 158.962 203.934 159.403C204.485 159.844 206.691 160.286 208.015 160.506C209.339 160.727 209.228 161.389 209.89 162.161C210.552 162.933 210.993 163.264 211.434 163.926C211.875 164.588 211.434 163.926 212.206 164.809L213.53 165.36C213.969 165.297 214.415 165.297 214.854 165.36C214.854 165.36 214.854 165.36 214.854 166.132C214.854 166.905 214.853 167.897 216.398 168.118C217.942 168.339 216.398 166.574 216.398 165.801C216.524 165.583 216.59 165.336 216.59 165.084C216.59 164.833 216.524 164.585 216.398 164.368C216.398 164.368 215.515 164.367 215.074 163.375C214.633 162.382 215.074 162.161 215.626 161.499C216.177 160.837 216.508 159.734 217.721 160.065C218.935 160.396 218.493 160.065 218.604 161.279C218.714 162.492 219.376 162.382 219.817 163.043C220.258 163.706 220.479 164.368 221.03 164.698C221.652 165.209 222.396 165.548 223.189 165.684C223.982 165.819 224.797 165.746 225.553 165.471C225.553 165.471 226.435 164.588 227.097 164.588C227.759 164.588 227.648 164.588 227.869 164.588C228.345 164.65 228.827 164.65 229.303 164.588C229.814 164.194 230.369 163.86 230.958 163.595C231.84 163.595 232.281 163.595 232.391 164.588C232.653 166.41 233.021 168.215 233.494 169.994C233.494 170.656 234.487 172.2 234.267 172.862C234.046 173.524 232.612 172.862 232.06 172.862C230.458 172.805 228.866 173.146 227.428 173.855L225.112 174.737C224.357 174.968 223.55 174.968 222.795 174.737C221.361 174.737 217.501 172.862 217.059 174.737C216.618 176.613 218.052 178.599 215.957 178.929C214.975 179.145 213.959 179.145 212.978 178.929C211.473 178.82 209.961 178.82 208.456 178.929C207.46 179.302 206.363 179.302 205.368 178.929C203.934 178.157 205.368 177.164 205.368 175.951C205.252 175.402 205 174.891 204.633 174.467C204.267 174.042 203.798 173.718 203.272 173.524C202.44 173.304 201.566 173.304 200.735 173.524L199.522 173.524C199.037 173.689 198.615 173.997 198.308 174.406C197.387 174.95 196.428 175.429 195.441 175.84L193.896 176.502C193.896 176.502 192.793 176.502 192.573 177.164C192.25 178.06 191.752 178.882 191.108 179.583C190.464 180.283 189.687 180.849 188.822 181.246C187.665 181.347 186.557 181.767 185.624 182.459C184.733 183.429 184.024 184.55 183.528 185.769C183.021 186.731 182.579 187.727 182.204 188.748C181.961 189.305 181.836 189.905 181.836 190.513C181.836 191.12 181.961 191.721 182.204 192.278C182.476 192.988 182.476 193.774 182.204 194.484C181.904 195.73 181.34 196.896 180.55 197.904C179.609 198.927 178.961 200.185 178.675 201.545C178.507 202.9 178.507 204.271 178.675 205.626C178.842 208.389 179.974 211.005 181.874 213.018C182.425 213.569 182.425 215.776 182.535 216.548C182.712 217.899 183.288 219.167 184.19 220.188C184.803 220.859 185.556 221.387 186.396 221.733C187.997 222.661 189.51 223.731 190.918 224.932C192.39 225.904 193.939 226.752 195.551 227.47C197.626 228.167 199.873 228.167 201.948 227.47C202.952 227.199 203.866 226.667 204.596 225.925C204.988 225.534 205.434 225.2 205.919 224.932C206.984 224.493 207.957 223.857 208.787 223.057L209.89 221.512C210.218 220.985 210.673 220.548 211.212 220.24C211.751 219.932 212.358 219.763 212.978 219.747L214.633 219.747C215.649 220.201 216.727 220.499 217.832 220.63C218.335 220.783 218.873 220.783 219.376 220.63C220.2 220.36 221.089 220.36 221.913 220.63C224.119 221.623 224.119 224.05 223.898 226.366C223.9 227.289 224.133 228.197 224.576 229.006C225.019 229.816 225.658 230.501 226.435 231C227.097 231 227.648 232.213 228.31 232.655C228.972 233.096 229.744 233.647 230.185 234.53C230.626 235.413 231.178 235.964 231.619 236.626C232.504 238.026 233.173 239.55 233.605 241.149C233.605 241.921 233.605 242.804 233.605 243.576C233.605 244.348 233.605 244.348 233.605 244.79C233.654 245.524 233.654 246.261 233.605 246.996L233.605 248.099C233.562 248.908 233.562 249.718 233.605 250.526C233.605 251.85 234.708 254.167 235.039 255.49C235.28 256.298 235.613 257.075 236.031 257.807C237.948 260.865 240.086 263.777 242.429 266.522L245.628 270.604L247.172 272.59C247.793 273.305 248.278 274.128 248.606 275.017C249.598 276.561 250.591 277.444 252.135 277.333C253.448 277.094 254.647 276.436 255.555 275.458C257.798 273.647 259.481 271.238 260.408 268.508C261.023 266.618 261.358 264.648 261.401 262.661C261.509 261.708 261.509 260.746 261.401 259.793C261.401 258.91 261.401 257.917 261.401 256.925C261.292 255.345 261.292 253.76 261.401 252.181C260.906 250.04 260.906 247.813 261.401 245.672L262.834 242.804C264.137 240.981 264.725 238.744 264.489 236.516C260.849 226.146 254.893 219.196 261.18 208.164C263.035 203.7 263.828 198.866 263.496 194.043C263.496 191.947 261.29 191.175 260.298 192.167L258.202 193.822L256.216 195.146C255.555 195.146 254.783 195.146 253.9 195.146C253.528 195.163 253.157 195.079 252.828 194.905C252.498 194.73 252.221 194.471 252.025 194.153C252.025 193.492 251.253 192.719 250.701 191.947C250.194 191.385 249.547 190.966 248.826 190.733C247.253 190.064 245.828 189.089 244.635 187.865C243.422 186.572 242.384 185.125 241.546 183.563C240.911 182.597 240.085 181.771 239.12 181.136C238.186 180.385 237.301 179.574 236.473 178.708C235.59 177.826 232.722 174.848 233.825 173.634C234.928 172.421 236.803 175.51 237.465 176.171C238.127 176.833 240.333 178.819 241.767 180.033L243.973 181.908L247.282 184.666L248.385 185.659C248.385 185.659 250.04 186.873 250.37 187.534C252.135 190.623 253.79 192.058 255.444 191.285C257.257 189.947 258.824 188.304 260.077 186.431C262.18 183.952 264.062 181.294 265.702 178.488C265.987 177.548 266.208 176.589 266.364 175.62C266.533 174.56 266.533 173.48 266.364 172.421C266.367 171.988 266.212 171.57 265.927 171.245C265.643 170.919 265.249 170.709 264.82 170.656C264.82 170.656 263.827 170.656 263.276 170.656C262.724 170.656 262.283 169.552 261.731 169.111C261.18 168.67 260.077 169.111 259.525 170.214C258.974 171.317 257.65 172.531 256.658 172.2C255.665 171.869 255.996 171.317 255.555 170.876C255.113 170.435 254.782 170.876 254.341 170.876C253.9 170.876 252.245 169.663 251.363 168.891C250.481 168.118 249.268 166.905 249.268 165.912C249.268 164.919 251.474 165.912 252.135 165.912C252.964 166.233 253.775 166.602 254.562 167.015C255.185 167.414 255.919 167.607 256.658 167.566C257.389 167.677 258.132 167.677 258.864 167.566C258.864 167.566 259.746 167.566 260.408 167.566C260.692 167.456 261.007 167.456 261.29 167.566C262.578 168.004 263.974 168.004 265.261 167.566C266.695 167.015 268.019 166.132 269.342 165.471C270.316 164.91 271.417 164.605 272.541 164.588C273.987 164.736 275.343 165.357 276.401 166.353C277.174 167.236 278.056 168.56 279.269 168.67C280.483 168.78 280.262 166.133 281.034 166.463C281.806 166.794 281.806 167.567 281.917 168.008L282.799 169.552C283.571 170.656 284.233 171.869 284.895 172.972C286.322 175.391 287.906 177.712 289.638 179.922C290.52 181.025 291.733 182.57 292.947 182.57C294.16 182.57 294.05 181.577 294.16 181.025C294.213 180.401 294.213 179.774 294.16 179.15C294.267 178.381 294.267 177.602 294.16 176.833C294.062 175.364 294.062 173.89 294.16 172.421C294.106 171.76 294.106 171.096 294.16 170.435C294.373 169.228 294.706 168.046 295.153 166.905C295.562 166.115 295.93 165.305 296.256 164.478C296.204 164.112 296.204 163.74 296.256 163.375C296.193 162.64 296.193 161.902 296.256 161.168C296.374 160.837 296.562 160.537 296.807 160.286L297.8 160.286C298.462 160.286 298.462 159.293 298.903 158.741C299.344 158.189 300.227 158.741 300.668 158.741C301.109 158.741 302.984 161.499 303.756 163.043C304.528 164.588 304.528 164.919 305.411 164.698C306.293 164.478 306.514 163.816 307.286 164.698C308.058 165.581 308.72 166.463 309.492 167.236C310.264 168.008 311.036 168.118 311.477 169.111C311.919 170.104 311.477 169.883 311.477 170.545C311.477 171.207 311.477 171.428 311.477 171.869C311.811 172.409 312.036 173.008 312.139 173.634C312.139 174.296 312.139 174.958 312.139 175.51C312.252 175.59 312.387 175.634 312.525 175.634C312.664 175.634 312.799 175.59 312.911 175.51C313.581 175.659 314.171 176.052 314.566 176.613C314.605 176.979 314.605 177.349 314.566 177.716C314.805 178.125 315.102 178.497 315.448 178.819C315.777 179.214 316.038 179.662 316.22 180.143C316.307 180.314 316.353 180.503 316.353 180.694C316.353 180.886 316.307 181.075 316.22 181.246L318.647 181.246C318.023 181.193 317.396 181.193 316.772 181.246L316 181.246C314.566 181.246 317.213 184.445 317.764 184.776L319.088 185.659C319.513 186.021 319.853 186.473 320.081 186.982C321.507 188.851 323.176 190.521 325.044 191.947L326.478 192.609L327.912 192.609C329.125 196.581 331.552 192.609 333.317 193.712C335.082 194.815 335.964 193.712 337.288 192.94L338.17 192.278L338.17 191.175C337.969 191.291 337.741 191.352 337.508 191.352C337.276 191.352 337.048 191.291 336.846 191.175C336.609 191.049 336.344 190.983 336.074 190.983C335.805 190.983 335.54 191.049 335.302 191.175C334.142 191.474 333 191.843 331.883 192.278C331.269 192.447 330.621 192.447 330.008 192.278L329.015 192.278C328.353 191.727 328.243 190.733 327.912 189.741C327.822 189.228 327.628 188.739 327.344 188.303C327.06 187.867 326.69 187.493 326.258 187.203L325.155 186.431L323.39 185.659C322.781 185.241 322.348 184.612 322.177 183.894C322.095 183.702 322.052 183.496 322.052 183.287C322.052 183.079 322.095 182.872 322.177 182.68C322.488 181.787 322.488 180.815 322.177 179.922L321.184 178.819C321.184 178.157 320.191 177.716 319.75 177.164L318.868 176.613C316.964 174.767 315.593 172.442 314.897 169.883C314.897 169.111 314.897 168.229 314.897 168.118C314.997 168.06 315.111 168.03 315.228 168.03C315.344 168.03 315.458 168.06 315.558 168.118L317.103 169.001L318.095 169.663C319.309 169.663 320.963 173.745 321.956 171.207C321.956 170.435 322.949 169.883 323.28 169.111L323.28 168.118C323.47 167.171 323.47 166.197 323.28 165.25C323.176 164.624 322.952 164.024 322.618 163.485C322.061 162.311 321.228 161.289 320.191 160.506L318.537 159.183C317.875 159.183 317.544 159.183 317.213 157.969C316.882 156.755 317.213 153.777 319.088 153.777C319.605 153.812 320.121 153.695 320.572 153.44C321.023 153.186 321.389 152.804 321.625 152.343C322.124 151.058 322.832 149.865 323.721 148.812C325.284 147.653 326.597 146.189 327.581 144.51C325.836 138.99 323.774 133.575 321.404 128.293ZM233.163 153.446C231.882 153.615 230.584 153.615 229.303 153.446C227.21 153.803 225.239 154.675 223.567 155.983C222.88 156.464 222.084 156.768 221.251 156.866C219.376 156.866 219.045 153.005 219.045 150.909C218.861 149.887 218.861 148.841 219.045 147.82C219.817 146.165 223.016 146.827 222.685 147.82C222.354 148.812 222.685 148.592 223.567 149.033C224.45 149.475 224.45 149.806 224.781 149.033C225.112 148.261 223.678 146.606 224.781 145.282C226.104 144.179 227.207 144.731 227.648 146.716C227.586 147.192 227.586 147.675 227.648 148.151C228.862 149.916 230.957 149.475 231.068 149.695C231.178 149.916 232.061 149.695 232.833 150.357C233.605 151.019 234.708 152.895 233.053 153.446L233.163 153.446ZM249.598 155.211C247.723 155.211 246.51 152.343 245.848 150.578C245.186 148.812 241.767 148.151 240.774 146.275C240.393 145.622 240.151 144.898 240.062 144.147C239.972 143.396 240.038 142.635 240.256 141.911C240.473 141.187 240.837 140.515 241.324 139.938C241.812 139.36 242.413 138.888 243.091 138.553C244.855 138.553 244.635 140.98 244.414 142.966C244.194 144.951 244.414 143.958 245.628 144.51C247.046 145.305 248.568 145.899 250.15 146.275C251.032 146.275 250.15 147.93 250.15 148.592C250.15 149.254 253.018 150.909 253.349 152.894C253.68 154.88 251.363 155.432 249.488 155.211L249.598 155.211ZM193.565 169.883C193.565 169.001 193.565 168.449 191.801 169.222C190.036 169.994 191.801 169.883 191.249 170.435C190.698 170.986 192.793 171.207 193.455 169.883L193.565 169.883ZM335.082 169.883C333.648 169.883 333.538 171.759 332.986 173.083C332.261 174.711 331.374 176.264 330.339 177.716C329.787 178.599 328.133 178.378 328.353 180.033C328.636 181.427 329.283 182.721 330.229 183.783C330.819 184.65 331.568 185.399 332.435 185.99C332.854 186.223 333.316 186.372 333.793 186.426C334.27 186.48 334.753 186.439 335.215 186.306C335.676 186.173 336.107 185.95 336.481 185.649C336.856 185.349 337.168 184.977 337.398 184.556L337.398 183.453C337.352 182.57 337.352 181.687 337.398 180.805C337.398 178.929 337.398 177.054 336.626 175.068C336.303 174.788 336.068 174.419 335.951 174.008C335.833 173.597 335.838 173.16 335.964 172.751C336.736 171.759 336.295 170.104 334.971 170.325L335.082 169.883ZM79.4037 163.375C79.4037 165.36 79.4037 167.015 80.6169 167.125C81.8303 167.236 83.1538 165.25 84.3672 164.368C85.5804 163.485 84.3673 162.712 82.3818 161.83C80.3964 160.947 79.4037 161.83 79.2935 163.816L79.4037 163.375ZM208.346 169.222C208.346 169.023 208.306 168.828 208.227 168.646C208.148 168.464 208.033 168.301 207.888 168.166C207.743 168.032 207.571 167.928 207.384 167.863C207.197 167.798 206.999 167.772 206.802 167.787C206.802 167.787 206.802 167.787 206.802 168.891C206.802 169.994 208.346 170.986 208.346 169.663L208.346 169.222ZM200.956 166.463C200.956 164.478 197.757 159.844 197.757 161.94C197.702 162.306 197.702 162.678 197.757 163.043C198.088 165.691 200.735 168.891 200.845 166.905L200.956 166.463ZM110.729 235.413C109.426 235.744 108.061 235.744 106.758 235.413C105.435 235.413 103.891 234.861 103.008 235.413C102.126 235.964 103.67 236.626 104.332 236.847L105.986 236.847L108.744 237.508C108.917 237.588 109.105 237.629 109.295 237.629C109.486 237.629 109.674 237.588 109.847 237.508C111.281 236.847 112.384 235.413 114.259 235.964C116.134 236.516 115.582 236.736 115.913 235.964C115.913 235.964 115.913 234.861 115.913 234.419C115.913 233.979 111.943 235.523 110.619 235.854L110.729 235.413ZM129.591 98.2866C126.171 96.1904 132.017 87.2549 130.694 86.3721C129.37 85.4897 130.694 86.3721 129.922 86.3721C129.3 86.2749 128.668 86.2749 128.047 86.3721L127.164 86.3721C126.82 86.7983 126.558 87.2847 126.392 87.8066C126.392 88.689 125.62 89.7925 125.289 89.5718L124.737 89.5718C123.855 88.9097 124.076 89.5713 123.524 90.123C122.973 90.6748 122.2 91.0054 121.759 90.123C121.318 89.2407 121.759 87.6963 121.759 87.0342C121.854 86.5605 122.041 86.1108 122.311 85.7104C122.311 85.1587 122.311 83.835 121.098 83.3936C120.01 83.1357 118.876 83.1357 117.788 83.3936C115.698 83.7563 113.771 84.7583 112.273 86.2622C111.333 87.0688 110.548 88.0405 109.957 89.1304C108.964 90.6748 108.634 93.543 107.531 95.3081C107.344 95.7222 107.028 96.064 106.63 96.2832C106.232 96.502 105.774 96.5854 105.324 96.5215C104.208 96.4814 103.111 96.8188 102.21 97.4795C101.31 98.1401 100.658 99.0854 100.361 100.162C99.4785 102.258 100.361 102.038 100.361 103.692C100.361 105.347 98.4858 105.789 97.9343 106.229L97.1621 107.112C96.8344 108.078 96.8344 109.125 97.1621 110.091C97.1621 110.091 97.1621 110.752 96.6106 111.856C95.8184 113.202 94.9338 114.493 93.9635 115.717C93.0856 116.699 92.5446 117.936 92.4193 119.247C92.4193 120.571 92.4193 120.46 93.0811 120.681L93.7428 121.233C93.7428 121.233 94.5149 122.777 95.0664 122.777C95.6179 122.777 97.1622 121.343 98.2653 120.46C99.3683 119.578 102.015 117.482 103.67 118.916C104.232 119.423 104.651 120.07 104.883 120.792C105.364 122.705 105.623 124.667 105.655 126.639C105.558 127.487 105.752 128.343 106.207 129.065C107.089 130.168 108.633 129.617 109.736 130.941C110.489 132.282 110.724 133.851 110.398 135.354C110.053 136.9 109.573 138.414 108.964 139.877C108.877 141.423 109.141 142.97 109.736 144.4C110.087 146.181 110.801 147.871 111.832 149.364C112.846 150.998 113.989 152.547 115.252 153.998C115.717 154.567 116.276 155.052 116.906 155.432C117.616 155.648 118.366 155.69 119.096 155.556C119.825 155.422 120.512 155.114 121.098 154.659C121.541 154.434 121.935 154.123 122.257 153.745C122.578 153.366 122.822 152.927 122.973 152.453C123.855 150.136 122.973 147.599 122.421 145.172C122.333 144.292 122.436 143.403 122.721 142.565C123.006 141.728 123.468 140.961 124.076 140.318C125.367 139.235 126.451 137.927 127.274 136.457C127.274 135.023 127.274 133.147 128.267 131.713C129.26 130.279 131.025 129.286 132.238 128.183C133.451 127.08 134.665 125.756 134.223 124.211C133.782 122.667 134.223 123.108 134.223 122.226C134.305 121.695 134.535 121.198 134.885 120.792L135.547 120.792C135.547 120.792 135.547 119.468 135.547 119.026L134.665 118.365C133.341 117.041 132.679 115.717 133.672 114.283C134.665 112.849 135.878 110.752 134.665 108.767C133.451 106.781 133.12 107.333 132.569 106.009C132.515 105.458 132.515 104.904 132.569 104.354C132.445 103.439 132.445 102.511 132.569 101.596C132.672 101.352 132.725 101.089 132.725 100.824C132.725 100.559 132.672 100.296 132.569 100.052C131.135 98.9487 130.142 99.1689 129.48 98.728L129.591 98.2866ZM274.526 229.125L274.526 228.573C274.526 228.573 273.423 229.125 273.534 230.117L273.534 231.772C273.534 234.31 272.541 236.074 271.99 238.17C271.615 240.868 272.117 243.614 273.423 246.003C273.568 247.926 274.093 249.801 274.968 251.519C278.497 255.601 278.718 247.106 278.718 244.458C278.673 241.048 278.303 237.65 277.615 234.309C277.615 233.647 277.615 232.985 277.063 232.323C276.776 231.439 276.328 230.617 275.74 229.896L274.526 229.125ZM148.893 125.756C148.342 125.756 148.011 126.749 147.57 127.19L145.805 127.962C144.812 127.962 144.261 130.279 143.158 129.617C142.055 128.955 142.496 132.265 144.261 133.699C148.121 137.008 152.313 132.816 152.754 129.507C153.195 126.197 149.555 125.646 148.673 126.087L148.893 125.756Z" fill="url(#paint_linear_262_379_0)" fill-opacity="1.000000" fill-rule="nonzero"/>
	<g opacity="0.550000">
		<path id="Vector" d="M69.1458 141.862C69.1458 141.862 69.6973 139.215 69.1458 138.663C68.5942 138.112 68.4839 138.663 68.0426 138.663L67.05 141.09C67.05 141.09 67.0499 141.862 67.822 142.304C68.5941 142.745 69.0354 142.193 69.1458 141.862ZM171.726 255.932C169.961 255.932 167.203 253.725 165.439 254.387L164.887 254.387C163.122 255.049 159.703 253.725 157.718 253.725L156.394 253.725C154.017 253.668 151.759 252.677 150.107 250.967C148.849 249.436 147.157 248.32 145.253 247.768C142.937 247.768 140.952 249.864 138.525 248.43C137.56 247.753 136.474 247.266 135.326 246.996C134.127 246.847 132.967 246.473 131.907 245.893C130.363 244.9 129.811 245.893 128.488 245.893C127.164 245.893 127.274 245.893 126.392 245.893C125.35 246.327 124.281 246.695 123.193 246.996C122.311 246.996 121.87 246.996 120.987 246.996C119.983 246.814 118.947 247.006 118.074 247.534C117.201 248.062 116.55 248.891 116.244 249.864C116.305 250.783 116.305 251.704 116.244 252.622C115.693 254.167 113.156 253.946 111.612 253.725C110.392 253.528 109.227 253.077 108.192 252.401C106.979 251.519 106.207 251.409 105.766 249.975C105.324 248.541 105.104 247.437 104.001 246.775C103.548 246.581 103.06 246.481 102.567 246.481C102.074 246.481 101.586 246.581 101.133 246.775C100.418 247.161 99.6276 247.386 98.8168 247.437C98.3533 247.308 97.9337 247.055 97.6033 246.705C97.2729 246.355 97.0441 245.921 96.9415 245.451C96.9415 245.451 96.9415 244.348 96.9415 243.797C96.995 243.468 96.995 243.133 96.9415 242.804L96.9415 242.032C96.9415 240.598 96.9417 240.046 95.8386 239.936C95.4465 239.977 95.0667 240.095 94.7207 240.284C94.3749 240.473 94.0698 240.729 93.8236 241.037C93.5774 241.345 93.3948 241.699 93.2863 242.078C93.1777 242.457 93.1454 242.854 93.1913 243.245C93.1913 244.9 91.3162 246.665 89.5514 246.555C86.132 246.555 82.6024 241.149 82.1611 237.067C82.0858 235.981 82.2548 234.893 82.6556 233.881C83.0565 232.869 83.6791 231.96 84.4775 231.22C85.8796 230.788 87.3203 230.492 88.7793 230.338C89.4412 230.338 88.7793 229.786 88.7793 229.345C88.7793 228.904 89.8822 228.242 90.7646 227.801C91.5392 227.429 92.3875 227.236 93.2465 227.236C94.1056 227.236 94.9536 227.429 95.7281 227.801C96.4073 228.449 97.0344 229.15 97.6035 229.896C98.9271 231.331 101.574 231.551 100.471 229.896C99.3682 228.242 98.5961 227.58 97.824 226.366C97.302 225.44 97.0278 224.396 97.0278 223.333C97.0278 222.27 97.302 221.225 97.824 220.299C98.4033 219.456 98.9194 218.571 99.3682 217.651C99.5973 216.784 99.5973 215.871 99.3682 215.003C99.3682 214.011 98.0446 213.349 97.824 212.135C97.6029 211.341 97.6029 210.502 97.824 209.708C97.9495 208.384 98.4465 207.122 99.2579 206.068C100.03 205.185 101.795 204.744 101.905 203.199C101.573 201.971 101.573 200.677 101.905 199.449C102.366 198.554 102.961 197.735 103.67 197.021C104.663 195.808 104.883 198.456 106.427 197.684C107.891 196.623 109.16 195.316 110.178 193.822C111.281 192.278 111.281 190.182 110.178 189.851C109.075 189.52 109.185 192.94 107.531 193.161L109.075 193.161C107.42 193.161 106.869 190.402 106.648 190.623C106.427 190.844 106.648 190.623 106.648 189.961C106.648 189.299 106.648 186.873 105.214 188.086L104.442 188.748C103.229 190.072 102.677 188.748 103.891 187.534C106.071 185.596 108.478 183.929 111.06 182.57C112.604 181.577 113.487 182.57 113.156 184.335C112.825 186.1 113.156 187.865 114.038 187.645C114.921 187.424 117.347 185.99 117.568 186.652C117.789 187.313 117.568 187.424 118.34 186.652C119.112 185.879 120.325 186.652 120.656 185.438C120.669 185.121 120.606 184.805 120.472 184.517C120.337 184.229 120.136 183.978 119.884 183.783C119.112 183.122 118.119 181.688 117.127 182.019C116.134 182.349 115.141 179.922 114.921 177.716L114.921 177.054C114.921 174.958 111.722 174.186 110.178 173.524C105.545 171.538 106.758 170.987 103.67 167.125C102.567 165.691 101.243 166.463 100.361 168.339C99.4785 170.214 99.3683 170.104 98.8168 170.214C98.2653 170.325 96.8313 165.912 95.8386 165.801C94.8458 165.691 94.515 165.802 93.9635 165.14C93.5048 164.547 92.8325 164.158 92.0905 164.055C91.3484 163.952 90.5955 164.143 89.9927 164.588C89.3411 165.263 88.8765 166.096 88.6443 167.005C88.4122 167.915 88.4207 168.868 88.6689 169.773C88.6689 171.317 88.6691 174.075 89.3308 174.958C90.0217 175.662 90.5405 176.516 90.8467 177.454C91.1528 178.392 91.2379 179.388 91.0956 180.364C91.0956 181.577 89.9926 182.68 89.772 183.783C89.5514 184.887 91.3162 188.086 90.9854 189.299C90.6544 190.513 90.3236 190.402 89.6617 190.292C88.5208 189.947 87.542 189.203 86.9042 188.196C85.9115 185.879 86.9042 184.225 84.257 184.335C81.3512 184.62 78.418 184.282 75.6534 183.342C74.4402 183.342 74.2195 181.798 73.5577 180.584C72.8959 179.371 71.5724 179.26 72.5651 176.833C73.5337 175.358 74.2078 173.71 74.5504 171.979C74.5504 170.104 73.0062 170.435 73.5577 168.78C74.1093 167.125 76.7563 166.794 77.6388 165.912C78.2145 165.482 78.6082 164.853 78.7419 164.147C78.7419 162.823 77.8595 163.043 77.5286 162.492C77.1976 161.94 77.5286 162.492 77.5286 161.94C77.9828 161.722 78.3938 161.423 78.7419 161.058C78.8259 160.732 78.8259 160.391 78.7419 160.065C78.7419 160.065 78.7419 159.403 78.7419 158.962L79.514 158.189C80.1649 157.889 80.7327 157.435 81.1686 156.866C82.0184 155.939 82.5916 154.792 82.823 153.556C82.9961 152.756 82.9961 151.929 82.823 151.129C82.823 151.129 82.0509 151.129 81.8303 150.247C81.6097 149.364 83.7054 147.158 84.4775 146.716C85.2498 146.275 86.7938 145.282 87.0145 147.599C87.2351 149.916 87.566 151.129 88.4485 149.364C89.3308 147.599 89.1102 147.93 89.772 148.481C90.0869 148.662 90.3523 148.918 90.5447 149.226C90.7371 149.534 90.8506 149.884 90.8751 150.247C90.9069 150.631 90.8541 151.018 90.7207 151.38C90.5874 151.742 90.3765 152.071 90.1029 152.343C89.441 153.225 89.441 156.645 88.2278 157.307L87.566 157.307C86.3527 157.969 87.566 161.168 88.4485 160.175C89.0397 159.691 89.7802 159.427 90.5442 159.427C91.3082 159.427 92.0485 159.691 92.6398 160.175C94.0894 161.323 95.8663 161.979 97.7137 162.051C99.1476 162.051 97.7137 158.741 97.7137 158.189L98.927 157.417C98.927 157.417 98.927 155.542 98.927 155.321C98.7823 154.797 98.473 154.333 98.0446 153.998C97.1622 153.446 96.2798 153.998 95.6179 152.453C94.9562 150.909 95.618 149.585 96.7211 149.805C97.824 150.026 97.493 149.806 97.824 150.909C98.1548 152.012 99.3682 151.901 99.5887 151.57C99.6646 151.356 99.6646 151.123 99.5887 150.909C99.5887 150.247 99.5887 149.584 99.5887 148.923C99.5887 148.261 100.692 147.82 101.023 146.716C101.117 146.554 101.168 146.37 101.172 146.183C101.175 145.995 101.13 145.809 101.042 145.644C100.954 145.478 100.824 145.337 100.667 145.235C100.509 145.134 100.328 145.074 100.14 145.062C98.8168 145.062 97.493 144.51 96.2798 144.069L95.5077 144.069C95.5077 144.069 94.7356 142.855 94.6252 141.973C94.6781 141.496 94.6781 141.015 94.6252 140.539C94.6252 139.877 93.8531 139.656 93.412 139.325C92.9325 139.002 92.4135 138.743 91.8678 138.553C90.875 138.553 89.1102 138.553 88.1176 137.891C87.1249 137.229 86.463 135.795 85.4702 136.236C85.4702 136.236 85.4703 136.236 84.8085 136.236C84.1467 136.236 84.0364 136.236 83.5952 136.236C83.1377 136.137 82.661 136.179 82.2278 136.356C81.7947 136.534 81.4254 136.838 81.1686 137.229L80.2861 138.222C79.6471 138.597 78.9839 138.928 78.3008 139.215C77.4131 140.001 76.6669 140.934 76.0946 141.973C75.6274 142.679 75.2913 143.464 75.1019 144.29C75.1019 145.503 75.1019 147.378 75.1019 147.378C76.0591 147.165 76.9856 146.831 77.8595 146.386C78.6316 146.386 80.5066 145.503 80.3964 147.599C80.286 149.695 78.5212 149.254 78.8522 151.019C78.9774 151.601 78.9774 152.202 78.8522 152.784C78.6821 153.442 78.4224 154.073 78.0801 154.659C77.8516 155.175 77.5548 155.657 77.1976 156.094C77.1976 156.645 75.9843 156.755 75.7637 156.094C75.5431 155.432 75.7637 154.77 75.7637 153.998C75.7637 153.225 75.7638 153.225 74.9917 153.115L75.9844 153.115C75.7944 153.204 75.5874 153.25 75.3778 153.25C75.1681 153.25 74.9609 153.204 74.771 153.115C74.5892 153.154 74.4012 153.154 74.2195 153.115C74.2195 153.115 73.5576 152.343 73.337 151.901C73.1245 151.414 73.0148 150.889 73.0148 150.357C73.0148 149.826 73.1245 149.3 73.337 148.812C73.6088 148.539 73.7997 148.195 73.8885 147.82C74.3031 146.958 74.6713 146.074 74.9917 145.172C74.9917 143.187 74.9917 141.421 74.1093 141.973C73.2865 142.503 72.5988 143.218 72.1008 144.061C71.603 144.903 71.3088 145.85 71.2415 146.827C71.3374 148.112 71.3374 149.403 71.2415 150.688C71.2415 151.901 70.2487 152.894 69.9177 154.108C69.8099 155.135 69.8099 156.17 69.9177 157.197C69.9177 158.3 69.9177 158.079 69.0353 158.631C68.153 159.183 69.0354 161.94 67.9324 163.264C67.5844 163.629 67.1733 163.928 66.7191 164.147C66.0994 164.566 65.3713 164.796 64.6233 164.809C64.6233 164.809 65.2852 163.706 65.5057 163.375C66.4028 161.926 66.7546 160.205 66.4984 158.521C66.4984 157.749 65.5057 158.521 65.0645 157.858C64.603 157.566 64.2273 157.158 63.9753 156.673C63.7235 156.188 63.6046 155.646 63.6307 155.101C62.5277 158.741 61.5348 162.382 60.7627 166.132L61.4246 166.132C61.4246 166.132 61.4246 166.905 61.4246 167.566C61.4246 168.229 61.4246 168.449 61.4246 168.78C61.4246 169.111 61.4247 171.869 60.3217 171.648C59.2186 171.428 60.3217 171.648 59.6598 171.648C58.6168 177.779 57.9537 183.969 57.6743 190.182C56.9816 206.297 59.033 222.412 63.741 237.839C63.741 237.839 64.4027 237.839 64.9542 237.839C65.5057 237.839 68.0426 241.149 69.5869 241.811C72.3918 242.9 74.9445 244.552 77.0874 246.665C78.3506 248.399 80.016 249.8 81.9406 250.747C85.2511 251.734 88.7778 251.734 92.0884 250.747C94.9562 249.533 99.5889 253.726 101.905 251.409C101.905 251.409 104.442 253.063 104.773 253.284C105.925 254.156 107.236 254.793 108.634 255.16C110.139 255.267 111.65 255.267 113.156 255.16C115.913 255.16 119.222 255.932 119.774 259.793C120.325 263.654 119.774 264.537 119.774 266.963C119.633 268.187 119.747 269.425 120.108 270.603C120.468 271.779 121.068 272.869 121.87 273.803C123.745 275.568 126.061 276.671 127.936 278.437C129.811 280.202 130.142 283.07 132.128 285.056C134.113 287.042 136.871 287.373 140.18 287.703C142.62 287.945 144.909 288.993 146.687 290.682C150.974 294.582 154.855 298.906 158.269 303.589C162.218 309.681 166.843 315.307 172.057 320.358C174.695 322.725 177.716 324.627 180.991 325.984C183.087 326.756 184.852 325.984 184.079 323.667C183.307 321.351 181.873 321.13 180.881 319.806C179.888 318.482 180.109 317.158 179.667 315.614C179.226 314.069 177.682 312.746 178.234 311.532C178.785 310.319 180.329 310.539 180.44 309.105C180.55 307.671 178.454 306.899 177.792 305.686C177.13 304.472 179.447 303.81 179.778 302.376C180.109 300.941 179.778 300.61 179.778 299.728C179.778 298.846 179.778 298.846 180.44 298.184C180.715 297.061 180.715 295.887 180.44 294.764C180.44 292.778 177.903 291.234 178.123 289.358C178.528 287.711 179.457 286.24 180.77 285.166C181.653 284.284 182.315 284.063 182.535 282.519C182.711 280.695 182.366 278.859 181.543 277.223C180.881 276.23 181.542 275.017 180.55 274.245C179.411 272.74 178.517 271.064 177.903 269.28C176.91 265.971 179.116 262.882 177.903 259.352C177.372 258.197 176.487 257.243 175.375 256.627C174.264 256.012 172.985 255.769 171.726 255.932ZM79.183 203.31C80.1758 201.545 81.7201 198.015 83.2643 198.346C84.0648 198.654 84.7825 199.145 85.36 199.78C86.5734 200.993 88.8896 200.883 90.3235 201.104C91.7574 201.324 90.3235 203.089 90.3235 204.413C90.3235 205.737 89.6616 206.399 89.5514 205.737C89.441 205.075 89.5514 204.965 88.7793 205.737C88.0072 206.509 88.1176 205.737 88.1176 204.854C88.1176 203.972 85.8011 203.641 85.8011 205.737C85.7466 206.287 85.7466 206.841 85.8011 207.392C85.8011 209.488 84.1466 209.929 83.926 207.943C83.7054 205.958 83.926 207.392 83.926 207.171C83.926 205.075 82.6025 202.979 81.0582 203.53C79.514 204.082 78.08 205.075 79.183 203.31ZM64.182 240.156C64.182 240.156 64.182 240.156 64.182 239.604C64.182 239.053 63.1895 239.604 62.5276 238.833L64.182 243.687L66.6086 244.79C67.3807 244.79 69.0353 246.775 69.6971 246.444C70.3589 246.113 68.5941 243.907 68.153 243.576C67.7117 243.245 64.182 240.156 64.182 240.156ZM66.4984 153.667C68.153 153.667 69.3663 151.791 69.8075 150.026C70.2488 148.261 68.2633 148.371 68.925 147.378C69.5869 146.385 69.8075 145.944 68.925 145.724C68.925 145.724 67.9323 145.724 66.6086 147.268C65.285 148.812 65.5057 150.247 64.6233 151.019C63.741 151.791 64.9542 153.556 66.4984 153.667ZM71.2415 137.008C71.8983 137.124 72.5701 137.124 73.2268 137.008L74.1093 137.008C74.9917 137.008 74.1091 139.656 74.8812 140.097C75.6534 140.539 76.0946 140.097 76.6461 140.097C78.1343 139.79 79.4862 139.017 80.5067 137.891C81.629 136.938 82.8076 136.054 84.0363 135.244C84.5304 135.003 84.9174 134.588 85.1213 134.078C85.3253 133.568 85.3318 133 85.1394 132.485C85.1394 131.493 83.926 131.824 83.0436 132.485C82.1613 133.147 80.3964 134.582 80.0654 134.802C79.7345 135.022 79.514 134.802 79.514 134.802C79.514 134.802 81.0582 133.037 81.3892 132.816L83.0436 131.272L85.4702 129.286L86.3527 128.403C86.7345 127.963 87.0674 127.482 87.3453 126.97C87.3453 125.756 87.3453 125.425 87.3453 124.432C87.7137 123.637 88.2389 122.924 88.8895 122.336L90.5442 120.24C91.4266 118.696 90.5441 117.482 91.4264 115.827C91.6964 114.958 92.1062 114.138 92.6398 113.4C93.4119 112.297 94.5149 110.973 95.0664 110.091L96.0592 108.546C96.4767 107.932 96.8104 107.264 97.0519 106.561C97.088 106.046 97.088 105.53 97.0519 105.016C97.2227 104.621 97.4451 104.25 97.7137 103.913C98.6273 102.899 99.2051 101.627 99.3682 100.272C99.3682 98.6177 98.4857 99.3896 98.1548 99.1694C97.824 98.9487 96.8313 99.1694 96.0592 99.1694C94.2283 100.323 92.4608 101.576 90.7646 102.92C88.5586 105.458 86.4629 107.995 84.3672 110.753C82.2715 113.511 80.9479 115.386 79.4037 117.813L80.9479 117.813C82.2715 117.813 83.8158 115.717 85.1394 114.614C86.463 113.511 87.5659 112.518 88.0071 113.069C88.4484 113.621 86.5732 116.048 86.1321 116.489C85.7673 116.837 85.4684 117.249 85.2496 117.703C85.2496 118.695 84.3672 120.13 83.4847 119.909C83.0139 119.792 82.5217 119.792 82.0509 119.909C82.0509 119.909 81.389 119.909 81.2788 120.681C81.1685 121.454 80.1758 123.219 79.6243 122.446C79.0728 121.674 79.6243 121.233 78.7419 121.233C77.8595 121.233 77.8595 121.233 77.5286 121.233C75.9844 123.66 74.5505 126.197 73.1166 128.734L73.8885 128.734C74.7502 129.005 75.6743 129.005 76.5359 128.734L77.8595 127.962C78.411 127.962 79.4038 126.197 79.845 126.197C80.2861 126.197 79.845 127.852 79.845 128.734C79.3234 130.189 78.5381 131.536 77.5286 132.706C77.0681 133.361 76.478 133.914 75.795 134.332C75.1119 134.749 74.3505 135.022 73.5577 135.133C73.5577 135.133 71.2413 135.133 70.8002 136.236C70.359 137.339 70.8003 136.788 71.2415 137.008ZM155.512 84.7178C156.027 84.9463 156.509 85.2432 156.945 85.6001L158.71 86.2622L160.696 86.2622C160.696 86.2622 160.696 86.9238 161.799 87.0342L163.233 87.0342C164.005 87.0342 165.328 87.0342 165.218 86.2622C165.319 85.7896 165.319 85.3003 165.218 84.8276C164.913 84.082 164.692 83.3052 164.556 82.5112C164.556 82.5112 164.556 81.8491 165.549 81.9595L166.762 81.9595C166.762 81.9595 166.762 81.9595 166.762 82.5112C167.383 82.6182 168.017 82.6182 168.637 82.5112L169.299 82.5112C169.299 82.5112 169.299 81.5181 169.299 81.4082C168.308 81.4844 167.312 81.4844 166.321 81.4082C165.677 81.1865 165.08 80.8501 164.556 80.415C163.453 79.6431 164.556 79.0913 164.556 78.8706L166.1 78.209C166.872 78.209 167.645 76.8848 167.645 76.3335C167.717 76.1587 167.755 75.9712 167.755 75.7817C167.755 75.5923 167.717 75.4048 167.645 75.23C167.289 75.0371 166.891 74.936 166.486 74.936C166.082 74.936 165.684 75.0371 165.328 75.23L162.791 76.2231C162.388 76.2725 161.981 76.2725 161.578 76.2231L160.585 76.2231L159.372 77.3262C159.219 77.6187 159 77.8711 158.732 78.0625C158.464 78.2544 158.154 78.3799 157.828 78.4292C157.828 78.4292 156.835 78.4292 156.945 79.0913C157.056 79.7529 158.159 79.9736 158.49 80.6357C158.82 81.2974 158.49 80.6357 157.718 80.6357C156.945 80.6357 157.056 79.8633 156.615 79.6431C156.173 79.4224 155.953 79.6431 155.953 79.6431C155.953 79.6431 155.953 80.5254 155.401 80.3047C154.85 80.084 154.739 80.3047 154.298 80.3047C153.857 80.3047 152.202 81.4077 153.195 82.4009C153.731 83.3779 154.534 84.1821 155.512 84.7178ZM168.637 154.438C168.477 154.941 168.477 155.481 168.637 155.983C169.52 157.086 170.733 155.983 171.395 155.321C171.811 154.903 172.134 154.402 172.343 153.851C172.552 153.3 172.642 152.711 172.608 152.122C172.479 151.266 172.049 150.483 171.395 149.916C171.395 149.916 169.409 148.481 168.858 149.254C168.306 150.026 168.858 149.916 168.858 150.247C168.858 150.578 167.865 150.247 167.534 150.798C167.203 151.35 167.534 152.453 168.196 153.005C168.506 153.417 168.662 153.924 168.637 154.438ZM217.17 89.5718C217.867 89.6343 218.568 89.6343 219.266 89.5718C219.685 89.6382 220.115 89.603 220.518 89.4683C220.921 89.334 221.286 89.1045 221.582 88.7993C221.582 88.7993 221.582 87.5859 220.479 87.0342L219.817 87.0342C219.255 86.3779 218.808 85.6323 218.493 84.8276C218.446 84.3511 218.446 83.8706 218.493 83.3936C218.466 82.3262 218.693 81.2671 219.155 80.3047C219.966 78.854 220.968 77.5186 222.133 76.3335L223.898 74.6787L225.112 73.7959L225.994 73.1343C226.111 72.9854 226.188 72.8086 226.216 72.6216C226.245 72.4341 226.226 72.2427 226.159 72.0654C226.093 71.8882 225.982 71.731 225.837 71.6089C225.692 71.4868 225.518 71.4043 225.332 71.3691C225.176 71.2988 225.007 71.2627 224.836 71.2627C224.665 71.2627 224.495 71.2988 224.339 71.3691L221.802 72.9136C219.972 73.4795 218.354 74.5806 217.154 76.0747C215.955 77.5688 215.231 79.3882 215.074 81.2979C214.954 82.7295 214.954 84.1685 215.074 85.6001C215.074 85.6001 215.074 86.5928 215.074 86.8135C215.074 87.0342 215.074 86.8135 215.074 87.5859C215.575 88.4292 216.301 89.1167 217.17 89.5718ZM169.409 143.848C169.409 143.848 169.409 144.73 169.961 145.613C170.512 146.496 171.836 146.496 172.167 147.268C172.498 148.041 173.601 147.268 174.263 147.268C174.925 147.268 175.476 149.475 174.814 150.026C174.152 150.578 174.814 152.012 174.814 152.563C174.814 153.115 174.814 153.225 174.814 153.667C174.814 154.108 175.807 153.005 176.138 153.667C176.469 154.329 175.476 154.77 176.138 155.321C176.8 155.873 177.241 155.321 177.682 155.321C179.631 154.591 181.215 153.125 182.094 151.24C182.094 150.578 182.756 148.702 182.094 148.371L180.991 148.371C180.502 148.065 180.057 147.694 179.667 147.268C179.099 146.589 178.471 145.962 177.792 145.393C176.8 144.51 175.035 144.51 174.704 142.855C174.373 141.201 174.704 141.532 174.704 141.09C174.567 141.022 174.416 140.987 174.263 140.987C174.11 140.987 173.958 141.022 173.821 141.09C173.821 141.09 172.167 140.428 172.057 139.987C171.946 139.546 169.409 139.987 169.961 141.09C170.512 142.193 168.086 143.297 169.409 143.848ZM321.404 128.293C321.039 127.537 320.634 126.801 320.191 126.087C305.722 100.626 283.719 80.2764 257.209 67.8389L256.437 67.8389C255.117 68.2671 253.828 68.7832 252.576 69.3833C252.154 69.7139 251.808 70.1309 251.56 70.6069C251.313 71.0825 251.171 71.606 251.143 72.1411C251.271 72.7598 251.271 73.3979 251.143 74.0166C250.606 74.5752 249.915 74.9595 249.157 75.1196C248.606 75.1196 247.613 75.1196 248.054 76.4438C248.495 77.7676 250.37 77.8779 251.032 78.5396C251.694 79.2017 249.819 79.312 249.047 79.2017C248.208 79.0459 247.349 79.0459 246.51 79.2017C246.51 79.2017 244.966 79.2017 245.076 79.8638C245.186 80.5254 245.958 80.8564 246.4 81.2979C246.841 81.7388 247.172 82.0698 246.4 82.2905L244.855 83.2832C244.086 83.7837 243.223 84.1216 242.318 84.2764C240.933 84.0859 239.671 83.376 238.789 82.2905C238.127 82.2905 237.906 81.2979 237.024 81.0771C236.445 80.9277 235.838 80.9277 235.259 81.0771C234.046 81.0771 234.267 82.5112 235.259 83.5039C236.252 84.4971 235.259 85.269 235.259 86.2622C236.095 87.1333 237.112 87.811 238.237 88.2476C239.12 88.2476 240.554 89.2407 240.554 90.123C240.554 91.0054 238.679 91.0059 237.355 90.6748L232.171 89.6816C230.726 89.293 229.204 89.293 227.759 89.6816C226.987 89.6816 226.766 90.3438 227.759 90.8955C228.751 91.4468 229.854 91.5571 229.965 92.3296C230.075 93.1016 228.421 93.4326 227.979 93.6533C226.582 94.3843 225.1 94.9399 223.567 95.3081C222.322 95.3833 221.096 95.644 219.927 96.0806L218.714 97.0732C218.258 97.6396 217.989 98.3335 217.942 99.0591C217.969 99.2417 217.969 99.4277 217.942 99.6104L217.391 99.6104C216.98 99.7041 216.551 99.6572 216.171 99.4771C215.791 99.2969 215.482 98.9941 215.295 98.6177C215.295 97.9556 215.295 97.2939 214.081 97.0732C213.339 96.7725 212.508 96.7725 211.765 97.0732C211.688 97.2075 211.647 97.3599 211.647 97.5146C211.647 97.6694 211.688 97.8218 211.765 97.9556C211.765 97.9556 212.647 99.8311 212.868 100.824C213.04 101.4 213.04 102.013 212.868 102.589C212.868 102.589 212.206 103.251 211.875 103.582C211.462 104.079 211.229 104.701 211.214 105.347C211.214 106.561 211.214 107.774 209.89 108.436C209.353 108.746 208.745 108.909 208.125 108.909C207.505 108.909 206.897 108.746 206.36 108.436C205.232 107.88 204.161 107.215 203.161 106.45C201.617 105.347 204.044 105.347 204.596 105.237L207.243 104.685L209.338 104.023C209.89 104.023 210.772 103.251 210.441 102.369C210.111 101.486 204.816 99.6104 203.492 99.3901L201.507 99.3901L197.426 98.8384L195.441 98.8384C194.448 98.8384 194.117 100.604 192.462 98.8384C192.15 98.4463 191.743 98.1396 191.28 97.9468C190.818 97.7539 190.314 97.6812 189.815 97.7349C187.868 97.9204 186.023 98.6895 184.521 99.9414L183.418 101.265C183.078 102.141 182.673 102.989 182.204 103.803C181.884 103.921 181.532 103.921 181.212 103.803C178.895 104.464 178.895 106.781 179.557 109.539C179.557 110.312 179.557 111.194 180.329 111.856L180.329 113.18C180.329 113.842 180.329 115.497 180.329 116.82C180.379 117.628 180.379 118.439 180.329 119.247C180.329 121.564 180.329 123.991 179.557 126.418C179.161 128.243 179.395 130.148 180.219 131.823C181 132.999 182.172 133.859 183.528 134.25C184.178 134.396 184.855 134.372 185.493 134.178C186.131 133.985 186.708 133.63 187.168 133.147C188.712 131.934 189.705 132.485 191.359 134.25C191.938 135.109 192.739 135.795 193.676 136.236C194.11 136.428 194.58 136.527 195.054 136.527C195.529 136.527 195.999 136.428 196.433 136.236C197.205 135.574 197.095 134.471 196.433 133.368C196.223 132.899 196.115 132.392 196.115 131.878C196.115 131.365 196.223 130.858 196.433 130.389C196.557 129.902 196.552 129.391 196.416 128.907C196.281 128.423 196.02 127.983 195.661 127.631C194.558 126.197 192.683 124.653 192.021 123.66C191.687 123.121 191.463 122.521 191.359 121.895C191.305 121.345 191.305 120.791 191.359 120.24C191.573 118.863 191.868 117.5 192.242 116.158C192.419 115.173 192.419 114.165 192.242 113.18C192.192 112.74 192.192 112.296 192.242 111.856C192.408 111.497 192.672 111.193 193.004 110.979C193.336 110.764 193.722 110.647 194.117 110.642C194.542 110.471 195.016 110.471 195.441 110.642C195.761 111.062 195.994 111.542 196.127 112.054C196.259 112.565 196.288 113.098 196.213 113.621C196.213 114.724 195.44 115.276 195.22 116.269C195.211 117.585 195.554 118.88 196.213 120.02C196.535 121.325 197.224 122.512 198.198 123.439C199.522 124.432 200.955 123.439 202.058 123.439L203.492 122.777C204.296 122.644 205.116 122.644 205.919 122.777C205.919 122.777 207.132 123.77 206.802 124.101C206.471 124.432 206.802 124.101 206.14 124.101C205.478 124.101 204.044 124.874 203.051 125.425C202.059 125.977 201.286 126.087 201.617 127.08C201.948 128.073 202.831 128.293 203.382 128.624C203.934 128.955 204.706 129.286 204.816 130.059C204.917 130.162 204.974 130.3 204.974 130.444C204.974 130.589 204.917 130.728 204.816 130.831C204.237 130.98 203.63 130.98 203.051 130.831C203.051 130.831 202.059 130.168 201.838 130.831C201.617 131.493 202.5 133.147 202.72 133.809C203.253 134.787 203.483 135.9 203.382 137.008C203.382 139.215 200.625 139.987 198.86 140.649C197.74 140.94 196.595 141.125 195.441 141.201C194.677 141.365 193.887 141.365 193.124 141.201C191.249 141.201 191.028 137.67 190.036 136.236C189.043 134.802 187.94 136.236 188.05 137.56C188.161 138.884 190.477 141.09 190.477 142.966C190.477 144.841 189.153 144.841 188.381 145.503C187.918 146.063 187.605 146.731 187.47 147.444C187.335 148.158 187.383 148.895 187.609 149.584C187.837 150.302 187.837 151.073 187.609 151.791C187.272 152.703 186.866 153.588 186.396 154.438C186.396 155.211 185.734 155.763 184.962 155.983C184.19 156.204 183.859 155.983 183.638 156.535C183.418 157.086 183.638 157.528 183.638 158.079C182.893 158.439 182.118 158.734 181.322 158.962C181.322 158.962 180.329 159.844 181.322 160.286C182.123 160.443 182.947 160.443 183.749 160.286C184.429 160.508 185.051 160.881 185.567 161.378C186.082 161.875 186.479 162.482 186.727 163.154C187.719 165.029 187.83 166.794 186.065 167.677C184.178 168.261 182.419 169.197 180.881 170.435C179.557 171.759 180.881 174.848 181.432 176.502C181.641 177.234 182.112 177.862 182.756 178.268C183.14 178.762 183.585 179.207 184.079 179.591C184.798 179.812 185.567 179.812 186.286 179.591C186.63 179.425 187.007 179.339 187.389 179.339C187.771 179.339 188.147 179.425 188.491 179.591L186.286 179.591C186.286 179.591 186.286 178.819 187.168 178.488C188.05 178.157 187.719 178.488 188.05 178.488C188.38 178.535 188.714 178.535 189.043 178.488C189.043 178.488 189.043 178.488 189.043 177.826C189.386 177.441 189.635 176.982 189.769 176.484C189.903 175.986 189.919 175.463 189.815 174.958C189.815 174.958 189.815 173.965 189.815 173.414C189.699 172.831 189.699 172.231 189.815 171.648C189.76 171.209 189.76 170.764 189.815 170.325C189.815 169.552 190.587 169.442 191.139 169.001C191.462 168.72 191.696 168.352 191.814 167.941C191.931 167.529 191.927 167.093 191.801 166.684C191.801 165.912 191.801 165.029 191.801 164.478C191.801 163.926 193.014 164.478 193.565 164.478C194.117 164.478 195.11 163.154 195.771 162.382C196.04 162.038 196.383 161.76 196.775 161.568C197.166 161.377 197.597 161.277 198.033 161.277C198.469 161.277 198.899 161.377 199.291 161.568C199.682 161.76 200.026 162.038 200.294 162.382C201.031 163.032 201.846 163.588 202.72 164.037L204.706 164.809L207.243 165.912C208.235 165.912 208.566 167.677 208.677 168.67C208.787 169.663 208.677 169.773 208.677 169.994C208.677 170.214 209.339 169.994 209.449 169.442C209.559 168.891 209.449 167.457 209.449 166.353C209.449 165.25 209.449 165.36 209.449 165.029L210.111 165.029C210.111 165.029 210.111 163.926 209.118 163.706C208.616 163.545 208.076 163.545 207.573 163.706C207.573 163.706 205.809 162.933 205.478 162.712C204.466 162.309 203.504 161.79 202.61 161.168C201.807 160.75 201.153 160.095 200.735 159.293C200.735 158.079 201.507 157.749 202.39 157.969C203.272 158.189 203.382 158.962 203.934 159.403C204.485 159.844 206.691 160.286 208.015 160.506C209.339 160.727 209.228 161.389 209.89 162.161C210.552 162.933 210.993 163.264 211.434 163.926C211.875 164.588 211.434 163.926 212.206 164.809L213.53 165.36C213.969 165.297 214.415 165.297 214.854 165.36C214.854 165.36 214.854 165.36 214.854 166.132C214.854 166.905 214.853 167.897 216.398 168.118C217.942 168.339 216.398 166.574 216.398 165.801C216.524 165.583 216.59 165.336 216.59 165.084C216.59 164.833 216.524 164.585 216.398 164.368C216.398 164.368 215.515 164.367 215.074 163.375C214.633 162.382 215.074 162.161 215.626 161.499C216.177 160.837 216.508 159.734 217.721 160.065C218.935 160.396 218.493 160.065 218.604 161.279C218.714 162.492 219.376 162.382 219.817 163.043C220.258 163.706 220.479 164.368 221.03 164.698C221.652 165.209 222.396 165.548 223.189 165.684C223.982 165.819 224.797 165.746 225.553 165.471C225.553 165.471 226.435 164.588 227.097 164.588C227.759 164.588 227.648 164.588 227.869 164.588C228.345 164.65 228.827 164.65 229.303 164.588C229.814 164.194 230.369 163.86 230.958 163.595C231.84 163.595 232.281 163.595 232.391 164.588C232.653 166.41 233.021 168.215 233.494 169.994C233.494 170.656 234.487 172.2 234.267 172.862C234.046 173.524 232.612 172.862 232.06 172.862C230.458 172.805 228.866 173.146 227.428 173.855L225.112 174.737C224.357 174.968 223.55 174.968 222.795 174.737C221.361 174.737 217.501 172.862 217.059 174.737C216.618 176.613 218.052 178.599 215.957 178.929C214.975 179.145 213.959 179.145 212.978 178.929C211.473 178.82 209.961 178.82 208.456 178.929C207.46 179.302 206.363 179.302 205.368 178.929C203.934 178.157 205.368 177.164 205.368 175.951C205.252 175.402 205 174.891 204.633 174.467C204.267 174.042 203.798 173.718 203.272 173.524C202.44 173.304 201.566 173.304 200.735 173.524L199.522 173.524C199.037 173.689 198.615 173.997 198.308 174.406C197.387 174.95 196.428 175.429 195.441 175.84L193.896 176.502C193.896 176.502 192.793 176.502 192.573 177.164C192.25 178.06 191.752 178.882 191.108 179.583C190.464 180.283 189.687 180.849 188.822 181.246C187.665 181.347 186.557 181.767 185.624 182.459C184.733 183.429 184.024 184.55 183.528 185.769C183.021 186.731 182.579 187.727 182.204 188.748C181.961 189.305 181.836 189.905 181.836 190.513C181.836 191.12 181.961 191.721 182.204 192.278C182.476 192.988 182.476 193.774 182.204 194.484C181.904 195.73 181.34 196.896 180.55 197.904C179.609 198.927 178.961 200.185 178.675 201.545C178.507 202.9 178.507 204.271 178.675 205.626C178.842 208.389 179.974 211.005 181.874 213.018C182.425 213.569 182.425 215.776 182.535 216.548C182.712 217.899 183.288 219.167 184.19 220.188C184.803 220.859 185.556 221.387 186.396 221.733C187.997 222.661 189.51 223.731 190.918 224.932C192.39 225.904 193.939 226.752 195.551 227.47C197.626 228.167 199.873 228.167 201.948 227.47C202.952 227.199 203.866 226.667 204.596 225.925C204.988 225.534 205.434 225.2 205.919 224.932C206.984 224.493 207.957 223.857 208.787 223.057L209.89 221.512C210.218 220.985 210.673 220.548 211.212 220.24C211.751 219.932 212.358 219.763 212.978 219.747L214.633 219.747C215.649 220.201 216.727 220.499 217.832 220.63C218.335 220.783 218.873 220.783 219.376 220.63C220.2 220.36 221.089 220.36 221.913 220.63C224.119 221.623 224.119 224.05 223.898 226.366C223.9 227.289 224.133 228.197 224.576 229.006C225.019 229.816 225.658 230.501 226.435 231C227.097 231 227.648 232.213 228.31 232.655C228.972 233.096 229.744 233.647 230.185 234.53C230.626 235.413 231.178 235.964 231.619 236.626C232.504 238.026 233.173 239.55 233.605 241.149C233.605 241.921 233.605 242.804 233.605 243.576C233.605 244.348 233.605 244.348 233.605 244.79C233.654 245.524 233.654 246.261 233.605 246.996L233.605 248.099C233.562 248.908 233.562 249.718 233.605 250.526C233.605 251.85 234.708 254.167 235.039 255.49C235.28 256.298 235.613 257.075 236.031 257.807C237.948 260.865 240.086 263.777 242.429 266.522L245.628 270.604L247.172 272.59C247.793 273.305 248.278 274.128 248.606 275.017C249.598 276.561 250.591 277.444 252.135 277.333C253.448 277.094 254.647 276.436 255.555 275.458C257.798 273.647 259.481 271.238 260.408 268.508C261.023 266.618 261.358 264.648 261.401 262.661C261.509 261.708 261.509 260.746 261.401 259.793C261.401 258.91 261.401 257.917 261.401 256.925C261.292 255.345 261.292 253.76 261.401 252.181C260.906 250.04 260.906 247.813 261.401 245.672L262.834 242.804C264.137 240.981 264.725 238.744 264.489 236.516C260.849 226.146 254.893 219.196 261.18 208.164C263.035 203.7 263.828 198.866 263.496 194.043C263.496 191.947 261.29 191.175 260.298 192.167L258.202 193.822L256.216 195.146C255.555 195.146 254.783 195.146 253.9 195.146C253.528 195.163 253.157 195.079 252.828 194.905C252.498 194.73 252.221 194.471 252.025 194.153C252.025 193.492 251.253 192.719 250.701 191.947C250.194 191.385 249.547 190.966 248.826 190.733C247.253 190.064 245.828 189.089 244.635 187.865C243.422 186.572 242.384 185.125 241.546 183.563C240.911 182.597 240.085 181.771 239.12 181.136C238.186 180.385 237.301 179.574 236.473 178.708C235.59 177.826 232.722 174.848 233.825 173.634C234.928 172.421 236.803 175.51 237.465 176.171C238.127 176.833 240.333 178.819 241.767 180.033L243.973 181.908L247.282 184.666L248.385 185.659C248.385 185.659 250.04 186.873 250.37 187.534C252.135 190.623 253.79 192.058 255.444 191.285C257.257 189.947 258.824 188.304 260.077 186.431C262.18 183.952 264.062 181.294 265.702 178.488C265.987 177.548 266.208 176.589 266.364 175.62C266.533 174.56 266.533 173.48 266.364 172.421C266.367 171.988 266.212 171.57 265.927 171.245C265.643 170.919 265.249 170.709 264.82 170.656C264.82 170.656 263.827 170.656 263.276 170.656C262.724 170.656 262.283 169.552 261.731 169.111C261.18 168.67 260.077 169.111 259.525 170.214C258.974 171.317 257.65 172.531 256.658 172.2C255.665 171.869 255.996 171.317 255.555 170.876C255.113 170.435 254.782 170.876 254.341 170.876C253.9 170.876 252.245 169.663 251.363 168.891C250.481 168.118 249.268 166.905 249.268 165.912C249.268 164.919 251.474 165.912 252.135 165.912C252.964 166.233 253.775 166.602 254.562 167.015C255.185 167.414 255.919 167.607 256.658 167.566C257.389 167.677 258.132 167.677 258.864 167.566C258.864 167.566 259.746 167.566 260.408 167.566C260.692 167.456 261.007 167.456 261.29 167.566C262.578 168.004 263.974 168.004 265.261 167.566C266.695 167.015 268.019 166.132 269.342 165.471C270.316 164.91 271.417 164.605 272.541 164.588C273.987 164.736 275.343 165.357 276.401 166.353C277.174 167.236 278.056 168.56 279.269 168.67C280.483 168.78 280.262 166.133 281.034 166.463C281.806 166.794 281.806 167.567 281.917 168.008L282.799 169.552C283.571 170.656 284.233 171.869 284.895 172.972C286.322 175.391 287.906 177.712 289.638 179.922C290.52 181.025 291.733 182.57 292.947 182.57C294.16 182.57 294.05 181.577 294.16 181.025C294.213 180.401 294.213 179.774 294.16 179.15C294.267 178.381 294.267 177.602 294.16 176.833C294.062 175.364 294.062 173.89 294.16 172.421C294.106 171.76 294.106 171.096 294.16 170.435C294.373 169.228 294.706 168.046 295.153 166.905C295.562 166.115 295.93 165.305 296.256 164.478C296.204 164.112 296.204 163.74 296.256 163.375C296.193 162.64 296.193 161.902 296.256 161.168C296.374 160.837 296.562 160.537 296.807 160.286L297.8 160.286C298.462 160.286 298.462 159.293 298.903 158.741C299.344 158.189 300.227 158.741 300.668 158.741C301.109 158.741 302.984 161.499 303.756 163.043C304.528 164.588 304.528 164.919 305.411 164.698C306.293 164.478 306.514 163.816 307.286 164.698C308.058 165.581 308.72 166.463 309.492 167.236C310.264 168.008 311.036 168.118 311.477 169.111C311.919 170.104 311.477 169.883 311.477 170.545C311.477 171.207 311.477 171.428 311.477 171.869C311.811 172.409 312.036 173.008 312.139 173.634C312.139 174.296 312.139 174.958 312.139 175.51C312.252 175.59 312.387 175.634 312.525 175.634C312.664 175.634 312.799 175.59 312.911 175.51C313.581 175.659 314.171 176.052 314.566 176.613C314.605 176.979 314.605 177.349 314.566 177.716C314.805 178.125 315.102 178.497 315.448 178.819C315.777 179.214 316.038 179.662 316.22 180.143C316.307 180.314 316.353 180.503 316.353 180.694C316.353 180.886 316.307 181.075 316.22 181.246L318.647 181.246C318.023 181.193 317.396 181.193 316.772 181.246L316 181.246C314.566 181.246 317.213 184.445 317.764 184.776L319.088 185.659C319.513 186.021 319.853 186.473 320.081 186.982C321.507 188.851 323.176 190.521 325.044 191.947L326.478 192.609L327.912 192.609C329.125 196.581 331.552 192.609 333.317 193.712C335.082 194.815 335.964 193.712 337.288 192.94L338.17 192.278L338.17 191.175C337.969 191.291 337.741 191.352 337.508 191.352C337.276 191.352 337.048 191.291 336.846 191.175C336.609 191.049 336.344 190.983 336.074 190.983C335.805 190.983 335.54 191.049 335.302 191.175C334.142 191.474 333 191.843 331.883 192.278C331.269 192.447 330.621 192.447 330.008 192.278L329.015 192.278C328.353 191.727 328.243 190.733 327.912 189.741C327.822 189.228 327.628 188.739 327.344 188.303C327.06 187.867 326.69 187.493 326.258 187.203L325.155 186.431L323.39 185.659C322.781 185.241 322.348 184.612 322.177 183.894C322.095 183.702 322.052 183.496 322.052 183.287C322.052 183.079 322.095 182.872 322.177 182.68C322.488 181.787 322.488 180.815 322.177 179.922L321.184 178.819C321.184 178.157 320.191 177.716 319.75 177.164L318.868 176.613C316.964 174.767 315.593 172.442 314.897 169.883C314.897 169.111 314.897 168.229 314.897 168.118C314.997 168.06 315.111 168.03 315.228 168.03C315.344 168.03 315.458 168.06 315.558 168.118L317.103 169.001L318.095 169.663C319.309 169.663 320.963 173.745 321.956 171.207C321.956 170.435 322.949 169.883 323.28 169.111L323.28 168.118C323.47 167.171 323.47 166.197 323.28 165.25C323.176 164.624 322.952 164.024 322.618 163.485C322.061 162.311 321.228 161.289 320.191 160.506L318.537 159.183C317.875 159.183 317.544 159.183 317.213 157.969C316.882 156.755 317.213 153.777 319.088 153.777C319.605 153.812 320.121 153.695 320.572 153.44C321.023 153.186 321.389 152.804 321.625 152.343C322.124 151.058 322.832 149.865 323.721 148.812C325.284 147.653 326.597 146.189 327.581 144.51C325.836 138.99 323.774 133.575 321.404 128.293ZM233.163 153.446C231.882 153.615 230.584 153.615 229.303 153.446C227.21 153.803 225.239 154.675 223.567 155.983C222.88 156.464 222.084 156.768 221.251 156.866C219.376 156.866 219.045 153.005 219.045 150.909C218.861 149.887 218.861 148.841 219.045 147.82C219.817 146.165 223.016 146.827 222.685 147.82C222.354 148.812 222.685 148.592 223.567 149.033C224.45 149.475 224.45 149.806 224.781 149.033C225.112 148.261 223.678 146.606 224.781 145.282C226.104 144.179 227.207 144.731 227.648 146.716C227.586 147.192 227.586 147.675 227.648 148.151C228.862 149.916 230.957 149.475 231.068 149.695C231.178 149.916 232.061 149.695 232.833 150.357C233.605 151.019 234.708 152.895 233.053 153.446L233.163 153.446ZM249.598 155.211C247.723 155.211 246.51 152.343 245.848 150.578C245.186 148.812 241.767 148.151 240.774 146.275C240.393 145.622 240.151 144.898 240.062 144.147C239.972 143.396 240.038 142.635 240.256 141.911C240.473 141.187 240.837 140.515 241.324 139.938C241.812 139.36 242.413 138.888 243.091 138.553C244.855 138.553 244.635 140.98 244.414 142.966C244.194 144.951 244.414 143.958 245.628 144.51C247.046 145.305 248.568 145.899 250.15 146.275C251.032 146.275 250.15 147.93 250.15 148.592C250.15 149.254 253.018 150.909 253.349 152.894C253.68 154.88 251.363 155.432 249.488 155.211L249.598 155.211ZM193.565 169.883C193.565 169.001 193.565 168.449 191.801 169.222C190.036 169.994 191.801 169.883 191.249 170.435C190.698 170.986 192.793 171.207 193.455 169.883L193.565 169.883ZM335.082 169.883C333.648 169.883 333.538 171.759 332.986 173.083C332.261 174.711 331.374 176.264 330.339 177.716C329.787 178.599 328.133 178.378 328.353 180.033C328.636 181.427 329.283 182.721 330.229 183.783C330.819 184.65 331.568 185.399 332.435 185.99C332.854 186.223 333.316 186.372 333.793 186.426C334.27 186.48 334.753 186.439 335.215 186.306C335.676 186.173 336.107 185.95 336.481 185.649C336.856 185.349 337.168 184.977 337.398 184.556L337.398 183.453C337.352 182.57 337.352 181.687 337.398 180.805C337.398 178.929 337.398 177.054 336.626 175.068C336.303 174.788 336.068 174.419 335.951 174.008C335.833 173.597 335.838 173.16 335.964 172.751C336.736 171.759 336.295 170.104 334.971 170.325L335.082 169.883ZM79.4037 163.375C79.4037 165.36 79.4037 167.015 80.6169 167.125C81.8303 167.236 83.1538 165.25 84.3672 164.368C85.5804 163.485 84.3673 162.712 82.3818 161.83C80.3964 160.947 79.4037 161.83 79.2935 163.816L79.4037 163.375ZM208.346 169.222C208.346 169.023 208.306 168.828 208.227 168.646C208.148 168.464 208.033 168.301 207.888 168.166C207.743 168.032 207.571 167.928 207.384 167.863C207.197 167.798 206.999 167.772 206.802 167.787C206.802 167.787 206.802 167.787 206.802 168.891C206.802 169.994 208.346 170.986 208.346 169.663L208.346 169.222ZM200.956 166.463C200.956 164.478 197.757 159.844 197.757 161.94C197.702 162.306 197.702 162.678 197.757 163.043C198.088 165.691 200.735 168.891 200.845 166.905L200.956 166.463ZM110.729 235.413C109.426 235.744 108.061 235.744 106.758 235.413C105.435 235.413 103.891 234.861 103.008 235.413C102.126 235.964 103.67 236.626 104.332 236.847L105.986 236.847L108.744 237.508C108.917 237.588 109.105 237.629 109.295 237.629C109.486 237.629 109.674 237.588 109.847 237.508C111.281 236.847 112.384 235.413 114.259 235.964C116.134 236.516 115.582 236.736 115.913 235.964C115.913 235.964 115.913 234.861 115.913 234.419C115.913 233.979 111.943 235.523 110.619 235.854L110.729 235.413ZM129.591 98.2866C126.171 96.1904 132.017 87.2549 130.694 86.3721C129.37 85.4897 130.694 86.3721 129.922 86.3721C129.3 86.2749 128.668 86.2749 128.047 86.3721L127.164 86.3721C126.82 86.7983 126.558 87.2847 126.392 87.8066C126.392 88.689 125.62 89.7925 125.289 89.5718L124.737 89.5718C123.855 88.9097 124.076 89.5713 123.524 90.123C122.973 90.6748 122.2 91.0054 121.759 90.123C121.318 89.2407 121.759 87.6963 121.759 87.0342C121.854 86.5605 122.041 86.1108 122.311 85.7104C122.311 85.1587 122.311 83.835 121.098 83.3936C120.01 83.1357 118.876 83.1357 117.788 83.3936C115.698 83.7563 113.771 84.7583 112.273 86.2622C111.333 87.0688 110.548 88.0405 109.957 89.1304C108.964 90.6748 108.634 93.543 107.531 95.3081C107.344 95.7222 107.028 96.064 106.63 96.2832C106.232 96.502 105.774 96.5854 105.324 96.5215C104.208 96.4814 103.111 96.8188 102.21 97.4795C101.31 98.1401 100.658 99.0854 100.361 100.162C99.4785 102.258 100.361 102.038 100.361 103.692C100.361 105.347 98.4858 105.789 97.9343 106.229L97.1621 107.112C96.8344 108.078 96.8344 109.125 97.1621 110.091C97.1621 110.091 97.1621 110.752 96.6106 111.856C95.8184 113.202 94.9338 114.493 93.9635 115.717C93.0856 116.699 92.5446 117.936 92.4193 119.247C92.4193 120.571 92.4193 120.46 93.0811 120.681L93.7428 121.233C93.7428 121.233 94.5149 122.777 95.0664 122.777C95.6179 122.777 97.1622 121.343 98.2653 120.46C99.3683 119.578 102.015 117.482 103.67 118.916C104.232 119.423 104.651 120.07 104.883 120.792C105.364 122.705 105.623 124.667 105.655 126.639C105.558 127.487 105.752 128.343 106.207 129.065C107.089 130.168 108.633 129.617 109.736 130.941C110.489 132.282 110.724 133.851 110.398 135.354C110.053 136.9 109.573 138.414 108.964 139.877C108.877 141.423 109.141 142.97 109.736 144.4C110.087 146.181 110.801 147.871 111.832 149.364C112.846 150.998 113.989 152.547 115.252 153.998C115.717 154.567 116.276 155.052 116.906 155.432C117.616 155.648 118.366 155.69 119.096 155.556C119.825 155.422 120.512 155.114 121.098 154.659C121.541 154.434 121.935 154.123 122.257 153.745C122.578 153.366 122.822 152.927 122.973 152.453C123.855 150.136 122.973 147.599 122.421 145.172C122.333 144.292 122.436 143.403 122.721 142.565C123.006 141.728 123.468 140.961 124.076 140.318C125.367 139.235 126.451 137.927 127.274 136.457C127.274 135.023 127.274 133.147 128.267 131.713C129.26 130.279 131.025 129.286 132.238 128.183C133.451 127.08 134.665 125.756 134.223 124.211C133.782 122.667 134.223 123.108 134.223 122.226C134.305 121.695 134.535 121.198 134.885 120.792L135.547 120.792C135.547 120.792 135.547 119.468 135.547 119.026L134.665 118.365C133.341 117.041 132.679 115.717 133.672 114.283C134.665 112.849 135.878 110.752 134.665 108.767C133.451 106.781 133.12 107.333 132.569 106.009C132.515 105.458 132.515 104.904 132.569 104.354C132.445 103.439 132.445 102.511 132.569 101.596C132.672 101.352 132.725 101.089 132.725 100.824C132.725 100.559 132.672 100.296 132.569 100.052C131.135 98.9487 130.142 99.1689 129.48 98.728L129.591 98.2866ZM274.526 229.125L274.526 228.573C274.526 228.573 273.423 229.125 273.534 230.117L273.534 231.772C273.534 234.31 272.541 236.074 271.99 238.17C271.615 240.868 272.117 243.614 273.423 246.003C273.568 247.926 274.093 249.801 274.968 251.519C278.497 255.601 278.718 247.106 278.718 244.458C278.673 241.048 278.303 237.65 277.615 234.309C277.615 233.647 277.615 232.985 277.063 232.323C276.776 231.439 276.328 230.617 275.74 229.896L274.526 229.125ZM148.893 125.756C148.342 125.756 148.011 126.749 147.57 127.19L145.805 127.962C144.812 127.962 144.261 130.279 143.158 129.617C142.055 128.955 142.496 132.265 144.261 133.699C148.121 137.008 152.313 132.816 152.754 129.507C153.195 126.197 149.555 125.646 148.673 126.087L148.893 125.756Z" fill="#FFFFFF" fill-opacity="1.000000" fill-rule="nonzero"/>
	</g>
	<g opacity="0.400000">
		<path id="Vector" d="M228.09 67.9497C158.6 52.1738 148.563 99.3906 186.506 126.639C224.45 153.888 286.88 159.734 294.16 140.208C301.44 120.682 279.6 79.6436 228.09 67.9497Z" fill="#FFFFFF" fill-opacity="1.000000" fill-rule="nonzero"/>
	</g>
	<g opacity="0.500000">
		<path id="Vector" d="M166.432 291.235C98.0448 273.584 60.3218 178.489 68.1531 138.554C60.0028 156.93 55.8662 176.833 56.0193 196.935C56.1722 217.037 60.6115 236.874 69.0405 255.124C77.4696 273.373 89.6947 289.613 104.899 302.761C120.104 315.909 137.938 325.661 157.21 331.366C176.483 337.071 196.751 338.598 216.661 335.845C236.571 333.092 255.664 326.123 272.667 315.401C289.669 304.681 304.188 290.455 315.256 273.675C326.324 256.895 333.684 237.946 336.847 218.094C327.361 251.189 258.423 314.954 166.432 291.235Z" fill="url(#paint_linear_262_383_0)" fill-opacity="1.000000" fill-rule="nonzero"/>
	</g>
	<g opacity="0.100000">
		<path id="Vector" d="M239.23 330.948C209.871 340.085 178.334 339.394 149.403 328.98C120.473 318.567 95.7277 298.999 78.9235 273.246C62.1193 247.493 54.1727 216.96 56.2898 186.281C58.407 155.602 70.4722 126.451 90.6545 103.251C86.9043 107.774 38.7026 164.588 85.2498 253.615C133.782 346.172 239.12 330.838 259.856 322.785C253.206 326.044 246.31 328.773 239.23 330.948Z" fill="#000000" fill-opacity="1.000000" fill-rule="nonzero"/>
	</g>
</svg>
