<svg width="287.867065" height="314.592773" viewBox="0 0 287.867 314.593" fill="none" xmlns="http://www.w3.org/2000/svg" xmlns:xlink="http://www.w3.org/1999/xlink">
	<defs/>
	<g opacity="0.500000">
		<path id="Vector" d="M208.314 82.4702C229.589 48.2666 232.487 14.562 216.999 3.65332C201.51 -7.25488 170.758 6.82617 145.723 38.3862L74.1835 128.64L147.535 180.303L208.314 82.4702Z" fill="#C35CFC" fill-opacity="1.000000" fill-rule="nonzero"/>
		<g opacity="0.100000">
			<path id="Vector" d="M199.944 76.5762L137.675 173.391L130.058 158.83L191.906 70.5049C209.391 45.5254 219.192 22.6997 219.231 9.98975C219.229 9.74414 219.314 9.50537 219.472 9.31689C219.629 9.12793 219.848 9.00098 220.09 8.95898C220.332 8.9165 220.581 8.96143 220.793 9.08594C221.005 9.20996 221.166 9.40527 221.248 9.63721C225.654 22.3179 218.017 48.4824 199.944 76.5762Z" fill="#FFFFFF" fill-opacity="1.000000" fill-rule="nonzero"/>
		</g>
		<path id="Vector" d="M128.741 128.981C148.999 143.247 157.394 166.215 147.491 180.281C137.589 194.348 113.139 194.186 92.8806 179.919C72.6227 165.653 64.228 142.685 74.1307 128.619C84.0333 114.553 108.483 114.715 128.741 128.981Z" fill="#C35CFC" fill-opacity="1.000000" fill-rule="evenodd"/>
		<g opacity="0.500000">
			<path id="Vector" d="M128.741 128.981C148.999 143.247 157.394 166.215 147.491 180.281C137.589 194.348 113.139 194.186 92.8806 179.919C72.6227 165.653 64.228 142.685 74.1307 128.619C84.0333 114.553 108.483 114.715 128.741 128.981Z" fill="#FFFFFF" fill-opacity="1.000000" fill-rule="evenodd"/>
		</g>
		<g opacity="0.100000">
			<path id="Vector" d="M139.878 113.042C123.783 101.702 105.523 98.4609 93.8625 103.759L75.701 126.652C86.4707 114.628 109.488 115.45 128.737 129.002C147.985 142.555 156.532 163.99 148.817 178.159L164.061 153.679C165.373 140.822 156.15 124.498 139.878 113.042Z" fill="#000000" fill-opacity="1.000000" fill-rule="nonzero"/>
		</g>
		<g opacity="0.200000">
			<path id="Vector" d="M165.657 39.2285C161.192 46.2983 157.824 59.5278 171.091 68.8599C184.357 78.1924 195.675 70.5835 200.815 63.9639L165.657 39.2285Z" fill="#000000" fill-opacity="1.000000" fill-rule="nonzero"/>
		</g>
		<path id="Vector" d="M203.948 55.8164C202.43 68.4487 187.833 77.6631 172.51 66.8721C157.188 56.0811 160.938 39.2285 172.314 33.5781C179.324 30.0723 188.254 31.6196 194.363 35.8696C200.472 40.1196 204.888 47.9824 203.948 55.8164Z" fill="#FFFFFF" fill-opacity="1.000000" fill-rule="nonzero"/>
		<path id="Vector" d="M174.596 63.8853C168.633 59.6943 165.578 54.2104 166.009 48.4722C166.205 45.9956 167.038 43.6118 168.428 41.5527C169.818 39.4937 171.716 37.8291 173.94 36.7217C179.266 34.0581 186.804 34.8901 192.277 38.7388C197.75 42.5869 201.089 49.4224 200.355 55.3369C200.063 57.7969 199.141 60.1401 197.678 62.1387C196.215 64.1377 194.26 65.7241 192.003 66.7446C186.775 69.1147 180.558 68.0864 174.596 63.8853Z" fill="#C35CFC" fill-opacity="1.000000" fill-rule="nonzero"/>
		<g opacity="0.300000">
			<path id="Vector" d="M174.596 63.8853C168.633 59.6943 165.578 54.2104 166.009 48.4722C166.205 45.9956 167.038 43.6118 168.428 41.5527C169.818 39.4937 171.716 37.8291 173.94 36.7217C179.266 34.0581 186.804 34.8901 192.277 38.7388C197.75 42.5869 201.089 49.4224 200.355 55.3369C200.063 57.7969 199.141 60.1401 197.678 62.1387C196.215 64.1377 194.26 65.7241 192.003 66.7446C186.775 69.1147 180.558 68.0864 174.596 63.8853Z" fill="#000000" fill-opacity="1.000000" fill-rule="nonzero"/>
		</g>
		<path id="Vector" d="M174.596 63.8857C168.633 59.6948 165.471 54.3677 165.706 48.9033C165.807 46.5806 166.549 44.3306 167.848 42.4019C169.147 40.4736 170.954 38.9419 173.068 37.9751C178.189 35.6055 185.581 36.6436 191.054 40.5015C196.527 44.3599 199.992 50.9697 199.483 56.5903C199.286 58.9106 198.449 61.1309 197.067 63.0049C195.684 64.8784 193.809 66.3325 191.651 67.2051C186.628 69.2715 180.558 68.0864 174.596 63.8857Z" fill="#C35CFC" fill-opacity="1.000000" fill-rule="nonzero"/>
		<g opacity="0.200000">
			<path id="Vector" d="M174.596 63.8857C168.633 59.6948 165.471 54.3677 165.706 48.9033C165.807 46.5806 166.549 44.3306 167.848 42.4019C169.147 40.4736 170.954 38.9419 173.068 37.9751C178.189 35.6055 185.581 36.6436 191.054 40.5015C196.527 44.3599 199.992 50.9697 199.483 56.5903C199.286 58.9106 198.449 61.1309 197.067 63.0049C195.684 64.8784 193.809 66.3325 191.651 67.2051C186.628 69.2715 180.558 68.0864 174.596 63.8857Z" fill="#FFFFFF" fill-opacity="1.000000" fill-rule="nonzero"/>
		</g>
		<g opacity="0.300000">
			<path id="Vector" d="M195.205 44.3696L167.644 56.5317C166.277 54.228 165.598 51.5811 165.686 48.9033C165.738 47.6426 165.986 46.397 166.421 45.2119L184.21 37.3779C188.528 38.4722 192.377 40.9312 195.185 44.3892L195.205 44.3696Z" fill="#FFFFFF" fill-opacity="1.000000" fill-rule="nonzero"/>
		</g>
		<g opacity="0.300000">
			<path id="Vector" d="M199.16 52.2129L173.871 63.3564C172.35 62.2407 170.964 60.9526 169.74 59.5181L197.251 47.3755C198.111 48.8906 198.753 50.519 199.16 52.2129Z" fill="#FFFFFF" fill-opacity="1.000000" fill-rule="nonzero"/>
		</g>
		<g opacity="0.100000">
			<path id="Vector" d="M226.73 30.4062C225.888 23.6499 220.699 15.8354 212.495 10.0581C204.29 4.28027 195.195 2.02832 188.547 3.50684C199.855 -1.10547 209.989 -1.28174 216.999 3.65381C224.009 8.58887 227.259 18.2051 226.73 30.4062Z" fill="#000000" fill-opacity="1.000000" fill-rule="nonzero"/>
		</g>
		<g opacity="0.500000">
			<path id="Vector" d="M123.144 136.938C129.312 141.282 131.811 148.355 128.726 152.738C125.641 157.12 118.14 157.151 111.972 152.808C105.805 148.464 103.306 141.391 106.391 137.009C109.476 132.626 116.977 132.595 123.144 136.938Z" fill="#C35CFC" fill-opacity="1.000000" fill-rule="evenodd"/>
		</g>
		<g opacity="0.500000">
			<path id="Vector" d="M99.639 148.626C96.5549 153.003 89.0553 153.043 82.8873 148.695C76.7192 144.347 74.2128 137.277 77.2969 132.9C80.3809 128.523 87.8903 128.484 94.0583 132.832C100.226 137.179 102.684 144.25 99.639 148.626Z" fill="#C35CFC" fill-opacity="1.000000" fill-rule="nonzero"/>
		</g>
		<g opacity="0.500000">
			<path id="Vector" d="M142.434 178.796C139.349 183.183 131.85 183.212 125.682 178.864C119.514 174.517 117.017 167.447 120.101 163.069C123.185 158.692 130.685 158.653 136.853 163.001C143.021 167.349 145.518 174.419 142.434 178.796Z" fill="#C35CFC" fill-opacity="1.000000" fill-rule="nonzero"/>
		</g>
		<g opacity="0.500000">
			<path id="Vector" d="M113.346 174.673C110.262 179.05 102.762 179.08 96.5941 174.742C90.426 170.404 87.9294 163.324 91.0134 158.937C94.0975 154.55 101.597 154.531 107.765 158.869C113.933 163.207 116.391 170.287 113.346 174.673Z" fill="#C35CFC" fill-opacity="1.000000" fill-rule="nonzero"/>
		</g>
		<g opacity="0.500000">
			<path id="Vector" d="M128.737 152.759C128.41 153.221 128.029 153.642 127.601 154.012C129.314 149.645 126.729 143.583 121.217 139.706C115.705 135.828 109.136 135.436 105.601 138.511C105.809 137.99 106.075 137.494 106.395 137.032C109.479 132.655 116.988 132.616 123.156 136.964C129.324 141.312 131.811 148.372 128.737 152.759Z" fill="#C35CFC" fill-opacity="1.000000" fill-rule="nonzero"/>
		</g>
		<g opacity="0.500000">
			<path id="Vector" d="M99.639 148.627C99.314 149.087 98.9362 149.508 98.5131 149.88C100.226 145.503 97.6515 139.451 92.1296 135.564C86.6078 131.676 80.0481 131.294 76.5137 134.379C76.7192 133.856 76.9854 133.36 77.3068 132.9C80.3907 128.513 87.8904 128.484 94.0583 132.832C100.226 137.18 102.684 144.24 99.639 148.627Z" fill="#C35CFC" fill-opacity="1.000000" fill-rule="nonzero"/>
		</g>
		<g opacity="0.500000">
			<path id="Vector" d="M142.434 178.806C142.108 179.263 141.73 179.681 141.308 180.05C143.021 175.672 140.436 169.621 134.924 165.743C129.412 161.865 122.843 161.464 119.308 164.558C119.512 164.032 119.778 163.532 120.101 163.07C123.185 158.683 130.685 158.653 136.853 163.001C143.021 167.349 145.527 174.419 142.434 178.806Z" fill="#C35CFC" fill-opacity="1.000000" fill-rule="nonzero"/>
		</g>
		<g opacity="0.500000">
			<path id="Vector" d="M113.346 174.673C113.026 175.135 112.648 175.553 112.22 175.917C113.933 171.55 111.349 165.488 105.836 161.61C100.324 157.732 93.7549 157.341 90.2205 160.425C90.422 159.898 90.6884 159.398 91.0135 158.937C94.0975 154.55 101.597 154.531 107.765 158.869C113.933 163.207 116.391 170.287 113.346 174.673Z" fill="#C35CFC" fill-opacity="1.000000" fill-rule="nonzero"/>
		</g>
		<path id="Vector" d="M122.725 71.7095C122.725 71.7095 109.508 88.8652 97.9943 103.632C96.3591 105.691 94.2169 107.289 91.7777 108.269C89.3386 109.25 86.6864 109.579 84.0818 109.224C74.0269 107.98 57.6472 115.099 57.6472 115.099C57.6472 115.099 88.6344 64.189 122.725 71.7095Z" fill="#C35CFC" fill-opacity="1.000000" fill-rule="nonzero"/>
		<g opacity="0.300000">
			<path id="Vector" d="M122.725 71.7095C122.725 71.7095 109.508 88.8652 97.9943 103.632C96.3591 105.691 94.2169 107.289 91.7777 108.269C89.3386 109.25 86.6864 109.579 84.0818 109.224C74.0269 107.98 57.6472 115.099 57.6472 115.099C57.6472 115.099 88.6344 64.189 122.725 71.7095Z" fill="#000000" fill-opacity="1.000000" fill-rule="nonzero"/>
		</g>
		<path id="Vector" d="M184.709 115.372C184.709 115.372 173.068 133.595 162.994 149.41C161.608 151.643 160.826 154.198 160.727 156.825C160.627 159.452 161.213 162.06 162.426 164.392C166.988 173.449 165.794 191.31 165.794 191.31C165.794 191.31 203.282 144.925 184.709 115.372Z" fill="#C35CFC" fill-opacity="1.000000" fill-rule="nonzero"/>
		<g opacity="0.300000">
			<path id="Vector" d="M184.709 115.372C184.709 115.372 173.068 133.595 162.994 149.41C161.608 151.643 160.826 154.198 160.727 156.825C160.627 159.452 161.213 162.06 162.426 164.392C166.988 173.449 165.794 191.31 165.794 191.31C165.794 191.31 203.282 144.925 184.709 115.372Z" fill="#000000" fill-opacity="1.000000" fill-rule="nonzero"/>
		</g>
		<path id="Vector" d="M227.416 246.381C239.644 216.457 186.775 207.977 165.853 215.487C144.93 222.998 123.597 228.579 122.774 208.554C121.952 188.529 138.067 176.113 130.381 171.491C126.122 168.925 124.908 173.449 122.803 180.049C116.361 200.27 79.8718 205.088 96.6626 234.356C113.453 263.625 104.495 257.27 76.2493 269.011C48.0034 280.751 62.5425 314.563 89.8679 314.563L254.428 314.563C329.855 314.563 258.442 170.169 227.416 246.381Z" fill="#C35CFC" fill-opacity="1.000000" fill-rule="nonzero"/>
		<g opacity="0.600000">
			<path id="Vector" d="M227.416 246.381C239.644 216.457 186.775 207.977 165.853 215.487C144.93 222.998 123.597 228.579 122.774 208.554C121.952 188.529 138.067 176.113 130.381 171.491C126.122 168.925 124.908 173.449 122.803 180.049C116.361 200.27 79.8718 205.088 96.6626 234.356C113.453 263.625 104.495 257.27 76.2493 269.011C48.0034 280.751 62.5425 314.563 89.8679 314.563L254.428 314.563C329.855 314.563 258.442 170.169 227.416 246.381Z" fill="#FFFFFF" fill-opacity="1.000000" fill-rule="nonzero"/>
		</g>
		<path id="Vector" d="M88.4288 142.075C86.2357 134.457 74.3695 144.034 62.6796 155.637C50.9896 167.241 45.2229 193.729 33.9148 207.536C22.6067 221.342 -9.77075 233.818 2.88843 254.597C21.5591 285.216 -21.353 314.593 29.4698 314.593L133.71 314.593C152.772 314.593 173.44 291.278 143.755 275.424C114.07 259.571 69.6016 296.536 57.5983 261.275C51.6455 243.776 73.2632 251.806 63.2474 223.154C53.2317 194.502 53.8975 186.698 58.9983 173.929C71.4127 142.81 91.8065 153.649 88.4288 142.075Z" fill="#C35CFC" fill-opacity="1.000000" fill-rule="nonzero"/>
		<g opacity="0.600000">
			<path id="Vector" d="M88.4288 142.075C86.2357 134.457 74.3695 144.034 62.6796 155.637C50.9896 167.241 45.2229 193.729 33.9148 207.536C22.6067 221.342 -9.77075 233.818 2.88843 254.597C21.5591 285.216 -21.353 314.593 29.4698 314.593L133.71 314.593C152.772 314.593 173.44 291.278 143.755 275.424C114.07 259.571 69.6016 296.536 57.5983 261.275C51.6455 243.776 73.2632 251.806 63.2474 223.154C53.2317 194.502 53.8975 186.698 58.9983 173.929C71.4127 142.81 91.8065 153.649 88.4288 142.075Z" fill="#FFFFFF" fill-opacity="1.000000" fill-rule="nonzero"/>
		</g>
		<path id="Vector" d="M110.037 145.591C112.621 140.871 121.492 143.701 121.296 149.88C121.1 156.059 98.1312 164.157 102.4 185.494C106.669 206.831 147.672 208.358 157.296 229.734C166.92 251.11 129.637 254.107 140.759 267.473C151.882 280.839 186.207 250.141 210.664 258.034C235.121 265.926 259.558 314.563 214.698 314.563L76.4647 314.563C46.4076 314.563 24.457 252.491 53.3394 226.954C82.2216 201.416 58.9199 209.709 69.6993 193.347C80.4788 176.984 100.119 163.687 110.037 145.591Z" fill="#C35CFC" fill-opacity="1.000000" fill-rule="nonzero"/>
		<g opacity="0.800000">
			<path id="Vector" d="M110.037 145.591C112.621 140.871 121.492 143.701 121.296 149.88C121.1 156.059 98.1312 164.157 102.4 185.494C106.669 206.831 147.672 208.358 157.296 229.734C166.92 251.11 129.637 254.107 140.759 267.473C151.882 280.839 186.207 250.141 210.664 258.034C235.121 265.926 259.558 314.563 214.698 314.563L76.4647 314.563C46.4076 314.563 24.457 252.491 53.3394 226.954C82.2216 201.416 58.9199 209.709 69.6993 193.347C80.4788 176.984 100.119 163.687 110.037 145.591Z" fill="#FFFFFF" fill-opacity="1.000000" fill-rule="nonzero"/>
		</g>
	</g>
</svg>
